<svg width="732" height="158" viewBox="0 0 732 158" fill="none" xmlns="http://www.w3.org/2000/svg">
<g filter="url(#filter0_dd_462_10309)">
<path fill-rule="evenodd" clip-rule="evenodd" d="M90.285 144.923C104.499 151.716 118.387 146.573 132.138 136.267C111.488 144.487 86.5818 123.555 55.7372 84.1024L53.7454 84.8597V87.1161C53.7454 89.9063 51.4663 92.1882 48.6737 92.1882L35.3263 92.1882L35.2779 92.1882C45.6576 102.566 80.8072 140.391 90.285 144.923ZM34.3333 87.1161V73.7588C34.3333 73.2122 34.7814 72.7666 35.3277 72.7666L48.6751 72.7666C49.2242 72.7666 49.6695 73.2136 49.6695 73.7588V87.1161C49.6695 87.6627 49.2242 88.1126 48.6751 88.1126L35.3277 88.1126C34.7814 88.1126 34.3333 87.6627 34.3333 87.1161ZM50.4036 68.5642V55.2084C50.4036 54.6632 50.8489 54.2133 51.3938 54.2133L64.744 54.2133C65.2889 54.2133 65.7384 54.6632 65.7384 55.2084V68.5642C65.7384 69.1137 65.2889 69.5607 64.744 69.5607L51.3938 69.5607C50.8489 69.5607 50.4036 69.1137 50.4036 68.5642ZM21.2989 67.2161V53.8603C21.2989 53.3108 21.7484 52.8652 22.2933 52.8652L35.6435 52.8652C36.1884 52.8652 36.638 53.3108 36.638 53.8603L36.638 67.2161C36.638 67.7642 36.1898 68.2112 35.6435 68.2112L22.2933 68.2112C21.7499 68.2112 21.2989 67.7642 21.2989 67.2161ZM40.6669 52.5705V44.8249C40.6669 44.5075 40.9244 44.247 41.2417 44.247L48.9824 44.247C49.2996 44.247 49.5571 44.5089 49.5571 44.8249V52.5705C49.5571 52.8894 49.2996 53.1471 48.9824 53.1471L41.2417 53.1471C40.9244 53.1471 40.6669 52.8894 40.6669 52.5705ZM28.2101 48.5931V43.3117C28.2101 43.0939 28.388 42.9145 28.6042 42.9145L33.8823 42.9145C34.1 42.9145 34.2764 43.0939 34.2764 43.3117V48.5931C34.2764 48.8095 34.1 48.9874 33.8823 48.9874L28.6042 48.9874C28.3894 48.9874 28.2101 48.8095 28.2101 48.5931ZM18.3227 84.9423V78.8765C18.3227 78.6274 18.5275 78.4267 18.7751 78.4267L24.8385 78.4267C25.0874 78.4267 25.2909 78.6288 25.2909 78.8765V84.9423C25.2909 85.1943 25.0874 85.3964 24.8385 85.3964L18.7751 85.3964C18.5275 85.395 18.3227 85.1943 18.3227 84.9423ZM9 57.6256V51.5555C9 51.3078 9.20202 51.1071 9.44814 51.1071L15.5115 51.1071C15.7619 51.1071 15.9639 51.3093 15.9639 51.5555L15.9639 57.6256C15.9639 57.8733 15.7619 58.074 15.5115 58.074L9.44814 58.074C9.20202 58.0754 9 57.8733 9 57.6256ZM111.14 129.441C133.83 140.269 151.23 123.696 143.037 92.0302C140.515 138.474 106.263 109.329 70.3863 54.6532C69.2809 52.9677 69.8158 53.4375 69.8158 55.2084V68.5642C69.8158 71.3544 67.5324 73.6392 64.744 73.6392L54.0897 73.6392C65.5478 89.1931 93.1374 120.85 111.14 129.441Z" fill="#F6F6F6"/>
<path fill-rule="evenodd" clip-rule="evenodd" d="M135.721 11.0807C121.509 4.28462 107.619 9.42794 93.8691 19.7331C114.518 11.5149 139.425 32.4512 170.269 71.898L172.262 71.1407V68.8858C172.262 66.0928 174.541 63.8122 177.329 63.8122L190.68 63.8122L190.728 63.8122C180.35 53.4359 145.2 15.6105 135.721 11.0807ZM191.674 68.8872V82.2431C191.674 82.7883 191.224 83.2381 190.68 83.2381L177.329 83.2381C176.784 83.2381 176.339 82.7897 176.339 82.2431V68.8872C176.339 68.3392 176.784 67.8921 177.329 67.8921L190.68 67.8921C191.224 67.8921 191.674 68.3392 191.674 68.8872ZM175.605 87.4362V100.792C175.605 101.342 175.16 101.787 174.611 101.787L161.263 101.787C160.718 101.787 160.269 101.342 160.269 100.792V87.4362C160.269 86.8881 160.717 86.4411 161.263 86.4411L174.611 86.4411C175.16 86.4411 175.605 86.8881 175.605 87.4362ZM204.704 88.7858V102.142C204.704 102.69 204.257 103.137 203.713 103.137L190.362 103.137C189.817 103.137 189.366 102.69 189.366 102.142V88.7858C189.366 88.2405 189.816 87.7907 190.362 87.7907L203.713 87.7907C204.259 87.7907 204.704 88.2405 204.704 88.7858ZM185.342 103.434V111.18C185.342 111.497 185.084 111.755 184.767 111.755L177.026 111.755C176.709 111.755 176.449 111.497 176.449 111.18V103.434C176.449 103.117 176.709 102.856 177.026 102.856L184.767 102.856C185.084 102.855 185.342 103.117 185.342 103.434ZM197.797 107.41V112.693C197.797 112.908 197.618 113.086 197.403 113.086L192.124 113.086C191.906 113.086 191.731 112.908 191.731 112.693V107.41C191.731 107.192 191.906 107.013 192.124 107.013L197.403 107.013C197.618 107.014 197.797 107.192 197.797 107.41ZM207.685 71.0596V77.1268C207.685 77.3745 207.48 77.5795 207.231 77.5795L201.169 77.5795C200.92 77.5795 200.715 77.3759 200.715 77.1268V71.0596C200.715 70.8119 200.92 70.6069 201.169 70.6069L207.231 70.6069C207.48 70.6069 207.685 70.8119 207.685 71.0596ZM217.007 98.3791V104.446C217.007 104.694 216.805 104.895 216.558 104.895L210.492 104.895C210.244 104.895 210.043 104.693 210.043 104.446V98.3791C210.043 98.1286 210.245 97.9264 210.492 97.9264L216.558 97.9264C216.807 97.9264 217.007 98.1286 217.007 98.3791ZM114.869 26.5591C92.179 15.7329 74.7785 32.3046 82.9716 63.9759C85.4911 17.528 119.746 46.6754 155.618 101.347C156.724 103.034 156.193 102.564 156.193 100.792V87.4362C156.193 84.646 158.476 82.3626 161.263 82.3626L171.918 82.3626C160.461 66.8074 132.871 35.1545 114.869 26.5591Z" fill="#59D51D"/>
<path d="M692.576 127.737C687.686 127.737 683.453 127.008 679.877 125.548C676.301 124.161 673.454 122.154 671.338 119.527C669.294 116.973 668.126 113.98 667.834 110.55H680.972C681.263 112.01 681.92 113.287 682.942 114.382C684.037 115.477 685.424 116.316 687.102 116.9C688.781 117.557 690.715 117.885 692.904 117.885C696.189 117.885 698.889 117.411 701.006 116.462C703.195 115.513 704.801 114.053 705.823 112.083C706.917 110.112 707.465 107.558 707.465 104.42V93.6917H706.698C705.458 97.0489 703.195 99.7857 699.911 101.902C696.627 103.946 692.758 104.967 688.306 104.967C684.803 104.967 681.628 104.347 678.782 103.106C676.009 101.866 673.6 100.078 671.557 97.7422C669.513 95.3338 667.944 92.4146 666.849 88.9845C665.754 85.4814 665.207 81.4674 665.207 76.9426C665.207 70.8852 666.156 65.813 668.053 61.726C670.024 57.5661 672.761 54.4279 676.264 52.3115C679.767 50.1221 683.854 49.0273 688.525 49.0273C692.904 49.0273 696.7 50.0491 699.911 52.0926C703.195 54.136 705.458 56.7998 706.698 60.084H707.465L707.903 50.1221H721.149V102.231C721.149 106.901 720.456 110.842 719.069 114.053C717.755 117.338 715.821 119.965 713.267 121.935C710.713 123.979 707.684 125.438 704.18 126.314C700.75 127.263 696.882 127.737 692.576 127.737ZM693.233 94.3486C696.298 94.3486 698.853 93.6917 700.896 92.3781C703.013 90.9914 704.618 89.2399 705.713 87.1234C706.808 84.934 707.392 82.7081 707.465 80.4457V73.4395C707.392 71.1041 706.808 68.9147 705.713 66.8712C704.618 64.7548 703.049 63.0397 701.006 61.726C698.962 60.3394 696.408 59.6461 693.342 59.6461C690.496 59.6461 687.978 60.3029 685.789 61.6166C683.672 62.9302 682.03 64.8642 680.862 67.4186C679.694 69.9729 679.11 73.1476 679.11 76.9426C679.11 80.8106 679.694 84.0582 680.862 86.6856C682.103 89.2399 683.781 91.1739 685.898 92.4876C688.015 93.7282 690.459 94.3486 693.233 94.3486Z" fill="#F6F6F6"/>
<path d="M600.52 108.361V50.1221H613.657L614.204 61.1787H614.861C616.54 57.0918 619.094 54.063 622.524 52.0926C625.954 50.0491 629.786 49.0273 634.019 49.0273C636.939 49.0273 639.639 49.5017 642.12 50.4505C644.675 51.3262 646.864 52.7494 648.689 54.7199C650.587 56.6174 652.046 59.1352 653.068 62.2734C654.163 65.3386 654.71 69.0606 654.71 73.4395V108.361H641.026V76.3952C641.026 72.7462 640.588 69.754 639.712 67.4186C638.836 65.0102 637.486 63.2222 635.661 62.0545C633.91 60.8868 631.611 60.3029 628.764 60.3029C625.699 60.3029 623.072 61.0327 620.882 62.4923C618.766 63.952 617.123 65.886 615.956 68.2943C614.788 70.7027 614.204 73.3665 614.204 76.2858V108.361H600.52Z" fill="#F6F6F6"/>
<path d="M572.082 108.364V50.1255H585.767V108.364H572.082ZM572.082 41.9151V28.5596H585.767V41.9151H572.082Z" fill="#F6F6F6"/>
<path d="M506.859 108.364V28.5596H520.763V76.0702L525.689 70.4872L545.176 50.1255H562.145L539.593 73.005L562.692 108.364H546.599L533.462 88.1121L529.959 82.0912L520.763 91.1773V108.364H506.859Z" fill="#F6F6F6"/>
<path d="M470.8 109.456C465.619 109.456 461.166 108.653 457.444 107.047C453.722 105.369 450.839 103.07 448.796 100.151C446.825 97.2313 445.84 93.8377 445.84 89.9697H459.305C459.378 93.3268 460.51 95.7717 462.699 97.3043C464.889 98.8369 467.735 99.6032 471.238 99.6032C474.669 99.6032 477.259 98.9829 479.011 97.7422C480.836 96.4285 481.748 94.6405 481.748 92.3781C481.748 90.5536 481.347 89.1669 480.544 88.2182C479.741 87.1964 478.427 86.4301 476.603 85.9193C474.778 85.3354 472.37 84.8245 469.377 84.3867C464.487 83.6568 460.4 82.6716 457.116 81.4309C453.832 80.1173 451.387 78.3292 449.781 76.0668C448.175 73.8044 447.373 70.8122 447.373 67.0902C447.373 63.4411 448.358 60.2664 450.328 57.5661C452.299 54.8658 455.072 52.7859 458.649 51.3262C462.225 49.7936 466.421 49.0273 471.238 49.0273C475.909 49.0273 479.96 49.7936 483.39 51.3262C486.893 52.7859 489.594 54.9023 491.491 57.6756C493.462 60.3759 494.484 63.6235 494.557 67.4186H481.091C481.091 65.3751 480.653 63.733 479.777 62.4923C478.975 61.1787 477.807 60.2299 476.274 59.6461C474.741 59.0622 472.953 58.7703 470.91 58.7703C467.845 58.7703 465.436 59.4271 463.684 60.7408C461.933 61.9815 461.057 63.6965 461.057 65.886C461.057 67.4915 461.495 68.8052 462.371 69.8269C463.32 70.7757 464.816 71.542 466.859 72.1258C468.903 72.7097 471.53 73.2206 474.741 73.6584C478.245 74.1693 481.274 74.8261 483.828 75.6289C486.455 76.4317 488.645 77.5264 490.397 78.9131C492.148 80.2267 493.462 81.9053 494.338 83.9488C495.286 85.9193 495.761 88.3276 495.761 91.1739C495.761 97.0124 493.462 101.537 488.864 104.748C484.339 107.887 478.318 109.456 470.8 109.456Z" fill="#F6F6F6"/>
<path d="M401.16 109.346C397.657 109.346 394.446 108.726 391.526 107.485C388.68 106.171 386.199 104.237 384.082 101.683C382.038 99.1288 380.469 95.9906 379.375 92.2686C378.28 88.4736 377.732 84.1312 377.732 79.2415C377.732 72.6002 378.681 67.0537 380.579 62.6018C382.549 58.077 385.286 54.6834 388.789 52.421C392.366 50.1586 396.489 49.0273 401.16 49.0273C404.372 49.0273 407.218 49.5382 409.699 50.56C412.254 51.5087 414.443 52.8588 416.268 54.6104C418.093 56.3619 419.479 58.4419 420.428 60.8503H421.194L421.742 50.1221H434.879V108.361H421.194V97.5232H420.428C419.041 101.099 416.669 103.982 413.312 106.171C409.955 108.288 405.904 109.346 401.16 109.346ZM406.306 98.1801C409.59 98.1801 412.29 97.4138 414.407 95.8812C416.596 94.3486 418.239 92.3781 419.333 89.9697C420.428 87.4883 420.975 84.8975 420.975 82.1972V76.1763C420.975 73.403 420.428 70.8122 419.333 68.4038C418.239 65.9225 416.596 63.952 414.407 62.4923C412.29 60.9597 409.59 60.1934 406.306 60.1934C403.386 60.1934 400.832 60.8868 398.642 62.2734C396.453 63.66 394.738 65.7765 393.497 68.6228C392.256 71.396 391.636 74.9356 391.636 79.2415C391.636 83.4014 392.256 86.9045 393.497 89.7508C394.738 92.597 396.453 94.7135 398.642 96.1001C400.832 97.4867 403.386 98.1801 406.306 98.1801Z" fill="#F6F6F6"/>
<path d="M333.617 109.346C330.114 109.346 326.903 108.726 323.983 107.485C321.137 106.171 318.656 104.237 316.539 101.683C314.496 99.1288 312.926 95.9906 311.832 92.2686C310.737 88.4736 310.189 84.1312 310.189 79.2415C310.189 72.6002 311.138 67.0537 313.036 62.6018C315.006 58.077 317.743 54.6834 321.247 52.421C324.823 50.1586 328.946 49.0273 333.617 49.0273C336.829 49.0273 339.675 49.5382 342.156 50.56C344.711 51.5087 346.9 52.8588 348.725 54.6104C350.55 56.3619 351.936 58.4419 352.885 60.8503H353.651L354.199 50.1221H367.336V108.361H353.651V97.5232H352.885C351.498 101.099 349.126 103.982 345.769 106.171C342.412 108.288 338.361 109.346 333.617 109.346ZM338.763 98.1801C342.047 98.1801 344.747 97.4138 346.864 95.8812C349.053 94.3486 350.696 92.3781 351.79 89.9697C352.885 87.4883 353.432 84.8975 353.432 82.1972V76.1763C353.432 73.403 352.885 70.8122 351.79 68.4038C350.696 65.9225 349.053 63.952 346.864 62.4923C344.747 60.9597 342.047 60.1934 338.763 60.1934C335.843 60.1934 333.289 60.8868 331.099 62.2734C328.91 63.66 327.195 65.7765 325.954 68.6228C324.713 71.396 324.093 74.9356 324.093 79.2415C324.093 83.4014 324.713 86.9045 325.954 89.7508C327.195 92.597 328.91 94.7135 331.099 96.1001C333.289 97.4867 335.843 98.1801 338.763 98.1801Z" fill="#F6F6F6"/>
<path d="M269.887 109.35C262.808 109.35 256.86 108.256 252.043 106.066C247.299 103.877 243.722 100.812 241.314 96.8707C238.906 92.9297 237.665 88.4414 237.592 83.4057H252.371C252.444 86.3979 253.101 88.9887 254.342 91.1782C255.655 93.3676 257.626 95.0826 260.253 96.3233C262.881 97.564 266.274 98.1843 270.435 98.1843C275.397 98.1843 279.375 97.2721 282.367 95.4475C285.36 93.55 286.856 90.7768 286.856 87.1277C286.856 85.0113 286.528 83.2597 285.871 81.8731C285.214 80.4134 284.119 79.2093 282.586 78.2605C281.054 77.3118 279.01 76.509 276.456 75.8521C273.974 75.1953 270.836 74.5385 267.041 73.8817C262.516 73.1518 258.502 72.2031 254.998 71.0354C251.568 69.7947 248.685 68.2986 246.35 66.5471C244.014 64.7955 242.263 62.6791 241.095 60.1977C239.927 57.6434 239.343 54.6147 239.343 51.1116C239.343 46.2948 240.548 42.1349 242.956 38.6318C245.438 35.1287 248.941 32.4284 253.466 30.5309C257.991 28.5604 263.392 27.5752 269.668 27.5752C275.872 27.5752 281.163 28.5604 285.542 30.5309C289.994 32.5014 293.425 35.2747 295.833 38.8508C298.241 42.3539 299.446 46.4408 299.446 51.1116H284.885C284.739 48.2653 283.973 45.9299 282.586 44.1054C281.2 42.2079 279.339 40.8213 277.003 39.9455C274.741 39.0697 272.113 38.6318 269.121 38.6318C266.056 38.6318 263.392 39.0697 261.129 39.9455C258.94 40.8213 257.261 42.0619 256.093 43.6675C254.925 45.2001 254.342 47.0611 254.342 49.2506C254.342 51.9509 254.998 54.0308 256.312 55.4904C257.699 56.8771 259.888 57.9718 262.881 58.7746C265.946 59.5774 269.887 60.3802 274.704 61.183C278.134 61.7668 281.455 62.4966 284.666 63.3724C287.951 64.2482 290.87 65.5618 293.425 67.3134C296.052 68.9919 298.132 71.3273 299.665 74.3195C301.197 77.2388 301.964 81.0338 301.964 85.7046C301.964 90.3754 300.759 94.4988 298.351 98.0749C295.942 101.651 292.366 104.424 287.622 106.395C282.878 108.365 276.967 109.35 269.887 109.35Z" fill="#F6F6F6"/>
</g>
<defs>
<filter id="filter0_dd_462_10309" x="0" y="0" width="731.149" height="158.001" filterUnits="userSpaceOnUse" color-interpolation-filters="sRGB">
<feFlood flood-opacity="0" result="BackgroundImageFix"/>
<feColorMatrix in="SourceAlpha" type="matrix" values="0 0 0 0 0 0 0 0 0 0 0 0 0 0 0 0 0 0 127 0" result="hardAlpha"/>
<feOffset dx="-3" dy="4"/>
<feGaussianBlur stdDeviation="3"/>
<feComposite in2="hardAlpha" operator="out"/>
<feColorMatrix type="matrix" values="0 0 0 0 0 0 0 0 0 0 0 0 0 0 0 0 0 0 0.1 0"/>
<feBlend mode="normal" in2="BackgroundImageFix" result="effect1_dropShadow_462_10309"/>
<feColorMatrix in="SourceAlpha" type="matrix" values="0 0 0 0 0 0 0 0 0 0 0 0 0 0 0 0 0 0 127 0" result="hardAlpha"/>
<feOffset dx="4" dy="-2"/>
<feGaussianBlur stdDeviation="3"/>
<feComposite in2="hardAlpha" operator="out"/>
<feColorMatrix type="matrix" values="0 0 0 0 1 0 0 0 0 1 0 0 0 0 1 0 0 0 1 0"/>
<feBlend mode="normal" in2="effect1_dropShadow_462_10309" result="effect2_dropShadow_462_10309"/>
<feBlend mode="normal" in="SourceGraphic" in2="effect2_dropShadow_462_10309" result="shape"/>
</filter>
</defs>
</svg>
