<svg width="245" height="48" viewBox="0 0 245 48" fill="none" xmlns="http://www.w3.org/2000/svg">
<path fill-rule="evenodd" clip-rule="evenodd" d="M27.8688 46.9445C32.742 49.2737 37.5035 47.5102 42.2182 43.9769C35.1384 46.7952 26.5991 39.6183 16.024 26.0913L15.3411 26.351V27.1246C15.3411 28.0813 14.5597 28.8637 13.6022 28.8637L9.02604 28.8637L9.00945 28.8637C12.5682 32.4219 24.6193 45.3909 27.8688 46.9445ZM8.68558 27.1246V22.5449C8.68558 22.3574 8.83922 22.2047 9.02652 22.2047L13.6027 22.2047C13.791 22.2047 13.9437 22.3579 13.9437 22.5449V27.1246C13.9437 27.312 13.791 27.4663 13.6027 27.4663L9.02652 27.4663C8.83922 27.4663 8.68558 27.312 8.68558 27.1246ZM14.1953 20.7638V16.1845C14.1953 15.9976 14.348 15.8434 14.5348 15.8434L19.112 15.8434C19.2988 15.8434 19.4529 15.9976 19.4529 16.1845L19.4529 20.7638C19.4529 20.9522 19.2988 21.1055 19.112 21.1055L14.5348 21.1055C14.348 21.1055 14.1953 20.9522 14.1953 20.7638ZM4.2167 20.3016V15.7223C4.2167 15.5339 4.37084 15.3811 4.55765 15.3811L9.13481 15.3811C9.32162 15.3811 9.47575 15.5339 9.47575 15.7223V20.3016C9.47575 20.4895 9.32211 20.6428 9.13481 20.6428L4.55765 20.6428C4.37132 20.6428 4.2167 20.4895 4.2167 20.3016ZM10.8571 15.2801V12.6244C10.8571 12.5156 10.9454 12.4262 11.0541 12.4262L13.7081 12.4262C13.8168 12.4262 13.9051 12.5161 13.9051 12.6244V15.2801C13.9051 15.3894 13.8168 15.4778 13.7081 15.4778L11.0541 15.4778C10.9454 15.4778 10.8571 15.3894 10.8571 15.2801ZM6.58625 13.9164V12.1056C6.58625 12.0309 6.64722 11.9694 6.72136 11.9694L8.53096 11.9694C8.60558 11.9694 8.66607 12.0309 8.66607 12.1056V13.9164C8.66607 13.9906 8.60558 14.0516 8.53096 14.0516L6.72136 14.0516C6.64771 14.0516 6.58625 13.9906 6.58625 13.9164ZM3.1963 26.3793V24.2995C3.1963 24.2141 3.26654 24.1453 3.35141 24.1453L5.43025 24.1453C5.51561 24.1453 5.58536 24.2146 5.58536 24.2995L5.58536 26.3793C5.58536 26.4657 5.51561 26.535 5.43025 26.535L3.35141 26.535C3.26654 26.5345 3.1963 26.4657 3.1963 26.3793ZM0 17.0133L0 14.9321C0 14.8472 0.0692622 14.7784 0.153645 14.7784L2.23249 14.7784C2.31833 14.7784 2.38759 14.8477 2.38759 14.9321L2.38759 17.0133C2.38759 17.0983 2.31833 17.1671 2.23249 17.1671L0.153645 17.1671C0.0692622 17.1676 0 17.0983 0 17.0133ZM35.0189 41.6365C42.7982 45.349 48.764 39.6666 45.955 28.8095C45.0902 44.7335 33.3468 34.7408 21.0464 15.9942C20.6674 15.4163 20.8508 15.5774 20.8508 16.1845L20.8508 20.7638C20.8508 21.7205 20.068 22.5039 19.112 22.5039L15.4591 22.5039C19.3876 27.8367 28.8467 38.6909 35.0189 41.6365Z" fill="url(#paint0_linear_759_21367)"/>
<path fill-rule="evenodd" clip-rule="evenodd" d="M43.4456 1.0561C38.5729 -1.27404 33.8109 0.489425 29.0966 4.02272C36.176 1.20497 44.7158 8.38332 55.2904 21.9083L55.9738 21.6487V20.8755C55.9738 19.9179 56.7552 19.136 57.7112 19.136L62.2884 19.136L62.3049 19.136C58.7467 15.5783 46.6956 2.60921 43.4456 1.0561ZM62.6293 20.876V25.4553C62.6293 25.6422 62.4752 25.7965 62.2884 25.7965L57.7112 25.7965C57.5244 25.7965 57.3717 25.6427 57.3717 25.4553V20.876C57.3717 20.6881 57.5244 20.5348 57.7112 20.5348L62.2884 20.5348C62.4752 20.5348 62.6293 20.6881 62.6293 20.876ZM57.12 27.2358V31.8151C57.12 32.0035 56.9674 32.1563 56.7791 32.1563L52.2029 32.1563C52.0161 32.1563 51.862 32.0035 51.862 31.8151V27.2358C51.862 27.0479 52.0156 26.8947 52.2029 26.8947L56.7791 26.8947C56.9674 26.8947 57.12 27.0479 57.12 27.2358ZM67.0967 27.6986V32.2778C67.0967 32.4657 66.9436 32.619 66.7567 32.619L62.1796 32.619C61.9928 32.619 61.8382 32.4657 61.8382 32.2778V27.6986C61.8382 27.5116 61.9923 27.3574 62.1796 27.3574L66.7567 27.3574C66.944 27.3574 67.0967 27.5116 67.0967 27.6986ZM60.4583 32.721V35.3767C60.4583 35.4856 60.37 35.5739 60.2612 35.5739L57.6073 35.5739C57.4985 35.5739 57.4093 35.4856 57.4093 35.3767V32.721C57.4093 32.6122 57.4985 32.5228 57.6073 32.5228L60.2612 32.5228C60.37 32.5224 60.4583 32.6122 60.4583 32.721ZM64.7286 34.0843V35.8956C64.7286 35.9693 64.6672 36.0303 64.5935 36.0303L62.7834 36.0303C62.7088 36.0303 62.6488 35.9693 62.6488 35.8956V34.0843C62.6488 34.0096 62.7088 33.9481 62.7834 33.9481L64.5935 33.9481C64.6672 33.9486 64.7286 34.0096 64.7286 34.0843ZM68.1186 21.6208V23.7011C68.1186 23.786 68.0483 23.8563 67.963 23.8563L65.8846 23.8563C65.7993 23.8563 65.729 23.7865 65.729 23.7011V21.6208C65.729 21.5359 65.7993 21.4656 65.8846 21.4656L67.963 21.4656C68.0483 21.4656 68.1186 21.5359 68.1186 21.6208ZM71.3149 30.9878V33.068C71.3149 33.153 71.2456 33.2218 71.1608 33.2218L69.0809 33.2218C68.9961 33.2218 68.9273 33.1525 68.9273 33.068V30.9878C68.9273 30.9019 68.9966 30.8326 69.0809 30.8326L71.1608 30.8326C71.2461 30.8326 71.3149 30.9019 71.3149 30.9878ZM36.2965 6.36312C28.5172 2.65118 22.5514 8.33305 25.3604 19.1921C26.2242 3.26667 37.9685 13.2603 50.2675 32.0055C50.6465 32.5839 50.4645 32.4228 50.4645 31.8151V27.2358C50.4645 26.2792 51.2474 25.4963 52.2029 25.4963L55.8558 25.4963C51.9278 20.1629 42.4686 9.31021 36.2965 6.36312Z" fill="url(#paint1_linear_759_21367)"/>
<path d="M234.369 41.0564C232.692 41.0564 231.241 40.8061 230.015 40.3057C228.789 39.8302 227.813 39.1421 227.087 38.2413C226.387 37.3655 225.986 36.3396 225.886 35.1635H230.39C230.49 35.664 230.716 36.1019 231.066 36.4772C231.441 36.8525 231.917 37.1403 232.492 37.3405C233.068 37.5657 233.731 37.6783 234.481 37.6783C235.607 37.6783 236.533 37.5156 237.259 37.1903C238.01 36.8651 238.56 36.3646 238.911 35.689C239.286 35.0134 239.474 34.1376 239.474 33.0616V29.3833H239.211C238.785 30.5343 238.01 31.4727 236.884 32.1983C235.758 32.8989 234.431 33.2493 232.905 33.2493C231.704 33.2493 230.615 33.0366 229.64 32.6112C228.689 32.1858 227.863 31.5727 227.162 30.772C226.462 29.9463 225.924 28.9454 225.548 27.7693C225.173 26.5682 224.985 25.1919 224.985 23.6405C224.985 21.5636 225.311 19.8246 225.961 18.4233C226.637 16.997 227.575 15.921 228.776 15.1954C229.977 14.4447 231.379 14.0693 232.98 14.0693C234.481 14.0693 235.783 14.4197 236.884 15.1203C238.01 15.8209 238.785 16.7343 239.211 17.8603H239.474L239.624 14.4447H244.165V32.3109C244.165 33.9124 243.928 35.2636 243.452 36.3646C243.002 37.4906 242.339 38.3914 241.463 39.0671C240.587 39.7677 239.549 40.2681 238.347 40.5684C237.171 40.8937 235.845 41.0564 234.369 41.0564ZM234.594 29.6085C235.645 29.6085 236.521 29.3833 237.221 28.9328C237.947 28.4574 238.498 27.8569 238.873 27.1312C239.248 26.3805 239.448 25.6173 239.474 24.8416V22.4394C239.448 21.6387 239.248 20.888 238.873 20.1874C238.498 19.4617 237.96 18.8737 237.259 18.4233C236.558 17.9479 235.683 17.7101 234.632 17.7101C233.656 17.7101 232.792 17.9353 232.042 18.3858C231.316 18.8362 230.753 19.4993 230.353 20.3751C229.952 21.2509 229.752 22.3394 229.752 23.6405C229.752 24.9667 229.952 26.0803 230.353 26.9811C230.778 27.8569 231.354 28.52 232.079 28.9704C232.805 29.3958 233.643 29.6085 234.594 29.6085Z" fill="white"/>
<path d="M202.802 34.4128V14.4447H207.306L207.494 18.2356H207.719C208.294 16.8343 209.17 15.7959 210.346 15.1203C211.522 14.4197 212.836 14.0693 214.287 14.0693C215.288 14.0693 216.214 14.232 217.065 14.5573C217.941 14.8576 218.691 15.3455 219.317 16.0211C219.967 16.6717 220.468 17.535 220.818 18.611C221.193 19.6619 221.381 20.9381 221.381 22.4394V34.4128H216.689V23.4529C216.689 22.2017 216.539 21.1758 216.239 20.3751C215.939 19.5493 215.476 18.9363 214.85 18.5359C214.25 18.1355 213.461 17.9354 212.486 17.9354C211.435 17.9354 210.534 18.1856 209.783 18.686C209.057 19.1865 208.494 19.8496 208.094 20.6753C207.694 21.5011 207.494 22.4144 207.494 23.4153V34.4128H202.802Z" fill="white"/>
<path d="M193.052 34.4131V14.445H197.744V34.4131H193.052ZM193.052 11.6299V7.05078H197.744V11.6299H193.052Z" fill="white"/>
<path d="M170.692 34.4131V7.05078H175.459V23.3406L177.148 21.4263L183.829 14.445H189.647L181.915 22.2896L189.835 34.4131H184.317L179.813 27.4693L178.612 25.405L175.459 28.5203V34.4131H170.692Z" fill="white"/>
<path d="M158.327 34.7882C156.551 34.7882 155.024 34.5129 153.748 33.9624C152.472 33.3869 151.484 32.5987 150.783 31.5978C150.107 30.5969 149.77 29.4333 149.77 28.1071H154.386C154.411 29.2581 154.799 30.0964 155.55 30.6219C156.3 31.1474 157.276 31.4101 158.477 31.4101C159.654 31.4101 160.542 31.1974 161.142 30.772C161.768 30.3216 162.081 29.7085 162.081 28.9328C162.081 28.3073 161.943 27.8318 161.668 27.5065C161.393 27.1562 160.942 26.8935 160.317 26.7183C159.691 26.5181 158.865 26.343 157.839 26.1929C156.163 25.9426 154.762 25.6048 153.636 25.1794C152.51 24.729 151.671 24.116 151.121 23.3403C150.57 22.5646 150.295 21.5386 150.295 20.2625C150.295 19.0113 150.633 17.9228 151.308 16.997C151.984 16.0712 152.935 15.358 154.161 14.8576C155.387 14.3321 156.826 14.0693 158.477 14.0693C160.079 14.0693 161.468 14.3321 162.644 14.8576C163.845 15.358 164.771 16.0837 165.421 17.0345C166.097 17.9604 166.447 19.0739 166.472 20.3751H161.856C161.856 19.6744 161.705 19.1114 161.405 18.686C161.13 18.2356 160.729 17.9103 160.204 17.7101C159.679 17.51 159.065 17.4099 158.365 17.4099C157.314 17.4099 156.488 17.6351 155.888 18.0855C155.287 18.5109 154.987 19.0989 154.987 19.8496C154.987 20.4001 155.137 20.8505 155.437 21.2008C155.762 21.5261 156.275 21.7889 156.976 21.989C157.677 22.1892 158.578 22.3644 159.679 22.5145C160.88 22.6897 161.918 22.9149 162.794 23.1901C163.695 23.4654 164.445 23.8407 165.046 24.3161C165.646 24.7666 166.097 25.3421 166.397 26.0427C166.722 26.7183 166.885 27.5441 166.885 28.52C166.885 30.5218 166.097 32.0732 164.52 33.1742C162.969 34.2502 160.905 34.7882 158.327 34.7882Z" fill="white"/>
<path d="M134.454 34.7506C133.253 34.7506 132.152 34.5379 131.151 34.1126C130.175 33.6621 129.324 32.999 128.598 32.1232C127.898 31.2474 127.36 30.1715 126.984 28.8953C126.609 27.5941 126.421 26.1053 126.421 24.4288C126.421 22.1517 126.747 20.25 127.397 18.7236C128.073 17.1722 129.011 16.0086 130.212 15.2329C131.438 14.4572 132.852 14.0693 134.454 14.0693C135.555 14.0693 136.531 14.2445 137.381 14.5948C138.257 14.9201 139.008 15.383 139.633 15.9836C140.259 16.5841 140.734 17.2973 141.06 18.123H141.322L141.51 14.4447H146.014V34.4128H141.322V30.6969H141.06C140.584 31.9231 139.771 32.9115 138.62 33.6621C137.469 34.3878 136.08 34.7506 134.454 34.7506ZM136.218 30.9222C137.344 30.9222 138.27 30.6594 138.995 30.1339C139.746 29.6085 140.309 28.9328 140.684 28.1071C141.06 27.2563 141.247 26.368 141.247 25.4422V23.3778C141.247 22.4269 141.06 21.5386 140.684 20.7129C140.309 19.8621 139.746 19.1865 138.995 18.686C138.27 18.1606 137.344 17.8978 136.218 17.8978C135.217 17.8978 134.341 18.1355 133.59 18.611C132.84 19.0864 132.252 19.8121 131.826 20.7879C131.401 21.7388 131.188 22.9524 131.188 24.4288C131.188 25.855 131.401 27.0561 131.826 28.032C132.252 29.0079 132.84 29.7336 133.59 30.209C134.341 30.6844 135.217 30.9222 136.218 30.9222Z" fill="white"/>
<path d="M111.288 34.7506C110.087 34.7506 108.986 34.5379 107.985 34.1126C107.009 33.6621 106.158 32.999 105.433 32.1232C104.732 31.2474 104.194 30.1715 103.819 28.8953C103.444 27.5941 103.256 26.1053 103.256 24.4288C103.256 22.1517 103.581 20.25 104.232 18.7236C104.907 17.1722 105.846 16.0086 107.047 15.2329C108.273 14.4572 109.687 14.0693 111.288 14.0693C112.389 14.0693 113.365 14.2445 114.216 14.5948C115.092 14.9201 115.842 15.383 116.468 15.9836C117.093 16.5841 117.569 17.2973 117.894 18.123H118.157L118.345 14.4447H122.849V34.4128H118.157V30.6969H117.894C117.419 31.9231 116.605 32.9115 115.454 33.6621C114.303 34.3878 112.915 34.7506 111.288 34.7506ZM113.052 30.9222C114.178 30.9222 115.104 30.6594 115.83 30.1339C116.58 29.6085 117.143 28.9328 117.519 28.1071C117.894 27.2563 118.082 26.368 118.082 25.4422V23.3778C118.082 22.4269 117.894 21.5386 117.519 20.7129C117.143 19.8621 116.58 19.1865 115.83 18.686C115.104 18.1606 114.178 17.8978 113.052 17.8978C112.051 17.8978 111.176 18.1355 110.425 18.611C109.674 19.0864 109.086 19.8121 108.661 20.7879C108.235 21.7388 108.023 22.9524 108.023 24.4288C108.023 25.855 108.235 27.0561 108.661 28.032C109.086 29.0079 109.674 29.7336 110.425 30.209C111.176 30.6844 112.051 30.9222 113.052 30.9222Z" fill="white"/>
<path d="M89.4437 34.7509C87.0164 34.7509 84.9771 34.3755 83.3256 33.6248C81.6991 32.8742 80.473 31.8232 79.6473 30.472C78.8215 29.1208 78.3961 27.5819 78.3711 25.8553H83.4382C83.4632 26.8812 83.6884 27.7695 84.1138 28.5202C84.5642 29.2709 85.2398 29.8589 86.1407 30.2843C87.0415 30.7097 88.205 30.9224 89.6313 30.9224C91.3329 30.9224 92.6966 30.6096 93.7225 29.984C94.7485 29.3334 95.2614 28.3826 95.2614 27.1314C95.2614 26.4058 95.1488 25.8052 94.9236 25.3298C94.6984 24.8294 94.3231 24.4165 93.7976 24.0912C93.2721 23.7659 92.5715 23.4906 91.6957 23.2654C90.8449 23.0402 89.769 22.815 88.4678 22.5898C86.9164 22.3396 85.5401 22.0143 84.339 21.6139C83.1629 21.1885 82.1746 20.6756 81.3738 20.075C80.5731 19.4745 79.9725 18.7488 79.5722 17.8981C79.1718 17.0223 78.9716 15.9838 78.9716 14.7827C78.9716 13.1312 79.3845 11.7049 80.2103 10.5038C81.061 9.30274 82.2621 8.3769 83.8135 7.72631C85.3649 7.0507 87.2166 6.71289 89.3686 6.71289C91.4955 6.71289 93.3097 7.0507 94.811 7.72631C96.3374 8.40193 97.5135 9.35279 98.3392 10.5789C99.165 11.78 99.5779 13.1813 99.5779 14.7827H94.5858C94.5358 13.8068 94.273 13.0061 93.7976 12.3805C93.3222 11.7299 92.6841 11.2545 91.8834 10.9542C91.1077 10.654 90.2068 10.5038 89.1809 10.5038C88.13 10.5038 87.2166 10.654 86.4409 10.9542C85.6902 11.2545 85.1147 11.6799 84.7144 12.2304C84.314 12.7559 84.1138 13.394 84.1138 14.1446C84.1138 15.0705 84.339 15.7836 84.7894 16.2841C85.2649 16.7595 86.0155 17.1349 87.0415 17.4101C88.0924 17.6854 89.4437 17.9606 91.0952 18.2359C92.2712 18.436 93.4098 18.6863 94.5108 18.9865C95.6368 19.2868 96.6377 19.7372 97.5135 20.3378C98.4143 20.9133 99.1275 21.714 99.6529 22.74C100.178 23.7409 100.441 25.042 100.441 26.6435C100.441 28.245 100.028 29.6587 99.2025 30.8849C98.3768 32.111 97.1507 33.0618 95.5242 33.7374C93.8977 34.4131 91.8709 34.7509 89.4437 34.7509Z" fill="white"/>
<defs>
<linearGradient id="paint0_linear_759_21367" x1="0" y1="29.8714" x2="46.6611" y2="29.8714" gradientUnits="userSpaceOnUse">
<stop stop-color="#BF2938"/>
<stop offset="1" stop-color="#600509"/>
</linearGradient>
<linearGradient id="paint1_linear_759_21367" x1="24.6543" y1="17.9018" x2="71.3149" y2="17.9018" gradientUnits="userSpaceOnUse">
<stop stop-color="#BF2938"/>
<stop offset="1" stop-color="#600509"/>
</linearGradient>
</defs>
</svg>
