<svg width="1296" height="248" viewBox="0 0 1296 248" fill="none" xmlns="http://www.w3.org/2000/svg">
<path fill-rule="evenodd" clip-rule="evenodd" d="M100.144 182.262C117.655 190.511 134.765 184.265 151.707 171.751C126.266 181.733 95.5811 156.314 57.5806 108.406L55.1266 109.325V112.065C55.1266 115.454 52.3188 118.225 48.8781 118.225H32.4341H32.3745C45.1625 130.827 88.4669 176.759 100.144 182.262ZM31.2107 112.065V95.8451C31.2107 95.1811 31.7628 94.6402 32.4359 94.6402H48.8799C49.5565 94.6402 50.1052 95.1828 50.1052 95.8451V112.065C50.1052 112.729 49.5565 113.275 48.8799 113.275H32.4359C31.7628 113.275 31.2107 112.729 31.2107 112.065ZM51.0093 89.537V73.3184C51.0093 72.6564 51.558 72.1103 52.2293 72.1103H68.677C69.3482 72.1103 69.902 72.6564 69.902 73.3184V89.537C69.902 90.2042 69.3482 90.7472 68.677 90.7472H52.2293C51.558 90.7472 51.0093 90.2042 51.0093 89.537ZM15.1523 87.9V71.6814C15.1523 71.0141 15.7062 70.4729 16.3774 70.4729H32.825C33.4963 70.4729 34.0501 71.0141 34.0501 71.6814V87.9C34.0501 88.5655 33.498 89.1084 32.825 89.1084H16.3774C15.7079 89.1084 15.1523 88.5655 15.1523 87.9ZM39.0139 70.1152V60.7095C39.0139 60.3241 39.3312 60.0075 39.7221 60.0075H49.2586C49.6492 60.0075 49.9665 60.3259 49.9665 60.7095V70.1152C49.9665 70.5023 49.6492 70.8154 49.2586 70.8154H39.7221C39.3312 70.8154 39.0139 70.5023 39.0139 70.1152ZM23.667 65.2854V58.872C23.667 58.6075 23.8861 58.3896 24.1525 58.3896H30.6551C30.9233 58.3896 31.1406 58.6075 31.1406 58.872V65.2854C31.1406 65.5482 30.9233 65.7642 30.6551 65.7642H24.1525C23.8879 65.7642 23.667 65.5482 23.667 65.2854ZM11.4856 109.426V102.059C11.4856 101.757 11.738 101.513 12.0429 101.513H19.513C19.8198 101.513 20.0704 101.759 20.0704 102.059V109.426C20.0704 109.732 19.8198 109.977 19.513 109.977H12.0429C11.738 109.975 11.4856 109.732 11.4856 109.426ZM0 76.2537V68.8827C0 68.582 0.248886 68.3383 0.552107 68.3383H8.02222C8.33068 68.3383 8.57956 68.5838 8.57956 68.8827V76.2537C8.57956 76.5548 8.33068 76.7985 8.02222 76.7985H0.552107C0.248886 76.8002 0 76.5548 0 76.2537ZM125.837 163.462C153.791 176.611 175.228 156.485 165.135 118.033C162.027 174.431 119.828 139.04 75.6281 72.6444C74.2665 70.5976 74.9252 71.1682 74.9252 73.3184V89.537C74.9252 92.9253 72.1123 95.6999 68.677 95.6999H55.5507C69.6673 114.587 103.658 153.03 125.837 163.462Z" fill="white"/>
<path fill-rule="evenodd" clip-rule="evenodd" d="M156.122 19.7405C138.613 11.4878 121.501 17.7335 104.561 30.2474C130 20.2678 160.686 45.6915 198.685 93.5935L201.141 92.6737V89.9356C201.141 86.5437 203.949 83.7744 207.384 83.7744H223.832H223.891C211.105 71.174 167.801 25.2412 156.122 19.7405ZM225.057 89.937V106.156C225.057 106.818 224.503 107.364 223.832 107.364H207.384C206.713 107.364 206.164 106.819 206.164 106.156V89.937C206.164 89.2715 206.713 88.7289 207.384 88.7289H223.832C224.503 88.7289 225.057 89.2715 225.057 89.937ZM205.26 112.462V128.68C205.26 129.348 204.711 129.889 204.035 129.889H187.591C186.92 129.889 186.365 129.348 186.365 128.68V112.462C186.365 111.797 186.918 111.254 187.591 111.254H204.035C204.711 111.254 205.26 111.797 205.26 112.462ZM241.11 114.101V130.319C241.11 130.985 240.56 131.527 239.888 131.527H223.441C222.77 131.527 222.214 130.985 222.214 130.319V114.101C222.214 113.438 222.768 112.892 223.441 112.892H239.888C240.561 112.892 241.11 113.438 241.11 114.101ZM217.256 131.889V141.294C217.256 141.68 216.938 141.993 216.547 141.993H207.011C206.62 141.993 206.299 141.68 206.299 141.294V131.889C206.299 131.503 206.62 131.187 207.011 131.187H216.547C216.938 131.185 217.256 131.503 217.256 131.889ZM232.601 136.717V143.132C232.601 143.393 232.38 143.609 232.115 143.609H225.611C225.343 143.609 225.127 143.393 225.127 143.132V136.717C225.127 136.453 225.343 136.235 225.611 136.235H232.115C232.38 136.237 232.601 136.453 232.601 136.717ZM244.782 92.5752V99.9427C244.782 100.243 244.53 100.492 244.223 100.492H236.755C236.448 100.492 236.195 100.245 236.195 99.9427V92.5752C236.195 92.2742 236.448 92.0255 236.755 92.0255H244.223C244.53 92.0255 244.782 92.2742 244.782 92.5752ZM256.268 125.75V133.118C256.268 133.419 256.019 133.662 255.714 133.662H248.24C247.935 133.662 247.688 133.417 247.688 133.118V125.75C247.688 125.446 247.937 125.201 248.24 125.201H255.714C256.021 125.201 256.268 125.446 256.268 125.75ZM130.433 38.5365C102.479 25.3898 81.0408 45.5134 91.135 83.9731C94.239 27.5697 136.441 62.9646 180.636 129.355C181.998 131.403 181.344 130.833 181.344 128.68V112.462C181.344 109.074 184.157 106.301 187.591 106.301H200.717C186.602 87.4114 152.612 48.9743 130.433 38.5365Z" fill="url(#paint0_linear_28322_3139)"/>
<path fill-rule="evenodd" clip-rule="evenodd" d="M156.122 19.7405C138.613 11.4878 121.501 17.7335 104.561 30.2474C130 20.2678 160.686 45.6915 198.685 93.5935L201.141 92.6737V89.9356C201.141 86.5437 203.949 83.7744 207.384 83.7744H223.832H223.891C211.105 71.174 167.801 25.2412 156.122 19.7405ZM225.057 89.937V106.156C225.057 106.818 224.503 107.364 223.832 107.364H207.384C206.713 107.364 206.164 106.819 206.164 106.156V89.937C206.164 89.2715 206.713 88.7289 207.384 88.7289H223.832C224.503 88.7289 225.057 89.2715 225.057 89.937ZM205.26 112.462V128.68C205.26 129.348 204.711 129.889 204.035 129.889H187.591C186.92 129.889 186.365 129.348 186.365 128.68V112.462C186.365 111.797 186.918 111.254 187.591 111.254H204.035C204.711 111.254 205.26 111.797 205.26 112.462ZM241.11 114.101V130.319C241.11 130.985 240.56 131.527 239.888 131.527H223.441C222.77 131.527 222.214 130.985 222.214 130.319V114.101C222.214 113.438 222.768 112.892 223.441 112.892H239.888C240.561 112.892 241.11 113.438 241.11 114.101ZM217.256 131.889V141.294C217.256 141.68 216.938 141.993 216.547 141.993H207.011C206.62 141.993 206.299 141.68 206.299 141.294V131.889C206.299 131.503 206.62 131.187 207.011 131.187H216.547C216.938 131.185 217.256 131.503 217.256 131.889ZM232.601 136.717V143.132C232.601 143.393 232.38 143.609 232.115 143.609H225.611C225.343 143.609 225.127 143.393 225.127 143.132V136.717C225.127 136.453 225.343 136.235 225.611 136.235H232.115C232.38 136.237 232.601 136.453 232.601 136.717ZM244.782 92.5752V99.9427C244.782 100.243 244.53 100.492 244.223 100.492H236.755C236.448 100.492 236.195 100.245 236.195 99.9427V92.5752C236.195 92.2742 236.448 92.0255 236.755 92.0255H244.223C244.53 92.0255 244.782 92.2742 244.782 92.5752ZM256.268 125.75V133.118C256.268 133.419 256.019 133.662 255.714 133.662H248.24C247.935 133.662 247.688 133.417 247.688 133.118V125.75C247.688 125.446 247.937 125.201 248.24 125.201H255.714C256.021 125.201 256.268 125.446 256.268 125.75ZM130.433 38.5365C102.479 25.3898 81.0408 45.5134 91.135 83.9731C94.239 27.5697 136.441 62.9646 180.636 129.355C181.998 131.403 181.344 130.833 181.344 128.68V112.462C181.344 109.074 184.157 106.301 187.591 106.301H200.717C186.602 87.4114 152.612 48.9743 130.433 38.5365Z" fill="#3B49E0"/>
<path d="M400.213 57.8722C399.258 49.4006 395.321 42.8381 388.4 38.1847C381.48 33.4716 372.77 31.1151 362.27 31.1151C354.753 31.1151 348.25 32.3082 342.761 34.6946C337.273 37.0213 333.007 40.2429 329.964 44.3594C326.981 48.4162 325.49 53.0398 325.49 58.2301C325.49 62.5852 326.504 66.3437 328.532 69.5057C330.621 72.6676 333.335 75.3224 336.676 77.4702C340.077 79.5582 343.716 81.3182 347.594 82.75C351.471 84.1222 355.2 85.2557 358.78 86.1506L376.677 90.804C382.524 92.2358 388.52 94.1747 394.665 96.6207C400.809 99.0668 406.507 102.288 411.757 106.286C417.007 110.283 421.243 115.234 424.464 121.141C427.746 127.047 429.386 134.116 429.386 142.349C429.386 152.73 426.702 161.947 421.332 170.001C416.023 178.055 408.297 184.409 398.155 189.062C388.072 193.716 375.872 196.043 361.554 196.043C347.832 196.043 335.96 193.865 325.937 189.51C315.915 185.155 308.069 178.98 302.402 170.986C296.734 162.932 293.602 153.386 293.006 142.349H320.747C321.284 148.972 323.432 154.49 327.19 158.905C331.008 163.26 335.871 166.511 341.777 168.659C347.743 170.747 354.275 171.791 361.375 171.791C369.19 171.791 376.14 170.568 382.226 168.122C388.371 165.616 393.203 162.156 396.723 157.741C400.243 153.267 402.003 148.047 402.003 142.081C402.003 136.652 400.452 132.207 397.349 128.747C394.307 125.287 390.16 122.423 384.91 120.156C379.72 117.889 373.844 115.891 367.281 114.161L345.625 108.254C330.949 104.257 319.315 98.3807 310.724 90.625C302.193 82.8693 297.927 72.608 297.927 59.8409C297.927 49.2812 300.791 40.0639 306.518 32.1889C312.246 24.3139 320.001 18.1989 329.785 13.8438C339.569 9.42897 350.606 7.22158 362.896 7.22158C375.305 7.22158 386.253 9.39914 395.738 13.7543C405.284 18.1094 412.801 24.1051 418.29 31.7415C423.778 39.3182 426.642 48.0284 426.881 57.8722H400.213ZM480.284 196.043C471.573 196.043 463.698 194.432 456.659 191.21C449.619 187.929 444.041 183.186 439.924 176.982C435.867 170.777 433.839 163.17 433.839 154.162C433.839 146.406 435.33 140.023 438.313 135.011C441.296 130 445.323 126.033 450.394 123.109C455.465 120.186 461.133 117.979 467.397 116.487C473.661 114.996 480.045 113.862 486.548 113.087C494.781 112.132 501.463 111.357 506.593 110.76C511.724 110.104 515.453 109.06 517.779 107.628C520.106 106.196 521.269 103.869 521.269 100.648V100.021C521.269 92.206 519.062 86.1506 514.647 81.8551C510.292 77.5597 503.789 75.4119 495.139 75.4119C486.13 75.4119 479.031 77.4105 473.84 81.4077C468.71 85.3452 465.16 89.7301 463.191 94.5625L438.045 88.8352C441.028 80.483 445.383 73.7415 451.11 68.6108C456.897 63.4204 463.549 59.6619 471.066 57.3352C478.583 54.9489 486.488 53.7557 494.781 53.7557C500.269 53.7557 506.086 54.4119 512.231 55.7244C518.436 56.9773 524.222 59.304 529.592 62.7045C535.021 66.1051 539.465 70.9673 542.926 77.2912C546.386 83.5554 548.116 91.6989 548.116 101.722V193H521.985V174.207H520.911C519.181 177.668 516.586 181.068 513.126 184.409C509.666 187.75 505.221 190.524 499.792 192.732C494.363 194.939 487.86 196.043 480.284 196.043ZM486.1 174.565C493.498 174.565 499.822 173.104 505.072 170.18C510.382 167.257 514.409 163.439 517.153 158.726C519.957 153.953 521.359 148.852 521.359 143.423V125.705C520.404 126.659 518.555 127.554 515.811 128.389C513.126 129.165 510.053 129.851 506.593 130.447C503.133 130.984 499.762 131.491 496.481 131.969C493.2 132.386 490.455 132.744 488.248 133.043C483.058 133.699 478.315 134.803 474.019 136.354C469.784 137.905 466.383 140.142 463.818 143.065C461.312 145.929 460.059 149.747 460.059 154.52C460.059 161.142 462.505 166.153 467.397 169.554C472.289 172.895 478.524 174.565 486.1 174.565ZM603.756 196.043C595.046 196.043 587.171 194.432 580.131 191.21C573.091 187.929 567.513 183.186 563.397 176.982C559.34 170.777 557.312 163.17 557.312 154.162C557.312 146.406 558.803 140.023 561.786 135.011C564.769 130 568.796 126.033 573.867 123.109C578.938 120.186 584.606 117.979 590.87 116.487C597.134 114.996 603.518 113.862 610.02 113.087C618.253 112.132 624.935 111.357 630.066 110.76C635.197 110.104 638.925 109.06 641.252 107.628C643.579 106.196 644.742 103.869 644.742 100.648V100.021C644.742 92.206 642.535 86.1506 638.12 81.8551C633.765 77.5597 627.262 75.4119 618.611 75.4119C609.603 75.4119 602.503 77.4105 597.313 81.4077C592.182 85.3452 588.633 89.7301 586.664 94.5625L561.518 88.8352C564.501 80.483 568.856 73.7415 574.583 68.6108C580.37 63.4204 587.022 59.6619 594.539 57.3352C602.056 54.9489 609.961 53.7557 618.253 53.7557C623.742 53.7557 629.559 54.4119 635.704 55.7244C641.908 56.9773 647.695 59.304 653.064 62.7045C658.493 66.1051 662.938 70.9673 666.398 77.2912C669.858 83.5554 671.589 91.6989 671.589 101.722V193H645.458V174.207H644.384C642.654 177.668 640.059 181.068 636.599 184.409C633.138 187.75 628.694 190.524 623.265 192.732C617.836 194.939 611.333 196.043 603.756 196.043ZM609.573 174.565C616.971 174.565 623.295 173.104 628.545 170.18C633.854 167.257 637.881 163.439 640.626 158.726C643.43 153.953 644.832 148.852 644.832 143.423V125.705C643.877 126.659 642.028 127.554 639.283 128.389C636.599 129.165 633.526 129.851 630.066 130.447C626.606 130.984 623.235 131.491 619.954 131.969C616.672 132.386 613.928 132.744 611.721 133.043C606.53 133.699 601.787 134.803 597.492 136.354C593.256 137.905 589.856 140.142 587.29 143.065C584.785 145.929 583.532 149.747 583.532 154.52C583.532 161.142 585.978 166.153 590.87 169.554C595.762 172.895 601.996 174.565 609.573 174.565ZM789.334 57.8722C788.379 49.4006 784.442 42.8381 777.521 38.1847C770.601 33.4716 761.891 31.1151 751.391 31.1151C743.874 31.1151 737.371 32.3082 731.882 34.6946C726.394 37.0213 722.128 40.2429 719.085 44.3594C716.102 48.4162 714.611 53.0398 714.611 58.2301C714.611 62.5852 715.625 66.3437 717.654 69.5057C719.742 72.6676 722.456 75.3224 725.797 77.4702C729.198 79.5582 732.837 81.3182 736.715 82.75C740.593 84.1222 744.321 85.2557 747.901 86.1506L765.798 90.804C771.645 92.2358 777.641 94.1747 783.786 96.6207C789.931 99.0668 795.628 102.288 800.878 106.286C806.128 110.283 810.364 115.234 813.585 121.141C816.867 127.047 818.507 134.116 818.507 142.349C818.507 152.73 815.823 161.947 810.453 170.001C805.144 178.055 797.418 184.409 787.276 189.062C777.193 193.716 764.993 196.043 750.675 196.043C736.953 196.043 725.081 193.865 715.058 189.51C705.036 185.155 697.191 178.98 691.523 170.986C685.855 162.932 682.723 153.386 682.127 142.349H709.868C710.405 148.972 712.553 154.49 716.311 158.905C720.129 163.26 724.992 166.511 730.898 168.659C736.864 170.747 743.396 171.791 750.496 171.791C758.311 171.791 765.262 170.568 771.347 168.122C777.492 165.616 782.324 162.156 785.844 157.741C789.364 153.267 791.124 148.047 791.124 142.081C791.124 136.652 789.573 132.207 786.47 128.747C783.428 125.287 779.281 122.423 774.031 120.156C768.841 117.889 762.965 115.891 756.402 114.161L734.746 108.254C720.07 104.257 708.436 98.3807 699.845 90.625C691.314 82.8693 687.048 72.608 687.048 59.8409C687.048 49.2812 689.912 40.0639 695.639 32.1889C701.367 24.3139 709.122 18.1989 718.906 13.8438C728.691 9.42897 739.727 7.22158 752.017 7.22158C764.426 7.22158 775.374 9.39914 784.86 13.7543C794.405 18.1094 801.922 24.1051 807.411 31.7415C812.899 39.3182 815.763 48.0284 816.002 57.8722H789.334ZM831.551 193V9.72727H859.203V97.2472H861.44L938.311 9.72727H973.122L899.204 92.2358L973.39 193H940.101L880.859 111.118L859.203 135.996V193H831.551ZM985.36 193V55.5455H1012.12V193H985.36ZM998.873 34.3366C994.22 34.3366 990.222 32.7855 986.882 29.6832C983.6 26.5213 981.96 22.7628 981.96 18.4077C981.96 13.9929 983.6 10.2344 986.882 7.13209C990.222 3.97016 994.22 2.3892 998.873 2.3892C1003.53 2.3892 1007.49 3.97016 1010.78 7.13209C1014.12 10.2344 1015.79 13.9929 1015.79 18.4077C1015.79 22.7628 1014.12 26.5213 1010.78 29.6832C1007.49 32.7855 1003.53 34.3366 998.873 34.3366ZM1054.87 111.386V193H1028.11V55.5455H1053.8V77.9176H1055.5C1058.66 70.6392 1063.61 64.7926 1070.35 60.3778C1077.15 55.9631 1085.72 53.7557 1096.04 53.7557C1105.4 53.7557 1113.61 55.7244 1120.65 59.6619C1127.69 63.5398 1133.14 69.3267 1137.02 77.0227C1140.9 84.7187 1142.84 94.2344 1142.84 105.57V193H1116.08V108.791C1116.08 98.8281 1113.49 91.0426 1108.3 85.4347C1103.11 79.767 1095.98 76.9332 1086.91 76.9332C1080.7 76.9332 1075.19 78.2756 1070.35 80.9602C1065.58 83.6449 1061.79 87.5824 1058.99 92.7727C1056.24 97.9034 1054.87 104.108 1054.87 111.386ZM1216.35 247.409C1205.44 247.409 1196.04 245.977 1188.17 243.114C1180.35 240.25 1173.97 236.462 1169.01 231.749C1164.06 227.036 1160.36 221.875 1157.92 216.267L1180.92 206.781C1182.53 209.406 1184.68 212.18 1187.36 215.104C1190.1 218.087 1193.8 220.622 1198.46 222.71C1203.17 224.798 1209.22 225.842 1216.62 225.842C1226.76 225.842 1235.15 223.366 1241.77 218.415C1248.39 213.523 1251.7 205.707 1251.7 194.969V167.943H1250C1248.39 170.866 1246.06 174.118 1243.02 177.697C1240.04 181.277 1235.92 184.379 1230.67 187.004C1225.42 189.629 1218.59 190.942 1210.18 190.942C1199.32 190.942 1189.54 188.406 1180.83 183.335C1172.18 178.205 1165.32 170.658 1160.24 160.695C1155.23 150.672 1152.73 138.352 1152.73 123.736C1152.73 109.119 1155.2 96.5909 1160.16 86.1506C1165.17 75.7102 1172.03 67.7159 1180.74 62.1676C1189.45 56.5597 1199.32 53.7557 1210.36 53.7557C1218.89 53.7557 1225.78 55.1875 1231.03 58.0511C1236.28 60.8551 1240.37 64.1364 1243.29 67.8949C1246.27 71.6534 1248.57 74.9645 1250.18 77.8281H1252.15V55.5455H1278.37V196.043C1278.37 207.855 1275.63 217.55 1270.14 225.126C1264.65 232.703 1257.22 238.311 1247.85 241.95C1238.55 245.589 1228.05 247.409 1216.35 247.409ZM1216.09 168.749C1223.78 168.749 1230.28 166.959 1235.59 163.379C1240.96 159.74 1245.02 154.55 1247.76 147.808C1250.57 141.007 1251.97 132.864 1251.97 123.378C1251.97 114.131 1250.6 105.987 1247.85 98.9474C1245.11 91.9077 1241.08 86.419 1235.77 82.4815C1230.46 78.4844 1223.9 76.4858 1216.09 76.4858C1208.03 76.4858 1201.32 78.5739 1195.95 82.75C1190.58 86.8665 1186.52 92.4744 1183.78 99.5739C1181.1 106.673 1179.75 114.608 1179.75 123.378C1179.75 132.386 1181.13 140.291 1183.87 147.092C1186.61 153.893 1190.67 159.203 1196.04 163.021C1201.47 166.839 1208.15 168.749 1216.09 168.749Z" fill="#F6F7F9"/>
<defs>
<linearGradient id="paint0_linear_28322_3139" x1="88.5977" y1="79.8047" x2="256.268" y2="79.8047" gradientUnits="userSpaceOnUse">
<stop stop-color="#663CF6"/>
<stop offset="0.2298" stop-color="#7C48EB"/>
<stop offset="0.52949" stop-color="#DF7CB5"/>
<stop offset="0.792976" stop-color="#FF9774"/>
<stop offset="1" stop-color="#FEE89C"/>
</linearGradient>
</defs>
</svg>
