<svg width="130" height="45" viewBox="0 0 130 45" fill="none" xmlns="http://www.w3.org/2000/svg">
<rect width="130" height="45" rx="6.66667" fill="white"/>
<path d="M29.2046 23.2685C29.1766 20.2154 31.7474 18.7301 31.865 18.6609C30.409 16.5741 28.1524 16.289 27.3593 16.2662C25.464 16.0701 23.6255 17.3812 22.66 17.3812C21.6752 17.3812 20.1884 16.2852 18.586 16.3174C16.524 16.3486 14.5949 17.5223 13.5369 19.3449C11.3534 23.0611 12.9819 28.5222 15.0738 31.526C16.1202 32.9971 17.343 34.6397 18.9435 34.5819C20.5093 34.5185 21.0942 33.6005 22.9838 33.6005C24.856 33.6005 25.4052 34.5819 27.0375 34.545C28.718 34.5185 29.776 33.0672 30.7858 31.5828C31.9951 29.8967 32.4807 28.2361 32.5 28.1508C32.4605 28.1376 29.2364 26.9279 29.2046 23.2685Z" fill="black"/>
<path d="M26.1212 14.2902C26.9633 13.2548 27.5395 11.8462 27.3796 10.4167C26.1607 10.4698 24.6363 11.2456 23.7585 12.2583C22.9818 13.1506 22.2881 14.6132 22.4673 15.9887C23.8365 16.0891 25.2424 15.3095 26.1212 14.2902Z" fill="black"/>
<path d="M47.1554 12.4629C47.1554 13.5864 46.8111 14.4321 46.1235 15.0001C45.4866 15.5242 44.5815 15.7867 43.4092 15.7867C42.8279 15.7867 42.3305 15.7619 41.9141 15.7122V9.57342C42.4573 9.48751 43.0425 9.4436 43.6745 9.4436C44.7912 9.4436 45.6329 9.68129 46.2005 10.1567C46.8365 10.6941 47.1554 11.4625 47.1554 12.4629ZM46.0777 12.4906C46.0777 11.7622 45.8806 11.2038 45.4866 10.8144C45.0926 10.4258 44.5172 10.2311 43.7594 10.2311C43.4375 10.2311 43.1634 10.2521 42.9362 10.296V14.9629C43.062 14.982 43.2922 14.9906 43.6267 14.9906C44.4089 14.9906 45.0126 14.7777 45.4379 14.352C45.8631 13.9262 46.0777 13.3058 46.0777 12.4906Z" fill="black"/>
<path d="M52.8721 13.444C52.8721 14.136 52.6703 14.703 52.2665 15.1479C51.8432 15.6051 51.2824 15.8332 50.5821 15.8332C49.9072 15.8332 49.3698 15.6146 48.969 15.1755C48.5691 14.7374 48.3691 14.1847 48.3691 13.5184C48.3691 12.8216 48.5749 12.2498 48.9885 11.8059C49.402 11.3621 49.9579 11.1396 50.6582 11.1396C51.3331 11.1396 51.8754 11.3582 52.286 11.7964C52.6761 12.2221 52.8721 12.772 52.8721 13.444ZM51.812 13.4764C51.812 13.0612 51.7203 12.7051 51.5379 12.4083C51.3234 12.0493 51.0181 11.8699 50.6211 11.8699C50.2105 11.8699 49.8984 12.0493 49.6839 12.4083C49.5005 12.7051 49.4098 13.0669 49.4098 13.4946C49.4098 13.9098 49.5015 14.2658 49.6839 14.5627C49.9053 14.9216 50.2135 15.1011 50.6114 15.1011C51.0015 15.1011 51.3077 14.9188 51.5282 14.5532C51.7174 14.2506 51.812 13.8917 51.812 13.4764Z" fill="black"/>
<path d="M60.5324 11.2314L59.0939 15.7313H58.1576L57.5617 13.7773C57.4105 13.2895 57.2876 12.8046 57.192 12.3235H57.1735C57.0847 12.8179 56.9618 13.3019 56.8038 13.7773L56.1709 15.7313H55.2238L53.8711 11.2314H54.9215L55.4413 13.3706C55.5672 13.8765 55.6705 14.3586 55.7534 14.8149H55.772C55.848 14.4388 55.9739 13.9596 56.1514 13.3802L56.8038 11.2324H57.6368L58.2619 13.3343C58.4131 13.8469 58.536 14.3405 58.6306 14.8158H58.6589C58.7281 14.3529 58.8325 13.8594 58.971 13.3343L59.5289 11.2324H60.5324V11.2314Z" fill="black"/>
<path d="M65.8307 15.7313H64.8086V13.154C64.8086 12.3598 64.5004 11.9627 63.8821 11.9627C63.5788 11.9627 63.334 12.0715 63.1438 12.2901C62.9555 12.5087 62.86 12.7664 62.86 13.0614V15.7303H61.8378V12.5173C61.8378 12.1221 61.8252 11.6935 61.8008 11.2296H62.699L62.7468 11.9331H62.7751C62.8941 11.7145 63.0716 11.5341 63.3047 11.3899C63.5817 11.2219 63.8918 11.137 64.2312 11.137C64.6604 11.137 65.0173 11.2725 65.3012 11.5446C65.6542 11.8777 65.8307 12.375 65.8307 13.0356V15.7313Z" fill="black"/>
<path d="M68.65 15.7313H67.6289V9.16675H68.65V15.7313Z" fill="black"/>
<path d="M74.669 13.444C74.669 14.136 74.4671 14.703 74.0634 15.1479C73.6401 15.6051 73.0783 15.8332 72.379 15.8332C71.7031 15.8332 71.1657 15.6146 70.7658 15.1755C70.366 14.7374 70.166 14.1847 70.166 13.5184C70.166 12.8216 70.3718 12.2498 70.7853 11.8059C71.1989 11.3621 71.7548 11.1396 72.4541 11.1396C73.13 11.1396 73.6713 11.3582 74.0829 11.7964C74.473 12.2221 74.669 12.772 74.669 13.444ZM73.6079 13.4764C73.6079 13.0612 73.5162 12.7051 73.3338 12.4083C73.1202 12.0493 72.814 11.8699 72.418 11.8699C72.0064 11.8699 71.6943 12.0493 71.4807 12.4083C71.2974 12.7051 71.2067 13.0669 71.2067 13.4946C71.2067 13.9098 71.2983 14.2658 71.4807 14.5627C71.7021 14.9216 72.0103 15.1011 72.4083 15.1011C72.7984 15.1011 73.1036 14.9188 73.3241 14.5532C73.5142 14.2506 73.6079 13.8917 73.6079 13.4764Z" fill="black"/>
<path d="M79.6143 15.7311H78.6965L78.6204 15.2128H78.5922C78.2781 15.6261 77.8304 15.8332 77.2492 15.8332C76.8152 15.8332 76.464 15.6967 76.1997 15.4256C75.9598 15.1794 75.8398 14.8729 75.8398 14.5093C75.8398 13.9594 76.0739 13.5404 76.545 13.2502C77.0151 12.96 77.6764 12.8178 78.5278 12.8245V12.7404C78.5278 12.1477 78.2098 11.8518 77.573 11.8518C77.1194 11.8518 76.7196 11.9634 76.3743 12.1849L76.1666 11.5282C76.5938 11.2695 77.1214 11.1396 77.7436 11.1396C78.9452 11.1396 79.548 11.7601 79.548 13.001V14.6582C79.548 15.1078 79.5704 15.4657 79.6143 15.7311ZM78.5531 14.1847V13.4907C77.4257 13.4716 76.862 13.7742 76.862 14.3976C76.862 14.6324 76.9263 14.808 77.058 14.9254C77.1897 15.0429 77.3574 15.1011 77.5574 15.1011C77.7817 15.1011 77.9914 15.0314 78.1825 14.893C78.3747 14.7536 78.4927 14.577 78.5366 14.3603C78.5473 14.3117 78.5531 14.2525 78.5531 14.1847Z" fill="black"/>
<path d="M85.4221 15.7313H84.515L84.4673 15.0087H84.439C84.1493 15.5585 83.6558 15.8334 82.9624 15.8334C82.4084 15.8334 81.9471 15.6205 81.5813 15.1948C81.2156 14.7691 81.0332 14.2164 81.0332 13.5377C81.0332 12.8094 81.2312 12.2194 81.6291 11.7689C82.0144 11.3489 82.4864 11.1389 83.0482 11.1389C83.6656 11.1389 84.0976 11.3422 84.3434 11.7498H84.3629V9.16675H85.386V14.519C85.386 14.9571 85.3977 15.3609 85.4221 15.7313ZM84.3629 13.8336V13.0833C84.3629 12.9535 84.3531 12.8485 84.3346 12.7683C84.2771 12.5278 84.1532 12.3254 83.965 12.1622C83.7748 11.9989 83.5456 11.9168 83.2813 11.9168C82.8999 11.9168 82.6015 12.0648 82.382 12.3617C82.1646 12.6585 82.0543 13.0375 82.0543 13.5005C82.0543 13.9453 82.1587 14.3061 82.3684 14.5839C82.5898 14.8798 82.8882 15.0278 83.2618 15.0278C83.5973 15.0278 83.8655 14.9046 84.0693 14.6574C84.2663 14.4293 84.3629 14.1543 84.3629 13.8336Z" fill="black"/>
<path d="M94.1632 13.444C94.1632 14.136 93.9613 14.703 93.5575 15.1479C93.1342 15.6051 92.5744 15.8332 91.8731 15.8332C91.1992 15.8332 90.6618 15.6146 90.26 15.1755C89.8601 14.7374 89.6602 14.1847 89.6602 13.5184C89.6602 12.8216 89.8659 12.2498 90.2795 11.8059C90.693 11.3621 91.2489 11.1396 91.9502 11.1396C92.6241 11.1396 93.1674 11.3582 93.577 11.7964C93.9671 12.2221 94.1632 12.772 94.1632 13.444ZM93.104 13.4764C93.104 13.0612 93.0123 12.7051 92.8299 12.4083C92.6144 12.0493 92.3101 11.8699 91.9121 11.8699C91.5025 11.8699 91.1904 12.0493 90.9749 12.4083C90.7915 12.7051 90.7008 13.0669 90.7008 13.4946C90.7008 13.9098 90.7925 14.2658 90.9749 14.5627C91.1963 14.9216 91.5045 15.1011 91.9024 15.1011C92.2925 15.1011 92.5997 14.9188 92.8202 14.5532C93.0084 14.2506 93.104 13.8917 93.104 13.4764Z" fill="black"/>
<path d="M99.6599 15.7313H98.6387V13.154C98.6387 12.3598 98.3305 11.9627 97.7112 11.9627C97.4079 11.9627 97.1631 12.0715 96.9739 12.2901C96.7846 12.5087 96.69 12.7664 96.69 13.0614V15.7303H95.6669V12.5173C95.6669 12.1221 95.6552 11.6935 95.6309 11.2296H96.5281L96.5759 11.9331H96.6042C96.7242 11.7145 96.9017 11.5341 97.1338 11.3899C97.4118 11.2219 97.7209 11.137 98.0613 11.137C98.4895 11.137 98.8464 11.2725 99.1303 11.5446C99.4843 11.8777 99.6599 12.375 99.6599 13.0356V15.7313Z" fill="black"/>
<path d="M106.54 11.9806H105.415V14.1665C105.415 14.7221 105.615 14.9999 106.011 14.9999C106.194 14.9999 106.346 14.9846 106.466 14.9531L106.493 15.712C106.291 15.7864 106.025 15.8237 105.699 15.8237C105.295 15.8237 104.981 15.7034 104.754 15.4628C104.525 15.2223 104.412 14.8175 104.412 14.2496V11.9806H103.74V11.2313H104.412V10.4065L105.414 10.1106V11.2303H106.539V11.9806H106.54Z" fill="black"/>
<path d="M111.95 15.7313H110.927V13.173C110.927 12.3664 110.619 11.9627 110.001 11.9627C109.527 11.9627 109.203 12.1965 109.026 12.6643C108.996 12.7626 108.978 12.8829 108.978 13.0241V15.7303H107.957V9.16675H108.978V11.8787H108.998C109.32 11.3852 109.781 11.1389 110.379 11.1389C110.802 11.1389 111.152 11.2744 111.43 11.5465C111.776 11.8853 111.95 12.3894 111.95 13.0556V15.7313Z" fill="black"/>
<path d="M117.531 13.2684C117.531 13.4478 117.517 13.5986 117.493 13.7218H114.427C114.441 14.1666 114.587 14.5055 114.871 14.7403C115.131 14.9503 115.465 15.0553 115.875 15.0553C116.328 15.0553 116.742 14.9847 117.114 14.8424L117.274 15.5374C116.838 15.7225 116.325 15.8151 115.731 15.8151C115.019 15.8151 114.459 15.6099 114.053 15.1995C113.645 14.789 113.443 14.2382 113.443 13.5471C113.443 12.8684 113.632 12.3033 114.011 11.8528C114.407 11.3717 114.942 11.1311 115.618 11.1311C116.28 11.1311 116.782 11.3717 117.121 11.8528C117.395 12.2346 117.531 12.7071 117.531 13.2684ZM116.556 13.0097C116.563 12.7128 116.496 12.457 116.358 12.2413C116.18 11.9635 115.91 11.8241 115.544 11.8241C115.211 11.8241 114.939 11.9597 114.731 12.2317C114.561 12.4484 114.461 12.7071 114.427 13.0097H116.556Z" fill="black"/>
<path d="M51.7916 32.4653H49.5766L48.3634 29.098H44.1461L42.9904 32.4653H40.834L45.0122 21.0015H47.5929L51.7916 32.4653ZM47.9976 27.6853L46.9004 24.6918C46.7843 24.386 46.5668 23.6659 46.246 22.5322H46.207C46.0792 23.0198 45.8734 23.7399 45.5906 24.6918L44.5128 27.6853H47.9976Z" fill="black"/>
<path d="M62.5382 28.2305C62.5382 29.6363 62.1081 30.7476 61.2479 31.5633C60.4774 32.2895 59.5206 32.6522 58.3785 32.6522C57.1457 32.6522 56.2602 32.2611 55.7208 31.4789H55.6818V35.8334H53.6024V26.9202C53.6024 26.0364 53.5761 25.1293 53.5254 24.199H55.3541L55.4702 25.5092H55.5092C56.2026 24.522 57.255 24.0293 58.6672 24.0293C59.7713 24.0293 60.6929 24.4144 61.4303 25.1853C62.1695 25.9572 62.5382 26.9719 62.5382 28.2305ZM60.4198 28.2977C60.4198 27.4931 60.215 26.8298 59.8035 26.3078C59.3538 25.7634 58.7501 25.4911 57.9933 25.4911C57.4803 25.4911 57.0141 25.6428 56.5976 25.9417C56.1802 26.2432 55.9071 26.6368 55.7793 27.1244C55.715 27.3518 55.6828 27.5379 55.6828 27.6843V29.0626C55.6828 29.6639 55.8915 30.1713 56.3089 30.5856C56.7264 31 57.2686 31.2067 57.9357 31.2067C58.7189 31.2067 59.3285 30.9397 59.7644 30.4073C60.2014 29.8741 60.4198 29.1712 60.4198 28.2977Z" fill="black"/>
<path d="M73.3009 28.2305C73.3009 29.6363 72.8708 30.7476 72.0096 31.5633C71.2401 32.2895 70.2833 32.6522 69.1412 32.6522C67.9084 32.6522 67.0229 32.2611 66.4845 31.4789H66.4455V35.8334H64.3661V26.9202C64.3661 26.0364 64.3398 25.1293 64.2891 24.199H66.1178L66.2338 25.5092H66.2728C66.9653 24.522 68.0177 24.0293 69.4309 24.0293C70.534 24.0293 71.4556 24.4144 72.1949 25.1853C72.9313 25.9572 73.3009 26.9719 73.3009 28.2305ZM71.1825 28.2977C71.1825 27.4931 70.9768 26.8298 70.5652 26.3078C70.1156 25.7634 69.5138 25.4911 68.756 25.4911C68.242 25.4911 67.7768 25.6428 67.3593 25.9417C66.9419 26.2432 66.6698 26.6368 66.542 27.1244C66.4786 27.3518 66.4455 27.5379 66.4455 27.6843V29.0626C66.4455 29.6639 66.6542 30.1713 67.0697 30.5856C67.4871 30.9991 68.0294 31.2067 68.6984 31.2067C69.4816 31.2067 70.0912 30.9397 70.5271 30.4073C70.9641 29.8741 71.1825 29.1712 71.1825 28.2977Z" fill="black"/>
<path d="M85.3354 29.2505C85.3354 30.2256 84.9521 31.019 84.1825 31.6315C83.3369 32.3008 82.1597 32.6351 80.647 32.6351C79.2504 32.6351 78.1307 32.3973 77.2832 31.9209L77.765 30.3902C78.6779 30.8777 79.6795 31.1224 80.7709 31.1224C81.5541 31.1224 82.1636 30.9656 82.6016 30.6538C83.0375 30.3419 83.255 29.9233 83.255 29.4013C83.255 28.9361 83.0756 28.5441 82.7157 28.2263C82.3577 27.9084 81.7599 27.6129 80.925 27.3399C78.6525 26.5913 77.5173 25.4947 77.5173 24.0527C77.5173 23.1103 77.9152 22.3375 78.712 21.7363C79.5059 21.1341 80.5651 20.8335 81.8896 20.8335C83.0707 20.8335 84.0518 21.0153 84.835 21.3779L84.3152 22.8751C83.5837 22.5236 82.7566 22.3479 81.8311 22.3479C81.0996 22.3479 80.5281 22.5073 80.1184 22.8243C79.7722 23.1077 79.5986 23.4531 79.5986 23.8623C79.5986 24.3154 79.7966 24.6901 80.1945 24.9847C80.5407 25.2569 81.1698 25.5515 82.0827 25.8694C83.1994 26.2665 84.0197 26.7308 84.5473 27.2632C85.073 27.7938 85.3354 28.458 85.3354 29.2505Z" fill="black"/>
<path d="M92.2114 25.5776H89.9194V29.591C89.9194 30.6118 90.3232 31.1218 91.1327 31.1218C91.5043 31.1218 91.8125 31.0933 92.0563 31.0365L92.1139 32.4311C91.7043 32.5664 91.1649 32.6344 90.4968 32.6344C89.6756 32.6344 89.0339 32.413 88.5706 31.9711C88.1093 31.5283 87.8771 30.7858 87.8771 29.7426V25.5759H86.5117V24.1976H87.8771V22.6841L89.9194 22.1396V24.1976H92.2114V25.5776Z" fill="black"/>
<path d="M102.554 28.2642C102.554 29.5348 102.142 30.578 101.321 31.3938C100.46 32.2336 99.3166 32.6523 97.8917 32.6523C96.5184 32.6523 95.4251 32.25 94.6098 31.4454C93.7944 30.6409 93.3867 29.6252 93.3867 28.4012C93.3867 27.1202 93.8061 26.071 94.6478 25.2552C95.4875 24.4386 96.6208 24.0303 98.0458 24.0303C99.419 24.0303 100.524 24.4326 101.358 25.238C102.156 26.0193 102.554 27.028 102.554 28.2642ZM100.396 28.3236C100.396 27.5613 100.212 26.9074 99.8384 26.3622C99.4024 25.7023 98.7792 25.3732 97.9716 25.3732C97.1358 25.3732 96.5009 25.7032 96.0649 26.3622C95.6914 26.9083 95.507 27.5725 95.507 28.3581C95.507 29.1204 95.6914 29.7743 96.0649 30.3187C96.5145 30.9785 97.1426 31.3076 97.9531 31.3076C98.747 31.3076 99.3702 30.9717 99.8199 30.3015C100.203 29.7458 100.396 29.0851 100.396 28.3236Z" fill="black"/>
<path d="M109.312 25.8142C109.106 25.7806 108.887 25.7634 108.657 25.7634C107.925 25.7634 107.359 26.0071 106.961 26.4956C106.615 26.9263 106.442 27.4707 106.442 28.128V32.4653H104.363L104.383 26.8022C104.383 25.8495 104.356 24.982 104.305 24.1999H106.116L106.192 25.7814H106.249C106.469 25.2379 106.815 24.8003 107.289 24.4721C107.752 24.1766 108.253 24.0293 108.792 24.0293C108.984 24.0293 109.158 24.0414 109.312 24.0629V25.8142Z" fill="black"/>
<path d="M118.61 27.9412C118.61 28.2702 118.586 28.5476 118.534 28.7742H112.296C112.321 29.5908 112.622 30.2153 113.201 30.646C113.727 31.0311 114.407 31.2241 115.242 31.2241C116.165 31.2241 117.008 31.094 117.766 30.833L118.092 32.1079C117.206 32.449 116.16 32.6187 114.954 32.6187C113.503 32.6187 112.364 32.2414 111.535 31.4877C110.707 30.7339 110.293 29.7217 110.293 28.452C110.293 27.2055 110.678 26.1675 111.45 25.3397C112.257 24.4558 113.349 24.0139 114.722 24.0139C116.071 24.0139 117.092 24.4558 117.785 25.3397C118.334 26.0417 118.61 26.91 118.61 27.9412ZM116.628 27.4648C116.641 26.9204 116.506 26.45 116.224 26.0529C115.864 25.5421 115.311 25.2871 114.567 25.2871C113.887 25.2871 113.334 25.5361 112.912 26.0357C112.565 26.4328 112.36 26.9092 112.296 27.4639H116.628V27.4648Z" fill="black"/>
</svg>
