<svg width="28" height="28" viewBox="0 0 28 28" fill="none" xmlns="http://www.w3.org/2000/svg">
<path d="M22.75 8.75H19.25V6.125C19.25 4.73261 18.6969 3.39726 17.7123 2.41269C16.7277 1.42812 15.3924 0.875 14 0.875C12.6076 0.875 11.2723 1.42812 10.2877 2.41269C9.30312 3.39726 8.75 4.73261 8.75 6.125V8.75H5.25C4.78587 8.75 4.34075 8.93437 4.01256 9.26256C3.68437 9.59075 3.5 10.0359 3.5 10.5V22.75C3.5 23.2141 3.68437 23.6592 4.01256 23.9874C4.34075 24.3156 4.78587 24.5 5.25 24.5H22.75C23.2141 24.5 23.6592 24.3156 23.9874 23.9874C24.3156 23.6592 24.5 23.2141 24.5 22.75V10.5C24.5 10.0359 24.3156 9.59075 23.9874 9.26256C23.6592 8.93437 23.2141 8.75 22.75 8.75ZM10.5 6.125C10.5 5.19674 10.8687 4.3065 11.5251 3.65013C12.1815 2.99375 13.0717 2.625 14 2.625C14.9283 2.625 15.8185 2.99375 16.4749 3.65013C17.1313 4.3065 17.5 5.19674 17.5 6.125V8.75H10.5V6.125ZM22.75 22.75H5.25V10.5H22.75V22.75ZM15.3125 16.625C15.3125 16.8846 15.2355 17.1383 15.0913 17.3542C14.9471 17.57 14.7421 17.7383 14.5023 17.8376C14.2624 17.9369 13.9985 17.9629 13.7439 17.9123C13.4893 17.8616 13.2555 17.7366 13.0719 17.5531C12.8884 17.3695 12.7634 17.1357 12.7127 16.8811C12.6621 16.6265 12.6881 16.3626 12.7874 16.1227C12.8867 15.8829 13.055 15.6779 13.2708 15.5337C13.4867 15.3895 13.7404 15.3125 14 15.3125C14.3481 15.3125 14.6819 15.4508 14.9281 15.6969C15.1742 15.9431 15.3125 16.2769 15.3125 16.625Z" fill="white"/>
</svg>
