<svg width="28" height="28" viewBox="0 0 28 28" fill="none" xmlns="http://www.w3.org/2000/svg">
<path d="M25.3601 12.4689L6.98511 1.98089C6.67517 1.80641 6.31942 1.73052 5.96525 1.76332C5.61109 1.79612 5.27532 1.93606 5.0027 2.1645C4.73007 2.39293 4.53352 2.69902 4.43924 3.04198C4.34496 3.38493 4.35742 3.74848 4.47496 4.08418L7.82511 14.0001L4.47496 23.9171C4.38172 24.181 4.35314 24.4634 4.39161 24.7407C4.43008 25.0179 4.53448 25.2818 4.69605 25.5104C4.85762 25.7389 5.07164 25.9253 5.32016 26.0541C5.56869 26.1828 5.84445 26.25 6.12433 26.2501C6.4284 26.2495 6.72715 26.1704 6.99167 26.0204L25.3579 15.515C25.6288 15.3632 25.8545 15.1421 26.0117 14.8744C26.1689 14.6066 26.2521 14.3018 26.2527 13.9913C26.2532 13.6808 26.1712 13.3757 26.0149 13.1074C25.8586 12.8391 25.6337 12.6172 25.3634 12.4645L25.3601 12.4689ZM6.12433 24.5001C6.1248 24.4958 6.1248 24.4914 6.12433 24.487L9.37714 14.8751H15.7493C15.9814 14.8751 16.204 14.7829 16.368 14.6188C16.5321 14.4547 16.6243 14.2322 16.6243 14.0001C16.6243 13.7681 16.5321 13.5455 16.368 13.3814C16.204 13.2173 15.9814 13.1251 15.7493 13.1251H9.37714L6.13089 3.51761C6.12982 3.51142 6.12759 3.50549 6.12433 3.50011L24.4993 13.9815L6.12433 24.5001Z" fill="white"/>
</svg>
