<svg width="52" height="35" viewBox="0 0 52 35" fill="none" xmlns="http://www.w3.org/2000/svg">
<path fill-rule="evenodd" clip-rule="evenodd" d="M19.9832 33.3068C23.4775 34.9593 26.8917 33.7082 30.2724 31.2013C25.1958 33.2009 19.0728 28.1089 11.4899 18.5116L11.0003 18.6958V19.2447C11.0003 19.9235 10.44 20.4786 9.7534 20.4786H6.47208H6.46019C9.01197 23.0031 17.6532 32.2045 19.9832 33.3068ZM6.22796 19.2447V15.9954C6.22796 15.8624 6.33812 15.7541 6.47243 15.7541H9.75375C9.88877 15.7541 9.99827 15.8628 9.99827 15.9954V19.2447C9.99827 19.3777 9.88877 19.4871 9.75375 19.4871H6.47243C6.33812 19.4871 6.22796 19.3777 6.22796 19.2447ZM10.1787 14.7318V11.4828C10.1787 11.3502 10.2882 11.2408 10.4221 11.2408H13.7042C13.8381 11.2408 13.9486 11.3502 13.9486 11.4828V14.7318C13.9486 14.8654 13.8381 14.9742 13.7042 14.9742H10.4221C10.2882 14.9742 10.1787 14.8654 10.1787 14.7318ZM3.02357 14.4038V11.1548C3.02357 11.0212 3.13409 10.9128 3.26804 10.9128H6.55007C6.68403 10.9128 6.79454 11.0212 6.79454 11.1548V14.4038C6.79454 14.5371 6.68438 14.6459 6.55007 14.6459H3.26804C3.13444 14.6459 3.02357 14.5371 3.02357 14.4038ZM7.78503 10.8411V8.95691C7.78503 8.87971 7.84835 8.81628 7.92636 8.81628H9.82933C9.90727 8.81628 9.97059 8.88007 9.97059 8.95691V10.8411C9.97059 10.9187 9.90727 10.9814 9.82933 10.9814H7.92636C7.84835 10.9814 7.78503 10.9187 7.78503 10.8411ZM4.72264 9.87357V8.58882C4.72264 8.53582 4.76636 8.49219 4.81952 8.49219H6.11709C6.17059 8.49219 6.21397 8.53582 6.21397 8.58882V9.87357C6.21397 9.92622 6.17059 9.96949 6.11709 9.96949H4.81952C4.76671 9.96949 4.72264 9.92622 4.72264 9.87357ZM2.29189 18.7159V17.2403C2.29189 17.1797 2.34226 17.1309 2.40311 17.1309H3.89374C3.95494 17.1309 4.00496 17.1801 4.00496 17.2403V18.7159C4.00496 18.7772 3.95494 18.8264 3.89374 18.8264H2.40311C2.34226 18.826 2.29189 18.7772 2.29189 18.7159ZM0 12.0708V10.5942C0 10.534 0.0496641 10.4852 0.11017 10.4852H1.6008C1.66235 10.4852 1.71201 10.5343 1.71201 10.5942V12.0708C1.71201 12.1311 1.66235 12.1799 1.6008 12.1799H0.11017C0.0496641 12.1803 0 12.1311 0 12.0708ZM25.1101 29.5408C30.6883 32.1748 34.966 28.1432 32.9518 20.4401C32.3317 31.7381 23.9112 24.6483 15.0912 11.3478C14.8195 10.9377 14.951 11.052 14.951 11.4828V14.7318C14.951 15.4105 14.3897 15.9663 13.7042 15.9663H11.0849C13.9018 19.7499 20.6844 27.4509 25.1101 29.5408Z" fill="white"/>
<path fill-rule="evenodd" clip-rule="evenodd" d="M31.152 0.749313C27.658 -0.903906 24.2434 0.347263 20.8631 2.85411C25.9393 0.854935 32.0627 5.94793 39.6452 15.5439L40.1353 15.3596V14.8111C40.1353 14.1316 40.6956 13.5769 41.3811 13.5769H44.663H44.6749C42.1236 11.0527 33.4824 1.85123 31.152 0.749313ZM44.9076 14.8114V18.0604C44.9076 18.193 44.7971 18.3024 44.663 18.3024H41.3811C41.2471 18.3024 41.1376 18.1933 41.1376 18.0604V14.8114C41.1376 14.6781 41.2471 14.5694 41.3811 14.5694H44.663C44.7971 14.5694 44.9076 14.6781 44.9076 14.8114ZM40.9571 19.3237V22.5726C40.9571 22.7063 40.8476 22.8147 40.7127 22.8147H37.4314C37.2974 22.8147 37.1868 22.7063 37.1868 22.5726V19.3237C37.1868 19.1904 37.2971 19.0816 37.4314 19.0816H40.7127C40.8476 19.0816 40.9571 19.1904 40.9571 19.3237ZM48.1109 19.652V22.9009C48.1109 23.0343 48.001 23.143 47.8671 23.143H44.5851C44.4512 23.143 44.3402 23.0343 44.3402 22.9009V19.652C44.3402 19.5193 44.4508 19.4099 44.5851 19.4099H47.8671C48.0014 19.4099 48.1109 19.5193 48.1109 19.652ZM43.3508 23.2153V25.0995C43.3508 25.1768 43.2875 25.2394 43.2095 25.2394H41.3066C41.2285 25.2394 41.1646 25.1768 41.1646 25.0995V23.2153C41.1646 23.1381 41.2285 23.0748 41.3066 23.0748H43.2095C43.2875 23.0744 43.3508 23.1381 43.3508 23.2153ZM46.4129 24.1826V25.4677C46.4129 25.52 46.3688 25.5632 46.316 25.5632H45.0181C44.9646 25.5632 44.9215 25.52 44.9215 25.4677V24.1826C44.9215 24.1296 44.9646 24.0859 45.0181 24.0859H46.316C46.3688 24.0863 46.4129 24.1296 46.4129 24.1826ZM48.8436 15.3399V16.8158C48.8436 16.876 48.7932 16.9259 48.7321 16.9259H47.2418C47.1805 16.9259 47.1302 16.8764 47.1302 16.8158V15.3399C47.1302 15.2796 47.1805 15.2298 47.2418 15.2298H48.7321C48.7932 15.2298 48.8436 15.2796 48.8436 15.3399ZM51.1355 21.9856V23.4616C51.1355 23.5218 51.0858 23.5706 51.025 23.5706H49.5336C49.4728 23.5706 49.4235 23.5215 49.4235 23.4616V21.9856C49.4235 21.9247 49.4731 21.8755 49.5336 21.8755H51.025C51.0862 21.8755 51.1355 21.9247 51.1355 21.9856ZM26.0257 4.51461C20.4476 1.88101 16.1698 5.91226 18.1841 13.6167C18.8034 2.3177 27.2246 9.40816 36.0435 22.7077C36.3153 23.118 36.1848 23.0037 36.1848 22.5726V19.3237C36.1848 18.6449 36.7462 18.0894 37.4314 18.0894H40.0506C37.2341 14.3054 30.4514 6.60555 26.0257 4.51461Z" fill="white"/>
</svg>
