<svg width="24" height="24" viewBox="0 0 24 24" fill="none" xmlns="http://www.w3.org/2000/svg">
<path d="M23.4216 4.68891C23.3394 4.59062 23.2367 4.51156 23.1207 4.45732C23.0046 4.40308 22.8781 4.37498 22.75 4.375H5.10563L4.44063 0.718594C4.404 0.51698 4.29777 0.334617 4.14047 0.203296C3.98316 0.0719761 3.78476 2.96157e-05 3.57984 0H0.875C0.642936 0 0.420376 0.0921872 0.256282 0.256282C0.0921872 0.420376 0 0.642936 0 0.875C0 1.10706 0.0921872 1.32962 0.256282 1.49372C0.420376 1.65781 0.642936 1.75 0.875 1.75H2.84375L5.63938 17.0942C5.72172 17.5493 5.92283 17.9745 6.22234 18.3269C5.80896 18.713 5.51059 19.206 5.36031 19.7514C5.21004 20.2967 5.21374 20.873 5.371 21.4164C5.52826 21.9597 5.83294 22.4489 6.25125 22.8297C6.66956 23.2105 7.18515 23.468 7.74086 23.5736C8.29657 23.6792 8.87068 23.6289 9.39952 23.4282C9.92837 23.2274 10.3913 22.8841 10.737 22.4364C11.0826 21.9886 11.2975 21.4539 11.3578 20.8914C11.4181 20.329 11.3215 19.7609 11.0786 19.25H16.0464C15.8507 19.6598 15.7494 20.1083 15.75 20.5625C15.75 21.1682 15.9296 21.7603 16.2661 22.2639C16.6026 22.7676 17.0809 23.1601 17.6405 23.3919C18.2001 23.6237 18.8159 23.6843 19.41 23.5662C20.004 23.448 20.5497 23.1563 20.978 22.728C21.4063 22.2997 21.698 21.754 21.8162 21.16C21.9343 20.5659 21.8737 19.9501 21.6419 19.3905C21.4101 18.8309 21.0176 18.3526 20.5139 18.0161C20.0103 17.6796 19.4182 17.5 18.8125 17.5H8.22172C8.01681 17.5 7.8184 17.428 7.6611 17.2967C7.50379 17.1654 7.39757 16.983 7.36094 16.7814L7.01422 14.875H19.7017C20.3165 14.8749 20.9117 14.6591 21.3836 14.2651C21.8555 13.8712 22.1742 13.3241 22.2841 12.7192L23.6141 5.40641C23.6366 5.28001 23.631 5.15021 23.5977 5.02621C23.5645 4.90221 23.5043 4.78706 23.4216 4.68891ZM9.625 20.5625C9.625 20.8221 9.54802 21.0758 9.4038 21.2917C9.25959 21.5075 9.0546 21.6758 8.81477 21.7751C8.57494 21.8744 8.31104 21.9004 8.05644 21.8498C7.80184 21.7991 7.56798 21.6741 7.38442 21.4906C7.20087 21.307 7.07586 21.0732 7.02522 20.8186C6.97458 20.564 7.00057 20.3001 7.09991 20.0602C7.19925 19.8204 7.36748 19.6154 7.58331 19.4712C7.79915 19.327 8.05291 19.25 8.3125 19.25C8.6606 19.25 8.99444 19.3883 9.24058 19.6344C9.48672 19.8806 9.625 20.2144 9.625 20.5625ZM20.125 20.5625C20.125 20.8221 20.048 21.0758 19.9038 21.2917C19.7596 21.5075 19.5546 21.6758 19.3148 21.7751C19.0749 21.8744 18.811 21.9004 18.5564 21.8498C18.3018 21.7991 18.068 21.6741 17.8844 21.4906C17.7009 21.307 17.5759 21.0732 17.5252 20.8186C17.4746 20.564 17.5006 20.3001 17.5999 20.0602C17.6992 19.8204 17.8675 19.6154 18.0833 19.4712C18.2992 19.327 18.5529 19.25 18.8125 19.25C19.1606 19.25 19.4944 19.3883 19.7406 19.6344C19.9867 19.8806 20.125 20.2144 20.125 20.5625ZM20.5625 12.4064C20.5258 12.6086 20.4191 12.7914 20.2611 12.9228C20.1031 13.0541 19.9039 13.1257 19.6984 13.125H6.69594L5.42391 6.125H21.7011L20.5625 12.4064Z" fill="white"/>
</svg>
