<svg width="28" height="28" viewBox="0 0 28 28" fill="none" xmlns="http://www.w3.org/2000/svg">
<path d="M25.375 22.75C25.375 22.9821 25.2828 23.2046 25.1187 23.3687C24.9546 23.5328 24.7321 23.625 24.5 23.625H3.5C3.26794 23.625 3.04538 23.5328 2.88128 23.3687C2.71719 23.2046 2.625 22.9821 2.625 22.75V5.25C2.625 5.01794 2.71719 4.79538 2.88128 4.63128C3.04538 4.46719 3.26794 4.375 3.5 4.375C3.73206 4.375 3.95462 4.46719 4.11872 4.63128C4.28281 4.79538 4.375 5.01794 4.375 5.25V17.138L9.88094 11.6309C9.9622 11.5496 10.0587 11.485 10.1649 11.441C10.2712 11.397 10.385 11.3743 10.5 11.3743C10.615 11.3743 10.7288 11.397 10.8351 11.441C10.9413 11.485 11.0378 11.5496 11.1191 11.6309L14 14.513L19.763 8.75H17.5C17.2679 8.75 17.0454 8.65781 16.8813 8.49372C16.7172 8.32962 16.625 8.10706 16.625 7.875C16.625 7.64294 16.7172 7.42038 16.8813 7.25628C17.0454 7.09219 17.2679 7 17.5 7H21.875C22.1071 7 22.3296 7.09219 22.4937 7.25628C22.6578 7.42038 22.75 7.64294 22.75 7.875V12.25C22.75 12.4821 22.6578 12.7046 22.4937 12.8687C22.3296 13.0328 22.1071 13.125 21.875 13.125C21.6429 13.125 21.4204 13.0328 21.2563 12.8687C21.0922 12.7046 21 12.4821 21 12.25V9.98703L14.6191 16.3691C14.5378 16.4504 14.4413 16.515 14.3351 16.559C14.2288 16.603 14.115 16.6257 14 16.6257C13.885 16.6257 13.7712 16.603 13.6649 16.559C13.5587 16.515 13.4622 16.4504 13.3809 16.3691L10.5 13.487L4.375 19.612V21.875H24.5C24.7321 21.875 24.9546 21.9672 25.1187 22.1313C25.2828 22.2954 25.375 22.5179 25.375 22.75Z" fill="white"/>
</svg>
