<svg width="28" height="28" viewBox="0 0 28 28" fill="none" xmlns="http://www.w3.org/2000/svg">
<path d="M24.5 5.25H3.5C3.03587 5.25 2.59075 5.43437 2.26256 5.76256C1.93437 6.09075 1.75 6.53587 1.75 7V21C1.75 21.4641 1.93437 21.9092 2.26256 22.2374C2.59075 22.5656 3.03587 22.75 3.5 22.75H24.5C24.9641 22.75 25.4092 22.5656 25.7374 22.2374C26.0656 21.9092 26.25 21.4641 26.25 21V7C26.25 6.53587 26.0656 6.09075 25.7374 5.76256C25.4092 5.43437 24.9641 5.25 24.5 5.25ZM24.5 7V9.625H3.5V7H24.5ZM24.5 21H3.5V11.375H24.5V21ZM22.75 18.375C22.75 18.6071 22.6578 18.8296 22.4937 18.9937C22.3296 19.1578 22.1071 19.25 21.875 19.25H18.375C18.1429 19.25 17.9204 19.1578 17.7563 18.9937C17.5922 18.8296 17.5 18.6071 17.5 18.375C17.5 18.1429 17.5922 17.9204 17.7563 17.7563C17.9204 17.5922 18.1429 17.5 18.375 17.5H21.875C22.1071 17.5 22.3296 17.5922 22.4937 17.7563C22.6578 17.9204 22.75 18.1429 22.75 18.375ZM15.75 18.375C15.75 18.6071 15.6578 18.8296 15.4937 18.9937C15.3296 19.1578 15.1071 19.25 14.875 19.25H13.125C12.8929 19.25 12.6704 19.1578 12.5063 18.9937C12.3422 18.8296 12.25 18.6071 12.25 18.375C12.25 18.1429 12.3422 17.9204 12.5063 17.7563C12.6704 17.5922 12.8929 17.5 13.125 17.5H14.875C15.1071 17.5 15.3296 17.5922 15.4937 17.7563C15.6578 17.9204 15.75 18.1429 15.75 18.375Z" fill="white"/>
</svg>
