<svg width="28" height="28" viewBox="0 0 28 28" fill="none" xmlns="http://www.w3.org/2000/svg">
<path d="M14 2.625C11.7502 2.625 9.551 3.29213 7.68039 4.54203C5.80978 5.79193 4.35182 7.56847 3.49088 9.64698C2.62993 11.7255 2.40467 14.0126 2.84357 16.2192C3.28248 18.4257 4.36584 20.4525 5.95667 22.0433C7.54749 23.6342 9.57432 24.7175 11.7809 25.1564C13.9874 25.5953 16.2745 25.3701 18.353 24.5091C20.4315 23.6482 22.2081 22.1902 23.458 20.3196C24.7079 18.449 25.375 16.2498 25.375 14C25.3715 10.9842 24.172 8.09297 22.0395 5.9605C19.907 3.82802 17.0158 2.62847 14 2.625ZM23.5834 13.125H19.227C19.0313 9.13172 17.4934 6.30766 16.2323 4.6375C18.1905 5.10772 19.9523 6.179 21.2708 7.70111C22.5893 9.22323 23.3984 11.1198 23.5845 13.125H23.5834ZM10.5252 14.875H17.4748C17.2222 19.4261 15.0434 22.2152 14 23.2969C12.9555 22.2141 10.7778 19.425 10.5252 14.875ZM10.5252 13.125C10.7778 8.57391 12.9566 5.78484 14 4.70312C15.0445 5.78922 17.2222 8.57828 17.4748 13.125H10.5252ZM11.7677 4.6375C10.5066 6.30766 8.96875 9.13172 8.77297 13.125H4.41547C4.60162 11.1198 5.41068 9.22323 6.72919 7.70111C8.04771 6.179 9.80955 5.10772 11.7677 4.6375ZM4.41547 14.875H8.77297C8.97204 18.8683 10.5066 21.6923 11.7677 23.3625C9.80955 22.8923 8.04771 21.821 6.72919 20.2989C5.41068 18.7768 4.60162 16.8802 4.41547 14.875ZM16.228 23.3625C17.4891 21.6923 19.0236 18.8683 19.2227 14.875H23.5802C23.3943 16.8796 22.5859 18.7758 21.2682 20.2978C19.9505 21.8199 18.1897 22.8915 16.2323 23.3625H16.228Z" fill="white"/>
</svg>
