<svg width="132" height="45" viewBox="0 0 132 45" fill="none" xmlns="http://www.w3.org/2000/svg">
<path d="M126.79 45H4.87654C2.19566 45 0 42.4673 0 39.375V5.625C0 2.53266 2.19566 0 4.87654 0H126.79C129.471 0 131.667 2.53266 131.667 5.625V39.375C131.667 42.4673 129.471 45 126.79 45Z" fill="white"/>
<path d="M10.1765 8.78325C9.89025 9.13194 9.72461 9.67483 9.72461 10.3779V35.4558C9.72461 36.1588 9.89025 36.7017 10.1765 37.0504L10.2471 37.127L22.3221 23.0798V22.7482L10.2471 8.70104L10.1765 8.78325Z" fill="url(#paint0_linear_27000_31663)"/>
<path d="M26.3428 27.7646L22.3223 23.0799V22.7482L26.3477 18.0635L26.4378 18.1244L31.2049 21.2811C32.5654 22.177 32.5654 23.6512 31.2049 24.5527L26.4378 27.7037L26.3428 27.7646Z" fill="url(#paint1_linear_27000_31663)"/>
<path d="M26.4369 27.7038L22.3214 22.9142L10.1758 37.0506C10.6276 37.6034 11.3645 37.67 12.2025 37.1172L26.4369 27.7038Z" fill="url(#paint2_linear_27000_31663)"/>
<path d="M26.4369 18.1249L12.2025 8.71152C11.3645 8.16437 10.6276 8.23099 10.1758 8.78381L22.3214 22.9146L26.4369 18.1249Z" fill="url(#paint3_linear_27000_31663)"/>
<path d="M66.426 25.2162C64.1352 25.2162 62.2639 26.8768 62.2639 29.1681C62.2639 31.4408 64.1352 33.1189 66.426 33.1189C68.7216 33.1189 70.593 31.4408 70.593 29.1681C70.593 26.8768 68.7216 25.2162 66.426 25.2162ZM66.426 31.5628C65.169 31.5628 64.0877 30.5745 64.0877 29.1681C64.0877 27.7432 65.169 26.7723 66.426 26.7723C67.6829 26.7723 68.7692 27.7432 68.7692 29.1681C68.7692 30.5745 67.6829 31.5628 66.426 31.5628ZM57.3446 25.2162C55.049 25.2162 53.1825 26.8768 53.1825 29.1681C53.1825 31.4408 55.049 33.1189 57.3446 33.1189C59.639 33.1189 61.5068 31.4408 61.5068 29.1681C61.5068 26.8768 59.639 25.2162 57.3446 25.2162ZM57.3446 31.5628C56.0865 31.5628 55.0015 30.5745 55.0015 29.1681C55.0015 27.7432 56.0865 26.7723 57.3446 26.7723C58.6016 26.7723 59.6829 27.7432 59.6829 29.1681C59.6829 30.5745 58.6016 31.5628 57.3446 31.5628ZM46.5382 26.4274V28.1067H50.7479C50.6248 29.045 50.2956 29.7348 49.7909 30.2156C49.1764 30.7963 48.2194 31.4408 46.5382 31.4408C43.9476 31.4408 41.9189 29.4492 41.9189 26.9814C41.9189 24.5136 43.9476 22.5219 46.5382 22.5219C47.939 22.5219 48.9582 23.0433 49.7104 23.7192L50.9527 22.5358C49.9006 21.5789 48.501 20.8438 46.5382 20.8438C42.9857 20.8438 40 23.5973 40 26.9814C40 30.3654 42.9857 33.1189 46.5382 33.1189C48.4584 33.1189 49.9006 32.5197 51.0344 31.3955C52.1962 30.2888 52.5583 28.7326 52.5583 27.4761C52.5583 27.0859 52.5242 26.727 52.4632 26.4274H46.5382ZM90.727 27.7292C90.3844 26.8455 89.3274 25.2162 87.1744 25.2162C85.041 25.2162 83.2647 26.8176 83.2647 29.1681C83.2647 31.3816 85.0227 33.1189 87.3793 33.1189C89.2848 33.1189 90.3844 32.0122 90.8367 31.3677L89.4225 30.47C88.9507 31.1273 88.3082 31.5628 87.3793 31.5628C86.4564 31.5628 85.7944 31.1598 85.3701 30.3654L90.9184 28.1787L90.727 27.7292ZM85.0702 29.045C85.0227 27.5214 86.3125 26.741 87.2366 26.741C87.9608 26.741 88.5752 27.0859 88.78 27.5794L85.0702 29.045ZM80.5606 32.8785H82.3845V21.2654H80.5606V32.8785ZM77.5738 26.0964H77.5128C77.1032 25.6342 76.3217 25.2162 75.3318 25.2162C73.2544 25.2162 71.3549 26.9535 71.3549 29.1809C71.3549 31.3955 73.2544 33.1189 75.3318 33.1189C76.3217 33.1189 77.1032 32.6974 77.5128 32.2212H77.5738V32.7879C77.5738 34.2988 76.7265 35.1106 75.3598 35.1106C74.2455 35.1106 73.5543 34.3441 73.269 33.6996L71.6829 34.3302C72.1401 35.3777 73.3507 36.6667 75.3598 36.6667C77.4982 36.6667 79.3025 35.4683 79.3025 32.5522V25.4565H77.5738V26.0964ZM75.4878 31.5628C74.2309 31.5628 73.1788 30.5605 73.1788 29.1809C73.1788 27.7885 74.2309 26.7723 75.4878 26.7723C76.7265 26.7723 77.703 27.7885 77.703 29.1809C77.703 30.5605 76.7265 31.5628 75.4878 31.5628ZM99.2658 21.2654H94.9038V32.8785H96.7227V28.4783H99.2658C101.286 28.4783 103.267 27.0859 103.267 24.8712C103.267 22.6578 101.281 21.2654 99.2658 21.2654ZM99.3134 26.8629H96.7227V22.8807H99.3134C100.671 22.8807 101.447 23.955 101.447 24.8712C101.447 25.7701 100.671 26.8629 99.3134 26.8629ZM110.557 25.1941C109.243 25.1941 107.877 25.7469 107.315 26.9721L108.929 27.6166C109.276 26.9721 109.915 26.763 110.59 26.763C111.534 26.763 112.491 27.303 112.506 28.2565V28.3784C112.176 28.1973 111.472 27.929 110.605 27.929C108.867 27.929 107.095 28.8406 107.095 30.542C107.095 32.0981 108.519 33.1003 110.12 33.1003C111.344 33.1003 112.019 32.5743 112.443 31.9623H112.506V32.8599H114.262V28.4051C114.262 26.3461 112.648 25.1941 110.557 25.1941ZM110.338 31.5581C109.743 31.5581 108.914 31.2771 108.914 30.5745C108.914 29.6756 109.948 29.3307 110.843 29.3307C111.644 29.3307 112.019 29.4991 112.506 29.7209C112.363 30.7963 111.391 31.5581 110.338 31.5581ZM120.663 25.4484L118.572 30.4827H118.51L116.348 25.4484H114.387L117.635 32.4837L115.781 36.3985H117.682L122.687 25.4484H120.663ZM104.267 32.8785H106.091V21.2654H104.267V32.8785Z" fill="black"/>
<path d="M45.9152 12.6643C45.9152 13.5224 45.6714 14.2097 45.1911 14.7222C44.6388 15.3298 43.9195 15.6355 43.0381 15.6355C42.1957 15.6355 41.4764 15.3247 40.8863 14.7119C40.295 14.0902 40 13.3272 40 12.4138C40 11.5005 40.295 10.7375 40.8863 10.1209C41.4764 9.503 42.1957 9.19214 43.0381 9.19214C43.4575 9.19214 43.8573 9.28334 44.2389 9.45291C44.6193 9.62375 44.929 9.85498 45.1533 10.1402L44.6437 10.6822C44.2523 10.1954 43.7196 9.95517 43.0381 9.95517C42.4236 9.95517 41.8909 10.1813 41.4386 10.6373C40.9912 11.0946 40.7668 11.6868 40.7668 12.4138C40.7668 13.1409 40.9912 13.7382 41.4386 14.1955C41.8909 14.6464 42.4236 14.8776 43.0381 14.8776C43.6903 14.8776 44.2389 14.6464 44.6717 14.1904C44.957 13.8885 45.1192 13.4723 45.1618 12.9405H43.0381V12.198H45.8714C45.9055 12.3586 45.9152 12.514 45.9152 12.6643Z" fill="black" stroke="black" stroke-width="0.0387684" stroke-miterlimit="10"/>
<path d="M50.4089 10.0901H47.7476V12.0427H50.1468V12.7851H47.7476V14.7377H50.4089V15.4943H46.9941V9.3335H50.4089V10.0901Z" fill="black" stroke="black" stroke-width="0.0387684" stroke-miterlimit="10"/>
<path d="M53.5831 15.4943H52.8297V10.0901H51.1973V9.3335H55.2168V10.0901H53.5831V15.4943Z" fill="black" stroke="black" stroke-width="0.0387684" stroke-miterlimit="10"/>
<path d="M58.125 15.4943V9.3335H58.8772V15.4943H58.125Z" fill="black" stroke="black" stroke-width="0.0387684" stroke-miterlimit="10"/>
<path d="M62.2101 15.4943H61.4627V10.0901H59.8242V9.3335H63.8486V10.0901H62.2101V15.4943Z" fill="black" stroke="black" stroke-width="0.0387684" stroke-miterlimit="10"/>
<path d="M71.4599 14.7017C70.8833 15.3247 70.1689 15.6355 69.3167 15.6355C68.4596 15.6355 67.7452 15.3247 67.1686 14.7017C66.5931 14.0799 66.3066 13.3169 66.3066 12.4138C66.3066 11.5108 66.5931 10.7478 67.1686 10.126C67.7452 9.503 68.4596 9.19214 69.3167 9.19214C70.164 9.19214 70.8784 9.503 71.4551 10.1312C72.0354 10.758 72.3219 11.5159 72.3219 12.4138C72.3219 13.3169 72.0354 14.0799 71.4599 14.7017ZM67.7257 14.1853C68.1597 14.6464 68.6876 14.8776 69.3167 14.8776C69.9409 14.8776 70.4736 14.6464 70.9028 14.1853C71.3356 13.7241 71.555 13.1319 71.555 12.4138C71.555 11.6958 71.3356 11.1036 70.9028 10.6424C70.4736 10.1813 69.9409 9.95003 69.3167 9.95003C68.6876 9.95003 68.1597 10.1813 67.7257 10.6424C67.2929 11.1036 67.0735 11.6958 67.0735 12.4138C67.0735 13.1319 67.2929 13.7241 67.7257 14.1853Z" fill="black" stroke="black" stroke-width="0.0387684" stroke-miterlimit="10"/>
<path d="M73.3789 15.4943V9.3335H74.2933L77.1363 14.1249H77.1692L77.1363 12.9406V9.3335H77.8885V15.4943H77.1034L74.1262 10.4665H74.0933L74.1262 11.656V15.4943H73.3789Z" fill="black" stroke="black" stroke-width="0.0387684" stroke-miterlimit="10"/>
<defs>
<linearGradient id="paint0_linear_27000_31663" x1="21.25" y1="35.7169" x2="2.436" y2="19.5509" gradientUnits="userSpaceOnUse">
<stop stop-color="#00A0FF"/>
<stop offset="0.0066" stop-color="#00A1FF"/>
<stop offset="0.2601" stop-color="#00BEFF"/>
<stop offset="0.5122" stop-color="#00D2FF"/>
<stop offset="0.7604" stop-color="#00DFFF"/>
<stop offset="1" stop-color="#00E3FF"/>
</linearGradient>
<linearGradient id="paint1_linear_27000_31663" x1="32.9765" y1="22.9125" x2="9.39961" y2="22.9125" gradientUnits="userSpaceOnUse">
<stop stop-color="#FFE000"/>
<stop offset="0.4087" stop-color="#FFBD00"/>
<stop offset="0.7754" stop-color="#FFA500"/>
<stop offset="1" stop-color="#FF9C00"/>
</linearGradient>
<linearGradient id="paint2_linear_27000_31663" x1="24.199" y1="20.3104" x2="-1.31426" y2="-1.612" gradientUnits="userSpaceOnUse">
<stop stop-color="#FF3A44"/>
<stop offset="1" stop-color="#C31162"/>
</linearGradient>
<linearGradient id="paint3_linear_27000_31663" x1="7.11848" y1="45.3943" x2="18.5113" y2="35.605" gradientUnits="userSpaceOnUse">
<stop stop-color="#32A071"/>
<stop offset="0.0685" stop-color="#2DA771"/>
<stop offset="0.4762" stop-color="#15CF74"/>
<stop offset="0.8009" stop-color="#06E775"/>
<stop offset="1" stop-color="#00F076"/>
</linearGradient>
</defs>
</svg>
