<svg width="54" height="41" viewBox="0 0 54 41" fill="none" xmlns="http://www.w3.org/2000/svg">
<g filter="url(#filter0_d_487_902)">
<path fill-rule="evenodd" clip-rule="evenodd" d="M22.2937 30.4464C25.1429 31.8082 27.9268 30.7771 30.6833 28.7114C26.544 30.3591 21.5514 26.163 15.3686 18.2543L14.9693 18.4062V18.8585C14.9693 19.4178 14.5125 19.8752 13.9527 19.8752L11.2772 19.8752L11.2675 19.8752C13.3481 21.9556 20.3939 29.5381 22.2937 30.4464ZM11.0781 18.8585V16.1809C11.0781 16.0713 11.1679 15.982 11.2774 15.982L13.953 15.982C14.063 15.982 14.1523 16.0716 14.1523 16.1809L14.1523 18.8585C14.1523 18.9681 14.063 19.0582 13.953 19.0582L11.2774 19.0582C11.1679 19.0582 11.0781 18.9681 11.0781 18.8585ZM14.2994 15.1396V12.4622C14.2994 12.3529 14.3887 12.2628 14.4979 12.2628L17.174 12.2628C17.2832 12.2628 17.3733 12.3529 17.3733 12.4622V15.1396C17.3733 15.2497 17.2832 15.3393 17.174 15.3393L14.4979 15.3393C14.3887 15.3393 14.2994 15.2497 14.2994 15.1396ZM8.46534 14.8693L8.46534 12.192C8.46534 12.0819 8.55545 11.9925 8.66467 11.9925L11.3408 11.9925C11.45 11.9925 11.5401 12.0819 11.5401 12.192V14.8693C11.5401 14.9792 11.4503 15.0688 11.3408 15.0688L8.66467 15.0688C8.55574 15.0688 8.46534 14.9792 8.46534 14.8693ZM12.3477 11.9335V10.3808C12.3477 10.3171 12.3993 10.2649 12.4629 10.2649L14.0146 10.2649C14.0781 10.2649 14.1298 10.3174 14.1298 10.3808V11.9335C14.1298 11.9974 14.0781 12.049 14.0146 12.049L12.4629 12.049C12.3993 12.049 12.3477 11.9974 12.3477 11.9335ZM9.85072 11.1361V10.0774C9.85072 10.0338 9.88636 9.99781 9.92971 9.99781L10.9877 9.99781C11.0313 9.99781 11.0667 10.0338 11.0667 10.0774V11.1361C11.0667 11.1795 11.0313 11.2152 10.9877 11.2152L9.92971 11.2152C9.88665 11.2152 9.85072 11.1795 9.85072 11.1361ZM7.86875 18.4227V17.2068C7.86875 17.1568 7.90982 17.1166 7.95944 17.1166L9.17485 17.1166C9.22476 17.1166 9.26554 17.1571 9.26554 17.2068V18.4227C9.26554 18.4732 9.22476 18.5137 9.17485 18.5137L7.95944 18.5137C7.90982 18.5135 7.86875 18.4732 7.86875 18.4227ZM6 12.9468V11.73C6 11.6803 6.04049 11.6401 6.08983 11.6401L7.30525 11.6401C7.35544 11.6401 7.39593 11.6806 7.39593 11.73V12.9468C7.39593 12.9965 7.35544 13.0367 7.30525 13.0367L6.08983 13.0367C6.04049 13.037 6 12.9965 6 12.9468ZM26.4741 27.343C31.0224 29.5135 34.5104 26.1913 32.868 19.8436C32.3624 29.1537 25.4965 23.3113 18.305 12.351C18.0834 12.0131 18.1907 12.1072 18.1907 12.4622V15.1396C18.1907 15.6989 17.7329 16.1569 17.174 16.1569L15.0383 16.1569C17.3351 19.2748 22.8655 25.6208 26.4741 27.343Z" fill="white"/>
<path fill-rule="evenodd" clip-rule="evenodd" d="M31.4008 3.61742C28.5519 2.25508 25.7678 3.28611 23.0116 5.35188C27.1506 3.70446 32.1434 7.90136 38.326 15.8089L38.7256 15.6571V15.2051C38.7256 14.6452 39.1824 14.188 39.7414 14.188L42.4174 14.188L42.4271 14.188C40.3468 12.108 33.301 4.52546 31.4008 3.61742ZM42.6168 15.2053V17.8827C42.6168 17.992 42.5267 18.0821 42.4174 18.0821L39.7414 18.0821C39.6321 18.0821 39.5429 17.9922 39.5429 17.8827V15.2053C39.5429 15.0955 39.6321 15.0059 39.7414 15.0059L42.4174 15.0059C42.5267 15.0059 42.6168 15.0955 42.6168 15.2053ZM39.3957 18.9237V21.601C39.3957 21.7111 39.3065 21.8005 39.1964 21.8005L36.5209 21.8005C36.4116 21.8005 36.3215 21.7111 36.3215 21.601V18.9237C36.3215 18.8138 36.4114 18.7242 36.5209 18.7242L39.1964 18.7242C39.3065 18.7242 39.3957 18.8138 39.3957 18.9237ZM45.2287 19.1942V21.8715C45.2287 21.9814 45.1391 22.071 45.0299 22.071L42.3538 22.071C42.2446 22.071 42.1542 21.9814 42.1542 21.8715V19.1942C42.1542 19.0849 42.2443 18.9947 42.3538 18.9947L45.0299 18.9947C45.1394 18.9947 45.2287 19.0849 45.2287 19.1942ZM41.3475 22.1306V23.6833C41.3475 23.747 41.2958 23.7986 41.2322 23.7986L39.6806 23.7986C39.617 23.7986 39.5648 23.747 39.5648 23.6833V22.1306C39.5648 22.067 39.617 22.0148 39.6806 22.0148L41.2322 22.0148C41.2958 22.0145 41.3475 22.067 41.3475 22.1306ZM43.8442 22.9277V23.9867C43.8442 24.0298 43.8082 24.0654 43.7652 24.0654L42.7069 24.0654C42.6633 24.0654 42.6282 24.0298 42.6282 23.9867V22.9277C42.6282 22.884 42.6633 22.8481 42.7069 22.8481L43.7652 22.8481C43.8082 22.8483 43.8442 22.884 43.8442 22.9277ZM45.8261 15.6408V16.857C45.8261 16.9067 45.7851 16.9478 45.7352 16.9478L44.52 16.9478C44.4701 16.9478 44.4291 16.907 44.4291 16.857V15.6408C44.4291 15.5912 44.4701 15.5501 44.52 15.5501L45.7352 15.5501C45.7851 15.5501 45.8261 15.5912 45.8261 15.6408ZM47.6949 21.1173V22.3335C47.6949 22.3832 47.6544 22.4234 47.6048 22.4234L46.3888 22.4234C46.3392 22.4234 46.2989 22.3829 46.2989 22.3335V21.1173C46.2989 21.0671 46.3394 21.0265 46.3888 21.0265L47.6048 21.0265C47.6547 21.0265 47.6949 21.0671 47.6949 21.1173ZM27.221 6.72022C22.6728 4.55 19.1848 7.87197 20.8271 14.2208C21.3322 4.90985 28.1986 10.7528 35.3893 21.7123C35.6109 22.0504 35.5045 21.9563 35.5045 21.601V18.9237C35.5045 18.3644 35.9622 17.9066 36.5209 17.9066L38.6565 17.9066C36.36 14.7884 30.8296 8.44327 27.221 6.72022Z" fill="white"/>
</g>
<defs>
<filter id="filter0_d_487_902" x="0" y="0" width="53.6948" height="40.0635" filterUnits="userSpaceOnUse" color-interpolation-filters="sRGB">
<feFlood flood-opacity="0" result="BackgroundImageFix"/>
<feColorMatrix in="SourceAlpha" type="matrix" values="0 0 0 0 0 0 0 0 0 0 0 0 0 0 0 0 0 0 127 0" result="hardAlpha"/>
<feOffset dy="3"/>
<feGaussianBlur stdDeviation="3"/>
<feComposite in2="hardAlpha" operator="out"/>
<feColorMatrix type="matrix" values="0 0 0 0 0 0 0 0 0 0 0 0 0 0 0 0 0 0 0.25 0"/>
<feBlend mode="normal" in2="BackgroundImageFix" result="effect1_dropShadow_487_902"/>
<feBlend mode="normal" in="SourceGraphic" in2="effect1_dropShadow_487_902" result="shape"/>
</filter>
</defs>
</svg>
