<svg width="52" height="39" viewBox="0 0 52 39" fill="none" xmlns="http://www.w3.org/2000/svg">
<g filter="url(#filter0_d_487_760)">
<path fill-rule="evenodd" clip-rule="evenodd" d="M21.6314 29.3308C24.3648 30.6373 27.0355 29.6481 29.6799 27.6663C25.7089 29.2471 20.9193 25.2216 14.9877 17.6344L14.6047 17.7801V18.214C14.6047 18.7506 14.1664 19.1894 13.6294 19.1894L11.0626 19.1894L11.0533 19.1894C13.0494 21.1852 19.8088 28.4594 21.6314 29.3308ZM10.8717 18.214V15.6452C10.8717 15.5401 10.9579 15.4544 11.0629 15.4544L13.6297 15.4544C13.7353 15.4544 13.8209 15.5404 13.8209 15.6452V18.214C13.8209 18.3191 13.7353 18.4056 13.6297 18.4056L11.0629 18.4056C10.9579 18.4056 10.8717 18.3191 10.8717 18.214ZM13.9621 14.6462V12.0778C13.9621 11.9729 14.0477 11.8864 14.1525 11.8864L16.7198 11.8864C16.8246 11.8864 16.911 11.9729 16.911 12.0778V14.6462C16.911 14.7519 16.8246 14.8379 16.7198 14.8379L14.1525 14.8379C14.0477 14.8379 13.9621 14.7519 13.9621 14.6462ZM8.36512 14.387V11.8185C8.36512 11.7128 8.45157 11.6271 8.55635 11.6271L11.1237 11.6271C11.2284 11.6271 11.3149 11.7128 11.3149 11.8185V14.387C11.3149 14.4924 11.2287 14.5784 11.1237 14.5784L8.55635 14.5784C8.45185 14.5784 8.36512 14.4924 8.36512 14.387ZM12.0897 11.5705V10.0809C12.0897 10.0199 12.1392 9.96976 12.2002 9.96976L13.6888 9.96976C13.7498 9.96976 13.7993 10.0201 13.7993 10.0809V11.5705C13.7993 11.6318 13.7498 11.6814 13.6888 11.6814L12.2002 11.6814C12.1392 11.6814 12.0897 11.6318 12.0897 11.5705ZM9.69418 10.8056V9.78989C9.69418 9.74801 9.72838 9.71351 9.76997 9.71351L10.785 9.71351C10.8268 9.71351 10.8607 9.74801 10.8607 9.78989V10.8056C10.8607 10.8472 10.8268 10.8814 10.785 10.8814L9.76997 10.8814C9.72866 10.8814 9.69418 10.8472 9.69418 10.8056ZM7.79279 17.7959V16.6294C7.79279 16.5815 7.83218 16.5429 7.87978 16.5429L9.04579 16.5429C9.09367 16.5429 9.13279 16.5818 9.13279 16.6294V17.7959C9.13279 17.8444 9.09367 17.8833 9.04579 17.8833L7.87978 17.8833C7.83218 17.883 7.79279 17.8444 7.79279 17.7959ZM6 12.5426V11.3753C6 11.3276 6.03885 11.289 6.08618 11.289L7.25219 11.289C7.30034 11.289 7.33919 11.3279 7.33919 11.3753V12.5426C7.33919 12.5903 7.30034 12.6289 7.25219 12.6289L6.08618 12.6289C6.03885 12.6291 6 12.5903 6 12.5426ZM25.6419 26.3536C30.0052 28.4359 33.3514 25.2487 31.7758 19.159C31.2908 28.0907 24.704 22.4858 17.8048 11.971C17.5922 11.6469 17.6951 11.7372 17.6951 12.0778V14.6462C17.6951 15.1828 17.256 15.6222 16.7198 15.6222L14.6709 15.6222C16.8744 18.6134 22.1799 24.7014 25.6419 26.3536Z" fill="#FA9145"/>
<path fill-rule="evenodd" clip-rule="evenodd" d="M30.3683 3.59244C27.6352 2.28547 24.9642 3.27459 22.3201 5.25639C26.2908 3.67593 31.0807 7.70223 37.012 15.2883L37.3953 15.1427V14.709C37.3953 14.1719 37.8335 13.7333 38.3698 13.7333L40.9371 13.7333L40.9464 13.7333C38.9506 11.7378 32.1912 4.46356 30.3683 3.59244ZM41.1283 14.7093V17.2778C41.1283 17.3826 41.0418 17.4691 40.9371 17.4691L38.3698 17.4691C38.265 17.4691 38.1794 17.3829 38.1794 17.2778V14.7093C38.1794 14.6039 38.265 14.5179 38.3698 14.5179L40.9371 14.5179C41.0418 14.5179 41.1283 14.6039 41.1283 14.7093ZM38.0382 18.2765V20.845C38.0382 20.9506 37.9526 21.0363 37.8469 21.0363L35.2802 21.0363C35.1754 21.0363 35.089 20.9506 35.089 20.845V18.2765C35.089 18.1711 35.1751 18.0851 35.2802 18.0851L37.8469 18.0851C37.9526 18.0851 38.0382 18.1711 38.0382 18.2765ZM43.634 18.536V21.1045C43.634 21.2099 43.5481 21.2959 43.4434 21.2959L40.8761 21.2959C40.7713 21.2959 40.6845 21.2099 40.6845 21.1045V18.536C40.6845 18.4312 40.771 18.3447 40.8761 18.3447L43.4434 18.3447C43.5484 18.3447 43.634 18.4312 43.634 18.536ZM39.9106 21.3531V22.8427C39.9106 22.9037 39.8611 22.9533 39.8001 22.9533L38.3115 22.9533C38.2505 22.9533 38.2004 22.9037 38.2004 22.8427V21.3531C38.2004 21.292 38.2505 21.2419 38.3115 21.2419L39.8001 21.2419C39.8611 21.2417 39.9106 21.292 39.9106 21.3531ZM42.3058 22.1177V23.1337C42.3058 23.175 42.2713 23.2092 42.23 23.2092L41.2148 23.2092C41.1729 23.2092 41.1392 23.175 41.1392 23.1337V22.1177C41.1392 22.0758 41.1729 22.0413 41.2148 22.0413L42.23 22.0413C42.2713 22.0416 42.3058 22.0758 42.3058 22.1177ZM44.2072 15.1271V16.2939C44.2072 16.3415 44.1678 16.3809 44.1199 16.3809L42.9542 16.3809C42.9063 16.3809 42.8669 16.3418 42.8669 16.2939V15.1271C42.8669 15.0794 42.9063 15.04 42.9542 15.04L44.1199 15.04C44.1678 15.04 44.2072 15.0794 44.2072 15.1271ZM46 20.3809V21.5477C46 21.5954 45.9611 21.634 45.9135 21.634L44.747 21.634C44.6994 21.634 44.6608 21.5951 44.6608 21.5477V20.3809C44.6608 20.3328 44.6996 20.2939 44.747 20.2939L45.9135 20.2939C45.9614 20.2939 46 20.3328 46 20.3809ZM26.3584 6.56911C21.995 4.48711 18.6489 7.67403 20.2244 13.7648C20.7089 4.83233 27.2962 10.4377 34.1946 20.9517C34.4072 21.2762 34.3052 21.1858 34.3052 20.845V18.2765C34.3052 17.7399 34.7443 17.3008 35.2802 17.3008L37.3291 17.3008C35.1259 14.3093 29.8203 8.22211 26.3584 6.56911Z" fill="#8532F9"/>
</g>
<defs>
<filter id="filter0_d_487_760" x="0" y="0" width="52" height="38.9229" filterUnits="userSpaceOnUse" color-interpolation-filters="sRGB">
<feFlood flood-opacity="0" result="BackgroundImageFix"/>
<feColorMatrix in="SourceAlpha" type="matrix" values="0 0 0 0 0 0 0 0 0 0 0 0 0 0 0 0 0 0 127 0" result="hardAlpha"/>
<feOffset dy="3"/>
<feGaussianBlur stdDeviation="3"/>
<feComposite in2="hardAlpha" operator="out"/>
<feColorMatrix type="matrix" values="0 0 0 0 0 0 0 0 0 0 0 0 0 0 0 0 0 0 0.25 0"/>
<feBlend mode="normal" in2="BackgroundImageFix" result="effect1_dropShadow_487_760"/>
<feBlend mode="normal" in="SourceGraphic" in2="effect1_dropShadow_487_760" result="shape"/>
</filter>
</defs>
</svg>
