<svg width="32" height="32" viewBox="0 0 32 32" fill="none" xmlns="http://www.w3.org/2000/svg">
<g clip-path="url(#clip0_1084_46)">
<path d="M16.1764 20.4086L17.5294 19.6993C17.5562 19.6853 20.2398 18.2757 23.1031 16.5192C27.0983 14.0684 29.4395 12.204 30.2603 10.8195L30.2604 10.8193C32.2832 7.40645 31.1282 2.9982 27.6856 0.992557C26.0178 0.0209901 24.0682 -0.248553 22.196 0.233639C20.3238 0.715769 18.753 1.8918 17.7732 3.54497C16.9524 4.9296 16.4487 7.86434 16.2331 12.517C16.0786 15.8515 16.1423 18.8616 16.143 18.8916L16.1764 20.4086Z" fill="white"/>
<path d="M30.597 18.4206C29.6947 17.5188 28.4922 17.0193 27.2113 17.0142C26.8226 17.0133 25.6478 17.0077 21.7819 19.009C19.9453 19.9598 18.3984 20.896 18.3335 20.9354L17.0278 21.7271L18.3268 22.5295C18.3914 22.5695 19.9305 23.5183 21.7591 24.4841C25.6082 26.517 26.7848 26.5219 27.1715 26.5235H27.1715H27.1916C29.8267 26.5235 31.9765 24.4035 31.9879 21.7885C31.9932 20.5185 31.4993 19.3224 30.597 18.4206Z" fill="white"/>
<path d="M13.137 21.3344L14.6064 20.9102L13.5656 19.7978C13.5139 19.7425 12.2802 18.4263 10.7716 17.0185C7.59627 14.0551 6.46208 13.744 6.08937 13.6418C3.54095 12.943 0.893357 14.4299 0.187898 16.9568C-0.153652 18.181 0.00616281 19.4637 0.637865 20.5687C1.26957 21.6737 2.29759 22.4687 3.53233 22.8071C3.69902 22.8528 4.01796 22.9403 4.70087 22.9403C5.54479 22.9403 6.94453 22.8067 9.29941 22.2955C11.3232 21.8562 13.0638 21.3555 13.137 21.3344Z" fill="white"/>
<path d="M10.8689 23.2466C7.97188 24.3439 7.1575 25.0121 6.79703 25.4193C5.35826 27.044 5.52095 29.5262 7.15994 30.9528C7.88788 31.5862 8.80386 31.9273 9.76363 31.9272C9.85075 31.9272 9.93837 31.9244 10.0261 31.9187C11.0804 31.8507 12.0449 31.3797 12.7417 30.5927C13.1023 30.1855 13.6653 29.2985 14.3875 26.3085C14.7662 24.7405 15.0044 23.3494 15.0144 23.291L15.2692 21.7949L13.8058 22.2393C13.7487 22.2566 12.3881 22.6711 10.8689 23.2466Z" fill="white"/>
<path d="M10.2835 14.3719C11.5647 15.4387 12.7461 16.2958 12.7958 16.3318L14.0318 17.2268L14.2851 15.7304C14.2954 15.6703 14.5364 14.2387 14.7011 12.5882C15.0146 9.44525 14.7703 8.39881 14.5593 7.88507L14.5592 7.88495C13.7181 5.8384 11.3542 4.85128 9.28927 5.68464C8.28904 6.08858 7.50739 6.85443 7.08821 7.84117C6.66903 8.82798 6.66254 9.91751 7.06998 10.9089C7.28119 11.4227 7.84394 12.3406 10.2835 14.3719Z" fill="white"/>
<path d="M17.5705 23.7632L16.332 22.8716L16.0828 24.3687C15.9131 25.388 15.3999 28.8118 15.9211 30.0705C16.4186 31.2719 17.5924 32 18.8282 32C19.2244 32 19.6271 31.9251 20.0157 31.767C20.7911 31.4514 21.396 30.8553 21.7192 30.0886C22.0424 29.3218 22.045 28.4762 21.7266 27.7077C21.2055 26.4491 18.4138 24.3704 17.5705 23.7632Z" fill="white"/>
</g>
<defs>
<clipPath id="clip0_1084_46">
<rect width="32" height="32" fill="white"/>
</clipPath>
</defs>
</svg>
