<svg width="32" height="32" viewBox="0 0 32 32" fill="none" xmlns="http://www.w3.org/2000/svg">
<path d="M3.20212 10.6981C3.2018 14.8393 6.55731 18.1948 10.6984 18.1961C14.8418 18.1948 18.196 14.8396 18.196 10.6981C18.196 6.55637 14.8402 3.19989 10.6984 3.20117L3.2002 3.20181L3.20212 10.6981Z" fill="white"/>
<path d="M28.797 21.3021C28.7979 17.1616 25.4418 13.8042 21.3023 13.8042C17.1586 13.8042 13.8037 17.1623 13.8037 21.3031C13.8037 25.4429 17.1605 28.8 21.3023 28.7991H28.8002L28.797 21.3021Z" fill="white"/>
<path d="M24.5336 11.7333C26.89 11.7333 28.8002 9.82311 28.8002 7.46675C28.8002 5.1104 26.89 3.2002 24.5336 3.2002C22.1773 3.2002 20.2671 5.1104 20.2671 7.46675C20.2671 9.82311 22.1773 11.7333 24.5336 11.7333Z" fill="white"/>
<path d="M10.6668 25.0666C10.6668 27.1281 8.99412 28.8001 6.93236 28.8001C4.87092 28.8001 3.2002 27.1281 3.2002 25.0666C3.2002 23.0055 4.87092 21.3335 6.93268 21.3335C8.99443 21.3335 10.6668 23.0055 10.6668 25.0666Z" fill="white"/>
</svg>
