<svg width="32" height="32" viewBox="0 0 32 32" fill="none" xmlns="http://www.w3.org/2000/svg">
<path d="M17.6205 25.6894C17.6492 22.7523 16.9046 20.3638 15.9574 20.3545C15.0101 20.3453 14.2189 22.7188 14.1903 25.6559C14.1615 28.593 14.9062 30.9816 15.8534 30.9908C16.8006 31.0001 17.5918 28.6266 17.6205 25.6894Z" fill="white"/>
<path d="M12.1262 25.0223C13.7384 22.567 14.4034 20.1551 13.6116 19.6352C12.8197 19.1152 10.8709 20.6841 9.2587 23.1394C7.64647 25.5947 6.98145 28.0066 7.77326 28.5266C8.56513 29.0465 10.5139 27.4776 12.1262 25.0223Z" fill="white"/>
<path d="M7.85877 21.4994C10.5425 20.3057 12.406 18.6363 12.021 17.7707C11.636 16.9052 9.14837 17.1713 6.46459 18.3651C3.78084 19.5588 1.91734 21.2282 2.30233 22.0938C2.68731 22.9593 5.17502 22.6932 7.85877 21.4994Z" fill="white"/>
<path d="M11.6993 15.3437C11.8434 14.4074 9.60677 13.2862 6.70373 12.8394C3.80061 12.3925 1.33038 12.7893 1.18628 13.7256C1.04218 14.6618 3.27877 15.783 6.18186 16.2298C9.08491 16.6767 11.5552 16.2799 11.6993 15.3437Z" fill="white"/>
<path d="M12.741 13.1134C13.3683 12.4037 12.0927 10.2514 9.8918 8.30628C7.6909 6.36114 5.39818 5.35969 4.77086 6.06949C4.14355 6.7793 5.4192 8.93156 7.62012 10.8767C9.82101 12.8219 12.1138 13.8233 12.741 13.1134Z" fill="white"/>
<path d="M14.8176 11.8098C15.7291 11.5518 15.8196 9.05154 15.0199 6.22527C14.2201 3.39897 12.8329 1.31689 11.9214 1.57482C11.0099 1.83275 10.9193 4.333 11.7191 7.15932C12.5188 9.98556 13.9061 12.0677 14.8176 11.8098Z" fill="white"/>
<path d="M20.4538 7.24747C21.3092 4.43748 21.268 1.93593 20.3617 1.66008C19.4555 1.38423 18.0274 3.43854 17.1721 6.24852C16.3168 9.05848 16.358 11.56 17.2642 11.8359C18.1705 12.1117 19.5985 10.0575 20.4538 7.24747Z" fill="white"/>
<path d="M24.4801 11.0441C26.7186 9.1423 28.0361 7.01539 27.4228 6.29348C26.8094 5.57156 24.4976 6.52803 22.2591 8.42972C20.0206 10.3315 18.7031 12.4584 19.3165 13.1803C19.9298 13.9022 22.2416 12.9458 24.4801 11.0441Z" fill="white"/>
<path d="M25.8127 16.417C28.7241 16.0275 30.9823 14.9507 30.8567 14.0117C30.7311 13.0728 28.2692 12.6275 25.3578 13.0169C22.4465 13.4064 20.1882 14.4833 20.3138 15.4222C20.4395 16.3611 22.9014 16.8065 25.8127 16.417Z" fill="white"/>
<path d="M29.5678 22.362C29.9698 21.5043 28.1396 19.7985 25.4798 18.552C22.8202 17.3056 20.3382 16.9905 19.9362 17.8482C19.5342 18.706 21.3644 20.4118 24.0242 21.6583C26.6838 22.9047 29.1658 23.2198 29.5678 22.362Z" fill="white"/>
<path d="M23.9741 28.691C24.776 28.1868 24.1587 25.7622 22.5952 23.2756C21.0318 20.7891 19.1142 19.1821 18.3123 19.6863C17.5103 20.1905 18.1277 22.615 19.6911 25.1016C21.2546 27.5882 23.1722 29.1953 23.9741 28.691Z" fill="white"/>
</svg>
