<svg width="32" height="32" viewBox="0 0 32 32" fill="none" xmlns="http://www.w3.org/2000/svg">
<path d="M11.2002 21.0666C11.2002 18.3188 12.3314 15.8314 14.1503 14.0407C13.1701 13.5908 12.0837 13.3335 10.9336 13.3335C6.6626 13.3335 3.2002 16.7959 3.2002 21.0666C3.2002 25.3377 6.6626 28.8001 10.9336 28.8001C12.0837 28.8001 13.1698 28.5428 14.1503 28.0929C12.3314 26.3021 11.2002 23.8148 11.2002 21.0666Z" fill="white"/>
<path d="M21.0666 20.8002C18.3188 20.8002 15.8314 19.669 14.0407 17.8491C13.5908 18.8302 13.3335 19.9166 13.3335 21.0667C13.3335 25.3378 16.7959 28.8002 21.0666 28.8002C25.3377 28.8002 28.8001 25.3378 28.8001 21.0667C28.8001 19.9166 28.5428 18.8306 28.0929 17.8491C26.3021 19.669 23.8148 20.8002 21.0666 20.8002Z" fill="white"/>
<path d="M21.0667 3.2002C19.9166 3.2002 18.8306 3.45748 17.8491 3.9074C19.669 5.69812 20.8002 8.18547 20.8002 10.9336C20.8002 13.6815 19.669 16.1688 17.8491 17.9596C18.8302 18.4095 19.9166 18.6668 21.0667 18.6668C25.3378 18.6668 28.8002 15.2044 28.8002 10.9336C28.8002 6.6626 25.3378 3.2002 21.0667 3.2002Z" fill="white"/>
<path d="M10.9336 11.2002C13.6815 11.2002 16.1688 12.3314 17.9596 14.1503C18.4095 13.1701 18.6668 12.0837 18.6668 10.9336C18.6668 6.6626 15.2044 3.2002 10.9336 3.2002C6.6626 3.2002 3.2002 6.6626 3.2002 10.9336C3.2002 12.0837 3.45748 13.1698 3.9074 14.1503C5.69812 12.3314 8.18547 11.2002 10.9336 11.2002Z" fill="white"/>
</svg>
