<svg width="32" height="32" viewBox="0 0 32 32" fill="none" xmlns="http://www.w3.org/2000/svg">
<path d="M5 11.738H12C13.654 11.738 15 10.392 15 8.738V5C15 3.346 13.654 2 12 2H5C3.346 2 2 3.346 2 5V8.738C2 10.392 3.346 11.738 5 11.738ZM4 5C4 4.449 4.448 4 5 4H12C12.552 4 13 4.449 13 5V8.738C13 9.289 12.552 9.738 12 9.738H5C4.448 9.738 4 9.289 4 8.738V5Z" fill="white"/>
<path d="M15 27.0001V16.3701C15 14.7161 13.654 13.3701 12 13.3701H5C3.346 13.3701 2 14.7161 2 16.3701V27.0001C2 28.6541 3.346 30.0001 5 30.0001H12C13.654 30.0001 15 28.6541 15 27.0001ZM4 27.0001V16.3701C4 15.8191 4.448 15.3701 5 15.3701H12C12.552 15.3701 13 15.8191 13 16.3701V27.0001C13 27.5511 12.552 28.0001 12 28.0001H5C4.448 28.0001 4 27.5511 4 27.0001Z" fill="white"/>
<path d="M27 20.2622H20C18.346 20.2622 17 21.6082 17 23.2622V27.0002C17 28.6542 18.346 30.0002 20 30.0002H27C28.654 30.0002 30 28.6542 30 27.0002V23.2622C30 21.6082 28.654 20.2622 27 20.2622ZM28 27.0002C28 27.5512 27.552 28.0002 27 28.0002H20C19.448 28.0002 19 27.5512 19 27.0002V23.2622C19 22.7112 19.448 22.2622 20 22.2622H27C27.552 22.2622 28 22.7112 28 23.2622V27.0002Z" fill="white"/>
<path d="M27 2H20C18.346 2 17 3.346 17 5V15.63C17 17.284 18.346 18.63 20 18.63H27C28.654 18.63 30 17.284 30 15.63V5C30 3.346 28.654 2 27 2ZM28 15.63C28 16.181 27.552 16.63 27 16.63H20C19.448 16.63 19 16.181 19 15.63V5C19 4.449 19.448 4 20 4H27C27.552 4 28 4.449 28 5V15.63Z" fill="white"/>
</svg>
