<svg width="36" height="36" viewBox="0 0 36 36" fill="none" xmlns="http://www.w3.org/2000/svg">
<path d="M18 32.25C17.1 32.25 16.5 31.65 16.5 30.75V17.25C16.5 16.35 17.1 15.75 18 15.75C18.9 15.75 19.5 16.35 19.5 17.25V30.75C19.5 31.65 18.75 32.25 18 32.25Z" fill="white"/>
<path d="M30.2998 27.3001C29.8498 27.3001 29.3997 27.1501 29.0997 26.7001C28.6497 25.9501 28.7997 25.0501 29.3997 24.6001C31.3498 23.2501 32.0998 20.8501 31.4998 18.6001C30.8997 16.5001 28.7997 15.1501 26.2498 15.1501H24.4497C23.6997 15.1501 23.0997 14.7001 22.9497 13.9501C21.8997 10.2001 18.7497 7.35012 14.8497 6.90012C10.9497 6.30012 7.04975 8.40012 5.24975 11.8501C3.44975 15.3001 3.89975 19.6501 6.59975 22.6501C7.19975 23.2501 7.04975 24.1501 6.44975 24.7501C5.84975 25.3501 4.94975 25.2001 4.34975 24.6001C0.899747 20.7001 0.299747 15.1501 2.69975 10.5001C5.09975 5.85012 10.1997 3.30012 15.2997 3.90012C19.9497 4.35012 23.9998 7.65012 25.6497 12.0001H26.2498C30.1497 12.0001 33.2997 14.1001 34.3498 17.5501C35.3997 21.0001 34.1997 24.9001 31.1997 27.0001C30.8997 27.1501 30.5998 27.3001 30.2998 27.3001Z" fill="white"/>
<path d="M13.1992 22.1999C12.7492 22.1999 12.4492 22.0499 12.1492 21.7499C11.5492 21.1499 11.5492 20.2499 12.1492 19.6499L16.9492 14.8499C17.5492 14.2499 18.4492 14.2499 19.0492 14.8499L23.8492 19.6499C24.4492 20.2499 24.4492 21.1499 23.8492 21.7499C23.2492 22.3499 22.3492 22.3499 21.7492 21.7499L17.9992 17.9999L14.2492 21.7499C13.9492 22.0499 13.4992 22.1999 13.1992 22.1999Z" fill="white"/>
</svg>
