<svg width="48" height="48" viewBox="0 0 48 48" fill="none" xmlns="http://www.w3.org/2000/svg">
<g clip-path="url(#clip0_27878_483)">
<path d="M46.7404 37.0297L37.0251 30.5506C35.7922 29.735 34.1395 30.0034 33.228 31.1673L30.398 34.806C30.2221 35.0379 29.9684 35.1987 29.6835 35.2586C29.3986 35.3186 29.1016 35.2738 28.8471 35.1324L28.3087 34.8356C26.5242 33.8629 24.3038 32.6519 19.83 28.1766C15.3563 23.7013 14.1429 21.4791 13.1702 19.6979L12.875 19.1596C12.7317 18.9051 12.6852 18.6075 12.744 18.3215C12.8027 18.0354 12.9629 17.7803 13.1949 17.603L16.8311 14.7738C17.9946 13.8622 18.2633 12.2101 17.4487 10.9768L10.9696 1.2614C10.1347 0.00552065 8.45965 -0.371486 7.16712 0.405492L3.10451 2.84591C1.828 3.59633 0.891519 4.81174 0.491335 6.23738C-0.971605 11.5678 0.12895 20.7672 13.6806 34.3204C24.4606 45.0996 32.4858 47.9984 38.0018 47.9984C39.2713 48.0038 40.5358 47.8387 41.7613 47.5073C43.1872 47.1076 44.4027 46.171 45.1527 44.8941L47.5956 40.834C48.3737 39.5412 47.9969 37.8651 46.7404 37.0297ZM46.2173 40.0132L43.7801 44.0758C43.2415 44.9975 42.3673 45.6751 41.3404 45.9668C36.4195 47.3178 27.8224 46.1988 14.8123 33.1887C1.80223 20.1786 0.683306 11.5822 2.03432 6.6606C2.32645 5.63246 3.00486 4.75712 3.92761 4.21774L7.99022 1.78051C8.55104 1.44306 9.27806 1.60663 9.64035 2.15161L13.1599 7.43561L16.1139 11.8661C16.4676 12.4011 16.3514 13.1181 15.8467 13.5139L12.2097 16.3431C11.1028 17.1894 10.7867 18.7208 11.4682 19.9362L11.757 20.4609C12.7793 22.3358 14.0503 24.6682 18.6904 29.3076C23.3305 33.9469 25.6622 35.218 27.5363 36.2401L28.0617 36.5297C29.277 37.2111 30.8085 36.8951 31.6548 35.7882L34.484 32.1512C34.8799 31.6468 35.5966 31.5307 36.1318 31.884L45.8463 38.3631C46.3917 38.7251 46.5552 39.4525 46.2173 40.0132ZM27.1985 8.0044C34.705 8.01274 40.7881 14.0959 40.7965 21.6024C40.7965 22.0442 41.1546 22.4023 41.5964 22.4023C42.0382 22.4023 42.3962 22.0442 42.3962 21.6024C42.387 13.2127 35.5882 6.41388 27.1985 6.4047C26.7568 6.4047 26.3987 6.76277 26.3987 7.20455C26.3987 7.64632 26.7568 8.0044 27.1985 8.0044Z" fill="white"/>
<path d="M27.1983 12.8038C32.0553 12.8095 35.9913 16.7455 35.997 21.6025C35.997 21.8147 36.0813 22.0181 36.2313 22.1681C36.3813 22.3181 36.5847 22.4024 36.7969 22.4024C37.009 22.4024 37.2124 22.3181 37.3624 22.1681C37.5124 22.0181 37.5967 21.8147 37.5967 21.6025C37.5901 15.8623 32.9384 11.2107 27.1983 11.2041C26.7565 11.2041 26.3984 11.5622 26.3984 12.004C26.3984 12.4457 26.7565 12.8038 27.1983 12.8038Z" fill="white"/>
<path d="M27.1983 17.6026C29.406 17.6053 31.195 19.3943 31.1977 21.6021C31.1977 21.8142 31.282 22.0176 31.432 22.1676C31.582 22.3176 31.7854 22.4019 31.9976 22.4019C32.2097 22.4019 32.4132 22.3176 32.5632 22.1676C32.7132 22.0176 32.7974 21.8142 32.7974 21.6021C32.7939 18.5112 30.2891 16.0064 27.1983 16.0029C26.7565 16.0029 26.3984 16.361 26.3984 16.8028C26.3984 17.2446 26.7565 17.6026 27.1983 17.6026Z" fill="white"/>
</g>
<defs>
<clipPath id="clip0_27878_483">
<rect width="48" height="48" fill="white"/>
</clipPath>
</defs>
</svg>
