<svg width="24" height="24" viewBox="0 0 24 24" fill="none" xmlns="http://www.w3.org/2000/svg">
<path fill-rule="evenodd" clip-rule="evenodd" d="M10.4079 22.4038C4.66907 22.4038 0.00390625 17.7386 0.00390625 11.9998C0.00390625 6.26092 4.66907 1.5957 10.4079 1.5957C13.2969 1.5957 15.9906 2.74739 17.9817 4.8555C18.0824 4.969 18.0712 5.09611 18.0068 5.18852L18.6175 5.98665C18.7339 5.92735 18.8852 5.93959 18.9773 6.0852C20.1875 7.82248 20.8122 9.87206 20.8122 11.9997C20.812 17.7386 16.1468 22.4038 10.4079 22.4038ZM10.4079 20.2567C5.85979 20.2567 2.15105 16.5479 2.15105 11.9998C2.15105 7.45165 5.85979 3.74284 10.4079 3.74284C12.5746 3.74284 14.6242 4.58217 16.1663 6.08525C16.2903 6.20761 16.2709 6.3536 16.1903 6.45182L16.9633 7.41123C17.0813 7.34225 17.2443 7.34889 17.3374 7.49068C20.8466 12.8308 17.0383 20.2567 10.4079 20.2567Z" fill="#002101" fill-opacity="0.2"/>
<path fill-rule="evenodd" clip-rule="evenodd" d="M10.6801 17.3483C10.563 17.3483 10.4654 17.2702 10.4264 17.1726C10.4069 17.1336 8.72816 12.8002 6.13201 11.1605C5.62449 10.8482 5.23417 10.5163 5.3903 9.77454C5.54642 9.05232 6.03446 8.6424 6.91281 8.44718C8.47437 8.11533 10.1531 10.5358 10.7777 11.5314C12.9639 8.34963 17.3364 3.3525 23.6998 2.76691C24.0068 2.73093 24.1203 3.18597 23.8365 3.31347C23.7389 3.3525 14.6426 7.51031 10.9534 17.1922C10.8948 17.2897 10.7972 17.3483 10.6801 17.3483Z" fill="#002101"/>
</svg>
