<svg width="48" height="48" viewBox="0 0 48 48" fill="none" xmlns="http://www.w3.org/2000/svg">
<path d="M24 24.75C25.8534 24.754 27.6623 24.182 29.1765 23.1132C29.3391 22.9987 29.4496 22.8242 29.4836 22.6281C29.5176 22.4321 29.4723 22.2306 29.3577 22.068C29.2431 21.9054 29.0687 21.7949 28.8726 21.7609C28.6766 21.7269 28.4751 21.7722 28.3125 21.8868C26.9383 22.8527 25.2796 23.3293 23.6022 23.2404C21.9249 23.1514 20.3259 22.502 19.0616 21.3962C17.7972 20.2904 16.9406 18.7922 16.629 17.1416C16.3175 15.491 16.569 13.7837 17.3432 12.293C18.1175 10.8024 19.3696 9.6148 20.8992 8.9205C22.4287 8.22621 24.147 8.06541 25.7787 8.46388C27.4105 8.86234 28.8613 9.797 29.8987 11.1181C30.936 12.4392 31.4999 14.0703 31.5 15.75V17.25C31.5 17.6478 31.342 18.0294 31.0607 18.3107C30.7794 18.592 30.3978 18.75 30 18.75C29.6022 18.75 29.2206 18.592 28.9393 18.3107C28.658 18.0294 28.5 17.6478 28.5 17.25V12C28.5 11.8011 28.421 11.6103 28.2803 11.4697C28.1397 11.329 27.9489 11.25 27.75 11.25C27.5511 11.25 27.3603 11.329 27.2197 11.4697C27.079 11.6103 27 11.8011 27 12V12.3995C26.3356 11.8038 25.5091 11.419 24.6256 11.2941C23.742 11.1693 22.8413 11.3099 22.0378 11.6982C21.2344 12.0864 20.5645 12.7048 20.1134 13.4747C19.6622 14.2446 19.4501 15.1312 19.5041 16.0219C19.558 16.9126 19.8756 17.7672 20.4164 18.477C20.9571 19.1868 21.6967 19.7198 22.5412 20.0082C23.3856 20.2967 24.2967 20.3276 25.1588 20.097C26.0208 19.8664 26.7948 19.3847 27.3824 18.7132C27.7062 19.2928 28.2131 19.7487 28.8238 20.0092C29.4344 20.2698 30.1143 20.3204 30.7568 20.1531C31.3993 19.9857 31.9681 19.6099 32.3741 19.0845C32.78 18.5592 33.0002 17.9139 33 17.25V15.75C33 13.97 32.4722 12.2299 31.4832 10.7499C30.4943 9.26983 29.0887 8.11628 27.4442 7.43509C25.7996 6.7539 23.99 6.57567 22.2442 6.92294C20.4984 7.2702 18.8947 8.12737 17.636 9.38604C16.3774 10.6447 15.5202 12.2484 15.1729 13.9942C14.8257 15.74 15.0039 17.5496 15.6851 19.1942C16.3663 20.8387 17.5198 22.2443 18.9999 23.2332C20.4799 24.2222 22.22 24.75 24 24.75ZM24 18.75C23.4067 18.75 22.8266 18.5741 22.3333 18.2444C21.8399 17.9148 21.4554 17.4462 21.2284 16.8981C21.0013 16.3499 20.9419 15.7467 21.0576 15.1647C21.1734 14.5828 21.4591 14.0482 21.8787 13.6287C22.2982 13.2091 22.8328 12.9234 23.4147 12.8076C23.9967 12.6919 24.5999 12.7513 25.1481 12.9784C25.6962 13.2054 26.1648 13.5899 26.4944 14.0833C26.8241 14.5766 27 15.1567 27 15.75C26.9991 16.5454 26.6828 17.3079 26.1203 17.8703C25.5579 18.4328 24.7954 18.7491 24 18.75Z" fill="#000704"/>
<path d="M5.25 47.25H42.75C43.7442 47.2489 44.6974 46.8534 45.4004 46.1504C46.1034 45.4474 46.4989 44.4942 46.5 43.5V19.5C46.4986 18.8462 46.327 18.2041 46.002 17.6368C45.677 17.0695 45.2098 16.5967 44.6465 16.2649L40.5 13.8342V4.5C40.4989 3.50578 40.1034 2.5526 39.4004 1.84958C38.6974 1.14656 37.7442 0.751117 36.75 0.75H11.25C10.2558 0.751117 9.3026 1.14656 8.59958 1.84958C7.89656 2.5526 7.50112 3.50578 7.5 4.5V13.8342L3.35353 16.2649C2.79022 16.5967 2.32306 17.0695 1.99805 17.6368C1.67304 18.2041 1.50139 18.8462 1.5 19.5V43.5C1.50112 44.4942 1.89656 45.4474 2.59958 46.1504C3.3026 46.8534 4.25578 47.2489 5.25 47.25ZM45 43.5C44.9993 44.0965 44.762 44.6684 44.3402 45.0902C43.9184 45.512 43.3465 45.7493 42.75 45.75H5.25C4.65348 45.7493 4.08158 45.512 3.65978 45.0902C3.23797 44.6684 3.00069 44.0965 3 43.5V20.809L22.1035 32.0077C22.6788 32.3445 23.3334 32.522 24 32.522C24.6666 32.522 25.3212 32.3445 25.8965 32.0077L45 20.809V43.5ZM43.8878 17.5594C44.1661 17.7234 44.4059 17.9452 44.5911 18.2098C44.7764 18.4744 44.9027 18.7757 44.9617 19.0932L40.5 21.7082V15.5729L43.8878 17.5594ZM11.25 2.25H36.75C37.3465 2.25069 37.9184 2.48797 38.3402 2.90978C38.762 3.33158 38.9993 3.90348 39 4.5V22.5875L25.1378 30.7136C24.7927 30.9157 24.3999 31.0222 24 31.0222C23.6001 31.0222 23.2073 30.9157 22.8622 30.7136L9 22.5875V4.5C9.00069 3.90348 9.23797 3.33158 9.65978 2.90978C10.0816 2.48797 10.6535 2.25069 11.25 2.25ZM4.11216 17.5594L7.5 15.5729V21.7082L3.03834 19.0926C3.09738 18.7751 3.22378 18.474 3.40901 18.2095C3.59424 17.9451 3.83401 17.7234 4.11216 17.5594Z" fill="#000704"/>
</svg>
