<svg width="95" height="52" viewBox="0 0 95 52" fill="none" xmlns="http://www.w3.org/2000/svg">
<g clip-path="url(#clip0_28322_2229)">
<path d="M50.5 26C50.5 12.1929 39.3071 1 25.5 1C11.6929 1 0.5 12.1929 0.5 26C0.5 39.8071 11.6929 51 25.5 51C39.3071 51 50.5 39.8071 50.5 26Z" fill="url(#paint0_linear_28322_2229)"/>
<path d="M50.5 26C50.5 12.1929 39.3071 1 25.5 1C11.6929 1 0.5 12.1929 0.5 26C0.5 39.8071 11.6929 51 25.5 51C39.3071 51 50.5 39.8071 50.5 26Z" stroke="white" stroke-width="2"/>
<path d="M36.2322 25.6825L22.2322 40.6825C22.0838 40.8408 21.888 40.9466 21.6742 40.9839C21.4604 41.0211 21.2404 40.9879 21.0472 40.8891C20.854 40.7903 20.6982 40.6314 20.6032 40.4363C20.5083 40.2412 20.4794 40.0205 20.5209 39.8075L22.3534 30.6412L15.1497 27.9362C14.9949 27.8784 14.857 27.7831 14.7481 27.6589C14.6392 27.5347 14.5628 27.3854 14.5256 27.2245C14.4885 27.0635 14.4918 26.8959 14.5352 26.7365C14.5787 26.5772 14.6609 26.431 14.7747 26.3112L28.7747 11.3112C28.923 11.1529 29.1188 11.0471 29.3326 11.0099C29.5464 10.9726 29.7664 11.0059 29.9596 11.1046C30.1528 11.2034 30.3086 11.3624 30.4036 11.5575C30.4985 11.7526 30.5274 11.9733 30.4859 12.1862L28.6484 21.3625L35.8521 24.0637C36.0057 24.122 36.1426 24.2172 36.2506 24.3409C36.3587 24.4646 36.4346 24.613 36.4717 24.773C36.5087 24.933 36.5058 25.0997 36.4632 25.2583C36.4205 25.417 36.3395 25.5626 36.2271 25.6825H36.2322Z" fill="white"/>
<g filter="url(#filter0_d_28322_2229)">
<path d="M92.5 26C92.5 12.1929 81.3071 1 67.5 1C53.6929 1 42.5 12.1929 42.5 26C42.5 39.8071 53.6929 51 67.5 51C81.3071 51 92.5 39.8071 92.5 26Z" fill="url(#paint1_linear_28322_2229)"/>
</g>
<path d="M92.5 26C92.5 12.1929 81.3071 1 67.5 1C53.6929 1 42.5 12.1929 42.5 26C42.5 39.8071 53.6929 51 67.5 51C81.3071 51 92.5 39.8071 92.5 26Z" stroke="white" stroke-width="2"/>
<path d="M64.232 33.8925C63.6682 35.125 61.787 38 56.5007 38C56.2355 38 55.9812 37.8946 55.7936 37.7071C55.6061 37.5195 55.5007 37.2652 55.5007 37C55.5007 31.7137 58.3757 29.8325 59.6082 29.2687C59.7277 29.2142 59.8568 29.1838 59.9881 29.1792C60.1193 29.1745 60.2502 29.1958 60.3732 29.2418C60.4963 29.2878 60.6091 29.3575 60.7051 29.4471C60.8012 29.5366 60.8787 29.6442 60.9332 29.7637C60.9877 29.8832 61.0181 30.0123 61.0228 30.1435C61.0274 30.2748 61.0061 30.4057 60.9601 30.5287C60.9142 30.6518 60.8444 30.7645 60.7549 30.8606C60.6653 30.9567 60.5577 31.0342 60.4382 31.0887C59.6345 31.455 57.8607 32.6337 57.5482 35.9525C60.867 35.64 62.0482 33.8662 62.412 33.0625C62.4665 32.9429 62.544 32.8354 62.6401 32.7458C62.7361 32.6562 62.8489 32.5865 62.972 32.5405C63.095 32.4946 63.2259 32.4733 63.3571 32.4779C63.4884 32.4825 63.6175 32.513 63.737 32.5675C63.8565 32.622 63.9641 32.6995 64.0536 32.7955C64.1432 32.8916 64.2129 33.0044 64.2589 33.1274C64.3049 33.2505 64.3261 33.3814 64.3215 33.5126C64.3169 33.6439 64.2865 33.7729 64.232 33.8925ZM79.482 15.8925C79.4523 15.4049 79.2453 14.945 78.8999 14.5996C78.5545 14.2541 78.0946 14.0471 77.607 14.0175C76.0345 13.9237 72.0157 14.0675 68.682 17.4012L62.5007 23.5875C62.4079 23.6804 62.2977 23.7542 62.1763 23.8046C62.055 23.855 61.9249 23.881 61.7935 23.8811C61.5281 23.8814 61.2735 23.7762 61.0857 23.5887C60.8979 23.4012 60.7923 23.1468 60.792 22.8815C60.7918 22.6161 60.897 22.3615 61.0845 22.1737L64.4045 18.8525C64.474 18.7825 64.5213 18.6936 64.5404 18.5969C64.5595 18.5002 64.5496 18.4 64.5119 18.3089C64.4743 18.2178 64.4105 18.1399 64.3287 18.0849C64.2468 18.0299 64.1506 18.0004 64.052 18H60.7945C60.531 17.9986 60.2699 18.0496 60.0264 18.15C59.7828 18.2504 59.5616 18.3983 59.3757 18.585L55.0882 22.875C54.8253 23.1377 54.6408 23.4686 54.5554 23.8303C54.47 24.1921 54.4872 24.5706 54.6049 24.9232C54.7227 25.2757 54.9364 25.5885 55.222 25.8264C55.5076 26.0643 55.8539 26.2179 56.222 26.27L61.0307 26.9412L66.557 32.4675L67.2282 37.2787C67.2798 37.6468 67.4334 37.9931 67.6715 38.2785C67.9096 38.5639 68.2228 38.777 68.5757 38.8937C68.7813 38.9624 68.9965 38.9974 69.2132 38.9975C69.4756 38.9979 69.7355 38.9465 69.9779 38.8461C70.2204 38.7457 70.4405 38.5983 70.6257 38.4125L74.9157 34.125C75.1018 33.9386 75.2493 33.7174 75.3497 33.4739C75.4501 33.2305 75.5014 32.9696 75.5007 32.7062V29.4487C75.5006 29.3499 75.4711 29.2533 75.4161 29.1712C75.361 29.0891 75.2829 29.0251 75.1915 28.9874C75.1002 28.9497 74.9997 28.9399 74.9028 28.9592C74.8058 28.9786 74.7168 29.0263 74.647 29.0962L71.3257 32.4162C71.2286 32.5134 71.1124 32.5896 70.9846 32.64C70.8567 32.6903 70.7198 32.7137 70.5824 32.7088C70.4451 32.7039 70.3102 32.6707 70.1862 32.6113C70.0623 32.5519 69.9519 32.4676 69.862 32.3637C69.6979 32.1653 69.6146 31.9124 69.6285 31.6553C69.6424 31.3982 69.7525 31.1558 69.937 30.9762L76.0957 24.8175C79.432 21.4825 79.5757 17.4637 79.482 15.89V15.8925Z" fill="white"/>
</g>
<defs>
<filter id="filter0_d_28322_2229" x="38.5" y="1" width="58" height="58" filterUnits="userSpaceOnUse" color-interpolation-filters="sRGB">
<feFlood flood-opacity="0" result="BackgroundImageFix"/>
<feColorMatrix in="SourceAlpha" type="matrix" values="0 0 0 0 0 0 0 0 0 0 0 0 0 0 0 0 0 0 127 0" result="hardAlpha"/>
<feOffset dy="4"/>
<feGaussianBlur stdDeviation="2"/>
<feComposite in2="hardAlpha" operator="out"/>
<feColorMatrix type="matrix" values="0 0 0 0 0 0 0 0 0 0 0 0 0 0 0 0 0 0 0.25 0"/>
<feBlend mode="normal" in2="BackgroundImageFix" result="effect1_dropShadow_28322_2229"/>
<feBlend mode="normal" in="SourceGraphic" in2="effect1_dropShadow_28322_2229" result="shape"/>
</filter>
<linearGradient id="paint0_linear_28322_2229" x1="25.5" y1="1" x2="25.5" y2="51" gradientUnits="userSpaceOnUse">
<stop stop-color="#FF0000"/>
<stop offset="1" stop-color="#FF7474"/>
</linearGradient>
<linearGradient id="paint1_linear_28322_2229" x1="67.5" y1="1" x2="67.5" y2="51" gradientUnits="userSpaceOnUse">
<stop stop-color="#3FA90C"/>
<stop offset="1" stop-color="#59D51D"/>
</linearGradient>
<clipPath id="clip0_28322_2229">
<rect width="95" height="52" fill="white"/>
</clipPath>
</defs>
</svg>
