<svg width="9" height="9" viewBox="0 0 9 9" fill="none" xmlns="http://www.w3.org/2000/svg">
<path d="M4.73357 8.65781L8.62419 4.76719C8.93357 4.45781 8.7156 3.92578 8.27497 3.92578H7.12888C6.99763 3.92578 6.87341 3.97734 6.77966 4.07109L4.38435 6.46641L1.98904 4.07109C1.89763 3.97969 1.77107 3.92578 1.63982 3.92578H0.493722C0.0554411 3.92578 -0.164871 4.45547 0.144504 4.76719L4.03513 8.65781C4.22966 8.85 4.53904 8.85 4.73357 8.65781ZM4.73357 4.73203L8.62419 0.841406C8.93357 0.532031 8.7156 0 8.27497 0H7.12888C6.99763 0 6.87341 0.0515626 6.77966 0.145313L4.38435 2.54062L1.98904 0.145313C1.89763 0.0515626 1.77107 0 1.63982 0H0.493722C0.0554411 0 -0.164871 0.529687 0.144504 0.841406L4.03513 4.73203C4.22966 4.92422 4.53904 4.92422 4.73357 4.73203Z" fill="url(#paint0_linear_759_8778)"/>
<defs>
<linearGradient id="paint0_linear_759_8778" x1="4.41217" y1="0" x2="4.41217" y2="8.80195" gradientUnits="userSpaceOnUse">
<stop stop-color="#BF2938"/>
<stop offset="1" stop-color="#3C0003"/>
</linearGradient>
</defs>
</svg>
