<svg width="11" height="8" viewBox="0 0 11 8" fill="none" xmlns="http://www.w3.org/2000/svg">
<path d="M0.500884 0C0.290884 0 0.104884 0.13 0.0328844 0.326C-0.0391156 0.522 0.0168843 0.742 0.176884 0.88L4.84288 4.88C5.03088 5.04 5.30688 5.04 5.49288 4.88L10.1589 0.88C10.3169 0.744 10.3749 0.524 10.3029 0.326C10.2309 0.13 10.0429 0 9.83288 0H0.500884Z" fill="#4F1B97"/>
<path fill-rule="evenodd" clip-rule="evenodd" d="M0.120348 2.842C0.300348 2.632 0.616348 2.608 0.826348 2.788L5.16635 6.508L9.50835 2.786C9.71835 2.606 10.0343 2.63 10.2143 2.84C10.3943 3.05 10.3703 3.366 10.1603 3.546L5.49435 7.546C5.30635 7.706 5.03035 7.706 4.84435 7.546L0.178348 3.546C-0.0356519 3.368 -0.0596521 3.052 0.120348 2.842Z" fill="#FA9145"/>
</svg>
