<svg width="18" height="18" viewBox="0 0 18 18" fill="none" xmlns="http://www.w3.org/2000/svg">
<g clip-path="url(#clip0_27000_829)">
<path d="M6.981 12.604L6.231 15.231L5.481 12.604C5.28721 11.9249 4.92342 11.3064 4.42403 10.807C3.92463 10.3076 3.30614 9.9438 2.627 9.75L0 9L2.627 8.25C3.30579 8.05606 3.92396 7.69233 4.42315 7.19315C4.92233 6.69396 5.28606 6.07579 5.48 5.397L6.232 2.769L6.982 5.396C7.1757 6.07486 7.53921 6.69316 8.03822 7.19252C8.53723 7.69188 9.15528 8.05582 9.834 8.25L12.46 9L9.833 9.75C9.15439 9.94409 8.53643 10.3079 8.03743 10.8071C7.53843 11.3062 7.17485 11.9243 6.981 12.603V12.604ZM14.777 5.968L14.539 6.923L14.299 5.968C14.1623 5.42011 13.8792 4.91969 13.4801 4.52021C13.0809 4.12074 12.5808 3.83723 12.033 3.7L11.077 3.46L12.033 3.221C12.5807 3.08409 13.0809 2.80096 13.4802 2.40184C13.8795 2.00273 14.1629 1.50264 14.3 0.955L14.54 0L14.779 0.955C14.916 1.50283 15.1993 2.00313 15.5986 2.40243C15.9979 2.80172 16.4982 3.08501 17.046 3.222L18.001 3.462L17.046 3.701C16.4979 3.83773 15.9974 4.12091 15.5979 4.52024C15.1984 4.91956 14.914 5.42 14.777 5.968ZM13.517 16.908L13.155 18L12.791 16.908C12.6891 16.6021 12.5175 16.3241 12.2896 16.096C12.0617 15.868 11.7838 15.6961 11.478 15.594L10.386 15.231L11.478 14.867C11.7838 14.7649 12.0617 14.593 12.2896 14.365C12.5175 14.1369 12.6891 13.8589 12.791 13.553L13.155 12.461L13.519 13.553C13.6209 13.8589 13.7925 14.1369 14.0204 14.365C14.2483 14.593 14.5262 14.7649 14.832 14.867L15.924 15.231L14.832 15.595C14.5262 15.6969 14.2484 15.8686 14.0205 16.0965C13.7926 16.3244 13.6209 16.6022 13.519 16.908H13.517Z" fill="white"/>
</g>
<defs>
<clipPath id="clip0_27000_829">
<rect width="18" height="18" fill="white"/>
</clipPath>
</defs>
</svg>
