<svg width="28" height="28" viewBox="0 0 28 28" fill="none" xmlns="http://www.w3.org/2000/svg">
<g clip-path="url(#clip0_28401_393)">
<mask id="mask0_28401_393" style="mask-type:luminance" maskUnits="userSpaceOnUse" x="0" y="0" width="28" height="28">
<path d="M28 0H0V28H28V0Z" fill="white"/>
</mask>
<g mask="url(#mask0_28401_393)">
<path d="M27.8398 4.21487C27.9961 4.05846 28.043 3.82325 27.9583 3.61888C27.8737 3.41452 27.6743 3.28124 27.4531 3.28124H24.7187V0.546876C24.7187 0.325663 24.5854 0.126273 24.3811 0.0416171C24.1767 -0.0429296 23.9415 0.00382812 23.7851 0.160179L21.6648 2.28046C19.3862 0.787278 16.7465 0 13.9999 0C6.25729 0 0 6.25525 0 13.9999C0 21.7427 6.25525 27.9999 13.9999 27.9999C17.1431 27.9999 20.1118 26.9845 22.5851 25.0632C22.8236 24.8779 22.8668 24.5344 22.6815 24.2959C22.4962 24.0574 22.1528 24.0142 21.9142 24.1994C19.6345 25.9702 16.8978 26.9062 13.9999 26.9062C6.88347 26.9062 1.09375 21.1165 1.09375 13.9999C1.09375 6.88347 6.88347 1.09375 13.9999 1.09375C16.4552 1.09375 18.8176 1.77603 20.8733 3.07196L20.5039 3.44142C20.4014 3.54402 20.3437 3.68308 20.3437 3.82812V6.88281L20.0179 7.20857C18.3544 5.73038 16.2381 4.92186 13.9999 4.92186C8.99431 4.92186 4.92186 8.99431 4.92186 13.9999C4.92186 19.0056 8.99431 23.0781 13.9999 23.0781C19.0056 23.0781 23.0781 19.0056 23.0781 13.9999C23.0781 11.7619 22.2696 9.64564 20.7913 7.98209L21.1171 7.65622H24.1718C24.3169 7.65622 24.4559 7.59859 24.5585 7.49606L24.928 7.12651C26.2239 9.18186 26.9062 11.5443 26.9062 13.9999C26.9062 16.3682 26.2608 18.6829 25.0399 20.6938C24.8831 20.952 24.9654 21.2883 25.2235 21.445C25.4807 21.6012 25.8174 21.5206 25.9748 21.2614C27.2996 19.0794 27.9999 16.5684 27.9999 13.9999C27.9999 11.253 27.2126 8.61321 25.7195 6.33508L27.8398 4.21487ZM21.9843 13.9999C21.9843 18.4026 18.4026 21.9843 13.9999 21.9843C9.59738 21.9843 6.01562 18.4026 6.01562 13.9999C6.01562 9.59738 9.59738 6.01562 13.9999 6.01562C15.9459 6.01562 17.7875 6.71079 19.2431 7.98341L16.5254 10.7012C15.8032 10.1456 14.9246 9.84373 13.9999 9.84373C11.7082 9.84373 9.84373 11.7082 9.84373 13.9999C9.84373 16.2917 11.7082 18.1562 13.9999 18.1562C16.2917 18.1562 18.1562 16.2917 18.1562 13.9999C18.1562 13.0753 17.8543 12.1968 17.2988 11.4746L20.0165 8.75687C21.2892 10.2125 21.9843 12.0541 21.9843 13.9999ZM17.0625 13.9999C17.0625 15.6887 15.6887 17.0625 13.9999 17.0625C12.3113 17.0625 10.9375 15.6887 10.9375 13.9999C10.9375 12.3113 12.3113 10.9375 13.9999 10.9375C14.6317 10.9375 15.2342 11.129 15.743 11.4835L13.6133 13.6132C13.3997 13.8268 13.3997 14.173 13.6133 14.3867C13.827 14.6002 14.173 14.6002 14.3867 14.3867L16.5165 12.2569C16.8709 12.7657 17.0625 13.3683 17.0625 13.9999ZM23.9452 6.56249H21.4375V4.05469C22.1689 3.32324 22.9266 2.56555 23.625 1.86719V3.82812C23.625 4.1301 23.8698 4.37499 24.1718 4.37499H26.1328L23.9452 6.56249Z" fill="#0E0E0E"/>
<path d="M24.0625 23.5157C24.3645 23.5157 24.6094 23.2708 24.6094 22.9688C24.6094 22.6667 24.3645 22.4219 24.0625 22.4219C23.7605 22.4219 23.5156 22.6667 23.5156 22.9688C23.5156 23.2708 23.7605 23.5157 24.0625 23.5157Z" fill="#0E0E0E"/>
</g>
</g>
<defs>
<clipPath id="clip0_28401_393">
<rect width="28" height="28" fill="white"/>
</clipPath>
</defs>
</svg>
