<svg width="32" height="32" viewBox="0 0 32 32" fill="none" xmlns="http://www.w3.org/2000/svg">
<g clip-path="url(#clip0_1045_3607)">
<path d="M24.0585 28.1115C23.5942 26.9904 22.4882 26.3293 21.3423 26.3775L20.5758 24.5397C20.0284 24.8337 19.4496 25.0767 18.8455 25.2621L19.6026 27.0774C18.725 27.8502 18.3906 29.123 18.8631 30.2635C19.4573 31.6982 21.1021 32.3795 22.5368 31.7852C23.9715 31.191 24.6528 29.5462 24.0585 28.1115Z" fill="white"/>
<path d="M13.1368 1.73648C12.5425 0.301792 10.8977 -0.37952 9.46304 0.214792C8.02835 0.809105 7.34704 2.45385 7.94135 3.88854C8.40573 5.00973 9.51167 5.67079 10.6575 5.62254L11.424 7.46042C11.9714 7.16642 12.5502 6.92342 13.1543 6.73798L12.3972 4.92267C13.2749 4.14992 13.6092 2.8771 13.1368 1.73648Z" fill="white"/>
<path d="M5.61848 10.7156C5.69261 9.54868 5.02904 8.41218 3.88848 7.93974C2.45379 7.34549 0.80898 8.02674 0.21473 9.46143C-0.379457 10.8962 0.301793 12.541 1.73648 13.1352C2.85767 13.5997 4.10717 13.2851 4.88329 12.4406L6.72442 13.1981C6.90698 12.593 7.14704 12.0131 7.43835 11.4643L5.61848 10.7156Z" fill="white"/>
<path d="M7.46042 20.5772C7.16635 20.0299 6.92342 19.4511 6.73798 18.847L4.92267 19.6041C4.14992 18.7265 2.8771 18.3921 1.73648 18.8645C0.301792 19.4588 -0.37952 21.1036 0.214792 22.5383C0.809042 23.973 2.45385 24.6543 3.88854 24.06C5.00973 23.5956 5.67079 22.4896 5.62254 21.3437L7.46042 20.5772Z" fill="white"/>
<path d="M31.7847 9.46182C31.1904 8.02713 29.5456 7.34582 28.1109 7.94013C26.9897 8.40451 26.3287 9.51051 26.3769 10.6564L24.5391 11.4229C24.8331 11.9702 25.076 12.549 25.2615 13.1531L27.0768 12.396C27.8496 13.2736 29.1224 13.608 30.263 13.1356C31.6977 12.5413 32.379 10.8965 31.7847 9.46182Z" fill="white"/>
<path d="M12.4422 27.1166L13.1996 25.2755C12.5946 25.0929 12.0146 24.8528 11.4659 24.5615L10.7172 26.3814C9.55027 26.3073 8.41377 26.9708 7.94133 28.1114C7.34708 29.5461 8.02833 31.1909 9.46302 31.7851C10.8977 32.3794 12.5425 31.6981 13.1368 30.2635C13.6013 29.1423 13.2866 27.8928 12.4422 27.1166Z" fill="white"/>
<path d="M22.537 0.21501C21.1023 -0.37924 19.4575 0.30201 18.8632 1.7367C18.3988 2.85789 18.7134 4.10732 19.5578 4.88351L18.8003 6.72464C19.4054 6.9072 19.9853 7.14726 20.5341 7.43857L21.2828 5.61876C22.4498 5.69289 23.5862 5.02932 24.0587 3.88876C24.653 2.45407 23.9717 0.80926 22.537 0.21501Z" fill="white"/>
<path d="M30.2644 18.8649C29.1432 18.4005 27.8937 18.7151 27.1176 19.5595L25.2764 18.8021C25.0939 19.4071 24.8538 19.9871 24.5625 20.5358L26.3824 21.2845C26.3082 22.4514 26.9718 23.5879 28.1124 24.0604C29.5471 24.6546 31.1919 23.9734 31.7861 22.5387C32.3803 21.104 31.6991 19.4592 30.2644 18.8649Z" fill="white"/>
<path d="M16 11.9139C13.7599 11.9139 11.9375 13.7364 11.9375 15.9764C11.9375 18.2165 13.7599 20.0389 16 20.0389C18.2401 20.0389 20.0625 18.2165 20.0625 15.9764C20.0625 13.7364 18.2401 11.9139 16 11.9139Z" fill="white"/>
<path d="M16 8.18762C11.6852 8.18762 8.1875 11.6854 8.1875 16.0001C8.1875 20.3149 11.6852 23.8126 16 23.8126C20.3148 23.8126 23.8125 20.3149 23.8125 16.0001C23.8125 11.6854 20.3148 8.18762 16 8.18762ZM16 21.9141C12.7261 21.9141 10.0625 19.2505 10.0625 15.9766C10.0625 12.7026 12.7261 10.0391 16 10.0391C19.2739 10.0391 21.9375 12.7026 21.9375 15.9766C21.9375 19.2505 19.2739 21.9141 16 21.9141Z" fill="white"/>
</g>
<defs>
<clipPath id="clip0_1045_3607">
<rect width="32" height="32" fill="white"/>
</clipPath>
</defs>
</svg>
