<svg width="32" height="32" viewBox="0 0 32 32" fill="none" xmlns="http://www.w3.org/2000/svg">
<g clip-path="url(#clip0_1045_3638)">
<path fill-rule="evenodd" clip-rule="evenodd" d="M31.7988 10.855V12.9031C31.7988 13.1706 31.6338 13.3956 31.3807 13.4787L29.8588 13.9731C29.657 14.0387 29.5151 14.1894 29.4601 14.395C29.4457 14.4519 29.4301 14.51 29.4138 14.5669C29.072 14.2956 28.682 14.0831 28.2607 13.9469C28.7338 13.4031 29.0207 12.6906 29.0207 11.9131C29.0207 10.205 27.6351 8.81999 25.9257 8.81999C25.7913 8.81999 25.6563 8.82874 25.5251 8.84499C24.4463 6.85686 22.3395 5.50561 19.9195 5.50561C17.4938 5.50561 15.3857 6.85936 14.3088 8.85249C14.1601 8.83124 14.0076 8.82061 13.8532 8.82061C12.1451 8.82061 10.7582 10.2062 10.7582 11.9137C10.7582 12.6987 11.0507 13.4162 11.5326 13.9619C11.127 14.1 10.7532 14.3056 10.4232 14.5675C10.4076 14.5106 10.3913 14.4525 10.377 14.3956C10.3238 14.19 10.1801 14.0394 9.97821 13.9737L8.45633 13.4794C8.20321 13.3962 8.03821 13.1712 8.03821 12.9037V10.8556C8.03821 10.5881 8.20321 10.3631 8.45633 10.28L9.98008 9.78561C10.1801 9.71999 10.3238 9.56936 10.377 9.36374C10.6057 8.49374 10.9507 7.67186 11.3938 6.91186C11.5001 6.72936 11.5057 6.52186 11.4101 6.33249L10.682 4.90624C10.5613 4.66874 10.6057 4.39249 10.7938 4.20311L12.2432 2.75561C12.4307 2.56624 12.7076 2.52374 12.9451 2.64374L14.3732 3.37186C14.5607 3.46749 14.7701 3.46061 14.9526 3.35436C15.7107 2.91124 16.5345 2.56624 17.4045 2.33749C17.6101 2.28436 17.7607 2.14249 17.8263 1.94061L18.3207 0.41686C18.402 0.163735 18.6288 0.000610352 18.8945 0.000610352H20.9445C21.2101 0.000610352 21.437 0.163735 21.5182 0.41686L22.0145 1.94061C22.0782 2.14249 22.2307 2.28436 22.4345 2.33749C23.3045 2.56624 24.1282 2.91124 24.8863 3.35436C25.0707 3.46061 25.2776 3.46749 25.4657 3.37186L26.8932 2.64374C27.1307 2.52311 27.407 2.56561 27.5951 2.75561L29.0445 4.20311C29.232 4.39249 29.2763 4.66936 29.1563 4.90624L28.4282 6.33249C28.3326 6.52186 28.3376 6.72936 28.4445 6.91186C28.8876 7.67186 29.2326 8.49374 29.4613 9.36374C29.5145 9.56936 29.6582 9.71999 29.8601 9.78561L31.382 10.28C31.6345 10.3625 31.7988 10.5875 31.7988 10.855ZM27.9882 11.9125C27.9882 10.7731 27.0651 9.84999 25.9257 9.84999C24.7863 9.84999 23.8632 10.7731 23.8632 11.9125C23.8632 13.0519 24.7863 13.975 25.9257 13.975C27.0651 13.975 27.9882 13.0519 27.9882 11.9125ZM24.7495 18.2762V19.8869L28.3245 17.9006C28.7707 17.6506 29.2813 17.5531 29.7807 17.6137V17.4562C29.7807 15.9944 28.5851 14.7987 27.1232 14.7987H24.8432C24.2532 14.7987 23.7076 14.9937 23.2645 15.3231C24.1651 15.9962 24.7495 17.0719 24.7495 18.2762ZM10.0576 17.4562V17.4612C10.7063 17.1812 11.3901 16.9969 12.102 16.93C13.0676 16.8362 14.0257 16.9656 14.9457 17.2669L15.2082 17.3537C15.4245 16.5231 15.917 15.8144 16.5738 15.3231C16.1307 14.9937 15.5851 14.7987 14.9951 14.7987H12.7151C11.2532 14.7987 10.0576 15.9944 10.0576 17.4562ZM15.9163 11.9125C15.9163 10.7731 14.9932 9.84999 13.8538 9.84999C12.7145 9.84999 11.7913 10.7731 11.7913 11.9125C11.7913 13.0519 12.7145 13.975 13.8538 13.975C14.9932 13.975 15.9163 13.0519 15.9163 11.9125ZM16.1907 17.6762L21.6013 19.455C22.0476 19.6019 22.4376 19.875 22.7313 20.2381C22.8751 20.415 22.992 20.6081 23.082 20.8119L23.7163 20.4594V18.2769C23.7163 16.815 22.5207 15.6194 21.0588 15.6194H18.7788C17.5251 15.6187 16.4657 16.5012 16.1907 17.6762ZM21.9826 12.735C21.9826 11.5956 21.0576 10.6725 19.9201 10.6725C18.7807 10.6725 17.8563 11.5956 17.8563 12.735C17.8563 13.8725 18.7813 14.7975 19.9201 14.7975C21.0576 14.7969 21.9826 13.8725 21.9826 12.735ZM30.7451 19.38C30.5588 19.0325 30.2507 18.7937 29.902 18.6887C29.5532 18.5844 29.167 18.6125 28.8263 18.8019L23.2988 21.8719C23.292 22.1131 23.2545 22.3487 23.182 22.5769C22.9926 23.2037 22.5332 23.7394 21.9632 24.0369C21.4051 24.3294 20.7357 24.4056 20.0938 24.1944L14.4438 22.3375C14.1707 22.2469 14.0207 21.9494 14.1088 21.6694C14.1957 21.3912 14.4882 21.2369 14.7607 21.3275L20.3713 23.1719C20.3963 23.1769 20.4207 23.1862 20.4457 23.195C21.1651 23.4112 21.932 23.0087 22.1801 22.2881C22.1857 22.2631 22.1945 22.24 22.2032 22.2175C22.3363 21.7531 22.2301 21.2575 21.9288 20.8869C21.7638 20.6812 21.5426 20.5219 21.2788 20.435L14.6226 18.2469C13.8026 17.9775 12.9907 17.88 12.1988 17.9562C11.4088 18.0306 10.6307 18.2787 9.87446 18.7006L5.61196 21.0687L9.19258 27.4169C9.79696 27.1069 10.4188 26.9225 11.0526 26.8606C11.747 26.795 12.452 26.8781 13.1626 27.1125L15.5951 27.9112C16.1707 28.1006 16.7395 28.1681 17.2938 28.115C17.8463 28.0637 18.3907 27.8881 18.922 27.5944L30.177 21.3425C30.5188 21.1531 30.7526 20.8375 30.8557 20.4812C30.9582 20.125 30.9301 19.73 30.7438 19.3831V19.38H30.7451ZM3.65258 19.7312C3.51633 19.4887 3.20633 19.405 2.96508 19.5469L0.452584 21.0225C0.211334 21.1644 0.128209 21.4794 0.265084 21.7225L5.92196 31.7462C6.05821 31.9887 6.36821 32.0725 6.60946 31.9306L9.12196 30.4531C9.36259 30.3112 9.44821 29.9975 9.30946 29.755L3.65258 19.7312Z" fill="white"/>
</g>
<defs>
<clipPath id="clip0_1045_3638">
<rect width="32" height="32" fill="white"/>
</clipPath>
</defs>
</svg>
