<svg width="32" height="32" viewBox="0 0 32 32" fill="none" xmlns="http://www.w3.org/2000/svg">
<g clip-path="url(#clip0_1045_3603)">
<path d="M30.4991 21.13L28.7791 20.13L17.4891 26.6C17.0331 26.8633 16.5157 27.0019 15.9891 27.0019C15.4625 27.0019 14.9452 26.8633 14.4891 26.6L3.21914 20.15L1.49914 21.15C1.34524 21.2372 1.21723 21.3637 1.12817 21.5165C1.03911 21.6694 0.992187 21.8431 0.992188 22.02C0.992188 22.1969 1.03911 22.3706 1.12817 22.5235C1.21723 22.6763 1.34524 22.8028 1.49914 22.89L15.4991 30.89C15.6512 30.9778 15.8236 31.024 15.9991 31.024C16.1747 31.024 16.3471 30.9778 16.4991 30.89L30.4991 22.89C30.653 22.8028 30.781 22.6763 30.8701 22.5235C30.9592 22.3706 31.0061 22.1969 31.0061 22.02C31.0061 21.8431 30.9592 21.6694 30.8701 21.5165C30.781 21.3637 30.653 21.2372 30.4991 21.15V21.13Z" fill="white"/>
<path d="M30.4991 15.13L28.7791 14.13L17.4891 20.6C17.0331 20.8633 16.5157 21.0019 15.9891 21.0019C15.4625 21.0019 14.9452 20.8633 14.4891 20.6L3.21914 14.15L1.49914 15.15C1.34524 15.2372 1.21723 15.3637 1.12817 15.5165C1.03911 15.6694 0.992188 15.8431 0.992188 16.02C0.992187 16.1969 1.03911 16.3706 1.12817 16.5235C1.21723 16.6763 1.34524 16.8028 1.49914 16.89L15.4991 24.89C15.6512 24.9778 15.8236 25.024 15.9991 25.024C16.1747 25.024 16.3471 24.9778 16.4991 24.89L30.4991 16.89C30.653 16.8028 30.781 16.6763 30.8701 16.5235C30.9592 16.3706 31.0061 16.1969 31.0061 16.02C31.0061 15.8431 30.9592 15.6694 30.8701 15.5165C30.781 15.3637 30.653 15.2372 30.4991 15.15V15.13Z" fill="white"/>
<path d="M1.49914 10.8701L15.4991 18.8701C15.6512 18.9578 15.8236 19.004 15.9991 19.004C16.1747 19.004 16.3471 18.9578 16.4991 18.8701L30.4991 10.8701C30.653 10.7829 30.781 10.6564 30.8701 10.5035C30.9592 10.3507 31.0061 10.177 31.0061 10.0001C31.0061 9.82318 30.9592 9.64945 30.8701 9.49661C30.781 9.34377 30.653 9.21729 30.4991 9.13007L16.4991 1.13007C16.3471 1.0423 16.1747 0.996094 15.9991 0.996094C15.8236 0.996094 15.6512 1.0423 15.4991 1.13007L1.49914 9.13007C1.34524 9.21729 1.21723 9.34377 1.12817 9.49661C1.03911 9.64945 0.992187 9.82318 0.992188 10.0001C0.992188 10.177 1.03911 10.3507 1.12817 10.5035C1.21723 10.6564 1.34524 10.7829 1.49914 10.8701ZM19.7491 8.16007L21.1591 6.75007L23.7091 9.29007C23.8029 9.38303 23.8773 9.49363 23.928 9.61549C23.9788 9.73735 24.0049 9.86806 24.0049 10.0001C24.0049 10.1321 23.9788 10.2628 23.928 10.3846C23.8773 10.5065 23.8029 10.6171 23.7091 10.7101L21.1591 13.2501L19.7491 11.8401L21.5891 10.0001L19.7491 8.16007ZM15.9991 5.85007L17.9991 6.33007L15.9991 14.1501L14.0591 13.6701L15.9991 5.85007ZM8.28914 9.29007L10.8391 6.75007L12.2491 8.16007L10.4091 10.0001L12.2491 11.8401L10.8391 13.2501L8.28914 10.7101C8.19541 10.6171 8.12101 10.5065 8.07025 10.3846C8.01948 10.2628 7.99334 10.1321 7.99334 10.0001C7.99334 9.86806 8.01948 9.73735 8.07025 9.61549C8.12101 9.49363 8.19541 9.38303 8.28914 9.29007Z" fill="white"/>
</g>
<defs>
<clipPath id="clip0_1045_3603">
<rect width="32" height="32" fill="white"/>
</clipPath>
</defs>
</svg>
