<svg width="18" height="18" viewBox="0 0 18 18" fill="none" xmlns="http://www.w3.org/2000/svg">
<g opacity="0.8" clip-path="url(#clip0_1045_2889)">
<path d="M16.4988 6.9375C16.3502 6.93944 16.2082 6.99933 16.1032 7.1044C15.9981 7.20947 15.9382 7.35142 15.9363 7.5V12L12.8013 8.415C12.6021 8.20295 12.3616 8.03395 12.0945 7.91843C11.8275 7.8029 11.5397 7.7433 11.2488 7.7433C10.9578 7.7433 10.67 7.8029 10.403 7.91843C10.136 8.03395 9.89544 8.20295 9.69625 8.415L7.54375 10.875L6.83875 10.02C6.64448 9.78696 6.40136 9.59947 6.1266 9.4708C5.85183 9.34214 5.55215 9.27544 5.24875 9.27544C4.94535 9.27544 4.64567 9.34214 4.3709 9.4708C4.09614 9.59947 3.85302 9.78696 3.65875 10.02L2.06125 11.9475V4.5C2.06323 3.85414 2.32067 3.2353 2.77736 2.77861C3.23405 2.32192 3.85289 2.06448 4.49875 2.0625H10.4988C10.6479 2.0625 10.791 2.00324 10.8965 1.89775C11.002 1.79226 11.0613 1.64918 11.0613 1.5C11.0613 1.35082 11.002 1.20774 10.8965 1.10225C10.791 0.996763 10.6479 0.9375 10.4988 0.9375H4.49875C3.55392 0.9375 2.64778 1.31283 1.97968 1.98093C1.31158 2.64903 0.93625 3.55517 0.93625 4.5V13.5C0.932708 13.5122 0.932708 13.5253 0.93625 13.5375C0.946128 14.4758 1.32582 15.3724 1.99285 16.0324C2.65988 16.6924 3.56038 17.0626 4.49875 17.0625H13.4988C14.4333 17.0606 15.3296 16.6916 15.9946 16.0351C16.6596 15.3785 17.04 14.4869 17.0538 13.5525V7.5C17.0519 7.35269 16.993 7.21183 16.8895 7.10697C16.7861 7.0021 16.646 6.94136 16.4988 6.9375ZM13.4988 15.9375H4.49875C3.88609 15.9355 3.29663 15.7029 2.84772 15.286C2.39881 14.8691 2.12338 14.2984 2.07625 13.6875L4.49875 10.74C4.58949 10.6389 4.70049 10.5581 4.82454 10.5027C4.9486 10.4474 5.08291 10.4188 5.21875 10.4188C5.35459 10.4188 5.4889 10.4474 5.61296 10.5027C5.73701 10.5581 5.84801 10.6389 5.93875 10.74L7.07125 12.105C7.12319 12.1682 7.18844 12.2191 7.26235 12.2541C7.33625 12.2891 7.41698 12.3073 7.49875 12.3075C7.6607 12.2986 7.81334 12.2289 7.92625 12.1125L10.5063 9.1575C10.598 9.06083 10.7085 8.98384 10.831 8.93123C10.9535 8.87863 11.0854 8.8515 11.2188 8.8515C11.3521 8.8515 11.484 8.87863 11.6065 8.93123C11.729 8.98384 11.8395 9.06083 11.9313 9.1575L15.8838 13.6575C15.8461 14.2679 15.5796 14.8417 15.1375 15.2643C14.6954 15.687 14.1103 15.9273 13.4988 15.9375Z" fill="#020224"/>
<path d="M3.1875 5.25C3.1875 5.65792 3.30846 6.05669 3.53509 6.39586C3.76172 6.73504 4.08384 6.9994 4.46072 7.1555C4.83759 7.31161 5.25229 7.35245 5.65237 7.27287C6.05246 7.19329 6.41996 6.99685 6.70841 6.70841C6.99685 6.41996 7.19329 6.05246 7.27287 5.65237C7.35245 5.25229 7.31161 4.83759 7.1555 4.46072C6.9994 4.08384 6.73504 3.76172 6.39586 3.53509C6.05669 3.30846 5.65792 3.1875 5.25 3.1875C4.70299 3.1875 4.17839 3.4048 3.79159 3.79159C3.4048 4.17839 3.1875 4.70299 3.1875 5.25ZM6.1875 5.25C6.1875 5.43542 6.13252 5.61668 6.0295 5.77085C5.92649 5.92502 5.78007 6.04518 5.60877 6.11614C5.43746 6.18709 5.24896 6.20566 5.0671 6.16949C4.88525 6.13331 4.7182 6.04402 4.58709 5.91291C4.45598 5.7818 4.36669 5.61475 4.33051 5.4329C4.29434 5.25104 4.31291 5.06254 4.38386 4.89123C4.45482 4.71993 4.57498 4.57351 4.72915 4.4705C4.88332 4.36748 5.06458 4.3125 5.25 4.3125C5.49864 4.3125 5.7371 4.41127 5.91291 4.58709C6.08873 4.7629 6.1875 5.00136 6.1875 5.25Z" fill="#020224"/>
<path d="M12 4.3125H13.6875V6C13.6875 6.14918 13.7468 6.29226 13.8523 6.39775C13.9577 6.50324 14.1008 6.5625 14.25 6.5625C14.3992 6.5625 14.5423 6.50324 14.6477 6.39775C14.7532 6.29226 14.8125 6.14918 14.8125 6V4.3125H16.5C16.6492 4.3125 16.7923 4.25324 16.8977 4.14775C17.0032 4.04226 17.0625 3.89918 17.0625 3.75C17.0625 3.60082 17.0032 3.45774 16.8977 3.35225C16.7923 3.24676 16.6492 3.1875 16.5 3.1875H14.8125V1.5C14.8125 1.35082 14.7532 1.20774 14.6477 1.10225C14.5423 0.996763 14.3992 0.9375 14.25 0.9375C14.1008 0.9375 13.9577 0.996763 13.8523 1.10225C13.7468 1.20774 13.6875 1.35082 13.6875 1.5V3.1875H12C11.8508 3.1875 11.7077 3.24676 11.6023 3.35225C11.4968 3.45774 11.4375 3.60082 11.4375 3.75C11.4375 3.89918 11.4968 4.04226 11.6023 4.14775C11.7077 4.25324 11.8508 4.3125 12 4.3125Z" fill="#020224"/>
</g>
<defs>
<clipPath id="clip0_1045_2889">
<rect width="18" height="18" fill="white"/>
</clipPath>
</defs>
</svg>
