<svg width="18" height="18" viewBox="0 0 18 18" fill="none" xmlns="http://www.w3.org/2000/svg">
<g clip-path="url(#clip0_1045_2875)">
<path d="M9.58254 5.82043H0.878906C0.645806 5.82043 0.422253 5.72784 0.257426 5.56301C0.0925988 5.39818 0 5.17463 0 4.94153C0 4.70843 0.0925988 4.48487 0.257426 4.32005C0.422253 4.15522 0.645806 4.06262 0.878906 4.06262H9.58359C9.81669 4.06262 10.0402 4.15522 10.2051 4.32005C10.3699 4.48487 10.4625 4.70843 10.4625 4.94153C10.4625 5.17463 10.3699 5.39818 10.2051 5.56301C10.0402 5.72784 9.81669 5.82043 9.58359 5.82043H9.58254Z" fill="#020224" fill-opacity="0.6"/>
<path d="M17.122 5.82043H14.9219C14.6888 5.82043 14.4652 5.72784 14.3004 5.56301C14.1356 5.39818 14.043 5.17463 14.043 4.94153C14.043 4.70843 14.1356 4.48487 14.3004 4.32005C14.4652 4.15522 14.6888 4.06262 14.9219 4.06262H17.122C17.3551 4.06262 17.5786 4.15522 17.7434 4.32005C17.9083 4.48487 18.0009 4.70843 18.0009 4.94153C18.0009 5.17463 17.9083 5.39818 17.7434 5.56301C17.5786 5.72784 17.3551 5.82043 17.122 5.82043Z" fill="#020224" fill-opacity="0.6"/>
<path d="M17.1216 13.9373H8.41797C8.18487 13.9373 7.96132 13.8447 7.79649 13.6798C7.63166 13.515 7.53906 13.2915 7.53906 13.0583C7.53906 12.8252 7.63166 12.6017 7.79649 12.4369C7.96132 12.272 8.18487 12.1794 8.41797 12.1794H17.1216C17.3547 12.1794 17.5783 12.272 17.7431 12.4369C17.9079 12.6017 18.0005 12.8252 18.0005 13.0583C18.0005 13.2915 17.9079 13.515 17.7431 13.6798C17.5783 13.8447 17.3547 13.9373 17.1216 13.9373Z" fill="#020224" fill-opacity="0.6"/>
<path d="M3.07898 13.9373H0.878906C0.645806 13.9373 0.422253 13.8447 0.257426 13.6798C0.0925988 13.515 0 13.2915 0 13.0583C0 12.8252 0.0925988 12.6017 0.257426 12.4369C0.422253 12.272 0.645806 12.1794 0.878906 12.1794H3.07898C3.31208 12.1794 3.53564 12.272 3.70046 12.4369C3.86529 12.6017 3.95789 12.8252 3.95789 13.0583C3.95789 13.2915 3.86529 13.515 3.70046 13.6798C3.53564 13.8447 3.31208 13.9373 3.07898 13.9373Z" fill="#020224" fill-opacity="0.6"/>
<path d="M5.74789 16.5417C5.04609 16.5418 4.36002 16.3337 3.77646 15.9439C3.19289 15.554 2.73804 14.9999 2.46942 14.3515C2.2008 13.7032 2.13048 12.9897 2.26736 12.3014C2.40423 11.613 2.74215 10.9808 3.23837 10.4845C3.7346 9.9882 4.36685 9.65022 5.05517 9.51328C5.74348 9.37633 6.45695 9.44658 7.10534 9.71514C7.75373 9.98369 8.30793 10.4385 8.69784 11.022C9.08775 11.6055 9.29586 12.2916 9.29586 12.9934C9.29521 13.9342 8.92121 14.8363 8.25599 15.5016C7.59076 16.1669 6.6887 16.541 5.74789 16.5417ZM5.74789 11.2032C5.39373 11.2032 5.04751 11.3081 4.75301 11.5048C4.45851 11.7016 4.22896 11.9812 4.09339 12.3084C3.95783 12.6356 3.92234 12.9956 3.99142 13.343C4.0605 13.6903 4.23103 14.0094 4.48146 14.2598C4.73189 14.5103 5.05096 14.6808 5.39832 14.7499C5.74567 14.8189 6.10571 14.7835 6.4329 14.6479C6.76009 14.5123 7.03972 14.2828 7.23644 13.9883C7.43316 13.6938 7.53812 13.3475 7.53805 12.9934C7.5373 12.5188 7.34846 12.0639 7.0129 11.7284C6.67734 11.3928 6.22244 11.204 5.74789 11.2032Z" fill="#020224" fill-opacity="0.6"/>
<path d="M12.2514 8.48983C11.5497 8.48983 10.8636 8.28172 10.2801 7.89183C9.69659 7.50194 9.24179 6.94776 8.97323 6.29939C8.70466 5.65102 8.63439 4.93757 8.77131 4.24927C8.90822 3.56096 9.24616 2.92871 9.74241 2.43247C10.2386 1.93623 10.8709 1.59828 11.5592 1.46137C12.2475 1.32446 12.961 1.39473 13.6093 1.66329C14.2577 1.93185 14.8119 2.38665 15.2018 2.97017C15.5917 3.55369 15.7998 4.23972 15.7998 4.94151C15.7991 5.88238 15.4251 6.78453 14.7598 7.44983C14.0945 8.11513 13.1923 8.48918 12.2514 8.48983ZM12.2514 3.15135C11.8973 3.15135 11.5511 3.25637 11.2567 3.45313C10.9622 3.64989 10.7327 3.92955 10.5972 4.25675C10.4617 4.58394 10.4263 4.94397 10.4954 5.2913C10.5645 5.63864 10.735 5.95767 10.9855 6.20807C11.2359 6.45846 11.555 6.62896 11.9024 6.69801C12.2497 6.76706 12.6097 6.73155 12.9369 6.59597C13.2641 6.4604 13.5437 6.23085 13.7404 5.93636C13.9371 5.64186 14.042 5.29565 14.042 4.94151C14.0412 4.4669 13.8523 4.01194 13.5167 3.67638C13.1811 3.34081 12.7261 3.15201 12.2514 3.15135Z" fill="#020224" fill-opacity="0.6"/>
</g>
<defs>
<clipPath id="clip0_1045_2875">
<rect width="18" height="18" fill="white"/>
</clipPath>
</defs>
</svg>
