<svg width="18" height="18" viewBox="0 0 18 18" fill="none" xmlns="http://www.w3.org/2000/svg">
<g clip-path="url(#clip0_1045_2905)">
<path fill-rule="evenodd" clip-rule="evenodd" d="M13.2445 0.39205C13.32 0.160093 13.5359 0.00317383 13.7797 0.00317383C14.0235 0.00317383 14.2394 0.160093 14.3149 0.39205L15.1235 2.87963L17.6111 3.6883C17.8431 3.76381 18 3.97972 18 4.22347C18 4.46723 17.8431 4.68314 17.6111 4.75865L15.1235 5.56732L14.3149 8.0549C14.2394 8.28686 14.0235 8.44378 13.7797 8.44378C13.5359 8.44378 13.32 8.28686 13.2445 8.0549L12.4359 5.56732L9.94827 4.75865C9.71632 4.68314 9.5594 4.46723 9.5594 4.22347C9.5594 3.97972 9.71632 3.76381 9.94827 3.6883L12.4359 2.87963L13.2445 0.39205ZM13.7797 2.38575L13.4173 3.49999C13.3618 3.67131 13.2275 3.80557 13.0562 3.86103L11.942 4.22347L13.0562 4.58592C13.2275 4.64137 13.3618 4.77564 13.4173 4.94695L13.7797 6.0612L14.1421 4.94695C14.1976 4.77564 14.3319 4.64137 14.5032 4.58592L15.6174 4.22347L14.5032 3.86103C14.3319 3.80557 14.1976 3.67131 14.1421 3.49999L13.7797 2.38575Z" fill="#6342F5"/>
<path fill-rule="evenodd" clip-rule="evenodd" d="M5.92771 12.2047C6.0032 11.9728 6.21922 11.8159 6.46303 11.8159C6.70683 11.8159 6.92285 11.9728 6.99834 12.2047L7.53105 13.8433C7.53121 13.8435 9.16985 14.3762 9.16985 14.3762C9.40172 14.4517 9.55859 14.6677 9.55859 14.9115C9.55859 15.1553 9.40172 15.3713 9.16985 15.4468L7.53121 15.9795C7.53105 15.9797 6.99834 17.6183 6.99834 17.6183C6.92285 17.8502 6.70683 18.0071 6.46303 18.0071C6.21922 18.0071 6.0032 17.8502 5.92771 17.6183L5.395 15.9797C5.39484 15.9795 3.7562 15.4468 3.7562 15.4468C3.52433 15.3713 3.36746 15.1553 3.36746 14.9115C3.36746 14.6677 3.52433 14.4517 3.7562 14.3762L5.39484 13.8435C5.395 13.8433 5.92771 12.2047 5.92771 12.2047ZM6.46303 14.1989L6.37675 14.4641C6.32119 14.6353 6.18687 14.7696 6.01562 14.8252L5.75041 14.9115L6.01562 14.9978C6.18687 15.0533 6.32119 15.1876 6.37675 15.3589L6.46303 15.6241L6.5493 15.3589C6.60486 15.1876 6.73918 15.0533 6.91043 14.9978L7.17564 14.9115L6.91043 14.8252C6.73918 14.7696 6.60486 14.6353 6.5493 14.4641L6.46303 14.1989Z" fill="#6342F5"/>
<path fill-rule="evenodd" clip-rule="evenodd" d="M3.65625 10.4017V12.6512C3.65625 12.9616 3.40425 13.2135 3.09375 13.2135C2.78325 13.2135 2.53125 12.9616 2.53125 12.6512V10.4017C2.53125 10.0913 2.78325 9.83936 3.09375 9.83936C3.40425 9.83936 3.65625 10.0913 3.65625 10.4017Z" fill="#6342F5"/>
<path fill-rule="evenodd" clip-rule="evenodd" d="M4.2228 12.0938H1.97336C1.66294 12.0938 1.411 11.8417 1.411 11.5312C1.411 11.2208 1.66294 10.9688 1.97336 10.9688H4.2228C4.53322 10.9688 4.78516 11.2208 4.78516 11.5312C4.78516 11.8417 4.53322 12.0938 4.2228 12.0938Z" fill="#6342F5"/>
<path fill-rule="evenodd" clip-rule="evenodd" d="M5.74151 2.92899L2.92901 5.74149C2.70963 5.96115 2.35301 5.96115 2.13363 5.74149C1.91398 5.52211 1.91398 5.16549 2.13363 4.94611L4.94613 2.13361C5.16551 1.91396 5.52213 1.91396 5.74151 2.13361C5.96116 2.35299 5.96116 2.70961 5.74151 2.92899Z" fill="#6342F5"/>
<path fill-rule="evenodd" clip-rule="evenodd" d="M4.26593 0.658969C7.41874 3.8115 16.4272 12.8211 16.4272 12.8211C16.489 12.8827 16.5369 12.958 16.565 13.041L17.9712 17.2597C18.0387 17.4617 17.9853 17.6847 17.8334 17.8352C17.6844 17.9859 17.4622 18.0385 17.2597 17.971L13.0409 16.5648C12.9565 16.5372 12.8834 16.4908 12.8215 16.4289C12.8215 16.4289 3.81028 7.41966 0.657469 4.26712C0.235594 3.84497 -0.000648499 3.27262 -0.000648499 2.67609C-0.000648499 2.07928 0.235594 1.50694 0.657469 1.08506C0.800905 0.943875 0.944349 0.800156 1.08497 0.658969C1.50685 0.237094 2.07779 0 2.67404 0C3.27311 0 3.84405 0.237094 4.26593 0.658969ZM16.5481 16.5482L14.2587 15.7854L15.7859 14.2599L16.5481 16.5482ZM13.2181 15.2359L15.2347 13.2187L3.46997 1.45462C3.25903 1.24341 2.97498 1.125 2.67404 1.125C2.37592 1.125 2.09184 1.24341 1.8809 1.45462C1.73746 1.59553 1.59405 1.73953 1.45343 1.88044C1.24249 2.09137 1.12435 2.37769 1.12435 2.67609C1.12435 2.9745 1.24249 3.26053 1.45343 3.47147L13.2181 15.2359Z" fill="#020224"/>
</g>
<defs>
<clipPath id="clip0_1045_2905">
<rect width="18" height="18" fill="white" transform="matrix(-1 0 0 1 18 0)"/>
</clipPath>
</defs>
</svg>
