<svg width="18" height="18" viewBox="0 0 18 18" fill="none" xmlns="http://www.w3.org/2000/svg">
<g opacity="0.8">
<path d="M15.1054 14.0477L12.673 11.6154C13.4102 10.6504 13.8145 9.47989 13.8147 8.24475C13.8147 6.75629 13.235 5.35681 12.1823 4.30432C11.1298 3.25183 9.7305 2.67212 8.24185 2.67212C6.75339 2.67212 5.35391 3.25183 4.30142 4.30432C2.12869 6.47723 2.12869 10.0126 4.30142 12.1852C5.35391 13.2379 6.75339 13.8176 8.24185 13.8176C9.47699 13.8174 10.6475 13.4131 11.6125 12.6759L14.0448 15.1083C14.1911 15.2548 14.3832 15.328 14.5751 15.328C14.767 15.328 14.9591 15.2548 15.1054 15.1083C15.3983 14.8155 15.3983 14.3405 15.1054 14.0477ZM5.36197 11.1246C3.77408 9.53674 3.77426 6.95294 5.36197 5.36487C6.1312 4.59583 7.15402 4.17212 8.24185 4.17212C9.32986 4.17212 10.3525 4.59583 11.1217 5.36487C11.891 6.13409 12.3147 7.15692 12.3147 8.24475C12.3147 9.33276 11.891 10.3554 11.1217 11.1246C10.3525 11.8939 9.32986 12.3176 8.24185 12.3176C7.15402 12.3176 6.1312 11.8939 5.36197 11.1246Z" fill="#020224"/>
</g>
</svg>
