<svg width="18" height="18" viewBox="0 0 18 18" fill="none" xmlns="http://www.w3.org/2000/svg">
<g opacity="0.8" clip-path="url(#clip0_1045_2896)">
<path d="M9 12.5989C11.1595 12.5989 12.9164 10.842 12.9164 8.68247V3.91637C12.9164 1.7569 11.1595 0 9 0C6.84049 0 5.08363 1.7569 5.08363 3.91637V8.68243C5.08363 10.842 6.84049 12.5989 9 12.5989ZM6.20863 3.91637C6.20863 2.3772 7.46082 1.125 9 1.125C10.5392 1.125 11.7914 2.3772 11.7914 3.91637V8.68243C11.7914 10.2216 10.5392 11.4738 9 11.4738C7.46082 11.4738 6.20863 10.2216 6.20863 8.68243V3.91637ZM15.4543 9.81475C15.1909 11.3115 14.4018 12.6828 13.2324 13.6762C12.1929 14.5593 10.9071 15.0938 9.5625 15.2109V16.875H13.2188C13.5294 16.875 13.7812 17.1268 13.7812 17.4375C13.7812 17.7482 13.5294 18 13.2188 18H4.78125C4.47057 18 4.21875 17.7482 4.21875 17.4375C4.21875 17.1268 4.47057 16.875 4.78125 16.875H8.4375V15.2109C7.09295 15.0938 5.80714 14.5593 4.76757 13.6762C3.59821 12.6828 2.80916 11.3115 2.54573 9.81475C2.49191 9.50878 2.69624 9.21709 3.0022 9.16327C3.30813 9.10944 3.59986 9.3138 3.65368 9.61973C4.11166 12.2219 6.36012 14.1106 9 14.1106C11.6399 14.1106 13.8883 12.2219 14.3463 9.61973C14.4001 9.31377 14.6918 9.10937 14.9978 9.16327C15.3038 9.21709 15.5081 9.50878 15.4543 9.81475ZM15.4628 3.78872V7.03839C15.4628 7.34906 15.2109 7.60089 14.9003 7.60089C14.5896 7.60089 14.3378 7.34906 14.3378 7.03839V3.78872C14.3378 3.47804 14.5896 3.22622 14.9003 3.22622C15.2109 3.22622 15.4628 3.47804 15.4628 3.78872ZM18 4.56265V6.26435C18 6.57503 17.7482 6.82685 17.4375 6.82685C17.1268 6.82685 16.875 6.57503 16.875 6.26435V4.56265C16.875 4.25197 17.1268 4.00015 17.4375 4.00015C17.7482 4.00015 18 4.25197 18 4.56265ZM2.53723 7.03835V3.78868C2.53723 3.47801 2.78905 3.22618 3.09973 3.22618C3.4104 3.22618 3.66223 3.47801 3.66223 3.78868V7.03835C3.66223 7.34903 3.4104 7.60085 3.09973 7.60085C2.78905 7.60085 2.53723 7.34903 2.53723 7.03835ZM1.125 4.56265V6.26435C1.125 6.57503 0.873176 6.82685 0.5625 6.82685C0.251824 6.82685 0 6.57503 0 6.26435V4.56265C0 4.25197 0.251824 4.00015 0.5625 4.00015C0.873176 4.00015 1.125 4.25197 1.125 4.56265Z" fill="#020224"/>
</g>
<defs>
<clipPath id="clip0_1045_2896">
<rect width="18" height="18" fill="white"/>
</clipPath>
</defs>
</svg>
