<svg width="28" height="28" viewBox="0 0 28 28" fill="none" xmlns="http://www.w3.org/2000/svg">
<g clip-path="url(#clip0_28322_608)">
<path d="M27.9531 17.0736L27.9573 17.0722L23.3602 7.04175L24.4751 6.48689L24.0579 5.65156L22.971 6.19289L22.824 5.87229C22.7166 5.63803 22.4396 5.53519 22.2053 5.64258C22.1037 5.68919 22.0222 5.77068 21.9756 5.87229L21.8445 6.15882C21.0535 5.79144 20.192 5.60081 19.3198 5.60023H15.3999V4.6669H16.3332V3.73358H15.531L15.8665 2.39099C16.1241 1.36007 15.4973 0.315505 14.4664 0.0578491C13.4355 -0.199749 12.3909 0.427096 12.1332 1.45801C12.0567 1.76426 12.0567 2.08468 12.1332 2.39093L12.4688 3.73352H11.6666V4.66684H12.5999V5.60017H8.68227C7.80926 5.60087 6.94687 5.79197 6.15529 6.16016L6.02416 5.87363C5.91677 5.63937 5.63974 5.53653 5.40548 5.64392C5.30386 5.69053 5.22237 5.77202 5.17576 5.87363L5.02876 6.19423L3.94191 5.65057L3.52471 6.48683L4.63957 7.04402L0.0424725 17.0722C0.0141228 17.1332 -0.000343795 17.1996 6.20227e-06 17.2668C0.00204785 19.07 1.4634 20.5314 3.26665 20.5334H7.93327C9.73652 20.5314 11.1979 19.07 11.1999 17.2668C11.1987 17.1998 11.1828 17.1338 11.1532 17.0736L6.54355 7.00535C7.21362 6.69432 7.94354 6.53332 8.68227 6.53355H12.5999V23.6069L11.0067 25.2001H9.33326C8.04527 25.2016 7.00146 26.2454 6.99995 27.5334C6.99995 27.7911 7.2089 28 7.46661 28H20.5332C20.7909 28 20.9998 27.7911 20.9998 27.5334C20.9983 26.2454 19.9545 25.2016 18.6665 25.2001H16.9931L15.3999 23.6069V6.53355H19.3198C20.0586 6.53332 20.7885 6.69432 21.4586 7.00535L16.8423 17.0722C16.814 17.1332 16.7995 17.1996 16.7999 17.2668C16.8019 19.07 18.2633 20.5314 20.0665 20.5334H24.7331C26.5364 20.5314 27.9977 19.07 27.9998 17.2668C27.9987 17.1998 27.9827 17.1338 27.9531 17.0736ZM7.93327 19.6001H3.26665C2.1582 19.5989 1.20312 18.8192 0.979998 17.7335H10.2199C9.99686 18.8192 9.04171 19.5989 7.93327 19.6001ZM10.0062 16.8001H1.19373L5.48049 7.44775C5.55878 7.46875 5.64114 7.46875 5.71943 7.44775L10.0062 16.8001ZM13.2192 1.3144C13.5826 0.883201 14.2267 0.828309 14.6579 1.19172C14.7022 1.22906 14.7433 1.27012 14.7806 1.3144C14.9694 1.55449 15.0361 1.86856 14.9612 2.16466L14.5688 3.73358H13.431L13.0386 2.16466C12.9637 1.86856 13.0305 1.55449 13.2192 1.3144ZM13.5332 5.60023V4.6669H14.4666V5.60023H13.5332ZM14.4666 6.53355V23.3334H13.5332V6.53355H14.4666ZM18.6665 26.1334C19.2596 26.1341 19.7882 26.5078 19.9867 27.0667H8.01307C8.21158 26.5078 8.74013 26.1341 9.33326 26.1334H18.6665ZM15.6733 25.2001H12.3264L13.2598 24.2667H14.74L15.6733 25.2001ZM22.2794 7.44915C22.3565 7.47627 22.441 7.47277 22.5156 7.43935L26.806 16.8001H17.9936L22.2794 7.44915ZM24.7331 19.6001H20.0665C18.9581 19.5989 18.003 18.8192 17.7799 17.7335H27.0198C26.7967 18.8192 25.8416 19.5989 24.7331 19.6001Z" fill="#3B49E0"/>
</g>
<defs>
<clipPath id="clip0_28322_608">
<rect width="28" height="28" fill="white"/>
</clipPath>
</defs>
</svg>
