<svg width="28" height="28" viewBox="0 0 28 28" fill="none" xmlns="http://www.w3.org/2000/svg">
<path d="M26.7276 15.2725C26.3457 15.2725 26.0912 15.527 26.0912 15.9088V24.1815C26.0912 24.5634 25.8367 24.8179 25.4549 24.8179H2.54575C2.16392 24.8179 1.90941 24.5633 1.90941 24.1815V15.9088C1.90941 15.527 1.65484 15.2725 1.27306 15.2725C0.891289 15.2725 0.636719 15.527 0.636719 15.9088V24.1815C0.636719 25.2634 1.46398 26.0906 2.5458 26.0906H25.4549C26.5367 26.0906 27.364 25.2634 27.364 24.1815V15.9088C27.364 15.527 27.1094 15.2725 26.7276 15.2725Z" fill="#3B49E0"/>
<path d="M26.0909 6.36328H1.90909C0.827258 6.36328 0 7.19054 0 8.27237V12.3451C0 13.236 0.636344 13.9996 1.46366 14.1905L11.4546 16.4178V18.4541C11.4546 18.836 11.7091 19.0905 12.0909 19.0905H15.9091C16.2909 19.0905 16.5454 18.8359 16.5454 18.4541V16.4178L26.5363 14.1905C27.3637 13.9996 28 13.236 28 12.3451V8.27231C28 7.19054 27.1727 6.36328 26.0909 6.36328ZM15.2727 17.8178H12.7273V15.2724H15.2727V17.8178ZM26.7273 12.3451C26.7273 12.6632 26.5363 12.9178 26.2182 12.9814L16.5454 15.1451V14.636C16.5454 14.2541 16.2909 13.9996 15.9091 13.9996H12.0909C11.7091 13.9996 11.4546 14.2542 11.4546 14.636V15.1451L1.78183 12.9815C1.46366 12.9178 1.27274 12.6633 1.27274 12.3451V8.27237C1.27274 7.89054 1.52731 7.63602 1.90909 7.63602H26.0909C26.4727 7.63602 26.7273 7.89059 26.7273 8.27237V12.3451Z" fill="#3B49E0"/>
<path d="M17.1809 1.90918H10.8173C9.73546 1.90918 8.9082 2.73644 8.9082 3.81827V4.45461C8.9082 4.83644 9.16277 5.09095 9.54455 5.09095C9.92632 5.09095 10.1809 4.83638 10.1809 4.45461V3.81827C10.1809 3.43644 10.4355 3.18192 10.8172 3.18192H17.1809C17.5627 3.18192 17.8172 3.43649 17.8172 3.81827V4.45461C17.8172 4.83644 18.0718 5.09095 18.4536 5.09095C18.8354 5.09095 19.0899 4.83638 19.0899 4.45461V3.81827C19.09 2.73644 18.2628 1.90918 17.1809 1.90918Z" fill="#3B49E0"/>
</svg>
