<svg width="32" height="32" viewBox="0 0 32 32" fill="none" xmlns="http://www.w3.org/2000/svg">
<g clip-path="url(#clip0_28322_792)">
<path d="M6.62008 24.8273H25.3787C25.6834 24.8273 25.9304 24.5803 25.9304 24.2756C25.9304 23.9709 25.6834 23.7239 25.3787 23.7239H23.1718V12.1377C23.1718 11.833 22.9248 11.5859 22.6201 11.5859H21.5166C21.2119 11.5859 20.9649 11.833 20.9649 12.1377V23.7239H18.758V14.3446C18.758 14.0398 18.511 13.7928 18.2063 13.7928H17.1028C16.7981 13.7928 16.5511 14.0398 16.5511 14.3446V23.7239H14.3442V16.5515C14.3442 16.2467 14.0972 15.9997 13.7925 15.9997H12.689C12.3843 15.9997 12.1373 16.2467 12.1373 16.5515V23.7239H9.93043V19.8618C9.93043 19.5571 9.68341 19.3101 9.3787 19.3101H8.27526C7.97055 19.3101 7.72353 19.5571 7.72353 19.8618V23.7239H6.62008C6.31537 23.7239 6.06836 23.9709 6.06836 24.2756C6.06836 24.5803 6.31537 24.8273 6.62008 24.8273Z" fill="#3B49E0"/>
<path d="M7.24953 16.2815C7.34892 16.4487 7.52898 16.5512 7.72347 16.5513C7.82259 16.5515 7.91988 16.5246 8.00485 16.4735L21.7687 8.30191L21.5331 9.24481C21.4976 9.38682 21.5199 9.53714 21.5953 9.66266C21.6706 9.78818 21.7927 9.87861 21.9348 9.91405C21.9784 9.92518 22.0233 9.93074 22.0683 9.9306C22.3212 9.93034 22.5415 9.75823 22.6029 9.51295L23.1546 7.30605C23.1902 7.16404 23.1678 7.01373 23.0925 6.88821C23.0171 6.76269 22.895 6.67225 22.753 6.63681L20.5461 6.08509C20.3531 6.03215 20.1465 6.08791 20.0063 6.2308C19.8662 6.37368 19.8144 6.58127 19.871 6.77325C19.9276 6.96524 20.0838 7.11149 20.2791 7.15543L21.1618 7.37612L7.44153 15.5251C7.31575 15.5999 7.22484 15.7217 7.18884 15.8635C7.15283 16.0054 7.17466 16.1557 7.24953 16.2815Z" fill="#3B49E0"/>
<path d="M15.9991 1.10322V0.523353C15.9996 0.326842 15.8915 0.14613 15.7181 0.0536541C15.5447 -0.0388221 15.3344 -0.0279263 15.1715 0.0819739L13.4766 1.21356C13.3289 1.31186 13.2401 1.47752 13.2401 1.65494C13.2401 1.83236 13.3289 1.99802 13.4766 2.09632L15.1715 3.2279C15.3344 3.33781 15.5447 3.3487 15.7181 3.25622C15.8915 3.16375 15.9996 2.98304 15.9991 2.78653V2.20666C23.9215 2.20666 30.3439 8.62906 30.3439 16.5515C30.3439 24.4739 23.9215 30.8963 15.9991 30.8963C8.07663 30.8963 1.65423 24.4739 1.65423 16.5515C1.65423 16.2468 1.40721 15.9998 1.10251 15.9998C0.797797 15.9998 0.550781 16.2468 0.550781 16.5515C0.550781 25.0833 7.46721 31.9998 15.9991 31.9998C24.5309 31.9998 31.4473 25.0833 31.4473 16.5515C31.4473 8.01964 24.5309 1.10322 15.9991 1.10322Z" fill="#3B49E0"/>
<path d="M1.18267 14.8901C1.21063 14.8942 1.23884 14.8962 1.26709 14.8962C1.54042 14.8959 1.77229 14.6954 1.81219 14.425C1.83867 14.2468 1.86736 14.0697 1.90157 13.8937C1.95233 13.5965 1.75511 13.3136 1.4587 13.2584C1.16229 13.2033 0.876473 13.3962 0.816881 13.6918C0.781571 13.881 0.749019 14.0714 0.720881 14.2639C0.676373 14.5642 0.882707 14.844 1.18267 14.8901Z" fill="#3B49E0"/>
<path d="M1.76402 12.1058C2.0512 12.2073 2.36634 12.0569 2.46802 11.7698C2.53165 11.591 2.59823 11.4141 2.66774 11.239C2.74087 11.0559 2.71075 10.8477 2.58873 10.6928C2.46671 10.5379 2.27133 10.4599 2.07618 10.4881C1.88103 10.5163 1.71577 10.6465 1.64264 10.8297C1.5676 11.0189 1.49588 11.2092 1.42802 11.4023C1.32684 11.6894 1.47718 12.0041 1.76402 12.1058Z" fill="#3B49E0"/>
<path d="M2.9716 9.29853C3.05777 9.35133 3.15688 9.37921 3.25794 9.37909C3.45053 9.37936 3.62933 9.2792 3.72966 9.11481C3.84001 8.93495 3.9533 8.75766 4.06953 8.58295C4.23925 8.32973 4.17157 7.98688 3.91835 7.81715C3.66514 7.64743 3.32228 7.71511 3.15256 7.96833C3.02677 8.15591 2.90521 8.34644 2.78787 8.53991C2.71158 8.66486 2.68808 8.81501 2.72253 8.9573C2.75699 9.09958 2.84659 9.22234 2.9716 9.29853Z" fill="#3B49E0"/>
<path d="M4.96409 7.09539C5.1198 7.09546 5.26828 7.02974 5.37292 6.91443C5.51361 6.75884 5.65871 6.60712 5.80657 6.4576C6.02139 6.24126 6.02016 5.89173 5.80382 5.67691C5.58747 5.46209 5.23795 5.46333 5.02313 5.67967C4.86313 5.84077 4.70754 6.00574 4.55526 6.17291C4.40854 6.3346 4.37097 6.5676 4.45944 6.76721C4.5479 6.96683 4.74576 7.09549 4.96409 7.09539Z" fill="#3B49E0"/>
<path d="M7.17206 5.10297C7.29011 5.10214 7.40479 5.06346 7.49923 4.99263C7.64488 4.88228 7.79385 4.77966 7.94447 4.67704C8.10748 4.56616 8.19896 4.37675 8.18445 4.18014C8.16993 3.98353 8.05163 3.80959 7.8741 3.72386C7.69657 3.63812 7.48679 3.65361 7.32378 3.76449C7.16102 3.87483 7.00157 3.98794 6.84378 4.10435C6.6542 4.24653 6.57658 4.4939 6.65096 4.7189C6.72534 4.9439 6.93508 5.09627 7.17206 5.09745V5.10297Z" fill="#3B49E0"/>
<path d="M9.47202 3.709C9.55553 3.7091 9.63797 3.69023 9.71313 3.65383C9.86026 3.58284 10.0074 3.51425 10.1545 3.44804C10.3345 3.36762 10.4579 3.1973 10.4782 3.00123C10.4985 2.80517 10.4127 2.61315 10.2531 2.49751C10.0935 2.38187 9.88426 2.36017 9.7043 2.44059C9.5443 2.51231 9.38651 2.58625 9.22927 2.66128C8.99742 2.77356 8.87413 3.03134 8.93225 3.28231C8.99037 3.53328 9.21442 3.71007 9.47202 3.709Z" fill="#3B49E0"/>
</g>
<defs>
<clipPath id="clip0_28322_792">
<rect width="32" height="32" fill="white"/>
</clipPath>
</defs>
</svg>
