<svg width="28" height="28" viewBox="0 0 28 28" fill="none" xmlns="http://www.w3.org/2000/svg">
<path d="M14.0007 5.83301C7.08815 5.83301 1.45898 11.4622 1.45898 18.3747C1.45898 19.4305 1.59315 20.4863 1.84982 21.4955C1.86148 21.5363 1.87315 21.5772 1.89065 21.6122C1.91398 21.6647 1.93732 21.7113 1.95482 21.7347C1.98398 21.7813 2.00732 21.8222 2.04815 21.863C2.07148 21.8922 2.14148 21.9505 2.17065 21.9738C2.21732 22.0088 2.25815 22.038 2.30482 22.0613C2.33398 22.0788 2.42148 22.108 2.45648 22.1197C2.49148 22.1313 2.53815 22.143 2.59648 22.1488C2.63148 22.1605 2.66648 22.1663 2.70148 22.1663H25.3057C25.4748 22.1663 25.644 22.1138 25.7782 22.0205C25.8015 22.003 25.8423 21.9797 25.8598 21.9622C25.9765 21.863 26.064 21.7405 26.1107 21.6122C26.1282 21.5772 26.1398 21.548 26.1457 21.513C26.4082 20.4922 26.5423 19.4363 26.5423 18.3805C26.5423 11.4622 20.9132 5.83301 14.0007 5.83301ZM24.594 20.4163H3.40732C3.27315 19.7338 3.20898 19.0513 3.20898 18.3747C3.20898 12.4247 8.05065 7.58301 14.0007 7.58301C19.9507 7.58301 24.7923 12.4247 24.7923 18.3747C24.7923 19.0513 24.7282 19.7338 24.594 20.4163Z" fill="#3B49E0"/>
<path d="M10.2018 11.7663C10.1026 11.6554 9.93928 11.6321 9.81678 11.7138C9.69428 11.7954 9.65345 11.9588 9.71761 12.0871L13.0076 18.6029C13.0484 18.6846 13.1068 18.7663 13.1651 18.8363C13.3693 19.0754 13.6551 19.2213 13.9643 19.2446C13.9934 19.2446 14.0226 19.2504 14.0576 19.2504C14.3376 19.2504 14.6059 19.1513 14.8218 18.9704C15.0609 18.7663 15.2068 18.4804 15.2301 18.1713C15.2534 17.8621 15.1543 17.5529 14.9501 17.3196L10.2018 11.7663Z" fill="#3B49E0"/>
</svg>
