<svg width="28" height="28" viewBox="0 0 28 28" fill="none" xmlns="http://www.w3.org/2000/svg">
<g clip-path="url(#clip0_28322_731)">
<path d="M5.16617 24.8604C5.28159 24.9543 5.42051 25.0001 5.55853 25.0001C5.7392 25.0001 5.91841 24.9218 6.0413 24.7708C6.25818 24.5043 6.21802 24.1125 5.95165 23.8957C4.11397 22.3996 2.75781 20.4619 1.9849 18.2962C4.32463 18.7697 6.72995 19.1019 9.17716 19.2901C9.29113 20.4134 9.44187 21.4932 9.62751 22.5092C9.6893 22.8471 10.0132 23.0708 10.3512 23.0093C10.6892 22.9475 10.913 22.6235 10.8513 22.2856C10.683 21.3648 10.5443 20.3888 10.4366 19.3741C11.4489 19.4312 12.4682 19.464 13.492 19.4721C13.4937 19.4721 13.4954 19.4721 13.4971 19.4721C13.8384 19.4721 14.1163 19.1968 14.119 18.8549C14.1217 18.5114 13.8454 18.2307 13.5019 18.228C12.4354 18.2196 11.3742 18.1839 10.3208 18.1212C10.2155 16.789 10.1614 15.404 10.1614 13.9997C10.1614 12.8378 10.1979 11.6973 10.2682 10.5956C11.4938 10.6777 12.7378 10.7188 13.998 10.7188C15.252 10.7188 16.4967 10.6771 17.7265 10.5942C17.7845 11.494 17.8199 12.4185 17.8308 13.3577C17.8349 13.6988 18.1125 13.9725 18.4527 13.9725C18.4551 13.9725 18.4576 13.9725 18.4601 13.9725C18.8036 13.9685 19.0788 13.6868 19.0748 13.3433C19.0635 12.3768 19.0267 11.4246 18.9661 10.4962C20.3496 10.3704 21.7115 10.1918 23.0436 9.96093C23.382 9.90226 23.6089 9.58032 23.5503 9.2418C23.4916 8.90334 23.1695 8.67623 22.8311 8.73512C21.5372 8.9594 20.2142 9.13315 18.8697 9.25569C18.6045 6.32164 18.0967 3.68914 17.4033 1.70314C20.0046 2.41826 22.3265 3.95012 24.0422 6.13932C24.2541 6.40976 24.645 6.45711 24.9155 6.24527C25.1859 6.03337 25.2333 5.64239 25.0214 5.37201C22.3466 1.95927 18.3288 0.00195312 13.9978 0.00195312C13.1521 0.00195312 12.3232 0.0774261 11.5185 0.221806C11.5 0.224363 11.4814 0.227681 11.4632 0.231897C6.86334 1.07675 3.04242 4.1775 1.19513 8.34096C1.17591 8.37538 1.15967 8.41208 1.14702 8.45071C0.409296 10.1529 0 12.0296 0 13.9997C0 18.2291 1.88302 22.1877 5.16617 24.8604ZM12.0384 1.39627C12.6773 1.29737 13.3316 1.24601 13.9978 1.24601C14.6601 1.24601 15.3145 1.29626 15.9563 1.39461C16.7569 3.33023 17.3416 6.14526 17.6307 9.35369C16.4327 9.43428 15.2199 9.47471 13.9978 9.47471C12.7696 9.47471 11.5568 9.4347 10.363 9.35508C10.6497 6.14837 11.2317 3.34474 12.0384 1.39627ZM10.5899 1.70832C9.89311 3.70048 9.38761 6.32448 9.12435 9.25762C6.88304 9.05408 4.71202 8.70803 2.6296 8.2216C4.23782 5.0706 7.11886 2.67191 10.5899 1.70832ZM1.24406 13.9997C1.24406 12.3704 1.55134 10.811 2.11076 9.37733C4.32629 9.90744 6.63941 10.2819 9.02877 10.4981C8.9553 11.6334 8.91722 12.8064 8.91722 13.9997C8.91722 15.3709 8.96767 16.7255 9.06623 18.0335C6.51494 17.8285 4.01216 17.4637 1.585 16.9419C1.36024 15.9888 1.24406 15.0026 1.24406 13.9997ZM23.0202 1.42191C24.045 1.19065 25.4238 1.07254 26.1745 1.82312C27.0518 2.70046 26.9201 4.67388 25.8131 7.23748C24.6787 9.86417 22.6221 12.9107 19.9929 15.867C19.5208 15.5205 18.9385 15.3156 18.3093 15.3156C16.7371 15.3156 15.458 16.5947 15.458 18.167C15.458 19.7392 16.7371 21.0183 18.3093 21.0183C19.8815 21.0183 21.1606 19.7392 21.1606 18.167C21.1606 17.6767 21.0362 17.2149 20.8173 16.8116C23.5829 13.7215 25.7546 10.5108 26.9552 7.73068C28.3139 4.58431 28.3481 2.23725 27.0542 0.943361C26.4189 0.307992 25.1557 -0.335256 22.7465 0.208329C22.4114 0.28394 22.201 0.616934 22.2766 0.952001C22.3522 1.28707 22.6852 1.49766 23.0202 1.42191ZM18.3093 19.7742C17.423 19.7742 16.702 19.0532 16.702 18.167C16.702 17.2807 17.423 16.5597 18.3093 16.5597C19.1955 16.5597 19.9165 17.2807 19.9165 18.167C19.9165 19.0532 19.1955 19.7742 18.3093 19.7742ZM15.3983 22.0345C12.4685 24.46 9.47615 26.3169 6.97248 27.2635C5.67679 27.7533 4.53004 27.9978 3.55594 27.9978C2.45142 27.9978 1.56883 27.6835 0.941408 27.0561C0.309011 26.4237 -0.332855 25.1674 0.200639 22.774C0.275421 22.4387 0.607931 22.2274 0.943136 22.3022C1.27848 22.3769 1.48969 22.7094 1.41498 23.0446C1.18835 24.0614 1.07487 25.4301 1.82117 26.1764C2.61868 26.974 4.29194 26.9468 6.53256 26.0997C8.91127 25.2005 11.7781 23.4164 14.6049 21.0761C14.8695 20.8571 15.2617 20.894 15.4807 21.1586C15.6998 21.4232 15.6629 21.8154 15.3983 22.0345ZM27.7157 11.2017C27.9014 12.1178 27.9957 13.0592 27.9957 13.9997C27.9957 15.2429 27.8327 16.4491 27.5271 17.5975C27.5227 17.6184 27.5171 17.639 27.5106 17.6592C26.1137 22.811 21.8417 26.793 16.5315 27.7679C16.5138 27.7719 16.496 27.7751 16.478 27.7776C15.6729 27.9221 14.844 27.9976 13.9979 27.9976C12.9788 27.9976 11.9613 27.8874 10.9737 27.6699C10.6382 27.596 10.4261 27.2642 10.5 26.9287C10.5738 26.5931 10.9059 26.381 11.2413 26.455C12.1412 26.6531 13.0686 26.7535 13.998 26.7535C14.6642 26.7535 15.3182 26.7023 15.957 26.6034C16.3775 25.5837 16.7523 24.2762 17.0474 22.7956C17.1145 22.4587 17.4421 22.24 17.7789 22.3071C18.1159 22.3742 18.3345 22.7018 18.2674 23.0387C18.0236 24.262 17.7352 25.3509 17.4061 26.2913C21.4031 25.1817 24.6168 22.1702 26.0069 18.297C25.0436 18.4918 24.0648 18.6636 23.0851 18.8097C22.745 18.8602 22.4288 18.626 22.3781 18.2861C22.3274 17.9464 22.5618 17.6298 22.9016 17.5791C24.0812 17.4032 25.2593 17.1893 26.4091 16.9424C26.6332 15.9974 26.7517 15.0124 26.7517 13.9998C26.7517 13.1421 26.6659 12.284 26.4966 11.4492C26.4283 11.1125 26.6458 10.7842 26.9825 10.7159C27.3189 10.6476 27.6474 10.865 27.7157 11.2017Z" fill="#3B49E0"/>
</g>
<defs>
<clipPath id="clip0_28322_731">
<rect width="28" height="28" fill="white"/>
</clipPath>
</defs>
</svg>
