<svg width="18" height="16" viewBox="0 0 18 16" fill="none" xmlns="http://www.w3.org/2000/svg">
<path fill-rule="evenodd" clip-rule="evenodd" d="M7.80301 15.6061C3.49887 15.6061 0 12.1072 0 7.80305C0 3.49892 3.49887 0 7.80301 0C9.96973 0 11.99 0.863767 13.4833 2.44485C13.5588 2.52997 13.5505 2.62531 13.5022 2.69461L13.9602 3.29321C14.0475 3.24874 14.161 3.25791 14.23 3.36712C15.1377 4.67008 15.6062 6.20727 15.6062 7.80301C15.6061 12.1072 12.1072 15.6061 7.80301 15.6061ZM7.80301 13.9957C4.39192 13.9957 1.61036 11.2141 1.61036 7.80305C1.61036 4.39196 4.39192 1.61035 7.80301 1.61035C9.42802 1.61035 10.9653 2.23985 12.1218 3.36716C12.2148 3.45893 12.2003 3.56843 12.1398 3.64209L12.7196 4.36164C12.808 4.30991 12.9303 4.31489 13.0001 4.42123C15.6321 8.42636 12.7758 13.9957 7.80301 13.9957Z" fill="#002101" fill-opacity="0.2"/>
<path fill-rule="evenodd" clip-rule="evenodd" d="M8.00717 11.8145C7.91935 11.8145 7.84614 11.7559 7.81687 11.6827C7.80225 11.6535 6.54319 8.4034 4.59608 7.17364C4.21543 6.93941 3.9227 6.69052 4.03979 6.13419C4.15689 5.59252 4.52291 5.28508 5.18168 5.13867C6.35284 4.88978 7.61187 6.70514 8.08038 7.45181C9.72001 5.06551 12.9993 1.31766 17.7719 0.878468C18.0022 0.851478 18.0873 1.19276 17.8744 1.28839C17.8012 1.31766 10.979 4.43602 8.21209 11.6974C8.1682 11.7706 8.09499 11.8145 8.00717 11.8145Z" fill="#002101"/>
</svg>
