<svg width="91" height="91" viewBox="0 0 91 91" fill="none" xmlns="http://www.w3.org/2000/svg">
<mask id="mask0_487_491" style="mask-type:alpha" maskUnits="userSpaceOnUse" x="0" y="0" width="91" height="91">
<rect width="90.309" height="90.309" rx="28" fill="#323232"/>
</mask>
<g mask="url(#mask0_487_491)">
<rect width="90.309" height="90.309" rx="28" fill="#535353"/>
<g filter="url(#filter0_f_487_491)">
<circle cx="45.1545" cy="12.9014" r="29.0279" fill="#A19E9E"/>
</g>
</g>
<g opacity="0.64" clip-path="url(#clip0_487_491)">
<path d="M64.4943 41.0586C65.5187 37.9838 65.166 34.6154 63.5277 31.8187C61.0639 27.5289 56.1109 25.3219 51.2736 26.3605C49.1217 23.9362 46.03 22.5576 42.7887 22.5774C37.8442 22.5661 33.457 25.7495 31.9358 30.4542C28.7594 31.1047 26.0176 33.093 24.4132 35.9109C21.9311 40.1894 22.4969 45.5826 25.813 49.2515C24.7886 52.3263 25.1414 55.6946 26.7796 58.4914C29.2435 62.7812 34.1964 64.9882 39.0337 63.9495C41.1843 66.3739 44.2773 67.7525 47.5187 67.7313C52.466 67.744 56.8545 64.5577 58.3758 59.8489C61.5522 59.1983 64.2939 57.2101 65.8984 54.3921C68.3778 50.1137 67.8105 44.7247 64.4958 41.0558L64.4943 41.0586ZM47.5215 64.7808C45.5418 64.7836 43.624 64.0907 42.1043 62.8222C42.1734 62.7855 42.2934 62.7192 42.371 62.6712L51.3625 57.4783C51.8226 57.2173 52.1048 56.7276 52.1019 56.1985V43.5223L55.9021 45.7167C55.943 45.7364 55.9698 45.7759 55.9754 45.8211V56.3183C55.9698 60.9863 52.1894 64.7709 47.5215 64.7808ZM29.3407 57.0154C28.3487 55.3024 27.9917 53.2943 28.3318 51.3456C28.3981 51.3851 28.5153 51.4571 28.5985 51.5051L37.5901 56.6979C38.0459 56.9646 38.6103 56.9646 39.0675 56.6979L50.0445 50.3592V54.7477C50.0473 54.7929 50.0262 54.8366 49.9909 54.8648L40.902 60.1127C36.8535 62.4439 31.6832 61.0582 29.3421 57.0153L29.3407 57.0154ZM26.9744 37.3883C27.9621 35.6724 29.5214 34.36 31.3784 33.6785C31.3784 33.7561 31.3742 33.893 31.3742 33.9889V44.3761C31.3714 44.9039 31.6536 45.3935 32.1122 45.6546L43.0892 51.9919L39.2891 54.1861C39.251 54.2115 39.203 54.2157 39.1607 54.1974L30.0704 48.9453C26.0303 46.6056 24.6447 41.4368 26.9729 37.3897L26.9744 37.3883ZM58.1965 44.6541L47.2194 38.3154L51.0196 36.1226C51.0577 36.0972 51.1056 36.0929 51.148 36.1113L60.2383 41.3592C64.2854 43.6973 65.6725 48.8747 63.3343 52.9218C62.3451 54.6348 60.7872 55.9472 58.9317 56.6302V45.9325C58.9359 45.4048 58.6551 44.9166 58.1979 44.6541H58.1965ZM61.9783 38.9616C61.9119 38.9207 61.7948 38.8502 61.7116 38.8022L52.72 33.6093C52.2642 33.3426 51.6998 33.3426 51.2426 33.6093L40.2656 39.948V35.5594C40.2627 35.5143 40.2839 35.4706 40.3192 35.4423L49.4081 30.1987C53.4566 27.8633 58.6325 29.2533 60.9665 33.3031C61.9529 35.0134 62.3099 37.0158 61.9754 38.9616H61.9783ZM38.1997 46.7834L34.3982 44.5892C34.3573 44.5694 34.3305 44.5299 34.3248 44.4848V33.9875C34.3277 29.3139 38.1193 25.5265 42.7929 25.5293C44.7698 25.5293 46.6833 26.2236 48.2031 27.4879C48.1339 27.5246 48.0154 27.5909 47.9364 27.6389L38.9448 32.8318C38.4848 33.0929 38.2026 33.5811 38.2054 34.1103L38.1997 46.7806V46.7834ZM40.2642 42.3328L45.1536 39.5091L50.0431 42.3314V47.9772L45.1536 50.7994L40.2642 47.9772V42.3328Z" fill="white"/>
</g>
<defs>
<filter id="filter0_f_487_491" x="-27.8734" y="-60.1265" width="146.056" height="146.056" filterUnits="userSpaceOnUse" color-interpolation-filters="sRGB">
<feFlood flood-opacity="0" result="BackgroundImageFix"/>
<feBlend mode="normal" in="SourceGraphic" in2="BackgroundImageFix" result="shape"/>
<feGaussianBlur stdDeviation="22" result="effect1_foregroundBlur_487_491"/>
</filter>
<clipPath id="clip0_487_491">
<rect width="45.1545" height="45.1545" fill="white" transform="translate(22.5772 22.5771)"/>
</clipPath>
</defs>
</svg>
