<svg width="91" height="91" viewBox="0 0 91 91" fill="none" xmlns="http://www.w3.org/2000/svg">
<mask id="mask0_487_484" style="mask-type:alpha" maskUnits="userSpaceOnUse" x="0" y="0" width="91" height="91">
<rect width="90.309" height="90.309" rx="28" fill="#323232"/>
</mask>
<g mask="url(#mask0_487_484)">
<rect width="90.309" height="90.309" rx="28" fill="#7B7837"/>
<g opacity="0.6" filter="url(#filter0_f_487_484)">
<circle cx="45.1544" cy="12.9014" r="29.0279" fill="white"/>
</g>
</g>
<g opacity="0.64" clip-path="url(#clip0_487_484)">
<path d="M38.5987 24C31.6638 24.5132 25.7684 24.9851 25.4912 25.0404C24.714 25.179 24.007 25.7061 23.6746 26.4L23.3833 27.0105L23.4114 41.561L23.4526 56.1115L23.8965 57.0132C24.1465 57.5123 25.8385 59.8429 27.6832 62.242C31.3314 66.9717 31.5945 67.2357 32.9813 67.3743C33.3839 67.4155 36.4075 67.277 39.6811 67.0831C42.9688 66.8752 48.2388 66.5559 51.4019 66.3761C64.9112 65.5559 64.2173 65.6252 64.9936 64.9595C65.9647 64.1551 65.8954 65.4726 65.9366 47.788C65.9647 32.7937 65.9506 31.8095 65.7287 31.3516C65.4656 30.8384 64.9936 30.4779 58.835 26.15C54.7158 23.265 54.4246 23.1123 52.5791 23.0843C51.8168 23.0571 45.5196 23.4729 38.5987 24ZM54.1887 25.9C54.7711 26.1631 59.0298 29.1315 59.6534 29.7008C59.8201 29.8674 59.8753 30.006 59.792 30.0893C59.5982 30.256 33.2436 31.8235 32.4813 31.7121C32.1349 31.6568 31.6217 31.449 31.3305 31.2542C30.1235 30.4358 27.128 27.9806 27.128 27.8008C27.128 27.3289 27.0306 27.3289 38.7794 26.4833C41.0267 26.3307 44.7161 26.0535 46.9634 25.8728C51.8308 25.4842 53.2878 25.4982 54.1887 25.9ZM62.5665 33.4875C62.7604 33.6814 62.927 34.0559 62.9823 34.4164C63.0235 34.7497 63.0516 40.9636 63.0235 48.2038C62.9823 60.6315 62.9682 61.4087 62.7323 61.7692C62.5937 61.9911 62.3165 62.2271 62.1077 62.2964C61.5262 62.5323 33.9102 64.0998 33.3418 63.9332C33.0787 63.8639 32.7173 63.642 32.5234 63.4481L32.1901 63.0876L32.1489 49.6888C32.1208 40.2847 32.1489 36.1234 32.2603 35.7488C32.3436 35.4717 32.5515 35.1383 32.7322 35.0278C32.9822 34.8611 34.619 34.7226 40.2504 34.3901C44.2038 34.1682 50.3203 33.7936 53.8299 33.5857C62.1779 33.0717 62.1507 33.0717 62.5665 33.4875Z" fill="white"/>
<path d="M55.1456 38.0785C53.6474 38.1759 52.3159 38.3145 52.1633 38.3978C51.7054 38.6337 51.4282 39.0223 51.3729 39.4662C51.3317 39.9241 51.4703 39.9793 52.9676 40.16L53.6194 40.2434V46.166C53.6194 49.6887 53.5641 52.0194 53.4948 51.9501C53.4255 51.8667 51.4563 48.8712 49.1116 45.2923C46.7678 41.7003 44.8257 38.7451 44.7977 38.718C44.7696 38.6899 43.2442 38.7732 41.4136 38.8986C39.1662 39.0513 37.9321 39.1899 37.6821 39.3285C37.2795 39.5364 36.8356 40.2714 36.8356 40.7574C36.8356 41.0486 37.3628 41.2012 38.4724 41.2012H39.0548V58.2341L38.1119 58.5253C37.3768 58.7472 37.1268 58.8858 37.0023 59.163C36.7803 59.6349 36.7944 60.0648 37.0163 60.0648C37.0996 60.0648 38.6671 59.9674 40.4697 59.8569C44.0345 59.649 44.4363 59.5516 44.8108 58.8165C44.9222 58.5946 45.0187 58.3587 45.0187 58.2894C45.0187 58.2341 44.5336 58.0674 43.9503 57.9288C43.3539 57.7903 42.7574 57.6517 42.6328 57.6236C42.3969 57.5543 42.3828 57.1245 42.3828 51.1597V44.7652L46.5994 51.3816C51.0238 58.3166 51.5791 59.1078 52.2589 59.4542C53.1053 59.8981 55.2553 59.5928 56.3368 58.8858L56.6702 58.6779L56.6982 49.2186L56.7395 39.7451L57.4745 39.6065C58.3482 39.4399 58.7508 39.0381 58.7508 38.3443C58.7508 37.9004 58.7227 37.8724 58.307 37.8864C58.0587 37.8978 56.6298 37.9811 55.1456 38.0785Z" fill="white"/>
</g>
<defs>
<filter id="filter0_f_487_484" x="-27.8734" y="-60.1265" width="146.056" height="146.056" filterUnits="userSpaceOnUse" color-interpolation-filters="sRGB">
<feFlood flood-opacity="0" result="BackgroundImageFix"/>
<feBlend mode="normal" in="SourceGraphic" in2="BackgroundImageFix" result="shape"/>
<feGaussianBlur stdDeviation="22" result="effect1_foregroundBlur_487_484"/>
</filter>
<clipPath id="clip0_487_484">
<rect width="42.5813" height="45.3186" fill="white" transform="translate(23.3833 22.5771)"/>
</clipPath>
</defs>
</svg>
