<svg width="91" height="91" viewBox="0 0 91 91" fill="none" xmlns="http://www.w3.org/2000/svg">
<mask id="mask0_487_470" style="mask-type:alpha" maskUnits="userSpaceOnUse" x="0" y="0" width="91" height="91">
<rect width="90.309" height="90.309" rx="28" fill="#323232"/>
</mask>
<g mask="url(#mask0_487_470)">
<rect width="90.309" height="90.309" rx="28" fill="#3E6B4A"/>
<g opacity="0.6" filter="url(#filter0_f_487_470)">
<circle cx="45.1545" cy="12.9014" r="29.0279" fill="white"/>
</g>
</g>
<g opacity="0.64" clip-path="url(#clip0_487_470)">
<path d="M45.1544 67.7316C57.6171 67.7316 67.7317 57.617 67.7317 45.1544C67.7317 32.6918 57.6171 22.5771 45.1544 22.5771C32.6918 22.5771 22.5772 32.6918 22.5772 45.1544C22.5772 57.617 32.6918 67.7316 45.1544 67.7316ZM54.3208 55.7958C52.8025 55.7958 48.0067 50.477 34.5281 53.2389C34.1725 53.3311 33.7078 53.476 33.4444 53.476C31.7229 53.476 31.3936 50.9003 33.2449 50.5071C40.7011 48.8608 48.3209 49.0057 54.8194 52.8927C56.3697 53.8824 55.7112 55.7958 54.3208 55.7958ZM56.7723 49.826C56.5597 49.7696 56.6218 49.9558 55.6491 49.4441C49.9577 46.0763 41.4762 44.7179 33.9279 46.7668C33.4914 46.8853 33.2543 47.0038 32.8442 47.0038C30.8292 47.0038 30.2948 43.9728 32.4905 43.3539C41.3633 40.861 50.8815 42.3153 57.5079 46.2569C58.2455 46.6934 58.5371 47.2597 58.5371 48.0499C58.5277 49.032 57.7638 49.826 56.7723 49.826ZM31.134 35.7434C39.6437 33.2524 52.5221 34.0389 60.5295 38.7124C62.5822 39.8958 61.775 42.8891 59.5926 42.8891L59.5907 42.8873C59.1166 42.8873 58.825 42.7687 58.4148 42.5317C51.937 38.6634 40.3455 37.7359 32.8461 39.8299C32.5168 39.9202 32.1067 40.0651 31.6702 40.0651C30.4679 40.0651 29.5498 39.1263 29.5498 37.9165C29.5498 36.6804 30.3155 35.9805 31.134 35.7434Z" fill="white"/>
</g>
<defs>
<filter id="filter0_f_487_470" x="-27.8734" y="-60.1265" width="146.056" height="146.056" filterUnits="userSpaceOnUse" color-interpolation-filters="sRGB">
<feFlood flood-opacity="0" result="BackgroundImageFix"/>
<feBlend mode="normal" in="SourceGraphic" in2="BackgroundImageFix" result="shape"/>
<feGaussianBlur stdDeviation="22" result="effect1_foregroundBlur_487_470"/>
</filter>
<clipPath id="clip0_487_470">
<rect width="45.1545" height="45.1545" fill="white" transform="translate(22.5772 22.5771)"/>
</clipPath>
</defs>
</svg>
