<svg width="91" height="91" viewBox="0 0 91 91" fill="none" xmlns="http://www.w3.org/2000/svg">
<mask id="mask0_487_456" style="mask-type:alpha" maskUnits="userSpaceOnUse" x="0" y="0" width="91" height="91">
<rect width="90.309" height="90.309" rx="28" fill="#323232"/>
</mask>
<g mask="url(#mask0_487_456)">
<rect width="90.309" height="90.309" rx="28" fill="#323232"/>
<g filter="url(#filter0_f_487_456)">
<circle cx="45.1543" cy="12.9014" r="29.0279" fill="#797979"/>
</g>
</g>
<g opacity="0.64" clip-path="url(#clip0_487_456)">
<path d="M64.041 39.1031L67.7316 35.0878H59.5475C55.4503 32.2892 50.5022 30.6592 45.1509 30.6592C39.8064 30.6592 34.8721 32.2927 30.7818 35.0878H22.5771L26.2677 39.1031C24.0056 41.1669 22.5875 44.14 22.5875 47.4409C22.5875 53.6704 27.6381 58.721 33.8676 58.721C36.8269 58.721 39.5229 57.5797 41.5358 55.7139L45.1511 59.6505L48.7665 55.7173C50.7792 57.5831 53.4719 58.7209 56.4312 58.7209C62.6606 58.7209 67.718 53.6703 67.718 47.4409C67.7213 44.1366 66.3033 41.1636 64.041 39.1031ZM33.8709 55.0749C29.654 55.0749 26.2369 51.6578 26.2369 47.4409C26.2369 43.2241 29.6541 39.8069 33.8709 39.8069C38.0876 39.8069 41.5048 43.2241 41.5048 47.4409C41.5048 51.6578 38.0876 55.0749 33.8709 55.0749ZM45.1544 47.2189C45.1544 42.1956 41.5014 37.8832 36.6798 36.0413C39.287 34.9511 42.1473 34.3463 45.1509 34.3463C48.1546 34.3463 51.0181 34.9511 53.6255 36.0413C48.8074 37.8865 45.1544 42.1956 45.1544 47.2189ZM56.4345 55.0749C52.2177 55.0749 48.8005 51.6578 48.8005 47.4409C48.8005 43.2241 52.2177 39.8069 56.4345 39.8069C60.6514 39.8069 64.0685 43.2241 64.0685 47.4409C64.0685 51.6578 60.6513 55.0749 56.4345 55.0749ZM56.4345 43.436C54.2235 43.436 52.433 45.2266 52.433 47.4375C52.433 49.6484 54.2235 51.439 56.4345 51.439C58.6454 51.439 60.436 49.6483 60.436 47.4375C60.4359 45.2301 58.6453 43.436 56.4345 43.436ZM37.8724 47.4409C37.8724 49.6518 36.0818 51.4424 33.871 51.4424C31.6601 51.4424 29.8695 49.6518 29.8695 47.4409C29.8695 45.23 31.6602 43.4394 33.871 43.4394C36.0818 43.436 37.8724 45.2301 37.8724 47.4409Z" fill="white"/>
</g>
<defs>
<filter id="filter0_f_487_456" x="-27.8736" y="-60.1265" width="146.056" height="146.056" filterUnits="userSpaceOnUse" color-interpolation-filters="sRGB">
<feFlood flood-opacity="0" result="BackgroundImageFix"/>
<feBlend mode="normal" in="SourceGraphic" in2="BackgroundImageFix" result="shape"/>
<feGaussianBlur stdDeviation="22" result="effect1_foregroundBlur_487_456"/>
</filter>
<clipPath id="clip0_487_456">
<rect width="45.1545" height="45.1545" fill="white" transform="translate(22.5771 22.5776)"/>
</clipPath>
</defs>
</svg>
