<svg width="91" height="91" viewBox="0 0 91 91" fill="none" xmlns="http://www.w3.org/2000/svg">
<mask id="mask0_487_476" style="mask-type:alpha" maskUnits="userSpaceOnUse" x="0" y="0" width="91" height="91">
<rect width="90.309" height="90.309" rx="28" fill="#323232"/>
</mask>
<g mask="url(#mask0_487_476)">
<rect width="90.309" height="90.309" rx="28" fill="#5D3F79"/>
<g opacity="0.6" filter="url(#filter0_f_487_476)">
<circle cx="45.1543" cy="12.9009" r="29.0279" fill="white"/>
</g>
</g>
<g opacity="0.64" clip-path="url(#clip0_487_476)">
<path d="M45.1516 23.0474C32.6862 23.0474 22.5772 33.1958 22.5772 45.7149C22.5772 55.7279 29.0456 64.2226 38.02 67.2226C39.1489 67.4314 39.5609 66.7315 39.5609 66.1304C39.5609 65.5914 39.5412 64.1662 39.5299 62.2753C33.2506 63.6441 31.9242 59.2359 31.9242 59.2359C30.8997 56.6169 29.4181 55.9198 29.4181 55.9198C27.3664 54.5144 29.5705 54.5426 29.5705 54.5426C31.8367 54.7035 33.0277 56.8794 33.0277 56.8794C35.0427 60.3421 38.3135 59.3431 39.6005 58.7617C39.8036 57.297 40.3878 56.298 41.0341 55.7307C36.022 55.1578 30.7502 53.2134 30.7502 44.5296C30.7502 42.0546 31.6307 40.0311 33.0756 38.445C32.8414 37.8721 32.0681 35.5664 33.2958 32.448C33.2958 32.448 35.1922 31.8384 39.5045 34.7706C41.305 34.2683 43.2354 34.0171 45.1573 34.0086C47.0735 34.0199 49.0067 34.2683 50.8101 34.7734C55.1195 31.8412 57.0132 32.4508 57.0132 32.4508C58.2436 35.5721 57.4703 37.875 57.2389 38.4479C58.6867 40.0339 59.5587 42.0574 59.5587 44.5324C59.5587 53.2388 54.2813 55.155 49.2522 55.7166C50.0622 56.4165 50.7847 57.7994 50.7847 59.9132C50.7847 62.9442 50.7564 65.3882 50.7564 66.1304C50.7564 66.7372 51.1628 67.4427 52.3086 67.2197C61.269 64.217 67.7317 55.7251 67.7317 45.7149C67.7317 33.1958 57.6227 23.0474 45.1516 23.0474Z" fill="white"/>
</g>
<defs>
<filter id="filter0_f_487_476" x="-27.8736" y="-60.127" width="146.056" height="146.056" filterUnits="userSpaceOnUse" color-interpolation-filters="sRGB">
<feFlood flood-opacity="0" result="BackgroundImageFix"/>
<feBlend mode="normal" in="SourceGraphic" in2="BackgroundImageFix" result="shape"/>
<feGaussianBlur stdDeviation="22" result="effect1_foregroundBlur_487_476"/>
</filter>
<clipPath id="clip0_487_476">
<rect width="45.1545" height="45.1545" fill="white" transform="translate(22.5772 22.5771)"/>
</clipPath>
</defs>
</svg>
