<svg width="872" height="175" viewBox="0 0 872 175" fill="none" xmlns="http://www.w3.org/2000/svg">
<g filter="url(#filter0_dd_462_9405)">
<mask id="path-1-outside-1_462_9405" maskUnits="userSpaceOnUse" x="6.88647" y="7.01123" width="858" height="161" fill="black">
<rect fill="white" x="6.88647" y="7.01123" width="858" height="161"/>
<path d="M8.00011 132.011V15.6476H53.9092C62.735 15.6476 70.2539 17.3332 76.466 20.7044C82.6781 24.0377 87.413 28.6779 90.6706 34.6249C93.966 40.534 95.6138 47.3521 95.6138 55.0794C95.6138 62.8067 93.9471 69.6249 90.6138 75.534C87.2804 81.443 82.4509 86.0453 76.1251 89.3408C69.8372 92.6362 62.2236 94.284 53.2842 94.284H24.0228V74.568H49.3069C54.0418 74.568 57.9433 73.7537 61.0115 72.1249C64.1175 70.4582 66.4281 68.1665 67.9433 65.2499C69.4963 62.2953 70.2728 58.9052 70.2728 55.0794C70.2728 51.2158 69.4963 47.8446 67.9433 44.9658C66.4281 42.0491 64.1175 39.7953 61.0115 38.2044C57.9054 36.5756 53.966 35.7612 49.1933 35.7612H32.6024V132.011H8.00011ZM106.339 132.011V44.7385H129.805V59.9658H130.714C132.305 54.5491 134.976 50.4582 138.726 47.6931C142.476 44.89 146.794 43.4885 151.68 43.4885C152.892 43.4885 154.199 43.5643 155.601 43.7158C157.002 43.8673 158.233 44.0756 159.294 44.3408V65.818C158.157 65.4771 156.586 65.1741 154.578 64.909C152.57 64.6438 150.733 64.5112 149.067 64.5112C145.506 64.5112 142.324 65.2877 139.521 66.8408C136.756 68.3559 134.559 70.4771 132.93 73.2044C131.339 75.9317 130.544 79.0756 130.544 82.6362V132.011H106.339ZM167.008 132.011V44.7385H191.213V132.011H167.008ZM179.167 33.4885C175.569 33.4885 172.482 32.2953 169.906 29.909C167.368 27.4847 166.099 24.587 166.099 21.2158C166.099 17.8824 167.368 15.0226 169.906 12.6362C172.482 10.212 175.569 8.99986 179.167 8.99986C182.766 8.99986 185.834 10.212 188.372 12.6362C190.947 15.0226 192.235 17.8824 192.235 21.2158C192.235 24.587 190.947 27.4847 188.372 29.909C185.834 32.2953 182.766 33.4885 179.167 33.4885ZM245.234 133.716C236.294 133.716 228.605 131.822 222.165 128.034C215.764 124.208 210.84 118.905 207.393 112.125C203.984 105.345 202.279 97.5415 202.279 88.7158C202.279 79.7764 204.003 71.9355 207.45 65.193C210.934 58.4127 215.878 53.1287 222.279 49.3408C228.681 45.515 236.294 43.6021 245.12 43.6021C252.734 43.6021 259.4 44.9847 265.12 47.7499C270.84 50.515 275.366 54.3976 278.7 59.3976C282.033 64.3976 283.87 70.2688 284.211 77.0112H261.37C260.726 72.6552 259.022 69.1514 256.256 66.4999C253.529 63.8105 249.95 62.4658 245.518 62.4658C241.768 62.4658 238.491 63.4885 235.688 65.534C232.923 67.5415 230.764 70.4771 229.211 74.3408C227.658 78.2044 226.881 82.8824 226.881 88.3749C226.881 93.943 227.639 98.6779 229.154 102.579C230.707 106.481 232.885 109.454 235.688 111.5C238.491 113.545 241.768 114.568 245.518 114.568C248.283 114.568 250.764 114 252.961 112.864C255.196 111.727 257.033 110.079 258.472 107.92C259.95 105.723 260.915 103.091 261.37 100.023H284.211C283.832 106.689 282.014 112.56 278.756 117.636C275.537 122.674 271.086 126.614 265.404 129.454C259.722 132.295 252.999 133.716 245.234 133.716ZM294.908 132.011V44.7385H319.113V132.011H294.908ZM307.067 33.4885C303.469 33.4885 300.382 32.2953 297.806 29.909C295.268 27.4847 293.999 24.587 293.999 21.2158C293.999 17.8824 295.268 15.0226 297.806 12.6362C300.382 10.212 303.469 8.99986 307.067 8.99986C310.666 8.99986 313.734 10.212 316.272 12.6362C318.847 15.0226 320.135 17.8824 320.135 21.2158C320.135 24.587 318.847 27.4847 316.272 29.909C313.734 32.2953 310.666 33.4885 307.067 33.4885ZM357.906 81.5567V132.011H333.702V44.7385H356.77V60.1362H357.793C359.725 55.0605 362.963 51.0453 367.509 48.0908C372.054 45.0984 377.565 43.6021 384.043 43.6021C390.103 43.6021 395.387 44.9279 399.895 47.5794C404.403 50.2309 407.906 54.0188 410.406 58.943C412.906 63.8294 414.156 69.6627 414.156 76.443V132.011H389.952V80.7612C389.99 75.4203 388.626 71.2537 385.861 68.2612C383.096 65.2309 379.289 63.7158 374.44 63.7158C371.183 63.7158 368.304 64.4165 365.804 65.818C363.342 67.2196 361.41 69.265 360.009 71.9544C358.645 74.6059 357.944 77.8067 357.906 81.5567ZM467.751 166.557C459.91 166.557 453.187 165.477 447.581 163.318C442.013 161.197 437.581 158.299 434.285 154.625C430.99 150.951 428.85 146.822 427.865 142.239L450.251 139.227C450.933 140.97 452.013 142.598 453.49 144.114C454.967 145.629 456.918 146.841 459.342 147.75C461.804 148.697 464.797 149.17 468.319 149.17C473.585 149.17 477.922 147.882 481.331 145.307C484.778 142.769 486.501 138.507 486.501 132.523V116.557H485.479C484.418 118.981 482.827 121.273 480.706 123.432C478.585 125.591 475.857 127.352 472.524 128.716C469.191 130.079 465.213 130.761 460.592 130.761C454.039 130.761 448.073 129.246 442.694 126.216C437.354 123.148 433.092 118.47 429.91 112.182C426.766 105.856 425.194 97.8635 425.194 88.2044C425.194 78.318 426.804 70.0605 430.024 63.4317C433.244 56.8029 437.524 51.8408 442.865 48.5453C448.244 45.2499 454.134 43.6021 460.535 43.6021C465.422 43.6021 469.513 44.4355 472.808 46.1021C476.104 47.7309 478.755 49.7764 480.763 52.2385C482.808 54.6627 484.38 57.0491 485.479 59.3976H486.388V44.7385H510.422V132.864C510.422 140.288 508.604 146.5 504.967 151.5C501.331 156.5 496.293 160.25 489.854 162.75C483.452 165.288 476.085 166.557 467.751 166.557ZM468.263 112.579C472.164 112.579 475.46 111.614 478.149 109.682C480.876 107.712 482.96 104.909 484.399 101.273C485.876 97.5984 486.615 93.2044 486.615 88.0908C486.615 82.9771 485.895 78.5453 484.456 74.7953C483.016 71.0074 480.933 68.0718 478.206 65.9885C475.479 63.9052 472.164 62.8635 468.263 62.8635C464.285 62.8635 460.933 63.943 458.206 66.1021C455.479 68.2233 453.414 71.1779 452.013 74.9658C450.611 78.7537 449.91 83.1287 449.91 88.0908C449.91 93.1287 450.611 97.4847 452.013 101.159C453.452 104.795 455.516 107.617 458.206 109.625C460.933 111.595 464.285 112.579 468.263 112.579ZM557.569 132.011V15.6476H603.478C612.304 15.6476 619.823 17.3332 626.035 20.7044C632.247 24.0377 636.982 28.6779 640.239 34.6249C643.535 40.534 645.182 47.3521 645.182 55.0794C645.182 62.8067 643.516 69.6249 640.182 75.534C636.849 81.443 632.02 86.0453 625.694 89.3408C619.406 92.6362 611.792 94.284 602.853 94.284H573.592V74.568H598.876C603.611 74.568 607.512 73.7537 610.58 72.1249C613.686 70.4582 615.997 68.1665 617.512 65.2499C619.065 62.2953 619.842 58.9052 619.842 55.0794C619.842 51.2158 619.065 47.8446 617.512 44.9658C615.997 42.0491 613.686 39.7953 610.58 38.2044C607.474 36.5756 603.535 35.7612 598.762 35.7612H582.171V132.011H557.569ZM680.113 15.6476V132.011H655.908V15.6476H680.113ZM719.588 133.659C714.02 133.659 709.058 132.693 704.702 130.761C700.346 128.792 696.899 125.894 694.361 122.068C691.861 118.204 690.611 113.394 690.611 107.636C690.611 102.788 691.501 98.7158 693.281 95.4203C695.062 92.1249 697.486 89.4734 700.554 87.4658C703.622 85.4582 707.107 83.943 711.009 82.9203C714.948 81.8976 719.077 81.1779 723.395 80.7612C728.471 80.2309 732.562 79.7385 735.668 79.284C738.774 78.7915 741.028 78.0718 742.429 77.1249C743.831 76.1779 744.531 74.7764 744.531 72.9203V72.5794C744.531 68.9809 743.395 66.1968 741.122 64.2271C738.887 62.2574 735.706 61.2726 731.577 61.2726C727.221 61.2726 723.755 62.2385 721.179 64.1703C718.603 66.0643 716.899 68.4506 716.065 71.3294L693.679 69.5112C694.815 64.2082 697.05 59.6249 700.384 55.7612C703.717 51.8597 708.016 48.8673 713.281 46.784C718.584 44.6627 724.721 43.6021 731.69 43.6021C736.539 43.6021 741.179 44.1703 745.611 45.3067C750.081 46.443 754.039 48.2044 757.486 50.5908C760.971 52.9771 763.717 56.0453 765.725 59.7953C767.732 63.5074 768.736 67.9582 768.736 73.1476V132.011H745.781V119.909H745.1C743.698 122.636 741.823 125.042 739.475 127.125C737.126 129.17 734.304 130.78 731.009 131.954C727.713 133.091 723.906 133.659 719.588 133.659ZM726.52 116.954C730.081 116.954 733.225 116.254 735.952 114.852C738.679 113.413 740.819 111.481 742.372 109.057C743.925 106.632 744.702 103.886 744.702 100.818V91.5567C743.944 92.0491 742.903 92.5037 741.577 92.9203C740.289 93.2991 738.831 93.659 737.202 93.9999C735.573 94.3029 733.944 94.587 732.315 94.8521C730.687 95.0794 729.209 95.2877 727.884 95.4771C725.043 95.8938 722.562 96.5567 720.44 97.4658C718.319 98.3749 716.672 99.6059 715.497 101.159C714.323 102.674 713.736 104.568 713.736 106.841C713.736 110.136 714.929 112.655 717.315 114.398C719.74 116.102 722.808 116.954 726.52 116.954ZM806.919 81.5567V132.011H782.714V44.7385H805.783V60.1362H806.805C808.737 55.0605 811.976 51.0453 816.521 48.0908C821.067 45.0984 826.578 43.6021 833.055 43.6021C839.116 43.6021 844.4 44.9279 848.908 47.5794C853.415 50.2309 856.919 54.0188 859.419 58.943C861.919 63.8294 863.169 69.6627 863.169 76.443V132.011H838.964V80.7612C839.002 75.4203 837.639 71.2537 834.873 68.2612C832.108 65.2309 828.301 63.7158 823.453 63.7158C820.195 63.7158 817.317 64.4165 814.817 65.818C812.354 67.2196 810.423 69.265 809.021 71.9544C807.658 74.6059 806.957 77.8067 806.919 81.5567Z"/>
</mask>
<path d="M8.00011 132.011V15.6476H53.9092C62.735 15.6476 70.2539 17.3332 76.466 20.7044C82.6781 24.0377 87.413 28.6779 90.6706 34.6249C93.966 40.534 95.6138 47.3521 95.6138 55.0794C95.6138 62.8067 93.9471 69.6249 90.6138 75.534C87.2804 81.443 82.4509 86.0453 76.1251 89.3408C69.8372 92.6362 62.2236 94.284 53.2842 94.284H24.0228V74.568H49.3069C54.0418 74.568 57.9433 73.7537 61.0115 72.1249C64.1175 70.4582 66.4281 68.1665 67.9433 65.2499C69.4963 62.2953 70.2728 58.9052 70.2728 55.0794C70.2728 51.2158 69.4963 47.8446 67.9433 44.9658C66.4281 42.0491 64.1175 39.7953 61.0115 38.2044C57.9054 36.5756 53.966 35.7612 49.1933 35.7612H32.6024V132.011H8.00011ZM106.339 132.011V44.7385H129.805V59.9658H130.714C132.305 54.5491 134.976 50.4582 138.726 47.6931C142.476 44.89 146.794 43.4885 151.68 43.4885C152.892 43.4885 154.199 43.5643 155.601 43.7158C157.002 43.8673 158.233 44.0756 159.294 44.3408V65.818C158.157 65.4771 156.586 65.1741 154.578 64.909C152.57 64.6438 150.733 64.5112 149.067 64.5112C145.506 64.5112 142.324 65.2877 139.521 66.8408C136.756 68.3559 134.559 70.4771 132.93 73.2044C131.339 75.9317 130.544 79.0756 130.544 82.6362V132.011H106.339ZM167.008 132.011V44.7385H191.213V132.011H167.008ZM179.167 33.4885C175.569 33.4885 172.482 32.2953 169.906 29.909C167.368 27.4847 166.099 24.587 166.099 21.2158C166.099 17.8824 167.368 15.0226 169.906 12.6362C172.482 10.212 175.569 8.99986 179.167 8.99986C182.766 8.99986 185.834 10.212 188.372 12.6362C190.947 15.0226 192.235 17.8824 192.235 21.2158C192.235 24.587 190.947 27.4847 188.372 29.909C185.834 32.2953 182.766 33.4885 179.167 33.4885ZM245.234 133.716C236.294 133.716 228.605 131.822 222.165 128.034C215.764 124.208 210.84 118.905 207.393 112.125C203.984 105.345 202.279 97.5415 202.279 88.7158C202.279 79.7764 204.003 71.9355 207.45 65.193C210.934 58.4127 215.878 53.1287 222.279 49.3408C228.681 45.515 236.294 43.6021 245.12 43.6021C252.734 43.6021 259.4 44.9847 265.12 47.7499C270.84 50.515 275.366 54.3976 278.7 59.3976C282.033 64.3976 283.87 70.2688 284.211 77.0112H261.37C260.726 72.6552 259.022 69.1514 256.256 66.4999C253.529 63.8105 249.95 62.4658 245.518 62.4658C241.768 62.4658 238.491 63.4885 235.688 65.534C232.923 67.5415 230.764 70.4771 229.211 74.3408C227.658 78.2044 226.881 82.8824 226.881 88.3749C226.881 93.943 227.639 98.6779 229.154 102.579C230.707 106.481 232.885 109.454 235.688 111.5C238.491 113.545 241.768 114.568 245.518 114.568C248.283 114.568 250.764 114 252.961 112.864C255.196 111.727 257.033 110.079 258.472 107.92C259.95 105.723 260.915 103.091 261.37 100.023H284.211C283.832 106.689 282.014 112.56 278.756 117.636C275.537 122.674 271.086 126.614 265.404 129.454C259.722 132.295 252.999 133.716 245.234 133.716ZM294.908 132.011V44.7385H319.113V132.011H294.908ZM307.067 33.4885C303.469 33.4885 300.382 32.2953 297.806 29.909C295.268 27.4847 293.999 24.587 293.999 21.2158C293.999 17.8824 295.268 15.0226 297.806 12.6362C300.382 10.212 303.469 8.99986 307.067 8.99986C310.666 8.99986 313.734 10.212 316.272 12.6362C318.847 15.0226 320.135 17.8824 320.135 21.2158C320.135 24.587 318.847 27.4847 316.272 29.909C313.734 32.2953 310.666 33.4885 307.067 33.4885ZM357.906 81.5567V132.011H333.702V44.7385H356.77V60.1362H357.793C359.725 55.0605 362.963 51.0453 367.509 48.0908C372.054 45.0984 377.565 43.6021 384.043 43.6021C390.103 43.6021 395.387 44.9279 399.895 47.5794C404.403 50.2309 407.906 54.0188 410.406 58.943C412.906 63.8294 414.156 69.6627 414.156 76.443V132.011H389.952V80.7612C389.99 75.4203 388.626 71.2537 385.861 68.2612C383.096 65.2309 379.289 63.7158 374.44 63.7158C371.183 63.7158 368.304 64.4165 365.804 65.818C363.342 67.2196 361.41 69.265 360.009 71.9544C358.645 74.6059 357.944 77.8067 357.906 81.5567ZM467.751 166.557C459.91 166.557 453.187 165.477 447.581 163.318C442.013 161.197 437.581 158.299 434.285 154.625C430.99 150.951 428.85 146.822 427.865 142.239L450.251 139.227C450.933 140.97 452.013 142.598 453.49 144.114C454.967 145.629 456.918 146.841 459.342 147.75C461.804 148.697 464.797 149.17 468.319 149.17C473.585 149.17 477.922 147.882 481.331 145.307C484.778 142.769 486.501 138.507 486.501 132.523V116.557H485.479C484.418 118.981 482.827 121.273 480.706 123.432C478.585 125.591 475.857 127.352 472.524 128.716C469.191 130.079 465.213 130.761 460.592 130.761C454.039 130.761 448.073 129.246 442.694 126.216C437.354 123.148 433.092 118.47 429.91 112.182C426.766 105.856 425.194 97.8635 425.194 88.2044C425.194 78.318 426.804 70.0605 430.024 63.4317C433.244 56.8029 437.524 51.8408 442.865 48.5453C448.244 45.2499 454.134 43.6021 460.535 43.6021C465.422 43.6021 469.513 44.4355 472.808 46.1021C476.104 47.7309 478.755 49.7764 480.763 52.2385C482.808 54.6627 484.38 57.0491 485.479 59.3976H486.388V44.7385H510.422V132.864C510.422 140.288 508.604 146.5 504.967 151.5C501.331 156.5 496.293 160.25 489.854 162.75C483.452 165.288 476.085 166.557 467.751 166.557ZM468.263 112.579C472.164 112.579 475.46 111.614 478.149 109.682C480.876 107.712 482.96 104.909 484.399 101.273C485.876 97.5984 486.615 93.2044 486.615 88.0908C486.615 82.9771 485.895 78.5453 484.456 74.7953C483.016 71.0074 480.933 68.0718 478.206 65.9885C475.479 63.9052 472.164 62.8635 468.263 62.8635C464.285 62.8635 460.933 63.943 458.206 66.1021C455.479 68.2233 453.414 71.1779 452.013 74.9658C450.611 78.7537 449.91 83.1287 449.91 88.0908C449.91 93.1287 450.611 97.4847 452.013 101.159C453.452 104.795 455.516 107.617 458.206 109.625C460.933 111.595 464.285 112.579 468.263 112.579ZM557.569 132.011V15.6476H603.478C612.304 15.6476 619.823 17.3332 626.035 20.7044C632.247 24.0377 636.982 28.6779 640.239 34.6249C643.535 40.534 645.182 47.3521 645.182 55.0794C645.182 62.8067 643.516 69.6249 640.182 75.534C636.849 81.443 632.02 86.0453 625.694 89.3408C619.406 92.6362 611.792 94.284 602.853 94.284H573.592V74.568H598.876C603.611 74.568 607.512 73.7537 610.58 72.1249C613.686 70.4582 615.997 68.1665 617.512 65.2499C619.065 62.2953 619.842 58.9052 619.842 55.0794C619.842 51.2158 619.065 47.8446 617.512 44.9658C615.997 42.0491 613.686 39.7953 610.58 38.2044C607.474 36.5756 603.535 35.7612 598.762 35.7612H582.171V132.011H557.569ZM680.113 15.6476V132.011H655.908V15.6476H680.113ZM719.588 133.659C714.02 133.659 709.058 132.693 704.702 130.761C700.346 128.792 696.899 125.894 694.361 122.068C691.861 118.204 690.611 113.394 690.611 107.636C690.611 102.788 691.501 98.7158 693.281 95.4203C695.062 92.1249 697.486 89.4734 700.554 87.4658C703.622 85.4582 707.107 83.943 711.009 82.9203C714.948 81.8976 719.077 81.1779 723.395 80.7612C728.471 80.2309 732.562 79.7385 735.668 79.284C738.774 78.7915 741.028 78.0718 742.429 77.1249C743.831 76.1779 744.531 74.7764 744.531 72.9203V72.5794C744.531 68.9809 743.395 66.1968 741.122 64.2271C738.887 62.2574 735.706 61.2726 731.577 61.2726C727.221 61.2726 723.755 62.2385 721.179 64.1703C718.603 66.0643 716.899 68.4506 716.065 71.3294L693.679 69.5112C694.815 64.2082 697.05 59.6249 700.384 55.7612C703.717 51.8597 708.016 48.8673 713.281 46.784C718.584 44.6627 724.721 43.6021 731.69 43.6021C736.539 43.6021 741.179 44.1703 745.611 45.3067C750.081 46.443 754.039 48.2044 757.486 50.5908C760.971 52.9771 763.717 56.0453 765.725 59.7953C767.732 63.5074 768.736 67.9582 768.736 73.1476V132.011H745.781V119.909H745.1C743.698 122.636 741.823 125.042 739.475 127.125C737.126 129.17 734.304 130.78 731.009 131.954C727.713 133.091 723.906 133.659 719.588 133.659ZM726.52 116.954C730.081 116.954 733.225 116.254 735.952 114.852C738.679 113.413 740.819 111.481 742.372 109.057C743.925 106.632 744.702 103.886 744.702 100.818V91.5567C743.944 92.0491 742.903 92.5037 741.577 92.9203C740.289 93.2991 738.831 93.659 737.202 93.9999C735.573 94.3029 733.944 94.587 732.315 94.8521C730.687 95.0794 729.209 95.2877 727.884 95.4771C725.043 95.8938 722.562 96.5567 720.44 97.4658C718.319 98.3749 716.672 99.6059 715.497 101.159C714.323 102.674 713.736 104.568 713.736 106.841C713.736 110.136 714.929 112.655 717.315 114.398C719.74 116.102 722.808 116.954 726.52 116.954ZM806.919 81.5567V132.011H782.714V44.7385H805.783V60.1362H806.805C808.737 55.0605 811.976 51.0453 816.521 48.0908C821.067 45.0984 826.578 43.6021 833.055 43.6021C839.116 43.6021 844.4 44.9279 848.908 47.5794C853.415 50.2309 856.919 54.0188 859.419 58.943C861.919 63.8294 863.169 69.6627 863.169 76.443V132.011H838.964V80.7612C839.002 75.4203 837.639 71.2537 834.873 68.2612C832.108 65.2309 828.301 63.7158 823.453 63.7158C820.195 63.7158 817.317 64.4165 814.817 65.818C812.354 67.2196 810.423 69.265 809.021 71.9544C807.658 74.6059 806.957 77.8067 806.919 81.5567Z" fill="url(#paint0_linear_462_9405)" shape-rendering="crispEdges"/>
<path d="M8.00011 132.011H7.00011V133.011H8.00011V132.011ZM8.00011 15.6476V14.6476H7.00011V15.6476H8.00011ZM76.466 20.7044L75.989 21.5833L75.9932 21.5856L76.466 20.7044ZM90.6706 34.6249L89.7935 35.1053L89.7972 35.1119L90.6706 34.6249ZM76.1251 89.3408L75.6631 88.4539L75.6609 88.455L76.1251 89.3408ZM24.0228 94.284H23.0228V95.284H24.0228V94.284ZM24.0228 74.568V73.568H23.0228V74.568H24.0228ZM61.0115 72.1249L61.4804 73.0081L61.4843 73.006L61.0115 72.1249ZM67.9433 65.2499L67.0581 64.7846L67.0559 64.7889L67.9433 65.2499ZM67.9433 44.9658L67.0559 45.4268L67.0595 45.4337L67.0632 45.4406L67.9433 44.9658ZM61.0115 38.2044L60.547 39.0901L60.5556 39.0945L61.0115 38.2044ZM32.6024 35.7612V34.7612H31.6024V35.7612H32.6024ZM32.6024 132.011V133.011H33.6024V132.011H32.6024ZM8.00011 132.011H9.00011V15.6476H8.00011H7.00011V132.011H8.00011ZM8.00011 15.6476V16.6476H53.9092V15.6476V14.6476H8.00011V15.6476ZM53.9092 15.6476V16.6476C62.6091 16.6476 69.9554 18.309 75.9891 21.5833L76.466 20.7044L76.943 19.8255C70.5524 16.3574 62.8608 14.6476 53.9092 14.6476V15.6476ZM76.466 20.7044L75.9932 21.5856C82.0418 24.8311 86.6329 29.3352 89.7935 35.1053L90.6706 34.6249L91.5476 34.1444C88.1931 28.0206 83.3145 23.2444 76.9388 19.8233L76.466 20.7044ZM90.6706 34.6249L89.7972 35.1119C92.9984 40.8521 94.6138 47.4981 94.6138 55.0794H95.6138H96.6138C96.6138 47.2062 94.9336 40.2159 91.5439 34.1378L90.6706 34.6249ZM95.6138 55.0794H94.6138C94.6138 62.6588 92.9803 69.3033 89.7428 75.0426L90.6138 75.534L91.4847 76.0253C94.9138 69.9464 96.6138 62.9546 96.6138 55.0794H95.6138ZM90.6138 75.534L89.7428 75.0426C86.5096 80.7742 81.8264 85.2431 75.6631 88.4539L76.1251 89.3408L76.5871 90.2276C83.0754 86.8475 88.0512 82.1119 91.4847 76.0253L90.6138 75.534ZM76.1251 89.3408L75.6609 88.455C69.5486 91.6585 62.1029 93.284 53.2842 93.284V94.284V95.284C62.3443 95.284 70.1258 93.614 76.5893 90.2265L76.1251 89.3408ZM53.2842 94.284V93.284H24.0228V94.284V95.284H53.2842V94.284ZM24.0228 94.284H25.0228V74.568H24.0228H23.0228V94.284H24.0228ZM24.0228 74.568V75.568H49.3069V74.568V73.568H24.0228V74.568ZM49.3069 74.568V75.568C54.1487 75.568 58.225 74.7363 61.4804 73.0081L61.0115 72.1249L60.5426 71.2416C57.6616 72.771 53.9348 73.568 49.3069 73.568V74.568ZM61.0115 72.1249L61.4843 73.006C64.7542 71.2515 67.216 68.8192 68.8307 65.7109L67.9433 65.2499L67.0559 64.7889C65.6403 67.5138 63.4809 69.6649 60.5387 71.2437L61.0115 72.1249ZM67.9433 65.2499L68.8285 65.7151C70.4673 62.5974 71.2728 59.0434 71.2728 55.0794H70.2728H69.2728C69.2728 58.7669 68.5254 61.9933 67.0581 64.7846L67.9433 65.2499ZM70.2728 55.0794H71.2728C71.2728 51.0801 70.4682 47.54 68.8234 44.491L67.9433 44.9658L67.0632 45.4406C68.5244 48.1491 69.2728 51.3515 69.2728 55.0794H70.2728ZM67.9433 44.9658L68.8307 44.5048C67.2137 41.392 64.7462 38.9938 61.4674 37.3144L61.0115 38.2044L60.5556 39.0945C63.4888 40.5968 65.6426 42.7062 67.0559 45.4268L67.9433 44.9658ZM61.0115 38.2044L61.4759 37.3188C58.1843 35.5927 54.0722 34.7612 49.1933 34.7612V35.7612V36.7612C53.8598 36.7612 57.6265 37.5585 60.5471 39.09L61.0115 38.2044ZM49.1933 35.7612V34.7612H32.6024V35.7612V36.7612H49.1933V35.7612ZM32.6024 35.7612H31.6024V132.011H32.6024H33.6024V35.7612H32.6024ZM32.6024 132.011V131.011H8.00011V132.011V133.011H32.6024V132.011ZM106.339 132.011H105.339V133.011H106.339V132.011ZM106.339 44.7385V43.7385H105.339V44.7385H106.339ZM129.805 44.7385H130.805V43.7385H129.805V44.7385ZM129.805 59.9658H128.805V60.9658H129.805V59.9658ZM130.714 59.9658V60.9658H131.463L131.674 60.2476L130.714 59.9658ZM138.726 47.6931L139.319 48.4979L139.324 48.494L138.726 47.6931ZM155.601 43.7158L155.708 42.7216L155.601 43.7158ZM159.294 44.3408H160.294V43.56L159.536 43.3706L159.294 44.3408ZM159.294 65.818L159.007 66.7759L160.294 67.1621V65.818H159.294ZM139.521 66.8408L140.002 67.7178L140.006 67.7155L139.521 66.8408ZM132.93 73.2044L132.072 72.6916L132.066 72.7005L132.93 73.2044ZM130.544 132.011V133.011H131.544V132.011H130.544ZM106.339 132.011H107.339V44.7385H106.339H105.339V132.011H106.339ZM106.339 44.7385V45.7385H129.805V44.7385V43.7385H106.339V44.7385ZM129.805 44.7385H128.805V59.9658H129.805H130.805V44.7385H129.805ZM129.805 59.9658V60.9658H130.714V59.9658V58.9658H129.805V59.9658ZM130.714 59.9658L131.674 60.2476C133.217 54.995 135.78 51.1078 139.319 48.4979L138.726 47.6931L138.132 46.8882C134.172 49.8086 131.394 54.1032 129.755 59.684L130.714 59.9658ZM138.726 47.6931L139.324 48.494C142.894 45.8261 147 44.4885 151.68 44.4885V43.4885V42.4885C146.588 42.4885 142.058 43.9539 138.127 46.8921L138.726 47.6931ZM151.68 43.4885V44.4885C152.851 44.4885 154.122 44.5617 155.493 44.71L155.601 43.7158L155.708 42.7216C154.277 42.5668 152.933 42.4885 151.68 42.4885V43.4885ZM155.601 43.7158L155.493 44.71C156.861 44.8579 158.046 45.0595 159.051 45.3109L159.294 44.3408L159.536 43.3706C158.421 43.0917 157.143 42.8767 155.708 42.7216L155.601 43.7158ZM159.294 44.3408H158.294V65.818H159.294H160.294V44.3408H159.294ZM159.294 65.818L159.581 64.8602C158.37 64.497 156.738 64.1856 154.709 63.9176L154.578 64.909L154.447 65.9003C156.433 66.1627 157.945 66.4573 159.007 66.7759L159.294 65.818ZM154.578 64.909L154.709 63.9176C152.667 63.6479 150.785 63.5112 149.067 63.5112V64.5112V65.5112C150.681 65.5112 152.474 65.6398 154.447 65.9003L154.578 64.909ZM149.067 64.5112V63.5112C145.356 63.5112 142.004 64.322 139.036 65.9661L139.521 66.8408L140.006 67.7155C142.645 66.2535 145.656 65.5112 149.067 65.5112V64.5112ZM139.521 66.8408L139.041 65.9638C136.118 67.5652 133.791 69.8127 132.072 72.6917L132.93 73.2044L133.789 73.7172C135.327 71.1416 137.394 69.1466 140.002 67.7178L139.521 66.8408ZM132.93 73.2044L132.066 72.7005C130.375 75.5995 129.544 78.9216 129.544 82.6362H130.544H131.544C131.544 79.2296 132.303 76.2638 133.794 73.7083L132.93 73.2044ZM130.544 82.6362H129.544V132.011H130.544H131.544V82.6362H130.544ZM130.544 132.011V131.011H106.339V132.011V133.011H130.544V132.011ZM167.008 132.011H166.008V133.011H167.008V132.011ZM167.008 44.7385V43.7385H166.008V44.7385H167.008ZM191.213 44.7385H192.213V43.7385H191.213V44.7385ZM191.213 132.011V133.011H192.213V132.011H191.213ZM169.906 29.909L169.215 30.6321L169.221 30.6373L169.226 30.6425L169.906 29.909ZM169.906 12.6362L170.591 13.3648L170.591 13.3644L169.906 12.6362ZM188.372 12.6362L187.681 13.3593L187.686 13.3646L187.692 13.3698L188.372 12.6362ZM188.372 29.909L189.057 30.6375L189.057 30.6372L188.372 29.909ZM167.008 132.011H168.008V44.7385H167.008H166.008V132.011H167.008ZM167.008 44.7385V45.7385H191.213V44.7385V43.7385H167.008V44.7385ZM191.213 44.7385H190.213V132.011H191.213H192.213V44.7385H191.213ZM191.213 132.011V131.011H167.008V132.011V133.011H191.213V132.011ZM179.167 33.4885V32.4885C175.814 32.4885 172.971 31.3858 170.585 29.1754L169.906 29.909L169.226 30.6425C171.992 33.2048 175.324 34.4885 179.167 34.4885V33.4885ZM169.906 29.909L170.597 29.1858C168.247 26.9416 167.099 24.3015 167.099 21.2158H166.099H165.099C165.099 24.8725 166.489 28.0278 169.215 30.6321L169.906 29.909ZM166.099 21.2158H167.099C167.099 18.172 168.244 15.5717 170.591 13.3648L169.906 12.6362L169.221 11.9077C166.492 14.4735 165.099 17.5929 165.099 21.2158H166.099ZM169.906 12.6362L170.591 13.3644C172.978 11.1181 175.818 9.99986 179.167 9.99986V8.99986V7.99986C175.319 7.99986 171.985 9.30586 169.22 11.908L169.906 12.6362ZM179.167 8.99986V9.99986C182.516 9.99986 185.334 11.1178 187.681 13.3593L188.372 12.6362L189.062 11.9131C186.333 9.30622 183.016 7.99986 179.167 7.99986V8.99986ZM188.372 12.6362L187.692 13.3698C190.076 15.5783 191.235 18.1772 191.235 21.2158H192.235H193.235C193.235 17.5877 191.819 14.4669 189.051 11.9027L188.372 12.6362ZM192.235 21.2158H191.235C191.235 24.2964 190.072 26.935 187.686 29.1808L188.372 29.909L189.057 30.6372C191.822 28.0344 193.235 24.8776 193.235 21.2158H192.235ZM188.372 29.909L187.687 29.1804C185.341 31.3861 182.52 32.4885 179.167 32.4885V33.4885V34.4885C183.011 34.4885 186.327 33.2045 189.057 30.6375L188.372 29.909ZM222.165 128.034L221.652 128.892L221.658 128.896L222.165 128.034ZM207.393 112.125L206.499 112.574L206.501 112.578L207.393 112.125ZM207.45 65.193L206.56 64.7359L206.559 64.7378L207.45 65.193ZM222.279 49.3408L222.788 50.2014L222.792 50.1992L222.279 49.3408ZM265.12 47.7499L265.555 46.8496L265.12 47.7499ZM278.7 59.3976L277.867 59.9523L278.7 59.3976ZM284.211 77.0112V78.0112H285.263L285.21 76.9607L284.211 77.0112ZM261.37 77.0112L260.381 77.1575L260.507 78.0112H261.37V77.0112ZM256.256 66.4999L255.554 67.212L255.564 67.2216L256.256 66.4999ZM235.688 65.534L236.276 66.3432L236.278 66.3417L235.688 65.534ZM229.154 102.579L228.222 102.941L228.225 102.949L229.154 102.579ZM235.688 111.5L236.278 110.692L235.688 111.5ZM252.961 112.864L252.508 111.972L252.501 111.975L252.961 112.864ZM258.472 107.92L257.642 107.362L257.64 107.366L258.472 107.92ZM261.37 100.023V99.0226H260.507L260.381 99.876L261.37 100.023ZM284.211 100.023L285.209 100.079L285.269 99.0226H284.211V100.023ZM278.756 117.636L277.915 117.096L277.914 117.098L278.756 117.636ZM265.404 129.454L264.957 128.56L265.404 129.454ZM245.234 133.716V132.716C236.437 132.716 228.93 130.853 222.672 127.172L222.165 128.034L221.658 128.896C228.279 132.79 236.151 134.716 245.234 134.716V133.716ZM222.165 128.034L222.678 127.176C216.442 123.449 211.647 118.287 208.284 111.672L207.393 112.125L206.501 112.578C210.032 119.523 215.086 124.968 221.652 128.892L222.165 128.034ZM207.393 112.125L208.286 111.676C204.958 105.056 203.279 97.4109 203.279 88.7158H202.279H201.279C201.279 97.6721 203.01 105.633 206.499 112.574L207.393 112.125ZM202.279 88.7158H203.279C203.279 79.9062 204.977 72.2264 208.34 65.6482L207.45 65.193L206.559 64.7378C203.028 71.6445 201.279 79.6466 201.279 88.7158H202.279ZM207.45 65.193L208.339 65.6502C211.74 59.0331 216.553 53.8908 222.788 50.2014L222.279 49.3408L221.77 48.4801C215.202 52.3665 210.129 57.7924 206.56 64.7359L207.45 65.193ZM222.279 49.3408L222.792 50.1992C229.012 46.4818 236.441 44.6021 245.12 44.6021V43.6021V42.6021C236.147 42.6021 228.349 44.5482 221.766 48.4824L222.279 49.3408ZM245.12 43.6021V44.6021C252.612 44.6021 259.125 45.9624 264.685 48.6502L265.12 47.7499L265.555 46.8496C259.676 44.007 252.855 42.6021 245.12 42.6021V43.6021ZM265.12 47.7499L264.685 48.6502C270.253 51.3422 274.639 55.1095 277.867 59.9523L278.7 59.3976L279.532 58.8429C276.094 53.6857 271.426 49.6878 265.555 46.8496L265.12 47.7499ZM278.7 59.3976L277.867 59.9523C281.089 64.7844 282.879 70.4766 283.212 77.0617L284.211 77.0112L285.21 76.9607C284.861 70.061 282.977 64.0107 279.532 58.8429L278.7 59.3976ZM284.211 77.0112V76.0112H261.37V77.0112V78.0112H284.211V77.0112ZM261.37 77.0112L262.359 76.865C261.688 72.3237 259.897 68.6056 256.948 65.7781L256.256 66.4999L255.564 67.2216C258.146 69.6972 259.764 72.9866 260.381 77.1575L261.37 77.0112ZM256.256 66.4999L256.959 65.7878C254.015 62.8848 250.168 61.4658 245.518 61.4658V62.4658V63.4658C249.731 63.4658 253.044 64.7361 255.554 67.2119L256.256 66.4999ZM245.518 62.4658V61.4658C241.574 61.4658 238.087 62.5456 235.099 64.7262L235.688 65.534L236.278 66.3417C238.895 64.4314 241.962 63.4658 245.518 63.4658V62.4658ZM235.688 65.534L235.101 64.7247C232.153 66.8648 229.891 69.9679 228.283 73.9678L229.211 74.3408L230.139 74.7137C231.637 70.9863 233.693 68.2183 236.276 66.3432L235.688 65.534ZM229.211 74.3408L228.283 73.9678C226.67 77.9812 225.881 82.7933 225.881 88.3749H226.881H227.881C227.881 82.9716 228.646 78.4276 230.139 74.7137L229.211 74.3408ZM226.881 88.3749H225.881C225.881 94.0283 226.65 98.8933 228.222 102.941L229.154 102.579L230.086 102.217C228.628 98.4625 227.881 93.8578 227.881 88.3749H226.881ZM229.154 102.579L228.225 102.949C229.833 106.989 232.114 110.13 235.099 112.308L235.688 111.5L236.278 110.692C233.656 108.779 231.581 105.973 230.083 102.21L229.154 102.579ZM235.688 111.5L235.099 112.308C238.087 114.488 241.574 115.568 245.518 115.568V114.568V113.568C241.962 113.568 238.895 112.602 236.278 110.692L235.688 111.5ZM245.518 114.568V115.568C248.424 115.568 251.065 114.97 253.42 113.752L252.961 112.864L252.501 111.975C250.463 113.03 248.142 113.568 245.518 113.568V114.568ZM252.961 112.864L253.414 113.755C255.808 112.538 257.773 110.772 259.304 108.475L258.472 107.92L257.64 107.366C256.293 109.387 254.584 110.916 252.508 111.972L252.961 112.864ZM258.472 107.92L259.302 108.478C260.876 106.138 261.887 103.36 262.359 100.169L261.37 100.023L260.381 99.876C259.944 102.822 259.024 105.308 257.642 107.362L258.472 107.92ZM261.37 100.023V101.023H284.211V100.023V99.0226H261.37V100.023ZM284.211 100.023L283.213 99.9659C282.842 106.479 281.07 112.18 277.915 117.096L278.756 117.636L279.598 118.176C282.958 112.941 284.822 106.899 285.209 100.079L284.211 100.023ZM278.756 117.636L277.914 117.098C274.797 121.974 270.488 125.795 264.957 128.56L265.404 129.454L265.851 130.349C271.684 127.432 276.276 123.374 279.599 118.175L278.756 117.636ZM265.404 129.454L264.957 128.56C259.441 131.318 252.878 132.716 245.234 132.716V133.716V134.716C253.12 134.716 260.003 133.273 265.851 130.349L265.404 129.454ZM294.908 132.011H293.908V133.011H294.908V132.011ZM294.908 44.7385V43.7385H293.908V44.7385H294.908ZM319.113 44.7385H320.113V43.7385H319.113V44.7385ZM319.113 132.011V133.011H320.113V132.011H319.113ZM297.806 29.909L297.115 30.6321L297.121 30.6373L297.126 30.6425L297.806 29.909ZM297.806 12.6362L298.491 13.3648L298.491 13.3644L297.806 12.6362ZM316.272 12.6362L315.581 13.3593L315.586 13.3646L315.592 13.3698L316.272 12.6362ZM316.272 29.909L316.957 30.6375L316.957 30.6372L316.272 29.909ZM294.908 132.011H295.908V44.7385H294.908H293.908V132.011H294.908ZM294.908 44.7385V45.7385H319.113V44.7385V43.7385H294.908V44.7385ZM319.113 44.7385H318.113V132.011H319.113H320.113V44.7385H319.113ZM319.113 132.011V131.011H294.908V132.011V133.011H319.113V132.011ZM307.067 33.4885V32.4885C303.714 32.4885 300.871 31.3858 298.485 29.1754L297.806 29.909L297.126 30.6425C299.892 33.2048 303.224 34.4885 307.067 34.4885V33.4885ZM297.806 29.909L298.497 29.1858C296.147 26.9416 294.999 24.3015 294.999 21.2158H293.999H292.999C292.999 24.8725 294.389 28.0278 297.115 30.6321L297.806 29.909ZM293.999 21.2158H294.999C294.999 18.172 296.144 15.5717 298.491 13.3648L297.806 12.6362L297.121 11.9077C294.392 14.4735 292.999 17.5929 292.999 21.2158H293.999ZM297.806 12.6362L298.491 13.3644C300.878 11.1181 303.718 9.99986 307.067 9.99986V8.99986V7.99986C303.219 7.99986 299.885 9.30586 297.12 11.908L297.806 12.6362ZM307.067 8.99986V9.99986C310.416 9.99986 313.234 11.1178 315.581 13.3593L316.272 12.6362L316.962 11.9131C314.233 9.30622 310.916 7.99986 307.067 7.99986V8.99986ZM316.272 12.6362L315.592 13.3698C317.976 15.5783 319.135 18.1772 319.135 21.2158H320.135H321.135C321.135 17.5877 319.719 14.4669 316.951 11.9027L316.272 12.6362ZM320.135 21.2158H319.135C319.135 24.2964 317.972 26.935 315.586 29.1808L316.272 29.909L316.957 30.6372C319.723 28.0344 321.135 24.8776 321.135 21.2158H320.135ZM316.272 29.909L315.587 29.1804C313.241 31.3861 310.42 32.4885 307.067 32.4885V33.4885V34.4885C310.911 34.4885 314.227 33.2045 316.957 30.6375L316.272 29.909ZM357.906 81.5567L356.906 81.5466V81.5567H357.906ZM357.906 132.011V133.011H358.906V132.011H357.906ZM333.702 132.011H332.702V133.011H333.702V132.011ZM333.702 44.7385V43.7385H332.702V44.7385H333.702ZM356.77 44.7385H357.77V43.7385H356.77V44.7385ZM356.77 60.1362H355.77V61.1362H356.77V60.1362ZM357.793 60.1362V61.1362H358.482L358.727 60.4919L357.793 60.1362ZM367.509 48.0908L368.054 48.9292L368.059 48.926L367.509 48.0908ZM399.895 47.5794L400.402 46.7175L399.895 47.5794ZM410.406 58.943L409.515 59.3957L409.516 59.3985L410.406 58.943ZM414.156 132.011V133.011H415.156V132.011H414.156ZM389.952 132.011H388.952V133.011H389.952V132.011ZM389.952 80.7612L388.952 80.7541V80.7612H389.952ZM385.861 68.2612L385.122 68.9353L385.126 68.9399L385.861 68.2612ZM365.804 65.818L365.315 64.9457L365.309 64.949L365.804 65.818ZM360.009 71.9544L359.122 71.4923L359.119 71.4971L360.009 71.9544ZM357.906 81.5567H356.906V132.011H357.906H358.906V81.5567H357.906ZM357.906 132.011V131.011H333.702V132.011V133.011H357.906V132.011ZM333.702 132.011H334.702V44.7385H333.702H332.702V132.011H333.702ZM333.702 44.7385V45.7385H356.77V44.7385V43.7385H333.702V44.7385ZM356.77 44.7385H355.77V60.1362H356.77H357.77V44.7385H356.77ZM356.77 60.1362V61.1362H357.793V60.1362V59.1362H356.77V60.1362ZM357.793 60.1362L358.727 60.4919C360.584 55.6139 363.686 51.768 368.054 48.9292L367.509 48.0908L366.964 47.2523C362.24 50.3226 358.865 54.507 356.858 59.7805L357.793 60.1362ZM367.509 48.0908L368.059 48.926C372.412 46.0601 377.723 44.6021 384.043 44.6021V43.6021V42.6021C377.408 42.6021 371.696 44.1366 366.959 47.2555L367.509 48.0908ZM384.043 43.6021V44.6021C389.954 44.6021 395.057 45.8938 399.388 48.4413L399.895 47.5794L400.402 46.7175C395.718 43.962 390.253 42.6021 384.043 42.6021V43.6021ZM399.895 47.5794L399.388 48.4413C403.721 50.9905 407.096 54.6318 409.515 59.3957L410.406 58.943L411.298 58.4904C408.717 53.4058 405.084 49.4714 400.402 46.7175L399.895 47.5794ZM410.406 58.943L409.516 59.3985C411.929 64.1146 413.156 69.7845 413.156 76.443H414.156H415.156C415.156 69.541 413.884 63.5443 411.297 58.4876L410.406 58.943ZM414.156 76.443H413.156V132.011H414.156H415.156V76.443H414.156ZM414.156 132.011V131.011H389.952V132.011V133.011H414.156V132.011ZM389.952 132.011H390.952V80.7612H389.952H388.952V132.011H389.952ZM389.952 80.7612L390.952 80.7683C390.991 75.2547 389.581 70.8137 386.595 67.5826L385.861 68.2612L385.126 68.9399C387.671 71.6936 388.988 75.586 388.952 80.7541L389.952 80.7612ZM385.861 68.2612L386.6 67.5872C383.61 64.3113 379.514 62.7158 374.44 62.7158V63.7158V64.7158C379.064 64.7158 382.581 66.1505 385.122 68.9353L385.861 68.2612ZM374.44 63.7158V62.7158C371.035 62.7158 367.984 63.4496 365.315 64.9458L365.804 65.818L366.293 66.6903C368.624 65.3834 371.33 64.7158 374.44 64.7158V63.7158ZM365.804 65.818L365.309 64.949C362.668 66.4524 360.606 68.6449 359.122 71.4923L360.009 71.9544L360.895 72.4165C362.215 69.8851 364.016 67.9867 366.299 66.6871L365.804 65.818ZM360.009 71.9544L359.119 71.4971C357.669 74.3181 356.945 77.6801 356.906 81.5466L357.906 81.5567L358.906 81.5668C358.943 77.9333 359.621 74.8938 360.898 72.4118L360.009 71.9544ZM447.581 163.318L447.94 162.385L447.937 162.384L447.581 163.318ZM434.285 154.625L433.541 155.293L434.285 154.625ZM427.865 142.239L427.732 141.247L426.66 141.392L426.887 142.449L427.865 142.239ZM450.251 139.227L451.182 138.863L450.896 138.131L450.118 138.236L450.251 139.227ZM453.49 144.114L454.206 143.415L453.49 144.114ZM459.342 147.75L459.701 146.816L459.693 146.814L459.342 147.75ZM481.331 145.307L480.738 144.501L480.728 144.509L481.331 145.307ZM486.501 116.557H487.501V115.557H486.501V116.557ZM485.479 116.557V115.557H484.825L484.562 116.156L485.479 116.557ZM480.706 123.432L481.419 124.133L480.706 123.432ZM442.694 126.216L442.196 127.083L442.204 127.087L442.694 126.216ZM429.91 112.182L429.015 112.627L429.018 112.633L429.91 112.182ZM430.024 63.4317L429.124 62.9948L430.024 63.4317ZM442.865 48.5453L442.342 47.6926L442.34 47.6943L442.865 48.5453ZM472.808 46.1021L472.357 46.9945L472.365 46.9986L472.808 46.1021ZM480.763 52.2385L479.988 52.8704L479.993 52.8769L479.998 52.8834L480.763 52.2385ZM485.479 59.3976L484.573 59.8213L484.842 60.3976H485.479V59.3976ZM486.388 59.3976V60.3976H487.388V59.3976H486.388ZM486.388 44.7385V43.7385H485.388V44.7385H486.388ZM510.422 44.7385H511.422V43.7385H510.422V44.7385ZM504.967 151.5L504.158 150.912L504.967 151.5ZM489.854 162.75L489.492 161.818L489.485 161.82L489.854 162.75ZM478.149 109.682L478.732 110.494L478.734 110.492L478.149 109.682ZM484.399 101.273L483.471 100.9L483.469 100.905L484.399 101.273ZM484.456 74.7953L483.521 75.1505L483.522 75.1537L484.456 74.7953ZM458.206 66.1021L458.82 66.8915L458.827 66.8862L458.206 66.1021ZM452.013 74.9658L452.951 75.3128L452.013 74.9658ZM452.013 101.159L451.078 101.515L451.083 101.527L452.013 101.159ZM458.206 109.625L457.608 110.426L457.614 110.431L457.62 110.436L458.206 109.625ZM467.751 166.557V165.557C459.998 165.557 453.402 164.489 447.94 162.385L447.581 163.318L447.221 164.251C452.971 166.466 459.823 167.557 467.751 167.557V166.557ZM447.581 163.318L447.937 162.384C442.487 160.307 438.199 157.491 435.03 153.957L434.285 154.625L433.541 155.293C436.963 159.108 441.538 162.086 447.225 164.253L447.581 163.318ZM434.285 154.625L435.03 153.957C431.844 150.405 429.789 146.432 428.843 142.028L427.865 142.239L426.887 142.449C427.911 147.211 430.136 151.496 433.541 155.293L434.285 154.625ZM427.865 142.239L427.998 143.23L450.385 140.218L450.251 139.227L450.118 138.236L427.732 141.247L427.865 142.239ZM450.251 139.227L449.32 139.592C450.057 141.474 451.215 143.213 452.774 144.812L453.49 144.114L454.206 143.415C452.81 141.983 451.81 140.465 451.182 138.863L450.251 139.227ZM453.49 144.114L452.774 144.812C454.374 146.453 456.459 147.737 458.991 148.686L459.342 147.75L459.693 146.814C457.377 145.945 455.56 144.804 454.206 143.415L453.49 144.114ZM459.342 147.75L458.983 148.683C461.591 149.686 464.713 150.17 468.319 150.17V149.17V148.17C464.881 148.17 462.017 147.707 459.701 146.817L459.342 147.75ZM468.319 149.17V150.17C473.751 150.17 478.314 148.839 481.934 146.105L481.331 145.307L480.728 144.509C477.53 146.925 473.419 148.17 468.319 148.17V149.17ZM481.331 145.307L481.924 146.112C485.719 143.318 487.501 138.69 487.501 132.523H486.501H485.501C485.501 138.325 483.837 142.22 480.738 144.501L481.331 145.307ZM486.501 132.523H487.501V116.557H486.501H485.501V132.523H486.501ZM486.501 116.557V115.557H485.479V116.557V117.557H486.501V116.557ZM485.479 116.557L484.562 116.156C483.557 118.454 482.041 120.646 479.992 122.731L480.706 123.432L481.419 124.133C483.614 121.899 485.279 119.508 486.395 116.958L485.479 116.557ZM480.706 123.432L479.992 122.731C477.983 124.777 475.376 126.468 472.145 127.79L472.524 128.716L472.903 129.641C476.338 128.236 479.186 126.405 481.419 124.133L480.706 123.432ZM472.524 128.716L472.145 127.79C468.961 129.093 465.119 129.761 460.592 129.761V130.761V131.761C465.308 131.761 469.42 131.066 472.903 129.641L472.524 128.716ZM460.592 130.761V129.761C454.2 129.761 448.405 128.285 443.185 125.345L442.694 126.216L442.204 127.087C447.741 130.207 453.878 131.761 460.592 131.761V130.761ZM442.694 126.216L443.193 125.349C438.044 122.391 433.909 117.87 430.803 111.73L429.91 112.182L429.018 112.633C432.275 119.069 436.663 123.904 442.196 127.083L442.694 126.216ZM429.91 112.182L430.806 111.737C427.751 105.59 426.194 97.7628 426.194 88.2044H425.194H424.194C424.194 97.9642 425.782 106.122 429.015 112.627L429.91 112.182ZM425.194 88.2044H426.194C426.194 78.4202 427.789 70.323 430.923 63.8686L430.024 63.4317L429.124 62.9948C425.82 69.798 424.194 78.2159 424.194 88.2044H425.194ZM430.024 63.4317L430.923 63.8686C434.075 57.3803 438.237 52.5758 443.39 49.3964L442.865 48.5453L442.34 47.6943C436.811 51.1057 432.412 56.2255 429.124 62.9948L430.024 63.4317ZM442.865 48.5453L443.387 49.398C448.606 46.2004 454.315 44.6021 460.535 44.6021V43.6021V42.6021C453.952 42.6021 447.881 44.2994 442.342 47.6926L442.865 48.5453ZM460.535 43.6021V44.6021C465.314 44.6021 469.239 45.4177 472.357 46.9945L472.808 46.1021L473.259 45.2098C469.786 43.4533 465.53 42.6021 460.535 42.6021V43.6021ZM472.808 46.1021L472.365 46.9986C475.552 48.5739 478.084 50.5354 479.988 52.8704L480.763 52.2385L481.538 51.6066C479.426 49.0174 476.655 46.888 473.251 45.2057L472.808 46.1021ZM480.763 52.2385L479.998 52.8834C481.999 55.2548 483.519 57.5678 484.573 59.8213L485.479 59.3976L486.384 58.9739C485.241 56.5304 483.617 54.0707 481.527 51.5936L480.763 52.2385ZM485.479 59.3976V60.3976H486.388V59.3976V58.3976H485.479V59.3976ZM486.388 59.3976H487.388V44.7385H486.388H485.388V59.3976H486.388ZM486.388 44.7385V45.7385H510.422V44.7385V43.7385H486.388V44.7385ZM510.422 44.7385H509.422V132.864H510.422H511.422V44.7385H510.422ZM510.422 132.864H509.422C509.422 140.12 507.647 146.115 504.158 150.912L504.967 151.5L505.776 152.088C509.56 146.885 511.422 140.456 511.422 132.864H510.422ZM504.967 151.5L504.158 150.912C500.648 155.739 495.774 159.379 489.492 161.818L489.854 162.75L490.215 163.682C496.812 161.121 502.014 157.261 505.776 152.088L504.967 151.5ZM489.854 162.75L489.485 161.82C483.223 164.303 475.984 165.557 467.751 165.557V166.557V167.557C476.185 167.557 483.681 166.273 490.222 163.679L489.854 162.75ZM468.263 112.579V113.579C472.335 113.579 475.844 112.568 478.732 110.494L478.149 109.682L477.566 108.869C475.075 110.659 471.993 111.579 468.263 111.579V112.579ZM478.149 109.682L478.734 110.492C481.64 108.394 483.831 105.425 485.329 101.641L484.399 101.273L483.469 100.905C482.088 104.393 480.112 107.03 477.564 108.871L478.149 109.682ZM484.399 101.273L485.327 101.646C486.863 97.8238 487.615 93.2967 487.615 88.0908H486.615H485.615C485.615 93.1121 484.889 97.3729 483.471 100.9L484.399 101.273ZM486.615 88.0908H487.615C487.615 82.8866 486.883 78.3278 485.389 74.437L484.456 74.7953L483.522 75.1537C484.908 78.7628 485.615 83.0676 485.615 88.0908H486.615ZM484.456 74.7953L485.391 74.4401C483.897 70.5099 481.713 67.4093 478.813 65.1938L478.206 65.9885L477.599 66.7832C480.153 68.7344 482.136 71.5049 483.521 75.1505L484.456 74.7953ZM478.206 65.9885L478.813 65.1938C475.888 62.9594 472.352 61.8635 468.263 61.8635V62.8635V63.8635C471.976 63.8635 475.069 64.8509 477.599 66.7832L478.206 65.9885ZM468.263 62.8635V61.8635C464.094 61.8635 460.514 62.9994 457.585 65.3181L458.206 66.1021L458.827 66.8862C461.352 64.8867 464.477 63.8635 468.263 63.8635V62.8635ZM458.206 66.1021L457.592 65.3128C454.694 67.5665 452.53 70.6861 451.075 74.6188L452.013 74.9658L452.951 75.3128C454.298 71.6697 456.263 68.8801 458.82 66.8915L458.206 66.1021ZM452.013 74.9658L451.075 74.6188C449.624 78.5399 448.91 83.0364 448.91 88.0908H449.91H450.91C450.91 83.2209 451.598 78.9674 452.951 75.3128L452.013 74.9658ZM449.91 88.0908H448.91C448.91 93.2178 449.623 97.7003 451.078 101.515L452.013 101.159L452.947 100.803C451.599 97.2691 450.91 93.0395 450.91 88.0908H449.91ZM452.013 101.159L451.083 101.527C452.579 105.307 454.747 108.29 457.608 110.426L458.206 109.625L458.804 108.824C456.286 106.944 454.325 104.284 452.942 100.791L452.013 101.159ZM458.206 109.625L457.62 110.436C460.547 112.55 464.115 113.579 468.263 113.579V112.579V111.579C464.456 111.579 461.319 110.64 458.791 108.814L458.206 109.625ZM557.569 132.011H556.569V133.011H557.569V132.011ZM557.569 15.6476V14.6476H556.569V15.6476H557.569ZM626.035 20.7044L625.558 21.5833L625.562 21.5856L626.035 20.7044ZM640.239 34.6249L639.362 35.1053L639.366 35.1119L640.239 34.6249ZM625.694 89.3408L625.232 88.4539L625.23 88.455L625.694 89.3408ZM573.592 94.284H572.592V95.284H573.592V94.284ZM573.592 74.568V73.568H572.592V74.568H573.592ZM610.58 72.1249L611.049 73.0081L611.053 73.006L610.58 72.1249ZM617.512 65.2499L616.627 64.7846L616.625 64.7889L617.512 65.2499ZM617.512 44.9658L616.625 45.4268L616.628 45.4337L616.632 45.4406L617.512 44.9658ZM610.58 38.2044L610.116 39.0901L610.124 39.0945L610.58 38.2044ZM582.171 35.7612V34.7612H581.171V35.7612H582.171ZM582.171 132.011V133.011H583.171V132.011H582.171ZM557.569 132.011H558.569V15.6476H557.569H556.569V132.011H557.569ZM557.569 15.6476V16.6476H603.478V15.6476V14.6476H557.569V15.6476ZM603.478 15.6476V16.6476C612.178 16.6476 619.524 18.309 625.558 21.5833L626.035 20.7044L626.512 19.8255C620.121 16.3574 612.43 14.6476 603.478 14.6476V15.6476ZM626.035 20.7044L625.562 21.5856C631.61 24.8311 636.202 29.3352 639.362 35.1053L640.239 34.6249L641.116 34.1444C637.762 28.0206 632.883 23.2444 626.508 19.8233L626.035 20.7044ZM640.239 34.6249L639.366 35.1119C642.567 40.8521 644.182 47.4981 644.182 55.0794H645.182H646.182C646.182 47.2062 644.502 40.2159 641.113 34.1378L640.239 34.6249ZM645.182 55.0794H644.182C644.182 62.6588 642.549 69.3033 639.312 75.0426L640.182 75.534L641.053 76.0253C644.483 69.9464 646.182 62.9546 646.182 55.0794H645.182ZM640.182 75.534L639.312 75.0426C636.078 80.7742 631.395 85.2431 625.232 88.4539L625.694 89.3408L626.156 90.2276C632.644 86.8475 637.62 82.1119 641.053 76.0253L640.182 75.534ZM625.694 89.3408L625.23 88.455C619.117 91.6585 611.672 93.284 602.853 93.284V94.284V95.284C611.913 95.284 619.695 93.614 626.158 90.2265L625.694 89.3408ZM602.853 94.284V93.284H573.592V94.284V95.284H602.853V94.284ZM573.592 94.284H574.592V74.568H573.592H572.592V94.284H573.592ZM573.592 74.568V75.568H598.876V74.568V73.568H573.592V74.568ZM598.876 74.568V75.568C603.717 75.568 607.794 74.7363 611.049 73.0081L610.58 72.1249L610.111 71.2416C607.23 72.771 603.504 73.568 598.876 73.568V74.568ZM610.58 72.1249L611.053 73.006C614.323 71.2515 616.785 68.8192 618.399 65.7109L617.512 65.2499L616.625 64.7889C615.209 67.5138 613.05 69.6649 610.107 71.2437L610.58 72.1249ZM617.512 65.2499L618.397 65.7151C620.036 62.5974 620.842 59.0434 620.842 55.0794H619.842H618.842C618.842 58.7669 618.094 61.9933 616.627 64.7846L617.512 65.2499ZM619.842 55.0794H620.842C620.842 51.0801 620.037 47.54 618.392 44.491L617.512 44.9658L616.632 45.4406C618.093 48.1491 618.842 51.3515 618.842 55.0794H619.842ZM617.512 44.9658L618.399 44.5048C616.782 41.392 614.315 38.9938 611.036 37.3144L610.58 38.2044L610.124 39.0945C613.058 40.5968 615.211 42.7062 616.625 45.4268L617.512 44.9658ZM610.58 38.2044L611.045 37.3188C607.753 35.5927 603.641 34.7612 598.762 34.7612V35.7612V36.7612C603.429 36.7612 607.195 37.5585 610.116 39.09L610.58 38.2044ZM598.762 35.7612V34.7612H582.171V35.7612V36.7612H598.762V35.7612ZM582.171 35.7612H581.171V132.011H582.171H583.171V35.7612H582.171ZM582.171 132.011V131.011H557.569V132.011V133.011H582.171V132.011ZM680.113 15.6476H681.113V14.6476H680.113V15.6476ZM680.113 132.011V133.011H681.113V132.011H680.113ZM655.908 132.011H654.908V133.011H655.908V132.011ZM655.908 15.6476V14.6476H654.908V15.6476H655.908ZM680.113 15.6476H679.113V132.011H680.113H681.113V15.6476H680.113ZM680.113 132.011V131.011H655.908V132.011V133.011H680.113V132.011ZM655.908 132.011H656.908V15.6476H655.908H654.908V132.011H655.908ZM655.908 15.6476V16.6476H680.113V15.6476V14.6476H655.908V15.6476ZM704.702 130.761L704.29 131.672L704.296 131.675L704.702 130.761ZM694.361 122.068L693.521 122.611L693.528 122.621L694.361 122.068ZM693.281 95.4203L692.402 94.945L693.281 95.4203ZM700.554 87.4658L700.007 86.629L700.554 87.4658ZM711.009 82.9203L710.757 81.9524L710.755 81.953L711.009 82.9203ZM723.395 80.7612L723.491 81.7566L723.499 81.7558L723.395 80.7612ZM735.668 79.284L735.813 80.2735L735.824 80.2716L735.668 79.284ZM742.429 77.1249L741.869 76.2963H741.869L742.429 77.1249ZM741.122 64.2271L740.461 64.9774L740.467 64.9828L741.122 64.2271ZM721.179 64.1703L721.771 64.976L721.779 64.9703L721.179 64.1703ZM716.065 71.3294L715.984 72.3261L716.799 72.3923L717.026 71.6075L716.065 71.3294ZM693.679 69.5112L692.701 69.3017L692.463 70.4157L693.598 70.5079L693.679 69.5112ZM700.384 55.7612L701.141 56.4145L701.144 56.4108L700.384 55.7612ZM713.281 46.784L713.649 47.7138L713.653 47.7124L713.281 46.784ZM745.611 45.3067L745.363 46.2753L745.365 46.2758L745.611 45.3067ZM757.486 50.5908L756.917 51.413L756.921 51.4159L757.486 50.5908ZM765.725 59.7953L764.843 60.2673L764.845 60.271L765.725 59.7953ZM768.736 132.011V133.011H769.736V132.011H768.736ZM745.781 132.011H744.781V133.011H745.781V132.011ZM745.781 119.909H746.781V118.909H745.781V119.909ZM745.1 119.909V118.909H744.489L744.21 119.452L745.1 119.909ZM739.475 127.125L740.131 127.879L740.138 127.873L739.475 127.125ZM731.009 131.954L731.335 132.9L731.344 132.896L731.009 131.954ZM735.952 114.852L736.409 115.742L736.419 115.737L735.952 114.852ZM742.372 109.057L741.53 108.517L742.372 109.057ZM744.702 91.5567H745.702V89.714L744.157 90.7182L744.702 91.5567ZM741.577 92.9203L741.859 93.8797L741.868 93.8771L741.877 93.8743L741.577 92.9203ZM737.202 93.9999L737.385 94.983L737.396 94.9809L737.407 94.9787L737.202 93.9999ZM732.315 94.8521L732.454 95.8425L732.465 95.841L732.476 95.8391L732.315 94.8521ZM727.884 95.4771L727.742 94.4872L727.739 94.4877L727.884 95.4771ZM720.44 97.4658L720.834 98.3849L720.44 97.4658ZM715.497 101.159L716.288 101.772L716.295 101.762L715.497 101.159ZM717.315 114.398L716.726 115.205L716.733 115.21L716.74 115.216L717.315 114.398ZM719.588 133.659V132.659C714.136 132.659 709.316 131.714 705.107 129.847L704.702 130.761L704.296 131.675C708.8 133.673 713.904 134.659 719.588 134.659V133.659ZM704.702 130.761L705.114 129.85C700.922 127.954 697.624 125.178 695.194 121.515L694.361 122.068L693.528 122.621C696.174 126.61 699.77 129.629 704.29 131.672L704.702 130.761ZM694.361 122.068L695.201 121.525C692.829 117.859 691.611 113.249 691.611 107.636H690.611H689.611C689.611 113.538 690.893 118.55 693.521 122.611L694.361 122.068ZM690.611 107.636H691.611C691.611 102.906 692.48 99.0083 694.161 95.8956L693.281 95.4203L692.402 94.945C690.523 98.4232 689.611 102.669 689.611 107.636H690.611ZM693.281 95.4203L694.161 95.8956C695.864 92.7431 698.176 90.2171 701.102 88.3026L700.554 87.4658L700.007 86.629C696.796 88.7296 694.259 91.5066 692.402 94.945L693.281 95.4203ZM700.554 87.4658L701.102 88.3026C704.071 86.3597 707.455 84.8857 711.262 83.8876L711.009 82.9203L710.755 81.953C706.76 83.0004 703.174 84.5567 700.007 86.629L700.554 87.4658ZM711.009 82.9203L711.26 83.8882C715.145 82.8796 719.222 82.1685 723.491 81.7566L723.395 80.7612L723.299 79.7659C718.932 80.1872 714.751 80.9156 710.757 81.9524L711.009 82.9203ZM723.395 80.7612L723.499 81.7558C728.581 81.2248 732.687 80.7308 735.812 80.2734L735.668 79.284L735.523 78.2945C732.436 78.7462 728.36 79.237 723.291 79.7666L723.395 80.7612ZM735.668 79.284L735.824 80.2716C738.971 79.7727 741.402 79.0256 742.989 77.9535L742.429 77.1249L741.869 76.2963C740.653 77.1181 738.576 77.8104 735.511 78.2963L735.668 79.284ZM742.429 77.1249L742.989 77.9535C744.696 76.8002 745.531 75.0705 745.531 72.9203H744.531H743.531C743.531 74.4823 742.965 75.5556 741.869 76.2963L742.429 77.1249ZM744.531 72.9203H745.531V72.5794H744.531H743.531V72.9203H744.531ZM744.531 72.5794H745.531C745.531 68.7534 744.312 65.6685 741.777 63.4714L741.122 64.2271L740.467 64.9828C742.478 66.7252 743.531 69.2084 743.531 72.5794H744.531ZM741.122 64.2271L741.783 63.4769C739.306 61.2934 735.855 60.2726 731.577 60.2726V61.2726V62.2726C735.556 62.2726 738.469 63.2215 740.461 64.9773L741.122 64.2271ZM731.577 61.2726V60.2726C727.08 60.2726 723.38 61.2697 720.579 63.3703L721.179 64.1703L721.779 64.9703C724.13 63.2073 727.362 62.2726 731.577 62.2726V61.2726ZM721.179 64.1703L720.587 63.3647C717.846 65.3798 716.004 67.9463 715.105 71.0514L716.065 71.3294L717.026 71.6075C717.794 68.9549 719.361 66.7487 721.771 64.976L721.179 64.1703ZM716.065 71.3294L716.146 70.3327L693.76 68.5145L693.679 69.5112L693.598 70.5079L715.984 72.3261L716.065 71.3294ZM693.679 69.5112L694.657 69.7208C695.76 64.5712 697.924 60.1431 701.141 56.4145L700.384 55.7612L699.626 55.108C696.177 59.1067 693.871 63.8452 692.701 69.3017L693.679 69.5112ZM700.384 55.7612L701.144 56.4108C704.361 52.6458 708.52 49.7434 713.649 47.7138L713.281 46.784L712.913 45.8541C707.513 47.9911 703.073 51.0737 699.623 55.1117L700.384 55.7612ZM713.281 46.784L713.653 47.7124C718.815 45.6476 724.821 44.6021 731.69 44.6021V43.6021V42.6021C724.621 42.6021 718.354 43.6779 712.91 45.8555L713.281 46.784ZM731.69 43.6021V44.6021C736.46 44.6021 741.017 45.161 745.363 46.2753L745.611 45.3067L745.859 44.338C741.342 43.1796 736.618 42.6021 731.69 42.6021V43.6021ZM745.611 45.3067L745.365 46.2758C749.73 47.3858 753.577 49.1009 756.917 51.413L757.486 50.5908L758.055 49.7686C754.501 47.3079 750.431 45.5003 745.857 44.3375L745.611 45.3067ZM757.486 50.5908L756.921 51.4159C760.272 53.7109 762.91 56.6576 764.843 60.2673L765.725 59.7953L766.606 59.3233C764.523 55.433 761.669 52.2433 758.051 49.7657L757.486 50.5908ZM765.725 59.7953L764.845 60.271C766.757 63.8071 767.736 68.0866 767.736 73.1476H768.736H769.736C769.736 67.8298 768.707 63.2077 766.604 59.3196L765.725 59.7953ZM768.736 73.1476H767.736V132.011H768.736H769.736V73.1476H768.736ZM768.736 132.011V131.011H745.781V132.011V133.011H768.736V132.011ZM745.781 132.011H746.781V119.909H745.781H744.781V132.011H745.781ZM745.781 119.909V118.909H745.1V119.909V120.909H745.781V119.909ZM745.1 119.909L744.21 119.452C742.867 122.066 741.069 124.374 738.811 126.377L739.475 127.125L740.138 127.873C742.577 125.709 744.529 123.206 745.989 120.366L745.1 119.909ZM739.475 127.125L738.818 126.371C736.575 128.325 733.865 129.875 730.673 131.012L731.009 131.954L731.344 132.896C734.743 131.685 737.678 130.016 740.131 127.879L739.475 127.125ZM731.009 131.954L730.683 131.009C727.514 132.102 723.821 132.659 719.588 132.659V133.659V134.659C723.992 134.659 727.913 134.08 731.335 132.9L731.009 131.954ZM726.52 116.954V117.954C730.214 117.954 733.519 117.227 736.409 115.742L735.952 114.852L735.495 113.963C732.93 115.281 729.947 115.954 726.52 115.954V116.954ZM735.952 114.852L736.419 115.737C739.287 114.222 741.561 112.176 743.214 109.596L742.372 109.057L741.53 108.517C740.077 110.786 738.071 112.603 735.485 113.968L735.952 114.852ZM742.372 109.057L743.214 109.596C744.877 107 745.702 104.064 745.702 100.818H744.702H743.702C743.702 103.708 742.973 106.265 741.53 108.517L742.372 109.057ZM744.702 100.818H745.702V91.5567H744.702H743.702V100.818H744.702ZM744.702 91.5567L744.157 90.7182C743.505 91.1422 742.557 91.5639 741.277 91.9663L741.577 92.9203L741.877 93.8743C743.248 93.4434 744.384 92.956 745.247 92.3951L744.702 91.5567ZM741.577 92.9203L741.295 91.961C740.037 92.3307 738.606 92.6844 736.997 93.0211L737.202 93.9999L737.407 94.9787C739.056 94.6335 740.54 94.2675 741.859 93.8797L741.577 92.9203ZM737.202 93.9999L737.019 93.0167C735.397 93.3184 733.776 93.6012 732.155 93.8651L732.315 94.8521L732.476 95.8391C734.112 95.5728 735.749 95.2874 737.385 94.983L737.202 93.9999ZM732.315 94.8521L732.177 93.8617C730.548 94.0891 729.069 94.2976 727.742 94.4872L727.884 95.4771L728.025 96.4671C729.35 96.2779 730.826 96.0697 732.454 95.8425L732.315 94.8521ZM727.884 95.4771L727.739 94.4877C724.832 94.914 722.264 95.5963 720.047 96.5466L720.44 97.4658L720.834 98.3849C722.859 97.517 725.254 96.8736 728.029 96.4666L727.884 95.4771ZM720.44 97.4658L720.047 96.5466C717.795 97.5115 715.997 98.8405 714.7 100.556L715.497 101.159L716.295 101.762C717.346 100.371 718.843 99.2383 720.834 98.3849L720.44 97.4658ZM715.497 101.159L714.707 100.546C713.373 102.268 712.736 104.389 712.736 106.841H713.736H714.736C714.736 104.747 715.273 103.08 716.288 101.772L715.497 101.159ZM713.736 106.841H712.736C712.736 110.413 714.049 113.251 716.726 115.205L717.315 114.398L717.905 113.59C715.809 112.06 714.736 109.859 714.736 106.841H713.736ZM717.315 114.398L716.74 115.216C719.371 117.066 722.654 117.954 726.52 117.954V116.954V115.954C722.961 115.954 720.108 115.139 717.891 113.58L717.315 114.398ZM806.919 81.5567L805.919 81.5466V81.5567H806.919ZM806.919 132.011V133.011H807.919V132.011H806.919ZM782.714 132.011H781.714V133.011H782.714V132.011ZM782.714 44.7385V43.7385H781.714V44.7385H782.714ZM805.783 44.7385H806.783V43.7385H805.783V44.7385ZM805.783 60.1362H804.783V61.1362H805.783V60.1362ZM806.805 60.1362V61.1362H807.495L807.74 60.4919L806.805 60.1362ZM816.521 48.0908L817.066 48.9292L817.071 48.926L816.521 48.0908ZM848.908 47.5794L849.415 46.7175L848.908 47.5794ZM859.419 58.943L858.527 59.3957L858.529 59.3985L859.419 58.943ZM863.169 132.011V133.011H864.169V132.011H863.169ZM838.964 132.011H837.964V133.011H838.964V132.011ZM838.964 80.7612L837.964 80.7541V80.7612H838.964ZM834.873 68.2612L834.135 68.9353L834.139 68.9399L834.873 68.2612ZM814.817 65.818L814.328 64.9457L814.322 64.949L814.817 65.818ZM809.021 71.9544L808.134 71.4923L808.132 71.4971L809.021 71.9544ZM806.919 81.5567H805.919V132.011H806.919H807.919V81.5567H806.919ZM806.919 132.011V131.011H782.714V132.011V133.011H806.919V132.011ZM782.714 132.011H783.714V44.7385H782.714H781.714V132.011H782.714ZM782.714 44.7385V45.7385H805.783V44.7385V43.7385H782.714V44.7385ZM805.783 44.7385H804.783V60.1362H805.783H806.783V44.7385H805.783ZM805.783 60.1362V61.1362H806.805V60.1362V59.1362H805.783V60.1362ZM806.805 60.1362L807.74 60.4919C809.596 55.6139 812.699 51.768 817.066 48.9292L816.521 48.0908L815.976 47.2523C811.253 50.3226 807.878 54.507 805.871 59.7805L806.805 60.1362ZM816.521 48.0908L817.071 48.926C821.424 46.0601 826.736 44.6021 833.055 44.6021V43.6021V42.6021C826.42 42.6021 820.709 44.1366 815.971 47.2555L816.521 48.0908ZM833.055 43.6021V44.6021C838.966 44.6021 844.07 45.8938 848.401 48.4413L848.908 47.5794L849.415 46.7175C844.73 43.962 839.265 42.6021 833.055 42.6021V43.6021ZM848.908 47.5794L848.401 48.4413C852.734 50.9905 856.109 54.6318 858.527 59.3957L859.419 58.943L860.311 58.4904C857.729 53.4058 854.096 49.4714 849.415 46.7175L848.908 47.5794ZM859.419 58.943L858.529 59.3985C860.941 64.1146 862.169 69.7845 862.169 76.443H863.169H864.169C864.169 69.541 862.896 63.5443 860.309 58.4876L859.419 58.943ZM863.169 76.443H862.169V132.011H863.169H864.169V76.443H863.169ZM863.169 132.011V131.011H838.964V132.011V133.011H863.169V132.011ZM838.964 132.011H839.964V80.7612H838.964H837.964V132.011H838.964ZM838.964 80.7612L839.964 80.7683C840.003 75.2547 838.594 70.8137 835.608 67.5826L834.873 68.2612L834.139 68.9399C836.684 71.6936 838.001 75.586 837.964 80.7541L838.964 80.7612ZM834.873 68.2612L835.612 67.5872C832.623 64.3113 828.527 62.7158 823.453 62.7158V63.7158V64.7158C828.076 64.7158 831.594 66.1505 834.135 68.9353L834.873 68.2612ZM823.453 63.7158V62.7158C820.048 62.7158 816.996 63.4496 814.328 64.9458L814.817 65.818L815.306 66.6903C817.637 65.3834 820.343 64.7158 823.453 64.7158V63.7158ZM814.817 65.818L814.322 64.949C811.681 66.4524 809.618 68.6449 808.134 71.4923L809.021 71.9544L809.908 72.4165C811.227 69.8851 813.028 67.9867 815.311 66.6871L814.817 65.818ZM809.021 71.9544L808.132 71.4971C806.681 74.3181 805.958 77.6801 805.919 81.5466L806.919 81.5567L807.919 81.5668C807.956 77.9333 808.634 74.8938 809.91 72.4118L809.021 71.9544Z" fill="url(#paint1_linear_462_9405)" mask="url(#path-1-outside-1_462_9405)"/>
</g>
<defs>
<filter id="filter0_dd_462_9405" x="0" y="0" width="871.169" height="174.557" filterUnits="userSpaceOnUse" color-interpolation-filters="sRGB">
<feFlood flood-opacity="0" result="BackgroundImageFix"/>
<feColorMatrix in="SourceAlpha" type="matrix" values="0 0 0 0 0 0 0 0 0 0 0 0 0 0 0 0 0 0 127 0" result="hardAlpha"/>
<feOffset dx="-2" dy="2"/>
<feGaussianBlur stdDeviation="2.5"/>
<feComposite in2="hardAlpha" operator="out"/>
<feColorMatrix type="matrix" values="0 0 0 0 0 0 0 0 0 0 0 0 0 0 0 0 0 0 0.14 0"/>
<feBlend mode="normal" in2="BackgroundImageFix" result="effect1_dropShadow_462_9405"/>
<feColorMatrix in="SourceAlpha" type="matrix" values="0 0 0 0 0 0 0 0 0 0 0 0 0 0 0 0 0 0 127 0" result="hardAlpha"/>
<feOffset dx="2" dy="-3"/>
<feGaussianBlur stdDeviation="2.5"/>
<feComposite in2="hardAlpha" operator="out"/>
<feColorMatrix type="matrix" values="0 0 0 0 1 0 0 0 0 1 0 0 0 0 1 0 0 0 1 0"/>
<feBlend mode="normal" in2="effect1_dropShadow_462_9405" result="effect2_dropShadow_462_9405"/>
<feBlend mode="normal" in="SourceGraphic" in2="effect2_dropShadow_462_9405" result="shape"/>
</filter>
<linearGradient id="paint0_linear_462_9405" x1="435.386" y1="16.0112" x2="435.386" y2="132.011" gradientUnits="userSpaceOnUse">
<stop stop-color="#F6F6F6"/>
<stop offset="0.75" stop-color="white" stop-opacity="0"/>
</linearGradient>
<linearGradient id="paint1_linear_462_9405" x1="435.386" y1="46.3001" x2="435.386" y2="132.011" gradientUnits="userSpaceOnUse">
<stop stop-color="white" stop-opacity="0"/>
<stop offset="1" stop-color="white"/>
</linearGradient>
</defs>
</svg>
