<svg width="24" height="24" viewBox="0 0 24 24" fill="none" xmlns="http://www.w3.org/2000/svg">
<path d="M19.5449 17.954C19.7563 18.1653 19.875 18.452 19.875 18.7509C19.875 19.0497 19.7563 19.3364 19.5449 19.5477C19.3336 19.7591 19.0469 19.8778 18.748 19.8778C18.4492 19.8778 18.1625 19.7591 17.9512 19.5477L11.999 13.5937L6.04492 19.5459C5.83358 19.7572 5.54693 19.8759 5.24805 19.8759C4.94916 19.8759 4.66251 19.7572 4.45117 19.5459C4.23983 19.3345 4.12109 19.0479 4.12109 18.749C4.12109 18.4501 4.23983 18.1635 4.45117 17.9521L10.4052 11.9999L4.45305 6.04586C4.2417 5.83451 4.12297 5.54787 4.12297 5.24898C4.12297 4.9501 4.2417 4.66345 4.45305 4.45211C4.66439 4.24076 4.95103 4.12203 5.24992 4.12203C5.54881 4.12203 5.83545 4.24076 6.0468 4.45211L11.999 10.4062L17.953 4.45117C18.1644 4.23983 18.451 4.12109 18.7499 4.12109C19.0488 4.12109 19.3354 4.23983 19.5468 4.45117C19.7581 4.66251 19.8769 4.94916 19.8769 5.24804C19.8769 5.54693 19.7581 5.83358 19.5468 6.04492L13.5927 11.9999L19.5449 17.954Z" fill="#FF0000"/>
</svg>
