<svg width="34" height="34" viewBox="0 0 34 34" fill="none" xmlns="http://www.w3.org/2000/svg">
<path fill-rule="evenodd" clip-rule="evenodd" d="M1.41663 6.88087C1.41663 4.64544 3.25265 2.83325 5.5175 2.83325H28.4824C30.7472 2.83325 32.5833 4.64544 32.5833 6.88087V21.4523C32.5833 23.6877 30.7472 25.4999 28.4824 25.4999H5.5175C3.25265 25.4999 1.41663 23.6877 1.41663 21.4523V6.88087ZM5.5175 4.4523C4.15859 4.4523 3.05698 5.5396 3.05698 6.88087V21.4523C3.05698 22.7935 4.15859 23.8809 5.5175 23.8809H28.4824C29.8413 23.8809 30.9429 22.7935 30.9429 21.4523V6.88087C30.9429 5.5396 29.8413 4.4523 28.4824 4.4523H5.5175Z" fill="url(#paint0_linear_487_1425)"/>
<path fill-rule="evenodd" clip-rule="evenodd" d="M1.41663 20.5416C1.41663 20.1504 1.78383 19.8333 2.2368 19.8333H31.7631C32.216 19.8333 32.5833 20.1504 32.5833 20.5416V21.9583C32.5833 23.9142 30.7472 25.4999 28.4824 25.4999H5.5175C3.25265 25.4999 1.41663 23.9142 1.41663 21.9583V20.5416ZM3.05698 21.2499V21.9583C3.05698 23.1318 4.15859 24.0833 5.5175 24.0833H28.4824C29.8413 24.0833 30.9429 23.1318 30.9429 21.9583V21.2499H3.05698Z" fill="url(#paint1_linear_487_1425)"/>
<path d="M12.75 22.6667H21.25V25.5001H12.75V22.6667Z" fill="#110F20"/>
<path fill-rule="evenodd" clip-rule="evenodd" d="M12.0416 21.9583H21.9583V26.2083H12.0416V21.9583ZM13.4583 23.3749V24.7916H20.5416V23.3749H13.4583Z" fill="url(#paint2_linear_487_1425)"/>
<path fill-rule="evenodd" clip-rule="evenodd" d="M7.90967 30.1042C7.90967 28.735 9.01964 27.625 10.3889 27.625H23.6113C24.9804 27.625 26.0904 28.735 26.0904 30.1042C26.0904 31.4734 24.9804 32.5834 23.6113 32.5834H10.3889C9.01964 32.5834 7.90967 31.4734 7.90967 30.1042ZM10.3889 29.2778C9.93246 29.2778 9.56247 29.6479 9.56247 30.1042C9.56247 30.5605 9.93246 30.9306 10.3889 30.9306H23.6113C24.0676 30.9306 24.4376 30.5605 24.4376 30.1042C24.4376 29.6479 24.0676 29.2778 23.6113 29.2778H10.3889Z" fill="url(#paint3_linear_487_1425)"/>
<path fill-rule="evenodd" clip-rule="evenodd" d="M25.2479 8.45576C25.3375 8.9033 25.0473 9.33867 24.5997 9.42817C23.0039 9.74732 22.4007 10.9692 21.6953 12.5671C21.6817 12.598 21.6678 12.6292 21.6541 12.6606C21.3368 13.3807 20.9723 14.2074 20.4375 14.8439C19.8324 15.5639 19.0025 16.0555 17.8264 16.0555C17.2021 16.0555 16.6516 15.9305 16.1954 15.6466C15.7316 15.358 15.4376 14.9502 15.2558 14.5139C14.9328 13.7387 14.9335 12.7691 14.934 12.0101C14.934 11.9809 14.934 11.952 14.934 11.9234C14.934 11.0414 14.9204 10.4033 14.7393 9.96866C14.6629 9.7852 14.5695 9.67656 14.4522 9.60356C14.3274 9.52585 14.1031 9.44421 13.6944 9.44421C13.3575 9.44421 12.9441 9.61467 12.4653 10.0456C11.9921 10.4715 11.5263 11.0901 11.1044 11.8203C10.2553 13.2899 9.68026 15.0406 9.55737 16.1467C9.50696 16.6002 9.09837 16.9271 8.64476 16.8767C8.19114 16.8263 7.86428 16.4178 7.91467 15.9642C8.06724 14.591 8.73183 12.6229 9.67327 10.9935C10.1466 10.1743 10.7138 9.39828 11.3597 8.81704C12 8.24078 12.7917 7.79142 13.6944 7.79142C14.3187 7.79142 14.8692 7.9164 15.3254 8.20024C15.7891 8.48878 16.0832 8.89664 16.265 9.33298C16.5879 10.1081 16.5873 11.0778 16.5868 11.8368V11.9234C16.5868 12.8054 16.6003 13.4435 16.7815 13.8782C16.858 14.0616 16.9512 14.1703 17.0686 14.2433C17.1935 14.321 17.4177 14.4026 17.8264 14.4026C18.4594 14.4026 18.8439 14.1711 19.1721 13.7806C19.5471 13.3343 19.8264 12.7079 20.1833 11.8996C20.1907 11.8828 20.1982 11.8659 20.2056 11.849C20.8662 10.3521 21.7677 8.30906 24.2756 7.80746C24.723 7.71796 25.1584 8.00821 25.2479 8.45576Z" fill="url(#paint4_linear_487_1425)"/>
<defs>
<linearGradient id="paint0_linear_487_1425" x1="1.41663" y1="2.9955" x2="33.8607" y2="5.03699" gradientUnits="userSpaceOnUse">
<stop stop-color="#EA9354"/>
<stop offset="0.540555" stop-color="#8D40D7"/>
<stop offset="1" stop-color="#863AEB"/>
</linearGradient>
<linearGradient id="paint1_linear_487_1425" x1="1.41663" y1="19.8738" x2="32.0486" y2="27.5837" gradientUnits="userSpaceOnUse">
<stop stop-color="#EA9354"/>
<stop offset="0.540555" stop-color="#8D40D7"/>
<stop offset="1" stop-color="#863AEB"/>
</linearGradient>
<linearGradient id="paint2_linear_487_1425" x1="12.0416" y1="21.9887" x2="22.2888" y2="23.0829" gradientUnits="userSpaceOnUse">
<stop stop-color="#EA9354"/>
<stop offset="0.540555" stop-color="#8D40D7"/>
<stop offset="1" stop-color="#863AEB"/>
</linearGradient>
<linearGradient id="paint3_linear_487_1425" x1="7.90967" y1="27.6605" x2="26.3902" y2="30.7614" gradientUnits="userSpaceOnUse">
<stop stop-color="#EA9354"/>
<stop offset="0.540555" stop-color="#8D40D7"/>
<stop offset="1" stop-color="#863AEB"/>
</linearGradient>
<linearGradient id="paint4_linear_487_1425" x1="7.90955" y1="7.85633" x2="25.9096" y2="9.42889" gradientUnits="userSpaceOnUse">
<stop stop-color="#EA9354"/>
<stop offset="0.540555" stop-color="#8D40D7"/>
<stop offset="1" stop-color="#863AEB"/>
</linearGradient>
</defs>
</svg>
