<svg width="34" height="34" viewBox="0 0 34 34" fill="none" xmlns="http://www.w3.org/2000/svg">
<path d="M16.9511 30.6731C15.3441 30.6751 13.7567 30.32 12.3037 29.6333C10.8508 28.9466 9.56863 27.9456 8.55003 26.7026C8.50456 26.6474 8.47039 26.5838 8.44949 26.5155C8.42858 26.4471 8.42135 26.3753 8.4282 26.3041C8.43505 26.2329 8.45585 26.1638 8.48942 26.1007C8.52298 26.0376 8.56865 25.9817 8.62381 25.9362C8.67898 25.8907 8.74256 25.8566 8.81092 25.8357C8.87929 25.8148 8.95111 25.8075 9.02227 25.8144C9.09343 25.8212 9.16255 25.842 9.22568 25.8756C9.2888 25.9092 9.3447 25.9548 9.39017 26.01C10.3067 27.129 11.4605 28.0303 12.7682 28.6487C14.0759 29.267 15.5046 29.5868 16.9511 29.5851C22.3493 29.5851 26.7411 25.1896 26.7411 19.788C26.7408 17.482 25.9267 15.2501 24.4422 13.4855C22.9578 11.7209 20.8982 10.5368 18.6263 10.1418C16.3544 9.74684 14.016 10.1663 12.023 11.3264C10.0301 12.4864 8.51052 14.3126 7.73199 16.4832C7.70788 16.5505 7.67076 16.6123 7.62274 16.6652C7.57472 16.7181 7.51675 16.7611 7.45214 16.7916C7.38753 16.8221 7.31754 16.8396 7.24617 16.8431C7.1748 16.8465 7.10345 16.8359 7.03618 16.8118C6.96892 16.7877 6.90706 16.7506 6.85414 16.7025C6.80122 16.6545 6.75828 16.5966 6.72777 16.532C6.69725 16.4673 6.67977 16.3974 6.6763 16.326C6.67283 16.2546 6.68346 16.1833 6.70757 16.116C7.38088 14.241 8.55608 12.5869 10.105 11.334C11.654 10.0811 13.5172 9.27753 15.4915 9.01094C17.4658 8.74435 19.4754 9.02497 21.3011 9.82218C23.1269 10.6194 24.6987 11.9026 25.8452 13.5319C26.9917 15.1611 27.6688 17.0739 27.8027 19.0616C27.9367 21.0494 27.5223 23.0357 26.6047 24.804C25.6872 26.5724 24.3017 28.0549 22.5994 29.0898C20.8971 30.1247 18.9433 30.6724 16.9511 30.6731Z" fill="url(#paint0_linear_487_1350)"/>
<path d="M6.7409 18.7245C6.59662 18.7245 6.45825 18.6672 6.35623 18.5651C6.25421 18.4631 6.1969 18.3248 6.1969 18.1805C6.1969 18.0729 6.2288 17.9677 6.28858 17.8782C6.34836 17.7888 6.43332 17.7191 6.53272 17.6779C6.63212 17.6367 6.7415 17.6259 6.84703 17.6469C6.95255 17.6679 7.04949 17.7197 7.12557 17.7958C7.20165 17.8719 7.25346 17.9688 7.27445 18.0743C7.29544 18.1799 7.28466 18.2893 7.24349 18.3887C7.20232 18.4881 7.13259 18.573 7.04313 18.6328C6.95367 18.6926 6.84849 18.7245 6.7409 18.7245Z" fill="url(#paint1_linear_487_1350)"/>
<path d="M19.7881 7.02474H14.1101C13.7716 7.02366 13.4474 6.88847 13.2084 6.64879C12.9694 6.40911 12.8352 6.08447 12.8351 5.746V4.641C12.8354 4.30224 12.9702 3.97746 13.2097 3.73791C13.4493 3.49837 13.774 3.36364 14.1128 3.36328H19.7881C20.1268 3.36364 20.4516 3.49837 20.6912 3.73791C20.9307 3.97746 21.0654 4.30224 21.0658 4.641V5.746C21.0657 6.08494 20.9311 6.40999 20.6915 6.64975C20.452 6.88951 20.127 7.02438 19.7881 7.02474ZM14.1101 4.45128C14.0598 4.45128 14.0115 4.47127 13.9759 4.50685C13.9404 4.54243 13.9204 4.59068 13.9204 4.641V5.746C13.9204 5.79632 13.9404 5.84457 13.9759 5.88015C14.0115 5.91573 14.0598 5.93572 14.1101 5.93572H19.7881C19.813 5.93572 19.8377 5.93081 19.8607 5.92128C19.8837 5.91175 19.9046 5.89777 19.9222 5.88015C19.9399 5.86254 19.9538 5.84162 19.9634 5.8186C19.9729 5.79559 19.9778 5.77092 19.9778 5.746V4.641C19.9778 4.61609 19.9729 4.59142 19.9634 4.5684C19.9538 4.54538 19.9399 4.52447 19.9222 4.50685C19.9046 4.48923 19.8837 4.47526 19.8607 4.46572C19.8377 4.45619 19.813 4.45128 19.7881 4.45128H14.1101Z" fill="url(#paint2_linear_487_1350)"/>
<path d="M18.8259 10.1592C18.6816 10.1592 18.5432 10.1019 18.4412 9.99989C18.3392 9.89787 18.2819 9.75951 18.2819 9.61523V6.48077C18.2819 6.33649 18.3392 6.19812 18.4412 6.0961C18.5432 5.99408 18.6816 5.93677 18.8259 5.93677C18.9701 5.93677 19.1085 5.99408 19.2105 6.0961C19.3125 6.19812 19.3699 6.33649 19.3699 6.48077V9.61523C19.3699 9.75951 19.3125 9.89787 19.2105 9.99989C19.1085 10.1019 18.9701 10.1592 18.8259 10.1592Z" fill="url(#paint3_linear_487_1350)"/>
<path d="M15.0763 10.1504C14.9321 10.1504 14.7937 10.0931 14.6917 9.99105C14.5897 9.88903 14.5323 9.75067 14.5323 9.60639V6.48077C14.5323 6.33649 14.5897 6.19812 14.6917 6.0961C14.7937 5.99408 14.9321 5.93677 15.0763 5.93677C15.2206 5.93677 15.359 5.99408 15.461 6.0961C15.563 6.19812 15.6203 6.33649 15.6203 6.48077V9.60639C15.6203 9.75067 15.563 9.88903 15.461 9.99105C15.359 10.0931 15.2206 10.1504 15.0763 10.1504Z" fill="url(#paint4_linear_487_1350)"/>
<path d="M23.426 12.2703C23.3185 12.2703 23.2133 12.2385 23.1238 12.1787C23.0344 12.119 22.9646 12.034 22.9234 11.9346C22.8822 11.8352 22.8714 11.7259 22.8924 11.6204C22.9133 11.5148 22.9651 11.4179 23.0412 11.3418L24.2271 10.1545C24.2773 10.1027 24.3373 10.0615 24.4036 10.0331C24.4699 10.0048 24.5411 9.98985 24.6132 9.98928C24.6854 9.9887 24.7569 10.0025 24.8236 10.0298C24.8903 10.0571 24.951 10.0974 25.002 10.1483C25.053 10.1993 25.0934 10.2599 25.1208 10.3266C25.1482 10.3933 25.162 10.4648 25.1616 10.5369C25.1611 10.609 25.1463 10.6803 25.118 10.7466C25.0897 10.8129 25.0485 10.873 24.9968 10.9232L23.8113 12.1109C23.7607 12.1615 23.7006 12.2016 23.6345 12.229C23.5684 12.2563 23.4976 12.2704 23.426 12.2703Z" fill="url(#paint5_linear_487_1350)"/>
<path d="M25.8907 11.9276C25.6833 11.9282 25.4778 11.8876 25.2862 11.8082C25.0945 11.7287 24.9206 11.612 24.7745 11.4648L23.6923 10.3823C23.3971 10.086 23.2314 9.68487 23.2314 9.26671C23.2314 8.84855 23.3971 8.44743 23.6923 8.15117L24.2726 7.57045C24.4192 7.42374 24.5932 7.30736 24.7848 7.22795C24.9763 7.14854 25.1817 7.10767 25.389 7.10767C25.5964 7.10767 25.8017 7.14854 25.9933 7.22795C26.1848 7.30736 26.3589 7.42374 26.5054 7.57045L27.5873 8.65335C27.8826 8.94946 28.0484 9.35056 28.0484 9.76872C28.0484 10.1869 27.8826 10.588 27.5873 10.8841L27.0069 11.4648C26.8607 11.612 26.6868 11.7287 26.4952 11.8081C26.3036 11.8875 26.0981 11.9281 25.8907 11.9276ZM25.3892 8.19571C25.3247 8.19548 25.2609 8.20808 25.2013 8.23277C25.1418 8.25746 25.0878 8.29375 25.0424 8.33953L24.462 8.92025C24.3704 9.01227 24.3189 9.13684 24.3189 9.26671C24.3189 9.39658 24.3704 9.52116 24.462 9.61317L25.5439 10.6957C25.5894 10.7413 25.6435 10.7775 25.703 10.8022C25.7625 10.8269 25.8263 10.8396 25.8907 10.8396C25.9551 10.8396 26.0189 10.8269 26.0784 10.8022C26.1379 10.7775 26.192 10.7413 26.2375 10.6957L26.8175 10.115C26.9093 10.0231 26.9609 9.89859 26.9609 9.76872C26.9609 9.63886 26.9093 9.5143 26.8175 9.42243L25.7357 8.33953C25.6903 8.29379 25.6363 8.25753 25.5769 8.23284C25.5174 8.20815 25.4536 8.19553 25.3892 8.19571Z" fill="url(#paint6_linear_487_1350)"/>
<path d="M10.4765 12.2703C10.405 12.2703 10.3342 12.2563 10.2682 12.2289C10.2021 12.2015 10.1421 12.1614 10.0916 12.1109L8.90533 10.9232C8.85364 10.873 8.81246 10.8129 8.78418 10.7466C8.7559 10.6803 8.74109 10.609 8.74061 10.5369C8.74013 10.4648 8.75399 10.3933 8.78139 10.3266C8.80879 10.2599 8.84917 10.1993 8.90019 10.1483C8.95121 10.0974 9.01185 10.0571 9.07859 10.0298C9.14533 10.0025 9.21683 9.9887 9.28893 9.98928C9.36104 9.98985 9.43231 10.0048 9.4986 10.0331C9.5649 10.0615 9.62489 10.1027 9.67509 10.1545L10.8614 11.3418C10.9374 11.4179 10.9892 11.5148 11.0101 11.6204C11.0311 11.7259 11.0203 11.8352 10.9791 11.9346C10.9379 12.034 10.8682 12.119 10.7787 12.1787C10.6892 12.2385 10.5841 12.2703 10.4765 12.2703Z" fill="url(#paint7_linear_487_1350)"/>
<path d="M8.01216 11.9275C7.80473 11.9281 7.59926 11.8875 7.40765 11.8081C7.21604 11.7286 7.04211 11.612 6.89594 11.4648L6.31556 10.8841C6.0203 10.588 5.85449 10.1869 5.85449 9.76869C5.85449 9.35053 6.0203 8.94943 6.31556 8.65332L7.39744 7.57042C7.54396 7.42372 7.71795 7.30734 7.90949 7.22794C8.10102 7.14854 8.30632 7.10767 8.51366 7.10767C8.72099 7.10767 8.9263 7.14854 9.11783 7.22794C9.30936 7.30734 9.48336 7.42372 9.62988 7.57042L10.2103 8.15114C10.5055 8.44725 10.6713 8.84835 10.6713 9.26651C10.6713 9.68467 10.5055 10.0858 10.2103 10.3819L9.12838 11.4648C8.9822 11.612 8.80827 11.7286 8.61666 11.8081C8.42505 11.8875 8.21958 11.9281 8.01216 11.9275ZM8.1672 8.3395L7.08498 9.4224C6.99335 9.51436 6.94191 9.63888 6.94191 9.76869C6.94191 9.8985 6.99335 10.023 7.08498 10.115L7.66536 10.6957C7.71086 10.7413 7.76492 10.7775 7.82443 10.8022C7.88394 10.8269 7.94773 10.8396 8.01216 10.8396C8.07658 10.8396 8.14037 10.8269 8.19988 10.8022C8.25939 10.7775 8.31345 10.7413 8.35896 10.6957L9.44084 9.61314C9.53248 9.52113 9.58393 9.39655 9.58393 9.26668C9.58393 9.13682 9.53248 9.01224 9.44084 8.92022L8.86046 8.3395C8.81498 8.29391 8.76095 8.25774 8.70147 8.23306C8.64199 8.20838 8.57822 8.19567 8.51383 8.19567C8.44943 8.19567 8.38566 8.20838 8.32618 8.23306C8.2667 8.25774 8.21268 8.29391 8.1672 8.3395Z" fill="url(#paint8_linear_487_1350)"/>
<path d="M16.9511 14.0419C16.8068 14.0419 16.6685 13.9846 16.5664 13.8826C16.4644 13.7806 16.4071 13.6422 16.4071 13.4979V12.004C16.4071 11.9325 16.4212 11.8618 16.4485 11.7958C16.4759 11.7298 16.5159 11.6698 16.5664 11.6193C16.617 11.5688 16.6769 11.5287 16.7429 11.5014C16.8089 11.474 16.8797 11.46 16.9511 11.46C17.0225 11.46 17.0933 11.474 17.1593 11.5014C17.2253 11.5287 17.2853 11.5688 17.3358 11.6193C17.3863 11.6698 17.4264 11.7298 17.4537 11.7958C17.481 11.8618 17.4951 11.9325 17.4951 12.004V13.4979C17.4951 13.6422 17.4378 13.7806 17.3358 13.8826C17.2338 13.9846 17.0954 14.0419 16.9511 14.0419Z" fill="url(#paint9_linear_487_1350)"/>
<path d="M16.9511 28.1139C16.8068 28.1139 16.6685 28.0565 16.5664 27.9545C16.4644 27.8525 16.4071 27.7141 16.4071 27.5699V26.0779C16.4071 26.0065 16.4212 25.9358 16.4485 25.8698C16.4759 25.8038 16.5159 25.7438 16.5664 25.6933C16.617 25.6428 16.6769 25.6027 16.7429 25.5753C16.8089 25.548 16.8797 25.5339 16.9511 25.5339C17.0225 25.5339 17.0933 25.548 17.1593 25.5753C17.2253 25.6027 17.2853 25.6428 17.3358 25.6933C17.3863 25.7438 17.4264 25.8038 17.4537 25.8698C17.481 25.9358 17.4951 26.0065 17.4951 26.0779V27.5716C17.4947 27.7155 17.4371 27.8535 17.3352 27.9551C17.2332 28.0568 17.0951 28.1139 16.9511 28.1139Z" fill="url(#paint10_linear_487_1350)"/>
<path d="M13.8067 14.8846C13.7112 14.8847 13.6173 14.8596 13.5345 14.8118C13.4517 14.7641 13.3829 14.6954 13.3352 14.6126L12.5872 13.3206C12.5504 13.2587 12.5263 13.1901 12.5162 13.1188C12.5061 13.0475 12.5103 12.9749 12.5285 12.9052C12.5467 12.8356 12.5786 12.7702 12.6222 12.713C12.6659 12.6557 12.7205 12.6077 12.7828 12.5717C12.8452 12.5357 12.9141 12.5124 12.9855 12.5032C13.0569 12.494 13.1294 12.4991 13.1989 12.5182C13.2683 12.5372 13.3333 12.5699 13.39 12.6143C13.4467 12.6586 13.4941 12.7138 13.5293 12.7766L14.2773 14.0686C14.325 14.1513 14.3502 14.2451 14.3502 14.3405C14.3502 14.436 14.3251 14.5298 14.2773 14.6125C14.2296 14.6952 14.161 14.7639 14.0783 14.8116C13.9956 14.8594 13.9019 14.8846 13.8064 14.8846H13.8067Z" fill="url(#paint11_linear_487_1350)"/>
<path d="M20.842 27.0715C20.7464 27.0716 20.6525 27.0465 20.5697 26.9987C20.487 26.951 20.4182 26.8823 20.3704 26.7995L19.6224 25.5075C19.5867 25.4456 19.5635 25.3773 19.5542 25.3065C19.5449 25.2356 19.5496 25.1636 19.5681 25.0946C19.5866 25.0256 19.6185 24.9609 19.662 24.9042C19.7055 24.8476 19.7598 24.8 19.8217 24.7643C19.8836 24.7286 19.9519 24.7054 20.0227 24.6961C20.0936 24.6867 20.1655 24.6915 20.2346 24.71C20.3036 24.7285 20.3683 24.7604 20.4249 24.8039C20.4816 24.8474 20.5292 24.9016 20.5649 24.9635L21.3129 26.2555C21.3606 26.3382 21.3858 26.4319 21.3858 26.5274C21.3858 26.6228 21.3607 26.7166 21.313 26.7993C21.2654 26.882 21.1968 26.9506 21.1142 26.9984C21.0315 27.0462 20.9378 27.0714 20.8423 27.0715H20.842Z" fill="url(#paint12_linear_487_1350)"/>
<path d="M10.215 16.4423C10.1207 16.4423 10.028 16.4175 9.9461 16.3706L9.94168 16.3682C9.81634 16.2967 9.72452 16.1784 9.68642 16.0392C9.64833 15.9001 9.66707 15.7515 9.73853 15.6261C9.80999 15.5008 9.92832 15.409 10.0675 15.3709C10.2066 15.3328 10.3552 15.3515 10.4806 15.423L10.4853 15.4257C10.5897 15.4852 10.6714 15.5775 10.7177 15.6883C10.7641 15.799 10.7725 15.922 10.7417 16.0381C10.7108 16.1541 10.6424 16.2567 10.5472 16.3298C10.4519 16.403 10.3351 16.4425 10.215 16.4423Z" fill="url(#paint13_linear_487_1350)"/>
<path d="M23.6909 24.2226C23.5954 24.2227 23.5015 24.1975 23.4189 24.1495L22.1269 23.4015C22.0641 23.3663 22.009 23.3189 21.9646 23.2622C21.9202 23.2055 21.8876 23.1405 21.8685 23.0711C21.8495 23.0016 21.8444 22.9291 21.8536 22.8577C21.8627 22.7863 21.886 22.7174 21.922 22.655C21.958 22.5927 22.006 22.5381 22.0633 22.4944C22.1206 22.4508 22.1859 22.4189 22.2556 22.4007C22.3253 22.3825 22.3978 22.3783 22.4691 22.3884C22.5404 22.3985 22.609 22.4226 22.6709 22.4593L23.9629 23.2073C24.0667 23.2672 24.1478 23.3596 24.1937 23.4703C24.2396 23.5809 24.2476 23.7037 24.2166 23.8194C24.1856 23.9351 24.1173 24.0373 24.0222 24.1102C23.9272 24.1831 23.8107 24.2226 23.6909 24.2226Z" fill="url(#paint14_linear_487_1350)"/>
<path d="M24.7279 20.3319H23.2357C23.0914 20.3319 22.953 20.2746 22.851 20.1726C22.749 20.0705 22.6917 19.9322 22.6917 19.7879C22.6917 19.6436 22.749 19.5052 22.851 19.4032C22.953 19.3012 23.0914 19.2439 23.2357 19.2439H24.7279C24.8722 19.2439 25.0106 19.3012 25.1126 19.4032C25.2146 19.5052 25.2719 19.6436 25.2719 19.7879C25.2719 19.9322 25.2146 20.0705 25.1126 20.1726C25.0106 20.2746 24.8722 20.3319 24.7279 20.3319Z" fill="url(#paint15_linear_487_1350)"/>
<path d="M22.3942 17.189C22.2744 17.1891 22.1579 17.1496 22.0629 17.0767C21.9678 17.0038 21.8995 16.9015 21.8685 16.7858C21.8375 16.6701 21.8456 16.5474 21.8914 16.4367C21.9373 16.3261 22.0184 16.2336 22.1222 16.1738L23.4142 15.4275C23.539 15.3575 23.6864 15.3394 23.8244 15.3773C23.9624 15.4152 24.0799 15.506 24.1515 15.6299C24.223 15.7538 24.2429 15.901 24.2067 16.0394C24.1705 16.1779 24.0812 16.2965 23.9582 16.3696L22.6662 17.1176C22.5833 17.1649 22.4895 17.1895 22.3942 17.189Z" fill="url(#paint16_linear_487_1350)"/>
<path d="M13.0621 27.0661C12.9667 27.066 12.8729 27.0408 12.7903 26.9931C12.7077 26.9453 12.6391 26.8766 12.5914 26.7939C12.5437 26.7112 12.5187 26.6174 12.5187 26.522C12.5187 26.4266 12.5438 26.3328 12.5916 26.2501L13.3396 24.9581C13.4164 24.8438 13.5338 24.7628 13.668 24.7316C13.8023 24.7005 13.9433 24.7214 14.0627 24.7902C14.1821 24.859 14.271 24.9706 14.3113 25.1023C14.3516 25.2341 14.3404 25.3763 14.28 25.5001L13.5337 26.7921C13.4862 26.8752 13.4175 26.9444 13.3347 26.9925C13.2519 27.0406 13.1579 27.066 13.0621 27.0661Z" fill="url(#paint17_linear_487_1350)"/>
<path d="M20.0941 14.8885C19.9987 14.8884 19.9049 14.8632 19.8223 14.8154C19.7397 14.7676 19.6711 14.6989 19.6234 14.6163C19.5757 14.5336 19.5506 14.4398 19.5507 14.3444C19.5507 14.2489 19.5758 14.1552 19.6235 14.0725L20.3715 12.7805C20.4068 12.7177 20.4541 12.6625 20.5108 12.6182C20.5676 12.5738 20.6325 12.5412 20.702 12.5221C20.7714 12.503 20.8439 12.4979 20.9153 12.5071C20.9867 12.5163 21.0556 12.5396 21.118 12.5756C21.1803 12.6116 21.2349 12.6596 21.2786 12.7169C21.3222 12.7741 21.3541 12.8395 21.3723 12.9092C21.3905 12.9788 21.3947 13.0514 21.3846 13.1227C21.3746 13.194 21.3505 13.2626 21.3137 13.3245L20.5674 14.6165C20.5195 14.6995 20.4504 14.7684 20.3673 14.8162C20.2842 14.8639 20.19 14.8889 20.0941 14.8885Z" fill="url(#paint18_linear_487_1350)"/>
<path d="M16.951 28.1138C15.4994 28.1143 14.073 27.7348 12.8135 27.0131C11.554 26.2913 10.5054 25.2525 9.77195 23.9998C9.73578 23.9382 9.71211 23.8701 9.70227 23.7993C9.69244 23.7285 9.69664 23.6565 9.71464 23.5874C9.73263 23.5182 9.76407 23.4533 9.80716 23.3963C9.85024 23.3393 9.90413 23.2914 9.96575 23.2552C10.0274 23.219 10.0955 23.1954 10.1663 23.1855C10.237 23.1757 10.309 23.1799 10.3782 23.1979C10.4473 23.2159 10.5122 23.2473 10.5692 23.2904C10.6262 23.3335 10.6742 23.3874 10.7103 23.449C11.513 24.8201 12.745 25.8888 14.2157 26.4897C15.6865 27.0907 17.3142 27.1906 18.8475 26.7739C20.3807 26.3573 21.734 25.4473 22.6983 24.1846C23.6626 22.9219 24.1842 21.3767 24.1825 19.7879C24.1825 15.7966 20.9379 12.5503 16.951 12.5503C15.5369 12.5516 14.1542 12.9669 12.9733 13.7449C11.7925 14.5229 10.8653 15.6297 10.3061 16.9285C10.2788 16.9955 10.2385 17.0564 10.1875 17.1076C10.1364 17.1588 10.0757 17.1993 10.0088 17.2268C9.94185 17.2542 9.87015 17.2681 9.79784 17.2675C9.72552 17.2669 9.65405 17.2519 9.5876 17.2234C9.52115 17.1949 9.46105 17.1534 9.41082 17.1014C9.36059 17.0494 9.32124 16.9878 9.29506 16.9204C9.26889 16.853 9.25642 16.7811 9.25838 16.7088C9.26034 16.6365 9.2767 16.5653 9.30649 16.4994C9.43505 16.1997 9.58139 15.9079 9.74475 15.6256C10.4745 14.3596 11.525 13.3082 12.7904 12.5774C14.0558 11.8466 15.4915 11.4621 16.9527 11.4626C18.4131 11.4646 19.8473 11.8505 21.1115 12.5816C22.3757 13.3126 23.4255 14.3632 24.1556 15.6279C24.8858 16.8927 25.2706 18.3272 25.2715 19.7875C25.2724 21.2479 24.8893 22.6828 24.1607 23.9485C23.4314 25.215 22.3811 26.267 21.1156 26.9983C19.8502 27.7295 18.4143 28.1143 16.9527 28.1138H16.951Z" fill="url(#paint19_linear_487_1350)"/>
<path d="M16.9511 21.7261C16.5677 21.7266 16.1928 21.6133 15.8738 21.4006C15.5548 21.188 15.306 20.8855 15.1589 20.5314C15.0119 20.1773 14.9732 19.7876 15.0477 19.4115C15.1222 19.0354 15.3066 18.6898 15.5775 18.4186C15.8485 18.1473 16.1938 17.9625 16.5698 17.8875C16.9458 17.8125 17.3356 17.8508 17.6898 17.9974C18.0441 18.144 18.3469 18.3924 18.56 18.7112C18.773 19.0299 18.8867 19.4047 18.8867 19.7881C18.8867 20.3017 18.6829 20.7943 18.32 21.1576C17.957 21.521 17.4647 21.7255 16.9511 21.7261ZM16.9511 18.9408C16.7829 18.9403 16.6183 18.9898 16.4782 19.0829C16.3381 19.176 16.2288 19.3086 16.1641 19.4639C16.0994 19.6192 16.0823 19.7901 16.1148 19.9552C16.1473 20.1202 16.2281 20.2719 16.3469 20.391C16.4656 20.5101 16.6171 20.5913 16.782 20.6243C16.947 20.6573 17.118 20.6406 17.2735 20.5763C17.4289 20.5121 17.5618 20.4031 17.6553 20.2633C17.7488 20.1235 17.7987 19.959 17.7987 19.7908C17.799 19.5656 17.7099 19.3495 17.551 19.19C17.3921 19.0304 17.1763 18.9404 16.9511 18.9398V18.9408Z" fill="url(#paint20_linear_487_1350)"/>
<path d="M16.9504 18.9397C16.8061 18.9397 16.6677 18.8824 16.5657 18.7804C16.4637 18.6784 16.4064 18.54 16.4064 18.3957V14.9349C16.4064 14.7906 16.4637 14.6522 16.5657 14.5502C16.6677 14.4482 16.8061 14.3909 16.9504 14.3909C17.0946 14.3909 17.233 14.4482 17.335 14.5502C17.4371 14.6522 17.4944 14.7906 17.4944 14.9349L17.4927 18.3961C17.4926 18.54 17.4355 18.678 17.3338 18.7799C17.2322 18.8818 17.0943 18.9393 16.9504 18.9397Z" fill="url(#paint21_linear_487_1350)"/>
<path d="M21.8039 20.3319H18.3427C18.1984 20.3319 18.0601 20.2746 17.958 20.1726C17.856 20.0705 17.7987 19.9322 17.7987 19.7879C17.7987 19.6436 17.856 19.5052 17.958 19.4032C18.0601 19.3012 18.1984 19.2439 18.3427 19.2439H21.8036C21.9478 19.2439 22.0862 19.3012 22.1882 19.4032C22.2903 19.5052 22.3476 19.6436 22.3476 19.7879C22.3476 19.9322 22.2903 20.0705 22.1882 20.1726C22.0862 20.2746 21.9478 20.3319 21.8036 20.3319H21.8039Z" fill="url(#paint22_linear_487_1350)"/>
<path d="M7.8961 25.0019C5.33148 25.0019 3.24524 22.9153 3.24524 20.3507C3.24524 17.786 5.33148 15.6995 7.8961 15.6995C10.4607 15.6995 12.5459 17.786 12.5459 20.3507C12.5459 22.9153 10.4607 25.0019 7.8961 25.0019ZM7.8961 16.7875C7.19131 16.7872 6.50226 16.9959 5.91612 17.3873C5.32998 17.7787 4.87306 18.3351 4.60316 18.9861C4.33326 19.6372 4.26251 20.3537 4.39984 21.045C4.53717 21.7363 4.87643 22.3713 5.3747 22.8697C5.87296 23.3682 6.50786 23.7077 7.19909 23.8453C7.89032 23.9829 8.60683 23.9124 9.258 23.6428C9.90917 23.3731 10.4657 22.9164 10.8573 22.3304C11.2489 21.7444 11.4579 21.0555 11.4579 20.3507C11.4569 19.4062 11.0813 18.5007 10.4136 17.8328C9.74589 17.1648 8.84055 16.7889 7.8961 16.7875Z" fill="url(#paint23_linear_487_1350)"/>
<path d="M7.89614 23.3543C7.30209 23.3543 6.72138 23.1781 6.22745 22.8481C5.73352 22.5181 5.34854 22.049 5.12121 21.5001C4.89388 20.9513 4.8344 20.3474 4.95029 19.7648C5.06619 19.1821 5.35225 18.6469 5.7723 18.2269C6.19236 17.8068 6.72754 17.5208 7.31017 17.4049C7.89281 17.289 8.49672 17.3485 9.04555 17.5758C9.59438 17.8031 10.0635 18.1881 10.3935 18.682C10.7235 19.176 10.8997 19.7567 10.8997 20.3507C10.8988 21.147 10.5821 21.9105 10.019 22.4736C9.4559 23.0367 8.69246 23.3534 7.89614 23.3543ZM7.89614 18.4352C7.51728 18.4352 7.14692 18.5475 6.83191 18.758C6.5169 18.9685 6.27138 19.2677 6.12639 19.6177C5.98141 19.9677 5.94347 20.3529 6.01739 20.7244C6.0913 21.096 6.27374 21.4373 6.54163 21.7052C6.80953 21.9731 7.15085 22.1556 7.52243 22.2295C7.89401 22.3034 8.27917 22.2655 8.62919 22.1205C8.97922 21.9755 9.27838 21.73 9.48887 21.415C9.69935 21.0999 9.8117 20.7296 9.8117 20.3507C9.81116 19.8429 9.60917 19.3559 9.25005 18.9968C8.89093 18.6377 8.40401 18.4357 7.89614 18.4352Z" fill="url(#paint24_linear_487_1350)"/>
<path d="M7.89617 26.4805C7.7519 26.4805 7.61353 26.4232 7.51151 26.3211C7.40949 26.2191 7.35217 26.0808 7.35217 25.9365V24.4578C7.35217 24.3135 7.40949 24.1752 7.51151 24.0732C7.61353 23.9711 7.7519 23.9138 7.89617 23.9138C8.04045 23.9138 8.17882 23.9711 8.28084 24.0732C8.38286 24.1752 8.44017 24.3135 8.44017 24.4578V25.9365C8.44017 26.0808 8.38286 26.2191 8.28084 26.3211C8.17882 26.4232 8.04045 26.4805 7.89617 26.4805Z" fill="url(#paint25_linear_487_1350)"/>
<path d="M7.89616 31.6513C7.46722 31.6508 7.05601 31.4801 6.75274 31.1768C6.44946 30.8734 6.27889 30.4622 6.27844 30.0332V25.9366C6.27844 25.7923 6.33576 25.6539 6.43778 25.5519C6.5398 25.4499 6.67816 25.3926 6.82244 25.3926H8.97022C9.1145 25.3926 9.25287 25.4499 9.35489 25.5519C9.45691 25.6539 9.51422 25.7923 9.51422 25.9366V30.0332C9.51368 30.4622 9.34304 30.8735 9.03971 31.1768C8.73638 31.4801 8.32513 31.6508 7.89616 31.6513ZM7.36644 26.4806V30.0332C7.36465 30.104 7.37703 30.1743 7.40286 30.2402C7.42868 30.306 7.46742 30.366 7.51681 30.4167C7.56619 30.4673 7.62521 30.5076 7.69039 30.5351C7.75557 30.5626 7.82559 30.5767 7.89633 30.5767C7.96707 30.5767 8.03709 30.5626 8.10227 30.5351C8.16745 30.5076 8.22648 30.4673 8.27586 30.4167C8.32524 30.366 8.36398 30.306 8.38981 30.2402C8.41563 30.1743 8.42801 30.104 8.42622 30.0332V26.4806H7.36644Z" fill="url(#paint26_linear_487_1350)"/>
<defs>
<linearGradient id="paint0_linear_487_1350" x1="6.67566" y1="9.06885" x2="28.7378" y2="10.0502" gradientUnits="userSpaceOnUse">
<stop stop-color="#EA9354"/>
<stop offset="0.540555" stop-color="#8D40D7"/>
<stop offset="1" stop-color="#863AEB"/>
</linearGradient>
<linearGradient id="paint1_linear_487_1350" x1="6.1969" y1="17.6443" x2="7.3316" y2="17.6962" gradientUnits="userSpaceOnUse">
<stop stop-color="#EA9354"/>
<stop offset="0.540555" stop-color="#8D40D7"/>
<stop offset="1" stop-color="#863AEB"/>
</linearGradient>
<linearGradient id="paint2_linear_487_1350" x1="12.8351" y1="3.38949" x2="21.347" y2="4.26512" gradientUnits="userSpaceOnUse">
<stop stop-color="#EA9354"/>
<stop offset="0.540555" stop-color="#8D40D7"/>
<stop offset="1" stop-color="#863AEB"/>
</linearGradient>
<linearGradient id="paint3_linear_487_1350" x1="18.2819" y1="5.96699" x2="19.4188" y2="5.9804" gradientUnits="userSpaceOnUse">
<stop stop-color="#EA9354"/>
<stop offset="0.540555" stop-color="#8D40D7"/>
<stop offset="1" stop-color="#863AEB"/>
</linearGradient>
<linearGradient id="paint4_linear_487_1350" x1="14.5323" y1="5.96693" x2="15.6693" y2="5.98036" gradientUnits="userSpaceOnUse">
<stop stop-color="#EA9354"/>
<stop offset="0.540555" stop-color="#8D40D7"/>
<stop offset="1" stop-color="#863AEB"/>
</linearGradient>
<linearGradient id="paint5_linear_487_1350" x1="22.882" y1="10.0056" x2="25.2594" y2="10.1143" gradientUnits="userSpaceOnUse">
<stop stop-color="#EA9354"/>
<stop offset="0.540555" stop-color="#8D40D7"/>
<stop offset="1" stop-color="#863AEB"/>
</linearGradient>
<linearGradient id="paint6_linear_487_1350" x1="23.2314" y1="7.14217" x2="28.2551" y2="7.37192" gradientUnits="userSpaceOnUse">
<stop stop-color="#EA9354"/>
<stop offset="0.540555" stop-color="#8D40D7"/>
<stop offset="1" stop-color="#863AEB"/>
</linearGradient>
<linearGradient id="paint7_linear_487_1350" x1="8.7406" y1="10.0056" x2="11.1184" y2="10.1143" gradientUnits="userSpaceOnUse">
<stop stop-color="#EA9354"/>
<stop offset="0.540555" stop-color="#8D40D7"/>
<stop offset="1" stop-color="#863AEB"/>
</linearGradient>
<linearGradient id="paint8_linear_487_1350" x1="5.85449" y1="7.14217" x2="10.8781" y2="7.37191" gradientUnits="userSpaceOnUse">
<stop stop-color="#EA9354"/>
<stop offset="0.540555" stop-color="#8D40D7"/>
<stop offset="1" stop-color="#863AEB"/>
</linearGradient>
<linearGradient id="paint9_linear_487_1350" x1="16.4071" y1="11.4784" x2="17.5438" y2="11.5004" gradientUnits="userSpaceOnUse">
<stop stop-color="#EA9354"/>
<stop offset="0.540555" stop-color="#8D40D7"/>
<stop offset="1" stop-color="#863AEB"/>
</linearGradient>
<linearGradient id="paint10_linear_487_1350" x1="16.4071" y1="25.5524" x2="17.5438" y2="25.5743" gradientUnits="userSpaceOnUse">
<stop stop-color="#EA9354"/>
<stop offset="0.540555" stop-color="#8D40D7"/>
<stop offset="1" stop-color="#863AEB"/>
</linearGradient>
<linearGradient id="paint11_linear_487_1350" x1="12.5109" y1="12.5159" x2="14.4308" y2="12.5836" gradientUnits="userSpaceOnUse">
<stop stop-color="#EA9354"/>
<stop offset="0.540555" stop-color="#8D40D7"/>
<stop offset="1" stop-color="#863AEB"/>
</linearGradient>
<linearGradient id="paint12_linear_487_1350" x1="19.5496" y1="24.7084" x2="21.4662" y2="24.7761" gradientUnits="userSpaceOnUse">
<stop stop-color="#EA9354"/>
<stop offset="0.540555" stop-color="#8D40D7"/>
<stop offset="1" stop-color="#863AEB"/>
</linearGradient>
<linearGradient id="paint13_linear_487_1350" x1="9.66711" y1="15.3594" x2="10.8068" y2="15.4116" gradientUnits="userSpaceOnUse">
<stop stop-color="#EA9354"/>
<stop offset="0.540555" stop-color="#8D40D7"/>
<stop offset="1" stop-color="#863AEB"/>
</linearGradient>
<linearGradient id="paint14_linear_487_1350" x1="21.8491" y1="22.3962" x2="24.334" y2="22.5437" gradientUnits="userSpaceOnUse">
<stop stop-color="#EA9354"/>
<stop offset="0.540555" stop-color="#8D40D7"/>
<stop offset="1" stop-color="#863AEB"/>
</linearGradient>
<linearGradient id="paint15_linear_487_1350" x1="22.6917" y1="19.2517" x2="25.3569" y2="19.5409" gradientUnits="userSpaceOnUse">
<stop stop-color="#EA9354"/>
<stop offset="0.540555" stop-color="#8D40D7"/>
<stop offset="1" stop-color="#863AEB"/>
</linearGradient>
<linearGradient id="paint16_linear_487_1350" x1="21.85" y1="15.371" x2="24.3228" y2="15.5178" gradientUnits="userSpaceOnUse">
<stop stop-color="#EA9354"/>
<stop offset="0.540555" stop-color="#8D40D7"/>
<stop offset="1" stop-color="#863AEB"/>
</linearGradient>
<linearGradient id="paint17_linear_487_1350" x1="12.5187" y1="24.7343" x2="14.4147" y2="24.8014" gradientUnits="userSpaceOnUse">
<stop stop-color="#EA9354"/>
<stop offset="0.540555" stop-color="#8D40D7"/>
<stop offset="1" stop-color="#863AEB"/>
</linearGradient>
<linearGradient id="paint18_linear_487_1350" x1="19.5507" y1="12.5198" x2="21.4705" y2="12.5875" gradientUnits="userSpaceOnUse">
<stop stop-color="#EA9354"/>
<stop offset="0.540555" stop-color="#8D40D7"/>
<stop offset="1" stop-color="#863AEB"/>
</linearGradient>
<linearGradient id="paint19_linear_487_1350" x1="9.25818" y1="11.5818" x2="25.9614" y2="12.3169" gradientUnits="userSpaceOnUse">
<stop stop-color="#EA9354"/>
<stop offset="0.540555" stop-color="#8D40D7"/>
<stop offset="1" stop-color="#863AEB"/>
</linearGradient>
<linearGradient id="paint20_linear_487_1350" x1="15.0107" y1="17.8778" x2="19.0531" y2="18.0628" gradientUnits="userSpaceOnUse">
<stop stop-color="#EA9354"/>
<stop offset="0.540555" stop-color="#8D40D7"/>
<stop offset="1" stop-color="#863AEB"/>
</linearGradient>
<linearGradient id="paint21_linear_487_1350" x1="16.4064" y1="14.4234" x2="17.5433" y2="14.4359" gradientUnits="userSpaceOnUse">
<stop stop-color="#EA9354"/>
<stop offset="0.540555" stop-color="#8D40D7"/>
<stop offset="1" stop-color="#863AEB"/>
</linearGradient>
<linearGradient id="paint22_linear_487_1350" x1="17.7987" y1="19.2517" x2="22.3849" y2="20.1292" gradientUnits="userSpaceOnUse">
<stop stop-color="#EA9354"/>
<stop offset="0.540555" stop-color="#8D40D7"/>
<stop offset="1" stop-color="#863AEB"/>
</linearGradient>
<linearGradient id="paint23_linear_487_1350" x1="3.24524" y1="15.766" x2="12.9452" y2="16.2099" gradientUnits="userSpaceOnUse">
<stop stop-color="#EA9354"/>
<stop offset="0.540555" stop-color="#8D40D7"/>
<stop offset="1" stop-color="#863AEB"/>
</linearGradient>
<linearGradient id="paint24_linear_487_1350" x1="4.89258" y1="17.3902" x2="11.1575" y2="17.6769" gradientUnits="userSpaceOnUse">
<stop stop-color="#EA9354"/>
<stop offset="0.540555" stop-color="#8D40D7"/>
<stop offset="1" stop-color="#863AEB"/>
</linearGradient>
<linearGradient id="paint25_linear_487_1350" x1="7.35217" y1="23.9322" x2="8.48882" y2="23.9542" gradientUnits="userSpaceOnUse">
<stop stop-color="#EA9354"/>
<stop offset="0.540555" stop-color="#8D40D7"/>
<stop offset="1" stop-color="#863AEB"/>
</linearGradient>
<linearGradient id="paint26_linear_487_1350" x1="6.27844" y1="25.4374" x2="9.65829" y2="25.5173" gradientUnits="userSpaceOnUse">
<stop stop-color="#EA9354"/>
<stop offset="0.540555" stop-color="#8D40D7"/>
<stop offset="1" stop-color="#863AEB"/>
</linearGradient>
</defs>
</svg>
