<svg width="34" height="34" viewBox="0 0 34 34" fill="none" xmlns="http://www.w3.org/2000/svg">
<path d="M33.8035 23.6314L32.1826 22.0237C31.9221 21.7653 31.5016 21.7671 31.2433 22.0275C30.9849 22.288 30.9867 22.7085 31.2472 22.9669L32.868 24.5746C32.9975 24.7031 33.1666 24.7672 33.3357 24.7672C33.5066 24.7672 33.6774 24.7017 33.8072 24.5707C34.0657 24.3103 34.064 23.8897 33.8035 23.6314Z" fill="url(#paint0_linear_487_1317)"/>
<path d="M30.531 20.3789C30.2717 20.1195 29.8512 20.1195 29.5917 20.3789L29.5906 20.38C29.3312 20.6394 29.3318 21.0594 29.5912 21.3188C29.7207 21.4483 29.8906 21.5131 30.0605 21.5131C30.2308 21.5131 30.4012 21.4481 30.531 21.3182C30.7904 21.0589 30.7904 20.6383 30.531 20.3789Z" fill="url(#paint1_linear_487_1317)"/>
<path d="M24.8687 23.4415L31.312 16.9983C32.2878 16.0224 32.2878 14.4345 31.3119 13.4586C30.9678 13.1145 30.5475 12.8923 30.1048 12.7909C30.2566 12.4645 30.337 12.1064 30.337 11.7358C30.337 11.0672 30.0766 10.4387 29.6039 9.966C29.2332 9.59519 28.7664 9.35573 28.2598 9.26946C28.545 8.40047 28.3434 7.40524 27.6537 6.71555C27.2744 6.33637 26.8027 6.10527 26.3105 6.0208C26.3929 5.77052 26.4364 5.50622 26.4364 5.23502C26.4364 4.56644 26.176 3.93791 25.7034 3.46523C25.2306 2.99255 24.6021 2.73217 23.9336 2.73217C23.509 2.73217 23.1008 2.83749 22.7382 3.03525L22.6741 2.96638C21.8412 2.07136 20.6623 1.55811 19.4399 1.55811H14.2243C13.8576 1.55811 13.5601 1.85554 13.5601 2.2223V3.09329C13.5601 3.44185 13.6191 3.78119 13.7318 4.10027C13.4314 3.97549 13.1064 3.90995 12.7713 3.90995C12.1027 3.90995 11.4742 4.17033 11.0014 4.64301C10.3113 5.3331 10.1099 6.32906 10.3958 7.19832C9.90313 7.28259 9.43078 7.51382 9.05121 7.89333C8.57853 8.36607 8.31815 8.99461 8.31815 9.66312C8.31815 9.93379 8.36151 10.1977 8.44366 10.4474C7.93764 10.534 7.47133 10.7733 7.10092 11.1438C6.33878 11.9059 6.1719 13.0415 6.60028 13.9671C6.14666 14.0708 5.73003 14.2992 5.39282 14.6364C4.41698 15.6122 4.41698 17.2001 5.39282 18.176L6.71789 19.501L0.194537 26.0242C-0.0648457 26.2836 -0.0648457 26.7042 0.194537 26.9636C0.324228 27.0932 0.494229 27.1582 0.664162 27.1582C0.834096 27.1582 1.0041 27.0933 1.13379 26.9636L7.72009 20.3773C8.09296 20.5901 8.5161 20.7039 8.95711 20.7039C9.62562 20.7039 10.2542 20.4435 10.7269 19.9708C11.2405 19.4572 11.4834 18.7741 11.4564 18.1C11.49 18.1014 11.5237 18.1024 11.5574 18.1024C12.1982 18.1023 12.8393 17.8583 13.3272 17.3705C13.7998 16.8977 14.0602 16.2692 14.0602 15.6007C14.0602 15.5669 14.0591 15.5333 14.0578 15.4997C14.091 15.501 14.1243 15.5021 14.1576 15.5021C14.7985 15.5021 15.4396 15.2581 15.9274 14.7702C16.4001 14.2975 16.6605 13.6689 16.6605 13.0004C16.6605 12.9666 16.6594 12.933 16.658 12.8994C16.6913 12.9008 16.7246 12.9018 16.7579 12.9018C17.3989 12.9018 18.0398 12.6578 18.5277 12.17C19.4446 11.253 19.4998 9.79587 18.6937 8.81365L23.1027 4.40468C23.3246 4.18275 23.6194 4.06062 23.9332 4.06062C24.2469 4.06062 24.5419 4.18275 24.7637 4.40468C24.9856 4.62654 25.1077 4.92138 25.1077 5.23515C25.1077 5.54886 24.9856 5.84383 24.7637 6.06563L24.1136 6.71568L21.755 9.0743C21.4956 9.33368 21.4956 9.75423 21.755 10.0137C21.8847 10.1433 22.0547 10.2083 22.2246 10.2083C22.3945 10.2083 22.5645 10.1434 22.6942 10.0137L25.0529 7.65506C25.5107 7.19713 26.2559 7.19706 26.7139 7.655C27.1718 8.113 27.1718 8.85808 26.7139 9.31608L26.0638 9.9662L24.3553 11.6747C24.0959 11.9341 24.0959 12.3546 24.3553 12.6141C24.4849 12.7437 24.6549 12.8087 24.8249 12.8087C24.9948 12.8087 25.1648 12.7438 25.2945 12.6141L27.003 10.9056C27.2249 10.6837 27.5198 10.5615 27.8335 10.5615C28.1473 10.5615 28.4422 10.6837 28.664 10.9056C28.8859 11.1274 29.008 11.4223 29.008 11.7361C29.008 12.0498 28.8859 12.3447 28.664 12.5665L27.7717 13.4588L26.9555 14.275C26.6961 14.5344 26.6961 14.955 26.9555 15.2144C27.0851 15.344 27.2551 15.409 27.4251 15.409C27.595 15.409 27.765 15.3441 27.8947 15.2144L28.7115 14.3976C29.1695 13.9404 29.9142 13.9405 30.3719 14.3982C30.8299 14.8562 30.8299 15.6013 30.3719 16.0593L23.9287 22.5025C22.3107 24.1205 20.1604 25.0572 17.8739 25.1402C17.7058 25.1463 17.5462 25.2159 17.4274 25.3352L11.4753 31.3094C11.2164 31.5692 11.2171 31.9898 11.477 32.2487C11.6066 32.3778 11.7762 32.4424 11.9458 32.4424C12.1161 32.4424 12.2866 32.3772 12.4163 32.247L16.7942 27.8529C17.9063 28.5663 19.2141 28.9055 20.5439 28.8175L23.9703 32.244C24.1 32.3737 24.27 32.4386 24.4399 32.4386C24.6099 32.4386 24.7799 32.3737 24.9095 32.244C25.1689 31.9847 25.1689 31.5641 24.9095 31.3047L21.2665 27.6612C21.1286 27.5233 20.9369 27.4529 20.7426 27.4688L20.532 27.4861C19.56 27.5658 18.5992 27.3529 17.7604 26.8828L18.1872 26.4544C20.7117 26.2987 23.0753 25.235 24.8687 23.4415ZM9.78765 19.0315C9.56579 19.2534 9.27081 19.3756 8.95717 19.3756C8.6434 19.3756 8.34849 19.2534 8.1267 19.0315L6.332 17.2369C5.87406 16.7789 5.87406 16.0338 6.332 15.5758C6.55387 15.3539 6.84884 15.2317 7.16255 15.2317C7.47625 15.2317 7.77122 15.3539 7.99302 15.5758L9.78772 17.3704C10.2456 17.8284 10.2456 18.5735 9.78765 19.0315ZM12.3881 16.4311C11.93 16.8891 11.1848 16.8891 10.727 16.4311L8.93227 14.6364L8.0399 13.7441C7.58197 13.2861 7.58197 12.541 8.0399 12.083C8.26177 11.8611 8.55674 11.739 8.87038 11.739C9.18415 11.739 9.47906 11.8611 9.70086 12.083L12.3879 14.77C12.6098 14.992 12.732 15.2869 12.732 15.6006C12.732 15.9143 12.6098 16.2093 12.3881 16.4311ZM14.9883 13.8308C14.5303 14.2886 13.7851 14.2887 13.3272 13.8308L9.99012 10.4937C9.76826 10.2718 9.64614 9.97696 9.64614 9.66319C9.64614 9.34948 9.76826 9.05451 9.99019 8.83271C10.2192 8.60374 10.52 8.48926 10.8207 8.48926C11.1212 8.48926 11.4217 8.60361 11.6506 8.83218L13.1716 10.3531L14.9882 12.1698H14.9883C15.2101 12.3916 15.3322 12.6865 15.3322 13.0002C15.3323 13.314 15.2102 13.609 14.9883 13.8308ZM17.5887 11.2304C17.1307 11.6884 16.3856 11.6884 15.9276 11.2304L12.5905 7.89333C12.5902 7.893 12.5898 7.89266 12.5894 7.89227L11.9404 7.24328C11.4825 6.78527 11.4825 6.0402 11.9404 5.58219C12.1694 5.35316 12.4702 5.23867 12.771 5.23867C13.0717 5.23867 13.3725 5.35316 13.6014 5.58219L17.5885 9.56929C17.8105 9.79115 17.9326 10.0861 17.9326 10.3998C17.9326 10.7136 17.8106 11.0086 17.5887 11.2304ZM17.7633 7.8655L15.939 6.04119C16.1458 6.08535 16.3585 6.10879 16.575 6.10873C16.5799 6.10873 16.5848 6.10873 16.5897 6.10873L18.4124 6.10016C18.7792 6.09843 19.0752 5.79967 19.0735 5.43284C19.0718 5.06708 18.7747 4.77177 18.4094 4.77177C18.4083 4.77177 18.4072 4.77177 18.4062 4.77177L16.5835 4.78034C16.5807 4.78034 16.578 4.78034 16.5752 4.78034C16.1261 4.78034 15.7037 4.60602 15.3852 4.28906C15.0648 3.97005 14.8883 3.54545 14.8883 3.09322V2.88643H19.4397C20.2946 2.88643 21.1191 3.24536 21.7016 3.8713L21.7286 3.90032L17.7633 7.8655Z" fill="url(#paint2_linear_487_1317)"/>
<defs>
<linearGradient id="paint0_linear_487_1317" x1="31.0507" y1="21.8521" x2="34.1265" y2="21.9935" gradientUnits="userSpaceOnUse">
<stop stop-color="#EA9354"/>
<stop offset="0.540555" stop-color="#8D40D7"/>
<stop offset="1" stop-color="#863AEB"/>
</linearGradient>
<linearGradient id="paint1_linear_487_1317" x1="29.3964" y1="20.1938" x2="30.7826" y2="20.2573" gradientUnits="userSpaceOnUse">
<stop stop-color="#EA9354"/>
<stop offset="0.540555" stop-color="#8D40D7"/>
<stop offset="1" stop-color="#863AEB"/>
</linearGradient>
<linearGradient id="paint2_linear_487_1317" x1="-3.1736e-09" y1="1.77918" x2="33.4139" y2="3.36569" gradientUnits="userSpaceOnUse">
<stop stop-color="#EA9354"/>
<stop offset="0.540555" stop-color="#8D40D7"/>
<stop offset="1" stop-color="#863AEB"/>
</linearGradient>
</defs>
</svg>
