<svg width="32" height="32" viewBox="0 0 32 32" fill="none" xmlns="http://www.w3.org/2000/svg">
<g clip-path="url(#clip0_487_1389)">
<path d="M6.91321 19.9417H25.0868C26.189 19.9417 27.0856 18.8866 27.0856 17.5897V16.5625H28.5869C30.3402 16.5625 31.7665 15.2379 31.7665 13.6098V6.45694C31.7665 4.82881 30.3402 3.50425 28.5869 3.50425H27.0856V2.477C27.0857 1.18012 26.189 0.125 25.0868 0.125H6.91321C5.81102 0.125 4.91433 1.18012 4.91433 2.477V3.50425H0.796021C0.485396 3.50425 0.233521 3.75606 0.233521 4.06675C0.233521 4.37744 0.485396 4.62925 0.796021 4.62925H4.9144V5.6565C4.9144 6.95337 5.81108 8.0085 6.91321 8.0085H25.0868C26.189 8.0085 27.0856 6.95337 27.0856 5.6565V4.62919H28.5869C29.7198 4.62919 30.6415 5.44906 30.6415 6.45687V13.6097C30.6415 14.6176 29.7198 15.4374 28.5869 15.4374H27.0856V14.4102C27.0856 13.1133 26.189 12.0583 25.0868 12.0583H6.91321C5.81102 12.0583 4.9144 13.1133 4.9144 14.4102V15.4375H3.41315C1.6599 15.4375 0.233521 16.7621 0.233521 18.3902V25.5431C0.233521 27.1712 1.6599 28.4958 3.41315 28.4958H4.9144V29.523C4.9144 30.8199 5.81108 31.875 6.91321 31.875H25.0868C26.189 31.875 27.0856 30.8199 27.0856 29.523V28.4958H31.204C31.5147 28.4958 31.7665 28.244 31.7665 27.9333C31.7665 27.6226 31.5147 27.3708 31.204 27.3708H27.0856V26.3435C27.0856 25.0466 26.189 23.9916 25.0868 23.9916H6.91321C5.81102 23.9916 4.9144 25.0466 4.9144 26.3435V27.3708H3.41315C2.28021 27.3708 1.35852 26.5509 1.35852 25.5431V18.3902C1.35852 17.3824 2.28021 16.5625 3.41315 16.5625H4.9144V17.5898C4.91433 18.8867 5.81102 19.9417 6.91321 19.9417ZM25.9607 5.65644C25.9607 6.32156 25.5605 6.88344 25.0869 6.88344H6.91321C6.43952 6.88344 6.0394 6.32156 6.0394 5.65644V2.477C6.03933 1.81187 6.43952 1.25 6.91321 1.25H25.0868C25.5605 1.25 25.9606 1.81187 25.9606 2.477V5.65644H25.9607ZM6.03933 14.4102C6.03933 13.7452 6.43952 13.1833 6.91315 13.1833H25.0868C25.5605 13.1833 25.9606 13.7452 25.9606 14.4102V17.5897C25.9606 18.2549 25.5604 18.8167 25.0868 18.8167H6.91321C6.43952 18.8167 6.0394 18.2549 6.0394 17.5897L6.03933 14.4102ZM6.03933 26.3436C6.03933 25.6785 6.43952 25.1166 6.91315 25.1166H25.0868C25.5605 25.1166 25.9606 25.6785 25.9606 26.3436V29.523C25.9606 30.1881 25.5604 30.75 25.0868 30.75H6.91321C6.43952 30.75 6.0394 30.1881 6.0394 29.523L6.03933 26.3436ZM10.824 2.28544H8.38646C8.07577 2.28544 7.82396 2.53725 7.82396 2.84794V5.28544C7.82396 5.59613 8.07577 5.84794 8.38646 5.84794H10.824C11.1346 5.84794 11.3865 5.59613 11.3865 5.28544V2.84794C11.3865 2.53731 11.1346 2.28544 10.824 2.28544ZM10.2615 4.72294H8.94896V3.41044H10.2615V4.72294ZM24.1761 4.06675C24.1761 4.37744 23.9243 4.62925 23.6136 4.62925H13.8552C13.5445 4.62925 13.2927 4.37744 13.2927 4.06675C13.2927 3.75606 13.5445 3.50425 13.8552 3.50425H23.6136C23.9243 3.50425 24.1761 3.75612 24.1761 4.06675ZM8.38646 17.7812H10.824C11.1346 17.7812 11.3865 17.5294 11.3865 17.2188V14.7812C11.3865 14.4706 11.1346 14.2188 10.824 14.2188H8.38646C8.07577 14.2188 7.82396 14.4706 7.82396 14.7812V17.2188C7.82396 17.5294 8.07577 17.7812 8.38646 17.7812ZM8.94896 15.3438H10.2615V16.6562H8.94896V15.3438ZM13.2927 16C13.2927 15.6893 13.5445 15.4375 13.8552 15.4375H23.6136C23.9243 15.4375 24.1761 15.6893 24.1761 16C24.1761 16.3107 23.9243 16.5625 23.6136 16.5625H13.8552C13.5445 16.5625 13.2927 16.3107 13.2927 16ZM8.38646 29.7146H10.824C11.1346 29.7146 11.3865 29.4628 11.3865 29.1521V26.7146C11.3865 26.4039 11.1346 26.1521 10.824 26.1521H8.38646C8.07577 26.1521 7.82396 26.4039 7.82396 26.7146V29.1521C7.82396 29.4627 8.07577 29.7146 8.38646 29.7146ZM8.94896 27.2771H10.2615V28.5896H8.94896V27.2771ZM13.2927 27.9334C13.2927 27.6227 13.5445 27.3709 13.8552 27.3709H23.6136C23.9243 27.3709 24.1761 27.6227 24.1761 27.9334C24.1761 28.2441 23.9243 28.4959 23.6136 28.4959H13.8552C13.5445 28.4959 13.2927 28.244 13.2927 27.9334Z" fill="url(#paint0_linear_487_1389)"/>
</g>
<defs>
<linearGradient id="paint0_linear_487_1389" x1="0.233521" y1="0.352268" x2="33.121" y2="1.84699" gradientUnits="userSpaceOnUse">
<stop stop-color="#EA9354"/>
<stop offset="0.540555" stop-color="#8D40D7"/>
<stop offset="1" stop-color="#863AEB"/>
</linearGradient>
<clipPath id="clip0_487_1389">
<rect width="32" height="32" fill="white"/>
</clipPath>
</defs>
</svg>
