<svg width="34" height="34" viewBox="0 0 34 34" fill="none" xmlns="http://www.w3.org/2000/svg">
<path fill-rule="evenodd" clip-rule="evenodd" d="M24.7917 28.48C24.7917 27.5956 24.4411 26.7477 23.8142 26.1223C23.1909 25.4972 22.3409 25.1458 21.459 25.1458C18.9161 25.1458 15.084 25.1458 12.5411 25.1458C11.6592 25.1458 10.8092 25.4972 10.1859 26.1223C9.559 26.7477 9.20837 27.5956 9.20837 28.48V30.6659C9.20837 31.5502 9.559 32.3981 10.1859 33.0236C10.8092 33.6487 11.6592 34 12.5411 34H21.459C22.3409 34 23.1909 33.6487 23.8142 33.0236C24.4411 32.3981 24.7917 31.5502 24.7917 30.6659C24.7917 29.9568 24.7917 29.189 24.7917 28.48ZM25.5 25.1458C25.2415 25.1458 25.0042 25.2857 24.8803 25.511C24.7563 25.7362 24.7634 26.0114 24.898 26.2299C25.3442 26.9397 25.5 27.4961 25.5 28.3333C25.5 29.4419 25.9321 30.878 27.1044 31.852C27.8694 32.487 28.9532 32.9375 30.4584 32.9375C30.8515 32.9375 31.1667 32.6205 31.1667 32.2292V27.9207C31.1667 27.1848 30.8763 26.4789 30.3521 25.9586C29.835 25.438 29.1267 25.1458 28.39 25.1458C27.03 25.1458 25.5 25.1458 25.5 25.1458ZM9.10211 26.2299C9.23669 26.0114 9.24379 25.7362 9.11983 25.511C8.99587 25.2857 8.75858 25.1458 8.50004 25.1458C8.50004 25.1458 6.97007 25.1458 5.61007 25.1458C4.87341 25.1458 4.16506 25.438 3.64797 25.9586C3.12735 26.4789 2.83337 27.1848 2.83337 27.9207V32.2292C2.83337 32.6205 3.14858 32.9375 3.54171 32.9375C5.04692 32.9375 6.13066 32.487 6.89566 31.852C8.06795 30.878 8.50004 29.4419 8.50004 28.3333C8.50004 27.4961 8.65586 26.9397 9.10211 26.2299ZM23.375 28.48V30.6659C23.375 31.1745 23.1731 31.6621 22.8119 32.0216C22.4542 32.3815 21.9655 32.5833 21.459 32.5833C18.9161 32.5833 15.084 32.5833 12.5411 32.5833C12.0346 32.5833 11.5459 32.3815 11.1882 32.0216C10.8269 31.6621 10.625 31.1745 10.625 30.6659C10.625 29.9568 10.625 29.189 10.625 28.48C10.625 27.9714 10.8269 27.4837 11.1882 27.1242C11.5459 26.7644 12.0346 26.5625 12.5411 26.5625H21.459C21.9655 26.5625 22.4542 26.7644 22.8119 27.1242C23.1731 27.4837 23.375 27.9714 23.375 28.48ZM7.35609 26.5625C7.1613 27.1005 7.08337 27.6473 7.08337 28.3333C7.08337 29.0969 6.79647 30.0914 5.98897 30.7622C5.56043 31.1178 4.99025 31.3756 4.25004 31.4755V27.9207C4.25004 27.5605 4.39175 27.2149 4.64675 26.9602C4.90175 26.7056 5.24882 26.5625 5.61007 26.5625H7.35609ZM26.644 26.5625H28.39C28.7513 26.5625 29.0983 26.7056 29.3533 26.9602C29.6083 27.2149 29.75 27.5605 29.75 27.9207V31.4755C29.0098 31.3756 28.4397 31.1178 28.0111 30.7622C27.2036 30.0914 26.9167 29.0969 26.9167 28.3333C26.9167 27.6473 26.8388 27.1001 26.644 26.5625ZM12.8846 1.74143C8.29104 2.73735 4.85917 6.72209 4.65375 11.5221C4.59 12.8559 4.53334 14.2255 4.48021 15.4909C4.31376 19.3418 6.89922 22.7712 10.6428 23.6771C10.6463 23.6775 10.6463 23.6775 10.6463 23.6778C12.7678 24.1811 14.8821 24.4375 17 24.4375C19.118 24.4375 21.2359 24.1814 23.3538 23.669C27.0938 22.7641 29.6757 19.3403 29.5128 15.4948C29.4667 14.229 29.41 12.8591 29.3533 11.5249C29.1479 6.72138 25.7126 2.7331 21.1155 1.73683C20.8003 0.824143 19.9644 0.149455 18.9515 0.0803922C18.948 0.0803922 18.9444 0.0800463 18.9444 0.0800463C18.2325 0.0379005 17.464 0 17 0C16.5325 0 15.764 0.0389499 15.0521 0.0842832L15.0486 0.0846507C14.0357 0.154067 13.1998 0.829101 12.8846 1.74143ZM21.25 3.22682V3.89549C21.25 5.0692 20.2973 6.02083 19.125 6.02083C17.889 6.02083 16.1111 6.02083 14.875 6.02083C13.7027 6.02083 12.75 5.0692 12.75 3.89549C12.75 3.68228 12.75 3.45737 12.75 3.23177C8.99587 4.24221 6.24042 7.5866 6.07042 11.5844V11.5873C6.00667 12.9196 5.95 14.2874 5.89334 15.5511C5.75875 18.7255 7.88733 21.5525 10.9757 22.3001C12.9838 22.7772 14.9919 23.0208 17 23.0208C19.0082 23.0208 21.0128 22.7775 23.0209 22.292C26.1057 21.5461 28.2307 18.7227 28.0961 15.5522C28.0961 15.5504 28.0961 15.5486 28.0961 15.5472C28.0501 14.2839 27.9933 12.9168 27.9367 11.5851C27.7667 7.58483 25.0077 4.23797 21.25 3.22682ZM15.5834 11.6875C15.5834 10.936 15.2858 10.2152 14.7546 9.68398C14.2233 9.15273 13.5009 8.85417 12.75 8.85417C12.5163 8.85417 12.2755 8.85417 12.0417 8.85417C11.2909 8.85417 10.5684 9.15273 10.0372 9.68398C9.50591 10.2152 9.20837 10.936 9.20837 11.6875V13.1042C9.20837 13.8557 9.50591 14.5764 10.0372 15.1077C10.5684 15.6389 11.2909 15.9375 12.0417 15.9375H12.75C13.5009 15.9375 14.2233 15.6389 14.7546 15.1077C15.2858 14.5764 15.5834 13.8557 15.5834 13.1042V11.6875ZM24.7917 11.6875C24.7917 10.936 24.4942 10.2152 23.9629 9.68398C23.4317 9.15273 22.7092 8.85417 21.9584 8.85417C21.7246 8.85417 21.4838 8.85417 21.25 8.85417C20.4992 8.85417 19.7767 9.15273 19.2455 9.68398C18.7142 10.2152 18.4167 10.936 18.4167 11.6875V13.1042C18.4167 13.8557 18.7142 14.5764 19.2455 15.1077C19.7767 15.6389 20.4992 15.9375 21.25 15.9375H21.9584C22.7092 15.9375 23.4317 15.6389 23.9629 15.1077C24.4942 14.5764 24.7917 13.8557 24.7917 13.1042V11.6875ZM14.1667 11.6875V13.1042C14.1667 13.4799 14.018 13.8401 13.7524 14.1058C13.4867 14.3717 13.1255 14.5208 12.75 14.5208H12.0417C11.6663 14.5208 11.305 14.3717 11.0394 14.1058C10.7738 13.8401 10.625 13.4799 10.625 13.1042V11.6875C10.625 11.3117 10.7738 10.9515 11.0394 10.6859C11.305 10.4199 11.6663 10.2708 12.0417 10.2708H12.75C13.1255 10.2708 13.4867 10.4199 13.7524 10.6859C14.018 10.9515 14.1667 11.3117 14.1667 11.6875ZM23.375 11.6875V13.1042C23.375 13.4799 23.2263 13.8401 22.9607 14.1058C22.6951 14.3717 22.3338 14.5208 21.9584 14.5208H21.25C20.8746 14.5208 20.5133 14.3717 20.2477 14.1058C19.9821 13.8401 19.8334 13.4799 19.8334 13.1042V11.6875C19.8334 11.3117 19.9821 10.9515 20.2477 10.6859C20.5133 10.4199 20.8746 10.2708 21.25 10.2708H21.9584C22.3338 10.2708 22.6951 10.4199 22.9607 10.6859C23.2263 10.9515 23.375 11.3117 23.375 11.6875ZM15.1442 1.49812C15.8242 1.45491 16.5573 1.41667 17 1.41667C17.4427 1.41667 18.1759 1.45386 18.8559 1.49388C19.4048 1.53249 19.8334 1.99005 19.8334 2.5422V3.89549C19.8334 4.28684 19.5146 4.60417 19.125 4.60417H14.875C14.4855 4.60417 14.1667 4.28684 14.1667 3.89549C14.1667 3.46553 14.1667 2.98987 14.1703 2.54752C14.1703 2.54646 14.1703 2.54504 14.1703 2.54397C14.1703 1.99324 14.5953 1.53637 15.1442 1.49812Z" fill="url(#paint0_linear_487_1337)"/>
<defs>
<linearGradient id="paint0_linear_487_1337" x1="2.83337" y1="0.243374" x2="32.4017" y2="1.37098" gradientUnits="userSpaceOnUse">
<stop stop-color="#EA9354"/>
<stop offset="0.540555" stop-color="#8D40D7"/>
<stop offset="1" stop-color="#863AEB"/>
</linearGradient>
</defs>
</svg>
