<svg width="34" height="34" viewBox="0 0 34 34" fill="none" xmlns="http://www.w3.org/2000/svg">
<path d="M30.6 6.12003C30.5978 5.98022 30.5525 5.84448 30.4704 5.73132C30.3882 5.61815 30.2732 5.53306 30.141 5.48763L17.221 1.06763C17.0781 1.01652 16.9219 1.01652 16.779 1.06763L3.85897 5.48763C3.72673 5.53306 3.6117 5.61815 3.52956 5.73132C3.44743 5.84448 3.40218 5.98022 3.39997 6.12003L3.36597 8.12603C3.26397 14.3038 3.76377 18.7374 4.89937 21.6852C5.75084 23.9048 7.03483 25.9331 8.67677 27.6522C10.641 29.6498 12.9686 31.2539 15.5346 32.3782L16.7178 32.9188C16.8064 32.9592 16.9026 32.9802 17 32.9802C17.0973 32.9802 17.1936 32.9592 17.2822 32.9188L18.4654 32.3782C21.0313 31.2539 23.359 29.6498 25.3232 27.6522C26.9667 25.9324 28.2519 23.9029 29.104 21.6818C30.2396 18.734 30.7394 14.3004 30.6374 8.12263L30.6 6.12003ZM27.8358 21.1922C27.049 23.2466 25.8608 25.1237 24.3406 26.7138C22.4943 28.5813 20.3103 30.0813 17.9044 31.1338L17 31.552L16.0956 31.1406C13.6897 30.0881 11.5056 28.5881 9.65937 26.7206C8.13838 25.1285 6.95015 23.2491 6.16417 21.1922C5.09997 18.411 4.62057 14.144 4.72257 8.16003L4.74637 6.63003L17 2.41743L29.24 6.61643L29.2638 8.14643C29.3794 14.144 28.9 18.411 27.8358 21.1922Z" fill="url(#paint0_linear_487_1401)"/>
<path d="M27.2001 8.50003C27.1986 8.35964 27.1536 8.22315 27.0714 8.10931C26.9893 7.99547 26.8738 7.90986 26.7411 7.86423L17.2211 4.60023C17.0776 4.55253 16.9225 4.55253 16.7791 4.60023L7.25906 7.86423C7.12627 7.90986 7.01086 7.99547 6.92868 8.10931C6.8465 8.22315 6.80157 8.35964 6.80006 8.50003V8.56463C6.70826 13.957 7.14006 18.0642 8.06146 20.4442C8.73532 22.2081 9.75488 23.8195 11.0603 25.1838C12.6696 26.8197 14.5758 28.134 16.6771 29.0564L16.7179 29.0734C16.8056 29.1167 16.9022 29.1389 17.0001 29.138C17.0974 29.1381 17.1937 29.1172 17.2823 29.0768L17.3231 29.0564C19.4256 28.1388 21.3341 26.8291 22.9467 25.1974C24.252 23.8331 25.2716 22.2217 25.9455 20.4578C26.8601 18.0778 27.3055 13.9706 27.2069 8.58163L27.2001 8.50003ZM24.6671 19.958C24.0545 21.5528 23.1297 23.0092 21.9471 24.242C20.5248 25.6908 18.8478 26.8653 17.0001 27.7066C15.1474 26.8712 13.4646 25.7013 12.0361 24.2556C10.8534 23.0228 9.92867 21.5664 9.31606 19.9716C8.50006 17.8092 8.08526 14.0284 8.16006 9.01003L17.0001 5.97723L25.8401 9.01003C25.9149 14.025 25.5001 17.8092 24.6739 19.9716L24.6671 19.958Z" fill="url(#paint1_linear_487_1401)"/>
<path d="M20.1926 13.7122L15.3442 18.5606L13.8074 17.0238C13.7442 16.9606 13.6692 16.9105 13.5866 16.8763C13.5041 16.8421 13.4156 16.8245 13.3263 16.8245C13.2369 16.8245 13.1484 16.8421 13.0659 16.8763C12.9833 16.9105 12.9083 16.9606 12.8452 17.0238C12.782 17.087 12.7319 17.162 12.6977 17.2445C12.6635 17.3271 12.6459 17.4156 12.6459 17.5049C12.6459 17.5943 12.6635 17.6827 12.6977 17.7653C12.7319 17.8478 12.782 17.9228 12.8452 17.986L14.8614 20.0022C14.9246 20.0659 14.9998 20.1163 15.0827 20.1508C15.1656 20.1852 15.2544 20.2029 15.3442 20.2028C15.5242 20.2021 15.6966 20.1299 15.8236 20.0022L21.1548 14.6744C21.2179 14.6112 21.268 14.5362 21.3022 14.4537C21.3364 14.3711 21.354 14.2827 21.354 14.1933C21.354 14.104 21.3364 14.0155 21.3022 13.9329C21.268 13.8504 21.2179 13.7754 21.1548 13.7122C21.0916 13.649 21.0166 13.5989 20.934 13.5647C20.8515 13.5305 20.763 13.5129 20.6737 13.5129C20.5843 13.5129 20.4958 13.5305 20.4133 13.5647C20.3307 13.5989 20.2557 13.649 20.1926 13.7122Z" fill="url(#paint2_linear_487_1401)"/>
<defs>
<linearGradient id="paint0_linear_487_1401" x1="3.35303" y1="1.258" x2="31.8381" y2="2.37169" gradientUnits="userSpaceOnUse">
<stop stop-color="#EA9354"/>
<stop offset="0.540555" stop-color="#8D40D7"/>
<stop offset="1" stop-color="#863AEB"/>
</linearGradient>
<linearGradient id="paint1_linear_487_1401" x1="6.78796" y1="4.74035" x2="28.1111" y2="5.55171" gradientUnits="userSpaceOnUse">
<stop stop-color="#EA9354"/>
<stop offset="0.540555" stop-color="#8D40D7"/>
<stop offset="1" stop-color="#863AEB"/>
</linearGradient>
<linearGradient id="paint2_linear_487_1401" x1="12.6459" y1="13.5608" x2="21.7147" y2="14.101" gradientUnits="userSpaceOnUse">
<stop stop-color="#EA9354"/>
<stop offset="0.540555" stop-color="#8D40D7"/>
<stop offset="1" stop-color="#863AEB"/>
</linearGradient>
</defs>
</svg>
