<svg width="67" height="51" viewBox="0 0 67 51" fill="none" xmlns="http://www.w3.org/2000/svg">
<path d="M32.5748 50.1876C48.6971 50.1876 61.7668 42.6922 61.7668 33.4463C61.7668 24.2004 48.6971 16.7051 32.5748 16.7051C16.4525 16.7051 3.38281 24.2004 3.38281 33.4463C3.38281 42.6922 16.4525 50.1876 32.5748 50.1876Z" fill="#23272A"/>
<path d="M33.4247 35.7643C51.4164 35.7643 66.0017 28.1938 66.0017 18.8552C66.0017 9.51653 51.4164 1.94604 33.4247 1.94604C15.4329 1.94604 0.847656 9.51653 0.847656 18.8552C0.847656 28.1938 15.4329 35.7643 33.4247 35.7643Z" fill="url(#paint0_linear_30852_749)"/>
<path opacity="0.1" d="M33.4238 0.423096C42.6098 0.423096 50.9068 2.34532 56.8908 5.43432C59.8828 6.97881 62.2779 8.8051 63.9189 10.8065C65.5579 12.8066 66.4238 14.9543 66.4238 17.1655C66.4238 19.3755 65.5579 21.5244 63.9189 23.5246C62.2779 25.526 59.8828 27.3511 56.8908 28.8956C50.9068 31.9834 42.6098 33.9068 33.4238 33.9068C24.2378 33.9068 15.9418 31.9834 9.95782 28.8956C6.96582 27.3511 4.56981 25.526 2.92981 23.5246C1.29081 21.5244 0.423828 19.3755 0.423828 17.1655C0.423828 14.9543 1.29081 12.8066 2.92981 10.8065C4.56981 8.8051 6.96482 6.97881 9.95782 5.43432C15.9418 2.34532 24.2378 0.423096 33.4238 0.423096Z" stroke="url(#paint1_linear_30852_749)" stroke-opacity="0.7" stroke-width="0.846"/>
<path d="M26.6131 15.2604L24.2081 13.9965C21.5831 15.5254 19.7871 17.3949 19.0081 19.4118C18.9871 19.473 19.0071 19.5365 19.0651 19.5905C19.1231 19.6433 19.2151 19.6852 19.3261 19.7068C19.4361 19.7284 19.5581 19.7284 19.6691 19.708C19.7635 19.6953 19.854 19.6558 19.9331 19.5929C21.6811 17.9633 23.9391 16.4979 26.6131 15.2604ZM39.8811 9.13038C39.9631 9.11163 40.0384 9.06356 40.0971 8.99249C40.1361 8.93373 40.1351 8.87014 40.0941 8.81259C40.0331 8.7422 39.9563 8.69471 39.8731 8.6759C39.7711 8.64592 39.6521 8.63514 39.5361 8.64593C37.3952 8.86423 35.2712 9.27629 33.1821 9.87863C31.8332 10.2666 30.5084 10.7662 29.2171 11.374L31.6171 12.6331C33.9781 11.2301 36.7731 10.0465 39.8811 9.13038ZM27.4371 14.951C27.6171 15.0458 27.8591 15.1021 28.1141 15.1057C28.3701 15.1093 28.6181 15.0614 28.8071 14.9726C28.8241 14.9654 28.8391 14.9594 28.8521 14.951L29.5171 14.6021L30.7471 13.9593C30.9751 13.8406 31.2941 13.6883 31.3121 13.5132C31.3371 13.4329 31.3241 13.3502 31.2751 13.2722C31.2098 13.18 31.1262 13.1087 31.0321 13.0648L28.4471 11.7085C28.2222 11.6018 27.9819 11.5497 27.7401 11.555C27.4751 11.555 27.2201 11.6102 27.0321 11.7085L24.8531 12.8525C24.6661 12.9509 24.5611 13.0852 24.5611 13.2243C24.5611 13.3634 24.6661 13.4964 24.8531 13.5948L27.4371 14.951ZM46.3901 21.424L32.0961 13.9257C31.9 14.0919 31.6865 14.2266 31.4611 14.3263L29.5561 15.3215C29.6711 15.4367 30.0141 15.5482 30.2211 15.6717C30.6461 15.6645 31.0711 15.6777 31.4911 15.7113C33.2991 15.8468 34.9561 16.3132 36.1711 17.0279C37.3861 17.7426 38.0811 18.66 38.1311 19.6169C39.0461 20.0738 39.9061 20.4982 40.6611 20.8712C41.0661 21.382 42.7111 23.2755 44.8701 23.2755C45.4261 23.2779 45.9611 23.1652 46.3591 22.9625C46.7561 22.7586 46.9851 22.4816 46.9951 22.1902C46.9908 22.0327 46.9348 21.8835 46.8391 21.7754C46.7103 21.6238 46.5577 21.5044 46.3901 21.424Z" fill="white" fill-opacity="0.2"/>
<path d="M30.3859 16.1943C21.4339 16.3898 21.4339 23.0822 30.3859 23.2765C32.1759 23.2765 33.8929 22.9036 35.1579 22.2392C36.4239 21.5749 37.1349 20.6743 37.1349 19.7354C37.1349 18.7965 36.4239 17.8959 35.1579 17.2316C33.8929 16.5673 32.1759 16.1943 30.3859 16.1943ZM30.8859 21.6816V21.8987C30.8859 21.9682 30.8329 22.0354 30.7399 22.0846C30.6273 22.1379 30.5069 22.164 30.3859 22.1613C30.2651 22.164 30.1451 22.1379 30.0329 22.0846C29.9389 22.0354 29.8859 21.9682 29.8859 21.8987V21.6816H27.9809C27.8601 21.6843 27.7401 21.6583 27.6279 21.6049C27.5339 21.5557 27.4809 21.4885 27.4809 21.419C27.4809 21.3494 27.5339 21.2823 27.6279 21.2331C27.7401 21.1798 27.8601 21.1537 27.9809 21.1564H28.2809V18.312C28.1769 18.3031 28.0757 18.268 27.9839 18.2089C27.9119 18.1562 27.8789 18.0926 27.8909 18.029C27.9039 17.9643 27.9599 17.9055 28.0509 17.8612C28.1565 17.8145 28.2683 17.7909 28.3809 17.7916H29.8859V17.5746C29.8859 17.505 29.9389 17.4379 30.0329 17.3887C30.1451 17.3353 30.2651 17.3092 30.3859 17.3119C30.5189 17.3119 30.6459 17.3395 30.7399 17.3887C30.8329 17.4379 30.8859 17.505 30.8859 17.5746V17.7916C32.9469 17.6537 34.1489 19.0447 32.5459 19.739C32.7799 19.841 32.9679 19.9693 33.0959 20.1144C33.2249 20.2594 33.2919 20.4177 33.2909 20.5772C33.2869 20.7355 33.2199 20.8914 33.0939 21.0353C32.9679 21.1792 32.7859 21.3075 32.5589 21.4118C32.3063 21.5236 32.044 21.6004 31.7769 21.6409C31.4889 21.6876 31.1849 21.7008 30.8859 21.6816Z" fill="white" fill-opacity="0.2"/>
<path d="M31.1913 18.317H29.2812V19.473H31.1913C31.4843 19.473 31.7643 19.4131 31.9713 19.3039C32.1773 19.196 32.2943 19.0485 32.2943 18.895C32.2943 18.7415 32.1773 18.5952 31.9713 18.4861C31.7231 18.3688 31.458 18.3113 31.1913 18.317ZM31.1913 19.9982H29.2812V21.1578H31.1913C31.4843 21.1578 31.7653 21.0966 31.9733 20.9875C32.1803 20.8784 32.2962 20.7309 32.2962 20.5774C32.2962 20.4239 32.1803 20.2764 31.9733 20.1673C31.7243 20.0501 31.4586 19.9926 31.1913 19.9982Z" fill="white" fill-opacity="0.2"/>
<defs>
<linearGradient id="paint0_linear_30852_749" x1="33.4247" y1="1.94604" x2="33.4247" y2="35.7631" gradientUnits="userSpaceOnUse">
<stop stop-color="#313334"/>
<stop offset="1" stop-color="#1B1C1E"/>
</linearGradient>
<linearGradient id="paint1_linear_30852_749" x1="33.4238" y1="-0.0841418" x2="33.4238" y2="34.414" gradientUnits="userSpaceOnUse">
<stop stop-color="#F0F0F0"/>
<stop offset="1" stop-color="white"/>
</linearGradient>
</defs>
</svg>
