<svg width="67" height="51" viewBox="0 0 67 51" fill="none" xmlns="http://www.w3.org/2000/svg">
<path d="M32.5748 50.1873C48.6971 50.1873 61.7668 42.692 61.7668 33.4461C61.7668 24.2001 48.6971 16.7048 32.5748 16.7048C16.4525 16.7048 3.38281 24.2001 3.38281 33.4461C3.38281 42.692 16.4525 50.1873 32.5748 50.1873Z" fill="#23272A"/>
<path d="M33.4246 35.764C51.4164 35.764 66.0016 28.1936 66.0016 18.8549C66.0016 9.51629 51.4164 1.9458 33.4246 1.9458C15.4328 1.9458 0.847656 9.51629 0.847656 18.8549C0.847656 28.1936 15.4328 35.764 33.4246 35.764Z" fill="url(#paint0_linear_30852_748)"/>
<path opacity="0.1" d="M33.4238 0.423096C42.6098 0.423096 50.9069 2.34532 56.8909 5.43432C59.8829 6.97881 62.2779 8.80511 63.9189 10.8065C65.5579 12.8066 66.4238 14.9543 66.4238 17.1655C66.4238 19.3756 65.5579 21.5244 63.9189 23.5246C62.2779 25.5259 59.8829 27.351 56.8909 28.8955C50.9069 31.9833 42.6098 33.9068 33.4238 33.9068C24.2378 33.9068 15.9418 31.9833 9.95782 28.8955C6.96582 27.351 4.56987 25.5259 2.92987 23.5246C1.29087 21.5244 0.423828 19.3756 0.423828 17.1655C0.423828 14.9543 1.29087 12.8066 2.92987 10.8065C4.56987 8.80511 6.96482 6.97881 9.95782 5.43432C15.9418 2.34532 24.2378 0.423096 33.4238 0.423096Z" fill="#D9D9D9" stroke="url(#paint1_linear_30852_748)" stroke-opacity="0.7" stroke-width="0.846"/>
<path d="M41.4932 16.7037L45.1442 14.5141L48.7943 16.7037L45.1442 18.8921L41.4932 16.7037ZM17.1992 16.7025L20.8502 14.5141L24.5012 16.7025L20.8502 18.8921L17.1992 16.7025ZM33.0002 21.8001L26.9473 18.1702L23.2972 20.3599L33.0002 26.1769L42.7032 20.3599L39.0522 18.1702L33.0002 21.8001ZM33.0002 11.6073L39.0522 15.2359L42.7032 13.0475L33.0002 7.23047L23.2972 13.0475L26.9473 15.2359L33.0002 11.6073Z" fill="white" fill-opacity="0.8"/>
<defs>
<linearGradient id="paint0_linear_30852_748" x1="33.4247" y1="1.9458" x2="33.4247" y2="35.7628" gradientUnits="userSpaceOnUse">
<stop stop-color="#313334"/>
<stop offset="1" stop-color="#1B1C1E"/>
</linearGradient>
<linearGradient id="paint1_linear_30852_748" x1="33.4238" y1="-0.0841421" x2="33.4238" y2="34.414" gradientUnits="userSpaceOnUse">
<stop stop-color="#F0F0F0"/>
<stop offset="1" stop-color="white"/>
</linearGradient>
</defs>
</svg>
