<svg width="67" height="51" viewBox="0 0 67 51" fill="none" xmlns="http://www.w3.org/2000/svg">
<path d="M33.421 35.7643C15.4293 35.7643 0.844048 28.1938 0.844048 18.8552C0.844048 9.51652 15.4293 1.94604 33.421 1.94604C51.4128 1.94604 65.998 9.51652 65.998 18.8552C65.998 28.1938 51.4128 35.7643 33.421 35.7643Z" fill="url(#paint0_linear_30852_743)"/>
<path d="M34.267 50.1863C18.1447 50.1863 5.07499 42.691 5.07499 33.4451C5.07499 24.1992 18.1447 16.7039 34.267 16.7039C50.3893 16.7039 63.459 24.1992 63.459 33.4451C63.459 42.691 50.3893 50.1863 34.267 50.1863Z" fill="#23272A"/>
<path opacity="0.1" d="M33.4238 0.423096C24.2378 0.423096 15.9408 2.34532 9.95682 5.43432C6.96382 6.97881 4.56883 8.8051 2.92883 10.8065C1.28983 12.8066 0.423828 14.9543 0.423828 17.1655C0.423828 19.3755 1.28983 21.5244 2.92883 23.5246C4.56883 25.526 6.96382 27.3511 9.95682 28.8956C15.9408 31.9834 24.2378 33.9068 33.4238 33.9068C42.6098 33.9068 50.9058 31.9834 56.8898 28.8956C59.8818 27.3511 62.2768 25.526 63.9178 23.5246C65.5568 21.5244 66.4238 19.3755 66.4238 17.1655C66.4238 14.9543 65.5568 12.8066 63.9178 10.8065C62.2768 8.8051 59.8818 6.97881 56.8898 5.43432C50.9058 2.34532 42.6098 0.423096 33.4238 0.423096Z" fill="#D9D9D9" stroke="url(#paint1_linear_30852_743)" stroke-opacity="0.7" stroke-width="0.846"/>
<path d="M41.5965 21.7908V12.061C41.5965 11.7696 41.2825 11.5346 40.8935 11.5346H37.5365C37.1485 11.5346 36.8335 11.7696 36.8335 12.061V21.7908H41.5965ZM35.3805 21.7908V14.0288C35.3805 13.7374 35.0655 13.5024 34.6775 13.5024H31.3195C30.9315 13.5024 30.6165 13.7374 30.6165 14.0288V21.7908H35.3805ZM29.1635 21.7908V15.9966C29.1635 15.7064 28.8485 15.4701 28.4605 15.4701H25.1035C24.7145 15.4701 24.3995 15.7064 24.3995 15.9966V21.7908H29.1635ZM26.3785 12.4795C26.9955 12.5514 27.6185 12.5886 28.2425 12.5886C30.6395 12.5886 32.9855 12.0502 34.9965 11.0201C36.6175 10.1903 37.9205 9.09669 38.8245 7.81841L38.8535 7.87476C38.9605 8.08461 39.2275 8.21294 39.5095 8.21294C39.9905 8.22013 40.3485 7.83281 40.1655 7.49705L39.5265 6.24993C39.3875 5.97772 38.9805 5.84223 38.6185 5.94656L36.9545 6.42621C36.5915 6.53053 36.4105 6.83511 36.5495 7.10731C36.6895 7.37832 37.0955 7.51382 37.4585 7.4095L37.5365 7.38792C36.7405 8.48874 35.6075 9.43126 34.2035 10.1495C31.9695 11.2935 29.2675 11.7516 26.5955 11.4386C26.2125 11.3931 25.8525 11.5897 25.7925 11.8775C25.7325 12.1653 25.9955 12.4351 26.3785 12.4795ZM42.3965 22.8449H23.6005C23.2115 22.8449 22.8965 23.0811 22.8965 23.3725C22.8965 23.6627 23.2115 23.8989 23.6005 23.8989H42.3965C42.7855 23.8989 43.0995 23.6627 43.0995 23.3725C43.0995 23.0811 42.7855 22.8449 42.3965 22.8449Z" fill="white" fill-opacity="0.8"/>
<defs>
<linearGradient id="paint0_linear_30852_743" x1="33.421" y1="1.94604" x2="33.421" y2="35.7631" gradientUnits="userSpaceOnUse">
<stop stop-color="#313334"/>
<stop offset="1" stop-color="#1B1C1E"/>
</linearGradient>
<linearGradient id="paint1_linear_30852_743" x1="33.4238" y1="-0.0841418" x2="33.4238" y2="34.414" gradientUnits="userSpaceOnUse">
<stop stop-color="#F0F0F0"/>
<stop offset="1" stop-color="white"/>
</linearGradient>
</defs>
</svg>
