<svg width="67" height="51" viewBox="0 0 67 51" fill="none" xmlns="http://www.w3.org/2000/svg">
<path d="M32.5748 50.1873C48.6971 50.1873 61.7668 42.692 61.7668 33.4461C61.7668 24.2001 48.6971 16.7048 32.5748 16.7048C16.4525 16.7048 3.38281 24.2001 3.38281 33.4461C3.38281 42.692 16.4525 50.1873 32.5748 50.1873Z" fill="#23272A"/>
<path d="M33.5 36.0164C51.4492 36.0164 66 28.1814 66 18.5164C66 8.85139 51.4492 1.01636 33.5 1.01636C15.5507 1.01636 1 8.85139 1 18.5164C1 28.1814 15.5507 36.0164 33.5 36.0164Z" fill="url(#paint0_linear_30852_747)"/>
<path opacity="0.1" d="M33.4238 0.423096C42.6098 0.423096 50.9068 2.34531 56.8908 5.4343C59.8828 6.9788 62.2778 8.8051 63.9188 10.8065C65.5578 12.8066 66.4238 14.9543 66.4238 17.1655C66.4238 19.3756 65.5578 21.5244 63.9188 23.5246C62.2778 25.5259 59.8828 27.351 56.8908 28.8955C50.9068 31.9833 42.6098 33.9068 33.4238 33.9068C24.2378 33.9068 15.9418 31.9833 9.95782 28.8955C6.96582 27.351 4.56981 25.5259 2.92981 23.5246C1.29081 21.5244 0.423828 19.3756 0.423828 17.1655C0.423828 14.9543 1.29081 12.8066 2.92981 10.8065C4.56981 8.8051 6.96482 6.9788 9.95782 5.4343C15.9418 2.34531 24.2378 0.423096 33.4238 0.423096Z" stroke="url(#paint1_linear_30852_747)" stroke-opacity="0.7" stroke-width="0.846"/>
<path d="M41.7 19.8958V10.166C41.7 9.87458 41.386 9.63953 40.997 9.63953H37.64C37.252 9.63953 36.937 9.87458 36.937 10.166V19.8958H41.7ZM35.484 19.8958V12.1338C35.484 11.8424 35.169 11.6073 34.781 11.6073H31.423C31.035 11.6073 30.72 11.8424 30.72 12.1338V19.8958H35.484ZM29.267 19.8958V14.1016C29.267 13.8114 28.952 13.5751 28.564 13.5751H25.207C24.818 13.5751 24.503 13.8114 24.503 14.1016V19.8958H29.267ZM26.482 10.5845C27.099 10.6564 27.722 10.6936 28.346 10.6936C30.743 10.6936 33.089 10.1552 35.1 9.1251C36.721 8.29529 38.024 7.20168 38.928 5.92339L38.957 5.97974C39.064 6.18959 39.331 6.31792 39.613 6.31792C40.094 6.32511 40.452 5.93779 40.269 5.60203L39.63 4.35491C39.491 4.08271 39.084 3.94721 38.722 4.05154L37.058 4.53119C36.695 4.63551 36.514 4.94009 36.653 5.21229C36.793 5.4833 37.199 5.6188 37.562 5.51448L37.64 5.4929C36.844 6.59372 35.711 7.53624 34.307 8.25452C32.073 9.39851 29.371 9.85658 26.699 9.5436C26.316 9.49803 25.956 9.69471 25.896 9.9825C25.836 10.2703 26.099 10.5401 26.482 10.5845ZM42.5 20.9499H23.704C23.315 20.9499 23 21.1861 23 21.4775C23 21.7677 23.315 22.0039 23.704 22.0039H42.5C42.889 22.0039 43.203 21.7677 43.203 21.4775C43.203 21.1861 42.889 20.9499 42.5 20.9499Z" fill="white" fill-opacity="0.2"/>
<defs>
<linearGradient id="paint0_linear_30852_747" x1="33.5" y1="1.01636" x2="33.5" y2="36.0151" gradientUnits="userSpaceOnUse">
<stop stop-color="#313334"/>
<stop offset="1" stop-color="#1B1C1E"/>
</linearGradient>
<linearGradient id="paint1_linear_30852_747" x1="33.4238" y1="-0.0841421" x2="33.4238" y2="34.414" gradientUnits="userSpaceOnUse">
<stop stop-color="#F0F0F0"/>
<stop offset="1" stop-color="white"/>
</linearGradient>
</defs>
</svg>
