<svg width="67" height="51" viewBox="0 0 67 51" fill="none" xmlns="http://www.w3.org/2000/svg">
<path d="M34.267 50.1863C18.1447 50.1863 5.07499 42.691 5.07499 33.4451C5.07499 24.1992 18.1447 16.7039 34.267 16.7039C50.3893 16.7039 63.459 24.1992 63.459 33.4451C63.459 42.691 50.3893 50.1863 34.267 50.1863Z" fill="#23272A"/>
<path d="M33.421 35.7643C15.4293 35.7643 0.844048 28.1938 0.844048 18.8552C0.844048 9.51652 15.4293 1.94604 33.421 1.94604C51.4128 1.94604 65.998 9.51652 65.998 18.8552C65.998 28.1938 51.4128 35.7643 33.421 35.7643Z" fill="url(#paint0_linear_30852_744)"/>
<path opacity="0.1" d="M33.4238 0.423096C24.2378 0.423096 15.9408 2.34532 9.95683 5.43432C6.96383 6.97881 4.56883 8.8051 2.92883 10.8065C1.28883 12.8066 0.423828 14.9543 0.423828 17.1655C0.423828 19.3756 1.28983 21.5244 2.92883 23.5246C4.56883 25.5259 6.96383 27.351 9.95683 28.8955C15.9408 31.9833 24.2368 33.9068 33.4238 33.9068C42.6098 33.9068 50.9058 31.9833 56.8898 28.8955C59.8818 27.351 62.2768 25.5259 63.9178 23.5246C65.5568 21.5244 66.4238 19.3756 66.4238 17.1655C66.4238 14.9543 65.5568 12.8066 63.9178 10.8065C62.2768 8.8051 59.8818 6.97881 56.8898 5.43432C50.9058 2.34532 42.6098 0.423096 33.4238 0.423096Z" stroke="url(#paint1_linear_30852_744)" stroke-opacity="0.7" stroke-width="0.846"/>
<path d="M41.2921 16.2005L44.9431 14.0109L48.5931 16.2005L44.9431 18.389L41.2921 16.2005ZM16.998 16.1993L20.649 14.0109L24.3 16.1993L20.649 18.389L16.998 16.1993ZM32.7991 21.2969L26.7461 17.6671L23.0961 19.8567L32.7991 25.6737L42.5021 19.8567L38.8511 17.6671L32.7991 21.2969ZM32.7991 11.1042L38.8511 14.7328L42.5021 12.5443L32.7991 6.72729L23.0961 12.5443L26.7461 14.7328L32.7991 11.1042Z" fill="white" fill-opacity="0.2"/>
<defs>
<linearGradient id="paint0_linear_30852_744" x1="33.421" y1="1.94604" x2="33.421" y2="35.7631" gradientUnits="userSpaceOnUse">
<stop stop-color="#313334"/>
<stop offset="1" stop-color="#1B1C1E"/>
</linearGradient>
<linearGradient id="paint1_linear_30852_744" x1="33.4238" y1="-0.0841421" x2="33.4238" y2="34.414" gradientUnits="userSpaceOnUse">
<stop stop-color="#F0F0F0"/>
<stop offset="1" stop-color="white"/>
</linearGradient>
</defs>
</svg>
