<svg width="67" height="51" viewBox="0 0 67 51" fill="none" xmlns="http://www.w3.org/2000/svg">
<path d="M34.267 50.1863C18.1447 50.1863 5.07499 42.691 5.07499 33.4451C5.07499 24.1992 18.1447 16.7039 34.267 16.7039C50.3893 16.7039 63.459 24.1992 63.459 33.4451C63.459 42.691 50.3893 50.1863 34.267 50.1863Z" fill="#23272A"/>
<path d="M33.421 35.764C15.4293 35.764 0.844048 28.1936 0.844048 18.8549C0.844048 9.51627 15.4293 1.9458 33.421 1.9458C51.4128 1.9458 65.998 9.51627 65.998 18.8549C65.998 28.1936 51.4128 35.764 33.421 35.764Z" fill="url(#paint0_linear_30852_745)"/>
<path opacity="0.1" d="M33.4238 0.423096C24.2378 0.423096 15.9408 2.34531 9.95682 5.4343C6.96382 6.9788 4.56882 8.80511 2.92882 10.8065C1.28982 12.8066 0.423828 14.9543 0.423828 17.1655C0.423828 19.3756 1.28982 21.5244 2.92882 23.5246C4.56882 25.5259 6.96382 27.351 9.95682 28.8955C15.9408 31.9833 24.2378 33.9068 33.4238 33.9068C42.6098 33.9068 50.9058 31.9833 56.8898 28.8955C59.8818 27.351 62.2768 25.5259 63.9178 23.5246C65.5568 21.5244 66.4238 19.3756 66.4238 17.1655C66.4238 14.9543 65.5568 12.8066 63.9178 10.8065C62.2768 8.80511 59.8818 6.9788 56.8898 5.4343C50.9058 2.34531 42.6098 0.423096 33.4238 0.423096Z" fill="#D9D9D9" stroke="url(#paint1_linear_30852_745)" stroke-opacity="0.7" stroke-width="0.846"/>
<path d="M26.6151 14.8068L24.2101 13.5429C21.5851 15.0718 19.7891 16.9413 19.0101 18.9582C18.9891 19.0194 19.0091 19.0829 19.0671 19.1369C19.1251 19.1896 19.2171 19.2316 19.3281 19.2532C19.4381 19.2748 19.5601 19.2748 19.6711 19.2544C19.7654 19.2417 19.8559 19.2022 19.9351 19.1393C21.6831 17.5097 23.9411 16.0443 26.6151 14.8068ZM39.8831 8.67676C39.965 8.65802 40.0403 8.60995 40.0991 8.53887C40.1381 8.48012 40.1371 8.41653 40.0961 8.35897C40.0351 8.28859 39.9583 8.2411 39.8751 8.22229C39.7731 8.19231 39.6541 8.18153 39.5381 8.19232C37.3972 8.41062 35.2731 8.82268 33.1841 9.42502C31.8352 9.81296 30.5103 10.3126 29.2191 10.9204L31.6191 12.1794C33.9801 10.7765 36.7751 9.59291 39.8831 8.67676ZM27.4391 14.4974C27.6191 14.5921 27.8611 14.6485 28.1161 14.6521C28.3721 14.6557 28.6201 14.6077 28.8091 14.519C28.8261 14.5118 28.8411 14.5058 28.8541 14.4974L29.5191 14.1484L30.7491 13.5057C30.9771 13.387 31.2961 13.2347 31.3141 13.0596C31.3391 12.9793 31.3261 12.8966 31.2771 12.8186C31.2117 12.7263 31.1282 12.655 31.0341 12.6112L28.4491 11.2549C28.2242 11.1482 27.9839 11.0961 27.7421 11.1014C27.4771 11.1014 27.2221 11.1566 27.0341 11.2549L24.8551 12.3989C24.6681 12.4972 24.5631 12.6315 24.5631 12.7706C24.5631 12.9097 24.6681 13.0428 24.8551 13.1412L27.4391 14.4974ZM46.3921 20.9704L32.0981 13.4721C31.9019 13.6383 31.6884 13.773 31.4631 13.8727L29.5581 14.8679C29.6731 14.9831 30.0161 15.0946 30.2231 15.2181C30.6481 15.2109 31.0731 15.2241 31.4931 15.2577C33.3011 15.3932 34.9581 15.8596 36.1731 16.5743C37.3881 17.289 38.0831 18.2063 38.1331 19.1633C39.0481 19.6201 39.9081 20.0446 40.6631 20.4176C41.0681 20.9284 42.7131 22.8218 44.8721 22.8218C45.4281 22.8242 45.9631 22.7115 46.3611 22.5089C46.7581 22.305 46.9871 22.028 46.9971 21.7366C46.9928 21.5791 46.9367 21.4299 46.8411 21.3217C46.7123 21.1702 46.5597 21.0507 46.3921 20.9704Z" fill="white"/>
<path d="M30.3878 15.7407C21.4358 15.9362 21.4358 22.6286 30.3878 22.8229C32.1778 22.8229 33.8948 22.4499 35.1598 21.7856C36.4258 21.1213 37.1368 20.2207 37.1368 19.2818C37.1368 18.3429 36.4258 17.4423 35.1598 16.778C33.8948 16.1137 32.1778 15.7407 30.3878 15.7407ZM30.8878 21.228V21.4451C30.8878 21.5146 30.8348 21.5818 30.7418 21.6309C30.6292 21.6843 30.5089 21.7104 30.3878 21.7077C30.2671 21.7104 30.1471 21.6843 30.0348 21.6309C29.9408 21.5818 29.8878 21.5146 29.8878 21.4451V21.228H27.9828C27.8621 21.2307 27.7421 21.2046 27.6298 21.1513C27.5358 21.1021 27.4828 21.0349 27.4828 20.9654C27.4828 20.8958 27.5358 20.8287 27.6298 20.7795C27.7421 20.7262 27.8621 20.7001 27.9828 20.7028H28.2828V17.8584C28.1789 17.8495 28.0777 17.8143 27.9858 17.7553C27.9138 17.7025 27.8808 17.639 27.8928 17.5754C27.9058 17.5107 27.9618 17.4519 28.0528 17.4075C28.1585 17.3609 28.2702 17.3373 28.3828 17.338H29.8878V17.1209C29.8878 17.0514 29.9408 16.9842 30.0348 16.9351C30.1471 16.8817 30.2671 16.8556 30.3878 16.8583C30.5208 16.8583 30.6478 16.8859 30.7418 16.9351C30.8348 16.9842 30.8878 17.0514 30.8878 17.1209V17.338C32.9488 17.2001 34.1508 18.5911 32.5478 19.2854C32.7818 19.3873 32.9698 19.5156 33.0978 19.6607C33.2268 19.8058 33.2938 19.9641 33.2928 20.1236C33.2888 20.2819 33.2218 20.4378 33.0958 20.5817C32.9698 20.7256 32.7878 20.8539 32.5608 20.9582C32.3083 21.07 32.0459 21.1468 31.7788 21.1873C31.4908 21.234 31.1868 21.2472 30.8878 21.228Z" fill="white"/>
<path d="M31.1932 17.8634H29.2832V19.0194H31.1932C31.4862 19.0194 31.7662 18.9594 31.9732 18.8503C32.1792 18.7424 32.2962 18.5949 32.2962 18.4414C32.2962 18.2879 32.1792 18.1416 31.9732 18.0325C31.725 17.9152 31.46 17.8577 31.1932 17.8634ZM31.1932 19.5446H29.2832V20.7042H31.1932C31.4862 20.7042 31.7672 20.643 31.9752 20.5339C32.1822 20.4248 32.2982 20.2773 32.2982 20.1238C32.2982 19.9703 32.1822 19.8228 31.9752 19.7137C31.7263 19.5965 31.4606 19.539 31.1932 19.5446Z" fill="white"/>
<defs>
<linearGradient id="paint0_linear_30852_745" x1="33.421" y1="1.9458" x2="33.421" y2="35.7628" gradientUnits="userSpaceOnUse">
<stop stop-color="#313334"/>
<stop offset="1" stop-color="#1B1C1E"/>
</linearGradient>
<linearGradient id="paint1_linear_30852_745" x1="33.4238" y1="-0.0841421" x2="33.4238" y2="34.414" gradientUnits="userSpaceOnUse">
<stop stop-color="#F0F0F0"/>
<stop offset="1" stop-color="white"/>
</linearGradient>
</defs>
</svg>
