<svg width="39" height="26" viewBox="0 0 39 26" fill="none" xmlns="http://www.w3.org/2000/svg">
<path fill-rule="evenodd" clip-rule="evenodd" d="M15.2401 25.4285C17.9051 26.6902 20.5089 25.7349 23.0871 23.8211C19.2155 25.3476 14.5458 21.4601 8.76277 14.133L8.38933 14.2737V14.6927C8.38933 15.2109 7.96202 15.6347 7.4384 15.6347H4.93592H4.92684C6.87296 17.5621 13.4631 24.587 15.2401 25.4285ZM4.74974 14.6927V12.212C4.74974 12.1105 4.83375 12.0278 4.93618 12.0278H7.43868C7.54165 12.0278 7.62515 12.1108 7.62515 12.212V14.6927C7.62515 14.7942 7.54165 14.8778 7.43868 14.8778H4.93618C4.83375 14.8778 4.74974 14.7942 4.74974 14.6927ZM7.76274 11.2473V8.76682C7.76274 8.66559 7.84625 8.58206 7.9484 8.58206H10.4515C10.5536 8.58206 10.6379 8.66559 10.6379 8.76682V11.2473C10.6379 11.3493 10.5536 11.4324 10.4515 11.4324H7.9484C7.84625 11.4324 7.76274 11.3493 7.76274 11.2473ZM2.30592 10.9969V8.51646C2.30592 8.41441 2.39021 8.33165 2.49236 8.33165H4.9954C5.09756 8.33165 5.18184 8.41441 5.18184 8.51646V10.9969C5.18184 11.0987 5.09782 11.1817 4.9954 11.1817H2.49236C2.39047 11.1817 2.30592 11.0987 2.30592 10.9969ZM5.93724 8.27694V6.83843C5.93724 6.7795 5.98553 6.73108 6.04502 6.73108H7.49632C7.55576 6.73108 7.60405 6.77977 7.60405 6.83843V8.27694C7.60405 8.33614 7.55576 8.38403 7.49632 8.38403H6.04502C5.98553 8.38403 5.93724 8.33614 5.93724 8.27694ZM3.60171 7.53827V6.55742C3.60171 6.51696 3.63505 6.48364 3.6756 6.48364H4.66518C4.70599 6.48364 4.73907 6.51696 4.73907 6.55742V7.53827C4.73907 7.57846 4.70599 7.6115 4.66518 7.6115H3.6756C3.63532 7.6115 3.60171 7.57846 3.60171 7.53827ZM1.74791 14.289V13.1625C1.74791 13.1162 1.78632 13.0789 1.83273 13.0789H2.96955C3.01623 13.0789 3.05437 13.1165 3.05437 13.1625V14.289C3.05437 14.3358 3.01623 14.3734 2.96955 14.3734H1.83273C1.78632 14.3731 1.74791 14.3358 1.74791 14.289ZM0 9.21576V8.08844C0 8.04245 0.0378762 8.00519 0.0840212 8.00519H1.22084C1.26779 8.00519 1.30566 8.04272 1.30566 8.08844V9.21576C1.30566 9.2618 1.26779 9.29907 1.22084 9.29907H0.0840212C0.0378762 9.29934 0 9.2618 0 9.21576ZM19.1502 22.5533C23.4043 24.5643 26.6667 21.4863 25.1306 15.6054C24.6577 24.2309 18.2358 18.8182 11.5093 8.66374C11.3021 8.35071 11.4023 8.43798 11.4023 8.76682V11.2473C11.4023 11.7655 10.9742 12.1898 10.4515 12.1898H8.45385C10.6022 15.0784 15.7749 20.9578 19.1502 22.5533Z" fill="white"/>
<path fill-rule="evenodd" clip-rule="evenodd" d="M23.7585 0.572068C21.0939 -0.690093 18.4897 0.26512 15.9117 2.17899C19.7831 0.652706 24.4531 4.54099 30.2359 11.8671L30.6096 11.7264V11.3076C30.6096 10.7889 31.0369 10.3653 31.5597 10.3653H34.0627H34.0718C32.126 8.43825 25.5358 1.41334 23.7585 0.572068ZM34.2492 11.3078V13.7883C34.2492 13.8896 34.1649 13.9731 34.0627 13.9731H31.5597C31.4575 13.9731 31.374 13.8898 31.374 13.7883V11.3078C31.374 11.2061 31.4575 11.1231 31.5597 11.1231H34.0627C34.1649 11.1231 34.2492 11.2061 34.2492 11.3078ZM31.2364 14.7528V17.2332C31.2364 17.3353 31.1529 17.418 31.05 17.418H28.5475C28.4453 17.418 28.361 17.3353 28.361 17.2332V14.7528C28.361 14.651 28.445 14.568 28.5475 14.568H31.05C31.1529 14.568 31.2364 14.651 31.2364 14.7528ZM36.6922 15.0034V17.4839C36.6922 17.5857 36.6084 17.6686 36.5063 17.6686H34.0033C33.9011 17.6686 33.8165 17.5857 33.8165 17.4839V15.0034C33.8165 14.9021 33.9008 14.8186 34.0033 14.8186H36.5063C36.6087 14.8186 36.6922 14.9021 36.6922 15.0034ZM33.062 17.7239V19.1624C33.062 19.2214 33.0137 19.2692 32.9542 19.2692H31.5029C31.4434 19.2692 31.3946 19.2214 31.3946 19.1624V17.7239C31.3946 17.665 31.4434 17.6166 31.5029 17.6166H32.9542C33.0137 17.6163 33.062 17.665 33.062 17.7239ZM35.3972 18.4623V19.4435C35.3972 19.4834 35.3636 19.5164 35.3233 19.5164H34.3334C34.2926 19.5164 34.2598 19.4834 34.2598 19.4435V18.4623C34.2598 18.4219 34.2926 18.3886 34.3334 18.3886H35.3233C35.3636 18.3888 35.3972 18.4219 35.3972 18.4623ZM37.251 11.7113V12.8381C37.251 12.8841 37.2126 12.9222 37.1659 12.9222H36.0293C35.9826 12.9222 35.9443 12.8844 35.9443 12.8381V11.7113C35.9443 11.6653 35.9826 11.6273 36.0293 11.6273H37.1659C37.2126 11.6273 37.251 11.6653 37.251 11.7113ZM38.9989 16.7851V17.9119C38.9989 17.9579 38.961 17.9952 38.9146 17.9952H37.7773C37.7308 17.9952 37.6933 17.9576 37.6933 17.9119V16.7851C37.6933 16.7385 37.7311 16.701 37.7773 16.701H38.9146C38.9613 16.701 38.9989 16.7385 38.9989 16.7851ZM19.849 3.44671C15.5949 1.43607 12.3324 4.51375 13.8686 10.3957C14.3409 1.76946 20.7633 7.18272 27.489 17.3363C27.6963 17.6496 27.5968 17.5624 27.5968 17.2332V14.7528C27.5968 14.2346 28.0249 13.8105 28.5475 13.8105H30.545C28.397 10.9216 23.2242 5.04305 19.849 3.44671Z" fill="white"/>
</svg>
