<svg width="60" height="40" viewBox="0 0 60 40" fill="none" xmlns="http://www.w3.org/2000/svg">
<path fill-rule="evenodd" clip-rule="evenodd" d="M23.224 39.1204C27.285 41.0614 31.2529 39.5919 35.1818 36.6474C29.282 38.996 22.1659 33.0152 13.3533 21.7428L12.7842 21.9592V22.6038C12.7842 23.4011 12.1331 24.0531 11.3352 24.0531L7.52169 24.0531L7.50787 24.0531C10.4735 27.0182 20.5161 37.8258 23.224 39.1204ZM7.23798 22.6038V18.7874C7.23798 18.6312 7.36601 18.5039 7.5221 18.5039L11.3356 18.5039C11.4925 18.5039 11.6197 18.6316 11.6197 18.7874V22.6038C11.6197 22.76 11.4925 22.8886 11.3356 22.8886L7.5221 22.8886C7.36601 22.8886 7.23798 22.76 7.23798 22.6038ZM11.8294 17.3032V13.4871C11.8294 13.3313 11.9567 13.2028 12.1123 13.2028L15.9266 13.2028C16.0823 13.2028 16.2108 13.3313 16.2108 13.4871V17.3032C16.2108 17.4602 16.0823 17.5879 15.9266 17.5879L12.1123 17.5879C11.9567 17.5879 11.8294 17.4602 11.8294 17.3032ZM3.51392 16.918L3.51392 13.1019C3.51392 12.9449 3.64236 12.8176 3.79804 12.8176L7.61233 12.8176C7.76801 12.8176 7.89645 12.9449 7.89645 13.1019V16.918C7.89645 17.0746 7.76842 17.2023 7.61233 17.2023L3.79804 17.2023C3.64277 17.2023 3.51392 17.0746 3.51392 16.918ZM9.04757 12.7334V10.5203C9.04757 10.4296 9.12114 10.3552 9.21179 10.3552L11.4234 10.3552C11.514 10.3552 11.5876 10.43 11.5876 10.5203V12.7334C11.5876 12.8245 11.514 12.8982 11.4234 12.8982L9.21179 12.8982C9.12114 12.8982 9.04757 12.8245 9.04757 12.7334ZM5.48854 11.597V10.088C5.48854 10.0257 5.53935 9.97449 5.60113 9.97449L7.10913 9.97449C7.17132 9.97449 7.22172 10.0257 7.22172 10.088V11.597C7.22172 11.6588 7.17132 11.7097 7.10913 11.7097L5.60113 11.7097C5.53975 11.7097 5.48854 11.6588 5.48854 11.597ZM2.66358 21.9827L2.66358 20.2496C2.66358 20.1784 2.72212 20.1211 2.79284 20.1211L4.52521 20.1211C4.59634 20.1211 4.65447 20.1788 4.65447 20.2496V21.9827C4.65447 22.0547 4.59634 22.1125 4.52521 22.1125L2.79284 22.1125C2.72212 22.1121 2.66358 22.0547 2.66358 21.9827ZM0 14.1778L0 12.4434C0 12.3726 0.0577185 12.3153 0.128037 12.3153L1.8604 12.3153C1.93194 12.3153 1.98966 12.373 1.98966 12.4434L1.98966 14.1778C1.98966 14.2485 1.93194 14.3059 1.8604 14.3059L0.128037 14.3059C0.0577185 14.3063 0 14.2485 0 14.1778ZM29.1824 34.6971C35.6651 37.7908 40.6366 33.0555 38.2958 24.0079C37.5751 37.2779 27.789 28.9507 17.5387 13.3285C17.2229 12.8469 17.3757 12.9811 17.3757 13.4871V17.3032C17.3757 18.1004 16.7233 18.7532 15.9266 18.7532L12.8826 18.7532C16.1563 23.1973 24.0389 32.2424 29.1824 34.6971Z" fill="url(#paint0_linear_759_8759)"/>
<path fill-rule="evenodd" clip-rule="evenodd" d="M36.2063 0.880107C32.1457 -1.06168 28.1773 0.407879 24.2488 3.35229C30.1483 1.00416 37.2648 6.98613 46.077 18.257L46.6464 18.0406V17.3963C46.6464 16.5983 47.2976 15.9467 48.0943 15.9467L51.9086 15.9467L51.9224 15.9467C48.9572 12.9819 38.9146 2.17436 36.2063 0.880107ZM52.1927 17.3967V21.2128C52.1927 21.3685 52.0642 21.4971 51.9086 21.4971L48.0943 21.4971C47.9386 21.4971 47.8114 21.369 47.8114 21.2128V17.3967C47.8114 17.2401 47.9386 17.1124 48.0943 17.1124L51.9086 17.1124C52.0642 17.1124 52.1927 17.2401 52.1927 17.3967ZM47.6016 22.6966V26.5126C47.6016 26.6696 47.4744 26.7969 47.3175 26.7969L43.504 26.7969C43.3484 26.7969 43.2199 26.6696 43.2199 26.5126V22.6966C43.2199 22.54 43.3479 22.4123 43.504 22.4123L47.3175 22.4123C47.4744 22.4123 47.6016 22.54 47.6016 22.6966ZM55.9155 23.0822V26.8982C55.9155 27.0548 55.7879 27.1825 55.6322 27.1825L51.8179 27.1825C51.6623 27.1825 51.5334 27.0548 51.5334 26.8982V23.0822C51.5334 22.9264 51.6618 22.7978 51.8179 22.7978L55.6322 22.7978C55.7883 22.7978 55.9155 22.9264 55.9155 23.0822ZM50.3835 27.2675V29.4806C50.3835 29.5713 50.3099 29.6449 50.2193 29.6449L48.0077 29.6449C47.9171 29.6449 47.8427 29.5713 47.8427 29.4806V27.2675C47.8427 27.1768 47.9171 27.1024 48.0077 27.1024L50.2193 27.1024C50.3099 27.102 50.3835 27.1768 50.3835 27.2675ZM53.9421 28.4036V29.913C53.9421 29.9744 53.8909 30.0253 53.8295 30.0253L52.3211 30.0253C52.2589 30.0253 52.209 29.9744 52.209 29.913V28.4036C52.209 28.3413 52.2589 28.2901 52.3211 28.2901L53.8295 28.2901C53.8909 28.2905 53.9421 28.3413 53.9421 28.4036ZM56.7671 18.0174V19.7509C56.7671 19.8217 56.7085 19.8803 56.6374 19.8803L54.9055 19.8803C54.8343 19.8803 54.7758 19.8221 54.7758 19.7509V18.0174C54.7758 17.9466 54.8343 17.8881 54.9055 17.8881L56.6374 17.8881C56.7085 17.8881 56.7671 17.9466 56.7671 18.0174ZM59.4307 25.8232V27.5567C59.4307 27.6275 59.373 27.6849 59.3022 27.6849L57.569 27.6849C57.4983 27.6849 57.441 27.6271 57.441 27.5567V25.8232C57.441 25.7516 57.4987 25.6939 57.569 25.6939L59.3022 25.6939C59.3734 25.6939 59.4307 25.7516 59.4307 25.8232ZM30.2487 5.30262C23.7659 2.20934 18.7944 6.94423 21.1353 15.9934C21.8551 2.72225 31.6421 11.0503 41.8912 26.6713C42.207 27.1532 42.0554 27.019 42.0554 26.5126V22.6966C42.0554 21.8993 42.7078 21.2469 43.504 21.2469L46.5481 21.2469C43.2748 16.8025 35.3922 7.75853 30.2487 5.30262Z" fill="#BF2938"/>
<defs>
<linearGradient id="paint0_linear_759_8759" x1="0" y1="24.8928" x2="38.8842" y2="24.8928" gradientUnits="userSpaceOnUse">
<stop stop-color="#BF2938"/>
<stop offset="1" stop-color="#600509"/>
</linearGradient>
</defs>
</svg>
