<svg width="72" height="48" viewBox="0 0 72 48" fill="none" xmlns="http://www.w3.org/2000/svg">
<path fill-rule="evenodd" clip-rule="evenodd" d="M27.8688 46.9445C32.742 49.2737 37.5035 47.5102 42.2182 43.9769C35.1384 46.7952 26.5991 39.6183 16.024 26.0913L15.3411 26.351V27.1246C15.3411 28.0813 14.5597 28.8637 13.6022 28.8637L9.02604 28.8637L9.00945 28.8637C12.5682 32.4219 24.6193 45.3909 27.8688 46.9445ZM8.68558 27.1246V22.5449C8.68558 22.3574 8.83922 22.2047 9.02652 22.2047L13.6027 22.2047C13.791 22.2047 13.9437 22.3579 13.9437 22.5449V27.1246C13.9437 27.312 13.791 27.4663 13.6027 27.4663L9.02652 27.4663C8.83922 27.4663 8.68558 27.312 8.68558 27.1246ZM14.1953 20.7638V16.1845C14.1953 15.9976 14.348 15.8434 14.5348 15.8434L19.112 15.8434C19.2988 15.8434 19.4529 15.9976 19.4529 16.1845L19.4529 20.7638C19.4529 20.9522 19.2988 21.1055 19.112 21.1055L14.5348 21.1055C14.348 21.1055 14.1953 20.9522 14.1953 20.7638ZM4.2167 20.3016V15.7223C4.2167 15.5339 4.37084 15.3811 4.55765 15.3811L9.13481 15.3811C9.32162 15.3811 9.47575 15.5339 9.47575 15.7223V20.3016C9.47575 20.4895 9.32211 20.6428 9.13481 20.6428L4.55765 20.6428C4.37132 20.6428 4.2167 20.4895 4.2167 20.3016ZM10.8571 15.2801V12.6244C10.8571 12.5156 10.9454 12.4262 11.0541 12.4262L13.7081 12.4262C13.8168 12.4262 13.9051 12.5161 13.9051 12.6244V15.2801C13.9051 15.3894 13.8168 15.4778 13.7081 15.4778L11.0541 15.4778C10.9454 15.4778 10.8571 15.3894 10.8571 15.2801ZM6.58625 13.9164V12.1056C6.58625 12.0309 6.64722 11.9694 6.72136 11.9694L8.53096 11.9694C8.60558 11.9694 8.66607 12.0309 8.66607 12.1056V13.9164C8.66607 13.9906 8.60558 14.0516 8.53096 14.0516L6.72136 14.0516C6.64771 14.0516 6.58625 13.9906 6.58625 13.9164ZM3.1963 26.3793V24.2995C3.1963 24.2141 3.26654 24.1453 3.35141 24.1453L5.43025 24.1453C5.51561 24.1453 5.58536 24.2146 5.58536 24.2995L5.58536 26.3793C5.58536 26.4657 5.51561 26.535 5.43025 26.535L3.35141 26.535C3.26654 26.5345 3.1963 26.4657 3.1963 26.3793ZM0 17.0133L0 14.9321C0 14.8472 0.0692622 14.7784 0.153645 14.7784L2.23249 14.7784C2.31833 14.7784 2.38759 14.8477 2.38759 14.9321L2.38759 17.0133C2.38759 17.0983 2.31833 17.1671 2.23249 17.1671L0.153645 17.1671C0.0692622 17.1676 0 17.0983 0 17.0133ZM35.0189 41.6365C42.7982 45.349 48.764 39.6666 45.955 28.8095C45.0902 44.7335 33.3468 34.7408 21.0464 15.9942C20.6674 15.4163 20.8508 15.5774 20.8508 16.1845L20.8508 20.7638C20.8508 21.7205 20.068 22.5039 19.112 22.5039L15.4591 22.5039C19.3876 27.8367 28.8467 38.6909 35.0189 41.6365Z" fill="#863AEB"/>
<path fill-rule="evenodd" clip-rule="evenodd" d="M43.4455 1.0561C38.5728 -1.27404 33.8107 0.489425 29.0965 4.02272C36.1759 1.20497 44.7156 8.38332 55.2903 21.9083L55.9737 21.6487V20.8755C55.9737 19.9179 56.7551 19.136 57.7111 19.136L62.2882 19.136L62.3048 19.136C58.7466 15.5783 46.6955 2.60921 43.4455 1.0561ZM62.6292 20.876V25.4553C62.6292 25.6422 62.4751 25.7965 62.2882 25.7965L57.7111 25.7965C57.5243 25.7965 57.3716 25.6427 57.3716 25.4553V20.876C57.3716 20.6881 57.5243 20.5348 57.7111 20.5348L62.2882 20.5348C62.4751 20.5348 62.6292 20.6881 62.6292 20.876ZM57.1199 27.2358V31.8151C57.1199 32.0035 56.9672 32.1563 56.779 32.1563L52.2028 32.1563C52.016 32.1563 51.8618 32.0035 51.8618 31.8151V27.2358C51.8618 27.0479 52.0155 26.8947 52.2028 26.8947L56.779 26.8947C56.9672 26.8947 57.1199 27.0479 57.1199 27.2358ZM67.0966 27.6986V32.2778C67.0966 32.4657 66.9434 32.619 66.7566 32.619L62.1795 32.619C61.9927 32.619 61.838 32.4657 61.838 32.2778V27.6986C61.838 27.5116 61.9922 27.3574 62.1795 27.3574L66.7566 27.3574C66.9439 27.3574 67.0966 27.5116 67.0966 27.6986ZM60.4582 32.721V35.3767C60.4582 35.4856 60.3699 35.5739 60.2611 35.5739L57.6072 35.5739C57.4984 35.5739 57.4092 35.4856 57.4092 35.3767V32.721C57.4092 32.6122 57.4984 32.5228 57.6072 32.5228L60.2611 32.5228C60.3699 32.5224 60.4582 32.6122 60.4582 32.721ZM64.7285 34.0843V35.8956C64.7285 35.9693 64.6671 36.0303 64.5934 36.0303L62.7833 36.0303C62.7087 36.0303 62.6487 35.9693 62.6487 35.8956V34.0843C62.6487 34.0096 62.7087 33.9481 62.7833 33.9481L64.5934 33.9481C64.6671 33.9486 64.7285 34.0096 64.7285 34.0843ZM68.1185 21.6208V23.7011C68.1185 23.786 68.0482 23.8563 67.9629 23.8563L65.8845 23.8563C65.7991 23.8563 65.7289 23.7865 65.7289 23.7011V21.6208C65.7289 21.5359 65.7991 21.4656 65.8845 21.4656L67.9629 21.4656C68.0482 21.4656 68.1185 21.5359 68.1185 21.6208ZM71.3148 30.9878V33.068C71.3148 33.153 71.2455 33.2218 71.1606 33.2218L69.0808 33.2218C68.9959 33.2218 68.9272 33.1525 68.9272 33.068V30.9878C68.9272 30.9019 68.9964 30.8326 69.0808 30.8326L71.1606 30.8326C71.246 30.8326 71.3148 30.9019 71.3148 30.9878ZM36.2964 6.36312C28.5171 2.65118 22.5512 8.33305 25.3603 19.1921C26.2241 3.26667 37.9684 13.2603 50.2673 32.0055C50.6463 32.5839 50.4644 32.4228 50.4644 31.8151V27.2358C50.4644 26.2792 51.2473 25.4963 52.2028 25.4963L55.8556 25.4963C51.9277 20.1629 42.4685 9.31021 36.2964 6.36312Z" fill="#FA9145"/>
</svg>
