<svg width="66" height="44" viewBox="0 0 66 44" fill="none" xmlns="http://www.w3.org/2000/svg">
<path fill-rule="evenodd" clip-rule="evenodd" d="M25.5467 43.0325C30.0139 45.1676 34.3787 43.551 38.7006 40.3122C32.2106 42.8956 24.3829 36.3168 14.6888 23.9171L14.0629 24.1551V24.8643C14.0629 25.7412 13.3466 26.4584 12.4689 26.4584L8.27398 26.4584L8.25878 26.4584C11.521 29.7201 22.568 41.6084 25.5467 43.0325ZM7.96189 24.8643L7.96189 20.6661C7.96189 20.4943 8.10274 20.3543 8.27443 20.3543L12.4693 20.3543C12.6419 20.3543 12.7819 20.4948 12.7819 20.6661V24.8643C12.7819 25.0361 12.6419 25.1774 12.4693 25.1774L8.27443 25.1774C8.10274 25.1774 7.96189 25.0361 7.96189 24.8643ZM13.0126 19.0335V14.8359C13.0126 14.6645 13.1525 14.5231 13.3238 14.5231L17.5196 14.5231C17.6908 14.5231 17.8321 14.6645 17.8321 14.8359L17.8321 19.0335C17.8321 19.2062 17.6908 19.3467 17.5196 19.3467L13.3238 19.3467C13.1525 19.3467 13.0126 19.2062 13.0126 19.0335ZM3.86537 18.6098V14.4122C3.86537 14.2395 4.00666 14.0994 4.1779 14.0994L8.37369 14.0994C8.54494 14.0994 8.68623 14.2395 8.68623 14.4122V18.6098C8.68623 18.7821 8.54539 18.9226 8.37369 18.9226L4.1779 18.9226C4.0071 18.9226 3.86537 18.7821 3.86537 18.6098ZM9.95248 14.0068V11.5724C9.95248 11.4726 10.0334 11.3908 10.1331 11.3908L12.5659 11.3908C12.6656 11.3908 12.7465 11.4731 12.7465 11.5724V14.0068C12.7465 14.107 12.6656 14.188 12.5659 14.188L10.1331 14.188C10.0334 14.188 9.95248 14.107 9.95248 14.0068ZM6.03748 12.7567V11.0968C6.03748 11.0283 6.09337 10.972 6.16134 10.972L7.82016 10.972C7.88857 10.972 7.94401 11.0283 7.94401 11.0968V12.7567C7.94401 12.8247 7.88857 12.8807 7.82016 12.8807L6.16134 12.8807C6.09382 12.8807 6.03748 12.8247 6.03748 12.7567ZM2.92999 24.181V22.2746C2.92999 22.1963 2.99437 22.1332 3.07217 22.1332L4.9778 22.1332C5.05605 22.1332 5.11999 22.1968 5.11999 22.2746V24.181C5.11999 24.2602 5.05605 24.3238 4.9778 24.3238L3.07217 24.3238C2.99437 24.3233 2.92999 24.2602 2.92999 24.181ZM0 15.5956L0 13.6878C0 13.6099 0.0634913 13.5469 0.140843 13.5469L2.04648 13.5469C2.12517 13.5469 2.18866 13.6104 2.18866 13.6878V15.5956C2.18866 15.6734 2.12517 15.7365 2.04648 15.7365L0.140843 15.7365C0.0634913 15.737 0 15.6734 0 15.5956ZM32.1011 38.1668C39.2322 41.5699 44.701 36.3611 42.126 26.4087C41.3333 41.0057 30.5684 31.8457 19.2928 14.6614C18.9454 14.1316 19.1136 14.2793 19.1136 14.8359L19.1136 19.0335C19.1136 19.9105 18.3959 20.6286 17.5196 20.6286L14.1711 20.6286C17.7722 25.517 26.4432 35.4667 32.1011 38.1668Z" fill="#E50FF2"/>
<path fill-rule="evenodd" clip-rule="evenodd" d="M39.8272 0.968161C35.3605 -1.1678 30.9952 0.44871 26.6738 3.68756C33.1633 1.10462 40.9915 7.68477 50.6851 20.0827L51.3115 19.8447V19.136C51.3115 18.2581 52.0278 17.5414 52.9042 17.5414L57.1 17.5414L57.1152 17.5414C53.8534 14.2801 42.8064 2.39184 39.8272 0.968161ZM57.4125 19.1364V23.3341C57.4125 23.5054 57.2712 23.6468 57.1 23.6468L52.9042 23.6468C52.7329 23.6468 52.593 23.5059 52.593 23.3341V19.1364C52.593 18.9641 52.7329 18.8237 52.9042 18.8237L57.1 18.8237C57.2712 18.8237 57.4125 18.9641 57.4125 19.1364ZM52.3623 24.9662V29.1639C52.3623 29.3366 52.2223 29.4766 52.0497 29.4766L47.8548 29.4766C47.6836 29.4766 47.5423 29.3366 47.5423 29.1639V24.9662C47.5423 24.794 47.6831 24.6535 47.8548 24.6535L52.0497 24.6535C52.2223 24.6535 52.3623 24.794 52.3623 24.9662ZM61.5077 25.3904V29.588C61.5077 29.7603 61.3673 29.9008 61.196 29.9008L57.0002 29.9008C56.829 29.9008 56.6873 29.7603 56.6873 29.588V25.3904C56.6873 25.219 56.8285 25.0776 57.0002 25.0776L61.196 25.0776C61.3677 25.0776 61.5077 25.219 61.5077 25.3904ZM55.4224 29.9943V32.4287C55.4224 32.5285 55.3414 32.6094 55.2417 32.6094L52.8089 32.6095C52.7092 32.6095 52.6274 32.5285 52.6274 32.4287V29.9943C52.6274 29.8945 52.7092 29.8126 52.8089 29.8126L55.2417 29.8126C55.3414 29.8122 55.4224 29.8945 55.4224 29.9943ZM59.3369 31.2439V32.9043C59.3369 32.9719 59.2806 33.0278 59.213 33.0278L57.5538 33.0278C57.4854 33.0278 57.4304 32.9719 57.4304 32.9043V31.2439C57.4304 31.1755 57.4854 31.1191 57.5538 31.1191L59.213 31.1191C59.2806 31.1196 59.3369 31.1755 59.3369 31.2439ZM62.4444 19.8192V21.726C62.4444 21.8039 62.38 21.8683 62.3018 21.8683L60.3966 21.8683C60.3183 21.8683 60.2539 21.8043 60.2539 21.726V19.8192C60.2539 19.7413 60.3183 19.6769 60.3966 19.6769L62.3018 19.6769C62.38 19.6769 62.4444 19.7413 62.4444 19.8192ZM65.3744 28.4055V30.3124C65.3744 30.3903 65.3109 30.4533 65.2331 30.4533L63.3266 30.4533C63.2488 30.4533 63.1857 30.3898 63.1857 30.3124V28.4055C63.1857 28.3268 63.2492 28.2632 63.3266 28.2632L65.2331 28.2632C65.3113 28.2632 65.3744 28.3268 65.3744 28.4055ZM33.2737 5.83292C26.1426 2.43032 20.6739 7.63869 23.2488 17.5928C24.0407 2.99451 34.8065 12.1554 46.0806 29.3384C46.4281 29.8686 46.2613 29.7209 46.2613 29.1639V24.9662C46.2613 24.0893 46.9789 23.3716 47.8548 23.3716L51.2033 23.3716C47.6026 18.4827 38.9316 8.53442 33.2737 5.83292Z" fill="#6342F5"/>
</svg>
