<svg width="59" height="40" viewBox="0 0 59 40" fill="none" xmlns="http://www.w3.org/2000/svg">
<path fill-rule="evenodd" clip-rule="evenodd" d="M22.8152 38.4312C26.8047 40.338 30.7028 38.8943 34.5626 36.0018C28.7665 38.309 21.7758 32.4336 13.1182 21.3598L12.5592 21.5724V22.2057C12.5592 22.9888 11.9195 23.6294 11.1356 23.6294L7.38929 23.6294L7.37572 23.6294C10.2891 26.5423 20.1549 37.1594 22.8152 38.4312ZM7.11057 22.2057V18.4565C7.11057 18.303 7.23636 18.178 7.38969 18.178L11.136 18.178C11.2902 18.178 11.4152 18.3034 11.4152 18.4565V22.2057C11.4152 22.3591 11.2902 22.4854 11.136 22.4854L7.38969 22.4854C7.23636 22.4854 7.11057 22.3591 7.11057 22.2057ZM11.6212 16.9984V13.2496C11.6212 13.0966 11.7462 12.9703 11.8991 12.9703L15.6463 12.9703C15.7992 12.9703 15.9254 13.0966 15.9254 13.2496V16.9984C15.9254 17.1526 15.7992 17.2781 15.6463 17.2781L11.8991 17.2781C11.7462 17.2781 11.6212 17.1526 11.6212 16.9984ZM3.45206 16.62L3.45206 12.8712C3.45206 12.717 3.57825 12.5919 3.73118 12.5919L7.47834 12.5919C7.63128 12.5919 7.75746 12.717 7.75746 12.8712V16.62C7.75746 16.7738 7.63168 16.8993 7.47834 16.8993L3.73118 16.8993C3.57865 16.8993 3.45206 16.7738 3.45206 16.62ZM8.88832 12.5092V10.3351C8.88832 10.246 8.96059 10.1729 9.04964 10.1729L11.2223 10.1729C11.3113 10.1729 11.3836 10.2464 11.3836 10.3351V12.5092C11.3836 12.5987 11.3113 12.671 11.2223 12.671L9.04964 12.671C8.96059 12.671 8.88832 12.5987 8.88832 12.5092ZM5.39193 11.3928V9.91035C5.39193 9.84921 5.44184 9.79886 5.50254 9.79886L6.98399 9.79886C7.04508 9.79886 7.0946 9.84921 7.0946 9.91035V11.3928C7.0946 11.4535 7.04508 11.5035 6.98399 11.5035L5.50254 11.5035C5.44224 11.5035 5.39193 11.4535 5.39193 11.3928ZM2.6167 21.5955L2.6167 19.8929C2.6167 19.823 2.6742 19.7667 2.74368 19.7667L4.44556 19.7667C4.51543 19.7667 4.57254 19.8234 4.57254 19.8929V21.5955C4.57254 21.6663 4.51543 21.723 4.44556 21.723L2.74368 21.723C2.6742 21.7226 2.6167 21.6663 2.6167 21.5955ZM0 13.9281L0 12.2243C0 12.1548 0.0567025 12.0984 0.125784 12.0984L1.82766 12.0984C1.89794 12.0984 1.95464 12.1552 1.95464 12.2243V13.9281C1.95464 13.9976 1.89794 14.0539 1.82766 14.0539L0.125784 14.0539C0.0567025 14.0543 0 13.9976 0 13.9281ZM28.6687 34.0858C35.0373 37.125 39.9213 32.4732 37.6217 23.585C36.9137 36.6212 27.2999 28.4406 17.23 13.0938C16.9197 12.6207 17.0698 12.7525 17.0698 13.2496V16.9984C17.0698 17.7816 16.4289 18.4229 15.6463 18.4229L12.6558 18.4229C15.8719 22.7887 23.6158 31.6744 28.6687 34.0858Z" fill="#59D51D"/>
<path fill-rule="evenodd" clip-rule="evenodd" d="M35.5674 0.86465C31.5782 -1.04292 27.6798 0.400741 23.8204 3.29327C29.616 0.986518 36.6072 6.86307 45.2643 17.9353L45.8237 17.7227V17.0898C45.8237 16.3058 46.4634 15.6657 47.2461 15.6657L50.9933 15.6657L51.0068 15.6657C48.0938 12.7532 38.228 2.1361 35.5674 0.86465ZM51.2724 17.0902V20.839C51.2724 20.9921 51.1462 21.1183 50.9933 21.1183L47.2461 21.1183C47.0932 21.1183 46.9682 20.9925 46.9682 20.839V17.0902C46.9682 16.9364 47.0932 16.8109 47.2461 16.8109L50.9933 16.8109C51.1462 16.8109 51.2724 16.9364 51.2724 17.0902ZM46.7621 22.2967V26.0455C46.7621 26.1997 46.6371 26.3248 46.483 26.3248L42.7367 26.3248C42.5837 26.3248 42.4575 26.1997 42.4575 26.0455V22.2967C42.4575 22.1428 42.5833 22.0174 42.7367 22.0174L46.483 22.0174C46.6371 22.0174 46.7621 22.1428 46.7621 22.2967ZM54.9297 22.6755V26.4243C54.9297 26.5781 54.8043 26.7036 54.6514 26.7036L50.9042 26.7036C50.7513 26.7036 50.6247 26.5781 50.6247 26.4243V22.6755C50.6247 22.5224 50.7509 22.3962 50.9042 22.3962L54.6514 22.3962C54.8047 22.3962 54.9297 22.5224 54.9297 22.6755ZM49.495 26.7871V28.9612C49.495 29.0503 49.4228 29.1226 49.3337 29.1226L47.161 29.1226C47.072 29.1226 46.9989 29.0503 46.9989 28.9612V26.7871C46.9989 26.698 47.072 26.6249 47.161 26.6249L49.3337 26.6249C49.4228 26.6245 49.495 26.698 49.495 26.7871ZM52.991 27.9031V29.3859C52.991 29.4463 52.9407 29.4962 52.8804 29.4962L51.3986 29.4962C51.3375 29.4962 51.2883 29.4463 51.2883 29.3859V27.9031C51.2883 27.842 51.3375 27.7916 51.3986 27.7916L52.8804 27.7916C52.9407 27.792 52.991 27.842 52.991 27.9031ZM55.7662 17.7V19.4029C55.7662 19.4725 55.7087 19.53 55.6389 19.53L53.9374 19.53C53.8675 19.53 53.81 19.4729 53.81 19.4029V17.7C53.81 17.6304 53.8675 17.5729 53.9374 17.5729L55.6389 17.5729C55.7087 17.5729 55.7662 17.6304 55.7662 17.7ZM58.3829 25.3682V27.0712C58.3829 27.1407 58.3262 27.1971 58.2568 27.1971L56.5541 27.1971C56.4846 27.1971 56.4283 27.1403 56.4283 27.0712V25.3682C56.4283 25.2979 56.485 25.2411 56.5541 25.2411L58.2568 25.2411C58.3266 25.2411 58.3829 25.2979 58.3829 25.3682ZM29.7147 5.20923C23.346 2.17046 18.462 6.82192 20.7616 15.7117C21.4688 2.67433 31.0835 10.8556 41.1522 26.2013C41.4624 26.6748 41.3135 26.543 41.3135 26.0455V22.2967C41.3135 21.5135 41.9544 20.8726 42.7367 20.8726L45.7271 20.8726C42.5114 16.5064 34.7676 7.62187 29.7147 5.20923Z" fill="#002101"/>
</svg>
