<svg width="60" height="40" viewBox="0 0 60 40" fill="none" xmlns="http://www.w3.org/2000/svg">
<path fill-rule="evenodd" clip-rule="evenodd" d="M23.0913 39.1204C27.1291 41.0614 31.0743 39.5918 34.9808 36.6474C29.1147 38.996 22.0393 33.0152 13.277 21.7427L12.7112 21.9592V22.6038C12.7112 23.4011 12.0638 24.0531 11.2704 24.0531H7.47872H7.46497C10.4137 27.0182 20.3988 37.8257 23.0913 39.1204ZM7.19662 22.6038V18.7874C7.19662 18.6312 7.32393 18.5039 7.47912 18.5039H11.2708C11.4268 18.5039 11.5534 18.6316 11.5534 18.7874V22.6038C11.5534 22.76 11.4268 22.8886 11.2708 22.8886H7.47912C7.32393 22.8886 7.19662 22.76 7.19662 22.6038ZM11.7618 17.3032V13.4871C11.7618 13.3313 11.8883 13.2028 12.0431 13.2028H15.8357C15.9904 13.2028 16.1181 13.3313 16.1181 13.4871V17.3032C16.1181 17.4602 15.9904 17.5879 15.8357 17.5879H12.0431C11.8883 17.5879 11.7618 17.4602 11.7618 17.3032ZM3.49384 16.918V13.1019C3.49384 12.9449 3.62155 12.8176 3.77634 12.8176H7.56884C7.72363 12.8176 7.85134 12.9449 7.85134 13.1019V16.918C7.85134 17.0746 7.72403 17.2023 7.56884 17.2023H3.77634C3.62195 17.2023 3.49384 17.0746 3.49384 16.918ZM8.99588 12.7334V10.5203C8.99588 10.4297 9.06905 10.3552 9.15919 10.3552H11.3581C11.4482 10.3552 11.5214 10.4301 11.5214 10.5203V12.7334C11.5214 12.8245 11.4482 12.8982 11.3581 12.8982H9.15919C9.06905 12.8982 8.99588 12.8245 8.99588 12.7334ZM5.45718 11.597V10.088C5.45718 10.0257 5.5077 9.97449 5.56913 9.97449H7.06851C7.13034 9.97449 7.18046 10.0257 7.18046 10.088V11.597C7.18046 11.6588 7.13034 11.7097 7.06851 11.7097H5.56913C5.5081 11.7097 5.45718 11.6588 5.45718 11.597ZM2.64836 21.9827V20.2496C2.64836 20.1784 2.70656 20.1211 2.77688 20.1211H4.49935C4.57008 20.1211 4.62787 20.1788 4.62787 20.2496V21.9827C4.62787 22.0547 4.57008 22.1125 4.49935 22.1125H2.77688C2.70656 22.1121 2.64836 22.0547 2.64836 21.9827ZM0 14.1777V12.4434C0 12.3727 0.0573887 12.3153 0.127306 12.3153H1.84978C1.9209 12.3153 1.97829 12.3731 1.97829 12.4434V14.1777C1.97829 14.2486 1.9209 14.3059 1.84978 14.3059H0.127306C0.0573887 14.3063 0 14.2486 0 14.1777ZM29.0157 34.6971C35.4614 37.7908 40.4045 33.0555 38.077 24.0079C37.3605 37.2779 27.6302 28.9507 17.4384 13.3285C17.1245 12.8469 17.2764 12.9812 17.2764 13.4871V17.3032C17.2764 18.1004 16.6278 18.7532 15.8357 18.7532H12.809C16.064 23.1972 23.9016 32.2424 29.0157 34.6971Z" fill="white"/>
<path fill-rule="evenodd" clip-rule="evenodd" d="M35.9977 0.880103C31.9603 -1.06168 28.0146 0.407876 24.1085 3.35229C29.9743 1.00416 37.0501 6.98613 45.8119 18.257L46.3782 18.0406V17.3963C46.3782 16.5982 47.0256 15.9467 47.8178 15.9467H51.6102H51.624C48.6757 12.9819 38.6905 2.17436 35.9977 0.880103ZM51.8928 17.3967V21.2127C51.8928 21.3686 51.7651 21.4971 51.6102 21.4971H47.8178C47.663 21.4971 47.5365 21.3689 47.5365 21.2127V17.3967C47.5365 17.2401 47.663 17.1124 47.8178 17.1124H51.6102C51.7651 17.1124 51.8928 17.2401 51.8928 17.3967ZM47.3279 22.6966V26.5126C47.3279 26.6697 47.2014 26.7969 47.0454 26.7969H43.2537C43.099 26.7969 42.9712 26.6697 42.9712 26.5126V22.6966C42.9712 22.54 43.0985 22.4122 43.2537 22.4122H47.0454C47.2014 22.4122 47.3279 22.54 47.3279 22.6966ZM55.5943 23.0822V26.8982C55.5943 27.0548 55.4674 27.1825 55.3126 27.1825H51.5201C51.3654 27.1825 51.2372 27.0548 51.2372 26.8982V23.0822C51.2372 22.9263 51.365 22.7978 51.5201 22.7978H55.3126C55.4678 22.7978 55.5943 22.9263 55.5943 23.0822ZM50.0939 27.2675V29.4806C50.0939 29.5713 50.0208 29.6449 49.9306 29.6449H47.7317C47.6415 29.6449 47.5676 29.5713 47.5676 29.4806V27.2675C47.5676 27.1768 47.6415 27.1024 47.7317 27.1024H49.9306C50.0208 27.102 50.0939 27.1768 50.0939 27.2675ZM53.6322 28.4036V29.913C53.6322 29.9744 53.5813 30.0252 53.5202 30.0252H52.0204C51.9586 30.0252 51.9089 29.9744 51.9089 29.913V28.4036C51.9089 28.3413 51.9586 28.2901 52.0204 28.2901H53.5202C53.5813 28.2905 53.6322 28.3413 53.6322 28.4036ZM56.441 18.0174V19.7509C56.441 19.8217 56.3828 19.8802 56.3121 19.8802H54.59C54.5192 19.8802 54.4611 19.8221 54.4611 19.7509V18.0174C54.4611 17.9466 54.5192 17.8881 54.59 17.8881H56.3121C56.3828 17.8881 56.441 17.9466 56.441 18.0174ZM59.0894 25.8232V27.5567C59.0894 27.6275 59.032 27.6848 58.9616 27.6848H57.2384C57.168 27.6848 57.1111 27.6271 57.1111 27.5567V25.8232C57.1111 25.7516 57.1684 25.6938 57.2384 25.6938H58.9616C59.0324 25.6938 59.0894 25.7516 59.0894 25.8232ZM30.0741 5.30262C23.6284 2.20934 18.6853 6.94423 21.0128 15.9934C21.7285 2.72225 31.4595 11.0503 41.65 26.6712C41.9641 27.1532 41.8133 27.019 41.8133 26.5126V22.6966C41.8133 21.8993 42.462 21.2469 43.2537 21.2469H46.2803C43.0258 16.8024 35.1882 7.75853 30.0741 5.30262Z" fill="url(#paint0_linear_27337_435)"/>
<defs>
<linearGradient id="paint0_linear_27337_435" x1="20.4277" y1="0" x2="63.4612" y2="8.90979" gradientUnits="userSpaceOnUse">
<stop stop-color="#EE9737"/>
<stop offset="0.251262" stop-color="#DC5729"/>
<stop offset="0.501917" stop-color="#DC5729"/>
<stop offset="0.749767" stop-color="#DC5729"/>
<stop offset="1" stop-color="#EE9737"/>
</linearGradient>
</defs>
</svg>
