<svg width="66" height="45" viewBox="0 0 66 45" fill="none" xmlns="http://www.w3.org/2000/svg">
<path fill-rule="evenodd" clip-rule="evenodd" d="M26.0488 43.5105C30.6037 45.6941 35.0543 44.0408 39.4611 40.7283C32.8437 43.3705 24.862 36.6422 14.9775 23.9606L14.3392 24.2041V24.9293C14.3392 25.8262 13.6089 26.5597 12.7139 26.5597H8.43658H8.42108C11.7474 29.8955 23.0115 42.054 26.0488 43.5105ZM8.11836 24.9293V20.6358C8.11836 20.4601 8.26196 20.3169 8.43703 20.3169H12.7144C12.8904 20.3169 13.0331 20.4605 13.0331 20.6358V24.9293C13.0331 25.105 12.8904 25.2497 12.7144 25.2497H8.43703C8.26196 25.2497 8.11836 25.105 8.11836 24.9293ZM13.2683 18.9661V14.673C13.2683 14.4978 13.411 14.3532 13.5856 14.3532H17.8639C18.0385 14.3532 18.1825 14.4978 18.1825 14.673V18.9661C18.1825 19.1427 18.0385 19.2864 17.8639 19.2864H13.5856C13.411 19.2864 13.2683 19.1427 13.2683 18.9661ZM3.94132 18.5328V14.2397C3.94132 14.063 4.0854 13.9198 4.26001 13.9198H8.53825C8.71286 13.9198 8.85693 14.063 8.85693 14.2397V18.5328C8.85693 18.7089 8.71332 18.8526 8.53825 18.8526H4.26001C4.08585 18.8526 3.94132 18.7089 3.94132 18.5328ZM10.1481 13.8251V11.3354C10.1481 11.2334 10.2306 11.1496 10.3323 11.1496H12.8129C12.9145 11.1496 12.997 11.2338 12.997 11.3354V13.8251C12.997 13.9276 12.9145 14.0104 12.8129 14.0104H10.3323C10.2306 14.0104 10.1481 13.9276 10.1481 13.8251ZM6.15613 12.5466V10.849C6.15613 10.779 6.21312 10.7213 6.28241 10.7213H7.97384C8.04358 10.7213 8.10012 10.779 8.10012 10.849V12.5466C8.10012 12.6162 8.04358 12.6734 7.97384 12.6734H6.28241C6.21357 12.6734 6.15613 12.6162 6.15613 12.5466ZM2.98756 24.2306V22.2808C2.98756 22.2007 3.05322 22.1362 3.13254 22.1362H5.07562C5.15541 22.1362 5.2206 22.2012 5.2206 22.2808V24.2306C5.2206 24.3116 5.15541 24.3766 5.07562 24.3766H3.13254C3.05322 24.3761 2.98756 24.3116 2.98756 24.2306ZM0 15.45V13.4988C0 13.4193 0.0647389 13.3548 0.143611 13.3548H2.08669C2.16693 13.3548 2.23167 13.4197 2.23167 13.4988V15.45C2.23167 15.5297 2.16693 15.5942 2.08669 15.5942H0.143611C0.0647389 15.5946 0 15.5297 0 15.45ZM32.732 38.5342C40.0032 42.0147 45.5794 36.6874 42.9539 26.5089C42.1455 41.4377 31.1691 32.0695 19.6719 14.4946C19.3178 13.9528 19.4891 14.1038 19.4891 14.673V18.9661C19.4891 19.863 18.7574 20.5974 17.8639 20.5974H14.4495C18.1215 25.5969 26.9628 35.7727 32.732 38.5342Z" fill="white"/>
<path fill-rule="evenodd" clip-rule="evenodd" d="M39.5641 0.990116C35.0097 -1.19439 30.5585 0.458861 26.1522 3.77132C32.7693 1.12968 40.7513 7.8594 50.6354 20.5391L51.2742 20.2957V19.5709C51.2742 18.673 52.0045 17.94 52.8981 17.94H57.1763H57.1918C53.866 14.6047 42.6019 2.44616 39.5641 0.990116ZM57.495 19.5712V23.8643C57.495 24.0397 57.351 24.1842 57.1763 24.1842H52.8981C52.7235 24.1842 52.5808 24.04 52.5808 23.8643V19.5712C52.5808 19.3951 52.7235 19.2515 52.8981 19.2515H57.1763C57.351 19.2515 57.495 19.3951 57.495 19.5712ZM52.3455 25.5337V29.8267C52.3455 30.0034 52.2028 30.1465 52.0269 30.1465H47.7495C47.5749 30.1465 47.4308 30.0034 47.4308 29.8267V25.5337C47.4308 25.3575 47.5745 25.2138 47.7495 25.2138H52.0269C52.2028 25.2138 52.3455 25.3575 52.3455 25.5337ZM61.6707 25.9674V30.2605C61.6707 30.4367 61.5275 30.5803 61.3529 30.5803H57.0747C56.9001 30.5803 56.7555 30.4367 56.7555 30.2605V25.9674C56.7555 25.7921 56.8996 25.6476 57.0747 25.6476H61.3529C61.5279 25.6476 61.6707 25.7921 61.6707 25.9674ZM55.4658 30.6759V33.1657C55.4658 33.2677 55.3833 33.3505 55.2816 33.3505H52.801C52.6993 33.3505 52.6159 33.2677 52.6159 33.1657V30.6759C52.6159 30.5739 52.6993 30.4902 52.801 30.4902H55.2816C55.3833 30.4897 55.4658 30.5739 55.4658 30.6759ZM59.4572 31.954V33.6521C59.4572 33.7212 59.3998 33.7784 59.3309 33.7784H57.6391C57.5693 33.7784 57.5132 33.7212 57.5132 33.6521V31.954C57.5132 31.884 57.5693 31.8263 57.6391 31.8263H59.3309C59.3998 31.8268 59.4572 31.884 59.4572 31.954ZM62.6258 20.2696V22.2198C62.6258 22.2994 62.5601 22.3653 62.4804 22.3653H60.5377C60.4579 22.3653 60.3923 22.2998 60.3923 22.2198V20.2696C60.3923 20.1899 60.4579 20.1241 60.5377 20.1241H62.4804C62.5601 20.1241 62.6258 20.1899 62.6258 20.2696ZM65.6134 29.0511V31.0013C65.6134 31.0809 65.5486 31.1454 65.4693 31.1454H63.5253C63.4459 31.1454 63.3817 31.0805 63.3817 31.0013V29.0511C63.3817 28.9705 63.4464 28.9056 63.5253 28.9056H65.4693C65.5491 28.9056 65.6134 28.9705 65.6134 29.0511ZM32.8819 5.96545C25.6106 2.4855 20.0344 7.81226 22.66 17.9926C23.4674 3.06253 34.4447 12.4316 45.9404 30.0052C46.2947 30.5474 46.1247 30.3964 46.1247 29.8267V25.5337C46.1247 24.6367 46.8564 23.9028 47.7495 23.9028H51.1638C47.4924 18.9027 38.6509 8.72834 32.8819 5.96545Z" fill="url(#paint0_linear_30840_647)"/>
<path fill-rule="evenodd" clip-rule="evenodd" d="M39.5641 0.990116C35.0097 -1.19439 30.5585 0.458861 26.1522 3.77132C32.7693 1.12968 40.7513 7.8594 50.6354 20.5391L51.2742 20.2957V19.5709C51.2742 18.673 52.0045 17.94 52.8981 17.94H57.1763H57.1918C53.866 14.6047 42.6019 2.44616 39.5641 0.990116ZM57.495 19.5712V23.8643C57.495 24.0397 57.351 24.1842 57.1763 24.1842H52.8981C52.7235 24.1842 52.5808 24.04 52.5808 23.8643V19.5712C52.5808 19.3951 52.7235 19.2515 52.8981 19.2515H57.1763C57.351 19.2515 57.495 19.3951 57.495 19.5712ZM52.3455 25.5337V29.8267C52.3455 30.0034 52.2028 30.1465 52.0269 30.1465H47.7495C47.5749 30.1465 47.4308 30.0034 47.4308 29.8267V25.5337C47.4308 25.3575 47.5745 25.2138 47.7495 25.2138H52.0269C52.2028 25.2138 52.3455 25.3575 52.3455 25.5337ZM61.6707 25.9674V30.2605C61.6707 30.4367 61.5275 30.5803 61.3529 30.5803H57.0747C56.9001 30.5803 56.7555 30.4367 56.7555 30.2605V25.9674C56.7555 25.7921 56.8996 25.6476 57.0747 25.6476H61.3529C61.5279 25.6476 61.6707 25.7921 61.6707 25.9674ZM55.4658 30.6759V33.1657C55.4658 33.2677 55.3833 33.3505 55.2816 33.3505H52.801C52.6993 33.3505 52.6159 33.2677 52.6159 33.1657V30.6759C52.6159 30.5739 52.6993 30.4902 52.801 30.4902H55.2816C55.3833 30.4897 55.4658 30.5739 55.4658 30.6759ZM59.4572 31.954V33.6521C59.4572 33.7212 59.3998 33.7784 59.3309 33.7784H57.6391C57.5693 33.7784 57.5132 33.7212 57.5132 33.6521V31.954C57.5132 31.884 57.5693 31.8263 57.6391 31.8263H59.3309C59.3998 31.8268 59.4572 31.884 59.4572 31.954ZM62.6258 20.2696V22.2198C62.6258 22.2994 62.5601 22.3653 62.4804 22.3653H60.5377C60.4579 22.3653 60.3923 22.2998 60.3923 22.2198V20.2696C60.3923 20.1899 60.4579 20.1241 60.5377 20.1241H62.4804C62.5601 20.1241 62.6258 20.1899 62.6258 20.2696ZM65.6134 29.0511V31.0013C65.6134 31.0809 65.5486 31.1454 65.4693 31.1454H63.5253C63.4459 31.1454 63.3817 31.0805 63.3817 31.0013V29.0511C63.3817 28.9705 63.4464 28.9056 63.5253 28.9056H65.4693C65.5491 28.9056 65.6134 28.9705 65.6134 29.0511ZM32.8819 5.96545C25.6106 2.4855 20.0344 7.81226 22.66 17.9926C23.4674 3.06253 34.4447 12.4316 45.9404 30.0052C46.2947 30.5474 46.1247 30.3964 46.1247 29.8267V25.5337C46.1247 24.6367 46.8564 23.9028 47.7495 23.9028H51.1638C47.4924 18.9027 38.6509 8.72834 32.8819 5.96545Z" fill="#3B49E0"/>
<defs>
<linearGradient id="paint0_linear_30840_647" x1="22" y1="16.8892" x2="65.6134" y2="16.8892" gradientUnits="userSpaceOnUse">
<stop stop-color="#663CF6"/>
<stop offset="0.2298" stop-color="#7C48EB"/>
<stop offset="0.52949" stop-color="#DF7CB5"/>
<stop offset="0.792976" stop-color="#FF9774"/>
<stop offset="1" stop-color="#FEE89C"/>
</linearGradient>
</defs>
</svg>
