<svg width="184" height="36" viewBox="0 0 184 36" fill="none" xmlns="http://www.w3.org/2000/svg">
<path fill-rule="evenodd" clip-rule="evenodd" d="M20.9015 35.2084C24.5564 36.9553 28.1275 35.6327 31.6635 32.9827C26.3537 35.0964 19.9493 29.7137 12.0179 19.5685L11.5058 19.7633V20.3435C11.5058 21.061 10.9197 21.6478 10.2016 21.6478L6.7695 21.6478L6.75706 21.6478C9.42608 24.3164 18.4644 34.0432 20.9015 35.2084ZM6.51416 20.3435V16.9086C6.51416 16.7681 6.62939 16.6535 6.76987 16.6535L10.202 16.6535C10.3432 16.6535 10.4577 16.7684 10.4577 16.9086V20.3435C10.4577 20.484 10.3432 20.5997 10.202 20.5997L6.76987 20.5997C6.62939 20.5997 6.51416 20.484 6.51416 20.3435ZM10.6465 15.5729V12.1384C10.6465 11.9982 10.761 11.8825 10.9011 11.8825L14.3339 11.8825C14.474 11.8825 14.5896 11.9982 14.5896 12.1384V15.5729C14.5896 15.7142 14.474 15.8291 14.3339 15.8291L10.9011 15.8291C10.761 15.8291 10.6465 15.7142 10.6465 15.5729ZM3.16251 15.2262V11.7917C3.16251 11.6504 3.27811 11.5359 3.41822 11.5359L6.85108 11.5359C6.99119 11.5359 7.10679 11.6504 7.10679 11.7917L7.10679 15.2262C7.10679 15.3671 6.99155 15.4821 6.85108 15.4821L3.41822 15.4821C3.27848 15.4821 3.16251 15.3671 3.16251 15.2262ZM8.14279 11.4601V9.46831C8.14279 9.38668 8.209 9.31969 8.29058 9.31969L10.281 9.31969C10.3626 9.31969 10.4288 9.38705 10.4288 9.46831V11.4601C10.4288 11.5421 10.3626 11.6083 10.281 11.6083L8.29058 11.6083C8.209 11.6083 8.14279 11.5421 8.14279 11.4601ZM4.93967 10.4373V9.07919C4.93967 9.02318 4.98539 8.97705 5.041 8.97705L6.39819 8.97705C6.45416 8.97705 6.49952 9.02318 6.49952 9.07919V10.4373C6.49952 10.4929 6.45416 10.5387 6.39819 10.5387L5.041 10.5387C4.98576 10.5387 4.93967 10.4929 4.93967 10.4373ZM2.39722 19.7845V18.2247C2.39722 18.1606 2.4499 18.109 2.51355 18.109L4.07267 18.109C4.13669 18.109 4.189 18.161 4.189 18.2247V19.7845C4.189 19.8493 4.13669 19.9013 4.07267 19.9013L2.51355 19.9013C2.4499 19.9009 2.39722 19.8493 2.39722 19.7845ZM0 12.76L0 11.1991C0 11.1354 0.0519464 11.0838 0.115233 11.0838L1.67436 11.0838C1.73874 11.0838 1.79069 11.1358 1.79069 11.1991L1.79069 12.76C1.79069 12.8237 1.73874 12.8753 1.67436 12.8753L0.115233 12.8753C0.0519464 12.8757 0 12.8237 0 12.76ZM26.264 31.2274C32.0985 34.0117 36.5729 29.75 34.4661 21.6071C33.8175 33.5501 25.01 26.0556 15.7848 11.9956C15.5005 11.5622 15.6381 11.683 15.6381 12.1384V15.5729C15.6381 16.2904 15.0509 16.8779 14.3339 16.8779L11.5943 16.8779C14.5406 20.8776 21.635 29.0182 26.264 31.2274Z" fill="#863AEB"/>
<path fill-rule="evenodd" clip-rule="evenodd" d="M32.5836 0.792096C28.9291 -0.955513 25.3576 0.36709 21.8219 3.01706C27.1314 0.903747 33.5362 6.28751 41.4672 16.4313L41.9797 16.2365V15.6567C41.9797 14.9384 42.5657 14.352 43.2827 14.352L46.7156 14.352L46.728 14.352C44.0594 11.6837 35.0211 1.95693 32.5836 0.792096ZM46.9713 15.657V19.0915C46.9713 19.2317 46.8557 19.3474 46.7156 19.3474L43.2827 19.3474C43.1426 19.3474 43.0281 19.232 43.0281 19.0915V15.657C43.0281 15.5161 43.1426 15.4011 43.2827 15.4011L46.7156 15.4011C46.8557 15.4011 46.9713 15.5161 46.9713 15.657ZM42.8394 20.4269V23.8613C42.8394 24.0026 42.7249 24.1172 42.5837 24.1172L39.1515 24.1172C39.0114 24.1172 38.8958 24.0026 38.8958 23.8613V20.4269C38.8958 20.286 39.0111 20.171 39.1515 20.171L42.5837 20.171C42.7249 20.171 42.8394 20.286 42.8394 20.4269ZM50.3219 20.7739V24.2084C50.3219 24.3493 50.207 24.4643 50.0669 24.4643L46.634 24.4643C46.4939 24.4643 46.3779 24.3493 46.3779 24.2084V20.7739C46.3779 20.6337 46.4935 20.518 46.634 20.518L50.0669 20.518C50.2074 20.518 50.3219 20.6337 50.3219 20.7739ZM45.343 24.5408V26.5325C45.343 26.6142 45.2768 26.6804 45.1953 26.6804L43.2048 26.6804C43.1233 26.6804 43.0563 26.6142 43.0563 26.5325V24.5408C43.0563 24.4591 43.1233 24.3921 43.2048 24.3921L45.1953 24.3921C45.2768 24.3918 45.343 24.4591 45.343 24.5408ZM48.5458 25.5632V26.9217C48.5458 26.977 48.4997 27.0227 48.4445 27.0227L47.0869 27.0227C47.0309 27.0227 46.9859 26.977 46.9859 26.9217V25.5632C46.9859 25.5072 47.0309 25.4611 47.0869 25.4611L48.4445 25.4611C48.4997 25.4614 48.5458 25.5072 48.5458 25.5632ZM51.0882 16.2156V17.7758C51.0882 17.8395 51.0356 17.8922 50.9715 17.8922L49.4128 17.8922C49.3488 17.8922 49.2961 17.8399 49.2961 17.7758V16.2156C49.2961 16.1519 49.3488 16.0992 49.4128 16.0992L50.9715 16.0992C51.0356 16.0992 51.0882 16.1519 51.0882 16.2156ZM53.4855 23.2409V24.801C53.4855 24.8647 53.4335 24.9164 53.3699 24.9164L51.81 24.9164C51.7464 24.9164 51.6948 24.8644 51.6948 24.801V23.2409C51.6948 23.1764 51.7467 23.1245 51.81 23.1245L53.3699 23.1245C53.4339 23.1245 53.4855 23.1764 53.4855 23.2409ZM27.2218 4.77236C21.3873 1.98841 16.913 6.24981 19.0197 14.3941C19.6676 2.45002 28.4758 9.94527 37.7 24.0041C37.9842 24.4379 37.8478 24.3171 37.8478 23.8613V20.4269C37.8478 19.7094 38.4349 19.1222 39.1515 19.1222L41.8912 19.1222C38.9452 15.1222 31.8509 6.98267 27.2218 4.77236Z" fill="#FA9145"/>
<path d="M175.777 30.7922C174.519 30.7922 173.431 30.6045 172.511 30.2292C171.591 29.8726 170.86 29.3565 170.315 28.6809C169.79 28.024 169.49 27.2546 169.415 26.3725H172.793C172.868 26.7479 173.037 27.0763 173.299 27.3578C173.581 27.6393 173.937 27.8551 174.369 28.0053C174.801 28.1742 175.298 28.2586 175.861 28.2586C176.705 28.2586 177.4 28.1366 177.944 27.8927C178.507 27.6487 178.92 27.2733 179.183 26.7666C179.464 26.2599 179.605 25.6031 179.605 24.7961V22.0373H179.408C179.089 22.9006 178.507 23.6044 177.663 24.1486C176.818 24.6741 175.823 24.9368 174.679 24.9368C173.778 24.9368 172.961 24.7773 172.23 24.4583C171.516 24.1392 170.897 23.6795 170.372 23.0789C169.846 22.4596 169.443 21.7089 169.161 20.8269C168.88 19.926 168.739 18.8939 168.739 17.7303C168.739 16.1726 168.983 14.8683 169.471 13.8174C169.978 12.7476 170.681 11.9407 171.582 11.3964C172.483 10.8334 173.534 10.5519 174.735 10.5519C175.861 10.5519 176.837 10.8146 177.663 11.3401C178.507 11.8656 179.089 12.5506 179.408 13.3951H179.605L179.718 10.8334H183.124V24.2331C183.124 25.4342 182.945 26.4476 182.589 27.2733C182.251 28.1179 181.754 28.7935 181.097 29.3002C180.44 29.8257 179.661 30.201 178.76 30.4262C177.878 30.6702 176.884 30.7922 175.777 30.7922ZM175.945 22.2062C176.734 22.2062 177.39 22.0373 177.916 21.6995C178.46 21.343 178.873 20.8925 179.155 20.3483C179.436 19.7853 179.586 19.2129 179.605 18.6311V16.8295C179.586 16.2289 179.436 15.6659 179.155 15.1404C178.873 14.5962 178.47 14.1552 177.944 13.8174C177.419 13.4608 176.762 13.2825 175.974 13.2825C175.242 13.2825 174.594 13.4514 174.031 13.7892C173.487 14.127 173.065 14.6243 172.764 15.2812C172.464 15.938 172.314 16.7544 172.314 17.7303C172.314 18.7249 172.464 19.5601 172.764 20.2357C173.083 20.8925 173.515 21.3899 174.059 21.7277C174.604 22.0467 175.232 22.2062 175.945 22.2062Z" fill="white"/>
<path d="M152.1 25.8095V10.8334H155.478L155.619 13.6766H155.788C156.219 12.6257 156.876 11.8468 157.758 11.3401C158.64 10.8146 159.625 10.5519 160.714 10.5519C161.465 10.5519 162.159 10.6739 162.797 10.9179C163.454 11.1431 164.017 11.509 164.486 12.0157C164.974 12.5037 165.349 13.1511 165.612 13.9581C165.894 14.7463 166.034 15.7035 166.034 16.8295V25.8095H162.516V17.5895C162.516 16.6512 162.403 15.8817 162.178 15.2812C161.953 14.6619 161.605 14.2021 161.136 13.9018C160.686 13.6015 160.095 13.4514 159.363 13.4514C158.574 13.4514 157.899 13.6391 157.336 14.0144C156.792 14.3898 156.369 14.8871 156.069 15.5064C155.769 16.1257 155.619 16.8107 155.619 17.5614V25.8095H152.1Z" fill="white"/>
<path d="M144.787 25.8095V10.8334H148.306V25.8095H144.787ZM144.787 8.72209V5.28772H148.306V8.72209H144.787Z" fill="white"/>
<path d="M128.018 25.8095V5.28772H131.594V17.5051L132.86 16.0694L137.871 10.8334H142.234L136.435 16.7169L142.375 25.8095H138.237L134.859 20.6016L133.958 19.0534L131.594 21.3898V25.8095H128.018Z" fill="white"/>
<path d="M118.745 26.091C117.413 26.091 116.268 25.8846 115.311 25.4717C114.354 25.0401 113.613 24.4489 113.087 23.6982C112.581 22.9475 112.327 22.0749 112.327 21.0802H115.79C115.808 21.9435 116.099 22.5722 116.662 22.9663C117.225 23.3604 117.957 23.5575 118.858 23.5575C119.74 23.5575 120.406 23.3979 120.857 23.0789C121.326 22.7411 121.561 22.2813 121.561 21.6995C121.561 21.2304 121.457 20.8738 121.251 20.6298C121.044 20.3671 120.707 20.17 120.237 20.0386C119.768 19.8885 119.149 19.7571 118.379 19.6445C117.122 19.4569 116.071 19.2035 115.227 18.8845C114.382 18.5467 113.753 18.0869 113.341 17.5051C112.928 16.9233 112.721 16.1539 112.721 15.1967C112.721 14.2584 112.975 13.442 113.481 12.7476C113.988 12.0533 114.701 11.5184 115.621 11.1431C116.54 10.749 117.619 10.5519 118.858 10.5519C120.059 10.5519 121.101 10.749 121.983 11.1431C122.884 11.5184 123.578 12.0626 124.066 12.7758C124.573 13.4702 124.835 14.3053 124.854 15.2812H121.392C121.392 14.7557 121.279 14.3335 121.054 14.0144C120.847 13.6766 120.547 13.4326 120.153 13.2825C119.759 13.1324 119.299 13.0573 118.774 13.0573C117.985 13.0573 117.366 13.2262 116.916 13.564C116.465 13.8831 116.24 14.3241 116.24 14.8871C116.24 15.3 116.353 15.6378 116.578 15.9005C116.822 16.1445 117.207 16.3415 117.732 16.4917C118.258 16.6418 118.933 16.7732 119.759 16.8858C120.66 17.0171 121.439 17.1861 122.095 17.3925C122.771 17.5989 123.334 17.8804 123.784 18.237C124.235 18.5748 124.573 19.0065 124.798 19.5319C125.042 20.0386 125.164 20.658 125.164 21.3899C125.164 22.8912 124.573 24.0548 123.39 24.8805C122.227 25.6875 120.678 26.091 118.745 26.091Z" fill="white"/>
<path d="M100.84 26.0629C99.9397 26.0629 99.1139 25.9033 98.3632 25.5843C97.6313 25.2465 96.9933 24.7492 96.449 24.0923C95.9235 23.4355 95.52 22.6285 95.2385 21.6714C94.957 20.6955 94.8163 19.5788 94.8163 18.3215C94.8163 16.6137 95.0603 15.1874 95.5482 14.0426C96.0549 12.879 96.7587 12.0063 97.6595 11.4246C98.5791 10.8428 99.6394 10.5519 100.84 10.5519C101.666 10.5519 102.398 10.6833 103.036 10.946C103.693 11.19 104.256 11.5372 104.725 11.9876C105.194 12.438 105.551 12.9728 105.795 13.5922H105.992L106.133 10.8334H109.511V25.8095H105.992V23.0226H105.795C105.438 23.9422 104.828 24.6835 103.965 25.2465C103.102 25.7907 102.06 26.0629 100.84 26.0629ZM102.164 23.1915C103.008 23.1915 103.702 22.9945 104.247 22.6003C104.81 22.2062 105.232 21.6995 105.513 21.0802C105.795 20.4421 105.936 19.7759 105.936 19.0815V17.5332C105.936 16.8201 105.795 16.1539 105.513 15.5346C105.232 14.8965 104.81 14.3898 104.247 14.0144C103.702 13.6203 103.008 13.4233 102.164 13.4233C101.413 13.4233 100.756 13.6015 100.193 13.9581C99.63 14.3147 99.189 14.8589 98.8699 15.5909C98.5509 16.304 98.3914 17.2142 98.3914 18.3215C98.3914 19.3912 98.5509 20.292 98.8699 21.0239C99.189 21.7558 99.63 22.3001 100.193 22.6566C100.756 23.0132 101.413 23.1915 102.164 23.1915Z" fill="white"/>
<path d="M83.4657 26.0629C82.5649 26.0629 81.7392 25.9033 80.9885 25.5843C80.2566 25.2465 79.6185 24.7492 79.0743 24.0923C78.5488 23.4355 78.1453 22.6285 77.8638 21.6714C77.5823 20.6955 77.4415 19.5788 77.4415 18.3215C77.4415 16.6137 77.6855 15.1874 78.1734 14.0426C78.6801 12.879 79.3839 12.0063 80.2847 11.4246C81.2043 10.8428 82.2646 10.5519 83.4657 10.5519C84.2915 10.5519 85.0234 10.6833 85.6615 10.946C86.3183 11.19 86.8813 11.5372 87.3505 11.9876C87.8197 12.438 88.1762 12.9728 88.4202 13.5922H88.6173L88.758 10.8334H92.1361V25.8095H88.6173V23.0226H88.4202C88.0636 23.9422 87.4537 24.6835 86.5904 25.2465C85.7271 25.7907 84.6856 26.0629 83.4657 26.0629ZM84.7888 23.1915C85.6333 23.1915 86.3277 22.9945 86.8719 22.6003C87.4349 22.2062 87.8572 21.6995 88.1387 21.0802C88.4202 20.4421 88.561 19.7759 88.561 19.0815V17.5332C88.561 16.8201 88.4202 16.1539 88.1387 15.5346C87.8572 14.8965 87.4349 14.3898 86.8719 14.0144C86.3277 13.6203 85.6333 13.4233 84.7888 13.4233C84.0381 13.4233 83.3813 13.6015 82.8183 13.9581C82.2553 14.3147 81.8142 14.8589 81.4952 15.5909C81.1762 16.304 81.0166 17.2142 81.0166 18.3215C81.0166 19.3912 81.1762 20.292 81.4952 21.0239C81.8142 21.7558 82.2553 22.3001 82.8183 22.6566C83.3813 23.0132 84.0381 23.1915 84.7888 23.1915Z" fill="white"/>
<path d="M67.0821 26.0628C65.2617 26.0628 63.7322 25.7813 62.4936 25.2183C61.2737 24.6553 60.3541 23.8671 59.7348 22.8537C59.1155 21.8403 58.7965 20.6861 58.7777 19.3912H62.578C62.5968 20.1606 62.7657 20.8268 63.0847 21.3899C63.4225 21.9529 63.9292 22.3939 64.6049 22.7129C65.2805 23.032 66.1531 23.1915 67.2228 23.1915C68.499 23.1915 69.5218 22.9569 70.2912 22.4877C71.0607 21.9998 71.4454 21.2866 71.4454 20.3483C71.4454 19.804 71.361 19.3536 71.1921 18.9971C71.0232 18.6217 70.7417 18.3121 70.3475 18.0681C69.9534 17.8241 69.428 17.6177 68.7711 17.4488C68.133 17.2799 67.3261 17.111 66.3502 16.9421C65.1866 16.7544 64.1544 16.5104 63.2536 16.2101C62.3716 15.8911 61.6303 15.5064 61.0297 15.056C60.4292 14.6056 59.9788 14.0613 59.6785 13.4232C59.3783 12.7664 59.2281 11.9876 59.2281 11.0867C59.2281 9.84811 59.5378 8.77839 60.1571 7.87757C60.7952 6.97676 61.696 6.28237 62.8595 5.79443C64.0231 5.28772 65.4118 5.03437 67.0258 5.03437C68.621 5.03437 69.9816 5.28772 71.1076 5.79443C72.2524 6.30114 73.1344 7.01429 73.7538 7.93388C74.3731 8.83469 74.6827 9.88565 74.6827 11.0867H70.9387C70.9012 10.3548 70.7041 9.75428 70.3475 9.2851C69.991 8.79716 69.5124 8.44059 68.9119 8.21538C68.3301 7.99018 67.6545 7.87757 66.885 7.87757C66.0968 7.87757 65.4118 7.99018 64.8301 8.21538C64.267 8.44059 63.8354 8.75963 63.5351 9.1725C63.2349 9.56661 63.0847 10.0452 63.0847 10.6082C63.0847 11.3026 63.2536 11.8374 63.5914 12.2128C63.948 12.5693 64.511 12.8508 65.2805 13.0573C66.0687 13.2637 67.0821 13.4702 68.3207 13.6766C69.2028 13.8267 70.0567 14.0144 70.8824 14.2396C71.7269 14.4648 72.4776 14.8026 73.1344 15.253C73.8101 15.6847 74.3449 16.2852 74.739 17.0547C75.1331 17.8053 75.3302 18.7812 75.3302 19.9823C75.3302 21.1834 75.0205 22.2438 74.4012 23.1633C73.7819 24.0829 72.8623 24.7961 71.6425 25.3028C70.4226 25.8095 68.9025 26.0628 67.0821 26.0628Z" fill="white"/>
</svg>
