<svg width="209" height="40" viewBox="0 0 209 40" fill="none" xmlns="http://www.w3.org/2000/svg">
<path fill-rule="evenodd" clip-rule="evenodd" d="M23.0913 39.1204C27.1291 41.0614 31.0743 39.5918 34.9808 36.6474C29.1147 38.996 22.0393 33.0152 13.277 21.7427L12.7112 21.9592V22.6038C12.7112 23.4011 12.0638 24.0531 11.2704 24.0531H7.47872H7.46497C10.4137 27.0182 20.3988 37.8257 23.0913 39.1204ZM7.19662 22.6038V18.7874C7.19662 18.6312 7.32393 18.5039 7.47912 18.5039H11.2708C11.4268 18.5039 11.5534 18.6316 11.5534 18.7874V22.6038C11.5534 22.76 11.4268 22.8886 11.2708 22.8886H7.47912C7.32393 22.8886 7.19662 22.76 7.19662 22.6038ZM11.7618 17.3032V13.4871C11.7618 13.3313 11.8883 13.2028 12.0431 13.2028H15.8357C15.9904 13.2028 16.1181 13.3313 16.1181 13.4871V17.3032C16.1181 17.4602 15.9904 17.5879 15.8357 17.5879H12.0431C11.8883 17.5879 11.7618 17.4602 11.7618 17.3032ZM3.49384 16.918V13.1019C3.49384 12.9449 3.62155 12.8176 3.77634 12.8176H7.56884C7.72363 12.8176 7.85134 12.9449 7.85134 13.1019V16.918C7.85134 17.0746 7.72403 17.2023 7.56884 17.2023H3.77634C3.62195 17.2023 3.49384 17.0746 3.49384 16.918ZM8.99588 12.7334V10.5203C8.99588 10.4297 9.06905 10.3552 9.15919 10.3552H11.3581C11.4482 10.3552 11.5214 10.4301 11.5214 10.5203V12.7334C11.5214 12.8245 11.4482 12.8982 11.3581 12.8982H9.15919C9.06905 12.8982 8.99588 12.8245 8.99588 12.7334ZM5.45718 11.597V10.088C5.45718 10.0257 5.5077 9.97449 5.56913 9.97449H7.06851C7.13034 9.97449 7.18046 10.0257 7.18046 10.088V11.597C7.18046 11.6588 7.13034 11.7097 7.06851 11.7097H5.56913C5.5081 11.7097 5.45718 11.6588 5.45718 11.597ZM2.64836 21.9827V20.2496C2.64836 20.1784 2.70656 20.1211 2.77688 20.1211H4.49935C4.57008 20.1211 4.62787 20.1788 4.62787 20.2496V21.9827C4.62787 22.0547 4.57008 22.1125 4.49935 22.1125H2.77688C2.70656 22.1121 2.64836 22.0547 2.64836 21.9827ZM0 14.1777V12.4434C0 12.3727 0.0573887 12.3153 0.127306 12.3153H1.84978C1.9209 12.3153 1.97829 12.3731 1.97829 12.4434V14.1777C1.97829 14.2486 1.9209 14.3059 1.84978 14.3059H0.127306C0.0573887 14.3063 0 14.2486 0 14.1777ZM29.0157 34.6971C35.4614 37.7908 40.4045 33.0555 38.077 24.0079C37.3605 37.2779 27.6302 28.9507 17.4384 13.3285C17.1245 12.8469 17.2764 12.9812 17.2764 13.4871V17.3032C17.2764 18.1004 16.6278 18.7532 15.8357 18.7532H12.809C16.064 23.1972 23.9016 32.2424 29.0157 34.6971Z" fill="black"/>
<path fill-rule="evenodd" clip-rule="evenodd" d="M35.9977 0.880103C31.9603 -1.06168 28.0146 0.407876 24.1085 3.35229C29.9743 1.00416 37.0501 6.98613 45.8119 18.257L46.3782 18.0406V17.3963C46.3782 16.5982 47.0256 15.9467 47.8178 15.9467H51.6102H51.624C48.6757 12.9819 38.6905 2.17436 35.9977 0.880103ZM51.8928 17.3967V21.2127C51.8928 21.3686 51.7651 21.4971 51.6102 21.4971H47.8178C47.663 21.4971 47.5365 21.3689 47.5365 21.2127V17.3967C47.5365 17.2401 47.663 17.1124 47.8178 17.1124H51.6102C51.7651 17.1124 51.8928 17.2401 51.8928 17.3967ZM47.3279 22.6966V26.5126C47.3279 26.6697 47.2014 26.7969 47.0454 26.7969H43.2537C43.099 26.7969 42.9712 26.6697 42.9712 26.5126V22.6966C42.9712 22.54 43.0985 22.4122 43.2537 22.4122H47.0454C47.2014 22.4122 47.3279 22.54 47.3279 22.6966ZM55.5943 23.0822V26.8982C55.5943 27.0548 55.4674 27.1825 55.3126 27.1825H51.5201C51.3654 27.1825 51.2372 27.0548 51.2372 26.8982V23.0822C51.2372 22.9263 51.365 22.7978 51.5201 22.7978H55.3126C55.4678 22.7978 55.5943 22.9263 55.5943 23.0822ZM50.0939 27.2675V29.4806C50.0939 29.5713 50.0208 29.6449 49.9306 29.6449H47.7317C47.6415 29.6449 47.5676 29.5713 47.5676 29.4806V27.2675C47.5676 27.1768 47.6415 27.1024 47.7317 27.1024H49.9306C50.0208 27.102 50.0939 27.1768 50.0939 27.2675ZM53.6322 28.4036V29.913C53.6322 29.9744 53.5813 30.0252 53.5202 30.0252H52.0204C51.9586 30.0252 51.9089 29.9744 51.9089 29.913V28.4036C51.9089 28.3413 51.9586 28.2901 52.0204 28.2901H53.5202C53.5813 28.2905 53.6322 28.3413 53.6322 28.4036ZM56.441 18.0174V19.7509C56.441 19.8217 56.3828 19.8802 56.3121 19.8802H54.59C54.5192 19.8802 54.4611 19.8221 54.4611 19.7509V18.0174C54.4611 17.9466 54.5192 17.8881 54.59 17.8881H56.3121C56.3828 17.8881 56.441 17.9466 56.441 18.0174ZM59.0894 25.8232V27.5567C59.0894 27.6275 59.032 27.6848 58.9616 27.6848H57.2384C57.168 27.6848 57.1111 27.6271 57.1111 27.5567V25.8232C57.1111 25.7516 57.1684 25.6938 57.2384 25.6938H58.9616C59.0324 25.6938 59.0894 25.7516 59.0894 25.8232ZM30.0741 5.30262C23.6284 2.20934 18.6853 6.94423 21.0128 15.9934C21.7285 2.72225 31.4595 11.0503 41.65 26.6712C41.9641 27.1532 41.8133 27.019 41.8133 26.5126V22.6966C41.8133 21.8993 42.462 21.2469 43.2537 21.2469H46.2803C43.0258 16.8024 35.1882 7.75853 30.0741 5.30262Z" fill="url(#paint0_linear_27337_437)"/>
<path d="M200.191 34.2135C198.802 34.2135 197.6 34.005 196.584 33.5879C195.568 33.1918 194.759 32.6184 194.158 31.8676C193.578 31.1378 193.245 30.2829 193.163 29.3028H196.894C196.977 29.7199 197.164 30.0848 197.455 30.3975C197.765 30.7104 198.16 30.9501 198.636 31.117C199.113 31.3046 199.663 31.3984 200.284 31.3984C201.217 31.3984 201.984 31.2629 202.586 30.9919C203.208 30.7208 203.664 30.3037 203.954 29.7407C204.265 29.1777 204.42 28.4479 204.42 27.5512V24.4859H204.203C203.85 25.4451 203.208 26.2271 202.275 26.8318C201.342 27.4157 200.243 27.7076 198.978 27.7076C197.983 27.7076 197.081 27.5304 196.273 27.1759C195.485 26.8214 194.801 26.3105 194.22 25.6432C193.64 24.9551 193.194 24.121 192.883 23.1409C192.572 22.14 192.416 20.9932 192.416 19.7004C192.416 17.9696 192.686 16.5204 193.225 15.3526C193.785 14.164 194.562 13.2674 195.557 12.6627C196.552 12.0371 197.714 11.7244 199.04 11.7244C200.284 11.7244 201.363 12.0163 202.275 12.6001C203.208 13.184 203.85 13.9451 204.203 14.8834H204.42L204.545 12.0371H208.308V26.9256C208.308 28.2602 208.112 29.3862 207.717 30.3037C207.344 31.2421 206.795 31.9928 206.069 32.5558C205.343 33.1396 204.483 33.5567 203.487 33.8069C202.513 34.0779 201.414 34.2135 200.191 34.2135ZM200.378 24.6736C201.249 24.6736 201.974 24.4859 202.554 24.1106C203.156 23.7144 203.613 23.2139 203.923 22.6092C204.234 21.9837 204.4 21.3477 204.42 20.7013V18.6994C204.4 18.0321 204.234 17.4066 203.923 16.8227C203.613 16.218 203.167 15.7279 202.586 15.3526C202.005 14.9564 201.28 14.7584 200.409 14.7584C199.601 14.7584 198.885 14.946 198.263 15.3214C197.662 15.6967 197.195 16.2493 196.864 16.9791C196.532 17.7089 196.366 18.616 196.366 19.7004C196.366 20.8055 196.532 21.7334 196.864 22.4841C197.216 23.2139 197.693 23.7665 198.294 24.1419C198.895 24.4964 199.59 24.6736 200.378 24.6736Z" fill="black"/>
<path d="M174.035 28.6773V12.0371H177.767L177.922 15.1963H178.109C178.586 14.0285 179.311 13.1631 180.286 12.6001C181.26 12.0163 182.349 11.7244 183.551 11.7244C184.381 11.7244 185.148 11.8599 185.853 12.1309C186.578 12.3812 187.2 12.7878 187.719 13.3508C188.258 13.8929 188.673 14.6124 188.963 15.509C189.273 16.3849 189.429 17.4483 189.429 18.6994V28.6773H185.542V19.5439C185.542 18.5014 185.417 17.6464 185.169 16.9791C184.92 16.2909 184.536 15.7801 184.018 15.4464C183.521 15.1129 182.867 14.946 182.059 14.946C181.188 14.946 180.442 15.1545 179.819 15.5716C179.218 15.9886 178.751 16.5412 178.42 17.2294C178.089 17.9174 177.922 18.6786 177.922 19.5127V28.6773H174.035Z" fill="black"/>
<path d="M165.957 28.6773V12.0371H169.845V28.6773H165.957ZM165.957 9.69125V5.87524H169.845V9.69125H165.957Z" fill="black"/>
<path d="M147.432 28.6773V5.87524H151.381V19.4501L152.78 17.8549L158.317 12.0371H163.136L156.73 18.5743L163.292 28.6773H158.72L154.988 22.8907L153.993 21.1704L151.381 23.7665V28.6773H147.432Z" fill="black"/>
<path d="M137.186 28.99C135.714 28.99 134.449 28.7606 133.392 28.3019C132.335 27.8223 131.516 27.1654 130.935 26.3314C130.375 25.4973 130.096 24.5276 130.096 23.4224H133.92C133.941 24.3817 134.263 25.0802 134.885 25.5181C135.506 25.956 136.315 26.175 137.31 26.175C138.285 26.175 139.021 25.9977 139.518 25.6432C140.037 25.2679 140.296 24.757 140.296 24.1106C140.296 23.5893 140.182 23.1931 139.954 22.922C139.726 22.6301 139.353 22.4111 138.835 22.2652C138.316 22.0984 137.632 21.9524 136.781 21.8273C135.393 21.6188 134.232 21.3373 133.299 20.9828C132.366 20.6074 131.671 20.0965 131.215 19.4501C130.759 18.8037 130.531 17.9488 130.531 16.8853C130.531 15.8427 130.811 14.9356 131.37 14.164C131.93 13.3925 132.718 12.7982 133.734 12.3812C134.75 11.9433 135.942 11.7244 137.31 11.7244C138.637 11.7244 139.788 11.9433 140.763 12.3812C141.758 12.7982 142.525 13.4029 143.064 14.1954C143.624 14.9669 143.914 15.8948 143.934 16.9791H140.11C140.11 16.3953 139.985 15.9261 139.736 15.5716C139.508 15.1963 139.176 14.9252 138.741 14.7584C138.306 14.5915 137.797 14.5081 137.217 14.5081C136.346 14.5081 135.662 14.6958 135.165 15.0711C134.667 15.4256 134.418 15.9156 134.418 16.5412C134.418 16.9999 134.543 17.3753 134.791 17.6672C135.06 17.9383 135.486 18.1573 136.066 18.3241C136.647 18.4909 137.394 18.6369 138.306 18.7619C139.301 18.9079 140.161 19.0956 140.887 19.325C141.634 19.5544 142.255 19.8671 142.753 20.2634C143.25 20.6387 143.624 21.1183 143.872 21.7021C144.142 22.2652 144.277 22.9533 144.277 23.7665C144.277 25.4347 143.624 26.7275 142.317 27.645C141.032 28.5417 139.322 28.99 137.186 28.99Z" fill="black"/>
<path d="M117.405 28.9588C116.41 28.9588 115.498 28.7815 114.668 28.427C113.86 28.0517 113.155 27.4991 112.554 26.7693C111.973 26.0394 111.527 25.1428 111.216 24.0793C110.905 22.995 110.75 21.7543 110.75 20.3572C110.75 18.4596 111.019 16.8749 111.559 15.6029C112.118 14.31 112.895 13.3404 113.891 12.6939C114.907 12.0475 116.078 11.7244 117.405 11.7244C118.317 11.7244 119.126 11.8703 119.831 12.1622C120.556 12.4333 121.178 12.8191 121.697 13.3195C122.215 13.82 122.609 14.4143 122.879 15.1024H123.097L123.251 12.0371H126.983V28.6773H123.097V25.5807H122.879C122.484 26.6024 121.811 27.4261 120.857 28.0517C119.903 28.6564 118.752 28.9588 117.405 28.9588ZM118.867 25.7684C119.8 25.7684 120.567 25.5494 121.168 25.1115C121.79 24.6736 122.256 24.1106 122.568 23.4224C122.879 22.7135 123.034 21.9732 123.034 21.2017V19.4814C123.034 18.689 122.879 17.9488 122.568 17.2606C122.256 16.5516 121.79 15.9886 121.168 15.5716C120.567 15.1337 119.8 14.9147 118.867 14.9147C118.037 14.9147 117.311 15.1129 116.69 15.509C116.068 15.9052 115.581 16.5099 115.228 17.3232C114.875 18.1155 114.699 19.1269 114.699 20.3572C114.699 21.5458 114.875 22.5467 115.228 23.3599C115.581 24.1731 116.068 24.7779 116.69 25.174C117.311 25.5703 118.037 25.7684 118.867 25.7684Z" fill="black"/>
<path d="M98.2098 28.9588C97.2147 28.9588 96.3024 28.7815 95.473 28.427C94.6643 28.0517 93.96 27.4991 93.3585 26.7693C92.7777 26.0394 92.3319 25.1428 92.0212 24.0793C91.7105 22.995 91.5547 21.7543 91.5547 20.3572C91.5547 18.4596 91.824 16.8749 92.3634 15.6029C92.9227 14.31 93.7007 13.3404 94.6958 12.6939C95.7116 12.0475 96.8832 11.7244 98.2098 11.7244C99.122 11.7244 99.9307 11.8703 100.636 12.1622C101.362 12.4333 101.983 12.8191 102.502 13.3195C103.02 13.82 103.414 14.4143 103.683 15.1024H103.901L104.057 12.0371H107.789V28.6773H103.901V25.5807H103.683C103.29 26.6024 102.616 27.4261 101.662 28.0517C100.709 28.6564 99.5579 28.9588 98.2098 28.9588ZM99.6714 25.7684C100.604 25.7684 101.372 25.5494 101.973 25.1115C102.595 24.6736 103.062 24.1106 103.373 23.4224C103.683 22.7135 103.839 21.9732 103.839 21.2017V19.4814C103.839 18.689 103.683 17.9488 103.373 17.2606C103.062 16.5516 102.595 15.9886 101.973 15.5716C101.372 15.1337 100.604 14.9147 99.6714 14.9147C98.842 14.9147 98.117 15.1129 97.4947 15.509C96.8725 15.9052 96.3853 16.5099 96.0331 17.3232C95.681 18.1155 95.5045 19.1269 95.5045 20.3572C95.5045 21.5458 95.681 22.5467 96.0331 23.3599C96.3853 24.1731 96.8725 24.7779 97.4947 25.174C98.117 25.5703 98.842 25.7684 99.6714 25.7684Z" fill="black"/>
<path d="M80.11 28.9588C78.0989 28.9588 76.4091 28.6459 75.0407 28.0204C73.693 27.3949 72.6771 26.519 71.993 25.393C71.3087 24.2669 70.9563 22.9845 70.9355 21.5458H75.134C75.1547 22.4007 75.3413 23.1409 75.6938 23.7665C76.067 24.3921 76.6268 24.8821 77.3732 25.2366C78.1196 25.5911 79.0837 25.7684 80.2654 25.7684C81.6753 25.7684 82.8052 25.5077 83.6554 24.9864C84.5054 24.4442 84.9304 23.6519 84.9304 22.6092C84.9304 22.0045 84.8372 21.504 84.6506 21.1078C84.464 20.6908 84.1529 20.3468 83.7175 20.0757C83.2822 19.8046 82.7016 19.5752 81.9759 19.3875C81.2711 19.1998 80.3795 19.0122 79.3014 18.8245C78.0159 18.616 76.8756 18.3449 75.8804 18.0113C74.906 17.6568 74.087 17.2294 73.4235 16.7289C72.7601 16.2284 72.2625 15.6237 71.9307 14.9147C71.599 14.1849 71.4332 13.3195 71.4332 12.3186C71.4332 10.9424 71.7752 9.75377 72.4595 8.75285C73.1644 7.75196 74.1596 6.98043 75.445 6.43827C76.7305 5.87526 78.2648 5.59375 80.0478 5.59375C81.81 5.59375 83.3132 5.87526 84.5573 6.43827C85.8219 7.00128 86.7964 7.79367 87.4806 8.81543C88.1648 9.81635 88.5069 10.9841 88.5069 12.3186H84.3707C84.3292 11.5054 84.1115 10.8381 83.7175 10.3168C83.3236 9.7746 82.7949 9.37843 82.1315 9.12818C81.4887 8.87802 80.7424 8.75285 79.8922 8.75285C79.0215 8.75285 78.2648 8.87802 77.622 9.12818C77 9.37843 76.5231 9.73293 76.1914 10.1917C75.8597 10.6296 75.6938 11.1613 75.6938 11.7869C75.6938 12.5584 75.8804 13.1527 76.2536 13.5698C76.6476 13.9659 77.2696 14.2787 78.1196 14.5081C78.9903 14.7374 80.11 14.9668 81.4784 15.1962C82.4528 15.363 83.3962 15.5716 84.3084 15.8218C85.2414 16.072 86.0707 16.4474 86.7964 16.9479C87.5428 17.4274 88.1337 18.0947 88.5691 18.9496C89.0049 19.7838 89.222 20.868 89.222 22.2026C89.222 23.5371 88.8798 24.7153 88.1958 25.737C87.5117 26.7589 86.4958 27.5512 85.1481 28.1142C83.8004 28.6773 82.1211 28.9588 80.11 28.9588Z" fill="black"/>
<defs>
<linearGradient id="paint0_linear_27337_437" x1="20.4277" y1="0" x2="63.4612" y2="8.90979" gradientUnits="userSpaceOnUse">
<stop stop-color="#EE9737"/>
<stop offset="0.251262" stop-color="#DC5729"/>
<stop offset="0.501917" stop-color="#DC5729"/>
<stop offset="0.749767" stop-color="#DC5729"/>
<stop offset="1" stop-color="#EE9737"/>
</linearGradient>
</defs>
</svg>
