<svg width="224" height="44" viewBox="0 0 224 44" fill="none" xmlns="http://www.w3.org/2000/svg">
<path fill-rule="evenodd" clip-rule="evenodd" d="M25.5467 43.0324C30.0139 45.1675 34.3787 43.551 38.7006 40.3121C32.2106 42.8955 24.3829 36.3167 14.6888 23.917L14.0629 24.155V24.8642C14.0629 25.7411 13.3466 26.4583 12.4689 26.4583L8.27398 26.4583L8.25878 26.4583C11.521 29.72 22.568 41.6083 25.5467 43.0324ZM7.96189 24.8642L7.96189 20.6661C7.96189 20.4943 8.10274 20.3542 8.27443 20.3542L12.4693 20.3542C12.6419 20.3542 12.7819 20.4947 12.7819 20.6661V24.8642C12.7819 25.036 12.6419 25.1774 12.4693 25.1774L8.27443 25.1774C8.10274 25.1774 7.96189 25.036 7.96189 24.8642ZM13.0126 19.0335V14.8358C13.0126 14.6645 13.1525 14.5231 13.3238 14.5231L17.5196 14.5231C17.6908 14.5231 17.8321 14.6645 17.8321 14.8358L17.8321 19.0335C17.8321 19.2062 17.6908 19.3467 17.5196 19.3467L13.3238 19.3467C13.1525 19.3467 13.0126 19.2062 13.0126 19.0335ZM3.86537 18.6098V14.4121C3.86537 14.2394 4.00666 14.0994 4.1779 14.0994L8.37369 14.0994C8.54494 14.0994 8.68623 14.2394 8.68623 14.4121V18.6098C8.68623 18.782 8.54539 18.9225 8.37369 18.9225L4.1779 18.9225C4.0071 18.9225 3.86537 18.782 3.86537 18.6098ZM9.95248 14.0068V11.5724C9.95248 11.4726 10.0334 11.3907 10.1331 11.3907L12.5659 11.3907C12.6656 11.3907 12.7465 11.473 12.7465 11.5724V14.0068C12.7465 14.107 12.6656 14.188 12.5659 14.188L10.1331 14.188C10.0334 14.188 9.95248 14.107 9.95248 14.0068ZM6.03748 12.7567V11.0968C6.03748 11.0283 6.09337 10.9719 6.16134 10.9719L7.82016 10.9719C7.88857 10.9719 7.94401 11.0283 7.94401 11.0968V12.7567C7.94401 12.8247 7.88857 12.8806 7.82016 12.8806L6.16134 12.8806C6.09382 12.8806 6.03748 12.8247 6.03748 12.7567ZM2.92999 24.181V22.2746C2.92999 22.1963 2.99437 22.1332 3.07217 22.1332L4.9778 22.1332C5.05605 22.1332 5.11999 22.1967 5.11999 22.2746V24.181C5.11999 24.2602 5.05605 24.3237 4.9778 24.3237L3.07217 24.3237C2.99437 24.3233 2.92999 24.2602 2.92999 24.181ZM0 15.5955L0 13.6877C0 13.6099 0.0634913 13.5468 0.140843 13.5468L2.04648 13.5468C2.12517 13.5468 2.18866 13.6103 2.18866 13.6877V15.5955C2.18866 15.6734 2.12517 15.7365 2.04648 15.7365L0.140843 15.7365C0.0634913 15.7369 0 15.6734 0 15.5955ZM32.1011 38.1668C39.2322 41.5698 44.701 36.361 42.126 26.4087C41.3333 41.0056 30.5684 31.8457 19.2928 14.6613C18.9454 14.1316 19.1136 14.2792 19.1136 14.8358L19.1136 19.0335C19.1136 19.9104 18.3959 20.6285 17.5196 20.6285L14.1711 20.6285C17.7722 25.517 26.4432 35.4666 32.1011 38.1668Z" fill="#E50FF2"/>
<path fill-rule="evenodd" clip-rule="evenodd" d="M39.8272 0.968114C35.3605 -1.16785 30.9952 0.448663 26.6738 3.68751C33.1633 1.10458 40.9915 7.68473 50.6851 20.0826L51.3115 19.8446V19.1359C51.3115 18.2581 52.0278 17.5413 52.9042 17.5413L57.1 17.5413L57.1152 17.5413C53.8534 14.2801 42.8064 2.39179 39.8272 0.968114ZM57.4125 19.1364V23.334C57.4125 23.5054 57.2712 23.6468 57.1 23.6468L52.9042 23.6468C52.7329 23.6468 52.593 23.5058 52.593 23.334V19.1364C52.593 18.9641 52.7329 18.8236 52.9042 18.8236L57.1 18.8236C57.2712 18.8236 57.4125 18.9641 57.4125 19.1364ZM52.3623 24.9662V29.1638C52.3623 29.3366 52.2223 29.4766 52.0497 29.4766L47.8548 29.4766C47.6836 29.4766 47.5423 29.3366 47.5423 29.1638V24.9662C47.5423 24.7939 47.6831 24.6534 47.8548 24.6534L52.0497 24.6534C52.2223 24.6534 52.3623 24.7939 52.3623 24.9662ZM61.5077 25.3903V29.588C61.5077 29.7603 61.3673 29.9007 61.196 29.9007L57.0002 29.9007C56.829 29.9007 56.6873 29.7603 56.6873 29.588V25.3903C56.6873 25.219 56.8285 25.0776 57.0002 25.0776L61.196 25.0776C61.3677 25.0776 61.5077 25.219 61.5077 25.3903ZM55.4224 29.9943V32.4286C55.4224 32.5284 55.3414 32.6094 55.2417 32.6094L52.8089 32.6094C52.7092 32.6094 52.6274 32.5284 52.6274 32.4286V29.9943C52.6274 29.8945 52.7092 29.8126 52.8089 29.8126L55.2417 29.8126C55.3414 29.8122 55.4224 29.8945 55.4224 29.9943ZM59.3369 31.2439V32.9043C59.3369 32.9718 59.2806 33.0277 59.213 33.0277L57.5538 33.0277C57.4854 33.0277 57.4304 32.9718 57.4304 32.9043V31.2439C57.4304 31.1754 57.4854 31.1191 57.5538 31.1191L59.213 31.1191C59.2806 31.1195 59.3369 31.1754 59.3369 31.2439ZM62.4444 19.8191V21.726C62.4444 21.8038 62.38 21.8683 62.3018 21.8683L60.3966 21.8683C60.3183 21.8683 60.2539 21.8043 60.2539 21.726V19.8191C60.2539 19.7413 60.3183 19.6768 60.3966 19.6768L62.3018 19.6768C62.38 19.6768 62.4444 19.7413 62.4444 19.8191ZM65.3744 28.4055V30.3124C65.3744 30.3902 65.3109 30.4533 65.2331 30.4533L63.3266 30.4533C63.2488 30.4533 63.1857 30.3898 63.1857 30.3124V28.4055C63.1857 28.3267 63.2492 28.2632 63.3266 28.2632L65.2331 28.2632C65.3113 28.2632 65.3744 28.3267 65.3744 28.4055ZM33.2737 5.83287C26.1426 2.43027 20.6739 7.63865 23.2488 17.5928C24.0407 2.99446 34.8065 12.1553 46.0806 29.3383C46.4281 29.8685 46.2613 29.7209 46.2613 29.1638V24.9662C46.2613 24.0893 46.9789 23.3716 47.8548 23.3716L51.2033 23.3716C47.6026 18.4827 38.9316 8.53437 33.2737 5.83287Z" fill="#6342F5"/>
<path d="M214.836 37.6348C213.299 37.6348 211.969 37.4055 210.845 36.9467C209.721 36.5109 208.826 35.8801 208.161 35.0544C207.519 34.2516 207.152 33.3111 207.06 32.2331H211.189C211.281 32.6918 211.487 33.0932 211.808 33.4373C212.152 33.7813 212.588 34.0451 213.116 34.2286C213.643 34.4351 214.251 34.5383 214.939 34.5383C215.971 34.5383 216.82 34.3892 217.485 34.091C218.174 33.7928 218.678 33.3341 218.999 32.7147C219.343 32.0954 219.515 31.2926 219.515 30.3063V26.9345H219.275C218.885 27.9896 218.174 28.8498 217.141 29.515C216.109 30.1572 214.893 30.4783 213.494 30.4783C212.393 30.4783 211.395 30.2834 210.501 29.8934C209.629 29.5035 208.872 28.9415 208.23 28.2075C207.588 27.4506 207.095 26.5331 206.75 25.455C206.406 24.354 206.234 23.0925 206.234 21.6703C206.234 19.7665 206.533 18.1724 207.129 16.8879C207.748 15.5804 208.608 14.5941 209.709 13.9289C210.81 13.2408 212.095 12.8968 213.563 12.8968C214.939 12.8968 216.132 13.2179 217.141 13.8601C218.174 14.5024 218.885 15.3396 219.275 16.3718H219.515L219.653 13.2408H223.816V29.6182C223.816 31.0862 223.598 32.3248 223.163 33.3341C222.75 34.3662 222.142 35.192 221.339 35.8113C220.536 36.4536 219.584 36.9123 218.483 37.1876C217.405 37.4857 216.189 37.6348 214.836 37.6348ZM215.043 27.1409C216.006 27.1409 216.809 26.9345 217.451 26.5216C218.116 26.0858 218.621 25.5353 218.965 24.8701C219.309 24.182 219.492 23.4824 219.515 22.7713V20.5693C219.492 19.8353 219.309 19.1472 218.965 18.505C218.621 17.8398 218.128 17.3008 217.485 16.8879C216.843 16.4521 216.04 16.2342 215.077 16.2342C214.182 16.2342 213.391 16.4406 212.703 16.8535C212.038 17.2663 211.522 17.8742 211.155 18.677C210.788 19.4798 210.604 20.4776 210.604 21.6703C210.604 22.886 210.788 23.9068 211.155 24.7325C211.544 25.5353 212.072 26.1432 212.737 26.556C213.402 26.946 214.171 27.1409 215.043 27.1409Z" fill="white"/>
<path d="M185.902 31.5449V13.2408H190.031L190.203 16.7158H190.41C190.937 15.4314 191.74 14.4794 192.818 13.8601C193.896 13.2179 195.1 12.8968 196.431 12.8968C197.348 12.8968 198.197 13.0459 198.977 13.344C199.78 13.6193 200.468 14.0666 201.041 14.6859C201.638 15.2823 202.096 16.0736 202.418 17.0599C202.762 18.0233 202.934 19.1931 202.934 20.5693V31.5449H198.633V21.4983C198.633 20.3514 198.495 19.411 198.22 18.677C197.945 17.9201 197.52 17.3581 196.947 16.9911C196.396 16.6241 195.674 16.4406 194.779 16.4406C193.816 16.4406 192.99 16.67 192.302 17.1287C191.637 17.5875 191.121 18.1953 190.754 18.9523C190.387 19.7092 190.203 20.5464 190.203 21.4639V31.5449H185.902Z" fill="white"/>
<path d="M176.965 31.5449V13.2408H181.266V31.5449H176.965ZM176.965 10.6604V6.4628H181.266V10.6604H176.965Z" fill="white"/>
<path d="M156.469 31.5449V6.4628H160.838V21.3951L162.387 19.6404L168.511 13.2408H173.844L166.756 20.4317L174.016 31.5449H168.958L164.83 25.1798L163.729 23.2874L160.838 26.1432V31.5449H156.469Z" fill="white"/>
<path d="M145.13 31.889C143.501 31.889 142.102 31.6367 140.932 31.1321C139.762 30.6045 138.856 29.882 138.214 28.9645C137.595 28.047 137.285 26.9804 137.285 25.7647H141.517C141.54 26.8198 141.896 27.5882 142.584 28.0699C143.272 28.5516 144.167 28.7924 145.268 28.7924C146.346 28.7924 147.16 28.5975 147.71 28.2075C148.284 27.7947 148.571 27.2327 148.571 26.5216C148.571 25.9482 148.444 25.5124 148.192 25.2142C147.94 24.8931 147.527 24.6522 146.953 24.4917C146.38 24.3082 145.623 24.1476 144.683 24.01C143.146 23.7806 141.861 23.4709 140.829 23.081C139.797 22.6681 139.028 22.1062 138.524 21.3951C138.019 20.684 137.767 19.7436 137.767 18.5738C137.767 17.4269 138.077 16.4291 138.696 15.5804C139.315 14.7318 140.187 14.078 141.311 13.6193C142.435 13.1376 143.754 12.8968 145.268 12.8968C146.736 12.8968 148.009 13.1376 149.087 13.6193C150.188 14.078 151.036 14.7432 151.633 15.6149C152.252 16.4635 152.573 17.4843 152.596 18.677H148.364C148.364 18.0348 148.227 17.5187 147.951 17.1287C147.699 16.7159 147.332 16.4177 146.85 16.2342C146.369 16.0507 145.807 15.9589 145.164 15.9589C144.201 15.9589 143.444 16.1654 142.893 16.5782C142.343 16.9682 142.068 17.5072 142.068 18.1953C142.068 18.6999 142.205 19.1128 142.481 19.4339C142.779 19.7321 143.249 19.973 143.891 20.1565C144.534 20.34 145.359 20.5005 146.369 20.6382C147.47 20.7987 148.421 21.0052 149.224 21.2575C150.05 21.5098 150.738 21.8538 151.289 22.2897C151.839 22.7025 152.252 23.2301 152.527 23.8723C152.826 24.4917 152.975 25.2486 152.975 26.1432C152.975 27.9782 152.252 29.4003 150.807 30.4095C149.385 31.3958 147.492 31.889 145.13 31.889Z" fill="white"/>
<path d="M123.25 31.8546C122.149 31.8546 121.139 31.6596 120.222 31.2697C119.327 30.8568 118.548 30.249 117.882 29.4462C117.24 28.6433 116.747 27.657 116.403 26.4872C116.059 25.2945 115.887 23.9297 115.887 22.3929C115.887 20.3056 116.185 18.5623 116.781 17.1631C117.401 15.741 118.261 14.6744 119.362 13.9634C120.486 13.2523 121.782 12.8968 123.25 12.8968C124.259 12.8968 125.154 13.0573 125.933 13.3784C126.736 13.6766 127.424 14.101 127.998 14.6515C128.571 15.202 129.007 15.8557 129.305 16.6126H129.546L129.718 13.2408H133.847V31.5449H129.546V28.1387H129.305C128.87 29.2627 128.124 30.1687 127.069 30.8568C126.014 31.522 124.741 31.8546 123.25 31.8546ZM124.867 28.3452C125.899 28.3452 126.748 28.1043 127.413 27.6226C128.101 27.1409 128.617 26.5216 128.961 25.7647C129.305 24.9848 129.477 24.1705 129.477 23.3218V21.4295C129.477 20.5579 129.305 19.7436 128.961 18.9867C128.617 18.2068 128.101 17.5875 127.413 17.1287C126.748 16.647 125.899 16.4062 124.867 16.4062C123.949 16.4062 123.147 16.6241 122.458 17.0599C121.77 17.4957 121.231 18.1609 120.841 19.0555C120.451 19.9271 120.256 21.0396 120.256 22.3929C120.256 23.7003 120.451 24.8013 120.841 25.6959C121.231 26.5904 121.77 27.2556 122.458 27.6914C123.147 28.1272 123.949 28.3452 124.867 28.3452Z" fill="white"/>
<path d="M102.011 31.8546C100.91 31.8546 99.9012 31.6596 98.9837 31.2697C98.0891 30.8568 97.3092 30.249 96.644 29.4462C96.0018 28.6433 95.5086 27.657 95.1645 26.4872C94.8205 25.2945 94.6484 23.9297 94.6484 22.3929C94.6484 20.3056 94.9466 18.5623 95.543 17.1631C96.1623 15.741 97.0225 14.6744 98.1235 13.9634C99.2475 13.2523 100.543 12.8968 102.011 12.8968C103.021 12.8968 103.915 13.0573 104.695 13.3784C105.498 13.6766 106.186 14.101 106.76 14.6515C107.333 15.202 107.769 15.8557 108.067 16.6126H108.308L108.48 13.2408H112.609V31.5449H108.308V28.1387H108.067C107.631 29.2627 106.886 30.1687 105.831 30.8568C104.775 31.522 103.502 31.8546 102.011 31.8546ZM103.629 28.3452C104.661 28.3452 105.51 28.1043 106.175 27.6226C106.863 27.1409 107.379 26.5216 107.723 25.7647C108.067 24.9848 108.239 24.1705 108.239 23.3218V21.4295C108.239 20.5579 108.067 19.7436 107.723 18.9867C107.379 18.2068 106.863 17.5875 106.175 17.1287C105.51 16.647 104.661 16.4062 103.629 16.4062C102.711 16.4062 101.908 16.6241 101.22 17.0599C100.532 17.4957 99.993 18.1609 99.603 19.0555C99.2131 19.9271 99.0181 21.0396 99.0181 22.3929C99.0181 23.7003 99.2131 24.8013 99.603 25.6959C99.993 26.5904 100.532 27.2556 101.22 27.6914C101.908 28.1272 102.711 28.3452 103.629 28.3452Z" fill="white"/>
<path d="M81.9898 31.8546C79.7649 31.8546 77.8954 31.5105 76.3815 30.8224C74.8906 30.1342 73.7666 29.1709 73.0097 27.9322C72.2527 26.6936 71.8628 25.283 71.8398 23.7003H76.4848C76.5077 24.6407 76.7141 25.455 77.1041 26.1431C77.517 26.8312 78.1363 27.3703 78.962 27.7602C79.7878 28.1502 80.8544 28.3451 82.1619 28.3451C83.7216 28.3451 84.9718 28.0584 85.9122 27.485C86.8527 26.8886 87.3229 26.017 87.3229 24.8701C87.3229 24.2049 87.2197 23.6544 87.0132 23.2186C86.8068 22.7598 86.4627 22.3814 85.981 22.0832C85.4993 21.785 84.8571 21.5327 84.0542 21.3263C83.2744 21.1198 82.288 20.9134 81.0953 20.7069C79.6731 20.4776 78.4115 20.1794 77.3105 19.8124C76.2324 19.4224 75.3264 18.9522 74.5924 18.4017C73.8584 17.8512 73.3079 17.186 72.9409 16.4062C72.5739 15.6033 72.3904 14.6514 72.3904 13.5504C72.3904 12.0366 72.7688 10.7291 73.5258 9.62813C74.3057 8.52713 75.4067 7.67845 76.8288 7.08207C78.251 6.46276 79.9484 6.1531 81.921 6.1531C83.8707 6.1531 85.5337 6.46276 86.91 7.08207C88.3092 7.70139 89.3873 8.57301 90.1442 9.69695C90.9012 10.7979 91.2797 12.0824 91.2797 13.5504H86.7036C86.6577 12.6559 86.4168 11.9219 85.981 11.3484C85.5452 10.7521 84.9603 10.3163 84.2263 10.041C83.5152 9.76576 82.6894 9.62813 81.749 9.62813C80.7856 9.62813 79.9484 9.76576 79.2373 10.041C78.5492 10.3163 78.0216 10.7062 77.6546 11.2108C77.2876 11.6925 77.1041 12.2774 77.1041 12.9655C77.1041 13.8142 77.3105 14.4679 77.7234 14.9267C78.1592 15.3625 78.8474 15.7066 79.7878 15.9589C80.7512 16.2112 81.9898 16.4635 83.5037 16.7158C84.5818 16.8993 85.6255 17.1287 86.6348 17.4039C87.667 17.6792 88.5845 18.0921 89.3873 18.6426C90.2131 19.1701 90.8668 19.9041 91.3485 20.8446C91.8302 21.7621 92.071 22.9548 92.071 24.4228C92.071 25.8908 91.6925 27.1868 90.9356 28.3107C90.1786 29.4347 89.0547 30.3063 87.5637 30.9256C86.0728 31.5449 84.2148 31.8546 81.9898 31.8546Z" fill="white"/>
</svg>
