<svg width="204" height="40" viewBox="0 0 204 40" fill="none" xmlns="http://www.w3.org/2000/svg">
<path fill-rule="evenodd" clip-rule="evenodd" d="M23.224 39.1204C27.285 41.0614 31.2529 39.5919 35.1818 36.6474C29.282 38.996 22.1659 33.0152 13.3533 21.7428L12.7842 21.9592V22.6038C12.7842 23.4011 12.1331 24.0531 11.3352 24.0531L7.52169 24.0531L7.50787 24.0531C10.4735 27.0182 20.5161 37.8258 23.224 39.1204ZM7.23798 22.6038V18.7874C7.23798 18.6312 7.36601 18.5039 7.5221 18.5039L11.3356 18.5039C11.4925 18.5039 11.6197 18.6316 11.6197 18.7874V22.6038C11.6197 22.76 11.4925 22.8886 11.3356 22.8886L7.5221 22.8886C7.36601 22.8886 7.23798 22.76 7.23798 22.6038ZM11.8294 17.3032V13.4871C11.8294 13.3313 11.9567 13.2028 12.1123 13.2028L15.9266 13.2028C16.0823 13.2028 16.2108 13.3313 16.2108 13.4871V17.3032C16.2108 17.4602 16.0823 17.5879 15.9266 17.5879L12.1123 17.5879C11.9567 17.5879 11.8294 17.4602 11.8294 17.3032ZM3.51392 16.918L3.51392 13.1019C3.51392 12.9449 3.64236 12.8176 3.79804 12.8176L7.61233 12.8176C7.76801 12.8176 7.89645 12.9449 7.89645 13.1019V16.918C7.89645 17.0746 7.76842 17.2023 7.61233 17.2023L3.79804 17.2023C3.64277 17.2023 3.51392 17.0746 3.51392 16.918ZM9.04757 12.7334V10.5203C9.04757 10.4296 9.12114 10.3552 9.21179 10.3552L11.4234 10.3552C11.514 10.3552 11.5876 10.43 11.5876 10.5203V12.7334C11.5876 12.8245 11.514 12.8982 11.4234 12.8982L9.21179 12.8982C9.12114 12.8982 9.04757 12.8245 9.04757 12.7334ZM5.48854 11.597V10.088C5.48854 10.0257 5.53935 9.97449 5.60113 9.97449L7.10913 9.97449C7.17132 9.97449 7.22172 10.0257 7.22172 10.088V11.597C7.22172 11.6588 7.17132 11.7097 7.10913 11.7097L5.60113 11.7097C5.53975 11.7097 5.48854 11.6588 5.48854 11.597ZM2.66358 21.9827L2.66358 20.2496C2.66358 20.1784 2.72212 20.1211 2.79284 20.1211L4.52521 20.1211C4.59634 20.1211 4.65447 20.1788 4.65447 20.2496V21.9827C4.65447 22.0547 4.59634 22.1125 4.52521 22.1125L2.79284 22.1125C2.72212 22.1121 2.66358 22.0547 2.66358 21.9827ZM0 14.1778L0 12.4434C0 12.3726 0.0577185 12.3153 0.128037 12.3153L1.8604 12.3153C1.93194 12.3153 1.98966 12.373 1.98966 12.4434L1.98966 14.1778C1.98966 14.2485 1.93194 14.3059 1.8604 14.3059L0.128037 14.3059C0.0577185 14.3063 0 14.2485 0 14.1778ZM29.1824 34.6971C35.6651 37.7908 40.6366 33.0555 38.2958 24.0079C37.5751 37.2779 27.789 28.9507 17.5387 13.3285C17.2229 12.8469 17.3757 12.9811 17.3757 13.4871V17.3032C17.3757 18.1004 16.7233 18.7532 15.9266 18.7532L12.8826 18.7532C16.1563 23.1973 24.0389 32.2424 29.1824 34.6971Z" fill="url(#paint0_linear_759_8758)"/>
<path fill-rule="evenodd" clip-rule="evenodd" d="M36.2063 0.880107C32.1457 -1.06168 28.1773 0.407879 24.2488 3.35229C30.1483 1.00416 37.2648 6.98613 46.077 18.257L46.6464 18.0406V17.3963C46.6464 16.5983 47.2976 15.9467 48.0943 15.9467L51.9086 15.9467L51.9224 15.9467C48.9572 12.9819 38.9146 2.17436 36.2063 0.880107ZM52.1927 17.3967V21.2128C52.1927 21.3685 52.0642 21.4971 51.9086 21.4971L48.0943 21.4971C47.9386 21.4971 47.8114 21.369 47.8114 21.2128V17.3967C47.8114 17.2401 47.9386 17.1124 48.0943 17.1124L51.9086 17.1124C52.0642 17.1124 52.1927 17.2401 52.1927 17.3967ZM47.6016 22.6966V26.5126C47.6016 26.6696 47.4744 26.7969 47.3175 26.7969L43.504 26.7969C43.3484 26.7969 43.2199 26.6696 43.2199 26.5126V22.6966C43.2199 22.54 43.3479 22.4123 43.504 22.4123L47.3175 22.4123C47.4744 22.4123 47.6016 22.54 47.6016 22.6966ZM55.9155 23.0822V26.8982C55.9155 27.0548 55.7879 27.1825 55.6322 27.1825L51.8179 27.1825C51.6623 27.1825 51.5334 27.0548 51.5334 26.8982V23.0822C51.5334 22.9264 51.6618 22.7978 51.8179 22.7978L55.6322 22.7978C55.7883 22.7978 55.9155 22.9264 55.9155 23.0822ZM50.3835 27.2675V29.4806C50.3835 29.5713 50.3099 29.6449 50.2193 29.6449L48.0077 29.6449C47.9171 29.6449 47.8427 29.5713 47.8427 29.4806V27.2675C47.8427 27.1768 47.9171 27.1024 48.0077 27.1024L50.2193 27.1024C50.3099 27.102 50.3835 27.1768 50.3835 27.2675ZM53.9421 28.4036V29.913C53.9421 29.9744 53.8909 30.0253 53.8295 30.0253L52.3211 30.0253C52.2589 30.0253 52.209 29.9744 52.209 29.913V28.4036C52.209 28.3413 52.2589 28.2901 52.3211 28.2901L53.8295 28.2901C53.8909 28.2905 53.9421 28.3413 53.9421 28.4036ZM56.7671 18.0174V19.7509C56.7671 19.8217 56.7085 19.8803 56.6374 19.8803L54.9055 19.8803C54.8343 19.8803 54.7758 19.8221 54.7758 19.7509V18.0174C54.7758 17.9466 54.8343 17.8881 54.9055 17.8881L56.6374 17.8881C56.7085 17.8881 56.7671 17.9466 56.7671 18.0174ZM59.4307 25.8232V27.5567C59.4307 27.6275 59.373 27.6849 59.3022 27.6849L57.569 27.6849C57.4983 27.6849 57.441 27.6271 57.441 27.5567V25.8232C57.441 25.7516 57.4987 25.6939 57.569 25.6939L59.3022 25.6939C59.3734 25.6939 59.4307 25.7516 59.4307 25.8232ZM30.2487 5.30262C23.7659 2.20934 18.7944 6.94423 21.1353 15.9934C21.8551 2.72225 31.6421 11.0503 41.8912 26.6713C42.207 27.1532 42.0554 27.019 42.0554 26.5126V22.6966C42.0554 21.8993 42.7078 21.2469 43.504 21.2469L46.5481 21.2469C43.2748 16.8025 35.3922 7.75853 30.2487 5.30262Z" fill="#BF2938"/>
<path d="M195.308 34.2135C193.911 34.2135 192.701 34.0049 191.68 33.5879C190.658 33.1917 189.845 32.6183 189.24 31.8676C188.656 31.1378 188.322 30.2828 188.239 29.3028H191.992C192.076 29.7198 192.263 30.0847 192.555 30.3975C192.868 30.7103 193.264 30.9501 193.744 31.1169C194.224 31.3046 194.776 31.3984 195.402 31.3984C196.34 31.3984 197.112 31.2629 197.716 30.9918C198.342 30.7207 198.801 30.3037 199.093 29.7407C199.405 29.1776 199.562 28.4478 199.562 27.5512V24.4859H199.343C198.988 25.4451 198.342 26.227 197.404 26.8318C196.465 27.4156 195.36 27.7076 194.088 27.7076C193.087 27.7076 192.18 27.5303 191.367 27.1758C190.574 26.8213 189.886 26.3104 189.302 25.6432C188.719 24.955 188.27 24.121 187.957 23.1409C187.645 22.14 187.488 20.9931 187.488 19.7003C187.488 17.9695 187.759 16.5203 188.302 15.3526C188.865 14.164 189.646 13.2673 190.647 12.6626C191.648 12.0371 192.816 11.7243 194.151 11.7243C195.402 11.7243 196.486 12.0162 197.404 12.6001C198.342 13.1839 198.988 13.945 199.343 14.8834H199.562L199.687 12.0371H203.472V26.9256C203.472 28.2601 203.273 29.3862 202.877 30.3037C202.502 31.242 201.949 31.9927 201.219 32.5557C200.49 33.1396 199.624 33.5566 198.623 33.8068C197.643 34.0779 196.538 34.2135 195.308 34.2135ZM195.496 24.6735C196.371 24.6735 197.101 24.4859 197.685 24.1105C198.29 23.7143 198.749 23.2139 199.061 22.6092C199.374 21.9836 199.541 21.3476 199.562 20.7012V18.6994C199.541 18.0321 199.374 17.4065 199.061 16.8227C198.749 16.2179 198.3 15.7279 197.716 15.3526C197.132 14.9564 196.403 14.7583 195.527 14.7583C194.714 14.7583 193.994 14.946 193.369 15.3213C192.764 15.6966 192.295 16.2492 191.961 16.9791C191.627 17.7089 191.461 18.616 191.461 19.7003C191.461 20.8054 191.627 21.7334 191.961 22.4841C192.316 23.2139 192.795 23.7665 193.4 24.1418C194.005 24.4963 194.703 24.6735 195.496 24.6735Z" fill="white"/>
<path d="M169.004 28.6772V12.0371H172.757L172.914 15.1962H173.101C173.581 14.0285 174.311 13.1631 175.291 12.6001C176.271 12.0162 177.366 11.7243 178.575 11.7243C179.409 11.7243 180.181 11.8598 180.89 12.1309C181.62 12.3811 182.245 12.7877 182.766 13.3508C183.309 13.8929 183.726 14.6123 184.018 15.509C184.33 16.3848 184.487 17.4482 184.487 18.6994V28.6772H180.577V19.5439C180.577 18.5013 180.452 17.6463 180.202 16.9791C179.951 16.2909 179.566 15.78 179.044 15.4464C178.544 15.1128 177.887 14.946 177.074 14.946C176.198 14.946 175.447 15.1545 174.822 15.5715C174.217 15.9886 173.748 16.5412 173.414 17.2293C173.081 17.9174 172.914 18.6785 172.914 19.5126V28.6772H169.004Z" fill="white"/>
<path d="M160.879 28.6772V12.0371H164.789V28.6772H160.879ZM160.879 9.69118V5.87522H164.789V9.69118H160.879Z" fill="white"/>
<path d="M142.25 28.6772V5.87522H146.222V19.4501L147.63 17.8549L153.197 12.0371H158.046L151.602 18.5743L158.202 28.6772H153.604L149.851 22.8907L148.85 21.1704L146.222 23.7665V28.6772H142.25Z" fill="white"/>
<path d="M131.944 28.99C130.463 28.99 129.191 28.7606 128.128 28.3018C127.065 27.8222 126.241 27.1654 125.657 26.3313C125.094 25.4972 124.812 24.5276 124.812 23.4224H128.66C128.681 24.3816 129.004 25.0802 129.629 25.5181C130.255 25.956 131.068 26.1749 132.069 26.1749C133.049 26.1749 133.789 25.9977 134.29 25.6432C134.811 25.2678 135.072 24.757 135.072 24.1105C135.072 23.5892 134.957 23.193 134.728 22.922C134.498 22.63 134.123 22.4111 133.602 22.2651C133.08 22.0983 132.392 21.9523 131.537 21.8272C130.14 21.6187 128.973 21.3372 128.034 20.9827C127.096 20.6073 126.397 20.0965 125.939 19.45C125.48 18.8036 125.25 17.9487 125.25 16.8852C125.25 15.8426 125.532 14.9355 126.095 14.164C126.658 13.3925 127.45 12.7982 128.472 12.3811C129.494 11.9432 130.693 11.7243 132.069 11.7243C133.404 11.7243 134.561 11.9432 135.541 12.3811C136.542 12.7982 137.313 13.4029 137.856 14.1953C138.419 14.9668 138.711 15.8947 138.731 16.9791H134.884C134.884 16.3952 134.759 15.926 134.509 15.5715C134.279 15.1962 133.946 14.9251 133.508 14.7583C133.07 14.5915 132.559 14.5081 131.975 14.5081C131.099 14.5081 130.411 14.6957 129.911 15.0711C129.41 15.4256 129.16 15.9156 129.16 16.5412C129.16 16.9999 129.285 17.3752 129.536 17.6672C129.807 17.9383 130.234 18.1572 130.818 18.324C131.402 18.4908 132.152 18.6368 133.07 18.7619C134.071 18.9079 134.936 19.0956 135.666 19.3249C136.417 19.5543 137.042 19.8671 137.543 20.2633C138.043 20.6386 138.419 21.1182 138.669 21.7021C138.94 22.2651 139.075 22.9532 139.075 23.7665C139.075 25.4347 138.419 26.7275 137.105 27.645C135.812 28.5416 134.092 28.99 131.944 28.99Z" fill="white"/>
<path d="M112.045 28.9587C111.044 28.9587 110.127 28.7814 109.293 28.427C108.479 28.0516 107.77 27.499 107.166 26.7692C106.582 26.0394 106.134 25.1427 105.821 24.0793C105.508 22.9949 105.352 21.7542 105.352 20.3571C105.352 18.4596 105.623 16.8748 106.165 15.6028C106.728 14.31 107.51 13.3403 108.511 12.6939C109.532 12.0475 110.711 11.7243 112.045 11.7243C112.963 11.7243 113.776 11.8702 114.485 12.1622C115.215 12.4333 115.84 12.819 116.362 13.3195C116.883 13.8199 117.279 14.4142 117.55 15.1023H117.769L117.925 12.0371H121.679V28.6772H117.769V25.5806H117.55C117.154 26.6024 116.476 27.426 115.517 28.0516C114.558 28.6563 113.401 28.9587 112.045 28.9587ZM113.515 25.7683C114.454 25.7683 115.225 25.5493 115.83 25.1114C116.455 24.6735 116.925 24.1105 117.237 23.4224C117.55 22.7134 117.707 21.9732 117.707 21.2016V19.4813C117.707 18.6889 117.55 17.9487 117.237 17.2606C116.925 16.5516 116.455 15.9886 115.83 15.5715C115.225 15.1336 114.454 14.9147 113.515 14.9147C112.681 14.9147 111.951 15.1128 111.326 15.509C110.7 15.9052 110.21 16.5099 109.856 17.3231C109.501 18.1155 109.324 19.1268 109.324 20.3571C109.324 21.5457 109.501 22.5466 109.856 23.3599C110.21 24.1731 110.7 24.7778 111.326 25.174C111.951 25.5702 112.681 25.7683 113.515 25.7683Z" fill="white"/>
<path d="M92.7444 28.9587C91.7435 28.9587 90.826 28.7814 89.9919 28.427C89.1786 28.0516 88.4696 27.499 87.8649 26.7692C87.2811 26.0394 86.8327 25.1427 86.52 24.0793C86.2072 22.9949 86.0508 21.7542 86.0508 20.3571C86.0508 18.4596 86.3219 16.8748 86.864 15.6028C87.427 14.31 88.209 13.3403 89.2099 12.6939C90.2317 12.0475 91.4098 11.7243 92.7444 11.7243C93.6619 11.7243 94.4751 11.8702 95.1841 12.1622C95.9139 12.4333 96.5395 12.819 97.0608 13.3195C97.5821 13.8199 97.9783 14.4142 98.2494 15.1023H98.4683L98.6247 12.0371H102.378V28.6772H98.4683V25.5806H98.2494C97.8532 26.6024 97.1755 27.426 96.2163 28.0516C95.2571 28.6563 94.0998 28.9587 92.7444 28.9587ZM94.2144 25.7683C95.1528 25.7683 95.9243 25.5493 96.529 25.1114C97.1546 24.6735 97.6238 24.1105 97.9366 23.4224C98.2494 22.7134 98.4057 21.9732 98.4057 21.2016V19.4813C98.4057 18.6889 98.2494 17.9487 97.9366 17.2606C97.6238 16.5516 97.1546 15.9886 96.529 15.5715C95.9243 15.1336 95.1528 14.9147 94.2144 14.9147C93.3804 14.9147 92.6505 15.1128 92.025 15.509C91.3994 15.9052 90.9094 16.5099 90.5549 17.3231C90.2004 18.1155 90.0231 19.1268 90.0231 20.3571C90.0231 21.5457 90.2004 22.5466 90.5549 23.3599C90.9094 24.1731 91.3994 24.7778 92.025 25.174C92.6505 25.5702 93.3804 25.7683 94.2144 25.7683Z" fill="white"/>
<path d="M74.5396 28.9587C72.517 28.9587 70.8175 28.6459 69.4412 28.0203C68.0859 27.3948 67.0641 26.519 66.376 25.3929C65.6878 24.2669 65.3334 22.9845 65.3125 21.5457H69.5351C69.5559 22.4006 69.7436 23.1409 70.0981 23.7665C70.4734 24.392 71.0364 24.8821 71.7871 25.2366C72.5378 25.591 73.5074 25.7683 74.696 25.7683C76.114 25.7683 77.2504 25.5076 78.1054 24.9863C78.9603 24.4442 79.3878 23.6518 79.3878 22.6092C79.3878 22.0045 79.2939 21.504 79.1063 21.1078C78.9186 20.6908 78.6058 20.3467 78.1679 20.0756C77.73 19.8045 77.1462 19.5752 76.4163 19.3875C75.7074 19.1998 74.8107 19.0122 73.7264 18.8245C72.4336 18.616 71.2867 18.3449 70.2858 18.0112C69.3057 17.6568 68.482 17.2293 67.8148 16.7288C67.1475 16.2284 66.647 15.6237 66.3134 14.9147C65.9798 14.1848 65.813 13.3195 65.813 12.3186C65.813 10.9423 66.157 9.75374 66.8451 8.75283C67.5541 7.75192 68.555 6.98038 69.8479 6.43822C71.1407 5.87521 72.6838 5.59371 74.4771 5.59371C76.2495 5.59371 77.7613 5.87521 79.0124 6.43822C80.2844 7.00124 81.2645 7.79362 81.9526 8.81538C82.6407 9.81629 82.9848 10.984 82.9848 12.3186H78.8248C78.7831 11.5053 78.5641 10.8381 78.1679 10.3167C77.7717 9.77459 77.24 9.3784 76.5727 9.12817C75.9263 8.87794 75.1756 8.75283 74.3207 8.75283C73.4449 8.75283 72.6838 8.87794 72.0374 9.12817C71.4118 9.3784 70.9322 9.73288 70.5986 10.1916C70.2649 10.6295 70.0981 11.1613 70.0981 11.7868C70.0981 12.5584 70.2858 13.1527 70.6611 13.5697C71.0573 13.9659 71.6829 14.2787 72.5378 14.5081C73.4136 14.7374 74.5396 14.9668 75.9159 15.1962C76.8959 15.363 77.8447 15.5715 78.7622 15.8218C79.7006 16.072 80.5347 16.4473 81.2645 16.9478C82.0152 17.4274 82.6095 18.0947 83.0474 18.9496C83.4853 19.7837 83.7042 20.868 83.7042 22.2026C83.7042 23.5371 83.3601 24.7153 82.672 25.737C81.9839 26.7588 80.9621 27.5512 79.6067 28.1142C78.2513 28.6772 76.5623 28.9587 74.5396 28.9587Z" fill="white"/>
<defs>
<linearGradient id="paint0_linear_759_8758" x1="0" y1="24.8928" x2="38.8842" y2="24.8928" gradientUnits="userSpaceOnUse">
<stop stop-color="#BF2938"/>
<stop offset="1" stop-color="#600509"/>
</linearGradient>
</defs>
</svg>
