<svg width="153" height="30" viewBox="0 0 153 30" fill="none" xmlns="http://www.w3.org/2000/svg">
<path fill-rule="evenodd" clip-rule="evenodd" d="M17.4182 29.3403C20.464 30.7961 23.44 29.6939 26.3867 27.4856C21.9617 29.247 16.6246 24.7614 10.0151 16.3071L9.58828 16.4694V16.9529C9.58828 17.5508 9.09991 18.0398 8.50148 18.0398L5.64133 18.0398L5.63097 18.0398C7.85519 20.2637 15.3872 28.3693 17.4182 29.3403ZM5.42854 16.9529V14.0905C5.42854 13.9734 5.52457 13.8779 5.64164 13.8779L8.50178 13.8779C8.61946 13.8779 8.71488 13.9737 8.71488 14.0905L8.71488 16.9529C8.71488 17.07 8.61946 17.1664 8.50178 17.1664L5.64164 17.1664C5.52457 17.1664 5.42854 17.07 5.42854 16.9529ZM8.87218 12.9774V10.1153C8.87218 9.9985 8.9676 9.9021 9.08436 9.9021L11.9451 9.9021C12.0619 9.9021 12.1582 9.9985 12.1582 10.1153V12.9774C12.1582 13.0951 12.0619 13.1909 11.9451 13.1909L9.08436 13.1909C8.9676 13.1909 8.87218 13.0951 8.87218 12.9774ZM2.63547 12.6885L2.63547 9.82645C2.63547 9.7087 2.7318 9.61321 2.84856 9.61321L5.70932 9.61321C5.82608 9.61321 5.92241 9.7087 5.92241 9.82645V12.6885C5.92241 12.8059 5.82638 12.9017 5.70932 12.9017L2.84856 12.9017C2.73211 12.9017 2.63547 12.8059 2.63547 12.6885ZM6.78576 9.55007L6.78576 7.89025C6.78576 7.82222 6.84094 7.7664 6.90892 7.7664L8.56763 7.7664C8.63562 7.7664 8.69079 7.82253 8.69079 7.89025V9.55007C8.69079 9.6184 8.63562 9.67361 8.56763 9.67361L6.90892 9.67361C6.84094 9.67361 6.78576 9.6184 6.78576 9.55007ZM4.11645 8.69774L4.11645 7.56598C4.11645 7.5193 4.15456 7.48087 4.2009 7.48087L5.33191 7.48087C5.37855 7.48087 5.41635 7.5193 5.41635 7.56598L5.41635 8.69774C5.41635 8.74411 5.37855 8.78224 5.33191 8.78224L4.2009 8.78224C4.15486 8.78224 4.11645 8.74411 4.11645 8.69774ZM1.99771 16.4871V15.1872C1.99771 15.1338 2.04161 15.0908 2.09466 15.0908L3.39395 15.0908C3.4473 15.0908 3.49089 15.1341 3.49089 15.1872V16.4871C3.49089 16.5411 3.4473 16.5844 3.39395 16.5844L2.09466 16.5844C2.04161 16.5841 1.99771 16.5411 1.99771 16.4871ZM0 10.6333L0 9.33256C0 9.27948 0.0432893 9.23647 0.0960292 9.23647L1.39532 9.23647C1.44897 9.23647 1.49226 9.27979 1.49226 9.33256L1.49226 10.6333C1.49226 10.6864 1.44897 10.7294 1.39532 10.7294L0.0960292 10.7294C0.0432893 10.7297 0 10.6864 0 10.6333ZM21.887 26.0228C26.7492 28.3431 30.4778 24.7916 28.7222 18.0059C28.1817 27.9584 20.842 21.713 13.1542 9.99637C12.9173 9.63518 13.0319 9.73584 13.0319 10.1153V12.9774C13.0319 13.5753 12.5426 14.0649 11.9451 14.0649L9.66206 14.0649C12.1174 17.398 18.0294 24.1818 21.887 26.0228Z" fill="#002101"/>
<path fill-rule="evenodd" clip-rule="evenodd" d="M27.1529 0.660085C24.1074 -0.796257 21.1311 0.305912 18.1847 2.51422C22.6094 0.753126 27.9468 5.2396 34.556 13.6927L34.9831 13.5304V13.0472C34.9831 12.4487 35.4715 11.96 36.069 11.96L38.9298 11.96L38.9401 11.96C36.7162 9.73644 29.1842 1.63077 27.1529 0.660085ZM39.1428 13.0475V15.9096C39.1428 16.0264 39.0465 16.1228 38.9298 16.1228L36.069 16.1228C35.9522 16.1228 35.8568 16.0267 35.8568 15.9096V13.0475C35.8568 12.9301 35.9522 12.8343 36.069 12.8343L38.9298 12.8343C39.0465 12.8343 39.1428 12.9301 39.1428 13.0475ZM35.6995 17.0224V19.8845C35.6995 20.0022 35.6041 20.0977 35.4864 20.0977L32.6263 20.0977C32.5095 20.0977 32.4132 20.0022 32.4132 19.8845V17.0224C32.4132 16.905 32.5092 16.8092 32.6263 16.8092L35.4864 16.8092C35.6041 16.8092 35.6995 16.905 35.6995 17.0224ZM41.935 17.3116V20.1737C41.935 20.2911 41.8393 20.3869 41.7225 20.3869L38.8618 20.3869C38.745 20.3869 38.6484 20.2911 38.6484 20.1737V17.3116C38.6484 17.1948 38.7447 17.0984 38.8618 17.0984L41.7225 17.0984C41.8396 17.0984 41.935 17.1948 41.935 17.3116ZM37.7859 20.4507V22.1105C37.7859 22.1785 37.7308 22.2337 37.6628 22.2337L36.0041 22.2337C35.9361 22.2337 35.8803 22.1785 35.8803 22.1105V20.4507C35.8803 20.3826 35.9361 20.3268 36.0041 20.3268L37.6628 20.3268C37.7308 20.3265 37.7859 20.3826 37.7859 20.4507ZM40.4549 21.3027V22.4347C40.4549 22.4808 40.4165 22.5189 40.3705 22.5189L39.2392 22.5189C39.1925 22.5189 39.155 22.4808 39.155 22.4347V21.3027C39.155 21.256 39.1925 21.2176 39.2392 21.2176L40.3705 21.2176C40.4165 21.2179 40.4549 21.256 40.4549 21.3027ZM42.5737 13.513V14.8132C42.5737 14.8663 42.5298 14.9102 42.4764 14.9102L41.1774 14.9102C41.1241 14.9102 41.0802 14.8666 41.0802 14.8132V13.513C41.0802 13.46 41.1241 13.416 41.1774 13.416L42.4764 13.416C42.5298 13.416 42.5737 13.46 42.5737 13.513ZM44.5714 19.3674V20.6676C44.5714 20.7206 44.5281 20.7636 44.4751 20.7636L43.1752 20.7636C43.1221 20.7636 43.0791 20.7203 43.0791 20.6676V19.3674C43.0791 19.3137 43.1224 19.2704 43.1752 19.2704L44.4751 19.2704C44.5284 19.2704 44.5714 19.3137 44.5714 19.3674ZM22.6847 3.97697C17.8225 1.65701 14.0939 5.20818 15.8495 11.9951C16.3894 2.04169 23.7297 8.28773 31.4166 20.0034C31.6535 20.3649 31.5398 20.2643 31.5398 19.8845V17.0224C31.5398 16.4245 32.0291 15.9352 32.6263 15.9352L34.9093 15.9352C32.4543 12.6018 26.5423 5.8189 22.6847 3.97697Z" fill="#59D51D"/>
<path d="M146.481 25.6601C145.433 25.6601 144.526 25.5037 143.759 25.1909C142.993 24.8938 142.383 24.4637 141.93 23.9007C141.492 23.3533 141.242 22.7121 141.179 21.9771H143.994C144.057 22.2899 144.197 22.5635 144.416 22.7981C144.651 23.0327 144.948 23.2126 145.308 23.3377C145.667 23.4784 146.082 23.5488 146.551 23.5488C147.255 23.5488 147.834 23.4472 148.287 23.2438C148.756 23.0405 149.1 22.7278 149.319 22.3055C149.554 21.8832 149.671 21.3359 149.671 20.6634V18.3644H149.507C149.241 19.0838 148.756 19.6703 148.052 20.1238C147.349 20.5617 146.52 20.7807 145.566 20.7807C144.815 20.7807 144.135 20.6477 143.525 20.3819C142.931 20.116 142.414 19.7328 141.977 19.2324C141.539 18.7163 141.202 18.0907 140.968 17.3557C140.733 16.605 140.616 15.7448 140.616 14.7752C140.616 13.4772 140.819 12.3902 141.226 11.5144C141.648 10.623 142.235 9.95052 142.985 9.49698C143.736 9.0278 144.612 8.79322 145.613 8.79322C146.551 8.79322 147.364 9.01217 148.052 9.45007C148.756 9.88796 149.241 10.4588 149.507 11.1626H149.671L149.765 9.02781H152.604V20.1942C152.604 21.1951 152.455 22.0396 152.158 22.7278C151.876 23.4315 151.462 23.9945 150.914 24.4168C150.367 24.8547 149.718 25.1675 148.967 25.3551C148.232 25.5585 147.403 25.6601 146.481 25.6601ZM146.621 18.5052C147.278 18.5052 147.826 18.3644 148.264 18.0829C148.717 17.7858 149.061 17.4104 149.296 16.9569C149.53 16.4877 149.656 16.0107 149.671 15.5259V14.0245C149.656 13.5241 149.53 13.0549 149.296 12.617C149.061 12.1635 148.725 11.7959 148.287 11.5144C147.849 11.2173 147.302 11.0687 146.645 11.0687C146.035 11.0687 145.495 11.2095 145.026 11.491C144.573 11.7725 144.221 12.1869 143.971 12.7343C143.72 13.2817 143.595 13.962 143.595 14.7752C143.595 15.6041 143.72 16.3 143.971 16.8631C144.236 17.4104 144.596 17.8249 145.05 18.1064C145.503 18.3722 146.027 18.5052 146.621 18.5052Z" fill="#002101"/>
<path d="M126.753 21.5079V9.02781H129.569L129.686 11.3971H129.827C130.186 10.5214 130.734 9.87232 131.469 9.45007C132.204 9.01217 133.025 8.79322 133.932 8.79322C134.557 8.79322 135.136 8.89487 135.668 9.09818C136.215 9.28585 136.684 9.59082 137.075 10.0131C137.482 10.4197 137.795 10.9592 138.014 11.6317C138.248 12.2886 138.366 13.0862 138.366 14.0245V21.5079H135.433V14.6579C135.433 13.876 135.339 13.2348 135.152 12.7343C134.964 12.2182 134.675 11.835 134.284 11.5848C133.908 11.3346 133.416 11.2095 132.806 11.2095C132.149 11.2095 131.586 11.3659 131.117 11.6787C130.663 11.9914 130.311 12.4059 130.061 12.922C129.811 13.4381 129.686 14.0089 129.686 14.6345V21.5079H126.753Z" fill="#002101"/>
<path d="M120.66 21.5079V9.02781H123.592V21.5079H120.66ZM120.66 7.2684V4.40642H123.592V7.2684H120.66Z" fill="#002101"/>
<path d="M106.684 21.5079V4.40642H109.663V14.5875L110.719 13.3911L114.895 9.02781H118.531L113.698 13.9307L118.648 21.5079H115.199L112.384 17.168L111.634 15.8778L109.663 17.8249V21.5079H106.684Z" fill="#002101"/>
<path d="M98.9561 21.7425C97.8457 21.7425 96.8917 21.5705 96.0941 21.2264C95.2965 20.8667 94.6787 20.3741 94.2408 19.7485C93.8186 19.1229 93.6074 18.3957 93.6074 17.5668H96.4929C96.5085 18.2862 96.7509 18.8101 97.2201 19.1386C97.6893 19.467 98.2992 19.6312 99.0499 19.6312C99.785 19.6312 100.34 19.4983 100.716 19.2324C101.107 18.9509 101.302 18.5677 101.302 18.0829C101.302 17.6919 101.216 17.3948 101.044 17.1915C100.872 16.9725 100.59 16.8083 100.199 16.6988C99.8084 16.5737 99.2923 16.4643 98.6511 16.3704C97.6033 16.214 96.7275 16.0029 96.0237 15.737C95.3199 15.4555 94.796 15.0724 94.452 14.5875C94.1079 14.1027 93.9358 13.4615 93.9358 12.6639C93.9358 11.882 94.147 11.2017 94.5692 10.623C94.9915 10.0444 95.5858 9.59864 96.3521 9.28585C97.1185 8.95743 98.0177 8.79322 99.0499 8.79322C100.051 8.79322 100.919 8.95743 101.654 9.28585C102.405 9.59864 102.983 10.0522 103.39 10.6465C103.812 11.2251 104.031 11.9211 104.047 12.7343H101.161C101.161 12.2964 101.067 11.9445 100.88 11.6787C100.708 11.3971 100.457 11.1938 100.129 11.0687C99.8006 10.9436 99.4175 10.8811 98.9796 10.8811C98.3227 10.8811 97.8066 11.0218 97.4313 11.3033C97.0559 11.5692 96.8682 11.9367 96.8682 12.4059C96.8682 12.7499 96.9621 13.0314 97.1497 13.2504C97.3531 13.4537 97.6737 13.6179 98.1116 13.743C98.5495 13.8681 99.1125 13.9776 99.8006 14.0715C100.551 14.1809 101.2 14.3217 101.748 14.4937C102.311 14.6657 102.78 14.9003 103.155 15.1975C103.531 15.479 103.812 15.8387 104 16.2766C104.203 16.6988 104.305 17.2149 104.305 17.8249C104.305 19.076 103.812 20.0456 102.827 20.7338C101.857 21.4062 100.567 21.7425 98.9561 21.7425Z" fill="#002101"/>
<path d="M84.0356 21.719C83.2849 21.719 82.5968 21.5861 81.9712 21.3202C81.3613 21.0387 80.8295 20.6243 80.376 20.0769C79.9381 19.5295 79.6019 18.8571 79.3673 18.0595C79.1327 17.2462 79.0154 16.3157 79.0154 15.2679C79.0154 13.8447 79.2187 12.6561 79.6253 11.7021C80.0476 10.7325 80.6341 10.0053 81.3847 9.52044C82.1511 9.03562 83.0347 8.79322 84.0356 8.79322C84.7238 8.79322 85.3337 8.90269 85.8654 9.12164C86.4128 9.32495 86.882 9.61428 87.273 9.98962C87.664 10.365 87.9611 10.8107 88.1644 11.3268H88.3286L88.4459 9.02781H91.261V21.5079H88.3286V19.1855H88.1644C87.8673 19.9518 87.359 20.5695 86.6396 21.0387C85.9202 21.4923 85.0522 21.719 84.0356 21.719ZM85.1382 19.3262C85.842 19.3262 86.4206 19.162 86.8742 18.8336C87.3434 18.5052 87.6952 18.0829 87.9298 17.5668C88.1644 17.0351 88.2817 16.4799 88.2817 15.9012V14.611C88.2817 14.0167 88.1644 13.4615 87.9298 12.9454C87.6952 12.4137 87.3434 11.9914 86.8742 11.6787C86.4206 11.3502 85.842 11.186 85.1382 11.186C84.5126 11.186 83.9652 11.3346 83.4961 11.6317C83.0269 11.9289 82.6594 12.3824 82.3935 12.9923C82.1276 13.5866 81.9947 14.3451 81.9947 15.2679C81.9947 16.1593 82.1276 16.91 82.3935 17.5199C82.6594 18.1298 83.0269 18.5834 83.4961 18.8805C83.9652 19.1777 84.5126 19.3262 85.1382 19.3262Z" fill="#002101"/>
<path d="M69.5588 21.719C68.8081 21.719 68.12 21.5861 67.4944 21.3202C66.8845 21.0387 66.3527 20.6243 65.8992 20.0769C65.4613 19.5295 65.1251 18.8571 64.8905 18.0595C64.6559 17.2462 64.5386 16.3157 64.5386 15.2679C64.5386 13.8447 64.7419 12.6561 65.1485 11.7021C65.5708 10.7325 66.1573 10.0053 66.9079 9.52044C67.6743 9.03562 68.5579 8.79322 69.5588 8.79322C70.247 8.79322 70.8569 8.90269 71.3886 9.12164C71.936 9.32495 72.4052 9.61428 72.7962 9.98962C73.1872 10.365 73.4843 10.8107 73.6876 11.3268H73.8518L73.9691 9.02781H76.7842V21.5079H73.8518V19.1855H73.6876C73.3905 19.9518 72.8822 20.5695 72.1628 21.0387C71.4434 21.4923 70.5754 21.719 69.5588 21.719ZM70.6614 19.3262C71.3652 19.3262 71.9438 19.162 72.3974 18.8336C72.8665 18.5052 73.2184 18.0829 73.453 17.5668C73.6876 17.0351 73.8049 16.4799 73.8049 15.9012V14.611C73.8049 14.0167 73.6876 13.4615 73.453 12.9454C73.2184 12.4137 72.8665 11.9914 72.3974 11.6787C71.9438 11.3502 71.3652 11.186 70.6614 11.186C70.0358 11.186 69.4884 11.3346 69.0193 11.6317C68.5501 11.9289 68.1825 12.3824 67.9167 12.9923C67.6508 13.5866 67.5179 14.3451 67.5179 15.2679C67.5179 16.1593 67.6508 16.91 67.9167 17.5199C68.1825 18.1298 68.5501 18.5834 69.0193 18.8805C69.4884 19.1777 70.0358 19.3262 70.6614 19.3262Z" fill="#002101"/>
<path d="M55.9033 21.719C54.3863 21.719 53.1117 21.4844 52.0795 21.0153C51.0629 20.5461 50.2966 19.8892 49.7805 19.0447C49.2644 18.2002 48.9985 17.2384 48.9829 16.1593H52.1499C52.1655 16.8005 52.3063 17.3557 52.5721 17.8249C52.8537 18.294 53.2759 18.6616 53.8389 18.9274C54.402 19.1933 55.1292 19.3262 56.0206 19.3262C57.0841 19.3262 57.9365 19.1307 58.5777 18.7398C59.2189 18.3331 59.5395 17.7388 59.5395 16.9569C59.5395 16.5034 59.4691 16.128 59.3284 15.8309C59.1876 15.5181 58.953 15.26 58.6246 15.0567C58.2962 14.8534 57.8583 14.6814 57.3109 14.5406C56.7791 14.3999 56.1066 14.2591 55.2934 14.1184C54.3238 13.962 53.4636 13.7587 52.7129 13.5084C51.9779 13.2426 51.3601 12.922 50.8596 12.5466C50.3592 12.1713 49.9838 11.7178 49.7336 11.186C49.4834 10.6386 49.3583 9.98962 49.3583 9.23894C49.3583 8.20675 49.6163 7.31531 50.1324 6.56463C50.6641 5.81395 51.4148 5.2353 52.3845 4.82868C53.3541 4.40642 54.5114 4.19529 55.8564 4.19529C57.1858 4.19529 58.3196 4.40642 59.258 4.82868C60.212 5.25094 60.947 5.84523 61.4631 6.61155C61.9792 7.36223 62.2373 8.23803 62.2373 9.23894H59.1172C59.086 8.62901 58.9217 8.12855 58.6246 7.73757C58.3274 7.33095 57.9286 7.03381 57.4282 6.84614C56.9434 6.65847 56.3803 6.56463 55.7391 6.56463C55.0823 6.56463 54.5114 6.65847 54.0266 6.84614C53.5574 7.03381 53.1977 7.29967 52.9475 7.64374C52.6973 7.97216 52.5721 8.37096 52.5721 8.84014C52.5721 9.41879 52.7129 9.8645 52.9944 10.1773C53.2916 10.4744 53.7607 10.709 54.402 10.8811C55.0588 11.0531 55.9033 11.2251 56.9355 11.3971C57.6706 11.5223 58.3822 11.6787 59.0703 11.8663C59.7741 12.054 60.3997 12.3355 60.947 12.7108C61.5101 13.0705 61.9558 13.571 62.2842 14.2122C62.6126 14.8378 62.7768 15.651 62.7768 16.6519C62.7768 17.6528 62.5188 18.5364 62.0027 19.3028C61.4866 20.0691 60.7203 20.6634 59.7037 21.0856C58.6871 21.5079 57.4204 21.719 55.9033 21.719Z" fill="#002101"/>
</svg>
