<svg width="229" height="45" viewBox="0 0 229 45" fill="none" xmlns="http://www.w3.org/2000/svg">
<g clip-path="url(#clip0_28322_2254)">
<path fill-rule="evenodd" clip-rule="evenodd" d="M26.0488 44.0105C30.6037 46.1941 35.0543 44.5408 39.4611 41.2283C32.8437 43.8705 24.862 37.1422 14.9775 24.4606L14.3392 24.7041V25.4293C14.3392 26.3262 13.6089 27.0597 12.7139 27.0597H8.43658H8.42108C11.7474 30.3955 23.0115 42.554 26.0488 44.0105ZM8.11836 25.4293V21.1358C8.11836 20.9601 8.26196 20.8169 8.43703 20.8169H12.7144C12.8904 20.8169 13.0331 20.9605 13.0331 21.1358V25.4293C13.0331 25.605 12.8904 25.7497 12.7144 25.7497H8.43703C8.26196 25.7497 8.11836 25.605 8.11836 25.4293ZM13.2683 19.4661V15.173C13.2683 14.9978 13.411 14.8532 13.5856 14.8532H17.8639C18.0385 14.8532 18.1825 14.9978 18.1825 15.173V19.4661C18.1825 19.6427 18.0385 19.7864 17.8639 19.7864H13.5856C13.411 19.7864 13.2683 19.6427 13.2683 19.4661ZM3.94132 19.0328V14.7397C3.94132 14.563 4.0854 14.4198 4.26001 14.4198H8.53825C8.71286 14.4198 8.85693 14.563 8.85693 14.7397V19.0328C8.85693 19.2089 8.71332 19.3526 8.53825 19.3526H4.26001C4.08585 19.3526 3.94132 19.2089 3.94132 19.0328ZM10.1481 14.3251V11.8354C10.1481 11.7334 10.2306 11.6496 10.3323 11.6496H12.8129C12.9145 11.6496 12.997 11.7338 12.997 11.8354V14.3251C12.997 14.4276 12.9145 14.5104 12.8129 14.5104H10.3323C10.2306 14.5104 10.1481 14.4276 10.1481 14.3251ZM6.15613 13.0466V11.349C6.15613 11.279 6.21312 11.2213 6.28241 11.2213H7.97384C8.04358 11.2213 8.10012 11.279 8.10012 11.349V13.0466C8.10012 13.1162 8.04358 13.1734 7.97384 13.1734H6.28241C6.21357 13.1734 6.15613 13.1162 6.15613 13.0466ZM2.98756 24.7306V22.7808C2.98756 22.7007 3.05322 22.6362 3.13254 22.6362H5.07562C5.15541 22.6362 5.2206 22.7012 5.2206 22.7808V24.7306C5.2206 24.8116 5.15541 24.8766 5.07562 24.8766H3.13254C3.05322 24.8761 2.98756 24.8116 2.98756 24.7306ZM0 15.95V13.9988C0 13.9193 0.0647389 13.8548 0.143611 13.8548H2.08669C2.16693 13.8548 2.23167 13.9197 2.23167 13.9988V15.95C2.23167 16.0297 2.16693 16.0942 2.08669 16.0942H0.143611C0.0647389 16.0946 0 16.0297 0 15.95ZM32.732 39.0342C40.0032 42.5147 45.5794 37.1874 42.9539 27.0089C42.1455 41.9377 31.1691 32.5695 19.6719 14.9946C19.3178 14.4528 19.4891 14.6038 19.4891 15.173V19.4661C19.4891 20.363 18.7574 21.0974 17.8639 21.0974H14.4495C18.1215 26.0969 26.9628 36.2727 32.732 39.0342Z" fill="white"/>
<path fill-rule="evenodd" clip-rule="evenodd" d="M40.6091 0.990116C36.0546 -1.19439 31.6035 0.458861 27.1971 3.77132C33.8142 1.12968 41.7962 7.8594 51.6803 20.5391L52.3191 20.2957V19.5709C52.3191 18.673 53.0495 17.94 53.943 17.94H58.2212H58.2367C54.9109 14.6047 43.6468 2.44616 40.6091 0.990116ZM58.5399 19.5712V23.8643C58.5399 24.0397 58.3959 24.1842 58.2212 24.1842H53.943C53.7684 24.1842 53.6257 24.04 53.6257 23.8643V19.5712C53.6257 19.3951 53.7684 19.2515 53.943 19.2515H58.2212C58.3959 19.2515 58.5399 19.3951 58.5399 19.5712ZM53.3904 25.5337V29.8267C53.3904 30.0034 53.2477 30.1465 53.0718 30.1465H48.7945C48.6199 30.1465 48.4757 30.0034 48.4757 29.8267V25.5337C48.4757 25.3575 48.6194 25.2138 48.7945 25.2138H53.0718C53.2477 25.2138 53.3904 25.3575 53.3904 25.5337ZM62.7156 25.9674V30.2605C62.7156 30.4367 62.5724 30.5803 62.3978 30.5803H58.1196C57.945 30.5803 57.8004 30.4367 57.8004 30.2605V25.9674C57.8004 25.7921 57.9445 25.6476 58.1196 25.6476H62.3978C62.5729 25.6476 62.7156 25.7921 62.7156 25.9674ZM56.5107 30.6759V33.1657C56.5107 33.2677 56.4282 33.3505 56.3265 33.3505H53.8459C53.7442 33.3505 53.6608 33.2677 53.6608 33.1657V30.6759C53.6608 30.5739 53.7442 30.4902 53.8459 30.4902H56.3265C56.4282 30.4897 56.5107 30.5739 56.5107 30.6759ZM60.5021 31.954V33.6521C60.5021 33.7212 60.4448 33.7784 60.3759 33.7784H58.684C58.6143 33.7784 58.5582 33.7212 58.5582 33.6521V31.954C58.5582 31.884 58.6143 31.8263 58.684 31.8263H60.3759C60.4448 31.8268 60.5021 31.884 60.5021 31.954ZM63.6708 20.2696V22.2198C63.6708 22.2994 63.605 22.3653 63.5253 22.3653H61.5827C61.5028 22.3653 61.4372 22.2998 61.4372 22.2198V20.2696C61.4372 20.1899 61.5028 20.1241 61.5827 20.1241H63.5253C63.605 20.1241 63.6708 20.1899 63.6708 20.2696ZM66.6583 29.0511V31.0013C66.6583 31.0809 66.5935 31.1454 66.5142 31.1454H64.5702C64.4909 31.1454 64.4266 31.0805 64.4266 31.0013V29.0511C64.4266 28.9705 64.4913 28.9056 64.5702 28.9056H66.5142C66.594 28.9056 66.6583 28.9705 66.6583 29.0511ZM33.9268 5.96545C26.6556 2.4855 21.0793 7.81226 23.7049 17.9926C24.5123 3.06253 35.4896 12.4316 46.9854 30.0052C47.3396 30.5474 47.1696 30.3964 47.1696 29.8267V25.5337C47.1696 24.6367 47.9014 23.9028 48.7945 23.9028H52.2087C48.5373 18.9027 39.6959 8.72834 33.9268 5.96545Z" fill="url(#paint0_linear_28322_2254)"/>
<path fill-rule="evenodd" clip-rule="evenodd" d="M40.6091 0.990116C36.0546 -1.19439 31.6035 0.458861 27.1971 3.77132C33.8142 1.12968 41.7962 7.8594 51.6803 20.5391L52.3191 20.2957V19.5709C52.3191 18.673 53.0495 17.94 53.943 17.94H58.2212H58.2367C54.9109 14.6047 43.6468 2.44616 40.6091 0.990116ZM58.5399 19.5712V23.8643C58.5399 24.0397 58.3959 24.1842 58.2212 24.1842H53.943C53.7684 24.1842 53.6257 24.04 53.6257 23.8643V19.5712C53.6257 19.3951 53.7684 19.2515 53.943 19.2515H58.2212C58.3959 19.2515 58.5399 19.3951 58.5399 19.5712ZM53.3904 25.5337V29.8267C53.3904 30.0034 53.2477 30.1465 53.0718 30.1465H48.7945C48.6199 30.1465 48.4757 30.0034 48.4757 29.8267V25.5337C48.4757 25.3575 48.6194 25.2138 48.7945 25.2138H53.0718C53.2477 25.2138 53.3904 25.3575 53.3904 25.5337ZM62.7156 25.9674V30.2605C62.7156 30.4367 62.5724 30.5803 62.3978 30.5803H58.1196C57.945 30.5803 57.8004 30.4367 57.8004 30.2605V25.9674C57.8004 25.7921 57.9445 25.6476 58.1196 25.6476H62.3978C62.5729 25.6476 62.7156 25.7921 62.7156 25.9674ZM56.5107 30.6759V33.1657C56.5107 33.2677 56.4282 33.3505 56.3265 33.3505H53.8459C53.7442 33.3505 53.6608 33.2677 53.6608 33.1657V30.6759C53.6608 30.5739 53.7442 30.4902 53.8459 30.4902H56.3265C56.4282 30.4897 56.5107 30.5739 56.5107 30.6759ZM60.5021 31.954V33.6521C60.5021 33.7212 60.4448 33.7784 60.3759 33.7784H58.684C58.6143 33.7784 58.5582 33.7212 58.5582 33.6521V31.954C58.5582 31.884 58.6143 31.8263 58.684 31.8263H60.3759C60.4448 31.8268 60.5021 31.884 60.5021 31.954ZM63.6708 20.2696V22.2198C63.6708 22.2994 63.605 22.3653 63.5253 22.3653H61.5827C61.5028 22.3653 61.4372 22.2998 61.4372 22.2198V20.2696C61.4372 20.1899 61.5028 20.1241 61.5827 20.1241H63.5253C63.605 20.1241 63.6708 20.1899 63.6708 20.2696ZM66.6583 29.0511V31.0013C66.6583 31.0809 66.5935 31.1454 66.5142 31.1454H64.5702C64.4909 31.1454 64.4266 31.0805 64.4266 31.0013V29.0511C64.4266 28.9705 64.4913 28.9056 64.5702 28.9056H66.5142C66.594 28.9056 66.6583 28.9705 66.6583 29.0511ZM33.9268 5.96545C26.6556 2.4855 21.0793 7.81226 23.7049 17.9926C24.5123 3.06253 35.4896 12.4316 46.9854 30.0052C47.3396 30.5474 47.1696 30.3964 47.1696 29.8267V25.5337C47.1696 24.6367 47.9014 23.9028 48.7945 23.9028H52.2087C48.5373 18.9027 39.6959 8.72834 33.9268 5.96545Z" fill="#3B49E0"/>
<path d="M219.064 38.4901C217.497 38.4901 216.14 38.2556 214.994 37.7864C213.849 37.3407 212.936 36.6956 212.258 35.851C211.603 35.0299 211.229 34.0681 211.135 32.9655H215.345C215.438 33.4348 215.649 33.8453 215.977 34.1971C216.327 34.5491 216.772 34.8188 217.31 35.0065C217.848 35.2176 218.468 35.3232 219.169 35.3232C220.221 35.3232 221.087 35.1707 221.765 34.8658C222.467 34.5608 222.981 34.0916 223.309 33.4582C223.66 32.8248 223.835 32.0038 223.835 30.995V27.5466H223.59C223.192 28.6257 222.467 29.5054 221.415 30.1857C220.362 30.8426 219.122 31.171 217.696 31.171C216.573 31.171 215.555 30.9716 214.644 30.5728C213.755 30.1739 212.983 29.5993 212.328 28.8485C211.674 28.0744 211.171 27.1361 210.819 26.0335C210.469 24.9074 210.293 23.6173 210.293 22.1628C210.293 20.2157 210.598 18.5853 211.205 17.2716C211.837 15.9344 212.714 14.9258 213.836 14.2454C214.959 13.5417 216.269 13.1898 217.766 13.1898C219.169 13.1898 220.386 13.5182 221.415 14.175C222.467 14.8319 223.192 15.6882 223.59 16.7438H223.835L223.976 13.5417H228.22V30.2912C228.22 31.7926 227.999 33.0594 227.554 34.0916C227.133 35.1473 226.514 35.9918 225.695 36.6252C224.876 37.282 223.906 37.7512 222.782 38.0327C221.683 38.3376 220.444 38.4901 219.064 38.4901ZM219.274 27.7577C220.257 27.7577 221.076 27.5466 221.73 27.1244C222.408 26.6786 222.923 26.1156 223.274 25.4353C223.625 24.7316 223.811 24.0161 223.835 23.2889V21.0368C223.811 20.286 223.625 19.5824 223.274 18.9254C222.923 18.2452 222.421 17.6939 221.765 17.2716C221.11 16.8259 220.292 16.6031 219.31 16.6031C218.398 16.6031 217.59 16.8142 216.889 17.2364C216.211 17.6587 215.684 18.2804 215.31 19.1014C214.936 19.9225 214.749 20.9429 214.749 22.1628C214.749 23.4061 214.936 24.45 215.31 25.2945C215.708 26.1156 216.246 26.7373 216.924 27.1595C217.602 27.5583 218.386 27.7577 219.274 27.7577Z" fill="white"/>
<path d="M189.557 32.262V13.5418H193.767L193.941 17.0958H194.153C194.69 15.7821 195.509 14.8085 196.608 14.1752C197.707 13.5183 198.935 13.1899 200.292 13.1899C201.227 13.1899 202.093 13.3424 202.888 13.6473C203.706 13.9289 204.408 14.3863 204.993 15.0197C205.601 15.6296 206.069 16.4389 206.396 17.4477C206.747 18.433 206.922 19.6293 206.922 21.0369V32.262H202.537V21.987C202.537 20.8141 202.397 19.8522 202.116 19.1015C201.836 18.3273 201.403 17.7527 200.818 17.3773C200.257 17.002 199.52 16.8143 198.608 16.8143C197.626 16.8143 196.784 17.0489 196.082 17.5181C195.403 17.9872 194.877 18.6089 194.503 19.3831C194.129 20.1572 193.941 21.0135 193.941 21.9518V32.262H189.557Z" fill="white"/>
<path d="M180.443 32.2619V13.5417H184.829V32.2619H180.443ZM180.443 10.9026V6.60962H184.829V10.9026H180.443Z" fill="white"/>
<path d="M159.547 32.2619V6.60962H164.002V21.8813L165.58 20.0868L171.826 13.5417H177.263L170.036 20.896L177.439 32.2619H172.281L168.071 25.752L166.949 23.8167L164.002 26.7373V32.2619H159.547Z" fill="white"/>
<path d="M147.988 32.6138C146.328 32.6138 144.901 32.3557 143.708 31.8396C142.516 31.3001 141.592 30.5612 140.937 29.6228C140.305 28.6845 139.99 27.5936 139.99 26.3503H144.305C144.328 27.4294 144.691 28.2153 145.393 28.7079C146.094 29.2006 147.006 29.4468 148.129 29.4468C149.229 29.4468 150.059 29.2474 150.62 28.8486C151.205 28.4264 151.497 27.8517 151.497 27.1245C151.497 26.538 151.368 26.0923 151.111 25.7873C150.854 25.4589 150.433 25.2125 149.848 25.0484C149.263 24.8607 148.491 24.6964 147.532 24.5557C145.966 24.3212 144.656 24.0045 143.604 23.6057C142.551 23.1834 141.767 22.6086 141.253 21.8814C140.738 21.1542 140.481 20.1924 140.481 18.996C140.481 17.8231 140.797 16.8026 141.428 15.9346C142.06 15.0666 142.949 14.398 144.094 13.9289C145.24 13.4362 146.585 13.1899 148.129 13.1899C149.626 13.1899 150.924 13.4362 152.023 13.9289C153.146 14.398 154.012 15.0783 154.619 15.9698C155.251 16.8378 155.578 17.8817 155.601 19.1015H151.287C151.287 18.4447 151.146 17.9169 150.865 17.5181C150.608 17.0958 150.234 16.7909 149.743 16.6032C149.252 16.4155 148.678 16.3217 148.024 16.3217C147.042 16.3217 146.27 16.5328 145.709 16.955C145.147 17.3538 144.867 17.9051 144.867 18.6089C144.867 19.125 145.007 19.5472 145.287 19.8756C145.591 20.1806 146.07 20.427 146.726 20.6147C147.381 20.8023 148.223 20.9665 149.252 21.1072C150.375 21.2715 151.345 21.4826 152.164 21.7407C153.006 21.9987 153.707 22.3505 154.269 22.7963C154.829 23.2186 155.251 23.7581 155.531 24.4149C155.835 25.0484 155.988 25.8225 155.988 26.7374C155.988 28.6141 155.251 30.0685 153.777 31.1007C152.327 32.1094 150.398 32.6138 147.988 32.6138Z" fill="white"/>
<path d="M125.673 32.5787C124.551 32.5787 123.522 32.3793 122.586 31.9804C121.674 31.5582 120.878 30.9365 120.201 30.1155C119.546 29.2944 119.043 28.2857 118.692 27.0892C118.341 25.8694 118.166 24.4736 118.166 22.9019C118.166 20.7671 118.47 18.9843 119.078 17.5533C119.709 16.0988 120.586 15.0079 121.709 14.2807C122.855 13.5535 124.176 13.1899 125.673 13.1899C126.703 13.1899 127.615 13.3541 128.41 13.6825C129.228 13.9875 129.93 14.4215 130.515 14.9845C131.099 15.5476 131.544 16.2161 131.848 16.9903H132.094L132.269 13.5418H136.479V32.262H132.094V28.7783H131.848C131.403 29.9278 130.643 30.8544 129.567 31.5582C128.492 32.2384 127.193 32.5787 125.673 32.5787ZM127.322 28.9894C128.375 28.9894 129.24 28.7431 129.919 28.2505C130.62 27.7578 131.146 27.1245 131.498 26.3503C131.848 25.5528 132.024 24.7199 132.024 23.8519V21.9166C132.024 21.0252 131.848 20.1924 131.498 19.4182C131.146 18.6206 130.62 17.9872 129.919 17.5181C129.24 17.0254 128.375 16.7791 127.322 16.7791C126.387 16.7791 125.568 17.002 124.867 17.4477C124.165 17.8934 123.615 18.5737 123.218 19.4886C122.82 20.38 122.621 21.5178 122.621 22.9019C122.621 24.239 122.82 25.3651 123.218 26.28C123.615 27.1948 124.165 27.8751 124.867 28.3208C125.568 28.7666 126.387 28.9894 127.322 28.9894Z" fill="white"/>
<path d="M104.019 32.5787C102.897 32.5787 101.868 32.3793 100.932 31.9804C100.02 31.5582 99.2251 30.9365 98.5465 30.1155C97.8913 29.2944 97.3885 28.2857 97.038 27.0892C96.6874 25.8694 96.5117 24.4736 96.5117 22.9019C96.5117 20.7671 96.8155 18.9843 97.424 17.5533C98.0549 16.0988 98.9326 15.0079 100.055 14.2807C101.201 13.5535 102.523 13.1899 104.019 13.1899C105.048 13.1899 105.961 13.3541 106.756 13.6825C107.575 13.9875 108.276 14.4215 108.861 14.9845C109.446 15.5476 109.89 16.2161 110.194 16.9903H110.44L110.615 13.5418H114.825V32.262H110.44V28.7783H110.194C109.75 29.9278 108.99 30.8544 107.914 31.5582C106.838 32.2384 105.54 32.5787 104.019 32.5787ZM105.668 28.9894C106.72 28.9894 107.586 28.7431 108.265 28.2505C108.967 27.7578 109.493 27.1245 109.843 26.3503C110.194 25.5528 110.369 24.7199 110.369 23.8519V21.9166C110.369 21.0252 110.194 20.1924 109.843 19.4182C109.493 18.6206 108.967 17.9872 108.265 17.5181C107.586 17.0254 106.72 16.7791 105.668 16.7791C104.732 16.7791 103.914 17.002 103.213 17.4477C102.511 17.8934 101.961 18.5737 101.564 19.4886C101.167 20.38 100.967 21.5178 100.967 22.9019C100.967 24.239 101.167 25.3651 101.564 26.28C101.961 27.1948 102.511 27.8751 103.213 28.3208C103.914 28.7666 104.732 28.9894 105.668 28.9894Z" fill="white"/>
<path d="M83.6014 32.5786C81.3328 32.5786 79.4265 32.2267 77.8829 31.5229C76.3626 30.8192 75.2166 29.8339 74.4448 28.5671C73.6729 27.3003 73.2753 25.8576 73.252 24.239H77.9881C78.0115 25.2008 78.222 26.0336 78.6196 26.7373C79.0406 27.4411 79.6722 27.9924 80.5142 28.3912C81.3561 28.79 82.4437 28.9894 83.7768 28.9894C85.3673 28.9894 86.6419 28.6961 87.6009 28.1096C88.5598 27.4997 89.0393 26.6083 89.0393 25.4353C89.0393 24.7551 88.9341 24.192 88.7236 23.7463C88.5131 23.2771 88.1622 22.8901 87.671 22.5851C87.1799 22.2802 86.525 22.0221 85.7064 21.811C84.9112 21.5998 83.9055 21.3887 82.6893 21.1776C81.2392 20.943 79.9528 20.6381 78.8301 20.2627C77.7309 19.8639 76.8071 19.383 76.0586 18.82C75.3101 18.257 74.7489 17.5766 74.3746 16.779C74.0004 15.958 73.8133 14.9845 73.8133 13.8584C73.8133 12.3101 74.1992 10.973 74.971 9.84696C75.7663 8.72095 76.8889 7.85298 78.339 7.24305C79.7891 6.60967 81.5199 6.29297 83.5312 6.29297C85.5192 6.29297 87.215 6.60967 88.6183 7.24305C90.0449 7.87643 91.1442 8.76787 91.9161 9.91736C92.6879 11.0434 93.0738 12.3571 93.0738 13.8584H88.4078C88.361 12.9435 88.1155 12.1929 87.671 11.6064C87.2267 10.9964 86.6302 10.5507 85.8818 10.2692C85.1568 9.98777 84.3148 9.84696 83.3558 9.84696C82.3735 9.84696 81.5199 9.98777 80.7947 10.2692C80.0932 10.5507 79.5552 10.9495 79.181 11.4656C78.8067 11.9583 78.6196 12.5564 78.6196 13.2602C78.6196 14.1282 78.8301 14.7968 79.2511 15.266C79.6955 15.7117 80.3972 16.0635 81.3561 16.3216C82.3384 16.5796 83.6014 16.8377 85.1451 17.0957C86.2443 17.2834 87.3085 17.518 88.3376 17.7995C89.3901 18.081 90.3256 18.5033 91.1442 19.0663C91.9862 19.6059 92.6528 20.3565 93.144 21.3183C93.6356 22.2567 93.8805 23.4765 93.8805 24.9779C93.8805 26.4792 93.4944 27.8047 92.7229 28.9541C91.9512 30.1037 90.8051 30.9951 89.2849 31.6285C87.7646 32.2619 85.8701 32.5786 83.6014 32.5786Z" fill="white"/>
</g>
<defs>
<linearGradient id="paint0_linear_28322_2254" x1="23.0449" y1="16.8892" x2="66.6583" y2="16.8892" gradientUnits="userSpaceOnUse">
<stop stop-color="#663CF6"/>
<stop offset="0.2298" stop-color="#7C48EB"/>
<stop offset="0.52949" stop-color="#DF7CB5"/>
<stop offset="0.792976" stop-color="#FF9774"/>
<stop offset="1" stop-color="#FEE89C"/>
</linearGradient>
<clipPath id="clip0_28322_2254">
<rect width="229" height="45" fill="white"/>
</clipPath>
</defs>
</svg>
