<svg width="203" height="40" viewBox="0 0 203 40" fill="none" xmlns="http://www.w3.org/2000/svg">
<g clip-path="url(#clip0_26872_7)">
<path fill-rule="evenodd" clip-rule="evenodd" d="M23.0913 39.1204C27.1291 41.0614 31.0743 39.5918 34.9808 36.6474C29.1147 38.996 22.0393 33.0152 13.277 21.7427L12.7112 21.9592V22.6038C12.7112 23.4011 12.0638 24.0531 11.2704 24.0531H7.47872H7.46497C10.4137 27.0182 20.3988 37.8257 23.0913 39.1204ZM7.19662 22.6038V18.7874C7.19662 18.6312 7.32393 18.5039 7.47912 18.5039H11.2708C11.4268 18.5039 11.5534 18.6316 11.5534 18.7874V22.6038C11.5534 22.76 11.4268 22.8886 11.2708 22.8886H7.47912C7.32393 22.8886 7.19662 22.76 7.19662 22.6038ZM11.7618 17.3032V13.4871C11.7618 13.3313 11.8883 13.2028 12.0431 13.2028H15.8357C15.9904 13.2028 16.1181 13.3313 16.1181 13.4871V17.3032C16.1181 17.4602 15.9904 17.5879 15.8357 17.5879H12.0431C11.8883 17.5879 11.7618 17.4602 11.7618 17.3032ZM3.49384 16.918V13.1019C3.49384 12.9449 3.62155 12.8176 3.77634 12.8176H7.56884C7.72363 12.8176 7.85134 12.9449 7.85134 13.1019V16.918C7.85134 17.0746 7.72403 17.2023 7.56884 17.2023H3.77634C3.62195 17.2023 3.49384 17.0746 3.49384 16.918ZM8.99588 12.7334V10.5203C8.99588 10.4297 9.06905 10.3552 9.15919 10.3552H11.3581C11.4482 10.3552 11.5214 10.4301 11.5214 10.5203V12.7334C11.5214 12.8245 11.4482 12.8982 11.3581 12.8982H9.15919C9.06905 12.8982 8.99588 12.8245 8.99588 12.7334ZM5.45718 11.597V10.088C5.45718 10.0257 5.5077 9.97449 5.56913 9.97449H7.06851C7.13034 9.97449 7.18046 10.0257 7.18046 10.088V11.597C7.18046 11.6588 7.13034 11.7097 7.06851 11.7097H5.56913C5.5081 11.7097 5.45718 11.6588 5.45718 11.597ZM2.64836 21.9827V20.2496C2.64836 20.1784 2.70656 20.1211 2.77688 20.1211H4.49935C4.57008 20.1211 4.62787 20.1788 4.62787 20.2496V21.9827C4.62787 22.0547 4.57008 22.1125 4.49935 22.1125H2.77688C2.70656 22.1121 2.64836 22.0547 2.64836 21.9827ZM0 14.1777V12.4434C0 12.3727 0.0573887 12.3153 0.127306 12.3153H1.84978C1.9209 12.3153 1.97829 12.3731 1.97829 12.4434V14.1777C1.97829 14.2486 1.9209 14.3059 1.84978 14.3059H0.127306C0.0573887 14.3063 0 14.2486 0 14.1777ZM29.0157 34.6971C35.4614 37.7908 40.4045 33.0555 38.077 24.0079C37.3605 37.2779 27.6302 28.9507 17.4384 13.3285C17.1245 12.8469 17.2764 12.9812 17.2764 13.4871V17.3032C17.2764 18.1004 16.6278 18.7532 15.8357 18.7532H12.809C16.064 23.1972 23.9016 32.2424 29.0157 34.6971Z" fill="#FDC448"/>
<path fill-rule="evenodd" clip-rule="evenodd" d="M35.9977 0.880103C31.9603 -1.06168 28.0146 0.407876 24.1085 3.35229C29.9743 1.00416 37.0501 6.98613 45.8119 18.257L46.3782 18.0406V17.3963C46.3782 16.5982 47.0256 15.9467 47.8178 15.9467H51.6102H51.624C48.6757 12.9819 38.6905 2.17436 35.9977 0.880103ZM51.8928 17.3967V21.2127C51.8928 21.3686 51.7651 21.4971 51.6102 21.4971H47.8178C47.663 21.4971 47.5365 21.3689 47.5365 21.2127V17.3967C47.5365 17.2401 47.663 17.1124 47.8178 17.1124H51.6102C51.7651 17.1124 51.8928 17.2401 51.8928 17.3967ZM47.3279 22.6966V26.5126C47.3279 26.6697 47.2014 26.7969 47.0454 26.7969H43.2537C43.099 26.7969 42.9712 26.6697 42.9712 26.5126V22.6966C42.9712 22.54 43.0985 22.4122 43.2537 22.4122H47.0454C47.2014 22.4122 47.3279 22.54 47.3279 22.6966ZM55.5943 23.0822V26.8982C55.5943 27.0548 55.4674 27.1825 55.3126 27.1825H51.5201C51.3654 27.1825 51.2372 27.0548 51.2372 26.8982V23.0822C51.2372 22.9263 51.365 22.7978 51.5201 22.7978H55.3126C55.4678 22.7978 55.5943 22.9263 55.5943 23.0822ZM50.0939 27.2675V29.4806C50.0939 29.5713 50.0208 29.6449 49.9306 29.6449H47.7317C47.6415 29.6449 47.5676 29.5713 47.5676 29.4806V27.2675C47.5676 27.1768 47.6415 27.1024 47.7317 27.1024H49.9306C50.0208 27.102 50.0939 27.1768 50.0939 27.2675ZM53.6322 28.4036V29.913C53.6322 29.9744 53.5813 30.0252 53.5202 30.0252H52.0204C51.9586 30.0252 51.9089 29.9744 51.9089 29.913V28.4036C51.9089 28.3413 51.9586 28.2901 52.0204 28.2901H53.5202C53.5813 28.2905 53.6322 28.3413 53.6322 28.4036ZM56.441 18.0174V19.7509C56.441 19.8217 56.3828 19.8802 56.3121 19.8802H54.59C54.5192 19.8802 54.4611 19.8221 54.4611 19.7509V18.0174C54.4611 17.9466 54.5192 17.8881 54.59 17.8881H56.3121C56.3828 17.8881 56.441 17.9466 56.441 18.0174ZM59.0894 25.8232V27.5567C59.0894 27.6275 59.032 27.6848 58.9616 27.6848H57.2384C57.168 27.6848 57.1111 27.6271 57.1111 27.5567V25.8232C57.1111 25.7516 57.1684 25.6938 57.2384 25.6938H58.9616C59.0324 25.6938 59.0894 25.7516 59.0894 25.8232ZM30.0741 5.30262C23.6284 2.20934 18.6853 6.94423 21.0128 15.9934C21.7285 2.72225 31.4595 11.0503 41.65 26.6712C41.9641 27.1532 41.8133 27.019 41.8133 26.5126V22.6966C41.8133 21.8993 42.462 21.2469 43.2537 21.2469H46.2803C43.0258 16.8024 35.1882 7.75853 30.0741 5.30262Z" fill="url(#paint0_linear_26872_7)"/>
<path d="M194.191 34.2135C192.802 34.2135 191.6 34.005 190.584 33.5879C189.568 33.1918 188.759 32.6184 188.158 31.8676C187.578 31.1378 187.245 30.2829 187.163 29.3028H190.894C190.977 29.7199 191.164 30.0848 191.455 30.3975C191.765 30.7104 192.16 30.9501 192.636 31.117C193.113 31.3046 193.663 31.3984 194.284 31.3984C195.217 31.3984 195.984 31.2629 196.586 30.9919C197.208 30.7208 197.664 30.3037 197.954 29.7407C198.265 29.1777 198.42 28.4479 198.42 27.5512V24.4859H198.203C197.85 25.4451 197.208 26.2271 196.275 26.8318C195.342 27.4157 194.243 27.7076 192.978 27.7076C191.983 27.7076 191.081 27.5304 190.273 27.1759C189.485 26.8214 188.801 26.3105 188.22 25.6432C187.64 24.9551 187.194 24.121 186.883 23.1409C186.572 22.14 186.416 20.9932 186.416 19.7004C186.416 17.9696 186.686 16.5204 187.225 15.3526C187.785 14.164 188.562 13.2674 189.557 12.6627C190.552 12.0371 191.714 11.7244 193.04 11.7244C194.284 11.7244 195.363 12.0163 196.275 12.6001C197.208 13.184 197.85 13.9451 198.203 14.8834H198.42L198.545 12.0371H202.308V26.9256C202.308 28.2602 202.112 29.3862 201.717 30.3037C201.344 31.2421 200.795 31.9928 200.069 32.5558C199.343 33.1396 198.483 33.5567 197.487 33.8069C196.513 34.0779 195.414 34.2135 194.191 34.2135ZM194.378 24.6736C195.249 24.6736 195.974 24.4859 196.554 24.1106C197.156 23.7144 197.613 23.2139 197.923 22.6092C198.234 21.9837 198.4 21.3477 198.42 20.7013V18.6994C198.4 18.0321 198.234 17.4066 197.923 16.8227C197.613 16.218 197.167 15.7279 196.586 15.3526C196.005 14.9564 195.28 14.7584 194.409 14.7584C193.601 14.7584 192.885 14.946 192.263 15.3214C191.662 15.6967 191.195 16.2493 190.864 16.9791C190.532 17.7089 190.366 18.616 190.366 19.7004C190.366 20.8055 190.532 21.7334 190.864 22.4841C191.216 23.2139 191.693 23.7665 192.294 24.1419C192.895 24.4964 193.59 24.6736 194.378 24.6736Z" fill="black"/>
<path d="M168.035 28.6773V12.0371H171.767L171.922 15.1963H172.109C172.586 14.0285 173.311 13.1631 174.286 12.6001C175.26 12.0163 176.349 11.7244 177.551 11.7244C178.381 11.7244 179.148 11.8599 179.853 12.1309C180.578 12.3812 181.2 12.7878 181.719 13.3508C182.258 13.8929 182.673 14.6124 182.963 15.509C183.273 16.3849 183.429 17.4483 183.429 18.6994V28.6773H179.542V19.5439C179.542 18.5014 179.417 17.6464 179.169 16.9791C178.92 16.2909 178.536 15.7801 178.018 15.4464C177.521 15.1129 176.867 14.946 176.059 14.946C175.188 14.946 174.442 15.1545 173.819 15.5716C173.218 15.9886 172.751 16.5412 172.42 17.2294C172.089 17.9174 171.922 18.6786 171.922 19.5127V28.6773H168.035Z" fill="black"/>
<path d="M159.957 28.6773V12.0371H163.845V28.6773H159.957ZM159.957 9.69125V5.87524H163.845V9.69125H159.957Z" fill="black"/>
<path d="M141.432 28.6773V5.87524H145.381V19.4501L146.78 17.8549L152.317 12.0371H157.136L150.73 18.5743L157.292 28.6773H152.72L148.988 22.8907L147.993 21.1704L145.381 23.7665V28.6773H141.432Z" fill="black"/>
<path d="M131.186 28.99C129.714 28.99 128.449 28.7606 127.392 28.3019C126.335 27.8223 125.516 27.1655 124.935 26.3314C124.375 25.4973 124.096 24.5276 124.096 23.4224H127.92C127.941 24.3817 128.263 25.0802 128.885 25.5181C129.506 25.956 130.315 26.175 131.31 26.175C132.285 26.175 133.021 25.9977 133.518 25.6432C134.037 25.2679 134.296 24.757 134.296 24.1106C134.296 23.5893 134.182 23.1931 133.954 22.922C133.726 22.6301 133.353 22.4111 132.835 22.2652C132.316 22.0984 131.632 21.9524 130.781 21.8273C129.393 21.6188 128.232 21.3373 127.299 20.9828C126.366 20.6074 125.671 20.0965 125.215 19.4501C124.759 18.8037 124.531 17.9488 124.531 16.8853C124.531 15.8427 124.811 14.9356 125.37 14.164C125.93 13.3925 126.718 12.7982 127.734 12.3812C128.75 11.9433 129.942 11.7244 131.31 11.7244C132.637 11.7244 133.788 11.9433 134.763 12.3812C135.758 12.7982 136.525 13.4029 137.064 14.1954C137.624 14.9669 137.914 15.8948 137.934 16.9791H134.11C134.11 16.3953 133.985 15.9261 133.736 15.5716C133.508 15.1963 133.176 14.9252 132.741 14.7584C132.306 14.5915 131.797 14.5081 131.217 14.5081C130.346 14.5081 129.662 14.6958 129.165 15.0711C128.667 15.4256 128.418 15.9156 128.418 16.5412C128.418 16.9999 128.543 17.3753 128.791 17.6672C129.06 17.9383 129.486 18.1573 130.066 18.3241C130.647 18.4909 131.394 18.6369 132.306 18.7619C133.301 18.9079 134.161 19.0956 134.887 19.325C135.634 19.5544 136.255 19.8671 136.753 20.2634C137.25 20.6387 137.624 21.1183 137.872 21.7021C138.142 22.2652 138.277 22.9533 138.277 23.7665C138.277 25.4347 137.624 26.7275 136.317 27.645C135.032 28.5417 133.322 28.99 131.186 28.99Z" fill="black"/>
<path d="M111.405 28.9588C110.41 28.9588 109.498 28.7815 108.668 28.427C107.86 28.0517 107.155 27.4991 106.554 26.7693C105.973 26.0394 105.527 25.1428 105.216 24.0793C104.905 22.995 104.75 21.7543 104.75 20.3572C104.75 18.4596 105.019 16.8749 105.559 15.6029C106.118 14.31 106.895 13.3404 107.891 12.6939C108.907 12.0475 110.078 11.7244 111.405 11.7244C112.317 11.7244 113.126 11.8703 113.831 12.1622C114.556 12.4333 115.178 12.8191 115.697 13.3195C116.215 13.82 116.609 14.4143 116.879 15.1024H117.097L117.251 12.0371H120.983V28.6773H117.097V25.5807H116.879C116.484 26.6024 115.811 27.4261 114.857 28.0517C113.903 28.6564 112.752 28.9588 111.405 28.9588ZM112.867 25.7684C113.8 25.7684 114.567 25.5494 115.168 25.1115C115.79 24.6736 116.256 24.1106 116.568 23.4224C116.879 22.7135 117.034 21.9732 117.034 21.2017V19.4814C117.034 18.689 116.879 17.9488 116.568 17.2606C116.256 16.5516 115.79 15.9886 115.168 15.5716C114.567 15.1337 113.8 14.9147 112.867 14.9147C112.037 14.9147 111.311 15.1129 110.69 15.509C110.068 15.9052 109.581 16.5099 109.228 17.3232C108.875 18.1155 108.699 19.1269 108.699 20.3572C108.699 21.5458 108.875 22.5467 109.228 23.3599C109.581 24.1731 110.068 24.7779 110.69 25.174C111.311 25.5703 112.037 25.7684 112.867 25.7684Z" fill="black"/>
<path d="M92.2098 28.9588C91.2147 28.9588 90.3024 28.7815 89.473 28.427C88.6643 28.0517 87.96 27.4991 87.3585 26.7693C86.7777 26.0394 86.3319 25.1428 86.0212 24.0793C85.7105 22.995 85.5547 21.7543 85.5547 20.3572C85.5547 18.4596 85.824 16.8749 86.3634 15.6029C86.9227 14.31 87.7007 13.3404 88.6958 12.6939C89.7116 12.0475 90.8832 11.7244 92.2098 11.7244C93.122 11.7244 93.9307 11.8703 94.6358 12.1622C95.3617 12.4333 95.9831 12.8191 96.5018 13.3195C97.0205 13.82 97.414 14.4143 97.6833 15.1024H97.9012L98.057 12.0371H101.789V28.6773H97.9012V25.5807H97.6833C97.2897 26.6024 96.6161 27.4261 95.6624 28.0517C94.7087 28.6564 93.5579 28.9588 92.2098 28.9588ZM93.6714 25.7684C94.6043 25.7684 95.3716 25.5494 95.9731 25.1115C96.5954 24.6736 97.0619 24.1106 97.3726 23.4224C97.6833 22.7135 97.8391 21.9732 97.8391 21.2017V19.4814C97.8391 18.689 97.6833 17.9488 97.3726 17.2606C97.0619 16.5516 96.5954 15.9886 95.9731 15.5716C95.3716 15.1337 94.6043 14.9147 93.6714 14.9147C92.842 14.9147 92.117 15.1129 91.4947 15.509C90.8725 15.9052 90.3853 16.5099 90.0331 17.3232C89.681 18.1155 89.5045 19.1269 89.5045 20.3572C89.5045 21.5458 89.681 22.5467 90.0331 23.3599C90.3853 24.1731 90.8725 24.7779 91.4947 25.174C92.117 25.5703 92.842 25.7684 93.6714 25.7684Z" fill="black"/>
<path d="M74.11 28.9588C72.0989 28.9588 70.4091 28.6459 69.0407 28.0204C67.693 27.3949 66.6771 26.519 65.993 25.393C65.3087 24.2669 64.9563 22.9845 64.9355 21.5458H69.134C69.1547 22.4007 69.3413 23.1409 69.6938 23.7665C70.067 24.3921 70.6268 24.8821 71.3732 25.2366C72.1196 25.5911 73.0837 25.7684 74.2654 25.7684C75.6753 25.7684 76.8052 25.5077 77.6554 24.9864C78.5054 24.4442 78.9304 23.6519 78.9304 22.6092C78.9304 22.0045 78.8372 21.504 78.6506 21.1078C78.464 20.6908 78.1529 20.3468 77.7175 20.0757C77.2822 19.8046 76.7016 19.5752 75.9759 19.3875C75.2711 19.1999 74.3795 19.0122 73.3014 18.8245C72.0159 18.616 70.8756 18.3449 69.8804 18.0113C68.906 17.6568 68.087 17.2294 67.4235 16.7289C66.7601 16.2284 66.2625 15.6237 65.9307 14.9147C65.599 14.1848 65.4332 13.3195 65.4332 12.3186C65.4332 10.9424 65.7752 9.75377 66.4595 8.75285C67.1644 7.75196 68.1596 6.98043 69.445 6.43827C70.7305 5.87526 72.2648 5.59375 74.0478 5.59375C75.81 5.59375 77.3132 5.87526 78.5573 6.43827C79.8219 7.00128 80.7964 7.79367 81.4806 8.81543C82.1648 9.81635 82.5069 10.9841 82.5069 12.3186H78.3707C78.3292 11.5054 78.1115 10.8381 77.7175 10.3168C77.3236 9.7746 76.7949 9.37843 76.1315 9.12818C75.4887 8.87802 74.7424 8.75285 73.8922 8.75285C73.0215 8.75285 72.2648 8.87802 71.622 9.12818C71 9.37843 70.5231 9.73293 70.1914 10.1917C69.8597 10.6296 69.6938 11.1613 69.6938 11.7869C69.6938 12.5584 69.8804 13.1527 70.2536 13.5698C70.6476 13.9659 71.2696 14.2787 72.1196 14.5081C72.9903 14.7374 74.11 14.9668 75.4784 15.1962C76.4528 15.363 77.3962 15.5716 78.3084 15.8218C79.2414 16.072 80.0707 16.4474 80.7964 16.9479C81.5428 17.4274 82.1337 18.0947 82.5691 18.9496C83.0049 19.7838 83.222 20.868 83.222 22.2026C83.222 23.5371 82.8798 24.7153 82.1958 25.737C81.5117 26.7589 80.4958 27.5512 79.1481 28.1142C77.8004 28.6773 76.1211 28.9588 74.11 28.9588Z" fill="black"/>
</g>
<defs>
<linearGradient id="paint0_linear_26872_7" x1="20.4277" y1="15.0126" x2="59.0894" y2="15.0126" gradientUnits="userSpaceOnUse">
<stop stop-color="#663CF6"/>
<stop offset="0.2298" stop-color="#7C48EB"/>
<stop offset="0.52949" stop-color="#DF7CB5"/>
<stop offset="0.792976" stop-color="#FF9774"/>
<stop offset="1" stop-color="#FEE89C"/>
</linearGradient>
<clipPath id="clip0_26872_7">
<rect width="203" height="40" fill="white"/>
</clipPath>
</defs>
</svg>
