<svg width="88" height="88" viewBox="0 0 88 88" fill="none" xmlns="http://www.w3.org/2000/svg">
<g filter="url(#filter0_i_462_4070)">
<rect width="88" height="88" rx="44" fill="url(#paint0_linear_462_4070)"/>
<g clip-path="url(#clip0_462_4070)">
<path d="M64 44.0001C64 42.7435 63.8821 41.4858 63.6487 40.2647C63.5434 39.712 63.0593 39.3125 62.4974 39.3125H44.0781C43.4304 39.3125 42.9062 39.8366 42.9062 40.4844V47.5156C42.9062 48.1634 43.4304 48.6875 44.0781 48.6875H53.5287C52.9398 49.8795 52.1284 50.9138 51.1755 51.784L57.7989 58.4074C61.6099 54.7766 64 49.6672 64 44.0001Z" fill="white"/>
<path d="M44.0009 33.375C46.3001 33.375 48.487 34.1052 50.3249 35.4876C50.7895 35.8366 51.4453 35.7943 51.8573 35.3788L56.8584 30.3777C57.0907 30.1454 57.2154 29.8261 57.2005 29.4977C57.1857 29.1692 57.0346 28.8625 56.7828 28.6508C53.2043 25.6514 48.6644 24 44.0009 24C37.1377 24 31.0745 27.4886 27.4902 32.7853L34.369 39.6641C36.0101 35.9675 39.7024 33.375 44.0009 33.375Z" fill="white"/>
<path d="M44.0009 64C48.4746 64 52.5941 62.5 55.923 60.001L49.1752 53.2533C47.6329 54.1217 45.8701 54.625 44.0009 54.625C39.7024 54.625 36.0101 52.0325 34.369 48.3359L27.4902 55.2147C31.0745 60.5114 37.1377 64 44.0009 64Z" fill="white"/>
<path d="M33.5456 45.688C33.4559 45.1349 33.375 44.578 33.375 44.0001C33.375 43.4222 33.4559 42.8652 33.5456 42.3122L26.1922 34.9587C24.8009 37.6759 24 40.7435 24 44.0001C24 47.2566 24.8009 50.3242 26.1923 53.0413L33.5456 45.688Z" fill="white"/>
</g>
</g>
<defs>
<filter id="filter0_i_462_4070" x="0" y="0" width="88" height="88" filterUnits="userSpaceOnUse" color-interpolation-filters="sRGB">
<feFlood flood-opacity="0" result="BackgroundImageFix"/>
<feBlend mode="normal" in="SourceGraphic" in2="BackgroundImageFix" result="shape"/>
<feColorMatrix in="SourceAlpha" type="matrix" values="0 0 0 0 0 0 0 0 0 0 0 0 0 0 0 0 0 0 127 0" result="hardAlpha"/>
<feOffset/>
<feGaussianBlur stdDeviation="5"/>
<feComposite in2="hardAlpha" operator="arithmetic" k2="-1" k3="1"/>
<feColorMatrix type="matrix" values="0 0 0 0 0 0 0 0 0 0 0 0 0 0 0 0 0 0 0.32 0"/>
<feBlend mode="normal" in2="shape" result="effect1_innerShadow_462_4070"/>
</filter>
<linearGradient id="paint0_linear_462_4070" x1="44" y1="0" x2="44" y2="88" gradientUnits="userSpaceOnUse">
<stop stop-color="#FF0000"/>
<stop offset="1" stop-color="#FF7474"/>
</linearGradient>
<clipPath id="clip0_462_4070">
<rect width="40" height="40" fill="white" transform="translate(24 24)"/>
</clipPath>
</defs>
</svg>
