<svg width="88" height="88" viewBox="0 0 88 88" fill="none" xmlns="http://www.w3.org/2000/svg">
<g filter="url(#filter0_i_462_4081)">
<rect width="88" height="88" rx="44" fill="url(#paint0_linear_462_4081)"/>
<path d="M25.7257 51.5C25.2149 52.3856 24.9146 53.3768 24.8481 54.397C24.7816 55.4172 24.9506 56.439 25.3421 57.3834C25.7335 58.3279 26.337 59.1696 27.1057 59.8436C27.8744 60.5176 28.7879 61.0057 29.7754 61.2703C30.7629 61.5349 31.798 61.5688 32.8008 61.3694C33.8035 61.17 34.7469 60.7427 35.5581 60.1205C36.3693 59.4983 37.0265 58.6978 37.479 57.781C37.9314 56.8642 38.1669 55.8557 38.1673 54.8333C38.1679 53.3653 37.6839 51.9381 36.7904 50.7733C35.8969 49.6084 34.6439 48.7711 33.2259 48.3912C31.8079 48.0113 30.3041 48.11 28.948 48.6721C27.5918 49.2343 26.4591 50.2283 25.7257 51.5Z" fill="white"/>
<path d="M35.7344 34.1667L28.2344 47.1667C29.4238 46.6596 30.715 46.4362 32.0057 46.5142C33.2964 46.5923 34.5512 46.9696 35.6709 47.6163C36.7906 48.2631 37.7444 49.1615 38.4569 50.2406C39.1694 51.3196 39.621 52.5497 39.776 53.8334L43.0427 48.1667C36.8427 37.4501 35.9427 36.4251 35.7344 34.1667Z" fill="white"/>
<path d="M62.2765 51.5C61.8515 50.7833 49.6682 29.6083 49.4265 29.3C48.4236 27.9011 46.9184 26.9444 45.2262 26.63C43.5339 26.3156 41.7856 26.6679 40.3471 27.6133C38.9087 28.5586 37.8916 30.0236 37.5088 31.7017C37.126 33.3799 37.407 35.141 38.2932 36.6166C38.2098 36.6166 37.8765 35.9 50.7265 58.1666C51.1642 58.925 51.7471 59.5898 52.4417 60.1229C53.1363 60.656 53.9292 61.0471 54.775 61.2739C55.6208 61.5006 56.5029 61.5585 57.3711 61.4443C58.2393 61.3301 59.0764 61.0461 59.8348 60.6083C60.5932 60.1706 61.258 59.5877 61.7911 58.8931C62.3242 58.1985 62.7153 57.4056 62.9421 56.5598C63.1688 55.714 63.2267 54.8319 63.1125 53.9637C62.9983 53.0955 62.7142 52.2584 62.2765 51.5Z" fill="white"/>
</g>
<defs>
<filter id="filter0_i_462_4081" x="0" y="0" width="88" height="88" filterUnits="userSpaceOnUse" color-interpolation-filters="sRGB">
<feFlood flood-opacity="0" result="BackgroundImageFix"/>
<feBlend mode="normal" in="SourceGraphic" in2="BackgroundImageFix" result="shape"/>
<feColorMatrix in="SourceAlpha" type="matrix" values="0 0 0 0 0 0 0 0 0 0 0 0 0 0 0 0 0 0 127 0" result="hardAlpha"/>
<feOffset/>
<feGaussianBlur stdDeviation="5"/>
<feComposite in2="hardAlpha" operator="arithmetic" k2="-1" k3="1"/>
<feColorMatrix type="matrix" values="0 0 0 0 0 0 0 0 0 0 0 0 0 0 0 0 0 0 0.32 0"/>
<feBlend mode="normal" in2="shape" result="effect1_innerShadow_462_4081"/>
</filter>
<linearGradient id="paint0_linear_462_4081" x1="44" y1="0" x2="44" y2="88" gradientUnits="userSpaceOnUse">
<stop stop-color="#863AEB"/>
<stop offset="1" stop-color="#B88EF0"/>
</linearGradient>
</defs>
</svg>
