<svg width="88" height="88" viewBox="0 0 88 88" fill="none" xmlns="http://www.w3.org/2000/svg">
<g filter="url(#filter0_i_462_4053)">
<rect width="88" height="88" rx="44" fill="url(#paint0_linear_462_4053)"/>
<path d="M43.9999 41.5569C43.5506 41.5569 43.1013 41.3322 42.8766 41.1076L36.8111 35.0421C36.1372 34.3681 36.1372 33.2449 36.8111 32.571L42.8766 26.5055C43.5506 25.8315 44.6738 25.8315 45.3478 26.5055L51.4133 32.571C52.0872 33.2449 52.0872 34.3681 51.4133 35.0421L45.3478 41.1076C44.8985 41.3322 44.4492 41.5569 43.9999 41.5569ZM40.4055 33.6942L43.9999 37.2886L47.5942 33.6942L43.9999 30.0998L40.4055 33.6942Z" fill="white"/>
<path d="M43.9999 62C43.5506 62 43.1013 61.7754 42.8766 61.5507L36.8111 55.4852C36.1372 54.8113 36.1372 53.688 36.8111 53.0141L42.8766 46.9486C43.5506 46.2746 44.6738 46.2746 45.3478 46.9486L51.4133 53.0141C52.0872 53.688 52.0872 54.8113 51.4133 55.4852L45.3478 61.5507C44.8985 61.7754 44.4492 62 43.9999 62ZM40.4055 54.362L43.9999 57.9563L47.5942 54.362L43.9999 50.7676L40.4055 54.362Z" fill="white"/>
<path d="M54.3339 51.6667C53.8846 51.6667 53.4353 51.4421 53.2106 51.2174L47.1451 45.1519C46.4712 44.478 46.4712 43.3547 47.1451 42.6808L52.986 36.8399C53.6599 36.166 54.7831 36.166 55.4571 36.8399L61.5226 42.9054C62.1965 43.5794 62.1965 44.7026 61.5226 45.3766L55.4571 51.4421C55.2324 51.6667 54.7831 51.6667 54.3339 51.6667ZM50.7395 44.0287L54.3339 47.623L57.9282 44.0287L54.3339 40.4343L50.7395 44.0287Z" fill="white"/>
<path d="M33.6659 51.6655C33.2166 51.6655 32.7673 51.4409 32.5426 51.2162L26.4771 45.1507C25.8032 44.4768 25.8032 43.3535 26.4771 42.6796L32.5426 36.6141C33.2166 35.9402 34.3398 35.9402 35.0138 36.6141L41.0793 42.6796C41.7532 43.3535 41.7532 44.4768 41.0793 45.1507L35.0138 51.2162C34.5645 51.6655 34.3398 51.6655 33.6659 51.6655ZM30.0715 44.0275L33.6659 47.6219L37.2603 44.0275L33.6659 40.4331L30.0715 44.0275Z" fill="white"/>
</g>
<defs>
<filter id="filter0_i_462_4053" x="0" y="0" width="88" height="88" filterUnits="userSpaceOnUse" color-interpolation-filters="sRGB">
<feFlood flood-opacity="0" result="BackgroundImageFix"/>
<feBlend mode="normal" in="SourceGraphic" in2="BackgroundImageFix" result="shape"/>
<feColorMatrix in="SourceAlpha" type="matrix" values="0 0 0 0 0 0 0 0 0 0 0 0 0 0 0 0 0 0 127 0" result="hardAlpha"/>
<feOffset/>
<feGaussianBlur stdDeviation="5"/>
<feComposite in2="hardAlpha" operator="arithmetic" k2="-1" k3="1"/>
<feColorMatrix type="matrix" values="0 0 0 0 0 0 0 0 0 0 0 0 0 0 0 0 0 0 0.32 0"/>
<feBlend mode="normal" in2="shape" result="effect1_innerShadow_462_4053"/>
</filter>
<linearGradient id="paint0_linear_462_4053" x1="44" y1="0" x2="44" y2="88" gradientUnits="userSpaceOnUse">
<stop stop-color="#1E8EE9"/>
<stop offset="1" stop-color="#5FB7FF"/>
</linearGradient>
</defs>
</svg>
