<svg width="88" height="88" viewBox="0 0 88 88" fill="none" xmlns="http://www.w3.org/2000/svg">
<g filter="url(#filter0_i_462_4038)">
<rect width="88" height="88" rx="44" fill="url(#paint0_linear_462_4038)"/>
<g clip-path="url(#clip0_462_4038)">
<path d="M61.1327 40.3717C62.0402 37.6479 61.7277 34.6641 60.2764 32.1866C58.0938 28.3865 53.7063 26.4314 49.4212 27.3515C47.5149 25.2039 44.7761 23.9827 41.9048 24.0002C37.5247 23.9902 33.6384 26.8103 32.2908 30.9778C29.477 31.5541 27.0482 33.3154 25.6269 35.8117C23.4281 39.6017 23.9294 44.3793 26.867 47.6294C25.9595 50.3532 26.272 53.3371 27.7232 55.8146C29.9058 59.6146 34.2934 61.5697 38.5785 60.6496C40.4835 62.7972 43.2235 64.0185 46.0949 63.9997C50.4774 64.011 54.365 61.1884 55.7126 57.0171C58.5264 56.4408 60.9552 54.6795 62.3765 52.1832C64.5728 48.3932 64.0703 43.6193 61.134 40.3692L61.1327 40.3717ZM46.0974 61.386C44.3436 61.3885 42.6448 60.7747 41.2985 59.651C41.3598 59.6185 41.466 59.5597 41.5348 59.5172L49.4999 54.9171C49.9074 54.6859 50.1574 54.2521 50.1549 53.7834V42.5542L53.5213 44.4981C53.5575 44.5156 53.5813 44.5506 53.5863 44.5906V53.8896C53.5813 58.0246 50.2324 61.3772 46.0974 61.386ZM29.992 54.5071C29.1132 52.9896 28.797 51.2107 29.0982 49.4845C29.157 49.5195 29.2607 49.5832 29.3345 49.6257L37.2996 54.2258C37.7034 54.4621 38.2034 54.4621 38.6084 54.2258L48.3324 48.6107V52.4982C48.3349 52.5382 48.3161 52.577 48.2849 52.602L40.2335 57.2508C36.6471 59.3159 32.0671 58.0883 29.9932 54.507L29.992 54.5071ZM27.8957 37.1204C28.7707 35.6004 30.1521 34.4378 31.7971 33.8341C31.7971 33.9028 31.7933 34.0241 31.7933 34.1091V43.3106C31.7908 43.7781 32.0408 44.2118 32.4471 44.4431L42.171 50.057L38.8047 52.0007C38.771 52.0232 38.7285 52.027 38.691 52.0107L30.6383 47.3582C27.0595 45.2856 25.832 40.7067 27.8945 37.1217L27.8957 37.1204ZM55.5538 43.5568L45.8298 37.9417L49.1961 35.9992C49.2299 35.9767 49.2724 35.9729 49.3099 35.9892L57.3625 40.638C60.9476 42.7092 62.1763 47.2957 60.1051 50.8807C59.2288 52.3982 57.8488 53.5608 56.205 54.1658V44.6893C56.2088 44.2218 55.96 43.7893 55.555 43.5568H55.5538ZM58.9038 38.5142C58.8451 38.4779 58.7413 38.4154 58.6676 38.3729L50.7024 33.7728C50.2987 33.5366 49.7987 33.5366 49.3937 33.7728L39.6697 39.3879V35.5003C39.6672 35.4603 39.686 35.4216 39.7172 35.3966L47.7686 30.7515C51.3549 28.6827 55.94 29.914 58.0076 33.5016C58.8813 35.0167 59.1976 36.7904 58.9013 38.5142H58.9038ZM37.8397 45.4431L34.4721 43.4993C34.4359 43.4818 34.4121 43.4468 34.4071 43.4068V34.1078C34.4096 29.9678 37.7685 26.6127 41.9085 26.6152C43.6598 26.6152 45.3549 27.2302 46.7011 28.3502C46.6399 28.3827 46.5349 28.4414 46.4649 28.4839L38.4997 33.0841C38.0922 33.3153 37.8422 33.7478 37.8447 34.2166L37.8397 45.4406V45.4431ZM39.6685 41.5005L43.9998 38.9992L48.3311 41.4992V46.5006L43.9998 49.0007L39.6685 46.5006V41.5005Z" fill="white"/>
</g>
</g>
<defs>
<filter id="filter0_i_462_4038" x="0" y="0" width="88" height="88" filterUnits="userSpaceOnUse" color-interpolation-filters="sRGB">
<feFlood flood-opacity="0" result="BackgroundImageFix"/>
<feBlend mode="normal" in="SourceGraphic" in2="BackgroundImageFix" result="shape"/>
<feColorMatrix in="SourceAlpha" type="matrix" values="0 0 0 0 0 0 0 0 0 0 0 0 0 0 0 0 0 0 127 0" result="hardAlpha"/>
<feOffset/>
<feGaussianBlur stdDeviation="5"/>
<feComposite in2="hardAlpha" operator="arithmetic" k2="-1" k3="1"/>
<feColorMatrix type="matrix" values="0 0 0 0 0 0 0 0 0 0 0 0 0 0 0 0 0 0 0.32 0"/>
<feBlend mode="normal" in2="shape" result="effect1_innerShadow_462_4038"/>
</filter>
<linearGradient id="paint0_linear_462_4038" x1="44" y1="0" x2="44" y2="88" gradientUnits="userSpaceOnUse">
<stop stop-color="#6B68D0"/>
<stop offset="1" stop-color="#8C88FF"/>
</linearGradient>
<clipPath id="clip0_462_4038">
<rect width="40" height="40" fill="white" transform="translate(24 24)"/>
</clipPath>
</defs>
</svg>
