<svg width="88" height="88" viewBox="0 0 88 88" fill="none" xmlns="http://www.w3.org/2000/svg">
<g filter="url(#filter0_i_462_4087)">
<rect width="88" height="88" rx="44" fill="url(#paint0_linear_462_4087)"/>
<path d="M57.2632 45.7763C57.264 45.9424 57.2299 46.1067 57.1632 46.2586C57.0964 46.4106 56.9984 46.5468 56.8755 46.6585C56.7527 46.7701 56.6078 46.8548 56.4501 46.9068C56.2925 46.9589 56.1257 46.9771 55.9605 46.9606C55.6465 46.9606 55.3452 46.8358 55.1231 46.6137C54.9011 46.3916 54.7763 46.0904 54.7763 45.7763V35C54.7763 34.6859 54.9011 34.3847 55.1231 34.1627C55.3452 33.9406 55.6465 33.8158 55.9605 33.8158C56.3158 33.8158 56.6711 33.9342 56.9079 34.171C57.1448 34.4079 57.2632 34.6447 57.2632 35V45.7763ZM56.7895 53.2369C56.6711 53.4737 52.1711 57.1448 44 57.1448C35.8289 57.1448 31.4474 53.4737 31.2105 53.2369C31.0713 53.1434 30.9534 53.0213 30.8649 52.8788C30.7763 52.7364 30.719 52.5767 30.6968 52.4104C30.6746 52.2441 30.6881 52.075 30.7361 51.9143C30.7842 51.7536 30.8659 51.6049 30.9757 51.4782C31.0856 51.3514 31.2212 51.2494 31.3735 51.179C31.5257 51.1085 31.6911 51.0712 31.8589 51.0695C32.0266 51.0679 32.1929 51.1019 32.3465 51.1693C32.5001 51.2367 32.6377 51.336 32.75 51.4605C32.8684 51.579 36.7763 54.7763 44 54.7763C51.2237 54.7763 55.25 51.4605 55.25 51.4605C55.4865 51.2587 55.793 51.1579 56.1032 51.18C56.4134 51.2022 56.7025 51.3455 56.9079 51.579C57.1098 51.8155 57.2106 52.1219 57.1884 52.4322C57.1663 52.7424 57.0229 53.0314 56.7895 53.2369ZM30.8552 35C30.8552 34.6859 30.98 34.3847 31.2021 34.1627C31.4242 33.9406 31.7254 33.8158 32.0395 33.8158C32.3535 33.8158 32.6548 33.9406 32.8769 34.1627C33.0989 34.3847 33.2237 34.6859 33.2237 35V45.7763C33.2237 46.0904 33.0989 46.3916 32.8769 46.6137C32.6548 46.8358 32.3535 46.9606 32.0395 46.9606C31.7254 46.9606 31.4242 46.8358 31.2021 46.6137C30.98 46.3916 30.8552 46.0904 30.8552 45.7763V35ZM36.7763 32.6316C36.7755 32.4656 36.8095 32.3013 36.8764 32.1493C36.9431 31.9973 37.0411 31.861 37.1639 31.7494C37.2867 31.6377 37.4317 31.5531 37.5893 31.5011C37.7469 31.4491 37.9138 31.4308 38.079 31.4474C38.393 31.4474 38.6942 31.5721 38.9163 31.7942C39.1384 32.0163 39.2631 32.3175 39.2631 32.6316V48.6185C39.264 48.7844 39.2299 48.9487 39.1631 49.1007C39.0964 49.2527 38.9984 49.389 38.8756 49.5006C38.7527 49.6123 38.6078 49.6969 38.4501 49.7489C38.2925 49.8009 38.1257 49.8192 37.9605 49.8026C37.6464 49.8026 37.3453 49.6779 37.1232 49.4558C36.9011 49.2337 36.7763 48.9325 36.7763 48.6185V32.6316ZM42.8158 32.0395C42.8158 31.7254 42.9405 31.4242 43.1626 31.2021C43.3847 30.98 43.6859 30.8552 44 30.8552C44.1652 30.8387 44.332 30.857 44.4896 30.909C44.6473 30.961 44.7922 31.0456 44.915 31.1573C45.0379 31.269 45.1358 31.4052 45.2026 31.5572C45.2694 31.7092 45.3035 31.8735 45.3027 32.0395V49.3289C45.3213 49.5046 45.3004 49.6822 45.2415 49.8487C45.1827 50.0152 45.0873 50.1665 44.9624 50.2913C44.8375 50.4163 44.6863 50.5117 44.5198 50.5705C44.3532 50.6294 44.1757 50.6502 44 50.6316C43.834 50.6325 43.6697 50.5983 43.5177 50.5316C43.3657 50.4648 43.2295 50.3668 43.1178 50.244C43.0061 50.1212 42.9215 49.9762 42.8696 49.8186C42.8175 49.6609 42.7992 49.4941 42.8158 49.3289V32.0395ZM48.8553 32.6316C48.8553 32.3175 48.98 32.0163 49.2021 31.7942C49.4242 31.5721 49.7254 31.4474 50.0395 31.4474C50.3535 31.4474 50.6548 31.5721 50.8768 31.7942C51.0989 32.0163 51.2237 32.3175 51.2237 32.6316V48.6185C51.2237 48.9325 51.0989 49.2337 50.8768 49.4558C50.6548 49.6779 50.3535 49.8026 50.0395 49.8026C49.7254 49.8026 49.4242 49.6779 49.2021 49.4558C48.98 49.2337 48.8553 48.9325 48.8553 48.6185V32.6316ZM57.5 26H30.5C29.6048 26.0077 28.7322 26.2822 27.9939 26.7886C27.2556 27.2949 26.6851 28.0098 26.3553 28.8421C26.1184 29.3158 26 29.9079 26 30.5V57.5C26.0077 58.3952 26.2822 59.2678 26.7886 60.0061C27.2948 60.7444 28.0098 61.315 28.8421 61.6448C29.3158 61.8816 29.9079 62 30.5 62H57.5C58.3952 61.9923 59.2677 61.7178 60.0061 61.2114C60.7444 60.7052 61.315 59.9902 61.6447 59.1579C61.8816 58.6843 62 58.0921 62 57.5V30.5C62.002 29.6183 61.7449 28.7554 61.2607 28.0186C60.7765 27.2817 60.0864 26.7033 59.2763 26.3553L57.5 26Z" fill="white"/>
</g>
<defs>
<filter id="filter0_i_462_4087" x="0" y="0" width="88" height="88" filterUnits="userSpaceOnUse" color-interpolation-filters="sRGB">
<feFlood flood-opacity="0" result="BackgroundImageFix"/>
<feBlend mode="normal" in="SourceGraphic" in2="BackgroundImageFix" result="shape"/>
<feColorMatrix in="SourceAlpha" type="matrix" values="0 0 0 0 0 0 0 0 0 0 0 0 0 0 0 0 0 0 127 0" result="hardAlpha"/>
<feOffset/>
<feGaussianBlur stdDeviation="5"/>
<feComposite in2="hardAlpha" operator="arithmetic" k2="-1" k3="1"/>
<feColorMatrix type="matrix" values="0 0 0 0 0 0 0 0 0 0 0 0 0 0 0 0 0 0 0.32 0"/>
<feBlend mode="normal" in2="shape" result="effect1_innerShadow_462_4087"/>
</filter>
<linearGradient id="paint0_linear_462_4087" x1="44" y1="0" x2="44" y2="88" gradientUnits="userSpaceOnUse">
<stop stop-color="#373737"/>
<stop offset="1" stop-color="#9E9E9E"/>
</linearGradient>
</defs>
</svg>
