<svg width="68" height="68" viewBox="0 0 68 68" fill="none" xmlns="http://www.w3.org/2000/svg">
<g filter="url(#filter0_i_1045_1862)">
<rect width="68" height="68" rx="34" fill="url(#paint0_linear_1045_1862)"/>
<path d="M34.0007 31.9641C33.6263 31.9641 33.2519 31.7769 33.0647 31.5897L28.0101 26.5351C27.4485 25.9735 27.4485 25.0374 28.0101 24.4758L33.0647 19.4212C33.6263 18.8596 34.5623 18.8596 35.124 19.4212L40.1786 24.4758C40.7402 25.0374 40.7402 25.9735 40.1786 26.5351L35.124 31.5897C34.7495 31.7769 34.3751 31.9641 34.0007 31.9641ZM31.0054 25.4118L34.0007 28.4071L36.996 25.4118L34.0007 22.4165L31.0054 25.4118Z" fill="white"/>
<path d="M34.0007 48.9997C33.6263 48.9997 33.2519 48.8125 33.0647 48.6253L28.0101 43.5707C27.4485 43.0091 27.4485 42.0731 28.0101 41.5114L33.0647 36.4569C33.6263 35.8952 34.5623 35.8952 35.124 36.4569L40.1786 41.5114C40.7402 42.0731 40.7402 43.0091 40.1786 43.5707L35.124 48.6253C34.7495 48.8125 34.3751 48.9997 34.0007 48.9997ZM31.0054 42.6347L34.0007 45.63L36.996 42.6347L34.0007 39.6394L31.0054 42.6347Z" fill="white"/>
<path d="M42.612 40.3892C42.2376 40.3892 41.8632 40.202 41.676 40.0148L36.6214 34.9602C36.0598 34.3986 36.0598 33.4625 36.6214 32.9009L41.4888 28.0335C42.0504 27.4719 42.9865 27.4719 43.5481 28.0335L48.6027 33.0881C49.1643 33.6497 49.1643 34.5858 48.6027 35.1474L43.5481 40.202C43.3609 40.3892 42.9865 40.3892 42.612 40.3892ZM39.6167 34.0241L42.612 37.0194L45.6074 34.0241L42.612 31.0288L39.6167 34.0241Z" fill="white"/>
<path d="M25.3874 40.3879C25.013 40.3879 24.6386 40.2007 24.4514 40.0135L19.3968 34.9589C18.8352 34.3973 18.8352 33.4612 19.3968 32.8996L24.4514 27.845C25.013 27.2834 25.9491 27.2834 26.5107 27.845L31.5653 32.8996C32.1269 33.4612 32.1269 34.3973 31.5653 34.9589L26.5107 40.0135C26.1363 40.3879 25.9491 40.3879 25.3874 40.3879ZM22.3921 34.0229L25.3874 37.0182L28.3827 34.0229L25.3874 31.0276L22.3921 34.0229Z" fill="white"/>
</g>
<defs>
<filter id="filter0_i_1045_1862" x="0" y="0" width="68" height="68" filterUnits="userSpaceOnUse" color-interpolation-filters="sRGB">
<feFlood flood-opacity="0" result="BackgroundImageFix"/>
<feBlend mode="normal" in="SourceGraphic" in2="BackgroundImageFix" result="shape"/>
<feColorMatrix in="SourceAlpha" type="matrix" values="0 0 0 0 0 0 0 0 0 0 0 0 0 0 0 0 0 0 127 0" result="hardAlpha"/>
<feOffset/>
<feGaussianBlur stdDeviation="5"/>
<feComposite in2="hardAlpha" operator="arithmetic" k2="-1" k3="1"/>
<feColorMatrix type="matrix" values="0 0 0 0 0 0 0 0 0 0 0 0 0 0 0 0 0 0 0.32 0"/>
<feBlend mode="normal" in2="shape" result="effect1_innerShadow_1045_1862"/>
</filter>
<linearGradient id="paint0_linear_1045_1862" x1="34" y1="0" x2="34" y2="68" gradientUnits="userSpaceOnUse">
<stop stop-color="#1E8EE9"/>
<stop offset="1" stop-color="#5FB7FF"/>
</linearGradient>
</defs>
</svg>
