<svg width="68" height="68" viewBox="0 0 68 68" fill="none" xmlns="http://www.w3.org/2000/svg">
<g filter="url(#filter0_i_1045_1879)">
<rect width="68" height="68" rx="34" fill="url(#paint0_linear_1045_1879)"/>
<path d="M47.9496 31.9149H43.1256V27.6969C43.1256 27.2829 43.4616 26.941 43.8756 26.941H44.5536C44.7576 27.8049 45.5256 28.4469 46.4496 28.4469C47.5236 28.4469 48.3996 27.5709 48.3996 26.491C48.3996 25.4169 47.5236 24.541 46.4496 24.541C45.5256 24.541 44.7576 25.1829 44.5536 26.041H43.8756C42.9636 26.041 42.2256 26.7849 42.2256 27.6969V31.9149H40.9536V29.9169C40.9536 29.6709 40.7556 29.4669 40.5036 29.4669C40.2576 29.4669 40.0536 29.6709 40.0536 29.9169V31.9149H38.7876V25.6389C38.7876 25.441 38.8656 25.249 39.0096 25.1109L39.9276 24.1869C40.1976 24.3249 40.4976 24.4089 40.8156 24.4089C41.8956 24.4089 42.7716 23.5329 42.7716 22.4589C42.7716 21.3789 41.8956 20.5029 40.8156 20.5029C39.7416 20.5029 38.8656 21.3789 38.8656 22.4589C38.8656 22.8849 39.0096 23.2809 39.2436 23.5989L38.3736 24.4689C38.0616 24.7809 37.8876 25.2009 37.8876 25.6389V31.9149H36.6216V29.0169C36.6216 28.7709 36.4176 28.5669 36.1716 28.5669C35.9196 28.5669 35.7216 28.7709 35.7216 29.0169V31.9149H34.4496V24.4089C35.3076 24.199 35.9556 23.4309 35.9556 22.513C35.9556 21.4329 35.0796 20.5569 33.9996 20.5569C32.9256 20.5569 32.0496 21.4329 32.0496 22.513C32.0496 23.4309 32.6916 24.199 33.5496 24.4089V31.9149H32.2836V29.0169C32.2836 28.7709 32.0796 28.5669 31.8336 28.5669C31.5816 28.5669 31.3836 28.7709 31.3836 29.0169V31.9149H30.1116V25.6389C30.1116 25.2069 29.9376 24.7809 29.6316 24.4689L28.7616 23.5989C28.9956 23.2809 29.1396 22.8849 29.1396 22.4589C29.1396 21.3789 28.2636 20.5029 27.1836 20.5029C26.1096 20.5029 25.2336 21.3789 25.2336 22.4589C25.2336 23.5329 26.1096 24.4089 27.1836 24.4089C27.5076 24.4089 27.8076 24.3249 28.0716 24.1869L28.9956 25.1049C29.1336 25.249 29.2116 25.441 29.2116 25.6389V31.9149H27.9456V29.9169C27.9456 29.6709 27.7416 29.4669 27.4956 29.4669C27.2496 29.4669 27.0456 29.6709 27.0456 29.9169V31.9149H25.7796V27.6969C25.7796 26.7849 25.0356 26.041 24.1236 26.041H23.4516C23.2476 25.1829 22.4736 24.541 21.5556 24.541C20.4756 24.541 19.5996 25.4169 19.5996 26.491C19.5996 27.5709 20.4756 28.4469 21.5556 28.4469C22.4736 28.4469 23.2476 27.8049 23.4516 26.941H24.1236C24.5376 26.941 24.8796 27.2829 24.8796 27.6969V31.9149H20.0496C19.8043 31.9149 19.5996 32.1021 19.5996 32.3649V33.9609C19.5996 34.6029 20.0556 35.1609 20.6796 35.2869L22.7736 35.713C23.0616 36.9369 23.5356 38.0889 24.1836 39.1389L23.0016 40.9209C22.6416 41.4549 22.7136 42.1689 23.1696 42.6249L24.4296 43.891C24.8856 44.3529 25.5876 44.4249 26.1276 44.0709L27.9096 42.9069C28.6416 43.3809 30.1896 44.0169 31.3356 44.3049L31.7616 46.4049C31.8876 47.0349 32.4276 47.4849 33.0816 47.491L34.8636 47.4969C35.5116 47.4969 36.0696 47.0469 36.1956 46.4229L36.6276 44.3169C37.8396 44.041 38.9856 43.5669 40.0416 42.9069L41.8236 44.0949C42.3516 44.4489 43.0716 44.377 43.5276 43.927L44.7996 42.6549C45.2496 42.2109 45.3216 41.4969 44.9736 40.9569L43.7916 39.1749C44.4516 38.1189 44.9316 36.9729 45.2136 35.7609L47.3136 35.3349C47.9436 35.2089 48.3996 34.6509 48.3996 34.0089V32.3649C48.3996 32.113 48.2016 31.9149 47.9496 31.9149ZM34.8036 38.8149C31.394 39.2963 28.2336 36.6859 28.2336 33.091C28.2336 32.9645 28.2136 33.1024 28.2396 32.8149H39.7536C39.7536 32.9049 39.7656 32.9949 39.7656 33.091C39.7656 36.0702 37.5448 38.4292 34.8036 38.8149Z" fill="white"/>
</g>
<defs>
<filter id="filter0_i_1045_1879" x="0" y="0" width="68" height="68" filterUnits="userSpaceOnUse" color-interpolation-filters="sRGB">
<feFlood flood-opacity="0" result="BackgroundImageFix"/>
<feBlend mode="normal" in="SourceGraphic" in2="BackgroundImageFix" result="shape"/>
<feColorMatrix in="SourceAlpha" type="matrix" values="0 0 0 0 0 0 0 0 0 0 0 0 0 0 0 0 0 0 127 0" result="hardAlpha"/>
<feOffset/>
<feGaussianBlur stdDeviation="5"/>
<feComposite in2="hardAlpha" operator="arithmetic" k2="-1" k3="1"/>
<feColorMatrix type="matrix" values="0 0 0 0 0 0 0 0 0 0 0 0 0 0 0 0 0 0 0.32 0"/>
<feBlend mode="normal" in2="shape" result="effect1_innerShadow_1045_1879"/>
</filter>
<linearGradient id="paint0_linear_1045_1879" x1="34" y1="0" x2="34" y2="68" gradientUnits="userSpaceOnUse">
<stop stop-color="#600509"/>
<stop offset="1" stop-color="#DD787C"/>
</linearGradient>
</defs>
</svg>
