<svg width="68" height="68" viewBox="0 0 68 68" fill="none" xmlns="http://www.w3.org/2000/svg">
<g filter="url(#filter0_i_1045_1836)">
<rect width="68" height="68" rx="34" fill="url(#paint0_linear_1045_1836)"/>
<path d="M19.3803 39.9998C18.9717 40.7083 18.7315 41.5013 18.6783 42.3174C18.6251 43.1336 18.7603 43.951 19.0735 44.7065C19.3866 45.4621 19.8694 46.1355 20.4844 46.6747C21.0993 47.2139 21.8301 47.6044 22.6201 47.816C23.4101 48.0277 24.2382 48.0548 25.0404 47.8953C25.8426 47.7358 26.5973 47.394 27.2463 46.8962C27.8952 46.3984 28.421 45.7581 28.783 45.0246C29.1449 44.2912 29.3333 43.4843 29.3337 42.6665C29.3341 41.492 28.9469 40.3503 28.2321 39.4184C27.5173 38.4866 26.515 37.8167 25.3805 37.5127C24.2461 37.2088 23.0431 37.2878 21.9582 37.7375C20.8732 38.1872 19.9671 38.9824 19.3803 39.9998Z" fill="white"/>
<path d="M27.3877 26.1333L21.3877 36.5333C22.3393 36.1276 23.3722 35.9489 24.4047 36.0113C25.4373 36.0737 26.4412 36.3756 27.3369 36.893C28.2327 37.4104 28.9957 38.1291 29.5657 38.9924C30.1357 39.8556 30.497 40.8396 30.621 41.8666L33.2344 37.3333C28.2744 28.76 27.5544 27.94 27.3877 26.1333Z" fill="white"/>
<path d="M48.6206 39.9999C48.2806 39.4266 38.5339 22.4866 38.3406 22.2399C37.5383 21.1208 36.3342 20.3554 34.9803 20.1039C33.6265 19.8524 32.2279 20.1343 31.0771 20.8905C29.9264 21.6468 29.1127 22.8188 28.8065 24.1613C28.5002 25.5038 28.725 26.9127 29.4339 28.0932C29.3673 28.0932 29.1006 27.5199 39.3806 45.3332C39.7308 45.9399 40.1971 46.4717 40.7528 46.8982C41.3085 47.3247 41.9428 47.6376 42.6194 47.819C43.296 48.0004 44.0018 48.0467 44.6963 47.9554C45.3908 47.864 46.0606 47.6367 46.6673 47.2866C47.274 46.9364 47.8058 46.4701 48.2323 45.9144C48.6588 45.3587 48.9717 44.7244 49.1531 44.0478C49.3344 43.3711 49.3808 42.6654 49.2894 41.9709C49.1981 41.2763 48.9708 40.6066 48.6206 39.9999Z" fill="white"/>
</g>
<defs>
<filter id="filter0_i_1045_1836" x="0" y="0" width="68" height="68" filterUnits="userSpaceOnUse" color-interpolation-filters="sRGB">
<feFlood flood-opacity="0" result="BackgroundImageFix"/>
<feBlend mode="normal" in="SourceGraphic" in2="BackgroundImageFix" result="shape"/>
<feColorMatrix in="SourceAlpha" type="matrix" values="0 0 0 0 0 0 0 0 0 0 0 0 0 0 0 0 0 0 127 0" result="hardAlpha"/>
<feOffset/>
<feGaussianBlur stdDeviation="5"/>
<feComposite in2="hardAlpha" operator="arithmetic" k2="-1" k3="1"/>
<feColorMatrix type="matrix" values="0 0 0 0 0 0 0 0 0 0 0 0 0 0 0 0 0 0 0.32 0"/>
<feBlend mode="normal" in2="shape" result="effect1_innerShadow_1045_1836"/>
</filter>
<linearGradient id="paint0_linear_1045_1836" x1="34" y1="0" x2="34" y2="68" gradientUnits="userSpaceOnUse">
<stop stop-color="#863AEB"/>
<stop offset="1" stop-color="#B88EF0"/>
</linearGradient>
</defs>
</svg>
