<svg width="68" height="68" viewBox="0 0 68 68" fill="none" xmlns="http://www.w3.org/2000/svg">
<g filter="url(#filter0_i_1045_1834)">
<rect width="68" height="68" rx="34" fill="url(#paint0_linear_1045_1834)"/>
<path d="M45.0526 35.4803C45.0533 35.6186 45.0249 35.7556 44.9693 35.8822C44.9137 36.0088 44.832 36.1224 44.7296 36.2154C44.6272 36.3085 44.5065 36.379 44.3751 36.4223C44.2438 36.4657 44.1047 36.4809 43.9671 36.4671C43.7054 36.4671 43.4544 36.3631 43.2693 36.1781C43.0843 35.993 42.9803 35.742 42.9803 35.4803V26.5C42.9803 26.2383 43.0843 25.9873 43.2693 25.8022C43.4544 25.6171 43.7054 25.5132 43.9671 25.5132C44.2632 25.5132 44.5592 25.6119 44.7566 25.8092C44.954 26.0066 45.0526 26.2039 45.0526 26.5V35.4803ZM44.6579 41.6974C44.5592 41.8947 40.8092 44.954 34 44.954C27.1908 44.954 23.5395 41.8947 23.3421 41.6974C23.226 41.6195 23.1278 41.5178 23.0541 41.399C22.9803 41.2803 22.9325 41.1472 22.914 41.0087C22.8955 40.8701 22.9067 40.7292 22.9468 40.5953C22.9868 40.4613 23.0549 40.3375 23.1465 40.2318C23.238 40.1262 23.351 40.0412 23.4779 39.9825C23.6047 39.9238 23.7426 39.8927 23.8824 39.8913C24.0222 39.8899 24.1607 39.9183 24.2887 39.9744C24.4168 40.0306 24.5314 40.1133 24.625 40.2171C24.7237 40.3158 27.9802 42.9803 34 42.9803C40.0198 42.9803 43.375 40.2171 43.375 40.2171C43.5721 40.0489 43.8275 39.9649 44.086 39.9834C44.3445 40.0018 44.5854 40.1212 44.7566 40.3158C44.9248 40.5129 45.0088 40.7683 44.9904 41.0268C44.9719 41.2853 44.8525 41.5262 44.6579 41.6974ZM23.046 26.5C23.046 26.2383 23.15 25.9873 23.3351 25.8022C23.5202 25.6171 23.7712 25.5132 24.0329 25.5132C24.2946 25.5132 24.5456 25.6171 24.7307 25.8022C24.9158 25.9873 25.0197 26.2383 25.0197 26.5V35.4803C25.0197 35.742 24.9158 35.993 24.7307 36.1781C24.5456 36.3631 24.2946 36.4671 24.0329 36.4671C23.7712 36.4671 23.5202 36.3631 23.3351 36.1781C23.15 35.993 23.046 35.742 23.046 35.4803V26.5ZM27.9802 24.5263C27.9796 24.388 28.0079 24.2511 28.0636 24.1244C28.1193 23.9977 28.2009 23.8842 28.3033 23.7911C28.4056 23.6981 28.5264 23.6276 28.6577 23.5843C28.7891 23.5409 28.9281 23.5256 29.0658 23.5395C29.3275 23.5395 29.5785 23.6434 29.7636 23.8285C29.9487 24.0136 30.0526 24.2646 30.0526 24.5263V37.8487C30.0533 37.987 30.0249 38.1239 29.9693 38.2506C29.9136 38.3773 29.832 38.4908 29.7296 38.5838C29.6273 38.6769 29.5065 38.7474 29.3751 38.7908C29.2437 38.8341 29.1048 38.8494 28.9671 38.8355C28.7054 38.8355 28.4544 38.7316 28.2693 38.5465C28.0842 38.3614 27.9802 38.1104 27.9802 37.8487V24.5263ZM33.0132 24.0329C33.0132 23.7712 33.1171 23.5202 33.3022 23.3351C33.4873 23.15 33.7383 23.046 34 23.046C34.1376 23.0322 34.2767 23.0475 34.408 23.0908C34.5394 23.1342 34.6602 23.2047 34.7625 23.2977C34.8649 23.3908 34.9465 23.5043 35.0022 23.631C35.0578 23.7577 35.0862 23.8946 35.0855 24.0329V38.4408C35.101 38.5871 35.0837 38.7351 35.0346 38.8739C34.9856 39.0127 34.9061 39.1387 34.802 39.2428C34.6979 39.3469 34.5719 39.4264 34.4331 39.4754C34.2943 39.5245 34.1464 39.5419 34 39.5263C33.8617 39.527 33.7247 39.4986 33.5981 39.443C33.4714 39.3873 33.3579 39.3057 33.2648 39.2033C33.1718 39.101 33.1013 38.9802 33.058 38.8488C33.0146 38.7174 32.9993 38.5785 33.0132 38.4408V24.0329ZM38.046 24.5263C38.046 24.2646 38.15 24.0136 38.3351 23.8285C38.5201 23.6434 38.7712 23.5395 39.0329 23.5395C39.2946 23.5395 39.5457 23.6434 39.7307 23.8285C39.9157 24.0136 40.0198 24.2646 40.0198 24.5263V37.8487C40.0198 38.1104 39.9157 38.3614 39.7307 38.5465C39.5457 38.7316 39.2946 38.8355 39.0329 38.8355C38.7712 38.8355 38.5201 38.7316 38.3351 38.5465C38.15 38.3614 38.046 38.1104 38.046 37.8487V24.5263ZM45.25 19H22.75C22.004 19.0064 21.2769 19.2352 20.6616 19.6571C20.0463 20.079 19.5709 20.6749 19.2961 21.3684C19.0987 21.7632 19 22.2566 19 22.75V45.25C19.0064 45.996 19.2352 46.7231 19.6571 47.3384C20.079 47.9537 20.6749 48.4292 21.3684 48.704C21.7632 48.9013 22.2566 49 22.75 49H45.25C45.996 48.9936 46.7231 48.7648 47.3384 48.3429C47.9537 47.921 48.4292 47.3252 48.7039 46.6316C48.9013 46.2369 49 45.7434 49 45.25V22.75C49.0017 22.0152 48.7874 21.2962 48.3839 20.6821C47.9804 20.0681 47.4053 19.5861 46.7303 19.2961L45.25 19Z" fill="white"/>
</g>
<defs>
<filter id="filter0_i_1045_1834" x="0" y="0" width="68" height="68" filterUnits="userSpaceOnUse" color-interpolation-filters="sRGB">
<feFlood flood-opacity="0" result="BackgroundImageFix"/>
<feBlend mode="normal" in="SourceGraphic" in2="BackgroundImageFix" result="shape"/>
<feColorMatrix in="SourceAlpha" type="matrix" values="0 0 0 0 0 0 0 0 0 0 0 0 0 0 0 0 0 0 127 0" result="hardAlpha"/>
<feOffset/>
<feGaussianBlur stdDeviation="5"/>
<feComposite in2="hardAlpha" operator="arithmetic" k2="-1" k3="1"/>
<feColorMatrix type="matrix" values="0 0 0 0 0 0 0 0 0 0 0 0 0 0 0 0 0 0 0.32 0"/>
<feBlend mode="normal" in2="shape" result="effect1_innerShadow_1045_1834"/>
</filter>
<linearGradient id="paint0_linear_1045_1834" x1="34" y1="0" x2="34" y2="68" gradientUnits="userSpaceOnUse">
<stop stop-color="#373737"/>
<stop offset="1" stop-color="#9E9E9E"/>
</linearGradient>
</defs>
</svg>
