<svg width="68" height="68" viewBox="0 0 68 68" fill="none" xmlns="http://www.w3.org/2000/svg">
<g filter="url(#filter0_i_1045_1852)">
<rect width="68" height="68" rx="34" fill="url(#paint0_linear_1045_1852)"/>
<path d="M37.1399 37.1463C35.1093 37.9065 32.8722 37.9068 30.8414 37.1472C30.0809 35.1181 30.0805 32.8823 30.8401 30.8529C32.8711 30.0921 35.1089 30.0921 37.1399 30.8529C37.9 32.882 37.9 35.1172 37.1399 37.1463ZM48.668 31.5206H39.9797L46.1231 25.3806C45.1566 24.0249 43.9708 22.8399 42.6143 21.8744L36.4705 28.0148V19.3316C34.8283 19.0561 33.1517 19.0561 31.5095 19.3316V28.0143L25.3657 21.8748C24.0095 22.8404 22.8236 24.0252 21.8569 25.3806L28.0011 31.5206H19.3128C19.0982 33.2078 19.0289 34.7944 19.3128 36.4786H28.0015L21.8569 42.6186C22.8235 43.9741 24.0092 45.1591 25.3653 46.1249L31.5095 39.9845V48.6681C33.1496 48.9426 34.8304 48.9426 36.4705 48.6681V39.9845L42.6147 46.1249C43.9708 45.1591 45.1565 43.9741 46.1231 42.6186L39.9789 36.4786H48.668C48.9437 34.8375 48.9437 33.1618 48.668 31.5206Z" fill="white"/>
</g>
<defs>
<filter id="filter0_i_1045_1852" x="0" y="0" width="68" height="68" filterUnits="userSpaceOnUse" color-interpolation-filters="sRGB">
<feFlood flood-opacity="0" result="BackgroundImageFix"/>
<feBlend mode="normal" in="SourceGraphic" in2="BackgroundImageFix" result="shape"/>
<feColorMatrix in="SourceAlpha" type="matrix" values="0 0 0 0 0 0 0 0 0 0 0 0 0 0 0 0 0 0 127 0" result="hardAlpha"/>
<feOffset/>
<feGaussianBlur stdDeviation="5"/>
<feComposite in2="hardAlpha" operator="arithmetic" k2="-1" k3="1"/>
<feColorMatrix type="matrix" values="0 0 0 0 0 0 0 0 0 0 0 0 0 0 0 0 0 0 0.32 0"/>
<feBlend mode="normal" in2="shape" result="effect1_innerShadow_1045_1852"/>
</filter>
<linearGradient id="paint0_linear_1045_1852" x1="34" y1="0" x2="34" y2="68" gradientUnits="userSpaceOnUse">
<stop stop-color="#3FA90C"/>
<stop offset="1" stop-color="#59D51D"/>
</linearGradient>
</defs>
</svg>
