<svg width="68" height="68" viewBox="0 0 68 68" fill="none" xmlns="http://www.w3.org/2000/svg">
<g filter="url(#filter0_i_1045_1872)">
<rect width="68" height="68" rx="34" fill="url(#paint0_linear_1045_1872)"/>
<g clip-path="url(#clip0_1045_1872)">
<path d="M46.8495 31.2788C47.5301 29.2359 47.2958 26.9981 46.2073 25.1399C44.5704 22.2899 41.2797 20.8236 38.0659 21.5136C36.6361 19.903 34.5821 18.987 32.4286 19.0001C29.1435 18.9926 26.2288 21.1077 25.2181 24.2334C23.1077 24.6656 21.2862 25.9866 20.2202 27.8588C18.5711 30.7013 18.947 34.2845 21.1502 36.7221C20.4696 38.7649 20.704 41.0028 21.7924 42.8609C23.4294 45.711 26.72 47.1773 29.9338 46.4872C31.3627 48.0979 33.4177 49.0138 35.5711 48.9998C38.8581 49.0082 41.7738 46.8913 42.7844 43.7628C44.8948 43.3306 46.7164 42.0096 47.7824 40.1374C49.4296 37.2949 49.0527 33.7145 46.8505 31.2769L46.8495 31.2788ZM35.573 47.0395C34.2577 47.0413 32.9836 46.581 31.9739 45.7382C32.0198 45.7138 32.0995 45.6698 32.1511 45.6379L38.125 42.1878C38.4306 42.0144 38.6181 41.6891 38.6162 41.3375V32.9157L41.141 34.3736C41.1681 34.3867 41.186 34.4129 41.1897 34.4429V41.4172C41.186 44.5185 38.6743 47.0329 35.573 47.0395ZM23.494 41.8803C22.8349 40.7422 22.5977 39.408 22.8237 38.1134C22.8677 38.1396 22.9455 38.1874 23.0009 38.2193L28.9747 41.6694C29.2775 41.8465 29.6525 41.8465 29.9563 41.6694L37.2493 37.458V40.3737C37.2511 40.4037 37.2371 40.4327 37.2136 40.4515L31.1751 43.9381C28.4853 45.4869 25.0503 44.5662 23.4949 41.8802L23.494 41.8803ZM21.9218 28.8403C22.578 27.7003 23.614 26.8284 24.8478 26.3756C24.8478 26.4271 24.845 26.5181 24.845 26.5818V33.4829C24.8431 33.8336 25.0306 34.1589 25.3353 34.3323L32.6283 38.5427L30.1035 40.0005C30.0782 40.0174 30.0463 40.0202 30.0182 40.008L23.9787 36.5186C21.2946 34.9642 20.374 31.5301 21.9209 28.8413L21.9218 28.8403ZM42.6653 33.6676L35.3723 29.4563L37.8971 27.9994C37.9224 27.9825 37.9543 27.9797 37.9824 27.9919L44.0219 31.4785C46.7107 33.0319 47.6323 36.4717 46.0788 39.1605C45.4216 40.2987 44.3866 41.1706 43.1538 41.6244V34.517C43.1566 34.1664 42.97 33.842 42.6663 33.6676H42.6653ZM45.1779 29.8856C45.1338 29.8584 45.056 29.8116 45.0007 29.7797L39.0268 26.3296C38.724 26.1524 38.349 26.1524 38.0453 26.3296L30.7523 30.5409V27.6253C30.7504 27.5953 30.7645 27.5662 30.7879 27.5474L36.8265 24.0636C39.5162 22.512 42.955 23.4355 44.5057 26.1262C45.161 27.2625 45.3982 28.5928 45.176 29.8856H45.1779ZM29.3798 35.0823L26.8541 33.6245C26.8269 33.6114 26.8091 33.5851 26.8053 33.5551V26.5809C26.8072 23.4758 29.3263 20.9595 32.4314 20.9614C33.7448 20.9614 35.0161 21.4226 36.0258 22.2626C35.9799 22.287 35.9011 22.3311 35.8486 22.363L29.8748 25.8131C29.5692 25.9865 29.3817 26.3109 29.3835 26.6624L29.3798 35.0804V35.0823ZM30.7513 32.1254L33.9998 30.2494L37.2483 32.1244V35.8754L33.9998 37.7505L30.7513 35.8754V32.1254Z" fill="white"/>
</g>
</g>
<defs>
<filter id="filter0_i_1045_1872" x="0" y="0" width="68" height="68" filterUnits="userSpaceOnUse" color-interpolation-filters="sRGB">
<feFlood flood-opacity="0" result="BackgroundImageFix"/>
<feBlend mode="normal" in="SourceGraphic" in2="BackgroundImageFix" result="shape"/>
<feColorMatrix in="SourceAlpha" type="matrix" values="0 0 0 0 0 0 0 0 0 0 0 0 0 0 0 0 0 0 127 0" result="hardAlpha"/>
<feOffset/>
<feGaussianBlur stdDeviation="5"/>
<feComposite in2="hardAlpha" operator="arithmetic" k2="-1" k3="1"/>
<feColorMatrix type="matrix" values="0 0 0 0 0 0 0 0 0 0 0 0 0 0 0 0 0 0 0.32 0"/>
<feBlend mode="normal" in2="shape" result="effect1_innerShadow_1045_1872"/>
</filter>
<linearGradient id="paint0_linear_1045_1872" x1="34" y1="0" x2="34" y2="68" gradientUnits="userSpaceOnUse">
<stop stop-color="#6B68D0"/>
<stop offset="1" stop-color="#8C88FF"/>
</linearGradient>
<clipPath id="clip0_1045_1872">
<rect width="30" height="30" fill="white" transform="translate(19 19)"/>
</clipPath>
</defs>
</svg>
