<svg width="80" height="80" viewBox="0 0 80 80" fill="none" xmlns="http://www.w3.org/2000/svg">
<g filter="url(#filter0_i_27998_3961)">
<mask id="mask0_27998_3961" style="mask-type:alpha" maskUnits="userSpaceOnUse" x="0" y="0" width="80" height="80">
<rect width="80" height="80" rx="20" fill="#323232"/>
</mask>
<g mask="url(#mask0_27998_3961)">
<rect x="-0.0683594" y="0.0681152" width="80.1372" height="80.1372" rx="20" fill="#68ABE9"/>
<g opacity="0.6" filter="url(#filter1_f_27998_3961)">
<ellipse cx="40.0014" cy="11.4683" rx="25.7143" ry="25.8026" fill="white"/>
</g>
</g>
<path d="M39.5487 19.0031C27.9534 19.2514 18.7549 28.8527 19.0033 40.448C19.2516 52.0433 28.8529 61.2418 40.4482 60.9934C52.0435 60.7451 61.242 51.1438 60.9936 39.5485C60.7452 27.9532 51.144 18.7547 39.5487 19.0031Z" fill="white"/>
<path opacity="0.2" fill-rule="evenodd" clip-rule="evenodd" d="M47.7556 51.8347L55.1575 47.1751L47.5629 42.8368L54.9648 38.1772L47.3701 33.8388L39.9682 38.4984L32.3736 34.1601L24.9717 38.8196L32.5663 43.158L25.1644 47.8176L32.7591 52.1559L40.161 47.4963L47.7556 51.8347ZM40.161 47.4963L32.5663 43.158L39.9682 38.4984L47.5629 42.8368L40.161 47.4963Z" fill="#979797"/>
<path opacity="0.2" d="M47.304 30.8395L39.9021 35.4991L32.3075 31.1608L39.7094 26.5012L47.304 30.8395Z" fill="#979797"/>
</g>
<defs>
<filter id="filter0_i_27998_3961" x="0" y="0" width="80" height="80" filterUnits="userSpaceOnUse" color-interpolation-filters="sRGB">
<feFlood flood-opacity="0" result="BackgroundImageFix"/>
<feBlend mode="normal" in="SourceGraphic" in2="BackgroundImageFix" result="shape"/>
<feColorMatrix in="SourceAlpha" type="matrix" values="0 0 0 0 0 0 0 0 0 0 0 0 0 0 0 0 0 0 127 0" result="hardAlpha"/>
<feOffset/>
<feGaussianBlur stdDeviation="5"/>
<feComposite in2="hardAlpha" operator="arithmetic" k2="-1" k3="1"/>
<feColorMatrix type="matrix" values="0 0 0 0 0 0 0 0 0 0 0 0 0 0 0 0 0 0 0.32 0"/>
<feBlend mode="normal" in2="shape" result="effect1_innerShadow_27998_3961"/>
</filter>
<filter id="filter1_f_27998_3961" x="-29.7129" y="-58.3342" width="139.428" height="139.605" filterUnits="userSpaceOnUse" color-interpolation-filters="sRGB">
<feFlood flood-opacity="0" result="BackgroundImageFix"/>
<feBlend mode="normal" in="SourceGraphic" in2="BackgroundImageFix" result="shape"/>
<feGaussianBlur stdDeviation="22" result="effect1_foregroundBlur_27998_3961"/>
</filter>
</defs>
</svg>
