<svg width="80" height="80" viewBox="0 0 80 80" fill="none" xmlns="http://www.w3.org/2000/svg">
<g filter="url(#filter0_i_27998_3970)">
<mask id="mask0_27998_3970" style="mask-type:alpha" maskUnits="userSpaceOnUse" x="0" y="0" width="80" height="80">
<rect width="80" height="80" rx="20" fill="#323232"/>
</mask>
<g mask="url(#mask0_27998_3970)">
<rect x="-0.0703125" y="0.0682373" width="80.1372" height="80.1372" rx="20" fill="#2D97DA"/>
<g opacity="0.6" filter="url(#filter1_f_27998_3970)">
<ellipse cx="39.9994" cy="11.4682" rx="25.7143" ry="25.8026" fill="white"/>
</g>
</g>
<g opacity="0.8" clip-path="url(#clip0_27998_3970)">
<path d="M48.6408 41.7343C49.261 42.3908 50.1709 42.3125 50.581 41.5147L60.0438 21.6445C60.3931 20.8478 59.8288 19.947 58.9785 19.9634L45.3109 20.2258C44.8856 20.234 44.4652 20.4852 44.291 20.9139C41.4312 27.0455 43.3712 36.3057 48.6408 41.7343Z" fill="white"/>
<path d="M41.8146 59.7313C47.1148 50.9398 46.5648 41.2883 42.8421 34.1286C39.0586 26.9698 36.2177 21.434 35.9677 21.0741C35.7772 20.6524 35.3475 20.4175 34.9223 20.4257L21.2545 20.6882C20.4042 20.7045 19.8143 21.6274 20.2546 22.409C20.2546 22.409 39.3672 58.8668 39.8707 59.7687C40.2516 60.612 41.2843 60.5922 41.8146 59.7313Z" fill="white"/>
</g>
</g>
<defs>
<filter id="filter0_i_27998_3970" x="0" y="0" width="80" height="80" filterUnits="userSpaceOnUse" color-interpolation-filters="sRGB">
<feFlood flood-opacity="0" result="BackgroundImageFix"/>
<feBlend mode="normal" in="SourceGraphic" in2="BackgroundImageFix" result="shape"/>
<feColorMatrix in="SourceAlpha" type="matrix" values="0 0 0 0 0 0 0 0 0 0 0 0 0 0 0 0 0 0 127 0" result="hardAlpha"/>
<feOffset/>
<feGaussianBlur stdDeviation="5"/>
<feComposite in2="hardAlpha" operator="arithmetic" k2="-1" k3="1"/>
<feColorMatrix type="matrix" values="0 0 0 0 0 0 0 0 0 0 0 0 0 0 0 0 0 0 0.32 0"/>
<feBlend mode="normal" in2="shape" result="effect1_innerShadow_27998_3970"/>
</filter>
<filter id="filter1_f_27998_3970" x="-29.7148" y="-58.3344" width="139.428" height="139.605" filterUnits="userSpaceOnUse" color-interpolation-filters="sRGB">
<feFlood flood-opacity="0" result="BackgroundImageFix"/>
<feBlend mode="normal" in="SourceGraphic" in2="BackgroundImageFix" result="shape"/>
<feGaussianBlur stdDeviation="22" result="effect1_foregroundBlur_27998_3970"/>
</filter>
<clipPath id="clip0_27998_3970">
<rect width="40.0686" height="40.0686" fill="white" transform="translate(60.9043 60.0024) rotate(178.9)"/>
</clipPath>
</defs>
</svg>
