<svg width="63" height="42" viewBox="0 0 63 42" fill="none" xmlns="http://www.w3.org/2000/svg">
<path fill-rule="evenodd" clip-rule="evenodd" d="M24.4241 40.751C28.6949 42.7729 32.8679 41.2421 36.9998 38.175C30.7951 40.6214 23.3113 34.3915 14.0434 22.6492L13.4449 22.8747V23.5462C13.4449 24.3767 12.7601 25.0559 11.9209 25.0559H7.91038H7.89584C11.0147 28.1446 21.5762 39.4024 24.4241 40.751ZM7.612 23.5462V19.5708C7.612 19.408 7.74665 19.2755 7.9108 19.2755H11.9213C12.0864 19.2755 12.2202 19.4084 12.2202 19.5708V23.5462C12.2202 23.7089 12.0864 23.8428 11.9213 23.8428H7.9108C7.74665 23.8428 7.612 23.7089 7.612 23.5462ZM12.4407 18.0247V14.0496C12.4407 13.8873 12.5745 13.7535 12.7382 13.7535H16.7497C16.9134 13.7535 17.0484 13.8873 17.0484 14.0496V18.0247C17.0484 18.1882 16.9134 18.3213 16.7497 18.3213H12.7382C12.5745 18.3213 12.4407 18.1882 12.4407 18.0247ZM3.6955 17.6235V13.6484C3.6955 13.4848 3.83058 13.3522 3.9943 13.3522H8.0057C8.16942 13.3522 8.3045 13.4848 8.3045 13.6484V17.6235C8.3045 17.7866 8.16985 17.9196 8.0057 17.9196H3.9943C3.831 17.9196 3.6955 17.7866 3.6955 17.6235ZM9.51511 13.2645V10.9592C9.51511 10.8648 9.5925 10.7872 9.68785 10.7872H12.0137C12.109 10.7872 12.1864 10.8652 12.1864 10.9592V13.2645C12.1864 13.3594 12.109 13.4361 12.0137 13.4361H9.68785C9.5925 13.4361 9.51511 13.3594 9.51511 13.2645ZM5.77216 12.0807V10.5089C5.77216 10.444 5.82559 10.3906 5.89057 10.3906H7.47649C7.54189 10.3906 7.5949 10.444 7.5949 10.5089V12.0807C7.5949 12.1451 7.54189 12.1981 7.47649 12.1981H5.89057C5.82602 12.1981 5.77216 12.1451 5.77216 12.0807ZM2.80122 22.8992V21.0939C2.80122 21.0197 2.86278 20.96 2.93716 20.96H4.75904C4.83385 20.96 4.89498 21.0202 4.89498 21.0939V22.8992C4.89498 22.9742 4.83385 23.0344 4.75904 23.0344H2.93716C2.86278 23.034 2.80122 22.9742 2.80122 22.8992ZM0 14.769V12.9624C0 12.8887 0.060701 12.829 0.134654 12.829H1.95654C2.03177 12.829 2.09247 12.8892 2.09247 12.9624V14.769C2.09247 14.8428 2.03177 14.9025 1.95654 14.9025H0.134654C0.060701 14.903 0 14.8428 0 14.769ZM30.6904 36.1434C37.5081 39.366 42.7365 34.4334 40.2747 25.0088C39.5168 38.8318 29.225 30.1575 18.445 13.8844C18.1129 13.3827 18.2735 13.5226 18.2735 14.0496V18.0247C18.2735 18.8551 17.5875 19.5352 16.7497 19.5352H13.5483C16.9912 24.1644 25.2811 33.5864 30.6904 36.1434Z" fill="white"/>
<path fill-rule="evenodd" clip-rule="evenodd" d="M38.076 0.916776C33.8056 -1.10592 29.6322 0.424872 25.5007 3.49197C31.705 1.046 39.1892 7.27723 48.4568 19.0177L49.0557 18.7923V18.1212C49.0557 17.2899 49.7405 16.6111 50.5784 16.6111H54.5897H54.6042C51.4859 13.5229 40.9243 2.26497 38.076 0.916776ZM54.8885 18.1216V22.0967C54.8885 22.259 54.7535 22.3928 54.5897 22.3928H50.5784C50.4146 22.3928 50.2808 22.2593 50.2808 22.0967V18.1216C50.2808 17.9585 50.4146 17.8255 50.5784 17.8255H54.5897C54.7535 17.8255 54.8885 17.9585 54.8885 18.1216ZM50.0602 23.6423V27.6173C50.0602 27.781 49.9264 27.9135 49.7615 27.9135H45.7509C45.5872 27.9135 45.4521 27.781 45.4521 27.6173V23.6423C45.4521 23.4792 45.5868 23.3461 45.7509 23.3461H49.7615C49.9264 23.3461 50.0602 23.4792 50.0602 23.6423ZM58.8038 24.044V28.0191C58.8038 28.1822 58.6695 28.3152 58.5058 28.3152H54.4944C54.3307 28.3152 54.1951 28.1822 54.1951 28.0191V24.044C54.1951 23.8816 54.3303 23.7478 54.4944 23.7478H58.5058C58.6699 23.7478 58.8038 23.8816 58.8038 24.044ZM52.9859 28.4037V30.709C52.9859 30.8035 52.9085 30.8802 52.8132 30.8802H50.4873C50.3919 30.8802 50.3138 30.8035 50.3138 30.709V28.4037C50.3138 28.3093 50.3919 28.2317 50.4873 28.2317H52.8132C52.9085 28.2313 52.9859 28.3093 52.9859 28.4037ZM56.7284 29.5871V31.1594C56.7284 31.2234 56.6746 31.2764 56.61 31.2764H55.0236C54.9582 31.2764 54.9056 31.2234 54.9056 31.1594V29.5871C54.9056 29.5223 54.9582 29.4689 55.0236 29.4689H56.61C56.6746 29.4693 56.7284 29.5223 56.7284 29.5871ZM59.6993 18.7682V20.5739C59.6993 20.6476 59.6377 20.7086 59.563 20.7086H57.7415C57.6666 20.7086 57.6051 20.648 57.6051 20.5739V18.7682C57.6051 18.6944 57.6666 18.6335 57.7415 18.6335H59.563C59.6377 18.6335 59.6993 18.6944 59.6993 18.7682ZM62.5006 26.8992V28.705C62.5006 28.7787 62.4398 28.8384 62.3654 28.8384H60.5427C60.4683 28.8384 60.4081 28.7783 60.4081 28.705V26.8992C60.4081 26.8246 60.4687 26.7645 60.5427 26.7645H62.3654C62.4403 26.7645 62.5006 26.8246 62.5006 26.8992ZM31.8106 5.52358C24.9929 2.3014 19.7644 7.23359 22.2263 16.6598C22.9833 2.83568 33.2759 11.5108 44.0546 27.7826C44.3868 28.2847 44.2274 28.1449 44.2274 27.6173V23.6423C44.2274 22.8119 44.9135 22.1322 45.7509 22.1322H48.9522C45.5098 17.5026 37.2198 8.08182 31.8106 5.52358Z" fill="white"/>
</svg>
