<svg width="80" height="80" viewBox="0 0 80 80" fill="none" xmlns="http://www.w3.org/2000/svg">
<g filter="url(#filter0_i_28007_656)">
<rect width="80" height="80" rx="20" fill="url(#paint0_linear_28007_656)"/>
<path opacity="0.8" d="M49.5789 41.2829C49.5795 41.4028 49.5549 41.5215 49.5067 41.6312C49.4585 41.741 49.3877 41.8394 49.299 41.92C49.2103 42.0007 49.1056 42.0618 48.9918 42.0994C48.8779 42.137 48.7574 42.1501 48.6382 42.1382C48.4113 42.1382 48.1938 42.048 48.0334 41.8876C47.873 41.7273 47.7829 41.5097 47.7829 41.2829V33.5C47.7829 33.2732 47.873 33.0556 48.0334 32.8952C48.1938 32.7349 48.4113 32.6448 48.6382 32.6448C48.8948 32.6448 49.1513 32.7303 49.3224 32.9013C49.4934 33.0724 49.5789 33.2434 49.5789 33.5V41.2829ZM49.2368 46.6711C49.1513 46.8421 45.9013 49.4934 40 49.4934C34.0987 49.4934 30.9342 46.8421 30.7631 46.6711C30.6626 46.6035 30.5775 46.5154 30.5135 46.4125C30.4496 46.3096 30.4082 46.1943 30.3922 46.0742C30.3761 45.9541 30.3858 45.832 30.4206 45.7159C30.4552 45.5998 30.5142 45.4925 30.5936 45.4009C30.673 45.3093 30.7709 45.2357 30.8808 45.1848C30.9907 45.1339 31.1103 45.107 31.2314 45.1058C31.3526 45.1046 31.4726 45.1292 31.5836 45.1778C31.6945 45.2265 31.7939 45.2982 31.875 45.3882C31.9605 45.4737 34.7829 47.7829 40 47.7829C45.2171 47.7829 48.125 45.3882 48.125 45.3882C48.2958 45.2424 48.5172 45.1696 48.7412 45.1856C48.9653 45.2016 49.174 45.3051 49.3224 45.4737C49.4682 45.6445 49.541 45.8659 49.525 46.0899C49.509 46.3139 49.4055 46.5227 49.2368 46.6711ZM30.5066 33.5C30.5066 33.2732 30.5967 33.0556 30.7571 32.8952C30.9175 32.7349 31.135 32.6448 31.3618 32.6448C31.5886 32.6448 31.8062 32.7349 31.9666 32.8952C32.127 33.0556 32.2171 33.2732 32.2171 33.5V41.2829C32.2171 41.5097 32.127 41.7273 31.9666 41.8876C31.8062 42.048 31.5886 42.1382 31.3618 42.1382C31.135 42.1382 30.9175 42.048 30.7571 41.8876C30.5967 41.7273 30.5066 41.5097 30.5066 41.2829L30.5066 33.5ZM34.7829 31.7895C34.7823 31.6696 34.8069 31.5509 34.8551 31.4411C34.9034 31.3314 34.9741 31.233 35.0628 31.1523C35.1515 31.0717 35.2562 31.0106 35.37 30.973C35.4839 30.9354 35.6044 30.9222 35.7237 30.9342C35.9505 30.9342 36.168 31.0243 36.3284 31.1847C36.4888 31.3451 36.5789 31.5627 36.5789 31.7895V43.3356C36.5796 43.4554 36.5549 43.5741 36.5067 43.6839C36.4585 43.7936 36.3877 43.892 36.299 43.9727C36.2103 44.0533 36.1056 44.1144 35.9918 44.152C35.8779 44.1896 35.7575 44.2028 35.6381 44.1908C35.4113 44.1908 35.1938 44.1007 35.0334 43.9403C34.873 43.7799 34.7829 43.5624 34.7829 43.3356V31.7895ZM39.1447 31.3618C39.1447 31.135 39.2348 30.9175 39.3952 30.7571C39.5556 30.5967 39.7732 30.5066 40 30.5066C40.1193 30.4946 40.2398 30.5078 40.3536 30.5454C40.4675 30.583 40.5721 30.6441 40.6608 30.7247C40.7496 30.8054 40.8203 30.9038 40.8686 31.0135C40.9168 31.1233 40.9414 31.242 40.9408 31.3618V43.8487C40.9542 43.9755 40.9392 44.1038 40.8967 44.2241C40.8542 44.3443 40.7853 44.4536 40.6951 44.5438C40.6049 44.634 40.4956 44.7029 40.3754 44.7454C40.2551 44.7879 40.1269 44.8029 40 44.7895C39.8801 44.7901 39.7614 44.7655 39.6517 44.7172C39.5419 44.669 39.4435 44.5983 39.3629 44.5096C39.2822 44.4208 39.2211 44.3161 39.1836 44.2023C39.146 44.0884 39.1327 43.968 39.1447 43.8487V31.3618ZM43.5066 31.7895C43.5066 31.5627 43.5967 31.3451 43.7571 31.1847C43.9175 31.0243 44.135 30.9342 44.3618 30.9342C44.5887 30.9342 44.8062 31.0243 44.9666 31.1847C45.127 31.3451 45.2171 31.5627 45.2171 31.7895V43.3356C45.2171 43.5624 45.127 43.7799 44.9666 43.9403C44.8062 44.1007 44.5887 44.1908 44.3618 44.1908C44.135 44.1908 43.9175 44.1007 43.7571 43.9403C43.5967 43.7799 43.5066 43.5624 43.5066 43.3356V31.7895ZM49.75 27L30.25 27C29.6035 27.0056 28.9733 27.2038 28.44 27.5695C27.9068 27.9352 27.4948 28.4515 27.2566 29.0526C27.0855 29.3947 27 29.8224 27 30.25L27 49.75C27.0056 50.3965 27.2038 51.0267 27.5695 51.56C27.9351 52.0932 28.4515 52.5053 29.0526 52.7435C29.3947 52.9145 29.8224 53 30.25 53H49.75C50.3965 52.9944 51.0267 52.7962 51.56 52.4305C52.0932 52.0649 52.5053 51.5485 52.7434 50.9474C52.9145 50.6053 53 50.1776 53 49.75V30.25C53.0015 29.6132 52.8158 28.99 52.4661 28.4578C52.1163 27.9257 51.618 27.508 51.0329 27.2566L49.75 27Z" fill="white"/>
</g>
<defs>
<filter id="filter0_i_28007_656" x="0" y="0" width="80" height="84" filterUnits="userSpaceOnUse" color-interpolation-filters="sRGB">
<feFlood flood-opacity="0" result="BackgroundImageFix"/>
<feBlend mode="normal" in="SourceGraphic" in2="BackgroundImageFix" result="shape"/>
<feColorMatrix in="SourceAlpha" type="matrix" values="0 0 0 0 0 0 0 0 0 0 0 0 0 0 0 0 0 0 127 0" result="hardAlpha"/>
<feOffset dy="4"/>
<feGaussianBlur stdDeviation="2"/>
<feComposite in2="hardAlpha" operator="arithmetic" k2="-1" k3="1"/>
<feColorMatrix type="matrix" values="0 0 0 0 0 0 0 0 0 0 0 0 0 0 0 0 0 0 0.25 0"/>
<feBlend mode="normal" in2="shape" result="effect1_innerShadow_28007_656"/>
</filter>
<linearGradient id="paint0_linear_28007_656" x1="40" y1="0" x2="40" y2="80" gradientUnits="userSpaceOnUse">
<stop stop-color="#373737"/>
<stop offset="1" stop-color="#9E9E9E"/>
</linearGradient>
</defs>
</svg>
