<svg width="80" height="80" viewBox="0 0 80 80" fill="none" xmlns="http://www.w3.org/2000/svg">
<g filter="url(#filter0_i_27998_3988)">
<mask id="mask0_27998_3988" style="mask-type:alpha" maskUnits="userSpaceOnUse" x="0" y="0" width="80" height="80">
<rect width="80" height="80" rx="20" fill="#323232"/>
</mask>
<g mask="url(#mask0_27998_3988)">
<rect y="0.274536" width="80" height="80" rx="20" fill="#35C25D"/>
<g opacity="0.6" filter="url(#filter1_f_27998_3988)">
<ellipse cx="40.0014" cy="11.4684" rx="25.7143" ry="25.8026" fill="white"/>
</g>
</g>
<g opacity="0.8">
<g clip-path="url(#clip0_27998_3988)">
<path d="M40.2508 20.1052C29.1927 19.9676 20.1064 28.8307 19.9688 39.8887C19.8313 50.9468 28.6943 60.0331 39.7524 60.1707C50.8105 60.3082 59.8968 51.4452 60.0343 40.3871C60.1719 29.329 51.3088 20.2427 40.2508 20.1052ZM31.9857 30.5947C33.3329 30.6114 37.5295 35.3837 49.5196 33.0818C49.8361 33.0039 50.25 32.8805 50.4838 32.8834C52.0112 32.9024 52.275 35.1915 50.6279 35.5199C43.994 36.8984 37.2345 36.6857 31.5113 33.165C30.1467 32.2698 30.7521 30.5793 31.9857 30.5947ZM29.7446 35.8646C29.9326 35.917 29.8796 35.7511 30.737 36.2159C35.7498 39.2669 43.2604 40.5658 49.9807 38.8312C50.3693 38.7308 50.5809 38.6283 50.9449 38.6328C52.7328 38.655 53.1734 41.3503 51.2184 41.8753C43.318 43.9893 34.8886 42.5938 29.0525 39.0233C28.4029 38.6279 28.1504 38.1222 28.1591 37.421C28.1783 36.5497 28.8649 35.8536 29.7446 35.8646ZM52.3381 48.643C44.7599 50.7593 33.3416 49.9194 26.2882 45.6842C24.4799 44.6115 25.2291 41.9644 27.1656 41.9885L27.1673 41.9902C27.588 41.9955 27.8454 42.1038 28.2067 42.3187C33.9118 45.8225 44.1867 46.7734 50.864 44.9982C51.1572 44.9217 51.5227 44.7977 51.91 44.8025C52.9767 44.8157 53.781 45.6589 53.7677 46.7323C53.754 47.8291 53.0669 48.4417 52.3381 48.643Z" fill="white"/>
</g>
</g>
</g>
<defs>
<filter id="filter0_i_27998_3988" x="0" y="0" width="80" height="80.0001" filterUnits="userSpaceOnUse" color-interpolation-filters="sRGB">
<feFlood flood-opacity="0" result="BackgroundImageFix"/>
<feBlend mode="normal" in="SourceGraphic" in2="BackgroundImageFix" result="shape"/>
<feColorMatrix in="SourceAlpha" type="matrix" values="0 0 0 0 0 0 0 0 0 0 0 0 0 0 0 0 0 0 127 0" result="hardAlpha"/>
<feOffset/>
<feGaussianBlur stdDeviation="5"/>
<feComposite in2="hardAlpha" operator="arithmetic" k2="-1" k3="1"/>
<feColorMatrix type="matrix" values="0 0 0 0 0 0 0 0 0 0 0 0 0 0 0 0 0 0 0.32 0"/>
<feBlend mode="normal" in2="shape" result="effect1_innerShadow_27998_3988"/>
</filter>
<filter id="filter1_f_27998_3988" x="-29.7129" y="-58.3342" width="139.428" height="139.605" filterUnits="userSpaceOnUse" color-interpolation-filters="sRGB">
<feFlood flood-opacity="0" result="BackgroundImageFix"/>
<feBlend mode="normal" in="SourceGraphic" in2="BackgroundImageFix" result="shape"/>
<feGaussianBlur stdDeviation="22" result="effect1_foregroundBlur_27998_3988"/>
</filter>
<clipPath id="clip0_27998_3988">
<rect x="59.7852" y="60.4199" width="40.0686" height="40.0686" rx="20" transform="rotate(-179.287 59.7852 60.4199)" fill="white"/>
</clipPath>
</defs>
</svg>
