<svg width="80" height="80" viewBox="0 0 80 80" fill="none" xmlns="http://www.w3.org/2000/svg">
<g filter="url(#filter0_i_28007_645)">
<rect x="80" y="80" width="80" height="80" rx="20" transform="rotate(180 80 80)" fill="url(#paint0_linear_28007_645)"/>
<g opacity="0.8" clip-path="url(#clip0_28007_645)">
<path d="M55.96 41.1375C56.0315 40.1348 56.009 39.1244 55.8922 38.1367C55.8396 37.6897 55.4761 37.3434 55.0278 37.3114L40.3297 36.263C39.8128 36.2261 39.3647 36.6145 39.3278 37.1314L38.9276 42.7422C38.8908 43.259 39.2792 43.7071 39.7961 43.744L47.3373 44.2819C46.7996 45.1996 46.0932 45.9787 45.2833 46.6189L50.1916 52.2812C53.4394 49.6008 55.6374 45.6597 55.96 41.1375Z" fill="white"/>
<path d="M40.6063 31.5221C42.441 31.6529 44.1446 32.36 45.5325 33.5678C45.8833 33.8728 46.409 33.8763 46.7614 33.5682L51.0368 29.8621C51.2354 29.69 51.3531 29.4423 51.3599 29.1793C51.3668 28.9164 51.2637 28.6631 51.0748 28.4798C48.39 25.8827 44.8612 24.3065 41.1399 24.0411C35.6633 23.6504 30.6265 26.0891 27.4648 30.1118L32.5623 35.9923C34.0823 33.136 37.1762 31.2774 40.6063 31.5221Z" fill="white"/>
<path d="M38.8636 55.9596C42.4335 56.2143 45.8061 55.2518 48.6047 53.4471L43.6042 47.6785C42.3241 48.2838 40.8887 48.585 39.3972 48.4786C35.9671 48.234 33.1683 45.9551 32.0691 42.9119L26.1886 48.0094C28.7473 52.4401 33.387 55.569 38.8636 55.9596Z" fill="white"/>
<path d="M31.5631 40.7522C31.523 40.3057 31.4901 39.8567 31.523 39.3956C31.5559 38.9344 31.6521 38.4946 31.7552 38.0584L26.3059 31.772C25.0411 33.861 24.2274 36.2633 24.042 38.8619C23.8567 41.4606 24.3212 43.954 25.2768 46.2014L31.5631 40.7522Z" fill="white"/>
</g>
</g>
<defs>
<filter id="filter0_i_28007_645" x="0" y="0" width="80" height="84" filterUnits="userSpaceOnUse" color-interpolation-filters="sRGB">
<feFlood flood-opacity="0" result="BackgroundImageFix"/>
<feBlend mode="normal" in="SourceGraphic" in2="BackgroundImageFix" result="shape"/>
<feColorMatrix in="SourceAlpha" type="matrix" values="0 0 0 0 0 0 0 0 0 0 0 0 0 0 0 0 0 0 127 0" result="hardAlpha"/>
<feOffset dy="4"/>
<feGaussianBlur stdDeviation="2"/>
<feComposite in2="hardAlpha" operator="arithmetic" k2="-1" k3="1"/>
<feColorMatrix type="matrix" values="0 0 0 0 0 0 0 0 0 0 0 0 0 0 0 0 0 0 0.25 0"/>
<feBlend mode="normal" in2="shape" result="effect1_innerShadow_28007_645"/>
</filter>
<linearGradient id="paint0_linear_28007_645" x1="120" y1="80" x2="120" y2="160" gradientUnits="userSpaceOnUse">
<stop stop-color="#FF0000"/>
<stop offset="1" stop-color="#FF7474"/>
</linearGradient>
<clipPath id="clip0_28007_645">
<rect width="32" height="32" fill="white" transform="translate(25.1797 22.9022) rotate(4.07987)"/>
</clipPath>
</defs>
</svg>
