<svg width="80" height="80" viewBox="0 0 80 80" fill="none" xmlns="http://www.w3.org/2000/svg">
<g filter="url(#filter0_ii_28007_672)">
<rect width="80" height="80" rx="20" fill="url(#paint0_linear_28007_672)"/>
<g opacity="0.8">
<path d="M50.2917 41.1335L35.5622 40.8519L50.0588 53.3188L50.2917 41.1335ZM43.8828 33.0408C43.819 36.3739 47.1257 39.1977 50.3276 39.2589L50.5605 27.0736C47.3586 27.0124 43.9465 29.7077 43.8828 33.0408ZM29.6705 40.7393C32.8724 40.8005 36.179 43.6242 36.1153 46.9574C36.0516 50.2905 32.6395 52.9858 29.4375 52.9246L29.6705 40.7393ZM29.7063 38.8646L44.4359 39.1462L29.9393 26.6794L29.7063 38.8646Z" fill="white"/>
</g>
</g>
<defs>
<filter id="filter0_ii_28007_672" x="0" y="0" width="80" height="84" filterUnits="userSpaceOnUse" color-interpolation-filters="sRGB">
<feFlood flood-opacity="0" result="BackgroundImageFix"/>
<feBlend mode="normal" in="SourceGraphic" in2="BackgroundImageFix" result="shape"/>
<feColorMatrix in="SourceAlpha" type="matrix" values="0 0 0 0 0 0 0 0 0 0 0 0 0 0 0 0 0 0 127 0" result="hardAlpha"/>
<feOffset dy="4"/>
<feGaussianBlur stdDeviation="2"/>
<feComposite in2="hardAlpha" operator="arithmetic" k2="-1" k3="1"/>
<feColorMatrix type="matrix" values="0 0 0 0 0 0 0 0 0 0 0 0 0 0 0 0 0 0 0.25 0"/>
<feBlend mode="normal" in2="shape" result="effect1_innerShadow_28007_672"/>
<feColorMatrix in="SourceAlpha" type="matrix" values="0 0 0 0 0 0 0 0 0 0 0 0 0 0 0 0 0 0 127 0" result="hardAlpha"/>
<feOffset/>
<feGaussianBlur stdDeviation="5"/>
<feComposite in2="hardAlpha" operator="arithmetic" k2="-1" k3="1"/>
<feColorMatrix type="matrix" values="0 0 0 0 0 0 0 0 0 0 0 0 0 0 0 0 0 0 0.32 0"/>
<feBlend mode="normal" in2="effect1_innerShadow_28007_672" result="effect2_innerShadow_28007_672"/>
</filter>
<linearGradient id="paint0_linear_28007_672" x1="40" y1="0" x2="40" y2="80" gradientUnits="userSpaceOnUse">
<stop stop-color="#CE5233"/>
<stop offset="1" stop-color="#FD7958"/>
</linearGradient>
</defs>
</svg>
