<svg width="80" height="80" viewBox="0 0 80 80" fill="none" xmlns="http://www.w3.org/2000/svg">
<g filter="url(#filter0_i_28007_662)">
<rect width="80" height="80" rx="20" fill="url(#paint0_linear_28007_662)"/>
<g opacity="0.8">
<path d="M25.3813 45.9998C24.9727 46.7083 24.7325 47.5013 24.6793 48.3174C24.6261 49.1336 24.7613 49.951 25.0744 50.7065C25.3876 51.4621 25.8703 52.1355 26.4853 52.6747C27.1003 53.2139 27.8311 53.6044 28.6211 53.816C29.4111 54.0277 30.2392 54.0548 31.0414 53.8953C31.8436 53.7358 32.5983 53.394 33.2473 52.8962C33.8962 52.3984 34.422 51.7581 34.784 51.0246C35.1459 50.2912 35.3343 49.4843 35.3346 48.6665C35.3351 47.492 34.9479 46.3503 34.2331 45.4184C33.5183 44.4866 32.5159 43.8167 31.3815 43.5127C30.2471 43.2088 29.0441 43.2878 27.9591 43.7375C26.8742 44.1872 25.9681 44.9824 25.3813 45.9998Z" fill="white"/>
<path d="M33.3867 32.1331L27.3867 42.5331C28.3383 42.1274 29.3712 41.9487 30.4038 42.0111C31.4363 42.0735 32.4402 42.3754 33.3359 42.8928C34.2317 43.4102 34.9948 44.1289 35.5648 44.9922C36.1348 45.8554 36.496 46.8395 36.6201 47.8665L39.2334 43.3331C34.2734 34.7598 33.5534 33.9398 33.3867 32.1331Z" fill="white"/>
<path d="M54.6216 45.9999C54.2816 45.4266 44.5349 28.4866 44.3416 28.2399C43.5392 27.1208 42.3351 26.3554 40.9813 26.1039C39.6275 25.8524 38.2288 26.1343 37.0781 26.8905C35.9274 27.6468 35.1137 28.8188 34.8074 30.1613C34.5012 31.5038 34.726 32.9127 35.4349 34.0932C35.3683 34.0932 35.1016 33.5199 45.3816 51.3332C45.7318 51.9399 46.198 52.4717 46.7538 52.8982C47.3095 53.3247 47.9437 53.6376 48.6204 53.819C49.297 54.0004 50.0027 54.0467 50.6973 53.9554C51.3918 53.864 52.0615 53.6367 52.6683 53.2866C53.275 52.9364 53.8068 52.4701 54.2333 51.9144C54.6598 51.3587 54.9727 50.7244 55.154 50.0478C55.3354 49.3711 55.3818 48.6654 55.2904 47.9709C55.199 47.2763 54.9718 46.6066 54.6216 45.9999Z" fill="white"/>
</g>
</g>
<defs>
<filter id="filter0_i_28007_662" x="0" y="0" width="80" height="83.9999" filterUnits="userSpaceOnUse" color-interpolation-filters="sRGB">
<feFlood flood-opacity="0" result="BackgroundImageFix"/>
<feBlend mode="normal" in="SourceGraphic" in2="BackgroundImageFix" result="shape"/>
<feColorMatrix in="SourceAlpha" type="matrix" values="0 0 0 0 0 0 0 0 0 0 0 0 0 0 0 0 0 0 127 0" result="hardAlpha"/>
<feOffset dy="4"/>
<feGaussianBlur stdDeviation="2"/>
<feComposite in2="hardAlpha" operator="arithmetic" k2="-1" k3="1"/>
<feColorMatrix type="matrix" values="0 0 0 0 0 0 0 0 0 0 0 0 0 0 0 0 0 0 0.25 0"/>
<feBlend mode="normal" in2="shape" result="effect1_innerShadow_28007_662"/>
</filter>
<linearGradient id="paint0_linear_28007_662" x1="40" y1="0" x2="40" y2="80" gradientUnits="userSpaceOnUse">
<stop stop-color="#863AEB"/>
<stop offset="1" stop-color="#B88EF0"/>
</linearGradient>
</defs>
</svg>
