<svg width="80" height="80" viewBox="0 0 80 80" fill="none" xmlns="http://www.w3.org/2000/svg">
<g filter="url(#filter0_i_27998_3937)">
<mask id="mask0_27998_3937" style="mask-type:alpha" maskUnits="userSpaceOnUse" x="0" y="0" width="80" height="80">
<rect width="80" height="80" rx="20" fill="#323232"/>
</mask>
<g mask="url(#mask0_27998_3937)">
<rect x="-0.0703125" y="0.0689697" width="80.1372" height="80.1372" rx="20" fill="#924586"/>
<g opacity="0.6" filter="url(#filter1_f_27998_3937)">
<ellipse cx="40.0014" cy="11.4675" rx="25.7143" ry="25.8026" fill="white"/>
</g>
</g>
<g opacity="0.8" clip-path="url(#clip0_27998_3937)">
<path d="M40.0469 40.1379C40.0469 36.4497 43.0368 33.4598 46.725 33.4598C50.4131 33.4598 53.403 36.4498 53.403 40.1379C53.403 43.8262 50.4131 46.816 46.725 46.816C43.0367 46.816 40.0469 43.8261 40.0469 40.1379Z" fill="white"/>
<path opacity="0.8" d="M26.6895 53.4939C26.6895 49.8058 29.6793 46.8159 33.3675 46.8159L36.9264 44.937L40.0456 46.8159V53.4939C40.0456 57.1822 37.0557 60.172 33.3675 60.172C29.6793 60.172 26.6895 57.1821 26.6895 53.4939Z" fill="white"/>
<path opacity="0.77" d="M40.046 20.1037L36.4121 26.4169L40.046 33.4598H46.6304C50.3187 33.4598 53.3085 30.47 53.3085 26.7818C53.3085 23.0936 50.3186 20.1037 46.6304 20.1037L40.046 20.1037Z" fill="white"/>
<path d="M26.5957 26.7818C26.5957 30.47 29.5856 33.4598 33.2738 33.4598L36.8163 34.8281L40.0455 33.4598V20.1037L33.2737 20.1037C29.5856 20.1037 26.5957 23.0936 26.5957 26.7818Z" fill="white"/>
<path d="M26.6895 40.138C26.6895 43.8263 29.6793 46.8161 33.3675 46.8161H40.0456V33.4598H33.3675C29.6793 33.4598 26.6895 36.4498 26.6895 40.138Z" fill="white"/>
</g>
</g>
<defs>
<filter id="filter0_i_27998_3937" x="0" y="0" width="80" height="80" filterUnits="userSpaceOnUse" color-interpolation-filters="sRGB">
<feFlood flood-opacity="0" result="BackgroundImageFix"/>
<feBlend mode="normal" in="SourceGraphic" in2="BackgroundImageFix" result="shape"/>
<feColorMatrix in="SourceAlpha" type="matrix" values="0 0 0 0 0 0 0 0 0 0 0 0 0 0 0 0 0 0 127 0" result="hardAlpha"/>
<feOffset/>
<feGaussianBlur stdDeviation="5"/>
<feComposite in2="hardAlpha" operator="arithmetic" k2="-1" k3="1"/>
<feColorMatrix type="matrix" values="0 0 0 0 0 0 0 0 0 0 0 0 0 0 0 0 0 0 0.32 0"/>
<feBlend mode="normal" in2="shape" result="effect1_innerShadow_27998_3937"/>
</filter>
<filter id="filter1_f_27998_3937" x="-29.7129" y="-58.3351" width="139.428" height="139.605" filterUnits="userSpaceOnUse" color-interpolation-filters="sRGB">
<feFlood flood-opacity="0" result="BackgroundImageFix"/>
<feBlend mode="normal" in="SourceGraphic" in2="BackgroundImageFix" result="shape"/>
<feGaussianBlur stdDeviation="22" result="effect1_foregroundBlur_27998_3937"/>
</filter>
<clipPath id="clip0_27998_3937">
<rect width="40.0686" height="40.0686" fill="white" transform="translate(19.9648 20.1033)"/>
</clipPath>
</defs>
</svg>
