<svg width="80" height="80" viewBox="0 0 80 80" fill="none" xmlns="http://www.w3.org/2000/svg">
<g filter="url(#filter0_ii_28007_675)">
<rect width="80" height="80" rx="20" fill="url(#paint0_linear_28007_675)"/>
<g opacity="0.8">
<path d="M39.9985 37.8285C39.5998 37.8285 39.201 37.6288 39.0017 37.4291L33.6185 32.0371C33.0204 31.4379 33.0204 30.4394 33.6185 29.8403L39.0017 24.4482C39.5998 23.8491 40.5967 23.8491 41.1948 24.4482L46.5779 29.8403C47.1761 30.4394 47.1761 31.4379 46.5779 32.0371L41.1948 37.4291C40.796 37.6288 40.3973 37.8285 39.9985 37.8285ZM36.8085 30.8388L39.9985 34.0341L43.1885 30.8388L39.9985 27.6435L36.8085 30.8388Z" fill="white"/>
<path d="M39.9985 56.0014C39.5998 56.0014 39.201 55.8017 39.0017 55.602L33.6185 50.21C33.0204 49.6109 33.0204 48.6123 33.6185 48.0132L39.0017 42.6212C39.5998 42.022 40.5967 42.022 41.1948 42.6212L46.5779 48.0132C47.1761 48.6123 47.1761 49.6109 46.5779 50.21L41.1948 55.602C40.796 55.8017 40.3973 56.0014 39.9985 56.0014ZM36.8085 49.2114L39.9985 52.4067L43.1885 49.2114L39.9985 46.0162L36.8085 49.2114Z" fill="white"/>
<path d="M49.1724 46.8162C48.7736 46.8162 48.3749 46.6165 48.1755 46.4168L42.7923 41.0247C42.1942 40.4256 42.1942 39.4271 42.7923 38.828L47.9761 33.6356C48.5742 33.0365 49.5711 33.0365 50.1692 33.6356L55.5524 39.0277C56.1505 39.6268 56.1505 40.6253 55.5524 41.2244L50.1692 46.6165C49.9699 46.8162 49.5711 46.8162 49.1724 46.8162ZM45.9824 40.0262L49.1724 43.2215L52.3624 40.0262L49.1724 36.8309L45.9824 40.0262Z" fill="white"/>
<path d="M30.8286 46.8146C30.4299 46.8146 30.0311 46.6149 29.8317 46.4152L24.4486 41.0231C23.8505 40.424 23.8505 39.4255 24.4486 38.8264L29.8317 33.4343C30.4299 32.8352 31.4267 32.8352 32.0249 33.4343L37.408 38.8264C38.0061 39.4255 38.0061 40.424 37.408 41.0231L32.0249 46.4152C31.6261 46.8146 31.4267 46.8146 30.8286 46.8146ZM27.6386 40.0246L30.8286 43.2199L34.0186 40.0246L30.8286 36.8293L27.6386 40.0246Z" fill="white"/>
</g>
</g>
<defs>
<filter id="filter0_ii_28007_675" x="0" y="0" width="80" height="83.9999" filterUnits="userSpaceOnUse" color-interpolation-filters="sRGB">
<feFlood flood-opacity="0" result="BackgroundImageFix"/>
<feBlend mode="normal" in="SourceGraphic" in2="BackgroundImageFix" result="shape"/>
<feColorMatrix in="SourceAlpha" type="matrix" values="0 0 0 0 0 0 0 0 0 0 0 0 0 0 0 0 0 0 127 0" result="hardAlpha"/>
<feOffset dy="4"/>
<feGaussianBlur stdDeviation="2"/>
<feComposite in2="hardAlpha" operator="arithmetic" k2="-1" k3="1"/>
<feColorMatrix type="matrix" values="0 0 0 0 0 0 0 0 0 0 0 0 0 0 0 0 0 0 0.25 0"/>
<feBlend mode="normal" in2="shape" result="effect1_innerShadow_28007_675"/>
<feColorMatrix in="SourceAlpha" type="matrix" values="0 0 0 0 0 0 0 0 0 0 0 0 0 0 0 0 0 0 127 0" result="hardAlpha"/>
<feOffset/>
<feGaussianBlur stdDeviation="5"/>
<feComposite in2="hardAlpha" operator="arithmetic" k2="-1" k3="1"/>
<feColorMatrix type="matrix" values="0 0 0 0 0 0 0 0 0 0 0 0 0 0 0 0 0 0 0.32 0"/>
<feBlend mode="normal" in2="effect1_innerShadow_28007_675" result="effect2_innerShadow_28007_675"/>
</filter>
<linearGradient id="paint0_linear_28007_675" x1="40" y1="0" x2="40" y2="80" gradientUnits="userSpaceOnUse">
<stop stop-color="#1E8EE9"/>
<stop offset="1" stop-color="#5FB7FF"/>
</linearGradient>
</defs>
</svg>
