<svg width="80" height="80" viewBox="0 0 80 80" fill="none" xmlns="http://www.w3.org/2000/svg">
<g filter="url(#filter0_i_27998_3921)">
<mask id="mask0_27998_3921" style="mask-type:alpha" maskUnits="userSpaceOnUse" x="0" y="0" width="80" height="80">
<rect width="80" height="80" rx="20" fill="#323232"/>
</mask>
<g mask="url(#mask0_27998_3921)">
<rect x="-0.0703125" y="0.0683594" width="80.1372" height="80.1372" rx="20" fill="#CA2659"/>
<g opacity="0.6" filter="url(#filter1_f_27998_3921)">
<ellipse cx="40.0014" cy="11.4681" rx="25.7143" ry="25.8026" fill="white"/>
</g>
</g>
<g opacity="0.8">
<path d="M55.75 38.5C56.4917 38.5 57.2167 38.2801 57.8334 37.868C58.4501 37.456 58.9307 36.8703 59.2145 36.1851C59.4984 35.4998 59.5726 34.7458 59.4279 34.0184C59.2832 33.291 58.9261 32.6228 58.4016 32.0983C57.8772 31.5739 57.209 31.2167 56.4816 31.0721C55.7542 30.9274 55.0002 31.0016 54.3149 31.2855C53.6297 31.5693 53.044 32.0499 52.632 32.6666C52.2199 33.2833 52 34.0083 52 34.75V38.5H55.75ZM45.25 38.5C45.7425 38.5 46.2301 38.403 46.6851 38.2145C47.14 38.0261 47.5534 37.7499 47.9017 37.4016C48.2499 37.0534 48.5261 36.64 48.7145 36.1851C48.903 35.7301 49 35.2425 49 34.75V24.25C49 23.2554 48.6049 22.3016 47.9017 21.5983C47.1984 20.8951 46.2446 20.5 45.25 20.5C44.2554 20.5 43.3016 20.8951 42.5983 21.5983C41.8951 22.3016 41.5 23.2554 41.5 24.25V34.75C41.5 35.7446 41.8951 36.6984 42.5983 37.4016C43.3016 38.1049 44.2554 38.5 45.25 38.5Z" fill="white"/>
<path d="M24.25 41.5C23.5083 41.5 22.7833 41.7199 22.1666 42.132C21.5499 42.544 21.0693 43.1297 20.7855 43.8149C20.5016 44.5002 20.4274 45.2542 20.5721 45.9816C20.7168 46.709 21.0739 47.3772 21.5984 47.9017C22.1228 48.4261 22.791 48.7833 23.5184 48.9279C24.2458 49.0726 24.9998 48.9984 25.6851 48.7145C26.3703 48.4307 26.956 47.9501 27.368 47.3334C27.7801 46.7167 28 45.9917 28 45.25V41.5H24.25ZM34.75 41.5C33.7554 41.5 32.8016 41.8951 32.0984 42.5983C31.3951 43.3016 31 44.2554 31 45.25V55.75C31 56.7446 31.3951 57.6984 32.0984 58.4016C32.8016 59.1049 33.7554 59.5 34.75 59.5C35.7446 59.5 36.6984 59.1049 37.4017 58.4016C38.1049 57.6984 38.5 56.7446 38.5 55.75V45.25C38.5 44.2554 38.1049 43.3016 37.4017 42.5983C36.6984 41.8951 35.7446 41.5 34.75 41.5Z" fill="white"/>
<path d="M41.5 55.75C41.5 56.4917 41.7199 57.2167 42.132 57.8334C42.544 58.4501 43.1297 58.9307 43.8149 59.2145C44.5002 59.4984 45.2542 59.5726 45.9816 59.4279C46.709 59.2832 47.3772 58.9261 47.9017 58.4016C48.4261 57.8772 48.7833 57.209 48.9279 56.4816C49.0726 55.7542 48.9984 55.0002 48.7145 54.3149C48.4307 53.6297 47.9501 53.044 47.3334 52.632C46.7167 52.2199 45.9917 52 45.25 52H41.5V55.75ZM41.5 45.25C41.5 45.7425 41.597 46.2301 41.7855 46.6851C41.9739 47.14 42.2501 47.5534 42.5983 47.9017C42.9466 48.2499 43.36 48.5261 43.8149 48.7145C44.2699 48.903 44.7575 49 45.25 49H55.75C56.7446 49 57.6984 48.6049 58.4016 47.9017C59.1049 47.1984 59.5 46.2446 59.5 45.25C59.5 44.2554 59.1049 43.3016 58.4016 42.5983C57.6984 41.8951 56.7446 41.5 55.75 41.5H45.25C44.2554 41.5 43.3016 41.8951 42.5983 42.5983C41.8951 43.3016 41.5 44.2554 41.5 45.25Z" fill="white"/>
<path d="M38.5 24.25C38.5 23.5083 38.2801 22.7833 37.868 22.1666C37.456 21.5499 36.8703 21.0693 36.1851 20.7855C35.4998 20.5016 34.7458 20.4274 34.0184 20.5721C33.291 20.7168 32.6228 21.0739 32.0983 21.5984C31.5739 22.1228 31.2167 22.791 31.0721 23.5184C30.9274 24.2458 31.0016 24.9998 31.2855 25.6851C31.5693 26.3703 32.0499 26.956 32.6666 27.368C33.2833 27.7801 34.0083 28 34.75 28H38.5V24.25ZM38.5 34.75C38.5 33.7554 38.1049 32.8016 37.4016 32.0984C36.6984 31.3951 35.7446 31 34.75 31H24.25C23.2554 31 22.3016 31.3951 21.5983 32.0984C20.8951 32.8016 20.5 33.7554 20.5 34.75C20.5 35.7446 20.8951 36.6984 21.5983 37.4017C22.3016 38.1049 23.2554 38.5 24.25 38.5H34.75C35.7446 38.5 36.6984 38.1049 37.4016 37.4017C38.1049 36.6984 38.5 35.7446 38.5 34.75Z" fill="white"/>
</g>
</g>
<defs>
<filter id="filter0_i_27998_3921" x="0" y="0" width="80" height="80" filterUnits="userSpaceOnUse" color-interpolation-filters="sRGB">
<feFlood flood-opacity="0" result="BackgroundImageFix"/>
<feBlend mode="normal" in="SourceGraphic" in2="BackgroundImageFix" result="shape"/>
<feColorMatrix in="SourceAlpha" type="matrix" values="0 0 0 0 0 0 0 0 0 0 0 0 0 0 0 0 0 0 127 0" result="hardAlpha"/>
<feOffset/>
<feGaussianBlur stdDeviation="5"/>
<feComposite in2="hardAlpha" operator="arithmetic" k2="-1" k3="1"/>
<feColorMatrix type="matrix" values="0 0 0 0 0 0 0 0 0 0 0 0 0 0 0 0 0 0 0.32 0"/>
<feBlend mode="normal" in2="shape" result="effect1_innerShadow_27998_3921"/>
</filter>
<filter id="filter1_f_27998_3921" x="-29.7129" y="-58.3345" width="139.428" height="139.605" filterUnits="userSpaceOnUse" color-interpolation-filters="sRGB">
<feFlood flood-opacity="0" result="BackgroundImageFix"/>
<feBlend mode="normal" in="SourceGraphic" in2="BackgroundImageFix" result="shape"/>
<feGaussianBlur stdDeviation="22" result="effect1_foregroundBlur_27998_3921"/>
</filter>
</defs>
</svg>
