<svg width="80" height="80" viewBox="0 0 80 80" fill="none" xmlns="http://www.w3.org/2000/svg">
<g filter="url(#filter0_i_28007_692)">
<rect width="80" height="80" rx="20" fill="url(#paint0_linear_28007_692)"/>
<g opacity="0.8" clip-path="url(#clip0_28007_692)">
<path d="M53.7065 37.0974C54.4325 34.9183 54.1825 32.5313 53.0215 30.5493C51.2755 27.5092 47.7654 25.9451 44.3373 26.6812C42.8123 24.9631 40.6213 23.9861 38.3242 24.0001C34.8202 23.9921 31.7111 26.2482 30.633 29.5823C28.382 30.0433 26.439 31.4523 25.3019 33.4493C23.5429 36.4814 23.9439 40.3035 26.294 42.9035C25.568 45.0826 25.818 47.4696 26.979 49.4516C28.725 52.4917 32.2351 54.0558 35.6632 53.3197C37.1872 55.0378 39.3792 56.0148 41.6763 55.9998C45.1823 56.0088 48.2924 53.7507 49.3705 50.4136C51.6215 49.9526 53.5645 48.5436 54.7016 46.5466C56.4587 43.5145 56.0567 39.6955 53.7076 37.0954L53.7065 37.0974ZM41.6783 53.9088C40.2753 53.9108 38.9162 53.4198 37.8392 52.5208C37.8882 52.4948 37.9732 52.4478 38.0282 52.4138L44.4003 48.7337C44.7263 48.5487 44.9263 48.2017 44.9243 47.8267V38.8434L47.6174 40.3985C47.6464 40.4125 47.6654 40.4405 47.6694 40.4725V47.9116C47.6654 51.2197 44.9863 53.9018 41.6783 53.9088ZM28.794 48.4056C28.091 47.1916 27.838 45.7686 28.079 44.3876C28.126 44.4156 28.209 44.4666 28.268 44.5006L34.6401 48.1806C34.9631 48.3696 35.3631 48.3696 35.6871 48.1806L43.4663 43.6885V46.7986C43.4683 46.8306 43.4533 46.8616 43.4283 46.8816L36.9872 50.6006C34.1181 52.2527 30.454 51.2706 28.795 48.4056L28.794 48.4056ZM27.117 34.4963C27.817 33.2803 28.922 32.3503 30.238 31.8673C30.238 31.9223 30.235 32.0193 30.235 32.0873L30.235 39.4485C30.233 39.8225 30.433 40.1695 30.758 40.3545L38.5372 44.8456L35.8442 46.4006C35.8172 46.4186 35.7832 46.4216 35.7532 46.4086L29.311 42.6865C26.448 41.0285 25.466 37.3654 27.116 34.4973L27.117 34.4963ZM49.2434 39.6455L41.4642 35.1533L44.1573 33.5993C44.1843 33.5813 44.2183 33.5783 44.2483 33.5913L50.6904 37.3104C53.5585 38.9674 54.5415 42.6365 52.8845 45.5046C52.1835 46.7186 51.0794 47.6486 49.7644 48.1326V40.5515C49.7674 40.1775 49.5684 39.8315 49.2444 39.6455H49.2434ZM51.9235 35.6113C51.8765 35.5823 51.7935 35.5323 51.7345 35.4983L45.3623 31.8183C45.0393 31.6293 44.6393 31.6293 44.3153 31.8183L36.5362 36.3103V33.2003C36.5342 33.1683 36.5492 33.1373 36.5742 33.1173L43.0153 29.4012C45.8843 27.7461 49.5524 28.7312 51.2065 31.6013C51.9055 32.8133 52.1585 34.2323 51.9215 35.6113H51.9235ZM35.0722 41.1545L32.3781 39.5995C32.3491 39.5855 32.3301 39.5575 32.3261 39.5255V32.0863C32.3281 28.7742 35.0152 26.0901 38.3272 26.0921C39.7282 26.0921 41.0843 26.5841 42.1613 27.4801C42.1123 27.5061 42.0283 27.5531 41.9723 27.5871L35.6002 31.2673C35.2742 31.4523 35.0742 31.7983 35.0762 32.1733L35.0722 41.1525V41.1545ZM36.5352 38.0004L40.0002 35.9993L43.4653 37.9994V42.0005L40.0002 44.0005L36.5352 42.0005V38.0004Z" fill="white"/>
</g>
</g>
<defs>
<filter id="filter0_i_28007_692" x="0" y="0" width="80" height="80" filterUnits="userSpaceOnUse" color-interpolation-filters="sRGB">
<feFlood flood-opacity="0" result="BackgroundImageFix"/>
<feBlend mode="normal" in="SourceGraphic" in2="BackgroundImageFix" result="shape"/>
<feColorMatrix in="SourceAlpha" type="matrix" values="0 0 0 0 0 0 0 0 0 0 0 0 0 0 0 0 0 0 127 0" result="hardAlpha"/>
<feOffset/>
<feGaussianBlur stdDeviation="5"/>
<feComposite in2="hardAlpha" operator="arithmetic" k2="-1" k3="1"/>
<feColorMatrix type="matrix" values="0 0 0 0 0 0 0 0 0 0 0 0 0 0 0 0 0 0 0.32 0"/>
<feBlend mode="normal" in2="shape" result="effect1_innerShadow_28007_692"/>
</filter>
<linearGradient id="paint0_linear_28007_692" x1="40" y1="0" x2="40" y2="80" gradientUnits="userSpaceOnUse">
<stop stop-color="#6B68D0"/>
<stop offset="1" stop-color="#8C88FF"/>
</linearGradient>
<clipPath id="clip0_28007_692">
<rect width="32" height="32" fill="white" transform="translate(24 24)"/>
</clipPath>
</defs>
</svg>
