<svg width="80" height="80" viewBox="0 0 80 80" fill="none" xmlns="http://www.w3.org/2000/svg">
<g filter="url(#filter0_i_27998_4000)">
<mask id="mask0_27998_4000" style="mask-type:alpha" maskUnits="userSpaceOnUse" x="0" y="0" width="80" height="80">
<rect width="80" height="80" rx="20" fill="#323232"/>
</mask>
<g mask="url(#mask0_27998_4000)">
<rect x="-0.0683594" y="0.0690918" width="80.1372" height="80.1372" rx="20" fill="#1FB9C4"/>
<g opacity="0.6" filter="url(#filter1_f_27998_4000)">
<ellipse cx="39.9994" cy="11.4676" rx="25.7143" ry="25.8026" fill="white"/>
</g>
</g>
<g opacity="0.8">
<g clip-path="url(#clip0_27998_4000)">
<path d="M21.4238 50.2489C21.0003 50.9151 20.5162 51.7022 20.1531 52.3078C19.79 52.9133 19.9716 53.7005 20.5767 54.0637L28.8668 59.1499C29.4719 59.5132 30.2586 59.3316 30.6217 58.726C30.9242 58.1811 31.3478 57.4545 31.8319 56.6673C35.0994 51.2783 38.4276 51.8838 44.3577 54.7297L52.5874 58.605C53.253 58.9079 53.9791 58.605 54.2816 57.9995L58.215 49.0984C58.5176 48.4931 58.215 47.7059 57.6098 47.403C55.855 46.6158 52.4058 44.9811 49.3803 43.4673C38.1855 38.0784 28.6852 38.4417 21.4238 50.2489Z" fill="white"/>
<path d="M58.5778 30.025C59.0015 29.359 59.4855 28.5718 59.8486 27.9663C60.2117 27.3608 60.0301 26.5736 59.4251 26.2103L51.1349 21.124C50.5297 20.7607 49.743 20.9424 49.3801 21.5479C49.0775 22.0929 48.6538 22.8194 48.1699 23.6066C44.9022 28.9956 41.5741 28.3901 35.6438 25.5442L27.4143 21.669C26.7486 21.3662 26.0225 21.669 25.72 22.2745L21.7867 31.1754C21.4841 31.7809 21.7867 32.5681 22.3918 32.8709C24.1466 33.6581 27.5957 35.2929 30.6214 36.8066C41.816 42.1352 51.3164 41.8324 58.5778 30.025Z" fill="white"/>
</g>
</g>
</g>
<defs>
<filter id="filter0_i_27998_4000" x="0" y="0" width="80" height="80" filterUnits="userSpaceOnUse" color-interpolation-filters="sRGB">
<feFlood flood-opacity="0" result="BackgroundImageFix"/>
<feBlend mode="normal" in="SourceGraphic" in2="BackgroundImageFix" result="shape"/>
<feColorMatrix in="SourceAlpha" type="matrix" values="0 0 0 0 0 0 0 0 0 0 0 0 0 0 0 0 0 0 127 0" result="hardAlpha"/>
<feOffset/>
<feGaussianBlur stdDeviation="5"/>
<feComposite in2="hardAlpha" operator="arithmetic" k2="-1" k3="1"/>
<feColorMatrix type="matrix" values="0 0 0 0 0 0 0 0 0 0 0 0 0 0 0 0 0 0 0.32 0"/>
<feBlend mode="normal" in2="shape" result="effect1_innerShadow_27998_4000"/>
</filter>
<filter id="filter1_f_27998_4000" x="-29.7148" y="-58.335" width="139.428" height="139.605" filterUnits="userSpaceOnUse" color-interpolation-filters="sRGB">
<feFlood flood-opacity="0" result="BackgroundImageFix"/>
<feBlend mode="normal" in="SourceGraphic" in2="BackgroundImageFix" result="shape"/>
<feGaussianBlur stdDeviation="22" result="effect1_foregroundBlur_27998_4000"/>
</filter>
<clipPath id="clip0_27998_4000">
<rect x="19.9668" y="20.1024" width="40.0686" height="40.0686" rx="20" fill="white"/>
</clipPath>
</defs>
</svg>
