<svg width="80" height="80" viewBox="0 0 80 80" fill="none" xmlns="http://www.w3.org/2000/svg">
<g filter="url(#filter0_i_27998_3948)">
<mask id="mask0_27998_3948" style="mask-type:alpha" maskUnits="userSpaceOnUse" x="0" y="0" width="80" height="80">
<rect width="80" height="80" rx="20" fill="#323232"/>
</mask>
<g mask="url(#mask0_27998_3948)">
<rect x="-0.0703125" y="0.0686035" width="80.1372" height="80.1372" rx="20" fill="#B5B126"/>
<g opacity="0.6" filter="url(#filter1_f_27998_3948)">
<ellipse cx="40.0014" cy="11.4676" rx="25.7143" ry="25.8026" fill="white"/>
</g>
</g>
<g opacity="0.64" clip-path="url(#clip0_27998_3948)">
<path d="M34.1813 21.366C28.0275 21.8213 22.7961 22.2401 22.5501 22.2891C21.8605 22.4121 21.2331 22.8799 20.9381 23.4956L20.6797 24.0374L20.7046 36.949L20.7412 49.8606L21.135 50.6608C21.3569 51.1037 22.8583 53.1718 24.4953 55.3006C27.7325 59.4976 27.966 59.7319 29.1966 59.8549C29.5539 59.8915 32.2369 59.7685 35.1418 59.5965C38.0592 59.412 42.7356 59.1287 45.5424 58.9691C57.5301 58.2413 56.9144 58.3028 57.6033 57.712C58.465 56.9983 58.4035 58.1674 58.44 42.4746C58.465 29.1692 58.4525 28.2958 58.2556 27.8895C58.0221 27.4342 57.6033 27.1143 52.1384 23.2738C48.4831 20.7137 48.2247 20.5783 46.587 20.5534C45.9106 20.5292 40.3227 20.8982 34.1813 21.366ZM48.0153 23.0519C48.5322 23.2854 52.3111 25.9195 52.8646 26.4246C53.0125 26.5725 53.0615 26.6955 52.9876 26.7694C52.8155 26.9173 29.4294 28.3083 28.753 28.2094C28.4455 28.1604 27.9902 27.9759 27.7317 27.8031C26.6607 27.0769 24.0026 24.8982 24.0026 24.7387C24.0026 24.3199 23.9162 24.3199 34.3417 23.5696C36.3359 23.4341 39.6097 23.1882 41.6039 23.0278C45.9231 22.683 47.2159 22.6954 48.0153 23.0519ZM55.4495 29.7849C55.6216 29.9569 55.7695 30.2892 55.8185 30.6091C55.8551 30.9049 55.88 36.4189 55.8551 42.8436C55.8185 53.8716 55.806 54.5612 55.5967 54.8811C55.4737 55.078 55.2277 55.2874 55.0425 55.3489C54.5264 55.5583 30.0209 56.9492 29.5165 56.8013C29.283 56.7399 28.9623 56.5429 28.7903 56.3709L28.4945 56.051L28.458 44.1614C28.433 35.8165 28.458 32.1239 28.5568 31.7915C28.6308 31.5455 28.8152 31.2497 28.9756 31.1517C29.1974 31.0038 30.6498 30.8808 35.647 30.5858C39.1551 30.3889 44.5827 30.0565 47.697 29.872C55.1047 29.4159 55.0806 29.4159 55.4495 29.7849Z" fill="white"/>
<path d="M48.8649 33.8593C47.5355 33.9457 46.3539 34.0687 46.2185 34.1426C45.8121 34.352 45.5662 34.6968 45.5171 35.0907C45.4806 35.497 45.6035 35.546 46.9322 35.7064L47.5105 35.7803V41.0359C47.5105 44.1618 47.4615 46.23 47.4 46.1685C47.3385 46.0945 45.5911 43.4364 43.5105 40.2606C41.4307 37.0732 39.7074 34.4509 39.6825 34.4267C39.6576 34.4018 38.304 34.4758 36.6795 34.5871C34.6853 34.7225 33.5902 34.8455 33.3683 34.9685C33.011 35.153 32.6172 35.8052 32.6172 36.2364C32.6172 36.4949 33.085 36.6303 34.0696 36.6303H34.5865V51.7447L33.7497 52.0031C33.0974 52.2001 32.8756 52.323 32.7651 52.569C32.5681 52.9878 32.5806 53.3692 32.7775 53.3692C32.8515 53.3692 34.2424 53.2828 35.842 53.1847C39.0053 53.0002 39.3618 52.9138 39.6941 52.2616C39.793 52.0646 39.8786 51.8552 39.8786 51.7938C39.8786 51.7447 39.4482 51.5968 38.9306 51.4738C38.4013 51.3509 37.872 51.2279 37.7614 51.203C37.5521 51.1415 37.5396 50.7601 37.5396 45.4672V39.7928L41.2812 45.6641C45.2073 51.8179 45.7001 52.52 46.3033 52.8274C47.0544 53.2213 48.9622 52.9504 49.9219 52.323L50.2177 52.1386L50.2426 43.7446L50.2792 35.3382L50.9315 35.2152C51.7067 35.0673 52.064 34.7108 52.064 34.0951C52.064 33.7013 52.0391 33.6764 51.6702 33.6888C51.4499 33.699 50.1819 33.7729 48.8649 33.8593Z" fill="white"/>
</g>
</g>
<defs>
<filter id="filter0_i_27998_3948" x="0" y="0" width="80" height="80" filterUnits="userSpaceOnUse" color-interpolation-filters="sRGB">
<feFlood flood-opacity="0" result="BackgroundImageFix"/>
<feBlend mode="normal" in="SourceGraphic" in2="BackgroundImageFix" result="shape"/>
<feColorMatrix in="SourceAlpha" type="matrix" values="0 0 0 0 0 0 0 0 0 0 0 0 0 0 0 0 0 0 127 0" result="hardAlpha"/>
<feOffset/>
<feGaussianBlur stdDeviation="5"/>
<feComposite in2="hardAlpha" operator="arithmetic" k2="-1" k3="1"/>
<feColorMatrix type="matrix" values="0 0 0 0 0 0 0 0 0 0 0 0 0 0 0 0 0 0 0.32 0"/>
<feBlend mode="normal" in2="shape" result="effect1_innerShadow_27998_3948"/>
</filter>
<filter id="filter1_f_27998_3948" x="-29.7129" y="-58.335" width="139.428" height="139.605" filterUnits="userSpaceOnUse" color-interpolation-filters="sRGB">
<feFlood flood-opacity="0" result="BackgroundImageFix"/>
<feBlend mode="normal" in="SourceGraphic" in2="BackgroundImageFix" result="shape"/>
<feGaussianBlur stdDeviation="22" result="effect1_foregroundBlur_27998_3948"/>
</filter>
<clipPath id="clip0_27998_3948">
<rect width="37.7853" height="40.2142" fill="white" transform="translate(20.6797 20.1037)"/>
</clipPath>
</defs>
</svg>
