<svg width="80" height="80" viewBox="0 0 80 80" fill="none" xmlns="http://www.w3.org/2000/svg">
<g filter="url(#filter0_i_27998_3931)">
<mask id="mask0_27998_3931" style="mask-type:alpha" maskUnits="userSpaceOnUse" x="0" y="0" width="80" height="80">
<rect width="80" height="80" rx="20" fill="#323232"/>
</mask>
<g mask="url(#mask0_27998_3931)">
<rect y="0.274475" width="80" height="80" rx="20" fill="#8D8D8D"/>
<g filter="url(#filter1_f_27998_3931)">
<ellipse cx="39.9994" cy="11.4678" rx="25.7143" ry="25.8026" fill="#A19E9E"/>
</g>
</g>
<g opacity="0.8">
<g clip-path="url(#clip0_27998_3931)">
<path d="M57.1627 36.503C58.0718 33.7745 57.7587 30.7855 56.305 28.3038C54.1187 24.4972 49.7236 22.5388 45.4311 23.4604C43.5215 21.3091 40.7781 20.0858 37.9018 20.1033C33.5142 20.0933 29.6212 22.9182 28.2714 27.093C25.4527 27.6702 23.0198 29.4345 21.596 31.9351C19.3935 35.7317 19.8956 40.5174 22.8382 43.7731C21.9292 46.5016 22.2422 49.4905 23.6959 51.9723C25.8823 55.7789 30.2774 57.7373 34.5698 56.8156C36.4781 58.9669 39.2228 60.1902 42.0991 60.1715C46.4892 60.1827 50.3834 57.3553 51.7333 53.1768C54.552 52.5996 56.9849 50.8352 58.4087 48.3347C60.6088 44.5381 60.1054 39.7561 57.164 36.5005L57.1627 36.503ZM42.1016 57.5532C40.3448 57.5557 38.6431 56.9409 37.2945 55.8153C37.3559 55.7827 37.4623 55.7239 37.5312 55.6813L45.51 51.0733C45.9182 50.8417 46.1686 50.4072 46.1661 49.9376V38.6892L49.5382 40.6364C49.5746 40.6539 49.5983 40.689 49.6034 40.729V50.044C49.5983 54.1861 46.2438 57.5445 42.1016 57.5532ZM25.9686 50.6625C25.0883 49.1424 24.7715 47.3605 25.0733 45.6313C25.1322 45.6664 25.2361 45.7303 25.31 45.7728L33.2888 50.3808C33.6932 50.6175 34.1941 50.6175 34.5998 50.3808L44.3404 44.756V48.6503C44.3429 48.6903 44.3242 48.7291 44.2929 48.7542L36.2276 53.411C32.6352 55.4796 28.0472 54.2499 25.9698 50.6625L25.9686 50.6625ZM23.8687 33.2461C24.7452 31.7235 26.1289 30.5589 27.7768 29.9541C27.7768 30.023 27.773 30.1444 27.773 30.2296V39.4468C27.7705 39.9151 28.0209 40.3496 28.4279 40.5813L38.1685 46.2048L34.7964 48.1519C34.7626 48.1744 34.7201 48.1782 34.6825 48.1619L26.616 43.5014C23.0311 41.4252 21.8015 36.8385 23.8675 33.2473L23.8687 33.2461ZM51.5742 39.6935L41.8336 34.0687L45.2057 32.1229C45.2395 32.1004 45.282 32.0966 45.3196 32.1129L53.3861 36.7697C56.9773 38.8445 58.2082 43.4388 56.1334 47.03C55.2556 48.5501 53.8732 49.7147 52.2266 50.3207V40.828C52.2303 40.3597 51.9812 39.9264 51.5755 39.6935H51.5742ZM54.93 34.6422C54.8712 34.6059 54.7673 34.5433 54.6934 34.5007L46.7146 29.8928C46.3101 29.6561 45.8093 29.6561 45.4036 29.8928L35.6629 35.5175V31.6232C35.6604 31.5831 35.6792 31.5443 35.7105 31.5193L43.7757 26.8662C47.3682 24.7939 51.9611 26.0273 54.0323 29.621C54.9075 31.1387 55.2243 32.9155 54.9275 34.6422H54.93ZM33.8298 41.583L30.4564 39.6359C30.4201 39.6184 30.3963 39.5833 30.3913 39.5433V30.2283C30.3938 26.0811 33.7584 22.7203 37.9056 22.7228C39.6598 22.7228 41.3578 23.3389 42.7064 24.4608C42.645 24.4934 42.5399 24.5522 42.4697 24.5948L34.4909 29.2028C34.0827 29.4345 33.8323 29.8677 33.8348 30.3373L33.8298 41.5805V41.583ZM35.6617 37.6337L40.0004 35.128L44.3392 37.6324V42.6423L40.0004 45.1467L35.6617 42.6423V37.6337Z" fill="white"/>
</g>
</g>
</g>
<defs>
<filter id="filter0_i_27998_3931" x="0" y="0" width="80" height="80" filterUnits="userSpaceOnUse" color-interpolation-filters="sRGB">
<feFlood flood-opacity="0" result="BackgroundImageFix"/>
<feBlend mode="normal" in="SourceGraphic" in2="BackgroundImageFix" result="shape"/>
<feColorMatrix in="SourceAlpha" type="matrix" values="0 0 0 0 0 0 0 0 0 0 0 0 0 0 0 0 0 0 127 0" result="hardAlpha"/>
<feOffset/>
<feGaussianBlur stdDeviation="5"/>
<feComposite in2="hardAlpha" operator="arithmetic" k2="-1" k3="1"/>
<feColorMatrix type="matrix" values="0 0 0 0 0 0 0 0 0 0 0 0 0 0 0 0 0 0 0.32 0"/>
<feBlend mode="normal" in2="shape" result="effect1_innerShadow_27998_3931"/>
</filter>
<filter id="filter1_f_27998_3931" x="-29.7148" y="-58.3348" width="139.428" height="139.605" filterUnits="userSpaceOnUse" color-interpolation-filters="sRGB">
<feFlood flood-opacity="0" result="BackgroundImageFix"/>
<feBlend mode="normal" in="SourceGraphic" in2="BackgroundImageFix" result="shape"/>
<feGaussianBlur stdDeviation="22" result="effect1_foregroundBlur_27998_3931"/>
</filter>
<clipPath id="clip0_27998_3931">
<rect x="19.9668" y="20.1033" width="40.0686" height="40.0686" rx="20" fill="white"/>
</clipPath>
</defs>
</svg>
