<svg width="77" height="51" viewBox="0 0 77 51" fill="none" xmlns="http://www.w3.org/2000/svg">
<path fill-rule="evenodd" clip-rule="evenodd" d="M29.7974 49.7155C35.0078 52.1822 40.0988 50.3146 45.1398 46.5727C37.5701 49.5574 28.4398 41.9568 17.1329 27.6313L16.4027 27.9063V28.7256C16.4027 29.7388 15.5673 30.5674 14.5435 30.5674H9.65066H9.63292C13.4379 34.3356 26.323 48.0702 29.7974 49.7155ZM9.28664 28.7256V23.8756C9.28664 23.677 9.45091 23.5153 9.65117 23.5153H14.544C14.7454 23.5153 14.9086 23.6775 14.9086 23.8756V28.7256C14.9086 28.9241 14.7454 29.0875 14.544 29.0875H9.65117C9.45091 29.0875 9.28664 28.9241 9.28664 28.7256ZM15.1776 21.9893V17.1397C15.1776 16.9418 15.3409 16.7785 15.5406 16.7785H20.4346C20.6343 16.7785 20.7991 16.9418 20.7991 17.1397V21.9893C20.7991 22.1888 20.6343 22.3512 20.4346 22.3512H15.5406C15.3409 22.3512 15.1776 22.1888 15.1776 21.9893ZM4.5085 21.4998V16.6502C4.5085 16.4507 4.67331 16.2889 4.87305 16.2889H9.76696C9.9667 16.2889 10.1315 16.4507 10.1315 16.6502V21.4998C10.1315 21.6988 9.96722 21.8612 9.76696 21.8612H4.87305C4.67382 21.8612 4.5085 21.6988 4.5085 21.4998ZM11.6084 16.1819V13.3694C11.6084 13.2542 11.7028 13.1595 11.8192 13.1595H14.6567C14.773 13.1595 14.8674 13.2548 14.8674 13.3694V16.1819C14.8674 16.2977 14.773 16.3913 14.6567 16.3913H11.8192C11.7028 16.3913 11.6084 16.2977 11.6084 16.1819ZM7.04203 14.7377V12.82C7.04203 12.7409 7.10722 12.6758 7.18649 12.6758H9.12132C9.20111 12.6758 9.26578 12.7409 9.26578 12.82V14.7377C9.26578 14.8163 9.20111 14.8809 9.12132 14.8809H7.18649C7.10775 14.8809 7.04203 14.8163 7.04203 14.7377ZM3.41749 27.9363V25.7337C3.41749 25.6433 3.49259 25.5704 3.58333 25.5704H5.80604C5.8973 25.5704 5.97188 25.6438 5.97188 25.7337V27.9363C5.97188 28.0278 5.8973 28.1012 5.80604 28.1012H3.58333C3.49259 28.1007 3.41749 28.0278 3.41749 27.9363ZM0 18.0174V15.8134C0 15.7235 0.0740553 15.6506 0.164278 15.6506H2.38698C2.47876 15.6506 2.55282 15.724 2.55282 15.8134V18.0174C2.55282 18.1074 2.47876 18.1803 2.38698 18.1803H0.164278C0.0740553 18.1808 0 18.1074 0 18.0174ZM37.4423 44.0941C45.7599 48.0258 52.1386 42.008 49.1352 30.51C48.2105 47.374 35.6545 36.7914 22.5029 16.9382C22.0977 16.3262 22.2937 16.4968 22.2937 17.1397V21.9893C22.2937 23.0025 21.4567 23.8321 20.4346 23.8321H16.5289C20.7293 29.4797 30.843 40.9747 37.4423 44.0941Z" fill="white"/>
<path fill-rule="evenodd" clip-rule="evenodd" d="M46.453 1.11847C41.2431 -1.34922 36.1515 0.518344 31.1111 4.26021C38.6804 1.27612 47.811 8.87823 59.1175 23.2017L59.8482 22.9266V22.1079C59.8482 21.0937 60.6837 20.2656 61.7059 20.2656H66.5997H66.6175C62.813 16.4979 49.928 2.76326 46.453 1.11847ZM66.9643 22.1083V26.9579C66.9643 27.156 66.7995 27.3193 66.5997 27.3193H61.7059C61.5061 27.3193 61.3429 27.1564 61.3429 26.9579V22.1083C61.3429 21.9093 61.5061 21.7471 61.7059 21.7471H66.5997C66.7995 21.7471 66.9643 21.9093 66.9643 22.1083ZM61.0737 28.8436V33.6931C61.0737 33.8928 60.9105 34.0545 60.7093 34.0545H55.8164C55.6166 34.0545 55.4518 33.8928 55.4518 33.6931V28.8436C55.4518 28.6446 55.6161 28.4823 55.8164 28.4823H60.7093C60.9105 28.4823 61.0737 28.6446 61.0737 28.8436ZM71.7409 29.3336V34.1833C71.7409 34.3823 71.5771 34.5445 71.3773 34.5445H66.4835C66.2838 34.5445 66.1184 34.3823 66.1184 34.1833V29.3336C66.1184 29.1356 66.2832 28.9723 66.4835 28.9723H71.3773C71.5776 28.9723 71.7409 29.1356 71.7409 29.3336ZM64.6431 34.6525V37.465C64.6431 37.5803 64.5487 37.6738 64.4323 37.6738H61.5948C61.4784 37.6738 61.3831 37.5803 61.3831 37.465V34.6525C61.3831 34.5373 61.4784 34.4427 61.5948 34.4427H64.4323C64.5487 34.4422 64.6431 34.5373 64.6431 34.6525ZM69.2089 36.0963V38.0145C69.2089 38.0926 69.1432 38.1572 69.0644 38.1572H67.1291C67.0493 38.1572 66.9852 38.0926 66.9852 38.0145V36.0963C66.9852 36.0172 67.0493 35.9521 67.1291 35.9521H69.0644C69.1432 35.9526 69.2089 36.0172 69.2089 36.0963ZM72.8335 22.8972V25.1002C72.8335 25.1901 72.7583 25.2645 72.6671 25.2645H70.4449C70.3536 25.2645 70.2785 25.1906 70.2785 25.1002V22.8972C70.2785 22.8072 70.3536 22.7328 70.4449 22.7328H72.6671C72.7583 22.7328 72.8335 22.8072 72.8335 22.8972ZM76.251 32.817V35.0201C76.251 35.11 76.1769 35.1829 76.0861 35.1829H73.8624C73.7716 35.1829 73.6981 35.1095 73.6981 35.0201V32.817C73.6981 32.726 73.7721 32.6526 73.8624 32.6526H76.0861C76.1774 32.6526 76.251 32.726 76.251 32.817ZM38.8092 6.73876C30.4916 2.8077 24.1128 8.82498 27.1163 20.325C28.0399 3.45953 40.5969 14.0432 53.7469 33.8948C54.1522 34.5073 53.9577 34.3367 53.9577 33.6931V28.8436C53.9577 27.8305 54.7948 27.0013 55.8164 27.0013H59.722C55.5222 21.3531 45.4084 9.85982 38.8092 6.73876Z" fill="white"/>
</svg>
