<svg width="36" height="36" viewBox="0 0 36 36" fill="none" xmlns="http://www.w3.org/2000/svg">
<g clip-path="url(#clip0_27157_455)">
<path d="M35.5006 18.1876C35.5006 27.9863 27.5575 35.9333 17.7627 35.9333C7.96845 35.9333 0.0253906 27.9869 0.0253906 18.187C0.0253906 8.38882 7.96789 0.442383 17.7627 0.442383C27.5575 0.442383 35.5006 8.38882 35.5006 18.1876Z" fill="#CA2127"/>
<path d="M16.001 6.45149C11.0634 6.98474 6.14598 10.808 5.94573 16.2812C5.81636 19.6219 7.20573 22.1272 10.5239 22.8315C10.9036 21.2514 10.9739 20.3964 10.9739 20.3964C10.9739 20.3964 9.51423 18.9879 9.36405 18.0924C8.14511 10.8885 18.0299 5.9683 23.2173 10.9993C26.7959 14.4902 24.4368 25.226 18.6599 24.1089C13.1227 23.0424 21.3684 14.5003 16.9505 12.8201C13.3623 11.4515 11.4532 16.9955 13.1525 19.7422C12.1529 24.4712 10.0042 28.9284 10.8738 34.8549C13.702 32.8929 14.6515 29.1298 15.4312 25.2058C16.8504 26.031 17.6103 26.8961 19.4193 27.0266C26.0962 27.5199 29.8244 20.6377 28.9143 14.2792C28.0953 8.64467 22.238 5.77705 16.001 6.45149Z" fill="white"/>
</g>
<defs>
<clipPath id="clip0_27157_455">
<rect width="36" height="36" fill="white"/>
</clipPath>
</defs>
</svg>
