<svg width="45" height="45" viewBox="0 0 45 45" fill="none" xmlns="http://www.w3.org/2000/svg">
<path d="M22.5 42.1875C33.3731 42.1875 42.1875 33.3731 42.1875 22.5C42.1875 11.6269 33.3731 2.8125 22.5 2.8125C11.6269 2.8125 2.8125 11.6269 2.8125 22.5C2.8125 33.3731 11.6269 42.1875 22.5 42.1875Z" fill="#FF3366"/>
<path d="M15.9751 15.2695C16.6277 15.2695 17.2537 15.0103 17.7152 14.5487C18.1767 14.0872 18.436 13.4613 18.436 12.8086C18.436 12.1559 18.1767 11.53 17.7152 11.0684C17.2537 10.6069 16.6277 10.3477 15.9751 10.3477C15.3224 10.3477 14.6964 10.6069 14.2349 11.0684C13.7734 11.53 13.5141 12.1559 13.5141 12.8086C13.5141 13.4613 13.7734 14.0872 14.2349 14.5487C14.6964 15.0103 15.3224 15.2695 15.9751 15.2695ZM10.8338 17.3789L9.97656 20.521H12.7891C12.2254 22.8138 11.0448 27.6361 10.8338 28.585C10.57 29.7719 10.5261 33.1553 14.0856 33.1553C16.5702 33.1553 18.1548 31.5505 19.039 30.2399L18.3702 32.914H22.3696L24.4564 24.4653C24.7534 23.059 25.4521 20.3455 27.9721 20.3455C30.9702 20.3455 29.8705 23.8955 29.3316 25.6353L29.2686 25.8383C28.8648 27.1568 28.4339 28.6953 28.4339 29.75C28.4339 30.9363 28.9829 33.1553 32.0592 33.1553C35.1355 33.1553 36.4467 30.1088 36.7173 28.585L35.1574 27.9477C35.0478 28.7611 34.0589 30.5183 33.1358 30.5183C31.8724 30.5183 32.5075 28.3887 33.1848 26.1157C33.4846 25.1077 33.7934 24.071 33.9492 23.1794C34.3418 20.9266 33.9492 17.0932 30.0376 17.0932C27.6087 17.0932 25.7007 19.2582 24.7939 20.7607L25.5556 17.3789H19.4693L18.634 20.521H21.469C21.469 20.521 19.7866 27.3762 19.678 27.5911C18.535 29.8484 16.807 30.6061 15.5138 30.5189C14.4766 30.4486 14.5986 29.2004 14.7888 28.585L17.6013 17.3789H10.8338Z" fill="white"/>
</svg>
