<svg width="43" height="43" viewBox="0 0 43 43" fill="none" xmlns="http://www.w3.org/2000/svg">
<path d="M21.5 40.3125C31.8899 40.3125 40.3125 31.8899 40.3125 21.5C40.3125 11.1101 31.8899 2.6875 21.5 2.6875C11.1101 2.6875 2.6875 11.1101 2.6875 21.5C2.6875 31.8899 11.1101 40.3125 21.5 40.3125Z" fill="#0F287F"/>
<path fill-rule="evenodd" clip-rule="evenodd" d="M14.7813 10.75L8.0625 14.7813L14.7813 18.8125L8.0625 22.8438L14.7813 26.875L21.5 22.8438L28.2188 26.875L34.9375 22.8438L28.2188 18.8125L34.9375 14.7813L28.2188 10.75L21.5 14.7813L14.7813 10.75ZM21.5 14.7813L28.2188 18.8125L21.5 22.8438L14.7813 18.8125L21.5 14.7813Z" fill="#DAF8FE"/>
<path d="M14.7812 29.5625L21.5 25.5312L28.2188 29.5625L21.5 33.5938L14.7812 29.5625Z" fill="#DAF8FE"/>
</svg>
