<svg width="45" height="45" viewBox="0 0 45 45" fill="none" xmlns="http://www.w3.org/2000/svg">
<path d="M22.5 42.1875C33.3731 42.1875 42.1875 33.3731 42.1875 22.5C42.1875 11.6269 33.3731 2.8125 22.5 2.8125C11.6269 2.8125 2.8125 11.6269 2.8125 22.5C2.8125 33.3731 11.6269 42.1875 22.5 42.1875Z" fill="#00A82D"/>
<path d="M17.8594 15.5306C17.8594 15.7832 17.8391 16.2028 17.5933 16.4756C17.3272 16.7276 16.9183 16.7484 16.6725 16.7484C15.291 16.7484 13.3751 16.4014 12.0684 16.9374C14.0625 13.3594 17.9252 10.9817 17.9004 11.187C17.7165 12.6028 17.8594 14.1064 17.8594 15.5306ZM21.9926 31.7751C21.9926 30.033 23.3842 28.6059 25.1032 28.6059C25.6151 28.6059 26.0241 29.0256 26.0241 29.5504C26.0241 29.907 25.8396 30.2012 25.5532 30.3688C25.2411 30.5606 24.8091 30.4712 24.5301 30.7254C24.3253 30.8936 24.1616 31.1664 24.1616 31.4601C24.1616 31.7751 24.2848 32.0687 24.489 32.2785C24.6693 32.4653 24.8855 32.6137 25.1247 32.7147C25.3639 32.8157 25.621 32.8673 25.8806 32.8663C27.2722 32.8663 28.3978 31.7121 28.3978 30.2844C28.3978 29.0048 27.5586 27.8713 26.4538 27.3679C24.7764 26.5073 22.2109 26.9966 22.0134 24.3034C21.7057 25.7282 21.0274 28.2701 19.1897 28.2701C13.6378 28.6082 11.637 24.1116 11.25 19.3506C11.25 18.3223 11.8637 17.6293 12.6416 17.5247H16.8154C17.532 17.5247 17.9415 17.3363 18.207 17.0843C18.5552 16.7484 18.6367 16.2658 18.6367 15.6988V11.2708C18.6367 10.3798 19.4147 9.84375 20.4171 9.84375C21.0077 9.84375 21.5623 9.86456 22.1361 10.0119C23.3842 10.3269 23.6503 11.6274 23.6503 11.6274C23.6503 11.6274 26.0032 12.0476 27.1901 12.2574C28.3157 12.4673 31.0984 12.6563 31.6305 15.5312C32.8792 22.3729 32.1216 29.0048 32.0602 29.0048C31.1805 35.4684 25.9425 35.154 25.9425 35.154C24.0384 35.154 21.9937 33.8546 21.9937 31.7751H21.9926ZM28.1317 20.6308C27.4567 20.5678 26.883 20.8406 26.6788 21.3654C26.3886 22.1091 29.3799 22.7273 29.3799 21.7013C29.2978 21.1134 28.8073 20.7152 28.1317 20.6308Z" fill="white"/>
</svg>
