<svg width="40" height="40" viewBox="0 0 40 40" fill="none" xmlns="http://www.w3.org/2000/svg">
<path d="M2.5 14.5C2.5 10.3 2.5 8.1995 3.3175 6.595C4.03654 5.18385 5.18385 4.03654 6.595 3.3175C8.2 2.5 10.3 2.5 14.5 2.5H25.5C29.7 2.5 31.8005 2.5 33.405 3.3175C34.8162 4.03654 35.9635 5.18385 36.6825 6.595C37.5 8.2 37.5 10.3 37.5 14.5V25.5C37.5 29.7 37.5 31.8005 36.6825 33.405C35.9635 34.8162 34.8162 35.9635 33.405 36.6825C31.8 37.5 29.7 37.5 25.5 37.5H14.5C10.3 37.5 8.1995 37.5 6.595 36.6825C5.18385 35.9635 4.03654 34.8162 3.3175 33.405C2.5 31.8 2.5 29.7 2.5 25.5V14.5Z" fill="url(#paint0_linear_26943_252)"/>
<path d="M30.344 12.5335C28.452 10.9335 26.181 10.1335 23.784 10L23.406 10.4C25.5505 10.9335 27.4425 12 29.2085 13.4665C27.064 12.2665 24.6675 11.4665 22.1445 11.2C21.3875 11.0665 20.757 11.0665 20 11.0665C19.243 11.0665 18.6125 11.0665 17.8555 11.2C15.3325 11.4665 12.9355 12.2665 10.7915 13.4665C12.5575 12 14.4495 10.9335 16.594 10.4L16.2155 10C13.819 10.1335 11.548 10.9335 9.6555 12.5335C7.5115 16.8 6.376 21.6 6.25 26.5335C8.142 28.6665 10.7915 30 13.5665 30C13.5665 30 14.4495 28.9335 15.0805 28C13.4405 27.6 11.9265 26.6665 10.9175 25.2C11.8005 25.7335 12.6835 26.2665 13.5665 26.6665C14.7015 27.2 15.837 27.4665 16.9725 27.7335C17.9815 27.8665 18.991 28 20 28C21.009 28 22.0185 27.8665 23.0275 27.7335C24.1625 27.4665 25.298 27.2 26.4335 26.6665C27.3165 26.2665 28.1995 25.7335 29.0825 25.2C28.0735 26.6665 26.5595 27.6 24.92 28C25.55 28.9335 26.4335 30 26.4335 30C29.2085 30 31.858 28.6665 33.75 26.5335C33.624 21.6 32.4885 16.8 30.344 12.5335ZM15.837 24.1335C14.5755 24.1335 13.4405 22.9335 13.4405 21.4665C13.4405 20 14.5755 18.8 15.837 18.8C17.0985 18.8 18.234 20 18.234 21.4665C18.234 22.9335 17.099 24.1335 15.837 24.1335ZM24.163 24.1335C22.9015 24.1335 21.766 22.9335 21.766 21.4665C21.766 20 22.901 18.8 24.163 18.8C25.4245 18.8 26.5595 20 26.5595 21.4665C26.5595 22.9335 25.4245 24.1335 24.163 24.1335Z" fill="white"/>
<defs>
<linearGradient id="paint0_linear_26943_252" x1="20" y1="2.5" x2="20" y2="37.5" gradientUnits="userSpaceOnUse">
<stop stop-color="#687EC9"/>
<stop offset="1" stop-color="#5971C3"/>
</linearGradient>
</defs>
</svg>
