<svg width="40" height="40" viewBox="0 0 40 40" fill="none" xmlns="http://www.w3.org/2000/svg">
<path d="M6.875 18.75C6.25693 18.75 5.65275 18.5667 5.13884 18.2233C4.62494 17.88 4.2244 17.3919 3.98788 16.8209C3.75135 16.2499 3.68947 15.6215 3.81005 15.0153C3.93063 14.4092 4.22825 13.8523 4.66529 13.4153C5.10233 12.9783 5.65915 12.6806 6.26534 12.56C6.87153 12.4395 7.49987 12.5014 8.07089 12.7379C8.64191 12.9744 9.12996 13.3749 9.47334 13.8888C9.81672 14.4027 10 15.0069 10 15.625V18.75H6.875ZM15.625 18.75C15.2146 18.75 14.8083 18.6692 14.4291 18.5121C14.05 18.3551 13.7055 18.1249 13.4153 17.8347C13.1251 17.5445 12.8949 17.2 12.7379 16.8209C12.5808 16.4417 12.5 16.0354 12.5 15.625V6.875C12.5 6.0462 12.8292 5.25134 13.4153 4.66529C14.0013 4.07924 14.7962 3.75 15.625 3.75C16.4538 3.75 17.2487 4.07924 17.8347 4.66529C18.4208 5.25134 18.75 6.0462 18.75 6.875V15.625C18.75 16.4538 18.4208 17.2487 17.8347 17.8347C17.2487 18.4208 16.4538 18.75 15.625 18.75Z" fill="#2EB67D"/>
<path d="M33.125 21.25C33.7431 21.25 34.3473 21.4333 34.8612 21.7767C35.3751 22.12 35.7756 22.6081 36.0121 23.1791C36.2486 23.7501 36.3105 24.3785 36.19 24.9847C36.0694 25.5908 35.7717 26.1477 35.3347 26.5847C34.8977 27.0217 34.3408 27.3194 33.7347 27.44C33.1285 27.5605 32.5001 27.4986 31.9291 27.2621C31.3581 27.0256 30.87 26.6251 30.5267 26.1112C30.1833 25.5973 30 24.9931 30 24.375V21.25H33.125ZM24.375 21.25C25.2038 21.25 25.9987 21.5792 26.5847 22.1653C27.1708 22.7513 27.5 23.5462 27.5 24.375V33.125C27.5 33.9538 27.1708 34.7487 26.5847 35.3347C25.9987 35.9208 25.2038 36.25 24.375 36.25C23.5462 36.25 22.7513 35.9208 22.1653 35.3347C21.5792 34.7487 21.25 33.9538 21.25 33.125V24.375C21.25 23.5462 21.5792 22.7513 22.1653 22.1653C22.7513 21.5792 23.5462 21.25 24.375 21.25Z" fill="#E01E5A"/>
<path d="M18.75 33.125C18.75 33.7431 18.5667 34.3473 18.2233 34.8612C17.88 35.3751 17.3919 35.7756 16.8209 36.0121C16.2499 36.2486 15.6215 36.3105 15.0153 36.19C14.4092 36.0694 13.8523 35.7717 13.4153 35.3347C12.9783 34.8977 12.6806 34.3408 12.56 33.7347C12.4395 33.1285 12.5014 32.5001 12.7379 31.9291C12.9744 31.3581 13.3749 30.87 13.8888 30.5267C14.4027 30.1833 15.0069 30 15.625 30H18.75V33.125ZM18.75 24.375C18.75 24.7854 18.6692 25.1917 18.5121 25.5709C18.3551 25.95 18.1249 26.2945 17.8347 26.5847C17.5445 26.8749 17.2 27.1051 16.8209 27.2621C16.4417 27.4192 16.0354 27.5 15.625 27.5H6.875C6.0462 27.5 5.25134 27.1708 4.66529 26.5847C4.07924 25.9987 3.75 25.2038 3.75 24.375C3.75 23.5462 4.07924 22.7513 4.66529 22.1653C5.25134 21.5792 6.0462 21.25 6.875 21.25H15.625C16.4538 21.25 17.2487 21.5792 17.8347 22.1653C18.4208 22.7513 18.75 23.5462 18.75 24.375Z" fill="#ECB22E"/>
<path d="M21.25 6.875C21.25 6.25694 21.4333 5.65275 21.7767 5.13884C22.12 4.62494 22.6081 4.2244 23.1791 3.98788C23.7501 3.75135 24.3785 3.68947 24.9847 3.81005C25.5908 3.93063 26.1477 4.22825 26.5847 4.66529C27.0217 5.10233 27.3194 5.65915 27.44 6.26534C27.5605 6.87154 27.4986 7.49987 27.2621 8.07089C27.0256 8.64191 26.6251 9.12997 26.1112 9.47335C25.5973 9.81672 24.9931 10 24.375 10H21.25V6.875ZM21.25 15.625C21.25 14.7962 21.5792 14.0013 22.1653 13.4153C22.7513 12.8292 23.5462 12.5 24.375 12.5H33.125C33.9538 12.5 34.7487 12.8292 35.3347 13.4153C35.9208 14.0013 36.25 14.7962 36.25 15.625C36.25 16.4538 35.9208 17.2487 35.3347 17.8347C34.7487 18.4208 33.9538 18.75 33.125 18.75H24.375C23.5462 18.75 22.7513 18.4208 22.1653 17.8347C21.5792 17.2487 21.25 16.4538 21.25 15.625Z" fill="#36C5F0"/>
</svg>
