<svg width="40" height="40" viewBox="0 0 40 40" fill="none" xmlns="http://www.w3.org/2000/svg">
<path d="M3.59 7.96C2.5 10.099 2.5 12.9 2.5 18.5V21.5C2.5 27.1005 2.5 29.901 3.59 32.04C4.54869 33.9216 6.07844 35.4513 7.96 36.41C10.099 37.5 12.9 37.5 18.5 37.5H21.5C27.1005 37.5 29.901 37.5 32.04 36.41C33.9216 35.4513 35.4513 33.9216 36.41 32.04C37.5 29.901 37.5 27.1 37.5 21.5V18.5C37.5 12.8995 37.5 10.099 36.41 7.96C35.4513 6.07844 33.9216 4.54869 32.04 3.59C29.901 2.5 27.1 2.5 21.5 2.5H18.5C12.8995 2.5 10.099 2.5 7.96 3.59C6.07846 4.54872 4.54872 6.07846 3.59 7.96Z" fill="url(#paint0_linear_26943_216)"/>
<path d="M2.8315 10.3494C2.5 12.2334 2.5 14.7334 2.5 18.4994V21.4994C2.5 27.1004 2.5 29.9004 3.59 32.0394C4.54872 33.9209 6.07846 35.4507 7.96 36.4094C10.099 37.4999 12.9 37.4999 18.5 37.4999H21.5C27.1005 37.4999 29.901 37.4999 32.04 36.4099C33.9215 35.4512 35.4513 33.9214 36.41 32.0399C37.5 29.9004 37.5 27.1004 37.5 21.4999V18.4999C37.5 12.8999 37.5 10.0999 36.41 7.95988C35.4853 6.14546 34.0287 4.65659 32.235 3.69238L2.8315 10.3494Z" fill="url(#paint1_linear_26943_216)"/>
<path d="M37.1368 29.8184C36.9758 30.6634 36.7438 31.3834 36.4088 32.0404C35.45 33.9219 33.9203 35.4516 32.0388 36.4104C29.9638 37.4679 27.2663 37.4999 21.9938 37.5004H20.0723V33.5469L37.1368 29.8184Z" fill="url(#paint2_linear_26943_216)"/>
<path d="M21.4997 2.5H18.4997C17.4097 2.5 16.4267 2.5 15.5332 2.508V7.463L32.2312 3.6905C32.1677 3.65631 32.1039 3.62281 32.0397 3.59C30.8522 2.985 29.4607 2.715 27.4997 2.596C25.9282 2.5 23.9912 2.5 21.4997 2.5Z" fill="url(#paint3_linear_26943_216)"/>
<path d="M37.5001 21.7191C37.5001 25.4761 37.4931 27.9526 37.1381 29.8201L31.2031 31.1166V22.2726L37.5001 20.8076V21.7191Z" fill="url(#paint4_linear_26943_216)"/>
<path fill-rule="evenodd" clip-rule="evenodd" d="M18.6769 16.7231C18.6769 15.9196 19.3339 15.6106 20.4219 15.6106C21.9819 15.6106 23.9519 16.0846 25.5119 16.9291V12.0881C23.8084 11.4081 22.1254 11.1406 20.4219 11.1406C16.2554 11.1406 13.4844 13.3241 13.4844 16.9706C13.4844 22.6556 21.2839 21.7491 21.2839 24.2006C21.2839 25.1476 20.4629 25.4566 19.3139 25.4566C17.6099 25.4566 15.4339 24.7566 13.7099 23.8091V28.7116C15.6189 29.5356 17.5484 29.8856 19.3134 29.8856C23.5824 29.8856 26.5179 27.7636 26.5179 24.0766C26.4974 17.9381 18.6769 19.0301 18.6769 16.7231Z" fill="white"/>
<defs>
<linearGradient id="paint0_linear_26943_216" x1="2.5" y1="2.5" x2="13.996" y2="10.6275" gradientUnits="userSpaceOnUse">
<stop stop-color="#392993"/>
<stop offset="1" stop-color="#4B47B9"/>
</linearGradient>
<linearGradient id="paint1_linear_26943_216" x1="3.818" y1="10.7179" x2="29.196" y2="31.6509" gradientUnits="userSpaceOnUse">
<stop stop-color="#594BB9"/>
<stop offset="1" stop-color="#60A8F2"/>
</linearGradient>
<linearGradient id="paint2_linear_26943_216" x1="20.0723" y1="33.6934" x2="37.4988" y2="37.5009" gradientUnits="userSpaceOnUse">
<stop stop-color="#61A2EF"/>
<stop offset="1" stop-color="#58E6FD"/>
</linearGradient>
<linearGradient id="paint3_linear_26943_216" x1="15.5332" y1="4.9895" x2="37.4997" y2="2.5" gradientUnits="userSpaceOnUse">
<stop stop-color="#534EBE"/>
<stop offset="1" stop-color="#6875E2"/>
</linearGradient>
<linearGradient id="paint4_linear_26943_216" x1="31.2031" y1="22.3456" x2="37.5001" y2="29.8871" gradientUnits="userSpaceOnUse">
<stop stop-color="#71A5F3"/>
<stop offset="1" stop-color="#6CC3FA"/>
</linearGradient>
</defs>
</svg>
