<svg width="44" height="44" viewBox="0 0 44 44" fill="none" xmlns="http://www.w3.org/2000/svg">
<path d="M22 41.25C32.6315 41.25 41.25 32.6315 41.25 22C41.25 11.3685 32.6315 2.75 22 2.75C11.3685 2.75 2.75 11.3685 2.75 22C2.75 32.6315 11.3685 41.25 22 41.25Z" fill="#3290E8"/>
<path fill-rule="evenodd" clip-rule="evenodd" d="M30.25 11H13.75C12.2507 10.9978 11.0027 12.254 11 13.75V30.25C11 30.9793 11.2897 31.6788 11.8055 32.1945C12.3212 32.7103 13.0207 33 13.75 33H30.25C31.7493 33.0022 32.9973 31.746 33 30.25V13.75C33 13.0207 32.7103 12.3212 32.1945 11.8055C31.6788 11.2897 30.9793 11 30.25 11ZM24.9326 15.0332C24.9399 14.8435 25.0205 14.664 25.1573 14.5324C25.294 14.4008 25.4765 14.3273 25.6663 14.3273C25.8561 14.3273 26.0386 14.4008 26.1753 14.5324C26.3121 14.664 26.3927 14.8435 26.4 15.0332V24.8314C26.4 25.2357 26.0711 25.5646 25.6669 25.5646C25.2786 25.5646 24.9343 25.2208 24.9332 24.8314L24.9326 15.0332ZM21.2663 14.6625C21.2663 14.4679 21.3436 14.2812 21.4812 14.1436C21.6188 14.0061 21.8054 13.9288 22 13.9288C22.1946 13.9288 22.3812 14.0061 22.5188 14.1436C22.6564 14.2812 22.7337 14.4679 22.7337 14.6625V25.2956C22.7337 25.701 22.4048 26.0293 22 26.0293C21.6117 26.0293 21.2674 25.685 21.2669 25.2956L21.2663 14.6625ZM17.6 15.0332C17.6089 14.8447 17.6901 14.6668 17.8267 14.5366C17.9632 14.4064 18.1447 14.3337 18.3334 14.3337C18.5221 14.3337 18.7036 14.4064 18.8402 14.5366C18.9767 14.6668 19.0579 14.8447 19.0669 15.0332V24.8314C19.0669 25.2357 18.7385 25.5646 18.3332 25.5646C17.9449 25.5646 17.6011 25.2208 17.6 24.8314V15.0332ZM13.9332 16.5C13.9332 16.3055 14.0104 16.1189 14.148 15.9814C14.2855 15.8438 14.4721 15.7666 14.6666 15.7666C14.8611 15.7666 15.0476 15.8438 15.1852 15.9814C15.3227 16.1189 15.4 16.3055 15.4 16.5V23.0956C15.4 23.501 15.0711 23.8293 14.6668 23.8293C14.4728 23.8274 14.2873 23.7495 14.1501 23.6123C14.0129 23.4752 13.935 23.2896 13.9332 23.0956V16.5ZM29.8111 27.6859C29.6984 27.7838 26.9814 30.0619 22 30.0619C17.0192 30.0619 14.3039 27.7827 14.1889 27.6854C14.043 27.5576 13.953 27.3778 13.9383 27.1844C13.9236 26.9911 13.9853 26.7997 14.1103 26.6514C14.3633 26.3571 14.8462 26.3192 15.1415 26.5711C15.1844 26.6074 17.6105 28.5956 21.9995 28.5956C26.4435 28.5956 28.8321 26.5925 28.8552 26.5727C29.1506 26.3197 29.6351 26.356 29.8892 26.6519C30.1505 26.9544 30.1147 27.4263 29.8111 27.6859ZM30.0669 23.0962C30.0669 23.501 29.738 23.8299 29.3332 23.8299C29.1392 23.8278 28.9538 23.7499 28.8168 23.6127C28.6797 23.4755 28.6019 23.2901 28.6 23.0962V16.5C28.6 16.3055 28.6773 16.1189 28.8148 15.9814C28.9524 15.8438 29.1389 15.7666 29.3334 15.7666C29.5279 15.7666 29.7145 15.8438 29.852 15.9814C29.9896 16.1189 30.0669 16.3055 30.0669 16.5V23.0962Z" fill="white"/>
</svg>
