<svg width="46" height="46" viewBox="0 0 46 46" fill="none" xmlns="http://www.w3.org/2000/svg">
<path d="M23 2.875C11.8996 2.875 2.875 11.8996 2.875 23C2.875 34.1004 11.8996 43.125 23 43.125C34.1004 43.125 43.125 34.1004 43.125 23C43.125 11.8996 34.1004 2.875 23 2.875Z" fill="#FDDD4C"/>
<path d="M14.1853 28.2487C13.7455 27.5828 14.8523 26.5743 14.4021 25.7279C14.1422 25.2391 13.7179 24.935 13.209 24.8711C12.7202 24.8102 12.2165 24.989 11.8951 25.3386C11.3885 25.8906 11.3098 26.641 11.4075 26.9066C11.4437 27.0044 11.4995 27.0308 11.5403 27.0366C11.8163 27.0728 11.9716 26.3638 12.067 26.2166C12.3304 25.8101 12.929 25.6871 13.3424 25.9544C14.1255 26.461 13.4459 27.2804 13.5051 27.9721C13.562 28.6454 13.9818 28.9163 14.3584 28.9444C14.7247 28.9588 14.9811 28.7547 15.0461 28.6063C15.2014 28.2516 14.5476 28.7972 14.1853 28.2487ZM30.5567 22.1336C30.3364 22.1054 30.1135 22.1054 29.8932 22.1336C29.7155 21.9093 29.5568 21.5471 29.4671 21.1239C29.3073 20.3712 29.3239 19.8261 29.7696 19.7554C30.2146 19.6841 30.4302 20.1395 30.5895 20.8921C30.6965 21.3981 30.6758 21.8633 30.5567 22.1336ZM25.679 22.5809C25.6968 22.7517 25.7032 22.9242 25.698 23.0829C26.1292 23.1082 26.434 23.3129 26.5156 23.4428C26.557 23.5095 26.5404 23.5532 26.5271 23.5734C26.4823 23.6429 26.3868 23.632 26.1867 23.6096C26.0015 23.5856 25.8146 23.5764 25.6278 23.582C25.5209 23.9086 25.2052 23.9391 24.9838 23.697C24.8286 23.7447 24.5238 23.9391 24.433 23.728C24.4324 23.6228 24.5422 23.4704 24.7406 23.3359C24.6068 23.0773 24.5124 22.8001 24.4606 22.5136C24.1788 22.5648 23.9258 22.6436 23.7269 22.7051C23.6337 22.7344 23.2652 22.9006 23.222 22.7132C23.1933 22.5838 23.3945 22.3699 23.6084 22.2158C23.843 22.0491 24.1064 21.9272 24.3853 21.8564C24.3795 21.4482 24.4836 21.1635 24.7803 21.1164C25.1483 21.0577 25.376 21.3406 25.5335 21.865C25.978 21.9887 26.4219 22.2951 26.618 22.6114C26.6945 22.7344 26.7088 22.8293 26.66 22.8788C26.5363 23.0064 25.8544 22.6367 25.679 22.5809ZM28.6017 24.4163C28.8835 24.5526 29.194 24.4991 29.2952 24.2956C29.3964 24.0926 29.2492 23.8177 28.9674 23.6809C28.6857 23.5446 28.3752 23.5981 28.2746 23.8016C28.1734 24.004 28.3194 24.2789 28.6017 24.4163ZM29.9898 23.4078C29.995 23.0973 30.1853 22.8494 30.4141 22.8529C30.643 22.8575 30.8241 23.1116 30.8189 23.4221C30.8138 23.7315 30.6234 23.9799 30.3946 23.9759C30.1657 23.9718 29.9846 23.7177 29.9898 23.4078Z" fill="black"/>
<path fill-rule="evenodd" clip-rule="evenodd" d="M36.1942 27.209C36.1988 27.2251 36.1924 27.2032 36.1942 27.209C36.6542 27.209 37.3752 27.7305 37.3752 28.9897C37.3752 30.2427 36.8485 31.6618 36.7243 31.9769C34.8268 36.4653 30.2987 38.9631 24.9046 38.8056C19.8762 38.6578 15.5873 36.0387 13.7105 31.7687C12.5755 31.7699 11.4059 31.2771 10.5164 30.4991C9.57914 29.6797 9.00069 28.6189 8.88799 27.5126C8.80059 26.6512 8.90754 25.8497 9.18124 25.151L8.12669 24.2696C3.30301 20.2492 18.3904 3.69665 23.2147 7.85102C23.2394 7.87172 24.8563 9.43802 24.8603 9.44147C27.1868 8.46685 33.4204 6.61017 33.4278 10.9319C33.4301 12.3671 32.5032 14.0409 31.0186 15.5589C32.7344 17.1298 32.2819 19.3608 32.5556 21.4078L33.1513 21.5711C34.2875 21.8856 35.0953 22.3048 35.4909 22.7148C35.886 23.1242 36.082 23.5203 36.1533 23.9855C36.22 24.3604 36.2108 25.0228 35.71 25.7634C35.89 26.2407 36.055 26.7179 36.1942 27.209ZM13.6254 30.6043C13.7939 30.6084 13.9612 30.5974 14.1251 30.5698C15.888 30.2731 16.3492 28.3831 16.0588 26.5276C15.7311 24.4317 14.2947 23.6928 13.3201 23.6411C13.0755 23.6282 12.8303 23.6452 12.5898 23.6917C10.8499 24.0378 9.86779 25.4989 10.0616 27.3964C10.2364 29.1134 11.9959 30.5612 13.6254 30.6049V30.6043ZM9.68551 24.2075C10.2691 23.3703 11.2231 22.7654 12.3058 22.5572C13.6841 18.9048 15.9858 15.5399 19.0321 13.225C21.2925 11.3631 23.731 10.028 23.731 10.028C23.731 10.028 22.4177 8.52492 22.021 8.41452C19.5818 7.76477 14.3137 11.3505 10.9494 16.089C9.58834 18.0061 7.63966 21.402 8.57174 23.1477C8.68674 23.3639 9.33649 23.92 9.68551 24.2075ZM29.4626 29.7666C29.4641 29.786 29.4596 29.8055 29.4496 29.8222C29.4396 29.839 29.4247 29.8523 29.4069 29.8603C29.4069 29.8603 27.4461 30.7607 24.3331 29.8103C24.4452 30.7429 25.5768 31.0971 26.3674 31.2248C30.2257 31.8803 33.8326 29.7027 34.6445 29.1542C34.7837 29.0599 34.6428 29.302 34.6175 29.3376C33.6233 30.6026 30.9513 32.0689 27.4754 32.0677C25.9592 32.0677 24.444 31.5404 23.8874 30.7303C23.0249 29.4733 23.8449 27.6385 25.2835 27.8294C27.7152 28.1008 30.2078 27.8972 32.4584 26.8657C34.4214 25.9664 35.1626 24.9768 35.0516 24.1758C34.878 22.9338 33.0368 22.7395 32.1059 22.4376C31.7011 22.3054 31.5016 22.1996 31.4562 21.4475C31.436 21.1197 31.3785 19.9737 31.3573 19.5005C31.3199 18.6708 31.2193 17.5369 30.5063 17.0688C30.3241 16.9511 30.1135 16.8848 29.8968 16.8768C29.7753 16.8685 29.6533 16.8801 29.5357 16.9113C29.1504 16.9763 28.9147 17.1706 28.6369 17.4L28.5886 17.4403C27.6997 18.1711 26.9499 18.2913 26.1144 18.2556C25.8545 18.2441 25.5866 18.2188 25.3037 18.1912C25.0438 18.1659 24.7712 18.1395 24.4814 18.1222L24.1266 18.1027C22.7288 18.0314 21.2292 19.2234 20.9802 20.9156C20.7014 22.805 21.7576 23.9619 22.4442 24.7146C22.6138 24.9009 22.761 25.0619 22.8599 25.2034C22.9232 25.289 22.9973 25.4092 22.9973 25.5236C22.9973 25.6599 22.9076 25.768 22.8197 25.8606C21.3937 27.3084 20.9371 29.609 21.4742 31.5261C21.542 31.7653 21.6271 31.9941 21.7277 32.2126C22.9887 35.1221 26.9016 36.4762 30.723 35.2446C33.4014 34.3809 35.7675 32.2943 36.2494 29.4152C36.3644 28.6654 36.1953 28.3756 35.9665 28.2359C35.7232 28.0881 35.4323 28.1393 35.4323 28.1393C35.4323 28.1393 35.3 27.2435 34.924 26.4287C33.8102 27.2969 32.3762 27.9064 31.2842 28.2152C29.5345 28.7109 27.6451 28.9035 25.8373 28.67C25.1041 28.5752 24.6114 28.5119 24.4003 29.1887C26.8119 30.0604 29.3637 29.6872 29.3637 29.6872C29.3874 29.6846 29.4111 29.6915 29.4296 29.7064C29.4482 29.7213 29.46 29.7429 29.4626 29.7666ZM22.5051 12.8529C21.1867 13.5188 19.7147 14.7044 18.5187 16.0689C18.4767 16.1178 18.5394 16.1845 18.5911 16.1471C19.6244 15.4054 21.0406 14.7159 22.895 14.2697C24.973 13.7695 26.9735 13.9794 28.1953 14.2554C28.2574 14.2697 28.2954 14.1651 28.2413 14.1346C27.434 13.6878 26.1943 13.3842 25.3152 13.3779C25.3054 13.3777 25.296 13.3749 25.2877 13.3697C25.2795 13.3644 25.2729 13.357 25.2687 13.3483C25.2644 13.3396 25.2626 13.3298 25.2635 13.3201C25.2644 13.3104 25.2679 13.3012 25.2738 13.2934C25.4326 13.0885 25.6176 12.9052 25.824 12.7483C25.8666 12.7155 25.8413 12.6477 25.7872 12.6505C24.6936 12.7172 22.1958 13.8563 22.205 13.8149C22.2682 13.5113 22.4706 13.11 22.5747 12.9231C22.6 12.8788 22.5506 12.8299 22.5051 12.8529Z" fill="black"/>
</svg>
