<svg width="40" height="40" viewBox="0 0 40 40" fill="none" xmlns="http://www.w3.org/2000/svg">
<path fill-rule="evenodd" clip-rule="evenodd" d="M7.145 36.5227L2.846 31.1677C1.81608 29.892 1.25297 28.3027 1.25 26.6632V7.26916C1.25 4.82666 3.2045 2.79916 5.726 2.62716L25.665 1.26566C27.108 1.16531 28.5433 1.54925 29.7435 2.35666L36.749 7.09316C38.003 7.94066 38.75 9.32666 38.75 10.8062V32.8547C38.75 35.2452 36.828 37.2247 34.36 37.3767L12.229 38.7392C10.259 38.8602 8.355 38.0302 7.145 36.5227Z" fill="white"/>
<path d="M14.0608 16.975V16.721C14.0608 16.077 14.5763 15.5435 15.2408 15.499L20.0798 15.176L26.7723 25.031V16.3815L25.0493 16.1515V16.0315C25.0493 15.38 25.5768 14.843 26.2493 14.8085L30.6528 14.583V15.2165C30.6528 15.514 30.4318 15.7685 30.1283 15.8195L29.0688 15.999V30.006L27.7388 30.4635C26.6283 30.8455 25.3913 30.4365 24.7553 29.4765L18.2583 19.673V29.03L20.2583 29.413L20.2303 29.598C20.1428 30.1795 19.6413 30.6185 19.0343 30.6455L14.0608 30.867C13.9953 30.242 14.4633 29.6835 15.1093 29.6155L15.7638 29.5465V17.0705L14.0608 16.975Z" fill="black"/>
<path fill-rule="evenodd" clip-rule="evenodd" d="M25.8417 3.70674L5.9032 5.06774C4.7087 5.14974 3.7832 6.10974 3.7832 7.26674V26.6602C3.7832 27.7477 4.1572 28.8042 4.8467 29.6632L9.1457 35.0192C9.8407 35.8847 10.9347 36.3617 12.0667 36.2922L34.1967 34.9297C35.3317 34.8597 36.2142 33.9507 36.2142 32.8522V10.8032C36.2142 10.1237 35.8712 9.48724 35.2947 9.09724L28.2897 4.36074C27.5694 3.87642 26.7076 3.64627 25.8417 3.70674ZM6.8917 7.56924C6.6137 7.36424 6.7457 6.93624 7.0942 6.91124L25.9757 5.55674C26.5749 5.51296 27.1707 5.67817 27.6617 6.02424L31.4502 8.70824C31.5942 8.81024 31.5267 9.03024 31.3487 9.03974L11.3532 10.1272C10.7509 10.161 10.1556 9.98382 9.6697 9.62624L6.8917 7.56924ZM10.4152 13.5362C10.4152 12.8867 10.9402 12.3502 11.6112 12.3137L32.7522 11.1622C33.4062 11.1272 33.9567 11.6297 33.9567 12.2627V31.3547C33.9567 32.0032 33.4337 32.5392 32.7637 32.5772L11.7567 33.7722C11.0287 33.8137 10.4152 33.2547 10.4152 32.5497V13.5362Z" fill="black"/>
</svg>
