<svg width="110" height="48" viewBox="0 0 110 48" fill="none" xmlns="http://www.w3.org/2000/svg">
<path fill-rule="evenodd" clip-rule="evenodd" d="M54.5417 45.5412C30.486 48.9921 9.5678 42.1941 7.85954 30.3063C6.15128 18.4524 24.2803 6.04109 48.336 2.55452C69.2542 -0.443535 87.7667 4.26279 93.3794 13.327C87.9756 3.07745 67.4059 -2.36133 44.0826 0.985751C17.9702 4.75069 -1.72821 18.1034 0.12014 30.8287C1.93286 43.5189 24.5943 50.7704 50.7067 47.0049C61.3403 45.5062 70.8924 42.3686 78.3529 38.3591C71.7638 41.6718 63.5709 44.2152 54.5417 45.5412ZM91.1482 32.6414C90.2769 32.6414 89.7189 32.014 89.7189 31.2121C89.7189 30.0624 90.6953 29.1554 91.7756 29.1554C92.6469 29.1554 93.2405 29.7828 93.2405 30.5847C93.2399 31.7 92.2297 32.6414 91.1482 32.6414Z" fill="#1F3044" fill-opacity="0.6"/>
<path fill-rule="evenodd" clip-rule="evenodd" d="M35.855 32.9565H32.8913L33.1353 31.4578C32.7168 32.0508 31.392 33.2361 29.7188 33.2361C27.7315 33.2361 26.7551 32.2597 26.7551 30.6559C26.7551 30.3775 26.7902 30.0641 26.8596 29.7501L28.08 22.8114H31.0436L29.9627 28.8088C29.8933 29.1228 29.8933 29.4005 29.8933 29.6451C29.8933 30.761 30.3462 31.4578 31.2875 31.4578C32.5079 31.4578 33.2748 30.6559 33.6582 28.6342L34.669 22.8114H37.6327L35.855 32.9565ZM44.9892 25.3922H44.3969C44.4319 24.4158 43.595 23.6133 42.688 23.6133C41.6428 23.6133 40.8403 24.2413 40.8403 25.0432C40.8403 25.8101 41.7817 26.1235 42.7581 26.5081C43.9084 26.9254 45.0937 27.5528 45.0937 29.1922C45.0937 31.4234 43.2454 33.2361 40.3173 33.2361C39.376 33.2361 37.9817 32.9565 37.3887 32.3986L38.0862 30.3769H38.6091C38.8186 31.4228 39.6205 32.154 40.8059 32.154C42.0262 32.154 42.723 31.2827 42.723 30.6903C42.723 30.0629 42.1307 29.7139 41.3638 29.3999C40.1434 28.842 38.5747 28.3196 38.5747 26.5069C38.5747 24.3452 40.4224 22.5319 42.8631 22.5319C44.1179 22.5319 45.2338 22.8809 45.8268 23.5083L44.9892 25.3922ZM49.5567 21.2076C48.7198 21.2076 48.1274 20.5796 48.1274 19.7784C48.1274 18.6975 49.1382 17.7911 50.1497 17.7911C50.986 17.7911 51.5789 18.3835 51.5789 19.186C51.5783 20.2663 50.6025 21.2076 49.5567 21.2076ZM48.9637 32.9565H46.0001L47.7778 22.8114H50.7414L48.9637 32.9565ZM61.3056 26.7859L60.1897 32.9565H57.226L58.2719 27.205C58.3075 26.7865 58.3413 26.3674 58.3413 26.0196C58.3413 25.0076 57.9579 24.3464 56.9827 24.3464C55.6923 24.3464 54.8904 25.6706 54.6458 27.205L53.6 32.9565H50.6363L52.4491 22.8114H55.4121L55.1337 24.3802C55.4822 23.8223 56.877 22.5325 58.7254 22.5325C60.7114 22.5325 61.4438 23.5089 61.4438 25.2171C61.4445 25.6706 61.375 26.1929 61.3056 26.7859ZM69.3596 25.321C69.3596 25.7751 69.2545 26.2974 69.1851 26.7859H65.9775C66.2915 25.1127 67.0233 23.5089 68.2787 23.5089C69.08 23.5089 69.3596 24.3108 69.3596 25.321ZM72.1487 26.0891C72.1487 23.8579 71.2061 22.5325 68.4526 22.5325C64.8616 22.5325 62.4909 25.321 62.4909 28.9821C62.4909 31.5272 63.8864 33.2705 66.9539 33.2705C68.2087 33.2705 69.08 32.9565 70.2653 32.3291L70.9622 31.1088L70.7532 30.8999C70.0564 31.4234 68.9405 31.8763 67.9991 31.8763C66.5342 31.8763 65.6284 31.1088 65.6284 29.3311C65.6284 28.9126 65.6979 28.4597 65.7673 27.9712H71.973C72.078 27.2744 72.1487 26.647 72.1487 26.0891ZM80.027 25.3922H79.4352C79.4352 24.4158 78.6333 23.6133 77.7264 23.6133C76.6805 23.6133 75.878 24.2413 75.878 25.0432C75.878 25.8101 76.8206 26.1235 77.7958 26.5081C78.9117 26.9254 80.132 27.5528 80.132 29.1922C80.132 31.4234 78.2837 33.2361 75.3557 33.2361C74.3793 33.2361 73.0206 32.9565 72.4271 32.3986L73.0901 30.3769H73.648C73.857 31.4228 74.6589 32.154 75.8086 32.154C77.0645 32.154 77.7614 31.2827 77.7614 30.6903C77.7614 30.0629 77.134 29.7139 76.4015 29.3999C75.1812 28.842 73.578 28.3196 73.578 26.5069C73.578 24.3452 75.4251 22.5319 77.9003 22.5319C79.155 22.5319 80.2709 22.8809 80.8639 23.5083L80.027 25.3922ZM88.4638 25.3922H87.8721C87.9065 24.4158 87.1046 23.6133 86.1632 23.6133C85.1524 23.6133 84.3148 24.2413 84.3148 25.0432C84.3148 25.8101 85.2562 26.1235 86.2326 26.5081C87.3836 26.9254 88.5689 27.5528 88.5689 29.1922C88.5689 31.4234 86.7205 33.2361 83.7925 33.2361C82.8511 33.2361 81.4563 32.9565 80.8639 32.3986L81.5607 30.3769H82.0831C82.2932 31.4228 83.0951 32.154 84.2804 32.154C85.5352 32.154 86.1982 31.2827 86.1982 30.6903C86.1982 30.0629 85.6052 29.7139 84.8384 29.3999C83.618 28.842 82.0492 28.3196 82.0492 26.5069C82.0492 24.3452 83.8976 22.5319 86.3377 22.5319C87.5925 22.5319 88.7084 22.8809 89.3358 23.5083L88.4638 25.3922ZM98.2255 21.2076C97.3541 21.2076 96.7962 20.5796 96.7962 19.7784C96.7962 18.6975 97.7726 17.7911 98.7834 17.7911C99.6548 17.7911 100.213 18.3835 100.213 19.186C100.213 20.2663 99.2363 21.2076 98.2255 21.2076ZM97.5981 32.9565H94.6695L96.4466 22.8114H99.4102L97.5981 32.9565ZM106.732 25.321C106.732 25.7751 106.663 26.2974 106.593 26.7859H103.386C103.7 25.1127 104.397 23.5089 105.687 23.5089C106.488 23.5089 106.732 24.3108 106.732 25.321ZM109.556 26.0891C109.556 23.8579 108.615 22.5325 105.861 22.5325C102.27 22.5325 99.8993 25.321 99.8993 28.9821C99.8993 31.5272 101.259 33.2705 104.362 33.2705C105.582 33.2705 106.488 32.9565 107.674 32.3291L108.371 31.1088L108.162 30.8999C107.465 31.4234 106.349 31.8763 105.408 31.8763C103.943 31.8763 103.037 31.1088 103.037 29.3311C103.037 28.9126 103.071 28.4597 103.176 27.9712H109.346C109.486 27.2744 109.556 26.647 109.556 26.0891ZM22.5373 22.5325C21.108 22.5325 19.9577 23.2643 19.3297 24.2763L20.6201 16.8497H17.6565L14.8323 32.9565H17.7954L17.8998 32.5036C18.4228 32.9565 19.1552 33.2361 20.0616 33.2361C23.8615 33.2361 25.9532 29.54 25.9532 26.333C25.9889 23.9968 24.6991 22.5325 22.5373 22.5325ZM19.8182 32.2597C18.7724 32.2597 18.4584 31.3183 18.4584 30.1336C18.4584 27.5534 19.3297 23.9279 21.422 23.9279C22.4679 23.9279 22.8169 24.7993 22.8513 25.9508C22.8513 28.4597 21.7004 32.2597 19.8182 32.2597Z" fill="#7A808B"/>
</svg>
