<svg width="114" height="30" viewBox="0 0 114 30" fill="none" xmlns="http://www.w3.org/2000/svg">
<path d="M0 16.7749C2.12815 15.2989 4.08467 13.6284 5.94966 11.8321C8.38673 9.48656 10.6522 7.00372 12.5744 4.2234C12.5973 4.18907 12.6201 4.16619 12.6659 4.12042C13.0435 4.64674 13.4096 5.15017 13.7986 5.6536C15.4005 7.77031 17.2082 9.71539 19.1076 11.5689C20.9954 13.411 22.9863 15.1387 25.1716 16.6376C25.3776 16.7749 25.286 16.8207 25.1487 16.9236C20.881 19.9442 17.2082 23.6055 13.9588 27.6902C13.5126 28.2509 13.1121 28.8344 12.6773 29.4293C12.3455 28.9717 12.0366 28.5255 11.7048 28.0907C8.43249 23.8687 4.67963 20.1158 0.331808 17.0037C0.240275 16.9351 0.160183 16.8321 0.0228829 16.8321C-3.49512e-07 16.8207 0 16.7978 0 16.7749Z" fill="#757F8B"/>
<path d="M70.0797 0C70.114 0.0915332 70.217 0.0686501 70.2857 0.102975C71.0866 0.411899 71.5099 1.17849 71.3497 2.01373C71.1896 2.83753 70.4916 3.38673 69.6335 3.36385C68.8211 3.34096 68.1575 2.746 68.0317 1.91076C67.9058 1.13272 68.4092 0.34325 69.1987 0.0800921C69.2559 0.0572088 69.3246 0.0800922 69.3474 0.0114423C69.5877 6.98172e-07 69.828 0 70.0797 0ZM83.8898 29.9771C83.2948 29.7826 82.7799 29.4851 82.4825 28.8902C81.9561 27.8375 82.4253 26.5561 83.5008 26.1098C84.6335 25.6407 85.9378 26.2128 86.2925 27.3112C86.6701 28.4783 86.0179 29.6339 84.828 29.9313C84.7937 29.9428 84.7593 29.9657 84.725 29.9771H83.8898ZM84.3246 29.1876C84.9882 29.1991 85.4802 28.6957 85.4916 27.9977C85.503 27.3112 84.9882 26.7506 84.336 26.7506C83.6724 26.7391 83.1804 27.2426 83.169 27.9405C83.1575 28.6384 83.6609 29.1876 84.3246 29.1876ZM91.9447 29.9771C91.9333 29.9085 91.8646 29.9199 91.8303 29.9085C91.201 29.6682 90.9264 29.2677 90.9836 28.6156C91.0294 28.0664 91.4413 27.6659 92.0591 27.5629C92.4939 27.4828 92.9287 27.4943 93.3406 27.6087C93.5923 27.6773 93.6152 27.5744 93.5809 27.3799C93.5236 27.0481 93.2376 26.8192 92.8371 26.7849C92.471 26.7506 92.1049 26.7963 91.7731 26.9336C91.5786 27.0137 91.5214 26.9565 91.4641 26.7849C91.2925 26.2586 91.2811 26.2586 91.8303 26.1098C92.368 25.9611 92.9058 25.9268 93.4436 26.0641C94.0957 26.2357 94.4504 26.7162 94.4847 27.4943C94.5076 28.238 94.4847 28.9817 94.4962 29.7368C94.4962 29.8741 94.4504 29.9428 94.3017 29.9313C94.2101 29.9199 94.1186 29.9313 94.0271 29.9313C93.7639 29.9313 93.4321 30.0114 93.6152 29.4737C93.3291 29.7712 93.0202 29.8627 92.7342 30C92.4596 29.9771 92.1964 29.9771 91.9447 29.9771ZM92.7914 28.0892C92.5511 28.0892 92.3223 28.1236 92.1163 28.2494C91.7731 28.4554 91.7502 28.9474 92.0591 29.1762C92.4825 29.4851 93.2834 29.3021 93.5236 28.833C93.7182 28.4554 93.6152 28.2265 93.2147 28.1465C93.0774 28.1236 92.9287 28.1121 92.7914 28.0892ZM101.933 29.9771C101.613 29.8284 101.27 29.714 100.995 29.4622C100.343 28.8444 100.16 27.849 100.56 27.0481C100.984 26.2128 101.956 25.778 102.917 25.9954C103.764 26.1899 104.416 26.9336 104.473 27.7803C104.531 28.7643 103.993 29.5652 103.089 29.8856C103.009 29.9085 102.906 29.897 102.849 29.9771H101.933ZM101.258 27.9634C101.258 28.6728 101.762 29.1991 102.425 29.1876C103.089 29.1876 103.569 28.6728 103.569 27.9748C103.569 27.2769 103.066 26.7506 102.391 26.7506C101.727 26.7506 101.258 27.254 101.258 27.9634ZM58.5694 29.9771L58.1575 29.8055C57.185 29.3593 56.7616 28.1465 57.2193 27.0938C57.6426 26.1213 58.7182 25.6865 59.6907 26.087C60.4115 26.3844 60.9493 27.4142 60.8005 28.1579C60.7662 28.341 60.6404 28.2723 60.5374 28.2723C59.7593 28.2723 58.9813 28.2838 58.2033 28.2723C57.9744 28.2723 57.9287 28.3181 58.0088 28.5355C58.2834 29.2449 59.1529 29.4622 59.8394 28.9817C59.931 28.913 60.0111 28.7414 60.1255 28.8215C60.2971 28.9245 60.4458 29.0732 60.5717 29.222C60.6404 29.3021 60.5145 29.3593 60.4687 29.4165C60.217 29.7025 59.8509 29.8169 59.5191 29.9771H58.5694ZM58.9355 27.6888C59.1873 27.6888 59.439 27.6773 59.6907 27.6888C59.8623 27.7002 59.9195 27.6659 59.8623 27.4714C59.725 26.968 59.3932 26.6934 58.9127 26.7048C58.455 26.7162 58.1003 27.0366 57.9744 27.5057C57.9287 27.6773 57.9973 27.6888 58.1346 27.6888C58.4092 27.6773 58.6724 27.6888 58.9355 27.6888ZM43.4321 29.9771C42.6312 29.7025 42.4024 29.0732 42.4024 28.2952C42.4138 27.6316 42.4138 26.968 42.4024 26.3043C42.4024 26.0984 42.4367 26.0183 42.6655 26.0297C43.3177 26.0297 43.3291 26.0183 43.3291 26.6934V28.238C43.3406 28.8215 43.6152 29.1419 44.1072 29.1533C44.6449 29.1648 44.9767 28.8558 44.9996 28.2723C45.0225 27.6087 45.0111 26.9451 44.9996 26.2815C44.9996 26.0984 45.0454 26.0412 45.2285 26.0412C45.915 26.0412 45.915 26.0297 45.915 26.7048C45.915 27.6888 45.9035 28.6842 45.915 29.6682C45.915 29.8856 45.8577 29.9657 45.6404 29.9313H45.5488C45.0225 29.9313 45.0225 29.9314 44.9653 29.3936C44.7479 29.6911 44.4504 29.8513 44.1529 30C43.9127 29.9771 43.6724 29.9771 43.4321 29.9771ZM62.5626 29.9771C62.2307 29.8169 61.8646 29.7483 61.5557 29.5423C61.4069 29.4394 61.3383 29.3478 61.4756 29.1991L61.5442 29.0961C61.6701 28.8444 61.796 28.7643 62.0591 28.9588C62.368 29.1762 62.7342 29.2792 63.1232 29.2449C63.3406 29.222 63.5465 29.1648 63.6037 28.9016C63.6495 28.6384 63.455 28.5355 63.2719 28.4668C62.9745 28.3524 62.6541 28.2723 62.3566 28.1579C61.7502 27.9291 61.4756 27.5286 61.5557 26.9908C61.6358 26.4188 62.082 26.0183 62.6999 25.9611C63.2147 25.9153 63.6953 26.0297 64.1644 26.2586C64.336 26.3501 64.3932 26.4416 64.2674 26.6018C64.2445 26.6247 64.233 26.6476 64.2216 26.6819C64.1301 26.9908 63.9584 27.0481 63.6724 26.8764C63.3978 26.7048 63.0774 26.6362 62.7456 26.7048C62.574 26.7391 62.4481 26.8192 62.4138 27.0023C62.3795 27.1854 62.4939 27.2998 62.6426 27.357C62.86 27.46 63.0889 27.5286 63.3177 27.6087C63.4779 27.6659 63.6381 27.7231 63.7982 27.7918C64.3246 28.0435 64.5191 28.3638 64.4733 28.8902C64.4275 29.3707 64.1186 29.7254 63.6266 29.8856C63.5465 29.9085 63.4436 29.8741 63.3749 29.9657C63.0889 29.9771 62.8257 29.9771 62.5626 29.9771ZM66.201 29.9771C65.8692 29.8513 65.5145 29.7712 65.2056 29.5767C64.9996 29.4508 64.9081 29.3478 65.1026 29.1419C65.1484 29.0961 65.1827 29.0275 65.217 28.9703C65.2971 28.7986 65.3772 28.7872 65.5374 28.8902C65.8692 29.1076 66.2353 29.2563 66.6358 29.2449C66.7502 29.2449 66.8532 29.222 66.9561 29.1762C67.0934 29.119 67.185 29.016 67.185 28.8558C67.185 28.7071 67.1163 28.6041 66.9905 28.5355C66.7044 28.3753 66.3841 28.3181 66.0751 28.2151C65.6632 28.0664 65.2628 27.8833 65.1484 27.3913C64.9996 26.6934 65.4458 26.0641 66.1896 25.9725C66.7388 25.9039 67.2536 26.0183 67.7342 26.27C67.9058 26.3616 67.9287 26.4531 67.8143 26.5904C67.8028 26.6018 67.8028 26.6133 67.8028 26.6133C67.5854 27.0137 67.5854 27.0137 67.185 26.8307C66.8989 26.7048 66.6129 26.6247 66.304 26.6819C66.1323 26.7162 65.995 26.7963 65.9607 26.968C65.915 27.1625 66.0408 27.2654 66.201 27.3455C66.3612 27.4256 66.5328 27.4828 66.7044 27.54C66.9218 27.6201 67.1392 27.6888 67.3566 27.7803C67.7799 27.9748 68.0431 28.2952 68.0202 28.7986C67.9973 29.3135 67.7342 29.6453 67.2765 29.8398C67.1735 29.8856 67.0591 29.8627 66.979 29.9542C66.7273 29.9771 66.4642 29.9771 66.201 29.9771ZM47.9058 29.9771C47.574 29.8398 47.2193 29.7597 46.9104 29.5652C46.7273 29.4508 46.6243 29.3478 46.8074 29.1533C46.8188 29.1419 46.8188 29.1419 46.8188 29.1304C47.0362 28.7872 47.0362 28.7872 47.4024 28.9817C47.7227 29.1533 48.0431 29.2677 48.4092 29.2449C48.6495 29.222 48.8669 29.1533 48.9012 28.8902C48.9355 28.6384 48.741 28.5355 48.5465 28.4668C48.2491 28.3638 47.9516 28.2723 47.6655 28.1693C47.0362 27.9405 46.796 27.5858 46.8646 26.9908C46.9104 26.476 47.3337 26.0641 47.9172 25.984C48.4779 25.9039 48.9928 26.0297 49.4962 26.2929C49.6449 26.373 49.6564 26.4416 49.5763 26.5904C49.336 27.0137 49.3475 27.0137 48.8898 26.8421C48.6152 26.7277 48.3406 26.659 48.0317 26.7048C47.86 26.7391 47.7227 26.8192 47.6999 27.0023C47.677 27.1854 47.7799 27.2998 47.9172 27.357C48.1346 27.4485 48.3635 27.5286 48.5923 27.6087C48.7525 27.6659 48.9127 27.7231 49.0728 27.7918C49.5763 28.032 49.7937 28.3753 49.7479 28.8558C49.7021 29.3707 49.3818 29.7483 48.8783 29.897C48.7983 29.9199 48.6953 29.8856 48.6266 29.9657C48.3978 29.9771 48.1461 29.9771 47.9058 29.9771ZM88.2491 29.9771C88.2033 29.5767 87.9859 29.2449 87.8486 28.8787C87.5053 28.0092 87.1507 27.1396 86.7845 26.2815C86.7044 26.087 86.7159 26.0297 86.9447 26.0297C87.6541 26.0297 87.6541 26.0183 87.8944 26.6934C88.1461 27.3799 88.3978 28.0664 88.6724 28.833C88.8783 28.2723 89.0728 27.7689 89.2559 27.2654C89.3818 26.9108 89.5191 26.5675 89.6335 26.2128C89.6793 26.0755 89.7479 26.0183 89.8966 26.0297C90.1369 26.0412 90.3772 26.0297 90.6632 26.0297C90.32 26.8764 89.9996 27.6888 89.6678 28.4897C89.4619 28.9931 89.3017 29.508 89.0271 29.9771H88.2491ZM96.487 29.9771C95.8005 29.6911 95.6518 29.4622 95.6518 28.6957V27.0366C95.6518 26.8764 95.6175 26.7849 95.4344 26.8078C95.1941 26.8421 95.1255 26.7391 95.1598 26.5217C95.1712 26.4416 95.1712 26.3616 95.1598 26.2815C95.1369 26.1098 95.1827 26.0069 95.3886 26.0412C95.606 26.0755 95.6747 25.9725 95.6518 25.7666C95.6404 25.6865 95.6404 25.6064 95.6518 25.5263C95.6632 25.3432 95.5603 25.0801 95.6976 25.0114C95.915 24.8856 96.2124 24.9657 96.4641 24.9771C96.59 24.9771 96.5557 25.0915 96.5557 25.1602C96.5557 25.3776 96.5671 25.5835 96.5557 25.8009C96.5442 25.984 96.59 26.0641 96.7845 26.0412C96.8989 26.0297 97.0248 26.0297 97.1507 26.0412C97.2879 26.0526 97.5168 25.9497 97.5625 26.0984C97.6312 26.2929 97.5854 26.5217 97.574 26.7277C97.574 26.8192 97.471 26.8078 97.4024 26.8078C97.1964 26.8078 97.0019 26.8192 96.796 26.8078C96.59 26.7849 96.5442 26.8764 96.5442 27.0709C96.5557 27.5629 96.5442 28.0549 96.5442 28.5583C96.5442 29.0847 96.7502 29.2677 97.2651 29.1304C97.5282 29.0618 97.5854 29.1076 97.574 29.3707C97.5511 29.8055 97.574 29.8055 97.0248 29.9886C96.8417 29.9771 96.6587 29.9771 96.487 29.9771ZM113.558 7.26545C113.375 7.27689 113.295 7.20824 113.306 7.00229C113.318 6.57895 113.306 6.15561 113.306 5.67506C113.1 5.98398 113.043 6.29291 112.929 6.56751C112.871 6.71625 112.826 6.87643 112.757 7.01373C112.711 7.10526 112.723 7.24256 112.563 7.24256C112.402 7.24256 112.391 7.11671 112.357 7.02517C112.196 6.59039 112.036 6.16705 111.807 5.73227C111.807 6.13272 111.819 6.53318 111.807 6.93364C111.807 7.03661 111.91 7.24256 111.682 7.23112C111.464 7.21968 111.567 7.02517 111.567 6.9222C111.556 6.45309 111.556 5.97254 111.567 5.50343C111.567 5.40046 111.476 5.25172 111.682 5.21739C111.876 5.18307 111.968 5.26316 112.036 5.44622C112.174 5.85812 112.334 6.25858 112.482 6.65904C112.505 6.71625 112.528 6.76201 112.574 6.85355C112.746 6.40732 112.917 6.00687 113.043 5.58352C113.135 5.30892 113.26 5.14874 113.569 5.19451C113.558 5.89245 113.558 6.57895 113.558 7.26545ZM44.233 22.4256C39.3017 22.4371 35.4001 18.6156 35.4115 13.5469C35.4115 8.50115 39.3131 4.61098 44.3131 4.61098C49.4733 4.61098 53.2033 8.67277 53.1918 13.4897C53.1804 18.5126 49.2559 22.4256 44.233 22.4256ZM44.3017 20.1259C46.0065 20.1144 47.4939 19.5423 48.7067 18.3066C49.828 17.1625 50.4115 15.778 50.5374 14.1991C50.709 12.1053 50.1369 10.2403 48.661 8.71853C47.368 7.37986 45.7548 6.75057 43.8898 6.87643C42.0591 6.99085 40.5374 7.71167 39.4275 9.21053C38.2491 10.8009 37.8257 12.5973 38.1232 14.5195C38.4779 16.8192 39.6335 18.5927 41.8188 19.5881C42.5969 19.9657 43.4321 20.1259 44.3017 20.1259ZM83.0431 22.4256C77.9058 22.46 74.1987 18.3982 74.1987 13.6384C74.1987 8.53547 78.0774 4.59954 83.1117 4.61098C88.1117 4.62243 91.979 8.51259 91.979 13.5469C91.9676 18.5355 87.8944 22.46 83.0431 22.4256ZM83.2376 20.1259C83.9241 20.1602 84.7479 20 85.5374 19.6453C87.9172 18.5698 89.1072 16.6476 89.3246 14.1076C89.4962 12.151 88.947 10.3776 87.6198 8.92449C86.0523 7.20824 84.0843 6.59039 81.8074 6.99085C80.3085 7.254 79.0614 8.03204 78.169 9.24485C76.9561 10.881 76.59 12.7574 76.9104 14.7712C77.3909 17.6201 79.8394 20.1602 83.2376 20.1259ZM94.4962 15.8924C94.4962 14.2449 94.4619 12.5973 94.5076 10.9611C94.542 9.51945 94.931 8.18078 95.8005 7.00229C96.6587 5.83524 97.8143 5.11442 99.2101 4.81693C100.755 4.48513 102.322 4.46224 103.867 4.81693C106.407 5.4119 107.86 7.09382 108.409 9.61098C108.547 10.2288 108.592 10.8467 108.592 11.476V20.8581C108.592 21.8192 107.734 22.4371 106.865 22.1053C106.373 21.9222 106.109 21.5561 106.052 21.0412C106.041 20.9153 106.041 20.778 106.041 20.6522C106.041 17.7231 106.052 14.7941 106.041 11.8764C106.029 10.6865 105.766 9.55378 105.022 8.58124C103.867 7.07094 101.647 6.52174 99.7708 7.28833C98.2262 7.91762 97.4481 9.15332 97.1507 10.7323C97.0591 11.2128 97.0362 11.6934 97.0362 12.1739V20.8009C97.0362 21.5217 96.6587 22.0366 96.0408 22.1625C95.2056 22.3341 94.4847 21.7506 94.4847 20.881C94.4733 19.2105 94.4847 17.5515 94.4847 15.881C94.4847 15.8924 94.4847 15.8924 94.4962 15.8924Z" fill="#757F8B"/>
<path d="M23.4664 7.97504C24.0041 8.76451 24.5762 9.50822 25.1826 10.229C27.2192 12.6089 29.4503 14.7943 32.0247 16.602C32.1963 16.7279 32.2764 16.7737 32.0362 16.9453C30.5144 17.9979 29.13 19.2222 27.8027 20.5036C27.4366 20.8583 27.0476 21.2016 26.7043 21.5906C25.6288 22.7691 24.5876 23.959 23.6723 25.2748C23.6037 25.3663 23.535 25.4693 23.4549 25.5837C22.7913 24.6112 22.0819 23.7073 21.3153 22.8492C21.1437 22.6547 21.3268 22.5746 21.4069 22.483C22.1963 21.6592 23.0087 20.8698 23.8554 20.1032C25.1483 18.9247 26.4984 17.8034 27.9858 16.7851C27.7455 16.6135 27.5281 16.4647 27.3108 16.3046C25.1597 14.7485 23.2146 12.9407 21.3611 11.0414C21.2696 10.9384 21.178 10.8698 21.3039 10.721C22.0934 9.85147 22.8142 8.94758 23.4664 7.97504Z" fill="#757F8B"/>
<path d="M58.5469 9.11835C59.0045 8.11148 59.6109 7.27624 60.3775 6.54398C61.4187 5.54855 62.6201 4.8735 64.0846 4.7362C64.7139 4.67899 65.2059 4.89638 65.4576 5.36549C65.7093 5.8346 65.6521 6.47533 65.3089 6.87579C65.0801 7.13894 64.7826 7.27624 64.4393 7.32201C63.2151 7.49363 62.0709 7.85977 61.0984 8.64924C60.0915 9.47304 59.4164 10.5257 58.9931 11.7499C58.6041 12.8598 58.4782 14.0039 58.4782 15.171V20.8689C58.4782 21.4639 58.1579 21.933 57.643 22.1161C57.1281 22.2991 56.5789 22.1504 56.2128 21.7385C55.9725 21.4639 55.9153 21.1321 55.9153 20.7774C55.9153 16.3037 55.9267 11.83 55.9267 7.36778V6.12064C55.9382 5.37693 56.4759 4.80485 57.1853 4.79341C57.9061 4.78197 58.4668 5.35405 58.4668 6.12064V8.75222C58.4782 8.86663 58.4439 8.96961 58.5469 9.11835ZM70.9382 13.5348V20.8232C70.9382 21.5897 70.5263 22.0817 69.8398 22.1733C69.0961 22.2648 68.4553 21.7499 68.3981 21.0062C68.3867 20.9261 68.3867 20.846 68.3867 20.7659V6.21217C68.3867 5.49135 68.7871 4.95359 69.405 4.83917C70.2059 4.69043 70.9153 5.23963 70.9267 6.06343C70.9382 6.8529 70.9267 7.64238 70.9267 8.42041C70.9267 10.1252 70.9267 11.83 70.9382 13.5348ZM40.6178 27.219C40.7208 27.2762 40.8123 27.322 40.8924 27.3678C41.3272 27.5966 41.556 27.9513 41.556 28.4662C41.556 28.9925 41.3501 29.3815 40.8924 29.6332C40.5148 29.8392 40.1144 29.8964 39.7025 29.9078C38.9817 29.9193 38.2494 29.9078 37.5286 29.9193C37.3341 29.9193 37.2883 29.8506 37.2997 29.679C37.3112 28.1115 37.3112 26.5554 37.2997 24.9879C37.2997 24.8163 37.3455 24.7705 37.5171 24.7705C38.2608 24.782 39.0045 24.7705 39.7597 24.782C40.0343 24.782 40.2974 24.8506 40.5492 24.965C41.4416 25.3884 41.5675 26.5211 40.778 27.1161C40.7322 27.1389 40.6865 27.1733 40.6178 27.219ZM39.1533 29.0726C39.4622 29.0497 39.8283 29.1298 40.183 29.0039C40.492 28.901 40.6521 28.6721 40.6521 28.3746C40.6521 28.0543 40.4691 27.8712 40.183 27.7797C40.0572 27.7453 39.9313 27.711 39.794 27.711C39.3363 27.6996 38.8672 27.711 38.4096 27.6996C38.2608 27.6996 38.1922 27.7453 38.1922 27.9055C38.2036 28.2259 38.2036 28.5463 38.1922 28.8666C38.1807 29.0383 38.2608 29.0726 38.4096 29.0611C38.6384 29.0726 38.8672 29.0726 39.1533 29.0726ZM39.016 25.6058V25.5943H38.4096C38.2608 25.5943 38.1807 25.6286 38.1922 25.7888C38.2036 26.0978 38.1922 26.4067 38.1922 26.727C38.1922 26.8186 38.1922 26.9101 38.3295 26.9101C38.8215 26.8987 39.3135 26.9673 39.8054 26.8758C40.183 26.8071 40.3775 26.5325 40.3547 26.2007C40.3318 25.8804 40.1144 25.663 39.7368 25.6172C39.4965 25.5943 39.2563 25.6058 39.016 25.6058ZM106.27 26.5325C106.579 26.2122 106.854 26.0177 107.22 25.9605C108.089 25.8346 108.787 26.3495 108.821 27.219C108.856 28.0543 108.833 28.8895 108.833 29.7362C108.833 29.7705 108.844 29.8163 108.821 29.8277C108.593 30.0222 108.329 29.8735 108.078 29.9078C107.906 29.9307 107.918 29.8048 107.918 29.6904V27.8712C107.918 27.7453 107.918 27.6309 107.906 27.5051C107.849 27.0474 107.574 26.7728 107.14 26.7614C106.682 26.7499 106.35 27.0245 106.281 27.4822C106.27 27.5966 106.259 27.6996 106.259 27.814V29.2328C106.259 29.965 106.259 29.965 105.515 29.9078C105.389 29.8964 105.332 29.8621 105.332 29.7362V26.1893C105.332 25.9605 105.492 25.9948 105.606 26.0291C105.824 26.0863 106.11 25.846 106.259 26.1778C106.293 26.2579 106.27 26.3609 106.27 26.5325ZM74.3592 26.5325C74.6109 26.2579 74.8512 26.052 75.183 25.9833C76.1327 25.7659 76.8649 26.3266 76.9107 27.322C76.945 28.1229 76.9222 28.9124 76.9222 29.7133C76.9222 29.8506 76.8878 29.9078 76.7391 29.9193C76.0183 29.965 76.0183 29.9765 76.0183 29.2671C76.0183 28.7179 76.0411 28.1572 76.0068 27.608C75.9611 26.8987 75.3432 26.5669 74.7711 26.8987C74.4508 27.0817 74.3478 27.3907 74.3478 27.7453C74.3478 28.3746 74.3363 28.9925 74.3478 29.6218C74.3478 29.8506 74.3135 29.9421 74.0617 29.9307C73.4325 29.9193 73.4325 29.9307 73.4325 29.29V26.2923C73.4325 26.0978 73.4668 26.0062 73.6842 26.0405C73.7414 26.052 73.81 26.0405 73.8672 26.0405C74.302 26.0291 74.302 26.0291 74.3592 26.5325ZM78.8901 26.5211C79.1075 26.2694 79.3592 26.0634 79.6796 25.9833C80.6292 25.7545 81.373 26.3037 81.4302 27.322C81.4759 28.1115 81.4416 28.9124 81.4416 29.7133C81.4416 29.8506 81.4073 29.9078 81.2585 29.9193C80.5492 29.965 80.5492 29.9765 80.5492 29.2442C80.5492 28.6721 80.5949 28.1 80.5263 27.528C80.4576 27.0016 80.1716 26.7614 79.691 26.7728C79.2334 26.7957 78.8901 27.1275 78.8787 27.6195C78.8672 28.2945 78.8672 28.9696 78.8787 29.6447C78.8787 29.8506 78.8215 29.9193 78.6155 29.9193C77.9633 29.9078 77.9633 29.9193 77.9633 29.2785C77.9633 28.2945 77.9748 27.2991 77.9519 26.3151C77.9519 26.0634 78.032 25.9948 78.2608 26.0291H78.318C78.8215 26.0291 78.8215 26.0291 78.8901 26.5211ZM53.6613 26.544C53.9931 26.1321 54.3821 25.9261 54.8627 25.9376C55.6178 25.949 56.167 26.4296 56.1899 27.1847C56.2242 28.0314 56.2013 28.8781 56.2128 29.7248C56.2128 29.7934 56.2242 29.8964 56.1327 29.8964C55.881 29.9078 55.6293 29.9078 55.3775 29.8964C55.2517 29.8849 55.2974 29.7476 55.2974 29.6675C55.2974 28.9696 55.3089 28.2717 55.286 27.5852C55.2746 26.9444 54.691 26.5783 54.119 26.8415C53.7986 26.9902 53.6498 27.2534 53.6384 27.5852C53.627 28.2488 53.6155 28.9124 53.627 29.576C53.627 29.8163 53.5812 29.9078 53.318 29.9078C52.7231 29.8849 52.7231 29.9078 52.7231 29.3014V26.2808C52.7231 26.0978 52.7574 25.9948 52.9748 26.0291C53.032 26.0405 53.1006 26.0291 53.1579 26.0291C53.6155 26.0291 53.6155 26.0291 53.6613 26.544ZM72.1853 27.3563C72.1853 28.1115 72.1739 28.8666 72.1853 29.6218C72.1853 29.8392 72.151 29.9193 71.9107 29.9193C71.27 29.9078 71.27 29.9193 71.27 29.2671V25.068C71.27 24.8506 71.3043 24.7591 71.556 24.7591C72.1853 24.782 72.1853 24.7591 72.1853 25.3884V27.3563ZM51.6018 27.9856C51.6018 28.5463 51.5904 29.1183 51.6018 29.679C51.6018 29.8506 51.5675 29.9193 51.373 29.9193C50.6865 29.9307 50.6865 29.9307 50.6865 29.2556C50.6865 28.2717 50.6979 27.2877 50.6865 26.2923C50.6865 26.0863 50.7322 26.0177 50.9496 26.0177C51.6018 26.0291 51.6018 26.0177 51.6018 26.6813V27.9856ZM98.524 27.9513C98.524 27.3907 98.5354 26.8186 98.524 26.2579C98.524 26.0749 98.5698 26.0177 98.7643 26.0177C99.4279 26.0177 99.4279 26.0062 99.4279 26.6698V29.6332C99.4279 29.8392 99.3707 29.9078 99.1533 29.9078C98.524 29.9078 98.524 29.9078 98.524 29.2785V27.9513ZM110.378 6.34947V5.98334C110.378 5.49135 110.378 5.49135 109.886 5.45702C109.805 5.44558 109.714 5.46846 109.714 5.3426C109.714 5.2053 109.817 5.21675 109.908 5.21675H111.144C111.236 5.21675 111.327 5.2053 111.327 5.3426C111.327 5.46846 111.236 5.44558 111.156 5.44558C110.664 5.47991 110.664 5.4799 110.664 5.9719V7.02453C110.664 7.1275 110.686 7.23048 110.526 7.23048C110.366 7.23048 110.389 7.1275 110.389 7.02453C110.378 6.81858 110.378 6.5783 110.378 6.34947ZM51.1784 24.5875C51.6476 24.5875 51.6476 24.5875 51.6476 25.0337C51.6476 25.4456 51.6476 25.4456 51.1784 25.4456C50.6636 25.4456 50.6865 25.4456 50.6636 24.9536C50.6521 24.6561 50.7322 24.5188 51.0411 24.5875C51.0755 24.5989 51.1212 24.5875 51.1784 24.5875ZM98.9817 25.4456C98.4782 25.4456 98.4782 25.4456 98.4782 24.965C98.4782 24.5875 98.4782 24.5875 98.9244 24.5875C99.4508 24.5875 99.4508 24.5875 99.4508 25.068C99.4508 25.4456 99.4508 25.4456 98.9817 25.4456Z" fill="#757F8B"/>
</svg>
