<svg width="116" height="32" viewBox="0 0 116 32" fill="none" xmlns="http://www.w3.org/2000/svg">
<path fill-rule="evenodd" clip-rule="evenodd" d="M78.1625 8.82791H69.376V10.6671C70.1082 10.6671 70.841 10.8511 71.0232 11.219C71.3899 11.403 71.5732 11.9543 71.5732 12.6902V15.2653H65.5322V12.6902C65.5322 11.9549 65.7156 11.403 65.8989 11.219C66.2644 10.8511 66.9972 10.6671 67.7295 10.6671V8.82791H58.7595V10.6671C59.4918 10.6671 59.6745 10.6671 60.04 10.8511C60.4067 10.8511 60.4067 11.219 60.5888 11.219C60.9556 11.771 61.1389 12.1383 61.1389 12.6902V22.4374C61.1389 22.4374 60.9556 22.9887 60.5888 23.1727L60.04 23.724H58.7595V25.5638H67.7282V23.724H66.4465C66.2632 23.3561 65.8977 23.1727 65.8977 23.1727C65.7143 22.9881 65.7143 22.6202 65.7143 22.4374C65.531 22.2528 65.531 21.7021 65.531 21.7021V17.8398H71.572V22.4374C71.572 22.4374 71.3887 22.9887 71.3887 23.1727C71.0219 23.1727 70.8398 23.3561 70.6564 23.724H69.3748V25.5638H78.1613V23.724H76.8796C76.6963 23.3561 76.5141 23.1727 76.1474 23.1727C76.1474 22.9881 75.9641 22.6202 75.9641 22.4374V12.6896C75.9641 12.1377 76.1474 11.7703 76.5141 11.2184C76.6963 10.8504 77.4291 10.6665 78.1613 10.6665V8.82791H78.1625ZM79.2609 8.82791V10.6671C79.9931 10.6671 80.5413 10.6671 80.7247 10.8511C81.0914 10.8511 81.2735 11.219 81.2735 11.403C81.6402 11.771 81.6402 11.9549 81.6402 11.9549L81.8236 12.6902V22.4374C81.8236 22.4374 81.6402 22.9887 81.2735 23.1727L80.7247 23.724H79.2609V25.5638H94.8194L97.7483 19.6783L95.9178 18.943C94.8194 20.7822 93.7205 21.7021 92.2567 22.4374C90.7916 23.1727 89.3278 23.3561 87.6807 23.3561C87.1306 23.3561 86.9472 23.3561 86.5824 23.1727C86.399 22.9881 86.2156 22.2528 86.2156 21.3335V17.8392H86.9478C88.0462 17.8392 88.5962 18.0225 88.9617 18.2071C89.5118 18.7597 89.8767 19.495 89.8767 20.4136H91.7072V12.6896H89.8767C89.8767 13.6089 89.5112 14.3448 88.9617 14.8967C88.5962 15.0807 88.0468 15.2647 86.9478 15.2647H86.2156V13.0576C86.2156 12.1383 86.399 11.9543 86.399 11.4024C86.5824 11.2184 87.314 10.8504 88.2295 10.8504H88.7784C90.6089 10.8504 91.8906 11.4024 92.9889 12.1377C94.0872 12.8736 94.8194 13.7929 95.3683 14.7121L97.0167 13.7929L94.6367 8.82729L79.2609 8.82791ZM113.49 19.6783C113.123 20.4136 112.575 21.3342 111.66 22.2528C111.11 22.6208 110.745 22.9881 110.013 23.1727C109.462 23.724 108.731 23.724 107.999 23.724C107.449 23.724 107.266 23.724 106.534 23.3561C105.985 23.1727 105.619 22.9881 105.07 22.4374C104.703 21.8849 104.155 21.3342 103.971 20.4143C103.606 19.679 103.423 18.3911 103.423 17.2879C103.423 14.8974 103.606 13.0582 104.703 12.1389C105.618 10.8517 106.534 10.4837 107.449 10.4837C108.914 10.4837 110.012 10.8517 110.927 11.9549C111.66 12.8748 112.575 13.7941 113.123 15.2653L115.137 14.7134L112.941 8.82852H111.476L111.11 9.19648C110.744 9.0125 110.013 8.82852 109.279 8.46057C108.73 8.46057 107.815 8.27721 107.083 8.27721C104.338 8.27721 102.14 9.19648 100.677 10.6683C99.2115 12.3235 98.2965 14.714 98.2965 17.2885C98.2965 19.6796 99.2115 21.8861 101.042 23.7253C102.324 25.3811 104.703 26.1164 107.266 26.1164C109.462 26.1164 111.476 25.3811 112.575 24.2772C114.038 23.3573 114.772 21.8861 115.503 20.7828L113.49 19.6783ZM43.3825 2.94243C41.3692 0.919894 38.8065 0 35.1454 0C30.0199 0 25.2606 1.6552 21.0506 4.7816C17.2068 8.27597 15.0102 12.1383 14.0946 16.5513C13.7285 17.8392 13.5452 18.7591 13.5452 19.6777C13.5452 23.7234 15.0096 26.4819 17.2062 28.8736C19.5856 30.8967 22.5145 32 26.1755 32C28.3721 32 30.2027 31.632 32.2159 31.2647C33.8631 30.7121 36.0604 29.4255 37.3414 28.5056C39.3547 26.8498 38.2564 26.2991 36.792 27.2178C36.0597 27.7703 33.8631 29.057 32.3987 29.2409C31.117 29.4255 29.2865 29.7923 27.2732 29.7923C24.161 29.7923 21.7816 29.057 19.7683 27.2178C17.9378 25.3786 17.2056 23.1721 17.2056 20.0457C17.2056 18.9424 17.2056 18.0225 17.3884 17.1033C18.1206 12.873 20.1338 9.56259 23.0627 6.62016C26.3576 3.67773 30.0187 2.20652 34.4113 2.20652C37.3402 2.20652 39.5368 2.94181 41.184 4.59762C42.6484 6.06884 43.5634 8.27597 43.5634 10.6671C43.38 14.3454 42.4651 17.2872 41.184 18.943C39.5368 21.3342 38.2551 21.8855 38.0718 21.8855C37.5229 21.8855 37.5229 21.7021 37.5229 21.7021C37.5229 20.7822 38.2551 18.2077 38.4379 17.2879L41.1834 8.46057C41.1834 8.2772 41.1834 8.09261 40.6339 8.09261H37.1562C36.7901 8.09261 36.0579 8.27659 35.8745 9.0125L35.5084 9.74842C34.2274 15.2659 30.7497 18.7603 29.8341 19.679C28.3697 21.1502 27.272 21.7021 26.9053 21.7021C26.3564 21.7021 26.3564 21.3342 26.3564 20.9668C26.3564 20.7822 26.3564 20.4143 26.5391 19.311L29.468 12.1383C30.0175 11.219 30.0175 10.1151 30.0175 9.7478C30.0175 8.45995 29.2852 7.54067 27.8208 7.54067C26.3564 7.54067 23.9764 8.09261 21.2309 10.4837C20.1326 11.9549 19.7665 12.6902 19.7665 12.6902C19.7665 13.0582 20.3153 13.0582 20.3153 13.0582C20.6815 13.0582 21.2309 12.3229 21.7798 11.9549C22.512 11.2196 23.4269 10.1158 24.1591 10.1158C24.708 10.1158 24.708 10.4837 24.708 10.6677C24.708 10.8517 24.3419 11.403 24.1591 12.1389L21.9625 17.1045C21.5964 18.2077 20.4981 20.4143 20.4981 22.438C20.4981 24.8291 22.3286 25.3805 23.2442 25.3805C25.6236 25.3805 29.8335 23.1739 33.4952 16.7372L32.9463 18.3917C32.7629 19.4962 32.2135 21.7027 32.2135 23.3573C32.2135 23.9099 32.2135 25.3805 33.8606 25.3805C37.5217 25.3805 40.2672 22.6214 41.7322 20.9674C43.5628 18.3917 45.2099 16.0012 45.3933 13.7947C45.7594 12.1395 45.7594 10.8523 45.7594 9.9324C45.7625 6.80476 45.213 4.59762 43.3825 2.94243Z" fill="#7A808B"/>
<path fill-rule="evenodd" clip-rule="evenodd" d="M43.3825 2.94243C41.3692 0.919894 38.8065 0 35.1454 0C30.0199 0 25.2606 1.6552 21.0506 4.7816C17.2068 8.27597 15.0102 12.1383 14.0946 16.5513C13.7285 17.8392 13.5452 18.7591 13.5452 19.6777C13.5452 23.7234 15.0096 26.4819 17.2062 28.8736C19.5856 30.8967 22.5145 32 26.1755 32C28.3721 32 30.2027 31.632 32.2159 31.2647C33.8631 30.7121 36.0604 29.4255 37.3414 28.5056C39.3547 26.8498 38.2564 26.2991 36.792 27.2178C36.0597 27.7703 33.8631 29.057 32.3987 29.2409C31.117 29.4255 29.2865 29.7923 27.2732 29.7923C24.161 29.7923 21.7816 29.057 19.7683 27.2178C17.9378 25.3786 17.2056 23.1721 17.2056 20.0457C17.2056 18.9424 17.2056 18.0225 17.3884 17.1033C18.1206 12.873 20.1338 9.56259 23.0627 6.62016C26.3576 3.67773 30.0187 2.20652 34.4113 2.20652C37.3402 2.20652 39.5368 2.94181 41.184 4.59762C42.6484 6.06884 43.5634 8.27597 43.5634 10.6671C43.38 14.3454 42.4651 17.2872 41.184 18.943C39.5368 21.3342 38.0718 21.8855 38.0718 21.8855L37.5229 21.7021C37.5229 20.7822 38.2551 18.2077 38.4379 17.2879L41.1834 8.46057C41.1834 8.2772 40.6339 8.09261 40.6339 8.09261H37.1562C36.7901 8.09261 36.0579 8.27659 35.8745 9.0125L35.5084 9.74842C34.2274 15.2659 30.7497 18.7603 29.8341 19.679C28.3697 21.1502 27.272 21.7021 26.9053 21.7021C26.3564 21.7021 26.3564 20.9668 26.3564 20.9668C26.3564 20.9668 26.3564 20.4143 26.5391 19.311L29.468 12.1383C30.0175 11.219 30.0175 10.1151 30.0175 9.7478C30.0175 8.45995 29.2852 7.54067 27.8208 7.54067C26.3564 7.54067 23.9764 8.09261 21.2309 10.4837C20.1326 11.9549 19.7665 12.6902 19.7665 12.6902C19.7665 13.0582 20.3153 13.0582 20.3153 13.0582C20.6815 13.0582 21.2309 12.3229 21.7798 11.9549C22.512 11.2196 23.4269 10.1158 24.1591 10.1158C24.708 10.1158 24.708 10.6677 24.708 10.6677C24.708 10.6677 24.3419 11.403 24.1591 12.1389L21.9625 17.1045C21.5964 18.2077 20.4981 20.4143 20.4981 22.438C20.4981 24.8291 22.3286 25.3805 23.2442 25.3805C25.6236 25.3805 29.8335 23.1739 33.4952 16.7372L32.9463 18.3917C32.7629 19.4962 32.2135 21.7027 32.2135 23.3573C32.2135 23.9099 32.2135 25.3805 33.8606 25.3805C37.5217 25.3805 40.2672 22.6214 41.7322 20.9674C43.5628 18.3917 45.2099 16.0012 45.3933 13.7947C45.7594 12.1395 45.7594 10.8523 45.7594 9.9324C45.7625 6.80476 45.213 4.59762 43.3825 2.94243Z" fill="#1F3044" fill-opacity="0.6"/>
<path fill-rule="evenodd" clip-rule="evenodd" d="M0 8.82733V10.6665C0.366106 10.6665 0.549467 10.6665 1.09832 10.8505C1.28106 10.8505 1.64779 11.2184 1.83053 11.4024C1.83053 11.7704 2.01327 11.7704 2.01327 11.9544V22.4368C2.01327 22.6202 1.83053 22.9882 1.83053 23.1721C1.64779 23.1721 1.28106 23.3555 1.09832 23.7235H0V25.5632H11.8988C12.8137 25.5632 13.5459 25.3786 14.2781 25.0107C15.0103 24.8273 15.7426 24.0908 16.108 23.7228C16.6575 22.9875 17.0236 21.8837 17.0236 20.7804C17.0236 20.0451 17.0236 19.4938 16.6575 18.9412C16.4748 18.2059 15.9253 17.838 15.3764 17.2854C15.0103 16.5501 14.0948 15.9982 12.9971 15.9982C11.8988 15.6308 10.2516 15.2629 8.6038 15.2629H6.40716V12.1365C6.40716 11.9525 6.40716 11.7685 6.77327 11.4012L6.95601 11.2172C7.13937 10.8492 7.50548 10.8492 7.87159 10.8492H8.42044C9.88486 10.8492 11.3493 11.2172 11.8988 11.9525C12.8137 12.3205 13.5459 13.4237 14.2781 14.711L15.9253 13.7917L14.0948 8.8261H0V8.82733ZM6.40716 17.8386H8.42044C9.51875 17.8386 10.6171 18.022 11.1659 18.2066C11.8988 18.7591 12.0809 19.4944 12.0809 20.4131C12.0809 21.1484 11.8981 21.7009 11.532 22.4362C11.3493 22.6196 10.7998 22.9875 10.251 23.1715C9.88486 23.3549 9.33539 23.3549 8.6038 23.3549C7.87159 23.3549 7.68884 23.3549 7.13937 23.1715C6.77327 23.1715 6.40716 22.619 6.40716 22.2516V17.8386ZM47.5925 18.022H50.8875C51.4363 18.2066 51.8024 18.3899 52.1685 18.7585C52.3513 19.3098 52.5347 19.6772 52.5347 20.4131C52.5347 21.333 52.3513 22.2522 51.6191 22.6196C51.253 23.3549 50.1547 23.7228 48.8736 23.9074C48.3247 23.9074 47.7753 23.7228 47.2264 23.7228C47.0437 23.3549 46.8603 23.3549 46.4942 23.1715C46.3109 22.9869 46.1281 22.619 46.1281 22.4362C45.762 22.2516 45.762 21.8837 45.762 21.7009C45.762 21.7009 45.762 21.333 46.1281 21.1484V20.4131C46.1281 20.0457 45.762 19.6778 45.5793 19.3098C45.3959 18.7585 44.6637 18.3899 43.9315 18.3899C43.1993 18.3899 42.6504 18.9425 42.2843 19.4944C41.9182 19.6778 41.7355 20.4131 41.7355 21.149C41.7355 22.4368 42.4677 23.7235 43.566 24.6434C44.847 25.5632 47.0437 26.1146 49.6064 26.1146C52.5353 26.1146 54.5485 25.5632 55.8302 24.2754C56.9285 23.3555 57.4774 22.2522 57.4774 20.781C57.4774 19.6778 57.2946 18.7591 56.5624 18.022C55.8302 17.1033 54.7319 16.7353 53.4508 16.5507H53.6336C54.5485 16.3674 55.2808 15.8154 56.013 15.2641C56.7458 14.7122 56.9279 13.7929 56.9279 12.873C56.9279 11.7691 56.5618 10.4819 55.2808 9.74661C54.3658 8.82671 52.5353 8.27539 50.5214 8.27539C49.4231 8.27539 48.5081 8.45876 47.7759 8.45876C47.0437 8.82671 46.3115 9.01069 45.5793 9.19467L45.3959 8.82671H43.1993L42.6498 13.7923L45.2125 14.1603C45.3953 13.6083 45.5786 12.873 46.3109 11.9531C46.8603 11.7691 47.2258 11.2178 47.7753 10.8499C48.3247 10.6659 48.8736 10.4819 49.4224 10.4819C50.7041 10.6659 51.4357 10.8499 51.8018 11.4012C52.1679 11.7691 52.3513 11.9531 52.3513 12.1365C52.3513 12.3198 52.5347 12.6884 52.5347 12.8724C52.3513 13.6077 52.3513 14.1596 52.1685 14.3436C51.6191 14.8955 51.4363 15.0789 50.8875 15.0789C50.5214 15.2629 49.9719 15.6308 49.4231 15.6308H47.5919L47.5925 18.022Z" fill="#7A808B"/>
<path fill-rule="evenodd" clip-rule="evenodd" d="M52.0242 2.80994H52.5502V6.76735H52.0242V3.56191L49.9603 6.76735H49.4404V2.80994H49.9603V5.99253L52.0242 2.80994ZM59.3241 6.76735H58.8042V2.80994H59.3241V4.46082H61.275V2.80994H61.7948V6.76735H61.275V4.90718H59.3241V6.76735ZM69.7843 6.32098H69.5639C69.4701 6.32098 69.354 6.31295 69.2188 6.29814C69.0762 6.28167 68.9358 6.24958 68.8002 6.20244C68.552 6.11539 68.3242 5.9629 68.1186 5.74435C67.913 5.52579 67.8099 5.19426 67.8099 4.74913C67.8099 4.3003 67.9149 3.96629 68.1248 3.74589C68.3335 3.52549 68.565 3.37546 68.8169 3.29644C68.957 3.25137 69.0904 3.22112 69.2206 3.2063C69.3509 3.19148 69.4651 3.18346 69.5633 3.18346H69.7837V2.58398H70.3035V3.18346H70.5184C70.6159 3.18346 70.7308 3.19025 70.861 3.20321C70.9913 3.21618 71.124 3.2452 71.2592 3.29088C71.5124 3.36991 71.7451 3.51931 71.9575 3.73786C72.1711 3.95642 72.2773 4.2935 72.2773 4.74975C72.2773 5.17574 72.1822 5.49678 71.989 5.7141C71.797 5.9308 71.5864 6.08453 71.3562 6.17466C71.1999 6.23534 71.0367 6.2762 70.8703 6.29629C70.7159 6.31296 70.5992 6.3216 70.5196 6.3216H70.3048V6.9149H69.7849L69.7843 6.32098ZM69.7843 3.60143H69.6374C69.2336 3.60143 68.9441 3.67428 68.7693 3.81936C68.5946 3.96444 68.4798 4.12373 68.4267 4.2966C68.4024 4.37491 68.3855 4.45531 68.3761 4.53676C68.3622 4.6757 68.3614 4.81562 68.3736 4.95472C68.3798 5.02819 68.3927 5.10474 68.4156 5.18377C68.4687 5.36466 68.5829 5.5295 68.7582 5.67829C68.9336 5.82708 69.2262 5.90178 69.6374 5.90178H69.7843V3.60143ZM70.4511 5.9024C70.5221 5.9024 70.6017 5.8987 70.6888 5.89067C70.7801 5.88264 70.8708 5.86756 70.9598 5.8456C71.1518 5.79312 71.3278 5.68755 71.4858 5.52888C71.6439 5.37021 71.7235 5.1103 71.7235 4.74851C71.7235 4.39043 71.6426 4.13237 71.4821 3.97432C71.3367 3.82456 71.1548 3.71539 70.9542 3.65761C70.8641 3.63476 70.7758 3.61995 70.6888 3.61254C70.6017 3.60513 70.5221 3.60081 70.4511 3.60081H70.3041V5.90178L70.4511 5.9024ZM79.9217 6.88588C79.3259 6.88218 78.869 6.69203 78.5505 6.31542C78.2319 5.93821 78.0732 5.42948 78.0732 4.78926C78.0732 4.03915 78.2603 3.50203 78.6326 3.1779C78.9868 2.86096 79.4464 2.68749 79.9217 2.69141C80.4162 2.69141 80.8465 2.85378 81.2169 3.1779C81.5861 3.50203 81.7701 4.03915 81.7701 4.78926C81.7701 5.43319 81.6108 5.94314 81.2929 6.31851C80.9749 6.69388 80.5174 6.88094 79.9217 6.88094V6.88588ZM79.9217 6.43952C80.3705 6.43952 80.6983 6.28517 80.9058 5.97649C81.1132 5.6678 81.2169 5.27144 81.2169 4.78926C81.2169 4.33302 81.1447 3.99099 81.0009 3.76318C80.8589 3.53536 80.6996 3.37608 80.5267 3.28533C80.4192 3.22597 80.3026 3.18487 80.1816 3.1637C80.0955 3.1491 80.0084 3.14065 79.9211 3.13839C79.8606 3.13839 79.797 3.1421 79.7291 3.1495C79.6597 3.15721 79.5913 3.17253 79.5253 3.19519C79.2987 3.2594 79.0925 3.4088 78.9067 3.64464C78.7196 3.88048 78.6258 4.26202 78.6258 4.78926C78.6258 4.8794 78.632 4.98497 78.6437 5.10598C78.6548 5.22637 78.6777 5.35046 78.711 5.47887C78.7752 5.72027 78.8981 5.94068 79.079 6.14009C79.2611 6.3395 79.5408 6.43952 79.9217 6.43952Z" fill="#7A808B"/>
</svg>
