<svg width="121" height="40" viewBox="0 0 121 40" fill="none" xmlns="http://www.w3.org/2000/svg">
<path fill-rule="evenodd" clip-rule="evenodd" d="M11.1506 12.0703C4.9764 12.0703 0 17.0467 0 23.0363C0 29.0258 4.9764 34.0022 11.1506 34.0022C17.3248 34.0022 22.3005 29.0258 22.3005 23.0363C22.3005 17.0467 17.3248 12.0703 11.1506 12.0703ZM11.1506 32.8038C6.54278 32.8038 2.76481 28.3813 2.76481 22.9449C2.76481 17.4153 6.54342 12.9921 11.1506 12.9921C15.7577 12.9921 19.5363 17.4153 19.5363 22.9449C19.5363 28.3813 15.7584 32.8038 11.1506 32.8038Z" fill="#1F3044" fill-opacity="0.72"/>
<path fill-rule="evenodd" clip-rule="evenodd" d="M7.46405 31.6985C9.67564 26.0775 16.1264 30.3167 16.9556 33.4501C18.7066 38.7951 21.932 39.8089 25.4334 36.4909C22.208 42.665 16.3104 39.4397 14.928 36.3075C13.085 30.9625 11.15 28.1971 7.46405 31.6985Z" fill="#1F3044" fill-opacity="0.72"/>
<path fill-rule="evenodd" clip-rule="evenodd" d="M40.5463 8.20115V18.7065C40.5463 19.4437 40.639 19.813 40.8229 19.9969C41.0076 20.1809 41.4682 20.2729 42.0214 20.2729V20.6421C41.4682 20.8268 40.9156 21.0101 40.3624 21.2867C39.7172 21.4713 39.0726 21.7479 38.3348 22.0239H38.1508V19.7197C37.4136 20.6415 36.6764 21.2861 36.0312 21.6553C35.294 22.0233 34.5568 22.2079 33.635 22.2079C32.7131 22.2079 31.884 21.9313 31.2388 21.562C30.5935 21.1941 30.041 20.5482 29.6724 19.9037C29.4878 19.4431 29.3958 19.0738 29.3038 18.5213C29.2118 18.0607 29.2118 17.3235 29.2118 16.3097V10.0435C29.2118 9.49092 29.1192 9.21367 28.8432 9.02969C28.6592 8.9377 28.198 8.84571 27.4614 8.75308V8.20051H31.608V15.9411C31.608 17.876 31.792 19.1665 32.2526 19.8117C32.7131 20.4562 33.5423 20.7328 34.7408 20.7328C35.3853 20.7328 36.0305 20.5482 36.6757 20.1803C37.2283 19.7197 37.7815 19.1665 38.1501 18.3373V10.5967C38.1501 9.85952 38.0575 9.3063 37.8735 9.12232C37.6889 8.84571 37.2283 8.75373 36.5831 8.75373H36.4911V8.20115H40.5463ZM45.0622 21.1027V17.3241H45.7067C45.9833 18.7985 46.4439 19.8123 46.9971 20.4569C47.5497 21.1027 48.1949 21.4707 49.1167 21.4707C49.9459 21.4707 50.5911 21.1941 51.1437 20.6415C51.6043 20.1803 51.8809 19.5357 51.8809 18.7059C51.8809 18.0613 51.6963 17.5081 51.3277 17.1395C50.9591 16.6789 50.2219 16.1257 49.1161 15.5725C47.4571 14.7433 46.3513 14.0981 45.8907 13.5455C45.4301 12.9929 45.2461 12.2557 45.2461 11.5185C45.2461 10.4127 45.7067 9.49156 46.5359 8.84636C47.2731 8.20115 48.3789 7.83255 49.7613 7.83255C50.4065 7.83255 51.0511 7.92454 51.6963 8.10916C52.3415 8.29313 52.9867 8.47776 53.6313 8.84636V12.1637H52.9867C52.8021 11.0579 52.4341 10.1368 51.7889 9.39958C51.1437 8.75437 50.4065 8.38577 49.4847 8.38577C48.8401 8.38577 48.2869 8.57039 47.8257 8.93834C47.3651 9.30694 47.1805 9.85952 47.1805 10.4127C47.1805 11.2419 47.8257 12.0711 49.1161 12.7163C49.2081 12.8083 49.3007 12.8083 49.3927 12.9003C49.4847 12.9929 49.7613 13.0849 50.1299 13.2689C52.8941 14.7433 54.1845 16.2177 54.1845 17.7841C54.1845 19.0738 53.7239 20.1803 52.7101 20.9175C51.7883 21.7466 50.4985 22.1146 48.9315 22.1146C48.1943 22.1146 47.6417 22.0226 46.9039 21.9313C46.2599 21.7473 45.7067 21.4707 45.0622 21.1027ZM58.3317 1.56638C58.3317 1.10579 58.5157 0.73655 58.7923 0.460584C59.1609 0.091986 59.5295 0 59.9901 0C60.4506 0 60.8199 0.091986 61.1878 0.460584C61.4645 0.737194 61.6491 1.10579 61.6491 1.56638C61.6491 2.02697 61.4645 2.39556 61.1878 2.76416C60.8199 3.04077 60.4506 3.22475 59.9901 3.22475C59.5295 3.22475 59.1609 3.04013 58.8843 2.76416C58.5157 2.39556 58.3317 2.02697 58.3317 1.56638ZM61.4645 7.83255V19.4431C61.4645 20.1803 61.5577 20.7328 61.7411 20.9175C62.0177 21.1021 62.4783 21.1941 63.2161 21.1941V21.8386H57.2259V21.1941C57.8711 21.1941 58.3317 21.0095 58.6083 20.8261C58.7929 20.5482 58.8849 19.9037 58.8849 18.8905V11.8871C58.8849 11.2426 58.7929 10.7813 58.6083 10.5047C58.4237 10.2281 58.0557 9.95215 57.4105 9.67554V9.30694C58.0557 9.12297 58.7003 8.93834 59.2535 8.66238C59.8987 8.47776 60.4513 8.10981 61.0965 7.8332H61.4645V7.83255ZM65.8883 21.1941C66.7175 21.1021 67.1787 21.0095 67.362 20.8261C67.5466 20.6415 67.6386 20.1803 67.6386 19.2591V11.8871C67.6386 11.2426 67.5466 10.7813 67.2707 10.5047C67.0861 10.2281 66.7181 9.95215 66.1649 9.67554V9.30694C66.8094 9.12297 67.4553 8.93834 68.0079 8.66238C68.5996 8.40373 69.1833 8.12722 69.7582 7.8332H70.0361V10.3214C70.8653 9.39957 71.6019 8.75436 72.2477 8.38641C72.8923 8.01781 73.7215 7.83384 74.5506 7.83384C76.1177 7.83384 77.2228 8.29443 77.9607 9.30823C78.6065 10.322 78.9745 11.8884 78.9745 14.1V20.0902C78.9745 20.4582 79.0665 20.8274 79.2511 20.9194C79.4357 21.104 79.8956 21.196 80.7248 21.196L80.8181 21.8406H75.0125V21.196C75.7497 21.196 76.211 21.104 76.3943 20.9194C76.4876 20.8274 76.5789 20.5501 76.5789 20.0902V13.3615C76.5789 11.9798 76.3943 10.8733 75.8417 10.2281C75.3805 9.49092 74.6446 9.21431 73.6301 9.21431C72.8009 9.21431 72.1551 9.39893 71.6025 9.76753C70.9579 10.1361 70.4967 10.6893 70.0368 11.4259V19.4431C70.0368 20.2723 70.1288 20.7328 70.4047 20.9175C70.5893 21.1021 71.0493 21.1941 71.7865 21.1941V21.8386H65.8889L65.8883 21.1941ZM91.4129 11.7025C91.7821 11.7025 92.0587 11.7025 92.2434 11.5179C92.4267 11.3333 92.52 11.1493 92.52 10.7807C92.52 10.1355 92.2434 9.58226 91.6908 9.21367C91.1369 8.75308 90.4004 8.47647 89.4786 8.47647C89.3866 8.47647 89.2019 8.47647 89.1106 8.5691V7.8319H89.9398C91.5068 7.8319 92.8886 8.29249 93.9944 9.12168C95.1928 10.0435 95.746 10.9647 95.746 11.9785C95.746 12.1625 95.746 12.3471 95.6527 12.4391C95.5607 12.5311 95.4694 12.531 95.1928 12.531H89.1106V11.7019L91.4129 11.7025ZM89.11 22.2079V19.9963C89.5712 20.1803 90.1238 20.1803 90.7683 20.1803C91.8741 20.1803 92.7959 19.9037 93.7171 19.3511C94.5463 18.7979 95.1921 17.9687 95.5601 16.9549L96.2047 17.1395C95.6521 18.7059 94.8229 19.9963 93.7171 20.8261C92.52 21.7473 91.1363 22.2079 89.5712 22.2079H89.11ZM89.11 8.56975C88.3728 8.66173 87.6349 8.93834 87.0823 9.39893C86.4378 9.95151 85.9766 10.7813 85.7006 11.7032H89.1106V12.5323H85.516C85.424 13.1769 85.424 13.6381 85.3326 14.0067V14.8366C85.3326 16.4029 85.7926 17.6927 86.8997 18.7065C87.5442 19.3517 88.2814 19.7203 89.1112 19.9969V22.2085C87.3596 22.1152 85.9778 21.4713 84.872 20.2723C83.5816 18.9831 82.9371 17.3241 82.9371 15.3891C82.9371 13.0849 83.5816 11.2426 84.872 9.85952C85.8858 8.66173 87.3596 8.01653 89.1112 7.83255V8.56975H89.11ZM98.7855 21.1027V17.3241H99.4301C99.7993 18.7985 100.167 19.8123 100.72 20.4569C101.273 21.1027 102.011 21.4707 102.84 21.4707C103.669 21.4707 104.407 21.1941 104.868 20.6415C105.42 20.1803 105.697 19.5357 105.697 18.7059C105.697 18.0613 105.512 17.5081 105.144 17.1395C104.683 16.6789 103.946 16.1257 102.933 15.5725C101.181 14.7433 100.167 14.0981 99.706 13.5455C99.235 12.9745 98.9749 12.2587 98.9695 11.5185C98.9695 10.4127 99.4294 9.49156 100.26 8.84636C101.089 8.20115 102.195 7.83255 103.485 7.83255C104.222 7.83255 104.867 7.92454 105.512 8.10916C106.157 8.29313 106.802 8.47776 107.355 8.84636V12.1637H106.71C106.617 11.0579 106.249 10.1368 105.604 9.39958C104.958 8.75437 104.221 8.38577 103.3 8.38577C102.563 8.38577 102.01 8.57039 101.548 8.93834C101.18 9.30694 100.904 9.85952 100.904 10.4127C100.904 11.2419 101.548 12.0711 102.931 12.7163C103.023 12.8083 103.115 12.8083 103.115 12.9003C103.299 12.9929 103.576 13.0849 103.944 13.2689C106.616 14.7433 108 16.2177 108 17.7841C108 19.0738 107.539 20.1803 106.525 20.9175C105.511 21.7466 104.221 22.1146 102.655 22.1146C102.009 22.1146 101.364 22.0226 100.719 21.9313C100.043 21.7335 99.3943 21.4553 98.7855 21.1027ZM111.134 21.1027V17.3241H111.78C112.056 18.7985 112.516 19.8123 113.07 20.4569C113.623 21.1027 114.267 21.4707 115.188 21.4707C116.019 21.4707 116.663 21.1941 117.216 20.6415C117.677 20.1803 117.953 19.5357 117.953 18.7059C117.953 18.0613 117.769 17.5081 117.401 17.1395C117.031 16.6789 116.295 16.1257 115.188 15.5725C113.53 14.7433 112.424 14.0981 111.963 13.5455C111.503 12.9929 111.318 12.2557 111.318 11.5185C111.318 10.4127 111.78 9.49156 112.609 8.84636C113.438 8.20115 114.452 7.83255 115.834 7.83255C116.479 7.83255 117.125 7.92454 117.769 8.10916C118.414 8.29313 119.06 8.47776 119.704 8.84636V12.1637H119.06C118.968 11.0579 118.507 10.1368 117.861 9.39958C117.217 8.75437 116.479 8.38577 115.558 8.38577C114.912 8.38577 114.36 8.57039 113.9 8.93834C113.439 9.30694 113.254 9.85952 113.254 10.4127C113.254 11.2419 113.9 12.0711 115.189 12.7163C115.282 12.8083 115.374 12.8083 115.466 12.9003L116.203 13.2689C118.968 14.7433 120.35 16.2177 120.35 17.7841C120.35 19.0738 119.798 20.1803 118.783 20.9175C117.861 21.7466 116.571 22.1146 115.005 22.1146C114.359 22.1146 113.715 22.0226 112.977 21.9313C112.332 21.7473 111.78 21.4707 111.134 21.1027Z" fill="#7A808B"/>
<path fill-rule="evenodd" clip-rule="evenodd" d="M33.4509 27.1847V33.5435C33.4509 34.0048 33.5429 34.2807 33.6349 34.3727C33.8195 34.466 34.0955 34.5574 34.5567 34.5574V34.742C34.0961 34.834 33.7275 35.0186 33.2663 35.1099C32.8057 35.2945 32.3445 35.3865 31.8845 35.5712H31.6999V34.1894C31.1473 34.742 30.5941 35.1106 30.1335 35.3865C29.5693 35.5754 28.9775 35.6689 28.3825 35.6631C27.7373 35.6631 27.1841 35.5712 26.6315 35.2952C26.1709 35.0186 25.7097 34.7426 25.5257 34.2814C25.3411 34.0048 25.2491 33.7288 25.2491 33.4522C25.1571 33.1756 25.1571 32.715 25.1571 32.1618V28.2905C25.1571 28.0139 25.0651 27.8306 24.8805 27.738C24.7885 27.646 24.4199 27.5546 23.8667 27.5546V27.1854H26.9075V31.8858C26.9075 33.083 27.0921 33.8208 27.3681 34.19C27.7367 34.65 28.2899 34.8346 29.1191 34.8346C29.6723 34.8346 30.1329 34.65 30.5935 34.4666C31.0487 34.1957 31.4288 33.8151 31.6992 33.3596V28.6604C31.6992 28.1992 31.6073 27.9232 31.4226 27.738C31.33 27.646 30.9621 27.5546 30.5008 27.5546H30.4088V27.1854L33.4509 27.1847ZM42.5739 29.397C42.8505 29.397 43.0344 29.3037 43.2191 29.2124C43.3111 29.1204 43.403 28.9357 43.403 28.7511C43.403 28.3832 43.2191 28.0139 42.7578 27.83C42.3892 27.5533 41.836 27.3687 41.1915 27.3687C41.0995 27.3687 41.0068 27.3687 40.9149 27.4607V27.0008H41.5594C42.6652 27.0008 43.679 27.2774 44.5082 27.7373C45.3374 28.2899 45.798 28.8444 45.798 29.489C45.798 29.5809 45.798 29.6736 45.7053 29.7656C45.6133 29.8576 45.5214 29.8576 45.3367 29.8576H40.9136V29.3976L42.5739 29.397ZM40.9149 35.6631V34.3727C41.2834 34.466 41.652 34.466 42.1126 34.466C42.9425 34.466 43.6797 34.2814 44.3242 34.0048C44.8768 33.6355 45.338 33.0823 45.706 32.5297L46.0752 32.6224C45.7066 33.5435 45.1534 34.3727 44.2322 34.9253C43.4024 35.4779 42.3892 35.6625 41.2834 35.6625L40.9149 35.6631ZM40.9149 27.4607C40.3623 27.4607 39.901 27.646 39.4405 27.9226C38.9799 28.2905 38.6106 28.7518 38.4266 29.3976H40.9149V29.8576H38.3347C38.2427 30.2268 38.2427 30.5034 38.1507 30.6867V31.2406C38.1507 32.1618 38.5193 32.991 39.2565 33.5435C39.7171 33.9115 40.2696 34.1894 40.9149 34.3727V35.6631C39.7171 35.6631 38.6113 35.2019 37.7821 34.5574C36.8603 33.7282 36.3997 32.7144 36.3997 31.6086C36.3997 30.1335 36.8603 29.0277 37.7821 28.1985C38.6803 27.4897 39.7735 27.072 40.9155 27.0014V27.4613L40.9149 27.4607ZM53.9084 29.397C54.185 29.397 54.369 29.3037 54.461 29.2124C54.645 29.1204 54.645 28.9357 54.645 28.7511C54.645 28.3832 54.461 28.0139 54.0924 27.83C53.6318 27.5533 53.1706 27.3687 52.5254 27.3687C52.4334 27.3687 52.2488 27.3687 52.1574 27.4607V27.0008H52.802C53.9998 27.0008 54.9209 27.2774 55.8428 27.7373C56.6719 28.2899 57.1332 28.8444 57.1332 29.489C57.1332 29.5809 57.0405 29.6736 57.0405 29.7656C56.9485 29.8576 56.8566 29.8576 56.6719 29.8576H52.1568V29.3976L53.9084 29.397ZM52.1581 35.6631V34.3727C52.526 34.466 52.9872 34.466 53.3558 34.466C54.1168 34.4651 54.8695 34.3081 55.5674 34.0048C56.1625 33.6587 56.643 33.1459 56.9498 32.5297L57.4104 32.6224C57.0418 33.5435 56.3966 34.3727 55.5674 34.9253C54.6456 35.4779 53.6325 35.6625 52.526 35.6625L52.1581 35.6631ZM52.1581 27.4613C51.6968 27.4613 51.1443 27.646 50.7757 27.9226C50.2231 28.2905 49.9465 28.7518 49.6699 29.3976H52.1581V29.8576H49.5779C49.5779 30.2268 49.4852 30.5034 49.4852 30.6867V31.2406C49.4852 32.1618 49.8538 32.991 50.591 33.5435C51.0516 33.9115 51.6048 34.1894 52.1581 34.3727V35.6631C50.9596 35.6631 49.9465 35.2019 49.1166 34.5574C48.1948 33.7282 47.7342 32.7144 47.7342 31.6086C47.7342 30.1335 48.1948 29.0277 49.1166 28.1985C49.9458 27.554 50.9596 27.0928 52.1581 27.0014V27.4613ZM59.1608 35.1099C59.7134 35.0179 60.1746 34.9253 60.2666 34.8333C60.3592 34.7413 60.4512 34.4654 60.4512 33.9109V29.397C60.4512 29.0277 60.3592 28.7511 60.1746 28.5678C60.0826 28.3832 59.806 28.2899 59.3454 28.1066V27.9219C59.806 27.7373 60.2666 27.6453 60.7278 27.4607C61.1877 27.3687 61.557 27.1841 62.0169 27.0008H62.2016V28.4745C62.6847 27.9869 63.245 27.5825 63.8599 27.2774C64.3212 27.0928 64.8737 27.0008 65.5196 27.0008C66.6254 27.0008 67.4546 27.2774 68.0071 27.9219C68.4684 28.4745 68.7443 29.489 68.7443 30.7787V34.3721C68.7443 34.6487 68.8363 34.8333 68.9277 34.9247C69.0209 35.0179 69.3889 35.0179 70.0348 35.1093V35.4772H65.7955V35.1093C66.3481 35.0173 66.7167 35.0173 66.8081 34.9247C66.9013 34.8327 66.9927 34.6481 66.9927 34.3721V30.4095C66.9927 29.4883 66.8081 28.8438 66.4401 28.4745C66.0722 28.0133 65.5189 27.83 64.7817 27.83C64.2292 27.83 63.7679 27.9219 63.3067 28.1066C62.9388 28.3832 62.4775 28.6591 62.2009 29.1204V34.0041C62.2009 34.4654 62.2929 34.8333 62.4775 34.9253C62.5708 35.0186 62.9388 35.1099 63.4 35.1099V35.4779H59.1608V35.1099ZM71.9704 35.0186V32.7144H72.4303C72.6149 33.6355 72.8915 34.2814 73.3528 34.6493C73.7207 35.0186 74.2739 35.2019 74.9198 35.2019C75.4724 35.2019 75.9336 35.1099 76.3936 34.742C76.7628 34.4654 76.9461 34.0048 76.9461 33.5435C76.9461 33.1756 76.7628 32.899 76.4862 32.6224C76.2096 32.3458 75.749 32.0698 74.9192 31.6999C73.6287 31.1473 72.8915 30.7787 72.5229 30.4095C72.2463 30.0415 72.0617 29.6729 72.0617 29.2124C72.0617 28.5678 72.3383 28.0139 72.9842 27.554C73.6287 27.1847 74.3659 27.0014 75.3791 27.0014C75.8403 27.0014 76.3016 27.0014 76.8541 27.0934C77.3154 27.278 77.7753 27.37 78.2359 27.646V29.581H77.7747C77.5913 28.9364 77.3147 28.3838 76.8535 27.9226C76.3923 27.5546 75.8397 27.37 75.1951 27.37C74.6425 27.37 74.2727 27.462 73.9967 27.6466C73.6287 27.9232 73.4441 28.1992 73.4441 28.5691C73.4441 29.029 73.9967 29.4902 74.9192 29.9508C75.0112 29.9508 75.0111 30.0428 75.1025 30.0428C75.1958 30.0428 75.3791 30.1348 75.6551 30.3194C77.6827 31.1486 78.6051 32.0711 78.6051 33.0836C78.6051 33.8208 78.2359 34.4666 77.4981 34.9266C76.8535 35.3878 75.9323 35.6638 74.7339 35.6638C74.2727 35.6638 73.8127 35.5718 73.2601 35.4792C72.7996 35.3865 72.3383 35.2019 71.9704 35.0186ZM83.8569 34.0041C83.8569 34.4654 83.9501 34.8333 84.0415 34.9253C84.2261 35.0186 84.5941 35.1099 85.0553 35.1099V35.4779H80.8161V35.1099C81.3687 35.1099 81.6453 35.0179 81.8299 34.8333C82.0132 34.6487 82.1065 34.2807 82.1065 33.7275V24.6972C82.1065 24.3292 82.0132 23.96 81.8299 23.868C81.7366 23.6834 81.4607 23.5 80.9994 23.4068V23.1302C81.4607 23.0382 81.9219 22.8535 82.3825 22.7622C82.8424 22.5776 83.2116 22.393 83.6729 22.2096H83.8562L83.8569 34.0041ZM92.3353 33.8195V31.0553C91.5981 31.24 90.9535 31.4233 90.4923 31.6999V31.1473C91.0448 30.964 91.6907 30.7794 92.4273 30.5028V28.6598C92.4273 28.2905 92.2439 28.0139 92.0593 27.8306C91.8747 27.646 91.5067 27.554 91.0455 27.554H90.4929V27.0928C90.8609 27.0008 91.4141 27.0008 91.8747 27.0008C92.7039 27.0008 93.2564 27.0928 93.6263 27.4607C93.9943 27.8299 94.1789 28.5678 94.1789 29.6729V34.2801C94.1789 34.4647 94.2709 34.5567 94.2709 34.6481C94.3642 34.7413 94.5475 34.7413 94.6401 34.7413C94.8235 34.7413 95.0081 34.7413 95.1001 34.5567C95.1933 34.4647 95.1933 34.3721 95.2847 34.0955H95.6526C95.6526 34.5567 95.4693 34.9247 95.1001 35.2013C94.8235 35.4779 94.3635 35.5705 93.9029 35.5705C93.4423 35.5705 93.0737 35.4772 92.7971 35.2939C92.4279 35.0173 92.3359 34.7413 92.2446 34.3714C91.692 34.7407 91.1375 35.1086 90.5849 35.2939C90.5849 35.3859 90.4929 35.3859 90.4929 35.3859V34.6487C90.6775 34.5567 90.9541 34.5567 91.2301 34.4654C91.5061 34.3727 91.874 34.1894 92.3353 33.8195ZM90.4923 31.6999C90.031 31.8845 89.6631 32.0691 89.3865 32.1611C88.8339 32.5291 88.5573 32.8983 88.5573 33.2669C88.5573 33.6355 88.7419 34.0041 89.0185 34.2807C89.3865 34.4654 89.8477 34.6487 90.3076 34.6487H90.4923V35.3859C90.0537 35.566 89.5846 35.6599 89.1105 35.6625C88.4647 35.6625 88.0047 35.4779 87.5435 35.2013C87.1755 34.9247 86.9909 34.4647 86.9909 34.0041C86.9909 33.2669 87.3589 32.7137 88.0967 32.2525C88.5579 31.8845 89.3871 31.5159 90.4929 31.1467V31.6999H90.4923ZM90.4923 27.0928V27.554C90.1243 27.646 89.8477 27.7373 89.5711 27.8306C89.2019 28.0139 89.0185 28.2905 89.0185 28.5678C89.0185 29.1204 88.9252 29.5803 88.7419 29.7649C88.5573 30.0415 88.2807 30.1329 87.8194 30.1329C87.5428 30.1329 87.3582 30.0409 87.1749 29.9495C87.0816 29.8563 86.9903 29.6729 86.9903 29.397C86.9903 28.9357 87.5428 28.3832 88.5573 27.83C89.2019 27.4614 89.8477 27.2774 90.4923 27.0928ZM97.0357 35.1099C97.6803 35.0179 98.0482 34.9253 98.1415 34.8333C98.3248 34.7413 98.3248 34.4654 98.3248 33.9109V29.397C98.329 29.1101 98.2662 28.8262 98.1415 28.5678C97.9569 28.3832 97.6803 28.2899 97.219 28.1066V27.9219C97.7716 27.7373 98.2328 27.6453 98.6008 27.4607C99.062 27.3687 99.5232 27.1841 99.8912 27.0008H100.168L100.076 28.4745C100.559 27.9869 101.119 27.5825 101.734 27.2774C102.195 27.0928 102.748 27.0008 103.393 27.0008C104.498 27.0008 105.328 27.2774 105.881 27.9219C106.341 28.4745 106.618 29.489 106.618 30.7787V34.3721C106.618 34.6487 106.711 34.8333 106.803 34.9247C106.987 35.0179 107.355 35.0179 107.908 35.1093L108.002 35.4772H103.67V35.1093C104.222 35.0173 104.592 35.0173 104.684 34.9247C104.868 34.8327 104.868 34.6481 104.868 34.3721V30.4095C104.868 29.4883 104.684 28.8438 104.407 28.4745C104.039 28.0133 103.486 27.83 102.657 27.83C102.104 27.83 101.643 27.9219 101.182 28.1066C100.814 28.3832 100.444 28.6591 100.076 29.1204V34.0041C100.076 34.4654 100.168 34.8333 100.352 34.9253C100.537 35.0186 100.814 35.1099 101.366 35.1099V35.4779H97.0357V35.1099ZM117.401 33.8195V30.7787C117.401 29.6729 117.216 28.8438 116.755 28.2899C116.295 27.7373 115.558 27.4607 114.635 27.4607H114.543V27.0008H114.728C115.096 27.0008 115.464 27.0928 115.925 27.0928C116.386 27.1847 116.847 27.2774 117.4 27.4607V24.6965C117.4 24.2353 117.307 23.9593 117.123 23.7754C116.939 23.5907 116.662 23.4988 116.201 23.4061V23.1295C116.662 23.0375 117.215 22.9462 117.676 22.7616C118.136 22.5769 118.597 22.3923 119.058 22.209H119.242V33.9109C119.242 34.0955 119.334 34.2801 119.426 34.3721C119.519 34.4654 119.795 34.5567 120.255 34.6487V34.8333C119.702 35.0179 119.242 35.1099 118.781 35.2945C118.412 35.3865 117.952 35.4779 117.675 35.5712H117.399V34.3727C116.937 34.742 116.476 35.1099 115.924 35.3865C115.462 35.4785 115.002 35.6631 114.542 35.6631V34.6493C114.726 34.6493 114.91 34.7426 115.094 34.7426C115.556 34.7426 115.924 34.6493 116.385 34.466C116.755 34.3727 117.124 34.0961 117.401 33.8195ZM114.543 27.4607C113.714 27.4607 112.976 27.8306 112.424 28.4752C111.871 29.121 111.594 30.0422 111.594 31.1473C111.594 32.1611 111.962 32.9903 112.608 33.6349C113.161 34.2807 113.805 34.5573 114.543 34.6487V35.6625H114.175C112.885 35.6625 111.871 35.2945 110.95 34.4654C110.119 33.6349 109.751 32.6224 109.751 31.332C109.751 30.0415 110.119 28.9357 111.042 28.1985C111.963 27.4614 113.069 27.0921 114.543 27.0008V27.4607Z" fill="#1F3044" fill-opacity="0.72"/>
<path fill-rule="evenodd" clip-rule="evenodd" d="M22.1161 20.7361C22.5767 20.5515 23.0379 20.3682 23.4059 20.0916C25.2489 19.0771 26.0787 17.6034 26.0787 15.4838C26.0787 14.194 25.6181 13.0876 24.6043 12.1664C23.5905 11.3372 22.2081 10.7846 20.5497 10.5074C21.8395 10.1388 22.7613 9.49422 23.4059 8.84901C24.0511 8.01918 24.4197 7.19 24.4197 6.17683C24.4197 4.33384 23.6825 3.04343 22.1155 2.21424C21.1017 1.66102 19.5353 1.29243 17.6003 1.10845V1.93763C18.3375 2.12225 19.0747 2.49085 19.6273 2.85945C20.6411 3.68864 21.1943 4.79443 21.1943 6.26882C21.1943 7.74321 20.6417 8.84901 19.5353 9.5862C19.0747 9.9548 18.3375 10.2314 17.6003 10.416V11.4292C19.0747 11.5218 20.1805 11.8898 20.9177 12.443C21.9315 13.1802 22.4841 14.378 22.4841 16.129C22.4841 17.3268 22.1155 18.2479 21.5622 18.9858L22.1161 20.7361ZM17.6009 21.5653V20.8288C18.2461 20.8288 18.7987 20.6442 19.3519 20.5509L19.4446 21.3813C18.8914 21.4733 18.2461 21.4733 17.6009 21.5653ZM17.6009 1.10781C16.7711 1.01518 15.8499 0.923828 14.8361 0.923828C14.4675 0.923828 13.4544 1.01582 11.98 1.01582H8.10938V1.75301H8.29335C9.21517 1.75301 9.86038 1.845 10.1363 2.02962C10.413 2.30623 10.5969 2.85881 10.5969 3.78063V18.6165C10.5969 19.6303 10.4123 20.2749 10.1363 20.4595C9.86038 20.6441 9.21453 20.8288 8.29335 20.8288H8.10938V21.4733C8.84657 21.4733 9.86038 21.5653 11.1508 21.5653H17.6009V20.8288C17.3243 20.9208 17.0484 20.9208 16.6791 20.9208C15.6653 20.9208 14.9281 20.7361 14.5595 20.4595C14.1909 20.1829 14.0069 19.6303 14.0069 18.9851V11.3366H15.8499C16.4945 11.3366 17.0477 11.3366 17.6009 11.4286V10.4154C16.7711 10.5994 15.8499 10.692 14.7448 10.692H14.0076V1.66102H15.0214C15.9426 1.66102 16.8644 1.75365 17.6016 1.93763V1.10781H17.6009Z" fill="#7A808B"/>
</svg>
