<svg width="136" height="32" viewBox="0 0 136 32" fill="none" xmlns="http://www.w3.org/2000/svg">
<path d="M13.9414 0.12602C10.5044 0.457322 7.24678 1.92057 4.81738 4.22588C1.72542 7.13857 0 11.1832 0 15.5454C0 22.5027 3.61649 28.1762 9.66237 30.661C12.2712 31.7377 14.2727 32.069 17.6545 31.9586C20.2496 31.8758 21.9474 31.5997 23.9351 30.9509C25.1222 30.5644 27.8828 29.2668 27.8828 29.1011C27.8828 29.0459 27.6068 28.4109 27.2617 27.6793L26.6405 26.3403L25.7847 26.8234C23.5762 28.0244 21.5057 28.5351 18.3585 28.6456C13.5687 28.7974 10.3663 27.7621 7.64707 25.1945C5.36952 23.0549 4.04439 20.2526 3.74072 16.9396C3.21619 11.3213 6.03208 6.37934 10.9185 4.3087C12.5335 3.6323 13.9828 3.37002 16.0809 3.38382C18.3861 3.39762 19.6008 3.6599 21.3952 4.55718C23.0378 5.37163 25.0946 7.40085 25.9228 9.02975C26.82 10.7829 27.1236 12.0253 27.1236 13.9855C27.1236 15.7524 26.8476 16.9672 26.1574 18.3338C25.3706 19.8937 23.797 21.3017 22.0854 22.0057C19.518 23.0411 16.1776 22.9858 13.969 21.8677C12.2298 20.9842 10.8633 18.817 10.5734 16.4978L10.4906 15.849H23.7418V14.3996C23.7418 9.81659 21.6023 6.65542 17.8754 5.70293C16.7849 5.42685 14.3003 5.42685 13.196 5.71674C8.00596 7.05575 5.13486 13.5299 7.16396 19.3829C7.7299 21.0394 8.32344 21.9643 9.66237 23.3033C11.3602 25.0013 12.92 25.8295 15.2941 26.285C16.6607 26.5473 19.5594 26.5335 20.9949 26.2574C25.3844 25.4292 28.7939 22.3923 30.1328 18.1267C30.3122 17.5194 30.5193 16.7601 30.5745 16.4288L30.6711 15.849H32.2999V20.9842C32.2999 23.9521 32.3689 26.3955 32.4518 26.7406C32.8521 28.5075 34.2738 30.2193 36.0406 31.0889C37.421 31.7515 38.47 32 39.9608 32C42.404 32 44.1984 31.296 45.772 29.7223C46.8487 28.6456 47.3732 27.7207 47.6079 26.4231C47.7045 25.8985 47.7597 23.2205 47.7597 19.1345V12.6741H44.0328V25.7329L43.6739 26.4507C42.9975 27.8173 41.7138 28.5489 39.947 28.5489C38.9808 28.5489 38.7185 28.4937 37.9731 28.121C37.1311 27.7069 36.717 27.279 36.2201 26.3403C35.9716 25.8847 35.9578 25.3878 35.9164 19.2587L35.875 12.6741H30.6573L30.5745 12.0115C30.1742 8.8641 28.8215 6.15847 26.5991 4.01881C24.2111 1.72731 21.3124 0.457322 17.6821 0.112216C16.0533 -0.0396309 15.6392 -0.0396309 13.9414 0.12602ZM17.4061 8.87791C18.6622 9.31964 19.7388 10.6172 20.0011 12.0391L20.1115 12.6741H10.6424L10.8495 11.9424C11.236 10.6587 12.0089 9.67855 13.1132 9.08497C14.1623 8.519 16.1224 8.42237 17.4061 8.87791ZM55.3516 15.9181V30.8957H56.5939V0.94047H55.3516V15.9181ZM94.4151 2.11383V3.28719H97.1758V0.94047H94.4151V2.11383ZM63.6336 7.29042V13.0882H66.767C70.3697 13.0882 71.3359 12.964 72.3435 12.3566C73.296 11.7768 73.7101 11.0314 73.7101 9.87181C73.7101 8.71225 73.3098 7.92541 72.454 7.38705L71.7914 6.97292L72.1779 6.61401C72.8543 5.97902 73.0475 5.42685 72.9923 4.3087C72.9509 3.43904 72.8957 3.23197 72.523 2.77643C72.3021 2.48654 71.8052 2.10003 71.4187 1.90677C70.7561 1.57546 70.6595 1.56166 67.1949 1.52025L63.6336 1.47884V7.29042ZM69.7485 4.00501C70.4663 4.37772 70.5767 4.98511 70.066 5.5925C69.7347 5.97902 69.7071 5.97902 67.9955 6.02043L66.2562 6.07565V3.83936H67.8574C68.7961 3.83936 69.5691 3.90838 69.7485 4.00501ZM70.3973 8.57421C70.908 8.83649 71.1564 9.41627 70.9494 9.91322C70.6871 10.5482 69.9832 10.7415 67.9817 10.7415H66.2562V8.39476H68.1611C69.4034 8.39476 70.1764 8.46378 70.3973 8.57421ZM87.6101 4.18447C85.3877 4.90229 84.9184 7.884 86.8647 9.00214C87.1822 9.1816 87.969 9.4991 88.6177 9.70616C89.929 10.1203 90.1361 10.2445 90.1361 10.6172C90.1361 11.3075 88.6315 11.3075 87.265 10.6172C86.7957 10.3826 86.3678 10.1893 86.3126 10.1893C86.2573 10.1893 85.9675 10.562 85.6638 11.0176C85.0426 11.9839 85.0426 11.9562 86.3678 12.605C87.3616 13.0882 88.3555 13.2677 89.5149 13.1986C91.4336 13.0744 92.4827 12.1909 92.5931 10.6034C92.7035 9.08497 92.0272 8.35334 89.7634 7.5665C89.0594 7.31803 88.3831 7.00053 88.245 6.84868C88.0104 6.5864 88.0104 6.55879 88.3279 6.31032C88.811 5.90999 89.4873 6.00662 90.9091 6.68303C91.1713 6.80727 91.406 6.8901 91.4336 6.86249C91.4612 6.83488 91.6959 6.42075 91.9719 5.95141L92.4689 5.08174L92.1376 4.86087C91.0195 4.12925 88.8248 3.79795 87.6101 4.18447ZM103.387 4.18447C103.125 4.3087 102.697 4.59859 102.463 4.83326L102.007 5.275V4.11544H99.3844V13.0882H102.007V10.4654C102.007 7.59411 102.104 7.08335 102.752 6.66923C103.166 6.39314 103.912 6.36553 104.354 6.60021C104.933 6.9177 105.044 7.49748 105.044 10.3964V13.0882H107.68L107.639 9.45768L107.597 5.81337L107.225 5.2612C106.673 4.41914 106.024 4.08784 104.85 4.01881C104.16 3.99121 103.732 4.03262 103.387 4.18447ZM112.36 4.21207C110.938 4.70903 109.916 5.86858 109.516 7.42846C108.895 9.85801 110.151 12.2737 112.387 13.0054C113.381 13.3229 115.065 13.2953 115.99 12.9502C116.666 12.7017 117.881 11.8182 117.881 11.5973C117.881 11.5421 117.536 11.2108 117.136 10.8381L116.376 10.1893L115.659 10.631C115.079 11.0038 114.803 11.0866 114.154 11.0866C113.257 11.0866 112.774 10.8243 112.36 10.1479C112.208 9.89942 112.083 9.66475 112.083 9.59573C112.083 9.54051 113.491 9.4991 115.203 9.4991H118.336L118.267 8.42237C118.116 6.15847 117.122 4.72283 115.313 4.17066C114.471 3.92218 113.146 3.93599 112.36 4.21207ZM114.803 6.40695C115.148 6.62781 115.452 7.05575 115.603 7.52509L115.686 7.84259H113.892C112.718 7.84259 112.083 7.78737 112.083 7.70455C112.083 7.62172 112.166 7.38705 112.277 7.17998C112.801 6.17227 113.892 5.84097 114.803 6.40695ZM122.091 4.10164C120.697 4.47435 119.813 5.53728 119.813 6.87629C119.813 8.24291 120.573 8.98834 122.588 9.63714C123.844 10.0375 124.368 10.3135 124.368 10.5896C124.368 10.6448 124.244 10.8105 124.092 10.9485C123.692 11.3213 122.519 11.1694 121.456 10.631C120.987 10.3826 120.559 10.1893 120.504 10.1893C120.338 10.1893 119.372 11.7216 119.441 11.901C119.537 12.1633 120.793 12.7845 121.677 13.0192C123.816 13.5713 125.97 12.9502 126.522 11.6111C126.632 11.3627 126.715 10.7553 126.715 10.2721C126.715 9.45768 126.674 9.31964 126.273 8.87791C125.79 8.32574 125.224 8.00824 124.092 7.63552C122.892 7.24901 122.298 6.9039 122.298 6.60021C122.298 5.9376 123.43 5.90999 124.783 6.54499C125.638 6.94531 125.625 6.95912 126.246 5.73054C126.577 5.09554 126.577 5.04033 126.356 4.87468C125.528 4.2811 123.099 3.82555 122.091 4.10164ZM130.511 4.10164C129.559 4.33631 128.661 5.05413 128.385 5.81337C128.164 6.36553 128.192 7.51129 128.427 7.96683C128.813 8.69845 129.517 9.15399 130.939 9.60953C131.684 9.85801 132.374 10.1065 132.457 10.1617C132.747 10.355 132.775 10.7139 132.512 10.9485C132.112 11.3075 130.953 11.1694 129.848 10.631C129.365 10.3826 128.924 10.1893 128.896 10.1893C128.744 10.1893 127.806 11.7492 127.861 11.901C127.957 12.1633 129.213 12.7845 130.097 13.0192C132.236 13.5713 134.39 12.9502 134.942 11.6111C135.052 11.3627 135.135 10.7967 135.135 10.355C135.135 9.01595 134.459 8.28432 132.678 7.69074C131.312 7.24901 130.718 6.9177 130.718 6.60021C130.718 5.95141 131.85 5.90999 133.189 6.53119C133.589 6.72444 133.948 6.87629 133.976 6.87629C134.045 6.87629 135.039 5.06794 134.983 5.02652C134.956 4.99892 134.666 4.84707 134.348 4.68142C133.147 4.07403 131.588 3.83936 130.511 4.10164ZM75.3941 7.59411C75.4355 10.8519 75.4493 11.128 75.7392 11.6388C76.3189 12.7155 77.1885 13.2262 78.4722 13.2262C79.3557 13.2262 79.9354 13.0192 80.5842 12.4808L81.0259 12.0943V13.0882H83.7865V4.11544H81.0397L80.9983 7.06955C80.9568 9.74757 80.9292 10.0513 80.6946 10.3135C80.1286 10.9485 79.0106 10.9071 78.4446 10.2583C78.141 9.91322 78.1272 9.80279 78.1272 7.00053V4.11544H75.3389L75.3941 7.59411ZM94.4151 8.60182V13.0882H97.0378V4.11544H94.4151V8.60182ZM83.6485 24.5457V30.6196H86.2711V28.1624C86.285 25.4292 86.3816 24.7942 86.8647 24.2972C87.5135 23.6622 88.8524 23.9245 89.1699 24.7666C89.2527 24.9598 89.3079 26.3541 89.3079 27.8725V30.6196H92.0962L92.041 27.1961C91.9996 24.311 91.9581 23.7037 91.7511 23.2343C91.2404 22.0886 90.3293 21.5226 88.9904 21.5088C88.0518 21.5088 87.334 21.7711 86.7267 22.3646L86.2711 22.8064V18.4719H83.6485V24.5457ZM116.501 24.5457V30.6196H119.123V18.4719H116.501V24.5457ZM66.2977 18.886C64.448 19.2587 63.3713 20.5425 63.3575 22.3784C63.3575 23.5518 63.5784 24.0764 64.3238 24.7252C64.9035 25.2083 65.5523 25.4706 68.0231 26.2022C68.5752 26.3541 69.155 26.6164 69.3068 26.7682C69.8865 27.348 69.362 28.19 68.3129 28.3557C67.5262 28.4799 66.3667 28.1624 65.3452 27.555L64.4066 26.9891L63.606 27.8725C63.1781 28.3557 62.8192 28.7974 62.8054 28.8526C62.8054 29.0735 64.586 30.095 65.4833 30.3849C66.2424 30.6196 66.7946 30.6886 67.9265 30.6886C69.3206 30.6886 69.431 30.661 70.342 30.2055C71.1426 29.7913 71.3635 29.5981 71.7362 28.9631C72.1365 28.3005 72.1917 28.0934 72.1917 27.2237C72.1917 26.0642 72.0537 25.5948 71.5291 25.0565C70.9218 24.4077 70.1488 24.0488 68.3267 23.5104C67.3329 23.2205 66.4633 22.8892 66.2977 22.7236C65.4142 21.8953 66.5047 20.9842 68.0507 21.2603C68.3958 21.3155 69.0859 21.5778 69.5967 21.8401L70.5353 22.3094L71.2255 21.3293L71.9294 20.3354L71.612 20.0731C70.4249 19.093 68.0093 18.5547 66.2977 18.886ZM76.8572 21.6882C75.4079 22.2404 74.3726 23.2343 73.9171 24.5319C73.8067 24.877 73.7101 25.5948 73.7101 26.1608C73.7101 27.9968 74.5107 29.3634 76.0843 30.2193C76.9263 30.6748 77.0091 30.6886 78.4722 30.6886C79.8802 30.6886 80.0458 30.661 80.7084 30.2883C81.0949 30.0812 81.5918 29.7223 81.7988 29.5014L82.1853 29.1011L81.44 28.3419C80.6394 27.5274 80.4737 27.4584 80.1839 27.8035C79.6041 28.4937 78.2238 28.6594 77.3818 28.1348C76.4017 27.5412 76.0566 26.0504 76.6088 24.9598C77.2437 23.7037 78.8035 23.4138 79.894 24.3387C80.1286 24.5319 80.3633 24.6838 80.4323 24.6838C80.5013 24.6838 80.9154 24.311 81.3709 23.8417L82.1991 23.0134L81.716 22.5993C80.805 21.8263 80.1148 21.5916 78.6793 21.5502C77.8235 21.5226 77.1885 21.564 76.8572 21.6882ZM96.8031 21.7711C94.8707 22.4889 93.6974 24.1178 93.6836 26.1194C93.6836 27.2099 93.9044 27.9554 94.4566 28.7698C95.409 30.1502 96.9688 30.8404 98.8874 30.73C100.848 30.6196 102.214 29.7637 103.001 28.1624C103.415 27.3342 103.456 27.1271 103.443 26.0642C103.443 25.1393 103.374 24.7528 103.125 24.2558C102.628 23.2343 101.938 22.5303 100.944 22.0333C100.157 21.6468 99.8675 21.5778 98.777 21.5502C97.797 21.5088 97.3691 21.564 96.8031 21.7711ZM99.7571 24.1592C100.999 24.9046 101.206 26.7544 100.157 27.8035C98.7356 29.2254 96.3476 28.1762 96.3476 26.1332C96.3476 25.0151 96.8445 24.2696 97.8246 23.9245C98.4457 23.7037 99.1359 23.7865 99.7571 24.1592ZM107.984 21.7573C105.844 22.5165 104.643 24.311 104.795 26.4921C104.92 28.2314 105.858 29.5567 107.515 30.3297C108.191 30.6472 108.453 30.6886 109.737 30.6886C111.048 30.6886 111.255 30.6472 111.945 30.3021C112.981 29.7637 113.781 28.9493 114.223 27.9692C114.554 27.2375 114.596 27.0029 114.54 25.9537C114.485 24.5457 114.195 23.8141 113.312 22.9168C112.373 21.9781 111.435 21.5916 109.958 21.5502C109.005 21.5088 108.536 21.564 107.984 21.7573ZM110.703 24.0626C112.801 25.1393 112.07 28.4661 109.737 28.4661C108.08 28.4661 106.962 26.7268 107.639 25.2221C108.219 23.9245 109.488 23.4414 110.703 24.0626Z" fill="#7A808B"/>
</svg>
