<svg width="121" height="28" viewBox="0 0 121 28" fill="none" xmlns="http://www.w3.org/2000/svg">
<path fill-rule="evenodd" clip-rule="evenodd" d="M9.83709 0L11.2483 3.14066H4.65774V7.33682H13.2237L14.917 10.4775H4.65774V15.2043H11.8132L8.9333 18.3437H0V0H9.83709Z" fill="#7A808B"/>
<path fill-rule="evenodd" clip-rule="evenodd" d="M19.0255 4.87085L21.1765 8.61254L25.3985 4.87085H30.552L23.6464 11.7093L27.7916 18.4096H22.6077L20.6039 14.6247L8.11481 27.7238H2.9303L18.3018 11.5595L14.4497 4.87085H19.0255Z" fill="#1F3044" fill-opacity="0.6"/>
<path fill-rule="evenodd" clip-rule="evenodd" d="M39.7387 9.7835C39.088 7.62474 37.8814 7.59828 36.5522 7.54921C35.0661 7.47368 34.0145 8.25223 33.5503 9.55756C33.396 9.95845 32.8996 11.8913 33.4264 13.5232C34.1068 15.6581 35.252 15.9583 36.6129 15.9835C37.6961 16.0338 39.0583 15.8828 39.7387 13.5749H43.9C43.931 15.4315 41.8503 17.2449 41.2287 17.6723C39.9556 18.527 39.0266 18.8311 36.3043 18.9079C31.0681 19.0564 29.2057 15.5832 28.8945 13.5994C28.7086 12.3955 28.553 10.0598 29.4846 8.32776C31.471 4.68227 33.7356 4.63191 36.5199 4.4815C38.1906 4.40532 39.9872 4.73262 40.9485 5.23487C42.8426 6.19095 43.8987 8.67895 43.8987 9.7835H39.7387ZM50.0503 10.2664C50.0186 8.97591 51.0128 7.30842 53.6809 7.40848C56.2864 7.50919 56.7215 9.22897 56.7215 10.2664H50.0503ZM61.2224 12.6298C61.316 10.9952 61.316 9.15343 59.795 7.15735C58.7396 5.80619 56.6899 4.48085 53.4014 4.48085C51.4783 4.48085 46.9174 4.72939 45.8315 10.063C45.614 11.1205 45.614 12.1753 45.6759 12.9803C45.7695 13.8086 45.9238 14.4109 45.9858 14.6356C46.4203 15.8156 47.4441 17.0487 48.9961 17.8769C50.1749 18.4812 51.7268 18.9085 53.3698 18.9085C56.3174 18.9085 60.2908 17.1242 61.0358 14.4864H56.7532C56.535 15.1901 55.4795 15.8156 54.2393 16.0171C52.9986 16.1914 51.5699 15.9164 50.5777 14.8118C49.9573 14.1094 49.9573 13.3573 50.0503 12.6298H61.2224ZM63.0706 0H67.4108V18.3437H63.0706V0ZM69.8394 0H74.1788V18.3437H69.8394V0ZM80.8475 10.2664C80.8159 8.97591 81.8094 7.30842 84.4775 7.40848C87.0836 7.50919 87.5175 9.22897 87.5175 10.2664H80.8475ZM92.019 12.6298C92.1126 10.9952 92.1126 9.15343 90.5916 7.15735C89.5361 5.80619 87.4871 4.48085 84.198 4.48085C82.2748 4.48085 77.7146 4.72939 76.6275 10.063C76.4105 11.1205 76.4105 12.1753 76.4725 12.9803C76.5661 13.8086 76.7211 14.4109 76.7824 14.6356C77.2175 15.8156 78.2401 17.0487 79.792 17.8769C80.9708 18.4812 82.5221 18.9085 84.1657 18.9085C87.1146 18.9085 91.0881 17.1242 91.8331 14.4864H87.5484C87.3302 15.1901 86.276 15.8156 85.034 16.0171C83.7932 16.1914 82.3672 15.9164 81.3736 14.8118C80.7532 14.1094 80.7533 13.3573 80.8469 12.6298H92.019ZM94.383 4.7281H98.7218V6.77647H98.7851C99.6237 5.34333 101.238 4.48925 102.921 4.4815C106.773 4.4815 109.376 5.7836 109.376 9.19798V18.3443H105.037V10.2309C105.037 9.0211 104.85 7.58472 101.897 7.58472C99.2499 7.58472 98.7218 8.76932 98.7218 9.87775V18.3437H94.383V4.7281ZM112.71 5.00957V1.2737H117.049V5.00957H119.471V7.33682H117.049V14.9887C117.049 15.6672 117.172 16.1662 117.763 16.1662L119.409 16.1939V18.5806C118.756 18.7568 118.042 18.8834 117.328 18.9085C116.614 18.9337 115.933 18.8834 115.281 18.7323C113.979 18.4044 112.957 17.6264 112.71 16.1939V7.33682H110.568V5.00957H112.71ZM18.6927 27.8457H17.9438L18.8593 20.3765H19.6088L19.275 23.0937C19.6656 22.7296 20.1768 22.3926 20.6862 22.3926C21.599 22.3926 22.5532 23.2183 22.2982 25.3015C22.0483 27.3377 20.7475 28 20.0277 28C19.4422 28 19.0684 27.6824 18.7669 27.2421L18.6927 27.8457ZM18.8747 26.357C19.0316 26.8096 19.4745 27.3467 20.0019 27.3467C20.5203 27.3467 21.3221 26.8386 21.5125 25.2828C21.61 24.4875 21.5661 23.0459 20.5196 23.0459C19.9438 23.0459 19.4635 23.4378 19.1769 23.9007L18.8747 26.357ZM28.3936 22.5463H29.1411L28.4923 27.8457H27.7428L27.8106 27.2983C27.3258 27.6527 26.87 27.9994 26.2652 27.9994C25.5163 27.9994 24.9618 27.5855 25.1309 26.204L25.5796 22.5463H26.3291L25.9043 26.0123C25.8365 26.5694 25.832 27.3841 26.4362 27.3841C26.8972 27.3841 27.5576 26.9342 27.8991 26.5772L28.3936 22.5463ZM35.0261 23.7264C34.7814 23.2848 34.458 23.0266 33.9028 23.0266C33.4128 23.0266 32.9209 23.2764 32.8551 23.8148C32.6963 25.1098 35.5593 24.5437 35.3405 26.328C35.2133 27.3654 34.3967 28 33.398 28C32.5433 28 31.899 27.6256 31.5562 26.8864L32.1972 26.5107C32.4193 27.0594 32.8409 27.3654 33.4748 27.3654C34.0222 27.3654 34.5484 27.0691 34.6226 26.4629C34.7853 25.1292 31.9151 25.7631 32.1482 23.8606C32.2599 22.9504 33.0765 22.3933 33.9506 22.3933C34.6898 22.3933 35.2662 22.6999 35.6045 23.3151L35.0261 23.7264ZM38.8594 27.8457H38.1106L38.7607 22.5463H39.5095L38.8594 27.8457ZM39.6748 21.2022H38.9259L39.0266 20.3765H39.7768L39.6748 21.2022ZM42.6992 27.8457H41.9498L42.5998 22.5463H43.3493L43.2809 23.0937C43.767 22.7393 44.2221 22.3926 44.8277 22.3926C45.5752 22.3926 46.1311 22.8064 45.9606 24.188L45.5126 27.8457H44.7631L45.1879 24.381C45.2563 23.8226 45.4513 23.0079 44.656 23.0079C44.195 23.0079 43.5359 23.4565 43.1931 23.8148L42.6992 27.8457ZM49.5461 25.3216C49.3602 26.8386 49.9386 27.3654 50.7062 27.3654C51.2626 27.3654 51.7888 26.9142 52.1141 26.4539L52.608 26.8096C52.2374 27.4919 51.4647 28 50.5519 28C49.3705 28 48.53 27.1827 48.774 25.1957C49.018 23.2099 50.058 22.3926 51.2394 22.3926C52.7662 22.3926 53.007 24.024 52.7423 25.3216H49.5461ZM52.0322 24.6876C52.1361 24.0053 51.8908 23.0272 51.1038 23.0272C50.2581 23.0272 49.743 23.9388 49.6423 24.6876H52.0322ZM58.8803 23.7264C58.6369 23.2848 58.3135 23.0266 57.757 23.0266C57.2664 23.0266 56.7751 23.2764 56.7099 23.8148C56.5504 25.1098 59.4135 24.5437 59.194 26.328C59.0669 27.3654 58.2502 28 57.2528 28C56.3981 28 55.7525 27.6256 55.411 26.8864L56.0514 26.5107C56.2729 27.0594 56.6963 27.3654 57.3296 27.3654C57.8771 27.3654 58.4045 27.0691 58.4762 26.4629C58.6395 25.1292 55.7693 25.7631 56.0024 23.8606C56.114 22.9504 56.9313 22.3933 57.8041 22.3933C58.5446 22.3933 59.1211 22.6999 59.4581 23.3151L58.8803 23.7264ZM65.4082 23.7264C65.1648 23.2848 64.8408 23.0266 64.2836 23.0266C63.7943 23.0266 63.3024 23.2764 63.2372 23.8148C63.0784 25.1098 65.9415 24.5437 65.7226 26.328C65.5954 27.3654 64.7782 28 63.7808 28C62.9273 28 62.2805 27.6256 61.9396 26.8864L62.58 26.5107C62.8008 27.0594 63.223 27.3654 63.8576 27.3654C64.4063 27.3654 64.9305 27.0691 65.0047 26.4629C65.1687 25.1292 62.2966 25.7631 62.5309 23.8606C62.642 22.9504 63.4599 22.3933 64.3327 22.3933C65.0725 22.3933 65.649 22.6999 65.986 23.3151L65.4082 23.7264ZM76.6191 23.7264C76.3757 23.2848 76.0529 23.0266 75.4958 23.0266C75.0052 23.0266 74.5139 23.2764 74.4493 23.8148C74.2892 25.1098 77.1529 24.5437 76.9347 26.328C76.8063 27.3654 75.9903 28 74.9916 28C74.1369 28 73.4913 27.6256 73.1505 26.8864L73.7909 26.5107C74.0116 27.0594 74.4364 27.3654 75.0691 27.3654C75.6165 27.3654 76.1433 27.0691 76.2149 26.4629C76.3802 25.1292 73.5094 25.7631 73.7411 23.8606C73.8535 22.9504 74.6701 22.3933 75.5429 22.3933C76.2827 22.3933 76.8605 22.6999 77.1968 23.3151L76.6191 23.7264ZM79.8753 25.1957C80.1187 23.2099 81.16 22.3926 82.34 22.3926C83.5201 22.3926 84.3613 23.2099 84.1192 25.1957C83.8745 27.1827 82.8345 28 81.6532 28C80.4718 28 79.6313 27.1827 79.8753 25.1957ZM83.3697 25.1957C83.4808 24.2932 83.4149 23.0272 82.2639 23.0272C81.1115 23.0272 80.7345 24.2932 80.6248 25.1957C80.5137 26.0995 80.5796 27.3654 81.7306 27.3654C82.883 27.3654 83.2587 26.0995 83.3697 25.1957ZM89.3373 23.1809H88.3586L87.7873 27.8464H87.0385L87.6111 23.1809H86.8041L86.8809 22.5469H87.6866L87.8067 21.5876C87.9164 20.6838 88.4826 20.2248 89.3754 20.2248L89.7614 20.2816L89.6833 20.9259C89.5688 20.8825 89.4475 20.8591 89.325 20.8568C88.7589 20.8568 88.6104 21.1467 88.5562 21.5766L88.4374 22.5476H89.4161L89.3373 23.1809ZM93.1093 22.5463H94.3094L94.2326 23.1802H93.0325L92.6252 26.51C92.5606 27.0284 92.509 27.3648 93.1242 27.3648C93.3346 27.3648 93.5393 27.346 93.7271 27.2976L93.6613 27.8451C93.4102 27.9309 93.1519 27.9987 92.8937 27.9987C91.6252 27.9987 91.7982 27.144 91.9163 26.1743L92.283 23.1796H91.4773L91.5542 22.5456H92.3611L92.5716 20.8272H93.3204L93.1093 22.5463ZM100.564 27.8457H99.8238L99.3797 23.6399H99.361L97.8555 27.8457H97.0963L96.3843 22.5463H97.1144L97.6031 26.8574H97.6225L99.1679 22.5463H99.8981L100.34 26.8574H100.358L101.875 22.5463H102.614L100.564 27.8457ZM107.491 27.8457L107.499 27.1737C107.015 27.5959 106.485 27.9994 105.861 27.9994C105.045 27.9994 104.476 27.317 104.578 26.4836C104.766 24.9639 106.398 24.6392 107.609 24.3222L107.856 24.2544L107.891 23.9568C107.967 23.3513 107.595 23.0266 106.999 23.0266C106.414 23.0266 105.962 23.4113 105.6 23.86L105.12 23.4681C105.64 22.8342 106.27 22.3926 107.077 22.3926C107.797 22.3926 108.779 22.8342 108.631 24.0433L108.308 26.6747C108.269 27.0691 108.2 27.4726 108.31 27.8457H107.491ZM107.472 24.9575C106.735 25.1666 105.405 25.4565 105.287 26.4061C105.234 26.8464 105.525 27.2899 105.977 27.2899C106.571 27.2899 107.169 26.8761 107.59 26.4248L107.779 24.8703L107.472 24.9575ZM112.533 23.6889H112.552C112.927 23.055 113.383 22.4708 114.17 22.4708H114.458L114.374 23.1505C113.413 23.0169 112.773 24.0737 112.392 24.8413L112.024 27.8457H111.275L111.924 22.5463H112.673L112.533 23.6889ZM117.487 25.3216C117.301 26.8386 117.879 27.3654 118.647 27.3654C119.204 27.3654 119.73 26.9142 120.056 26.4539L120.55 26.8096C120.18 27.4919 119.406 28 118.492 28C117.313 28 116.471 27.1827 116.716 25.1957C116.959 23.2099 118 22.3926 119.18 22.3926C120.706 22.3926 120.948 24.024 120.683 25.3216H117.487ZM119.974 24.6876C120.077 24.0053 119.832 23.0272 119.045 23.0272C118.2 23.0272 117.686 23.9388 117.585 24.6876H119.974Z" fill="#7A808B"/>
</svg>
