<svg width="112" height="36" viewBox="0 0 112 36" fill="none" xmlns="http://www.w3.org/2000/svg">
<path d="M52.9192 22.2651L51.6818 28.4469C51.1368 30.9529 49.6269 32.6262 46.5428 32.6262C43.0033 32.6262 42.0689 30.4307 42.8459 27.3415C43.9445 22.9591 47.5195 21.654 52.9192 22.2651ZM58.4942 13.4274L54.7304 13.6669L53.5404 19.7201C52.1016 19.6693 51.6488 19.6236 49.957 19.6236C44.6613 19.6236 40.0394 21.8495 38.8181 27.0715C37.7178 31.7798 40.3923 35.4335 46.2245 35.4335C52.199 35.4335 54.7981 32.3164 55.7325 27.934L58.4942 13.4274ZM17.6677 22.5291C12.1494 22.0264 7.40222 22.4843 7.32521 24.3581C7.20587 27.1714 16.4201 24.717 16.2424 29.8924C15.9834 37.4961 3.17045 35.7467 0 34.7793L0.575522 32.5221C6.04213 33.3896 11.8092 33.4615 11.9353 30.4468C12.0707 27.2425 2.81836 30.1226 3.03503 24.9336C3.19668 21.0683 8.97983 18.9838 18.4455 20.3743L17.6677 22.5291ZM32.5466 27.7012C31.7502 30.875 29.2331 32.8682 26.2362 32.8682C23.1021 32.8682 21.6921 31.0519 22.5325 27.7012C23.3298 24.5274 25.8756 22.3971 28.8717 22.3971C31.8661 22.3971 33.343 24.5274 32.5466 27.7012ZM29.355 19.7988C23.8672 19.7988 19.456 22.9726 18.371 27.7012C17.2834 32.4323 20.2389 35.6062 25.7241 35.6062C31.2094 35.6062 35.6223 32.4323 36.7073 27.7012C37.7948 22.9735 34.8411 19.7988 29.355 19.7988ZM92.7597 35.5258H87.9896C85.0968 32.8064 79.5633 26.5569 75.489 19.9435H78.9895C82.8582 25.2823 92.7597 35.5258 92.7597 35.5258ZM97.7583 4.5754L99.9537 0L100.58 4.65157L105.055 3.08581L101.927 7.09584L105.32 9.72378L100.792 10.0733L100.543 14.9111L98.0257 11.3361L94.3272 14.7469L95.7135 9.94044L91.3505 9.34884L95.5967 6.92996L93.8549 2.78959L97.7583 4.5754ZM107.061 27.7495C106.251 30.9732 103.695 32.9977 100.652 32.9977C97.4697 32.9977 96.0351 31.1526 96.8899 27.7495C97.699 24.5257 100.285 22.3616 103.327 22.3616C106.372 22.3616 107.871 24.5257 107.061 27.7495ZM103.819 19.7192C98.2458 19.7192 93.766 22.9455 92.6615 27.7495C91.5579 32.5542 94.5591 35.7788 100.131 35.7788C105.705 35.7788 110.186 32.5542 111.288 27.7495C112.393 22.9455 109.393 19.7192 103.819 19.7192Z" fill="#7A808B"/>
<path d="M71.8728 34.1946C80.8823 29.1901 88.7085 21.5001 94.2589 14.852C90.2683 27.3425 80.6622 34.0643 71.8728 34.1946Z" fill="#1F3044" fill-opacity="0.72"/>
<path d="M68.3083 22.113C70.034 22.113 70.9735 22.7393 70.9735 23.9361C70.9735 27.1124 64.7816 26.9025 62.0504 26.3465C63.011 23.9682 65.1802 22.113 68.3083 22.113ZM74.6848 23.7634C74.6848 21.4596 72.849 19.7669 68.6841 19.7669C61.9285 19.7669 57.5393 24.1519 57.5393 29.5804C57.5393 33.086 60.4499 36 65.7659 36C69.4289 36 71.8749 34.1947 71.8749 34.1947C67.2131 34.6941 61.4884 34.1947 61.4884 29.208C61.4884 29.01 61.4994 28.8119 61.5155 28.6147C67.8758 29.935 74.6848 28.3379 74.6848 23.7634Z" fill="#7A808B"/>
</svg>
