<svg width="140" height="32" viewBox="0 0 140 32" fill="none" xmlns="http://www.w3.org/2000/svg">
<path d="M88.7321 20.0203C86.301 20.0203 84.3227 18.0415 84.3227 15.611C84.3227 13.1799 86.301 11.2017 88.7321 11.2017C91.1631 11.2017 93.1409 13.1799 93.1409 15.611C93.1409 18.0658 91.1388 20.0203 88.7321 20.0203ZM88.7321 8.57961C84.8473 8.57961 81.7012 11.7262 81.7012 15.611C81.7012 19.4958 84.8473 22.6418 88.7321 22.6418C92.6169 22.6418 95.7629 19.4958 95.7629 15.611C95.7629 11.7499 92.6169 8.57961 88.7321 8.57961ZM80.1282 20.3776H80.7002V23.0228H80.1282C77.1014 23.0228 74.6223 20.5443 74.6223 17.5175V5.43356H77.2681V8.96112H80.6759V11.6069H77.2681V17.5413C77.2681 19.0905 78.5552 20.3776 80.1282 20.3776ZM112.351 20.0203C109.92 20.0203 107.942 18.0415 107.942 15.611C107.942 13.1799 109.92 11.2017 112.351 11.2017C114.782 11.2017 116.76 13.1799 116.76 15.611C116.736 18.0658 114.758 20.0203 112.351 20.0203ZM112.351 8.57961C108.466 8.57961 105.32 11.7262 105.32 15.611C105.32 19.4958 108.466 22.6418 112.351 22.6418C116.235 22.6418 119.381 19.4958 119.381 15.611C119.381 11.7499 116.235 8.57961 112.351 8.57961ZM132.586 20.0203C130.154 20.0203 128.176 18.0415 128.176 15.611C128.176 13.1799 130.154 11.2017 132.585 11.2017C135.016 11.2017 136.995 13.1799 136.995 15.611C136.995 18.0658 134.992 20.0198 132.585 20.0198M132.585 8.57961C128.7 8.57961 125.554 11.7262 125.554 15.611C125.554 19.4958 128.7 22.6418 132.585 22.6418C134.301 22.6418 135.874 22.0218 137.09 20.9971V22.3796H139.616V15.8252V15.6105C139.616 11.7494 136.47 8.57961 132.585 8.57961ZM103.032 8.58013H104.295V11.2254H103.032C101.459 11.2254 100.172 12.513 100.172 14.0855V22.4751H97.5264V14.0855C97.5264 11.0587 100.005 8.58013 103.032 8.58013ZM121.146 5.07631H123.791V22.4271H121.146V5.07631ZM57.0336 14.4427V22.8086H54.3878V14.4427C54.3878 12.8697 53.1008 11.5827 51.5277 11.5827C49.9553 11.5827 48.6677 12.8697 48.6677 14.4427V22.8081H46.0224V14.4427C46.0224 12.8697 44.7349 11.5827 43.1624 11.5827C41.5899 11.5827 40.3023 12.8697 40.3023 14.4427V22.8081H37.6571V14.4427C37.6571 11.4154 40.1356 8.93685 43.1386 8.93685C44.8309 8.93685 46.3084 9.6756 47.3332 10.8676C48.358 9.6756 49.8355 8.93685 51.5283 8.93685C54.5545 8.93685 57.0336 11.4154 57.0336 14.4427ZM65.8517 20.3776C63.4207 20.3776 61.4424 18.3993 61.4424 15.9682C61.4424 13.5372 63.4212 11.5589 65.8517 11.5589C68.2827 11.5589 70.261 13.5377 70.261 15.9682C70.261 18.3993 68.259 20.3776 65.8517 20.3776ZM65.8517 8.93737C61.9432 8.93737 58.7966 12.0834 58.7966 15.9682C58.7966 19.853 61.9432 22.9991 65.828 22.9991C69.7128 22.9991 72.8588 19.853 72.8588 15.9682C72.8826 12.1072 69.7365 8.93737 65.8517 8.93737ZM15.992 0C7.15011 0 0 7.15011 0 15.992C0 24.8338 7.15011 31.9845 15.992 31.9845C24.8344 31.9845 31.9845 24.8344 31.9845 15.992C31.9845 7.1976 24.9293 0 15.992 0Z" fill="#7A808B"/>
<path d="M20.7589 3.93359L16.0161 19.6638L15.9918 19.6876L15.9443 19.6638L11.2015 3.93359L5.07617 24.0732H6.22019C6.22019 24.0732 6.98322 20.5693 8.24649 18.4723C8.93776 17.3283 9.98627 16.3985 11.392 16.4223C12.393 16.4465 13.251 16.9943 14.3238 18.4961C14.5618 18.8296 14.8478 19.3778 15.1338 19.9023C15.5871 20.7836 15.9681 21.6896 15.9681 21.6896C15.9681 21.6896 16.9691 19.4016 17.6129 18.4961C18.6851 16.9943 19.5431 16.4465 20.5442 16.4223C21.9504 16.3985 23.0227 17.3283 23.6902 18.4723C24.9535 20.5693 25.7165 24.0732 25.7165 24.0732H26.86L20.7589 3.93359Z" fill="white"/>
</svg>
