<svg width="131" height="28" viewBox="0 0 131 28" fill="none" xmlns="http://www.w3.org/2000/svg">
<path d="M20.9772 12.4797C20.6226 12.8355 20.3511 13.2651 20.1819 13.7375C20.0127 14.2101 19.9501 14.714 19.9985 15.2134L19.9816 15.1966C20.0314 15.7845 19.9519 16.376 19.7487 16.9302C19.5456 17.4842 19.2237 17.9873 18.8055 18.4045C18.3873 18.8217 17.8828 19.1428 17.3273 19.3453C16.7719 19.548 16.1787 19.6273 15.5894 19.5777L15.6062 19.5945C14.9013 19.529 14.1932 19.682 13.5785 20.0327C12.964 20.3833 12.4727 20.9145 12.1719 21.5538C11.8711 22.1931 11.7751 22.9094 11.8973 23.6051C12.0196 24.3007 12.354 24.9418 12.8549 25.4409C13.3558 25.9401 13.9988 26.273 14.6963 26.3943C15.3938 26.5156 16.1118 26.4193 16.7525 26.1186C17.3932 25.8179 17.9252 25.3275 18.2762 24.7142C18.6272 24.1008 18.78 23.3944 18.7137 22.6913L18.7315 22.7081C18.6817 22.1202 18.7612 21.5286 18.9643 20.9745C19.1675 20.4205 19.4895 19.9173 19.9076 19.5001C20.3259 19.083 20.8303 18.7618 21.3858 18.5593C21.9413 18.3567 22.5344 18.2773 23.1238 18.327L23.106 18.3102C23.6818 18.3618 24.2615 18.2676 24.7912 18.0363C25.3208 17.8051 25.7834 17.4441 26.136 16.9871C26.4886 16.53 26.7199 15.9915 26.8082 15.4216C26.8967 14.8516 26.8394 14.2687 26.6418 13.7266C26.4441 13.1846 26.1125 12.7011 25.6777 12.321C25.2429 11.9408 24.7189 11.6763 24.1543 11.552C23.5897 11.4277 23.0027 11.4475 22.4478 11.6096C21.8929 11.7718 21.3881 12.071 20.98 12.4797H20.9772Z" fill="#002101"/>
<path d="M14.0749 17.3936L14.0572 17.3768C14.5581 17.4271 15.0639 17.3658 15.5382 17.1972C16.0124 17.0287 16.4432 16.7571 16.7994 16.4022C17.1554 16.0473 17.4281 15.6177 17.5973 15.1448C17.7667 14.6719 17.8286 14.1674 17.7785 13.6677L17.7963 13.6845C17.7465 13.0966 17.826 12.5051 18.0291 11.951C18.2322 11.3969 18.5542 10.8938 18.9724 10.4766C19.3906 10.0595 19.8951 9.7383 20.4505 9.53576C21.0061 9.3331 21.5991 9.25383 22.1885 9.30346L22.1707 9.28666C22.8758 9.35274 23.584 9.20019 24.199 8.84995C24.814 8.49971 25.3057 7.96876 25.607 7.32955C25.9083 6.69035 26.0046 5.97399 25.8827 5.27818C25.7609 4.58237 25.4268 3.941 24.926 3.44154C24.4253 2.94208 23.7823 2.60885 23.0847 2.48731C22.3872 2.36576 21.669 2.46181 21.0281 2.76236C20.3873 3.0629 19.855 3.55332 19.5039 4.16672C19.1527 4.78011 18.9998 5.48661 19.066 6.18986L19.0492 6.17213C19.0991 6.76002 19.0197 7.3517 18.8167 7.90584C18.6136 8.45998 18.2916 8.96322 17.8735 9.38046C17.4552 9.79756 16.9507 10.1187 16.3951 10.3213C15.8395 10.5238 15.2464 10.6029 14.657 10.5532L14.6738 10.5709C14.1729 10.5206 13.667 10.5819 13.1928 10.7505C12.7185 10.919 12.2877 11.1906 11.9316 11.5455C11.5755 11.9005 11.3029 12.33 11.1335 12.8029C10.9643 13.2758 10.9024 13.7803 10.9525 14.28L10.9356 14.2632C10.9852 14.851 10.9056 15.4426 10.7024 15.9966C10.4992 16.5505 10.1773 17.0537 9.75915 17.4708C9.34094 17.8879 8.83655 18.209 8.28115 18.4117C7.72575 18.6143 7.1327 18.6937 6.54338 18.6443L6.56022 18.6611C5.85518 18.595 5.14687 18.7475 4.53191 19.0978C3.91696 19.448 3.42529 19.9789 3.12398 20.6182C2.82266 21.2574 2.72636 21.9737 2.84821 22.6695C2.97007 23.3653 3.30416 24.0067 3.80489 24.5061C4.30563 25.0057 4.94863 25.3389 5.64622 25.4604C6.3438 25.5819 7.06199 25.4859 7.70283 25.1853C8.34366 24.8848 8.87596 24.3944 9.2271 23.781C9.57827 23.1676 9.73117 22.4611 9.66492 21.7579L9.6827 21.7747C9.63292 21.1868 9.71246 20.5952 9.9156 20.0411C10.1186 19.4871 10.4406 18.9839 10.8588 18.5667C11.2771 18.1496 11.7815 17.8284 12.3369 17.6259C12.8925 17.4233 13.4855 17.3439 14.0749 17.3936Z" fill="#002101"/>
<path d="M7.80433 15.5205C8.15899 15.1647 8.43051 14.7351 8.59954 14.2626C8.76857 13.7901 8.83092 13.2861 8.78216 12.7867L8.79992 12.8035C8.75014 12.2155 8.82964 11.6237 9.03289 11.0695C9.23614 10.5153 9.55824 10.012 9.97669 9.59482C10.3951 9.17764 10.8998 8.85658 11.4555 8.65409C12.0112 8.4516 12.6045 8.37254 13.194 8.42246L13.1763 8.40566C13.8811 8.47152 14.5891 8.31893 15.2038 7.96871C15.8184 7.61849 16.3098 7.08768 16.611 6.44867C16.9121 5.80966 17.0083 5.09356 16.8865 4.39801C16.7646 3.70246 16.4306 3.06133 15.9301 2.56206C15.4296 2.06278 14.7867 1.72965 14.0894 1.60812C13.3921 1.48657 12.6742 1.58253 12.0336 1.8829C11.3929 2.18326 10.8608 2.67342 10.5097 3.28653C10.1585 3.89964 10.0055 4.60585 10.0716 5.30886L10.0547 5.29206C10.1045 5.87992 10.025 6.47153 9.82183 7.02559C9.61868 7.57966 9.29682 8.08283 8.87859 8.49999C8.46037 8.91715 7.95591 9.23825 7.40043 9.44082C6.84496 9.64344 6.25184 9.72278 5.66248 9.67312L5.67933 9.68992C5.10346 9.6384 4.52387 9.73276 3.99427 9.96414C3.46468 10.1955 3.0022 10.5565 2.64971 11.0137C2.29722 11.4707 2.06611 12.0093 1.9778 12.5792C1.8895 13.1491 1.94685 13.7321 2.14454 14.274C2.34222 14.816 2.67387 15.2993 3.10872 15.6794C3.54358 16.0595 4.06758 16.324 4.63217 16.4483C5.19675 16.5725 5.78366 16.5526 6.33851 16.3905C6.89335 16.2283 7.39817 15.9291 7.8062 15.5205H7.80433Z" fill="#002101"/>
<path d="M36.7891 6.2113H39.5681V19.7008H36.7891V6.2113Z" fill="#454B45"/>
<path d="M41.1427 15.0817C41.1389 14.1123 41.4235 13.1635 41.9606 12.3556C42.4977 11.5477 43.2631 10.917 44.1599 10.5434C45.0567 10.1697 46.0444 10.0699 46.9981 10.2567C47.9518 10.4434 48.8285 10.9082 49.5171 11.5923C50.2057 12.2764 50.6752 13.149 50.8663 14.0995C51.0574 15.05 50.9613 16.0357 50.5902 16.9317C50.2192 17.8276 49.59 18.5937 48.7822 19.1326C47.9743 19.6716 47.0243 19.9593 46.0524 19.9593C45.4073 19.9667 44.7672 19.8456 44.1695 19.6033C43.5717 19.361 43.0285 19.0024 42.5714 18.5483C42.1142 18.0941 41.7524 17.5536 41.5072 16.9585C41.2618 16.3633 41.1379 15.7252 41.1427 15.0817ZM48.183 15.0817C48.1714 14.6639 48.0366 14.2587 47.7955 13.9168C47.5542 13.575 47.2174 13.3116 46.827 13.1598C46.4365 13.0078 46.0099 12.9741 45.6004 13.0627C45.1908 13.1514 44.8165 13.3584 44.5243 13.6581C44.2322 13.9577 44.0349 14.3366 43.9575 14.7475C43.88 15.1582 43.9256 15.5827 44.0887 15.9678C44.2518 16.3529 44.525 16.6814 44.8742 16.9124C45.2235 17.1434 45.6334 17.2666 46.0524 17.2666C46.3394 17.2743 46.6249 17.2225 46.8909 17.1146C47.1568 17.0067 47.3975 16.8451 47.5976 16.6398C47.7978 16.4345 47.9532 16.19 48.0539 15.9219C48.1547 15.6537 48.1987 15.3677 48.183 15.0817Z" fill="#454B45"/>
<path d="M62.0378 10.4617V19.2351C62.0378 22.3393 59.6106 23.6516 57.1469 23.6516C56.2795 23.7164 55.4108 23.5416 54.6363 23.1465C53.8619 22.7513 53.2115 22.1511 52.7565 21.4116L55.1276 20.0443C55.3188 20.4297 55.6236 20.7477 56.001 20.9558C56.3784 21.1637 56.8106 21.2518 57.2395 21.2081C57.5137 21.246 57.7929 21.2219 58.0565 21.1377C58.32 21.0534 58.5612 20.9111 58.7622 20.7213C58.9632 20.5315 59.1188 20.2991 59.2176 20.0411C59.3163 19.7832 59.3556 19.5065 59.3327 19.2313V18.3867C59.0072 18.7838 58.5931 19.0994 58.1233 19.308C57.6535 19.5166 57.1412 19.6124 56.6275 19.5879C55.4053 19.5494 54.246 19.0381 53.3951 18.1621C52.5442 17.2862 52.0684 16.1143 52.0684 14.8946C52.0684 13.6749 52.5442 12.503 53.3951 11.6271C54.246 10.7511 55.4053 10.2398 56.6275 10.2013C57.1412 10.1768 57.6535 10.2726 58.1233 10.4812C58.5931 10.6898 59.0072 11.0054 59.3327 11.4025V10.4599L62.0378 10.4617ZM59.3336 14.896C59.3523 14.4493 59.2365 14.0072 59.0012 13.6267C58.7658 13.2461 58.4217 12.9445 58.013 12.7607C57.6044 12.5769 57.15 12.5193 56.7083 12.5952C56.2665 12.6712 55.8577 12.8773 55.5343 13.1871C55.2111 13.4967 54.9881 13.8958 54.894 14.333C54.8001 14.7702 54.8394 15.2255 55.0071 15.6401C55.1747 16.0548 55.4629 16.4101 55.8345 16.66C56.2062 16.9099 56.6444 17.0432 57.0926 17.0427C57.3846 17.063 57.6776 17.0221 57.9528 16.9226C58.228 16.8231 58.4792 16.6672 58.6903 16.465C58.9014 16.2628 59.0678 16.0187 59.1786 15.7484C59.2894 15.4782 59.3422 15.1879 59.3336 14.896Z" fill="#454B45"/>
<path d="M63.6115 15.0817C63.6076 14.1123 63.8922 13.1635 64.4294 12.3556C64.9665 11.5477 65.7319 10.917 66.6287 10.5434C67.5255 10.1697 68.5132 10.0699 69.4669 10.2567C70.4206 10.4434 71.2972 10.9082 71.9858 11.5923C72.6744 12.2764 73.144 13.149 73.335 14.0995C73.5261 15.05 73.43 16.0357 73.059 16.9317C72.688 17.8276 72.0587 18.5937 71.2509 19.1326C70.443 19.6716 69.4931 19.9593 68.5211 19.9593C67.8761 19.9667 67.2359 19.8456 66.6382 19.6033C66.0405 19.361 65.4972 19.0024 65.0401 18.5483C64.5829 18.0941 64.2212 17.5536 63.9759 16.9585C63.7306 16.3633 63.6067 15.7252 63.6115 15.0817ZM70.6518 15.0817C70.6402 14.6639 70.5053 14.2587 70.2642 13.9168C70.023 13.575 69.6861 13.3116 69.2957 13.1598C68.9053 13.0078 68.4786 12.9741 68.0691 13.0627C67.6595 13.1514 67.2853 13.3584 66.993 13.6581C66.7009 13.9577 66.5037 14.3366 66.4262 14.7475C66.3487 15.1582 66.3944 15.5827 66.5575 15.9678C66.7206 16.3529 66.9938 16.6814 67.343 16.9124C67.6923 17.1434 68.102 17.2666 68.5211 17.2666C68.8081 17.2743 69.0936 17.2225 69.3596 17.1146C69.6256 17.0067 69.8662 16.8451 70.0664 16.6398C70.2665 16.4345 70.422 16.19 70.5226 15.9219C70.6234 15.6537 70.6674 15.3677 70.6518 15.0817Z" fill="#454B45"/>
<path d="M74.7266 7.98559C74.7266 7.65664 74.8243 7.33507 75.0076 7.06157C75.1908 6.78806 75.4513 6.57487 75.7559 6.449C76.0606 6.32311 76.3959 6.29017 76.7194 6.35435C77.0427 6.41852 77.3399 6.57693 77.5731 6.80953C77.8063 7.04213 77.9651 7.33848 78.0294 7.66112C78.0937 7.98374 78.0607 8.31815 77.9346 8.62207C77.8083 8.92598 77.5946 9.18573 77.3204 9.36851C77.0462 9.55126 76.7238 9.64879 76.394 9.64879C75.9532 9.6444 75.5316 9.46782 75.2198 9.15681C74.9081 8.84584 74.731 8.42534 74.7266 7.98559ZM75.0073 10.4617H77.7873V19.7017H75.0035L75.0073 10.4617Z" fill="#454B45"/>
<path d="M89.7866 15.0817C89.8187 15.6924 89.7295 16.3033 89.524 16.8795C89.3187 17.4556 89.0011 17.9856 88.5895 18.4389C88.1781 18.8921 87.6808 19.2598 87.1264 19.5208C86.5719 19.7817 85.9712 19.9307 85.3588 19.9593C84.8438 19.9873 84.3291 19.9007 83.8517 19.7057C83.3744 19.5106 82.9467 19.2121 82.5994 18.8318V23.3967H79.8203V10.4617H82.5994V11.3297C82.9468 10.9496 83.3747 10.6513 83.8519 10.4565C84.3292 10.2617 84.8439 10.1751 85.3588 10.2031C85.9713 10.2316 86.5721 10.3806 87.1267 10.6415C87.6813 10.9025 88.1787 11.2702 88.5902 11.7236C89.0017 12.1771 89.3193 12.7072 89.5246 13.2835C89.7299 13.8598 89.819 14.4709 89.7866 15.0817ZM87.0075 15.0817C86.9967 14.6493 86.8582 14.2296 86.6094 13.8752C86.3606 13.521 86.0126 13.2477 85.6089 13.0898C85.2052 12.9317 84.7637 12.896 84.3397 12.9871C83.9158 13.0781 83.5282 13.2918 83.2254 13.6015C82.9226 13.9113 82.7181 14.3031 82.6376 14.7282C82.557 15.1533 82.6039 15.5925 82.7724 15.9911C82.9408 16.3897 83.2235 16.7298 83.5849 16.9691C83.9463 17.2082 84.3702 17.3358 84.8039 17.3357C85.1017 17.3489 85.3989 17.2992 85.676 17.1898C85.9531 17.0805 86.2039 16.9139 86.412 16.7011C86.6201 16.4882 86.7806 16.234 86.8833 15.9549C86.9859 15.6758 87.0283 15.3782 87.0075 15.0817Z" fill="#454B45"/>
<path d="M98.363 16.9288C98.363 19.054 96.5112 19.9593 94.5107 19.9593C93.7022 20.0323 92.8907 19.8619 92.1806 19.4698C91.4705 19.0778 90.8946 18.4823 90.5273 17.7604L92.9349 16.3931C93.0323 16.7267 93.2416 17.0171 93.5276 17.2154C93.8136 17.4138 94.1598 17.5084 94.5069 17.4832C95.1732 17.4832 95.5072 17.2797 95.5072 16.9111C95.5072 15.8937 90.9493 16.4304 90.9493 13.2337C90.9493 11.2187 92.6542 10.2032 94.5809 10.2032C95.3051 10.1803 96.0219 10.3517 96.6572 10.6994C97.2926 11.0471 97.8231 11.5584 98.1927 12.18L95.8216 13.4549C95.7177 13.2129 95.5446 13.0067 95.3238 12.8622C95.103 12.7176 94.8447 12.6411 94.5809 12.642C94.099 12.642 93.8023 12.8287 93.8023 13.1591C93.8061 14.2128 98.363 13.51 98.363 16.9288Z" fill="#454B45"/>
<path d="M108.514 10.4618V19.7018H105.735V18.8329C105.414 19.2163 105.007 19.5184 104.547 19.7144C104.086 19.9104 103.587 19.9947 103.087 19.9603C101.216 19.9603 99.625 18.6303 99.625 16.1337V10.4618H102.404V15.7277C102.381 15.9477 102.406 16.1702 102.478 16.3796C102.549 16.589 102.666 16.7804 102.82 16.9402C102.973 17.1001 103.159 17.2247 103.366 17.3055C103.572 17.3862 103.794 17.4211 104.015 17.4077C105.034 17.4077 105.738 16.8169 105.738 15.5046V10.4646L108.514 10.4618Z" fill="#454B45"/>
<path d="M124.449 14.028V19.7008H121.67V14.2679C121.67 13.3439 121.226 12.7531 120.337 12.7531C119.41 12.7531 118.891 13.3999 118.891 14.49V19.7008H116.113V14.2679C116.113 13.3439 115.668 12.7531 114.779 12.7531C113.852 12.7531 113.334 13.3999 113.334 14.49V19.7008H110.555V10.4608H113.334V11.3102C113.622 10.9334 114 10.6345 114.433 10.441C114.867 10.2475 115.343 10.1654 115.816 10.2023C116.292 10.1791 116.765 10.2792 117.191 10.4928C117.616 10.7064 117.978 11.0263 118.243 11.4212C118.55 11.008 118.958 10.6795 119.428 10.4663C119.898 10.2532 120.414 10.1624 120.929 10.2023C123.056 10.2032 124.449 11.718 124.449 14.028Z" fill="#454B45"/>
<path d="M126.801 10.4048C127.939 10.4048 128.863 9.48378 128.863 8.34773C128.863 7.21164 127.939 6.29066 126.801 6.29066C125.662 6.29066 124.738 7.21164 124.738 8.34773C124.738 9.48378 125.662 10.4048 126.801 10.4048Z" fill="#454B45"/>
</svg>
