<svg width="155" height="28" viewBox="0 0 155 28" fill="none" xmlns="http://www.w3.org/2000/svg">
<g clip-path="url(#clip0_462_1087)">
<path fill-rule="evenodd" clip-rule="evenodd" d="M26.8962 0.656133C27.8012 -0.211816 29.2278 -0.215762 30.1375 0.627079L30.2237 0.710822L30.5179 1.02015C33.4978 4.23423 34.6082 7.97979 34.3234 11.6378C34.0344 15.3474 32.3273 18.8455 29.9457 21.6099C27.5655 24.3725 24.3878 26.5481 20.9529 27.4924C17.4748 28.4484 13.6708 28.1436 10.3687 25.8062C7.56807 23.8235 6.50178 20.6193 6.42934 17.5066C4.85774 16.7336 3.2041 15.773 1.46904 14.6047L1.01059 14.2925L0.912922 14.2218C-0.0721191 13.4672 -0.297348 12.0706 0.420569 11.0453C1.1387 10.02 2.53703 9.7419 3.59415 10.3936L3.69584 10.4597L4.1135 10.7445C5.15289 11.4444 6.14466 12.0511 7.08771 12.5749C7.69607 10.4341 8.70413 8.37872 10.0321 6.68444C12.0216 4.14625 15.0046 2.11643 18.6589 2.41928C21.9505 2.69226 24.3826 4.39489 25.638 6.79781C26.8535 9.12457 26.8715 11.9235 25.8092 14.3306C24.7261 16.7845 22.5273 18.829 19.3643 19.6713C17.0881 20.2775 14.4215 20.2359 11.4126 19.4241V19.4252C10.2149 19.102 8.9597 18.6555 7.64788 18.0757C7.35359 17.9456 7.09746 18.1444 7.64788 18.4892C9.19697 19.5917 11.3792 20.5159 12.0107 20.8261C12.3091 21.3102 12.6792 21.7073 13.1034 22.0076C15.0555 23.3895 17.3391 23.6426 19.6959 22.9948C22.0958 22.335 24.5013 20.7442 26.367 18.5787C28.2313 16.4148 29.4333 13.8221 29.6314 11.2783C29.8183 8.8781 29.1275 6.41232 27.0467 4.1716L26.841 3.95569L26.7589 3.86682C25.9401 2.93728 25.9916 1.52402 26.8962 0.656133ZM18.2671 7.07014C16.7573 6.94499 15.1638 7.74193 13.748 9.54821C12.6697 10.9239 11.8539 12.7113 11.4379 14.5506C14.401 15.5663 16.6092 15.5732 18.1436 15.1647C19.9198 14.6916 20.9849 13.6206 21.4975 12.4592C22.0308 11.2508 21.9761 9.93412 21.459 8.94432C20.9817 8.03075 20.0209 7.2156 18.2671 7.07014Z" fill="#002101"/>
<path d="M96.5828 9.52185C95.2719 9.52185 94.4303 8.53491 94.6127 7.21093C94.795 5.88698 95.9088 4.90002 97.2203 4.90002C98.5311 4.90002 99.3728 5.88698 99.1904 7.21093C99.0081 8.53491 97.8943 9.52185 96.5828 9.52185Z" fill="#454B45"/>
<path d="M93.0078 22.4967L94.6469 10.6051H98.2231L96.584 22.4967H93.0078Z" fill="#454B45"/>
<path fill-rule="evenodd" clip-rule="evenodd" d="M99.2928 16.6715L97.7891 27.5761H101.365L102.245 21.197C102.838 22.2561 103.954 22.8098 105.36 22.8098C108.031 22.8098 111.355 20.8359 111.925 16.6955C112.453 12.868 110.186 10.2924 106.442 10.2924C102.842 10.2924 99.8433 12.6754 99.2928 16.6715ZM108.321 16.5511C108.086 18.2602 106.826 19.4397 105.205 19.4397C103.584 19.4397 102.649 18.2602 102.885 16.5511C103.121 14.8419 104.38 13.6624 106.001 13.6624C107.623 13.6624 108.557 14.8419 108.321 16.5511Z" fill="#454B45"/>
<path d="M116.689 22.8098C113.661 22.8098 111.932 21.1729 112.199 18.886H115.727C115.665 19.5119 116.075 19.8249 117.052 19.8249C118.149 19.8249 118.56 19.4397 118.63 18.9342C118.732 18.1926 117.999 18.0803 117.028 17.9317L117.024 17.931C116.956 17.9206 116.887 17.91 116.817 17.8991C115.229 17.6584 112.616 17.2492 113.01 14.3846C113.342 11.9774 115.458 10.2924 118.39 10.2924C121.323 10.2924 122.9 12.0015 122.676 14.1438H119.195C119.175 13.5902 118.742 13.2773 118.026 13.2773C117.145 13.2773 116.724 13.7346 116.657 14.2161C116.563 14.9055 117.329 15.0245 118.332 15.1805L118.477 15.203C120.136 15.4437 122.672 15.9011 122.284 18.7176C121.945 21.1729 119.717 22.8098 116.689 22.8098Z" fill="#454B45"/>
<path d="M136.889 15.8049L135.967 22.4969H139.543L140.465 15.8049C140.685 14.2161 141.524 13.6624 142.597 13.6624C143.646 13.6624 144.333 14.2161 144.113 15.8049L143.191 22.4969H146.767L147.689 15.8049C147.909 14.2161 148.748 13.6624 149.797 13.6624C150.87 13.6624 151.557 14.2161 151.338 15.8049L150.415 22.4969H153.991L154.914 15.8049C155.441 11.9774 153.48 10.2924 150.619 10.2924C148.926 10.2924 147.454 10.9423 146.399 12.194C145.69 10.9423 144.373 10.2924 142.703 10.2924C139.842 10.2924 137.417 11.9774 136.889 15.8049Z" fill="#454B45"/>
<path d="M123.605 16.7675C123.051 20.7876 125.109 22.8096 128.59 22.8096C132.071 22.8096 134.689 20.7635 135.24 16.7675L136.089 10.6051H132.513L131.664 16.7675C131.405 18.6451 130.389 19.4395 129.054 19.4395C127.719 19.4395 126.923 18.6451 127.181 16.7675L128.031 10.6051H124.455L123.605 16.7675Z" fill="#454B45"/>
<path fill-rule="evenodd" clip-rule="evenodd" d="M79.7226 16.551C79.2253 20.1618 81.483 22.8098 85.2023 22.8098C88.9216 22.8098 91.9087 20.1618 92.4066 16.551C92.9046 12.9402 90.6469 10.2923 86.9276 10.2923C83.2083 10.2923 80.2206 12.9402 79.7226 16.551ZM88.7827 16.551C88.5471 18.2601 87.2874 19.4396 85.6666 19.4396C84.0451 19.4396 83.1109 18.2601 83.3465 16.551C83.5822 14.8419 84.8418 13.6624 86.4626 13.6624C88.0842 13.6624 89.0184 14.8419 88.7827 16.551Z" fill="#454B45"/>
<path fill-rule="evenodd" clip-rule="evenodd" d="M68.3357 21.6917C66.8911 20.587 66.1746 18.7471 66.4773 16.551C66.975 12.9402 69.9626 10.2923 73.6816 10.2923C77.4009 10.2923 79.6586 12.9402 79.1613 16.551C78.6802 20.0388 75.8762 22.6282 72.3343 22.8006C73.1682 23.2794 74.3802 23.6666 75.2709 23.9511C75.5683 24.0462 75.8299 24.1298 76.0298 24.2016C76.8384 24.4057 77.3546 25.1665 77.2298 26.0739C77.0832 27.1377 76.1104 28 75.0563 28H69.3334C67.2262 28 65.7557 26.2753 66.049 24.1477H72.152C70.7577 23.6032 69.2839 22.514 68.3357 21.6917ZM72.4213 19.4396C74.0421 19.4396 75.3018 18.2601 75.5374 16.551C75.7731 14.8419 74.8389 13.6624 73.2173 13.6624C71.5965 13.6624 70.3368 14.8419 70.1013 16.551C69.8657 18.2601 70.7997 19.4396 72.4213 19.4396Z" fill="#454B45"/>
<path fill-rule="evenodd" clip-rule="evenodd" d="M53.2325 16.551C52.7347 20.1618 54.9923 22.8098 58.7116 22.8098C62.431 22.8098 65.4186 20.1618 65.9163 16.551C66.414 12.9402 64.1564 10.2923 60.4371 10.2923C56.7178 10.2923 53.7302 12.9402 53.2325 16.551ZM62.2923 16.551C62.0568 18.2601 60.7975 19.4396 59.1762 19.4396C57.5549 19.4396 56.6208 18.2601 56.8564 16.551C57.092 14.8419 58.3513 13.6624 59.9725 13.6624C61.5938 13.6624 62.5279 14.8419 62.2923 16.551Z" fill="#454B45"/>
<path d="M40.6797 22.4967L42.8498 6.75354H46.7121L45.0397 18.8859H52.4069L51.9091 22.4967H40.6797Z" fill="#454B45"/>
</g>
<defs>
<clipPath id="clip0_462_1087">
<rect width="155" height="28" fill="white"/>
</clipPath>
</defs>
</svg>
