<svg width="125" height="28" viewBox="0 0 125 28" fill="none" xmlns="http://www.w3.org/2000/svg">
<g clip-path="url(#clip0_462_1253)">
<path d="M36.0654 14.5614C36.0902 14.0831 36.0902 13.6038 36.0654 13.1255H8.80316C8.79741 13.2447 8.79238 13.3646 8.78951 13.4845H3.0783L3.07543 13.664H0V14.023H3.07471L3.07902 14.2025H8.78951C8.79238 14.3231 8.79669 14.4423 8.80388 14.5614H16.6307C16.601 14.3233 16.5862 14.0835 16.5862 13.8435H28.0805C28.0805 14.0869 28.0661 14.3267 28.0359 14.5614H36.0654ZM36.0086 12.4076H27.9001C27.8371 12.1633 27.7579 11.9235 27.6631 11.6896H17.0057C16.9116 11.9223 16.8319 12.1613 16.7687 12.4076H8.85919C8.87212 12.2877 8.88649 12.1678 8.9023 12.0486H3.19109L3.21552 11.8734H0V11.5145H3.27227L3.30532 11.3307H9.01652C9.03807 11.2108 9.0625 11.0909 9.08836 10.9717H35.7809C35.8815 11.4419 35.9583 11.9208 36.0086 12.4076ZM35.6063 10.2537H26.8204C26.6132 9.99527 26.3841 9.75507 26.1358 9.53579H18.5323C18.2845 9.75549 18.0546 9.99528 17.8477 10.2537H9.26293C9.29526 10.1338 9.32974 10.0139 9.36566 9.89477H3.65445L3.71767 9.69303H0V9.33333H3.83764L3.89368 9.1761H9.60488C9.64799 9.05549 9.69396 8.93631 9.74138 8.81713H35.1272C35.3125 9.28379 35.4727 9.7641 35.6063 10.2537ZM34.8182 8.0999H10.0503C10.1063 7.97928 10.1638 7.8601 10.2234 7.74092H4.51293L4.61422 7.54277H0V7.18379H4.80891L4.90014 7.02297H10.6113C10.681 6.90236 10.7529 6.78246 10.8261 6.664H34.0424C34.3283 7.12492 34.5884 7.60451 34.8182 8.0999ZM8.85919 15.2794H36.0093C35.9583 15.7662 35.8815 16.2457 35.7809 16.7153H27.3125C27.4454 16.4855 27.5632 16.2457 27.6638 15.9973H17.0043C17.1049 16.2457 17.222 16.4855 17.3549 16.7153H9.08764C9.06207 16.596 9.03813 16.4763 9.0158 16.3563H3.30532C3.29361 16.2932 3.28236 16.23 3.27155 16.1668H0V15.8078H3.2148C3.20655 15.7514 3.19865 15.6949 3.19109 15.6384H8.9023C8.88635 15.5189 8.87198 15.3992 8.85919 15.2794ZM9.26221 17.4332H35.6056C35.4727 17.9236 35.3125 18.4025 35.1272 18.8691H25.1185C25.4825 18.6672 25.8236 18.4265 26.1358 18.1512H18.5323C18.8445 18.4265 19.1856 18.6672 19.5496 18.8691H9.74138C9.69422 18.7501 9.64872 18.6304 9.60488 18.5102H3.89368L3.8319 18.3371H0V17.9782H3.71264C3.69305 17.9163 3.67389 17.8543 3.65517 17.7922H9.36566C9.32974 17.673 9.29526 17.5538 9.26221 17.4332ZM10.0503 19.5871H34.8182C34.5886 20.0808 34.3295 20.5603 34.0424 21.023H10.8261C10.7525 20.9044 10.6806 20.7848 10.6106 20.664H4.90014C4.86422 20.6023 4.82902 20.5405 4.79454 20.4781H0V20.1191H4.60129L4.51293 19.9468H10.2241C10.1644 19.828 10.1065 19.7083 10.0503 19.5878V19.5871ZM12.1552 22.8178C12.2608 22.9399 12.3693 23.0591 12.4799 23.1768H32.3886C32.8126 22.7253 33.2055 22.2455 33.5647 21.7409H11.3039C11.3901 21.8623 11.4777 21.9822 11.5682 22.0999H5.85704L5.99928 22.283H0V22.6419H6.2931C6.34267 22.7015 6.39296 22.7597 6.44396 22.8178H12.1552ZM14.5381 24.9717C14.7126 25.0959 14.8901 25.2158 15.0697 25.3307H29.7988C30.46 24.9063 31.0835 24.4259 31.6624 23.8948H13.2069C13.3398 24.0168 13.4756 24.1367 13.6135 24.2537H7.9023C7.97988 24.3198 8.05819 24.3844 8.13721 24.4476H0V24.8066H8.60057C8.67529 24.8626 8.75144 24.9178 8.82759 24.9717H14.5388H14.5381ZM19.579 27.1858C20.5 27.3818 21.4547 27.4845 22.4339 27.4845C24.6279 27.4845 26.7004 26.9676 28.5366 26.0486H16.3312C16.5869 26.1764 16.8463 26.2963 17.1099 26.4076H11.3987C11.5007 26.4507 11.6034 26.493 11.7062 26.5339H0V26.8929H12.7335C13.9957 27.2777 15.3355 27.4845 16.7234 27.4845C17.7026 27.4845 18.658 27.3818 19.579 27.1858ZM11.3039 5.94605H33.5647C33.2056 5.44142 32.8127 4.96169 32.3886 4.51015H12.4799C12.3693 4.6279 12.2608 4.74708 12.1545 4.86913H6.44396L6.31753 5.01703H0V5.376H6.02155C5.96623 5.44564 5.91164 5.516 5.85776 5.58708H11.5682C11.4777 5.70554 11.3901 5.82544 11.3039 5.94605ZM13.2062 3.7922H31.6616C31.083 3.2611 30.4598 2.7807 29.7988 2.35631H15.0697C14.8901 2.4719 14.7126 2.59179 14.5381 2.71528H8.82759C8.74856 2.772 8.66954 2.82872 8.59195 2.88687H0V3.24585H8.12931C8.05316 3.30759 7.97773 3.37005 7.90302 3.43323H13.6135C13.4756 3.55026 13.3398 3.67015 13.2062 3.7922ZM16.3319 1.63836H28.5374C26.6429 0.690979 24.553 0.199267 22.4346 0.202462C21.4547 0.202462 20.5 0.305846 19.579 0.501846C18.6403 0.3024 17.6831 0.202055 16.7234 0.202462C15.1904 0.202462 13.717 0.455179 12.3412 0.92041H0V1.27938H17.1099C16.8469 1.39083 16.5874 1.51055 16.3319 1.63836ZM79.9195 0C80.3915 0 80.7622 0.117744 81.0316 0.353231C81.3125 0.577949 81.4526 0.891692 81.4526 1.29662C81.4526 1.70082 81.3125 2.02031 81.0316 2.25579C80.7622 2.48051 80.3915 2.59323 79.9195 2.59323C79.4483 2.59323 79.0718 2.48051 78.7909 2.25579C78.5215 2.02031 78.3865 1.70082 78.3865 1.29662C78.3865 0.89241 78.5215 0.578667 78.7909 0.353231C79.0718 0.117744 79.4483 0 79.9195 0ZM81.2335 4.15836V11.4822C81.2335 11.9538 81.3125 12.2741 81.4698 12.4421C81.6379 12.6108 81.9188 12.6948 82.3118 12.6948V13.048C81.9975 13.0326 81.6831 13.0214 81.3685 13.0143C80.9364 12.9917 80.5038 12.9804 80.0711 12.9805C79.6336 12.9805 79.1896 12.992 78.7407 13.0143C78.4036 13.0217 78.0667 13.0329 77.7299 13.048V12.6948C78.1228 12.6948 78.398 12.6108 78.5553 12.4421C78.7234 12.2741 78.8082 11.9538 78.8082 11.4822V6.17867C78.8082 5.67395 78.7292 5.30277 78.5718 5.068C78.426 4.82103 78.1451 4.69754 77.7299 4.69754V4.34359C78.0891 4.37733 78.4375 4.39385 78.7744 4.39385C79.2457 4.39385 79.6839 4.37733 80.0883 4.34359C80.5036 4.29908 80.8858 4.23733 81.2335 4.15836Z" fill="#002101"/>
<path fill-rule="evenodd" clip-rule="evenodd" d="M85.975 5.70339V4.15836C85.6273 4.23733 85.2451 4.29908 84.8299 4.34359C84.4139 4.37733 83.9757 4.39385 83.5152 4.39385C83.1783 4.39385 82.8306 4.37733 82.4707 4.34359V4.69754C82.8752 4.69754 83.156 4.82103 83.3134 5.068C83.4707 5.30349 83.549 5.67395 83.549 6.17867V14.5973C83.549 15.0461 83.4707 15.349 83.3134 15.5063C83.1675 15.6635 82.9089 15.7417 82.5382 15.7417V16.0957L83.4312 16.0454C83.8411 16.034 84.2511 16.0283 84.6611 16.0282C85.2336 16.0282 85.7731 16.0339 86.2782 16.0447C86.7947 16.0677 87.1992 16.0842 87.4915 16.095V15.7417C87.0196 15.7417 86.6489 15.652 86.3795 15.4725C86.1101 15.3045 85.975 14.9563 85.975 14.4286V12.7414C86.123 12.8649 86.2968 12.9669 86.4973 13.048C86.8565 13.2059 87.2552 13.2842 87.6934 13.2842C88.2889 13.2842 88.822 13.1772 89.294 12.964C89.7738 12.7531 90.1957 12.4298 90.5239 12.0213C90.8716 11.5949 91.1359 11.0729 91.3155 10.4555C91.5066 9.83805 91.6022 9.1201 91.6022 8.30021C91.6022 7.36903 91.4671 6.59436 91.1977 5.97692C90.9283 5.348 90.5684 4.88277 90.1194 4.5798C89.6707 4.2655 89.1343 4.10046 88.5864 4.1081C87.9348 4.1081 87.3622 4.2761 86.868 4.61282C86.4793 4.87487 86.1819 5.23815 85.975 5.7041V5.70339ZM85.975 6.28205V12.3853C86.0684 12.4959 86.1812 12.5878 86.3119 12.661C86.5253 12.773 86.7667 12.829 87.0368 12.829C87.5418 12.829 87.9405 12.661 88.2329 12.3243C88.5246 11.9761 88.7322 11.4936 88.8558 10.8762C88.9908 10.248 89.0583 9.50133 89.0583 8.63692C89.0583 7.672 88.9966 6.91385 88.873 6.3639C88.7494 5.81395 88.5806 5.42123 88.3673 5.18574C88.1539 4.94954 87.896 4.8318 87.5921 4.8318C87.1884 4.8318 86.8177 4.98974 86.4808 5.30349C86.2272 5.54759 86.0583 5.87426 85.975 6.28205Z" fill="#002101"/>
<path d="M95.4707 4.10807C95.9426 4.10807 96.3521 4.16982 96.7005 4.2933C97.0597 4.4053 97.3184 4.51802 97.4757 4.63002C97.8572 4.88848 98.0935 4.71976 98.1833 4.12459H98.5368C98.5145 4.43905 98.4972 4.82674 98.4865 5.28623C98.475 5.73566 98.4692 6.33587 98.4692 7.08828H98.1158C98.0582 6.66731 97.9506 6.2547 97.7954 5.85915C97.6524 5.47527 97.4149 5.13355 97.105 4.86551C96.8126 4.60705 96.4312 4.47782 95.9592 4.47782C95.6337 4.47782 95.3586 4.57402 95.1337 4.765C94.9089 4.94448 94.7968 5.20797 94.7968 5.55618C94.7968 5.89289 94.8981 6.19012 95.1 6.44859C95.3026 6.69556 95.5605 6.93679 95.8751 7.17228C96.2005 7.397 96.5375 7.63823 96.8859 7.89597C97.2566 8.17669 97.5935 8.45741 97.8967 8.73812C98.1873 8.99204 98.4323 9.29388 98.6208 9.63054C98.8011 9.95577 98.8909 10.3427 98.8909 10.7922C98.8909 11.2969 98.7444 11.7399 98.4527 12.1218C98.1603 12.4923 97.7731 12.7787 97.2903 12.9805C96.8184 13.1829 96.2903 13.2842 95.707 13.2842C95.4006 13.2877 95.0949 13.2537 94.7968 13.1829C94.5632 13.1248 94.3371 13.04 94.123 12.9302C93.9771 12.8627 93.8363 12.801 93.702 12.745C93.5874 12.682 93.4691 12.6259 93.3478 12.577C93.2357 12.5433 93.1345 12.582 93.0447 12.6947C92.9663 12.8067 92.9046 12.964 92.8593 13.1657H92.5059C92.5281 12.8067 92.5454 12.3688 92.5562 11.8526C92.5676 11.3364 92.5734 10.6515 92.5734 9.79925H92.9268C92.9944 10.4052 93.1179 10.9437 93.2975 11.4146C93.4771 11.8756 93.7185 12.2403 94.0217 12.5095C94.3363 12.768 94.7293 12.8972 95.2013 12.8972C95.3924 12.8972 95.5777 12.8577 95.7573 12.7787C95.9369 12.6998 96.0827 12.5705 96.1955 12.391C96.3191 12.2116 96.3809 11.9818 96.3809 11.7018C96.3809 11.2072 96.2178 10.7972 95.8916 10.472C95.5777 10.1467 95.1733 9.79279 94.679 9.41156C94.3198 9.11936 93.9771 8.83361 93.6517 8.55289C93.3499 8.27696 93.0889 7.95956 92.8766 7.61023C92.6714 7.25162 92.5667 6.84439 92.5734 6.43136C92.5734 5.92664 92.7077 5.50018 92.9771 5.15197C93.2521 4.80013 93.6198 4.53187 94.0389 4.3773C94.4944 4.19657 94.9805 4.10517 95.4707 4.10807ZM116.384 4.2933C116.091 4.16982 115.71 4.10807 115.238 4.10807C114.71 4.10271 114.188 4.2301 113.722 4.47853C113.262 4.71402 112.897 5.11248 112.627 5.67392V4.15905C112.279 4.2373 111.897 4.29905 111.481 4.34356C111.077 4.3773 110.639 4.39382 110.167 4.39382C109.831 4.39382 109.482 4.3773 109.123 4.34356V4.69751C109.538 4.69751 109.819 4.821 109.965 5.06797C110.122 5.30346 110.201 5.67392 110.201 6.17864V11.4821C110.201 11.9538 110.116 12.274 109.948 12.442C109.791 12.6107 109.516 12.6947 109.123 12.6947V13.048C109.46 13.0329 109.797 13.0217 110.134 13.0142C110.571 12.9921 111.009 12.9808 111.448 12.9805C111.841 12.9805 112.223 12.992 112.593 13.0142C112.975 13.0257 113.256 13.0372 113.435 13.048V12.6947C113.144 12.6947 112.935 12.6107 112.812 12.442C112.688 12.274 112.627 11.9538 112.627 11.4821V6.80182C112.627 6.43135 112.7 6.10038 112.846 5.80818C113.003 5.5052 113.205 5.26971 113.452 5.10171C113.689 4.93645 113.972 4.84821 114.261 4.849C114.52 4.849 114.71 4.91074 114.833 5.03423C114.969 5.14623 115.058 5.3092 115.104 5.52243C115.148 5.72418 115.17 5.96541 115.17 6.24612V11.4821C115.17 11.9538 115.109 12.274 114.985 12.442C114.873 12.6107 114.665 12.6947 114.362 12.6947V13.048C114.564 13.0372 114.861 13.0257 115.255 13.0142C116.052 12.9688 116.851 12.9688 117.647 13.0142C118.063 13.0257 118.372 13.0372 118.573 13.048V12.6947C118.214 12.6947 117.961 12.6107 117.815 12.442C117.67 12.274 117.596 11.9538 117.596 11.4821V6.87648L117.596 6.82407L117.593 6.65392C117.619 6.37249 117.694 6.09784 117.815 5.84264C117.973 5.53894 118.175 5.29771 118.422 5.11823C118.669 4.93874 118.939 4.849 119.231 4.849C119.522 4.849 119.736 4.91074 119.871 5.03423C120.017 5.14623 120.112 5.3092 120.157 5.52243C120.213 5.72418 120.241 5.96541 120.241 6.24612V11.4821C120.241 11.9538 120.18 12.274 120.056 12.442C119.944 12.6107 119.736 12.6947 119.433 12.6947V13.048C119.635 13.0372 119.933 13.0257 120.326 13.0142C120.724 12.9916 121.123 12.9804 121.522 12.9805C121.938 12.9805 122.359 12.992 122.785 13.0142C123.212 13.0257 123.532 13.0372 123.746 13.048V12.6947C123.353 12.6947 123.072 12.6107 122.903 12.442C122.746 12.274 122.667 11.9538 122.667 11.4821V6.9533C122.667 6.39187 122.628 5.94315 122.55 5.60643C122.471 5.25823 122.342 4.97823 122.162 4.765C121.982 4.56253 121.747 4.40602 121.454 4.2933C121.162 4.16982 120.78 4.10807 120.309 4.10807C119.736 4.10807 119.197 4.22582 118.692 4.4613C118.208 4.69248 117.815 5.1333 117.514 5.78376C117.504 5.72433 117.492 5.6652 117.479 5.60643C117.4 5.25823 117.271 4.97823 117.091 4.765C116.912 4.56253 116.675 4.40602 116.384 4.2933ZM107.801 11.2129V4.15833C107.453 4.2373 107.071 4.29905 106.655 4.34356C106.252 4.3773 105.813 4.39382 105.341 4.39382C105.004 4.39382 104.657 4.3773 104.297 4.34356V4.69751C104.713 4.69751 104.994 4.821 105.139 5.06797C105.297 5.30346 105.375 5.67392 105.375 6.17864V10.5897C105.375 10.9602 105.297 11.2969 105.139 11.5999C105.006 11.8773 104.803 12.1153 104.55 12.2905C104.314 12.4591 104.031 12.5476 103.741 12.5433C103.461 12.5433 103.247 12.4865 103.101 12.3745C102.949 12.2421 102.843 12.0656 102.798 11.8698C102.75 11.6258 102.727 11.3775 102.73 11.1289V4.15833C102.382 4.2373 102 4.29905 101.585 4.34356C101.18 4.3773 100.742 4.39382 100.271 4.39382C99.934 4.39382 99.5856 4.3773 99.2264 4.34356V4.69751C99.6416 4.69751 99.9225 4.821 100.068 5.06797C100.226 5.30346 100.304 5.67392 100.304 6.17864V10.4382C100.304 10.9882 100.344 11.4376 100.423 11.7851C100.501 12.1333 100.636 12.414 100.826 12.6273C100.995 12.8182 101.225 12.9755 101.517 13.0989C101.809 13.2217 102.191 13.2842 102.663 13.2842C103.247 13.2842 103.775 13.1657 104.247 12.9302C104.729 12.6833 105.106 12.279 105.375 11.7183V13.2332C105.751 13.1406 106.135 13.0787 106.521 13.048C106.925 13.0142 107.363 12.9977 107.835 12.9977C108.183 12.9977 108.531 13.0142 108.879 13.048V12.6947C108.475 12.6947 108.194 12.577 108.037 12.3408C107.879 12.0938 107.801 11.7183 107.801 11.2136V11.2129Z" fill="#002101"/>
<path fill-rule="evenodd" clip-rule="evenodd" d="M75.2129 4.56256C74.5951 4.25959 73.876 4.1081 73.0563 4.1081C72.2589 4.1081 71.5456 4.25959 70.917 4.56256C70.2991 4.86554 69.8106 5.35374 69.4514 6.02718C69.103 6.70061 68.9285 7.59302 68.9285 8.70441C68.9285 9.81579 69.103 10.7075 69.4507 11.3816C69.8099 12.0436 70.2984 12.526 70.9162 12.829C71.5455 13.132 72.2589 13.2842 73.0563 13.2842C73.876 13.2842 74.5951 13.132 75.2129 12.829C75.83 12.526 76.3135 12.0436 76.6612 11.3816C77.0096 10.7082 77.1835 9.81579 77.1835 8.70441C77.1835 7.59302 77.0096 6.70133 76.6612 6.02718C76.3135 5.35374 75.83 4.86554 75.2129 4.56256ZM71.9277 5.45497C72.2309 4.78154 72.6073 4.44482 73.0563 4.44482C73.5168 4.44482 73.8933 4.78154 74.1849 5.45497C74.4881 6.11692 74.6397 7.20031 74.6397 8.70441C74.6397 10.2085 74.4881 11.2919 74.1849 11.9538C73.8933 12.6158 73.5168 12.9475 73.0563 12.9475C72.6073 12.9475 72.2309 12.6158 71.9277 11.9538C71.6246 11.2919 71.473 10.2085 71.473 8.70441C71.473 7.20031 71.6239 6.11692 71.9277 5.45497ZM63.4349 16.2134C62.7381 16.2134 62.1152 16.1517 61.5649 16.0282C61.0262 15.9162 60.5994 15.7367 60.2848 15.4897C59.9816 15.2535 59.83 14.9621 59.83 14.6138C59.83 14.2656 59.9866 13.9519 60.3013 13.6712C60.616 13.4019 61.0822 13.1887 61.7 13.0315L61.8509 13.3007C61.658 13.4455 61.4975 13.6289 61.3796 13.8392C61.2898 14.0416 61.2445 14.2491 61.2445 14.4624C61.2445 14.934 61.4579 15.293 61.8853 15.5393C62.3236 15.7977 62.9127 15.927 63.654 15.927C64.1591 15.927 64.6088 15.8595 65.0017 15.7252C65.4062 15.5903 65.7201 15.3878 65.945 15.1193C66.1813 14.8493 66.2991 14.5184 66.2991 14.1256C66.2991 13.7889 66.1756 13.5025 65.9285 13.267C65.6813 13.0423 65.1871 12.9303 64.4457 12.9303H63.4012C62.9414 12.9303 62.5362 12.88 62.1885 12.7788C61.8509 12.6783 61.5872 12.5203 61.3961 12.3071C61.2058 12.0831 61.1102 11.8024 61.1102 11.4656C61.1102 10.9939 61.2955 10.579 61.6662 10.2193C61.9565 9.93785 62.3573 9.67005 62.8688 9.41661C62.5325 9.37483 62.2023 9.29411 61.8846 9.1761C61.3796 8.98513 60.9809 8.69292 60.6892 8.3002C60.3968 7.90749 60.251 7.40277 60.251 6.78533C60.251 6.1679 60.3968 5.66246 60.6892 5.26974C60.9809 4.86554 61.3796 4.57333 61.8853 4.39384C62.3904 4.20359 62.9629 4.1081 63.603 4.1081C64.2438 4.1081 64.8164 4.20359 65.3214 4.39456C65.6547 4.51231 65.9407 4.67959 66.1813 4.89497C66.3243 4.68892 66.4981 4.50513 66.7029 4.34359C67.0851 4.0521 67.4953 3.90564 67.9328 3.90564C68.292 3.90564 68.5621 4.00687 68.7417 4.20933C68.9328 4.39959 69.0283 4.65231 69.0283 4.96677C69.0283 5.30349 68.9378 5.55549 68.7582 5.7242C68.5786 5.88215 68.3767 5.96041 68.1519 5.96041C67.9541 5.95779 67.7635 5.88617 67.6131 5.75795C67.455 5.62297 67.366 5.42123 67.3437 5.152C67.3243 4.91077 67.3918 4.6121 67.5463 4.25456C67.2187 4.39384 66.9658 4.55251 66.7877 4.73128C66.6533 4.8607 66.536 5.00665 66.4385 5.16564C66.4658 5.19938 66.4924 5.23456 66.5175 5.26974C66.8099 5.66246 66.9558 6.16718 66.9558 6.78461C66.9558 7.40205 66.8099 7.90749 66.5175 8.3002C66.2259 8.69292 65.8272 8.98513 65.3214 9.1761C64.8164 9.36636 64.2438 9.46185 63.603 9.46185C63.5072 9.46195 63.4114 9.45979 63.3157 9.45538C63.1641 9.55805 63.0183 9.66718 62.8789 9.78205C62.7923 9.84973 62.7229 9.93675 62.6761 10.0361C62.6293 10.1355 62.6065 10.2445 62.6095 10.3543C62.6095 10.7132 62.8343 10.8927 63.2833 10.8927H65.1195C65.7374 10.8927 66.2876 10.9659 66.7704 11.1117C67.2647 11.2582 67.6519 11.4994 67.9328 11.8361C68.2251 12.1613 68.371 12.5878 68.371 13.1155C68.371 13.6654 68.1914 14.1759 67.8322 14.6476C67.4838 15.1193 66.945 15.4948 66.2144 15.7755C65.4845 16.0677 64.5578 16.2134 63.4349 16.2134ZM63.603 9.15887C63.9069 9.15887 64.1418 8.99087 64.3106 8.65415C64.4795 8.30595 64.5635 7.68277 64.5635 6.78533C64.5635 5.88718 64.4795 5.26974 64.3106 4.93302C64.1425 4.58482 63.9069 4.41108 63.6037 4.41108C63.3114 4.41108 63.0757 4.58482 62.8961 4.93302C62.7273 5.26974 62.6433 5.88718 62.6433 6.78533C62.6433 7.68277 62.7273 8.30595 62.8961 8.65415C63.0757 8.99087 63.3114 9.15887 63.603 9.15887ZM57.649 4.56256C57.0312 4.25959 56.3128 4.1081 55.4931 4.1081C54.6957 4.1081 53.9823 4.25959 53.3537 4.56256C52.7359 4.86554 52.2474 5.35374 51.8882 6.02718C51.5398 6.70061 51.3652 7.59302 51.3652 8.70441C51.3652 9.81579 51.5398 10.7075 51.8875 11.3816C52.2467 12.0436 52.7352 12.526 53.353 12.829C53.9823 13.132 54.6957 13.2842 55.4931 13.2842C56.3128 13.2842 57.0319 13.132 57.649 12.829C58.2668 12.526 58.7496 12.0436 59.098 11.3816C59.4464 10.7082 59.6203 9.81579 59.6203 8.70441C59.6203 7.59302 59.4464 6.70133 59.098 6.02718C58.7503 5.35374 58.2668 4.86554 57.649 4.56256ZM54.3638 5.45497C54.6677 4.78154 55.0434 4.44482 55.4931 4.44482C55.9529 4.44482 56.3293 4.78154 56.621 5.45497C56.9249 6.11692 57.0764 7.20031 57.0764 8.70441C57.0764 10.2085 56.9249 11.2919 56.6217 11.9538C56.3293 12.6158 55.9536 12.9475 55.4931 12.9475C55.0434 12.9475 54.667 12.6158 54.3638 11.9538C54.0606 11.2919 53.9091 10.2085 53.9091 8.70441C53.9091 7.20031 54.0606 6.11692 54.3638 5.45497Z" fill="#002101"/>
<path d="M46.8275 1.1279V1.46533C46.4461 1.4761 46.1537 1.52062 45.9518 1.59959C45.8594 1.63086 45.7759 1.68392 45.7084 1.75428C45.6408 1.82464 45.5913 1.91023 45.5639 2.0038C45.4971 2.19405 45.4633 2.49775 45.4633 2.91272V11.4656C45.4633 11.8131 45.4856 12.0716 45.5308 12.2403C45.5869 12.4083 45.6881 12.5203 45.834 12.577C45.9913 12.633 46.2219 12.661 46.5244 12.661H47.3505C47.7313 12.661 48.0912 12.5713 48.4281 12.3918C48.7657 12.2123 49.0682 11.9596 49.3376 11.6336C49.6217 11.2716 49.8492 10.8686 50.0121 10.4383C50.1917 9.97877 50.3261 9.46759 50.4159 8.90615H50.8038C50.77 9.2881 50.7535 9.78205 50.7535 10.388C50.7535 10.6465 50.7586 11.022 50.77 11.5159C50.7815 12.0098 50.8146 12.521 50.8706 13.048C50.2253 13.0242 49.5796 13.013 48.9338 13.0143C48.2154 13.0035 47.5746 12.9977 47.0129 12.9977H45.9353C45.4971 12.9977 45.0251 13.0035 44.52 13.0143C44.0143 13.0143 43.5035 13.02 42.987 13.0315C42.4698 13.0315 41.9813 13.0372 41.5215 13.048V12.7113C41.8807 12.689 42.1501 12.6438 42.3297 12.577C42.5093 12.5095 42.6271 12.3746 42.6838 12.1728C42.7507 11.9704 42.7844 11.6674 42.7844 11.2632V2.91272C42.7844 2.49703 42.7507 2.19477 42.6838 2.0038C42.6617 1.9104 42.616 1.82422 42.5511 1.75347C42.4863 1.68271 42.4043 1.62974 42.3132 1.59959C42.1336 1.52062 41.8692 1.4761 41.5215 1.46462V1.1279C42.4083 1.16074 43.2957 1.17749 44.1831 1.17816C44.6774 1.17816 45.1601 1.17313 45.6314 1.16164C46.1149 1.15016 46.5136 1.13939 46.8275 1.1279Z" fill="#002101"/>
<path fill-rule="evenodd" clip-rule="evenodd" d="M122.035 26.9611C122.011 26.8405 122.027 26.6832 122.083 26.4894L124.456 17.8977C124.076 18.0534 123.683 18.1748 123.282 18.2603C122.87 18.3414 122.398 18.3852 121.865 18.3938L121.78 18.648C122.176 18.648 122.422 18.7126 122.519 18.8418C122.616 18.971 122.628 19.1721 122.555 19.4463L121.994 21.5636C121.958 21.4614 121.897 21.37 121.817 21.2979C121.68 21.1687 121.49 21.1041 121.248 21.1041C120.764 21.1041 120.315 21.2132 119.904 21.4307C119.49 21.6568 119.117 21.9515 118.802 22.3023C118.47 22.6578 118.189 23.0568 117.966 23.4884C117.746 23.9083 117.572 24.3504 117.445 24.8072C117.331 25.2007 117.27 25.6079 117.264 26.0177C117.264 26.4047 117.325 26.7234 117.445 26.9733C117.567 27.2152 117.732 27.3969 117.942 27.5175C118.152 27.6309 118.386 27.6869 118.644 27.6869C119.04 27.6869 119.395 27.5706 119.71 27.3366C120.024 27.0946 120.319 26.7234 120.594 26.223C120.709 26.0191 120.825 25.7901 120.94 25.536L120.86 25.8361C120.787 26.0725 120.738 26.3157 120.715 26.5619C120.699 26.7716 120.715 26.9496 120.764 27.0946C120.86 27.4895 121.159 27.6877 121.66 27.6877C121.845 27.6877 122.035 27.651 122.228 27.5785C122.422 27.506 122.603 27.3811 122.773 27.203C122.951 27.0257 123.092 26.7723 123.197 26.4406L123.488 25.5575H123.258L123.064 26.1017C122.919 26.5138 122.782 26.7917 122.652 26.9367C122.531 27.0745 122.406 27.1427 122.277 27.1427C122.139 27.1427 122.059 27.0824 122.035 26.9611ZM121.389 23.8452C121.297 24.1403 121.198 24.421 121.091 24.6859C120.889 25.2028 120.675 25.6465 120.448 26.0177C120.231 26.3803 120.017 26.6624 119.807 26.8649C119.597 27.058 119.411 27.1549 119.25 27.1549C119.096 27.1549 118.983 27.0824 118.911 26.9374C118.846 26.7838 118.814 26.554 118.814 26.2474C118.814 25.8117 118.862 25.368 118.959 24.9164C119.056 24.4569 119.189 24.0168 119.358 23.5975C119.515 23.204 119.709 22.8269 119.94 22.4718C120.158 22.1329 120.388 21.8665 120.63 21.6727C120.88 21.4788 121.126 21.3826 121.369 21.3826C121.53 21.3826 121.66 21.4393 121.756 21.5521C121.824 21.6253 121.876 21.7316 121.912 21.8723L121.389 23.8452Z" fill="#002101"/>
<path d="M113.976 27.5176H112.486L113.939 22.3024C114.012 22.0605 114.036 21.891 114.012 21.7941C113.988 21.6972 113.915 21.6491 113.794 21.6491C113.641 21.6491 113.499 21.7259 113.37 21.8788C113.241 22.0317 113.108 22.3024 112.971 22.6901L112.764 23.258H112.534L112.849 22.3505C112.963 22.0274 113.103 21.7783 113.273 21.6002C113.443 21.415 113.629 21.2858 113.83 21.2133C114.032 21.1408 114.238 21.1041 114.448 21.1041C114.706 21.1041 114.896 21.1566 115.017 21.2621C115.146 21.3669 115.227 21.504 115.259 21.6735C115.3 21.8561 115.308 22.0445 115.283 22.2299C115.267 22.4237 115.235 22.6133 115.186 22.7985L114.991 23.5574L115.041 23.4281C115.267 22.8552 115.485 22.3993 115.695 22.0605C115.913 21.7137 116.143 21.4674 116.385 21.3224C116.622 21.1783 116.895 21.1028 117.172 21.1041C117.463 21.1041 117.685 21.1889 117.838 21.3583C118 21.5277 118.08 21.7374 118.08 21.9879C118.08 22.189 118.032 22.3792 117.935 22.5566C117.841 22.723 117.708 22.8641 117.547 22.9679C117.394 23.0649 117.217 23.113 117.015 23.113C116.813 23.113 116.652 23.0606 116.53 22.9557C116.417 22.8509 116.361 22.6973 116.361 22.4962C116.361 22.3182 116.402 22.1574 116.482 22.0116C116.56 21.8697 116.667 21.7461 116.797 21.6491C116.926 21.5442 117.068 21.4717 117.221 21.4308C117.204 21.4142 117.183 21.4019 117.16 21.3949C117.133 21.3864 117.104 21.3822 117.075 21.3827C116.898 21.3827 116.716 21.4473 116.53 21.5766C116.345 21.6972 116.151 21.8953 115.949 22.1696C115.747 22.4438 115.542 22.8064 115.332 23.258C115.095 23.792 114.885 24.3373 114.702 24.892C114.611 25.1606 114.519 25.4492 114.427 25.7586L113.976 27.5176Z" fill="#002101"/>
<path fill-rule="evenodd" clip-rule="evenodd" d="M109.451 25.648L109.4 25.8361C109.323 26.1093 109.271 26.3887 109.243 26.671C109.218 26.9295 109.258 27.147 109.363 27.3244C109.525 27.5663 109.799 27.6877 110.187 27.6877C110.373 27.6877 110.558 27.651 110.744 27.5785C110.937 27.506 111.119 27.3811 111.289 27.203C111.458 27.0178 111.6 26.7593 111.712 26.4291L112.016 25.546H111.785L111.603 26.0902C111.458 26.5095 111.317 26.7881 111.18 26.9252C111.043 27.0616 110.909 27.1305 110.78 27.1305C110.675 27.1305 110.607 27.0982 110.574 27.0336C110.549 26.9514 110.541 26.8649 110.55 26.7794C110.566 26.6769 110.59 26.5758 110.623 26.4772L112.185 21.1041C111.942 21.1621 111.695 21.2027 111.446 21.2254C111.196 21.2498 110.926 21.2656 110.635 21.2735L110.46 21.9211C110.452 21.7567 110.404 21.5966 110.32 21.4551C110.257 21.3449 110.165 21.2539 110.054 21.192C109.943 21.1301 109.817 21.0997 109.69 21.1041C109.335 21.1041 108.98 21.2132 108.625 21.4307C108.247 21.6681 107.908 21.962 107.62 22.3023C107.294 22.6734 107.01 23.0791 106.772 23.5121C106.534 23.9463 106.343 24.4048 106.203 24.8798C106.071 25.3071 106.002 25.7514 105.998 26.1986C105.998 26.6509 106.103 27.0135 106.312 27.2878C106.522 27.5541 106.845 27.6869 107.281 27.6869C107.587 27.6869 107.882 27.5986 108.165 27.4213C108.455 27.2432 108.73 26.9489 108.988 26.5382C109.148 26.2905 109.302 25.994 109.451 25.648ZM108.407 26.8764C108.221 27.0458 108.056 27.1305 107.911 27.1305C107.789 27.1305 107.697 27.0702 107.632 26.9489C107.575 26.8197 107.547 26.6064 107.547 26.3078C107.547 25.8799 107.595 25.4405 107.692 24.9889C107.789 24.5366 107.919 24.1015 108.08 23.6822C108.25 23.2622 108.435 22.8874 108.637 22.5565C108.839 22.2262 109.041 21.9634 109.243 21.7696C109.452 21.5758 109.65 21.4795 109.836 21.4795C110.029 21.4795 110.166 21.5765 110.248 21.7696C110.328 21.9448 110.349 22.1796 110.31 22.4732L109.952 23.7957L109.993 23.5853C109.864 24.1015 109.71 24.5775 109.533 25.0133C109.378 25.4029 109.192 25.7792 108.976 26.1383C108.782 26.4528 108.592 26.699 108.407 26.8764ZM104.37 26.4894C104.313 26.6832 104.297 26.8405 104.322 26.9611C104.345 27.0824 104.426 27.1427 104.564 27.1427C104.693 27.1427 104.818 27.0745 104.939 26.9374C105.068 26.7917 105.205 26.5138 105.35 26.1017L105.544 25.5575H105.774L105.484 26.4406C105.379 26.7715 105.238 27.0257 105.06 27.203C104.909 27.3679 104.723 27.4963 104.515 27.5785C104.333 27.649 104.141 27.6859 103.946 27.6877C103.446 27.6877 103.147 27.4895 103.05 27.0946C102.999 26.922 102.983 26.7409 103.002 26.5619C103.018 26.3523 103.066 26.1096 103.147 25.8361L103.227 25.536C103.111 25.7901 102.995 26.0191 102.881 26.223C102.606 26.7234 102.312 27.0946 101.997 27.3359C101.69 27.5674 101.315 27.6911 100.931 27.6877C100.673 27.6877 100.439 27.6302 100.229 27.5182C100.013 27.3903 99.8397 27.2005 99.7325 26.9733C99.6111 26.7234 99.5508 26.4047 99.5508 26.0177C99.5508 25.6465 99.6111 25.2423 99.7325 24.8072C99.8532 24.3636 100.027 23.9242 100.253 23.4884C100.476 23.057 100.757 22.658 101.088 22.3023C101.419 21.939 101.786 21.649 102.19 21.4307C102.604 21.2124 103.066 21.1001 103.534 21.1041C103.776 21.1041 103.966 21.1687 104.103 21.2979C104.182 21.3676 104.242 21.4559 104.281 21.5635L104.842 19.4463C104.915 19.1721 104.903 18.9703 104.806 18.8411C104.709 18.7119 104.462 18.6472 104.067 18.6472L104.152 18.3938C104.627 18.3911 105.101 18.3464 105.569 18.2603C105.97 18.1748 106.363 18.0534 106.743 17.8977L104.37 26.4894ZM103.377 24.6859C103.485 24.4203 103.585 24.1403 103.675 23.8452L104.199 21.8723C104.174 21.7545 104.12 21.6446 104.043 21.5521C103.995 21.4964 103.936 21.4523 103.869 21.423C103.802 21.3936 103.729 21.3798 103.656 21.3826C103.414 21.3826 103.167 21.4796 102.917 21.6727C102.674 21.8665 102.444 22.1329 102.227 22.4718C101.996 22.8265 101.801 23.2034 101.646 23.5968C101.474 24.0239 101.34 24.4655 101.246 24.9164C101.151 25.3537 101.102 25.7999 101.1 26.2474C101.1 26.554 101.133 26.7838 101.197 26.9367C101.27 27.0824 101.383 27.1549 101.536 27.1549C101.698 27.1549 101.883 27.058 102.093 26.8642C102.304 26.6631 102.517 26.3803 102.735 26.017C102.987 25.5925 103.202 25.1472 103.377 24.6859Z" fill="#002101"/>
<path d="M92.8828 27.5176H94.372L94.5121 26.9705L94.5049 27.01C94.6587 26.4449 94.8318 25.9007 95.0258 25.3759C95.2142 24.8751 95.4241 24.3826 95.6551 23.8998C95.8735 23.4475 96.0911 23.0526 96.3095 22.7138C96.5272 22.3749 96.737 22.1128 96.9388 21.9269C97.1407 21.733 97.3261 21.6368 97.4956 21.6368C97.6328 21.6368 97.7176 21.6849 97.7499 21.7819C97.7834 21.8918 97.7876 22.0086 97.7621 22.1207C97.738 22.2519 97.7056 22.3814 97.6651 22.5084L96.5638 25.8361C96.4503 26.175 96.3857 26.465 96.3699 26.707C96.3534 26.9489 96.3979 27.1471 96.5028 27.3C96.584 27.4214 96.6967 27.514 96.8419 27.5786C96.9956 27.6504 97.1773 27.6877 97.3871 27.6877C97.5804 27.6877 97.7743 27.6511 97.9683 27.5786C98.1702 27.514 98.3555 27.3926 98.525 27.2153C98.7025 27.038 98.8483 26.7795 98.9611 26.4406L99.2636 25.5576H99.0337L98.8397 26.1018C98.6867 26.5218 98.5416 26.7996 98.4044 26.9367C98.275 27.0746 98.1501 27.1428 98.0286 27.1428C97.8993 27.1428 97.8189 27.0904 97.7865 26.9848C97.7542 26.8728 97.7743 26.707 97.8469 26.4895L99.0337 22.9313C99.1386 22.6168 99.191 22.3225 99.191 22.0482C99.1989 21.7661 99.1228 21.5399 98.9611 21.3705C98.8074 21.1932 98.5329 21.1048 98.1378 21.1048C97.839 21.1048 97.5524 21.1695 97.2779 21.298C97.0035 21.4272 96.737 21.6526 96.4791 21.9757C96.2205 22.2902 95.9539 22.7181 95.6795 23.258C95.4974 23.6222 95.3304 23.9936 95.1788 24.3715L95.5825 22.7985C95.6314 22.6046 95.6673 22.4108 95.6917 22.2177C95.7161 22.0166 95.7075 21.8343 95.6673 21.6727C95.6288 21.5059 95.5297 21.3594 95.3893 21.2614C95.2521 21.1565 95.0502 21.1041 94.7837 21.1041C94.4604 21.1041 94.1659 21.1932 93.8993 21.3705C93.6335 21.5478 93.4151 21.8745 93.2456 22.3505L92.9309 23.258H93.1608L93.367 22.6894C93.5121 22.2945 93.645 22.0238 93.7664 21.8788C93.8957 21.7259 94.0365 21.649 94.1903 21.649C94.3031 21.649 94.372 21.6814 94.3965 21.746C94.4281 21.8106 94.4367 21.891 94.4202 21.9879C94.4021 22.0941 94.3778 22.1991 94.3476 22.3024L92.8828 27.5176Z" fill="#002101"/>
<path fill-rule="evenodd" clip-rule="evenodd" d="M89.7975 25.8361L89.8486 25.648C89.7192 25.957 89.5645 26.2548 89.3859 26.5383C89.1273 26.9489 88.8529 27.244 88.5619 27.4213C88.2796 27.5987 87.985 27.687 87.6783 27.687C87.2422 27.687 86.9197 27.5542 86.7099 27.2878C86.4994 27.0135 86.3945 26.651 86.3945 26.1987C86.3945 25.7794 86.4635 25.34 86.6007 24.8798C86.7408 24.4049 86.9315 23.9463 87.1697 23.5121C87.4069 23.079 87.6912 22.6733 88.0174 22.3024C88.3057 21.9621 88.6447 21.6681 89.0224 21.4308C89.3773 21.2132 89.7329 21.1041 90.0878 21.1041C90.3622 21.1041 90.572 21.2211 90.7178 21.4559C90.7954 21.5758 90.8421 21.7309 90.8572 21.9211L91.0325 21.2735C91.3227 21.2656 91.5935 21.2499 91.8435 21.2254C92.1021 21.201 92.3478 21.1608 92.582 21.1041L91.0202 26.478C90.9874 26.5764 90.9631 26.6776 90.9477 26.7802C90.9385 26.8657 90.9468 26.9522 90.9721 27.0344C91.0044 27.099 91.0727 27.1313 91.1776 27.1313C91.3069 27.1313 91.4398 27.0631 91.577 26.926C91.7142 26.7888 91.8557 26.5095 92.0009 26.091L92.1826 25.5461H92.4125L92.11 26.4291C91.9973 26.7601 91.8557 27.0179 91.6862 27.2045C91.5354 27.369 91.3492 27.4971 91.1417 27.5793C90.9643 27.6503 90.7752 27.6873 90.5842 27.6884C90.197 27.6884 89.9225 27.5671 89.7609 27.3251C89.656 27.1478 89.6158 26.9303 89.6402 26.6718C89.6684 26.3895 89.7211 26.1094 89.7975 25.8361ZM88.3076 27.1306C88.4534 27.1306 88.6187 27.0459 88.8047 26.8764C88.9901 26.6991 89.1797 26.4528 89.3737 26.1384C89.5669 25.8239 89.753 25.4491 89.9304 25.0133C90.1079 24.5775 90.2616 24.1015 90.3909 23.5846L90.35 23.7957L90.7077 22.474C90.7458 22.1796 90.725 21.9448 90.6452 21.7704C90.5641 21.5765 90.4269 21.4796 90.2329 21.4796C90.0475 21.4796 89.85 21.5765 89.6402 21.7696C89.4384 21.9635 89.2365 22.2255 89.0346 22.5565C88.8327 22.8868 88.6467 23.2623 88.4771 23.6815C88.3145 24.1065 88.185 24.5433 88.0899 24.9882C87.995 25.4217 87.9464 25.8641 87.9448 26.3078C87.9448 26.6065 87.9728 26.8204 88.0296 26.9489C88.0942 27.0703 88.1869 27.1306 88.3076 27.1306Z" fill="#002101"/>
<path d="M87.2344 21.5155L87.271 21.2735H85.8285L86.3989 19.2891C86.1602 19.3479 85.9174 19.3884 85.6726 19.4105C85.4226 19.4342 85.1517 19.4507 84.8615 19.4586L84.3407 21.2735H83.2387L83.1783 21.5155H84.2717L83.0325 25.8361C82.9276 26.1908 82.8917 26.5095 82.924 26.7917C82.9642 27.066 83.077 27.2842 83.2631 27.445C83.4563 27.6066 83.7351 27.6877 84.0986 27.6877C84.5102 27.6877 84.8651 27.5786 85.164 27.3603C85.4628 27.1428 85.697 26.7838 85.8665 26.2834L86.1086 25.5575H85.878L85.697 26.0536C85.5512 26.4571 85.3902 26.7393 85.2121 26.9008C85.0425 27.0624 84.873 27.1428 84.7035 27.1428C84.6368 27.145 84.5706 27.1319 84.5098 27.1045C84.449 27.0771 84.3954 27.0362 84.3529 26.9848C84.2717 26.8807 84.2638 26.7156 84.3285 26.4894L85.7588 21.5155H87.2344ZM83.2243 18.8655C83.1438 19.0752 83.0346 19.3825 82.8974 19.7852C82.7681 20.1801 82.6395 20.697 82.5102 21.3338H82.2681C82.2918 21.2211 82.3083 21.1041 82.3163 20.9835C82.3317 20.8753 82.3399 20.7661 82.3407 20.6568C82.3407 20.3416 82.276 20.0681 82.1467 19.8341C82.0225 19.5886 81.8232 19.3892 81.5777 19.2647C81.3277 19.1197 81.0045 19.0472 80.6094 19.0472C80.1812 19.0472 79.8177 19.1599 79.5196 19.3861C79.2207 19.6036 79.0713 19.9547 79.0713 20.4386C79.0713 20.7372 79.1395 21.0201 79.2767 21.2857C79.4226 21.5442 79.6043 21.7984 79.822 22.0482C80.0483 22.2902 80.2861 22.5364 80.5361 22.7863C80.7868 23.0282 81.021 23.2788 81.2387 23.5365C81.4563 23.795 81.6345 24.0692 81.7717 24.3593C81.9168 24.6422 81.9894 24.9523 81.9894 25.2912C81.9894 25.7191 81.8845 26.086 81.6747 26.3925C81.4701 26.6937 81.2012 26.9457 80.8874 27.1306C80.5584 27.3186 80.2035 27.4572 79.8342 27.5419C79.4787 27.6368 79.1124 27.6858 78.7444 27.6877C78.3809 27.6877 78.0785 27.659 77.8364 27.603C77.6295 27.564 77.4295 27.4946 77.243 27.3969C77.0845 27.3101 76.9269 27.2215 76.7703 27.1313C76.699 27.0715 76.6168 27.0262 76.5282 26.9977C76.4718 26.9694 76.4102 26.9528 76.3471 26.9489C76.2415 26.9489 76.1532 27.0013 76.0806 27.1069C75.9854 27.2645 75.9043 27.4303 75.8385 27.6023H75.5957C75.7957 27.1102 75.9618 26.605 76.0928 26.0903C76.1891 25.7191 76.2983 25.2553 76.4197 24.6982H76.6618C76.628 24.8584 76.5997 25.0198 76.577 25.1821C76.5526 25.3436 76.5447 25.5051 76.5526 25.6667C76.577 26.231 76.7502 26.6668 77.0734 26.9733C77.4046 27.2799 77.8888 27.4328 78.526 27.4328C79.067 27.4328 79.475 27.3201 79.7494 27.0947C80.0239 26.8606 80.1611 26.5217 80.1611 26.0781C80.1611 25.7392 80.0964 25.4319 79.9671 25.1584C79.8451 24.8738 79.6819 24.6087 79.4829 24.3715C79.2777 24.126 79.0637 23.888 78.8414 23.6578C78.6186 23.4277 78.4044 23.1894 78.1992 22.9435C78.0009 22.6991 77.8342 22.4309 77.7027 22.1451C77.5706 21.8396 77.5047 21.5095 77.5095 21.1766C77.5095 20.7738 77.5943 20.4228 77.7638 20.1241C77.9346 19.8328 78.1655 19.5812 78.4413 19.3861C78.724 19.1843 79.0395 19.0328 79.3737 18.9381C79.6989 18.8354 80.0377 18.7824 80.3788 18.7808C80.8148 18.7808 81.174 18.8332 81.4563 18.9388C81.7394 19.0429 81.9815 19.1685 82.1834 19.3135L82.4132 19.4586C82.4858 19.4909 82.5425 19.5067 82.5828 19.5067C82.6956 19.5067 82.8292 19.2934 82.9822 18.8655H83.2243Z" fill="#002101"/>
<path fill-rule="evenodd" clip-rule="evenodd" d="M71.5365 26.9611C71.512 26.8405 71.5286 26.6832 71.5853 26.4894L73.9582 17.8977C73.5783 18.0534 73.1852 18.1748 72.7836 18.2603C72.372 18.3414 71.9 18.3852 71.3669 18.3938L71.2821 18.648C71.6773 18.648 71.9244 18.7126 72.0207 18.8418C72.1176 18.971 72.1299 19.1721 72.0573 19.4463L71.4955 21.5636C71.4602 21.4614 71.3994 21.37 71.3188 21.2979C71.1816 21.1687 70.9919 21.1041 70.7498 21.1041C70.2649 21.1041 69.8174 21.2132 69.4057 21.4307C68.9916 21.6568 68.619 21.9515 68.3037 22.3023C67.9724 22.6578 67.6913 23.0568 67.4682 23.4884C67.2483 23.9083 67.0737 24.3504 66.9474 24.8072C66.8324 25.2007 66.7713 25.6079 66.7656 26.0177C66.7656 26.4047 66.8267 26.7234 66.9474 26.9733C67.0688 27.2152 67.234 27.3969 67.4438 27.5175C67.6536 27.6309 67.8878 27.6869 68.1464 27.6869C68.5415 27.6869 68.8971 27.5706 69.2118 27.3366C69.5264 27.0946 69.8209 26.7234 70.0954 26.223C70.2103 26.0191 70.326 25.7901 70.4416 25.536L70.3626 25.8361C70.2891 26.0724 70.2403 26.3156 70.2168 26.5619C70.1975 26.7409 70.2138 26.922 70.2649 27.0946C70.3619 27.4895 70.66 27.6877 71.1615 27.6877C71.3468 27.6877 71.5365 27.651 71.7304 27.5785C71.9244 27.506 72.1054 27.3811 72.275 27.203C72.4531 27.0257 72.5939 26.7723 72.6988 26.4406L72.9898 25.5575H72.7599L72.5659 26.1017C72.4208 26.5138 72.2836 26.7917 72.1543 26.9367C72.0329 27.0745 71.9079 27.1427 71.7786 27.1427C71.6421 27.1427 71.5609 27.0824 71.5365 26.9611ZM70.8899 23.8452C70.7994 24.1403 70.7003 24.421 70.5918 24.6859C70.3906 25.2028 70.1765 25.6465 69.9503 26.0177C69.7326 26.3803 69.5185 26.6624 69.3087 26.8649C69.099 27.058 68.9136 27.1549 68.7513 27.1549C68.5982 27.1549 68.4855 27.0824 68.4129 26.9374C68.3482 26.7838 68.3159 26.554 68.3159 26.2474C68.3159 25.8117 68.364 25.368 68.461 24.9164C68.558 24.4569 68.6909 24.0168 68.8605 23.5975C69.0167 23.2039 69.2116 22.8268 69.4424 22.4718C69.66 22.1329 69.8899 21.8665 70.132 21.6727C70.382 21.4788 70.6284 21.3826 70.8705 21.3826C71.0322 21.3826 71.1615 21.4393 71.2584 21.5521C71.326 21.6253 71.3777 21.7316 71.4136 21.8723L70.8899 23.8452Z" fill="#002101"/>
<path d="M61.5869 27.5176H60.0977L61.5632 22.3024C61.5955 22.1897 61.6192 22.0848 61.635 21.9879C61.653 21.9068 61.6447 21.8221 61.6113 21.746C61.5869 21.6814 61.5179 21.649 61.4051 21.649C61.2521 21.649 61.1106 21.7259 60.9813 21.8788C60.8606 22.0238 60.727 22.2945 60.5819 22.6901L60.3764 23.258H60.1465L60.4612 22.3505C60.6307 21.8745 60.8491 21.5478 61.1149 21.3705C61.3807 21.1932 61.6752 21.1048 61.9985 21.1048C62.265 21.1048 62.4669 21.1565 62.6041 21.2614C62.7448 21.3592 62.8442 21.5058 62.8829 21.6727C62.9231 21.8343 62.931 22.0159 62.9073 22.2177C62.8826 22.4133 62.8461 22.6072 62.7981 22.7985L62.3944 24.3722C62.5653 23.9494 62.732 23.5789 62.8951 23.258C63.1695 22.7181 63.4353 22.2902 63.6939 21.9757C63.9525 21.6526 64.2183 21.4272 64.4928 21.298C64.7679 21.1687 65.0538 21.1041 65.3527 21.1041C65.7478 21.1041 66.0229 21.1932 66.176 21.3705C66.3376 21.5399 66.4145 21.7654 66.4058 22.0482C66.4058 22.3225 66.3541 22.6168 66.2485 22.9313L65.0625 26.4895C64.9892 26.707 64.9691 26.8728 65.0014 26.9848C65.0337 27.0904 65.1149 27.1428 65.2442 27.1428C65.3649 27.1428 65.4899 27.0746 65.6192 26.9375C65.7564 26.7996 65.9015 26.521 66.0553 26.1018L66.2492 25.5576H66.4791L66.176 26.4406C66.0632 26.7795 65.9173 27.038 65.7406 27.216C65.5885 27.3821 65.3967 27.5068 65.1831 27.5786C64.9976 27.6497 64.8007 27.6867 64.602 27.6877C64.3922 27.6877 64.2104 27.6511 64.0574 27.5786C63.9116 27.514 63.7988 27.4206 63.7183 27.3C63.6135 27.1471 63.5689 26.9489 63.5847 26.707C63.6013 26.465 63.6659 26.175 63.7787 25.8361L64.8807 22.5084C64.9209 22.3792 64.9533 22.25 64.9777 22.1207C65.0031 22.0086 64.9989 21.8919 64.9655 21.7819C64.9331 21.6849 64.8484 21.6368 64.7112 21.6368C64.5416 21.6368 64.3556 21.7338 64.1544 21.9269C63.9525 22.1128 63.7421 22.3749 63.5244 22.7138C63.2828 23.0956 63.0644 23.4917 62.8706 23.8998C62.653 24.3521 62.4425 24.8432 62.2406 25.3759C62.0467 25.9 61.8742 26.4449 61.7205 27.01L61.7277 26.9705L61.5869 27.5176Z" fill="#002101"/>
<path fill-rule="evenodd" clip-rule="evenodd" d="M57.0627 25.648L57.0124 25.8361C56.9361 26.1095 56.8832 26.3888 56.8543 26.6711C56.8299 26.9296 56.8701 27.1471 56.975 27.3244C57.1367 27.5664 57.4111 27.6877 57.799 27.6877C58.0061 27.6863 58.2106 27.6425 58.4001 27.5592C58.5896 27.4758 58.7601 27.3547 58.901 27.2031C59.0706 27.0179 59.2114 26.7594 59.3249 26.4292L59.6266 25.5461H59.3967L59.2157 26.0903C59.0699 26.5096 58.9283 26.7881 58.7918 26.9253C58.6546 27.0617 58.521 27.1306 58.3924 27.1306C58.2868 27.1306 58.2186 27.0983 58.1862 27.0337C58.161 26.9515 58.1527 26.865 58.1618 26.7795C58.1783 26.6747 58.202 26.5742 58.2351 26.4773L59.7969 21.1041C59.5539 21.1622 59.3071 21.2027 59.0584 21.2255C58.8077 21.2499 58.5375 21.2657 58.2466 21.2736L58.0713 21.9212C58.0638 21.7568 58.016 21.5967 57.9319 21.4552C57.8689 21.345 57.777 21.2541 57.6661 21.1923C57.5552 21.1304 57.4295 21.0999 57.3026 21.1041C56.947 21.1041 56.5914 21.2133 56.2365 21.4308C55.8816 21.6491 55.5469 21.9391 55.2315 22.3024C54.9054 22.6733 54.6211 23.079 54.3838 23.5121C54.1457 23.9464 53.9549 24.4049 53.8148 24.8798C53.6827 25.3072 53.6135 25.7515 53.6094 26.1987C53.6094 26.651 53.7143 27.0136 53.924 27.2878C54.1338 27.5542 54.4571 27.687 54.8924 27.687C55.1992 27.687 55.4944 27.5987 55.776 27.4214C56.067 27.2433 56.3421 26.949 56.6 26.5383C56.7602 26.2906 56.914 25.9941 57.0627 25.648ZM56.0189 26.8765C55.8335 27.0459 55.6676 27.1306 55.5225 27.1306C55.401 27.1306 55.3084 27.0703 55.2437 26.949C55.1877 26.8197 55.1589 26.6065 55.1589 26.3078C55.1589 25.8799 55.2078 25.4406 55.3048 24.989C55.401 24.5367 55.5304 24.1016 55.692 23.6823C55.8615 23.2623 56.0469 22.8875 56.2487 22.5566C56.4506 22.2263 56.6525 21.9635 56.8543 21.7697C57.0641 21.5758 57.2617 21.4796 57.4477 21.4796C57.6417 21.4796 57.7782 21.5766 57.8594 21.7697C57.9398 21.9449 57.9599 22.1796 57.9219 22.4733L57.5641 23.7957L57.6051 23.5854C57.4758 24.1016 57.3227 24.5776 57.1453 25.0134C56.9671 25.4485 56.7818 25.8239 56.5878 26.1384C56.3939 26.4529 56.2042 26.6991 56.0189 26.8765Z" fill="#002101"/>
<path d="M50.3701 27.5175H48.8809L50.3334 22.3024C50.406 22.0604 50.4304 21.891 50.406 21.794C50.3823 21.6971 50.3097 21.649 50.1883 21.649C50.0353 21.649 49.8938 21.7258 49.7645 21.8788C49.6352 22.0317 49.5023 22.3024 49.3651 22.69L49.1589 23.2579H48.929L49.2436 22.3505C49.3572 22.0274 49.498 21.7783 49.6675 21.6002C49.837 21.415 50.0231 21.2857 50.225 21.2132C50.4261 21.1407 50.6323 21.1041 50.8428 21.1041C51.1007 21.1041 51.2903 21.1565 51.411 21.262C51.5394 21.365 51.6258 21.5113 51.6538 21.6734C51.6941 21.8429 51.702 22.0281 51.6776 22.2298C51.6617 22.4237 51.6294 22.6132 51.5806 22.7985L51.3866 23.5573L51.406 23.5049L51.4355 23.4281C51.6618 22.8552 51.8794 22.3993 52.0892 22.0604C52.3076 21.7136 52.5375 21.4674 52.7796 21.3224C53.0168 21.1783 53.2893 21.1027 53.5669 21.1041C53.8572 21.1041 54.0791 21.1888 54.2329 21.3583C54.3938 21.5277 54.475 21.7373 54.475 21.9879C54.475 22.1889 54.4261 22.3792 54.3291 22.5565C54.2352 22.7229 54.1023 22.864 53.9419 22.9679C53.7819 23.0665 53.5968 23.1168 53.4089 23.1129C53.2077 23.1129 53.0461 23.0605 52.9247 22.9557C52.8119 22.8509 52.7551 22.6972 52.7551 22.4962C52.7551 22.3181 52.7954 22.1573 52.8765 22.0116C52.957 21.8666 53.0619 21.7459 53.1912 21.649C53.3205 21.5442 53.4613 21.4717 53.6151 21.4308C53.598 21.4142 53.5774 21.4019 53.5547 21.3949C53.5386 21.3894 53.522 21.3858 53.5051 21.3841C53.4932 21.383 53.4812 21.3825 53.4692 21.3827C53.2925 21.3827 53.11 21.4473 52.9247 21.5765C52.7393 21.6971 52.5454 21.8953 52.3435 22.1695C52.1424 22.4438 51.9362 22.8064 51.7257 23.2579C51.489 23.7919 51.279 24.3372 51.0964 24.892C51.0051 25.1598 50.9132 25.4491 50.8212 25.7586L50.3701 27.5175Z" fill="#002101"/>
<path fill-rule="evenodd" clip-rule="evenodd" d="M48.1052 19.3983C47.7014 19.1075 47.0556 18.9625 46.1677 18.9625C45.8932 18.9625 45.6188 18.9668 45.3437 18.9747C45.0779 18.9826 44.7711 18.9869 44.4241 18.9869H43.8185C43.6001 18.9783 43.3947 18.9747 43.2007 18.9747C43.0393 18.9676 42.8779 18.9595 42.7165 18.9503L42.6562 19.1923C42.9708 19.1923 43.1849 19.2325 43.2977 19.3136C43.4191 19.3854 43.4751 19.4988 43.4672 19.6525C43.4509 19.8484 43.4185 20.0427 43.3702 20.2333L41.7718 26.2353C41.7 26.5254 41.6188 26.7437 41.5297 26.8887C41.4493 27.0274 41.3199 27.1311 41.1669 27.1794C41.0132 27.2275 40.7991 27.2599 40.5247 27.2757L40.4766 27.5176C40.6131 27.5104 40.779 27.5061 40.9723 27.5061C41.1662 27.4975 41.3724 27.4939 41.5901 27.4939C42.1994 27.4754 42.8093 27.4795 43.4184 27.5061C43.7496 27.5133 44.0527 27.5183 44.3271 27.5183C44.8516 27.5183 45.348 27.4652 45.8164 27.3604C46.2481 27.2625 46.661 27.0952 47.0391 26.865C47.3773 26.6636 47.6634 26.3858 47.8746 26.0537C48.0843 25.7306 48.1892 25.3523 48.1892 24.9165C48.1892 24.424 47.9881 24.0004 47.5843 23.6457C47.1892 23.2903 46.5628 23.0807 45.7072 23.0161C46.241 22.9395 46.7596 22.7803 47.2445 22.5444C47.6971 22.3103 48.052 22.0239 48.3106 21.685C48.5709 21.3632 48.712 20.9615 48.71 20.5478C48.71 20.0639 48.5096 19.6805 48.1052 19.3983ZM44.2402 23.174L43.4306 26.2353C43.3825 26.4364 43.3501 26.6144 43.3343 26.7673C43.3257 26.921 43.3659 27.038 43.455 27.1191C43.5441 27.1995 43.7093 27.2398 43.9514 27.2398C44.5247 27.2398 44.9931 27.1306 45.3559 26.9131C45.7113 26.7042 45.9945 26.3918 46.1677 26.0178C46.3451 25.6301 46.4335 25.1943 46.4335 24.7111C46.4335 24.4118 46.381 24.1497 46.2761 23.9243C46.1838 23.6952 46.0177 23.5035 45.8041 23.3793C45.5865 23.2422 45.2955 23.174 44.932 23.174H44.2402ZM44.2948 22.968H44.848C45.3077 22.968 45.6993 22.8509 46.0218 22.6169C46.353 22.3749 46.6037 22.0605 46.7733 21.6735C46.9498 21.2901 47.0405 20.8729 47.0391 20.4508C47.0391 20.0473 46.9586 19.7372 46.797 19.5189C46.6439 19.3014 46.3731 19.1923 45.9852 19.1923C45.7036 19.1923 45.5017 19.249 45.3803 19.3617C45.2596 19.4665 45.1547 19.6963 45.0656 20.0509L44.2948 22.968Z" fill="#002101"/>
</g>
<defs>
<clipPath id="clip0_462_1253">
<rect width="125" height="28" fill="white"/>
</clipPath>
</defs>
</svg>
