<svg width="108" height="28" viewBox="0 0 108 28" fill="none" xmlns="http://www.w3.org/2000/svg">
<g clip-path="url(#clip0_462_1118)">
<path d="M9.97112 21.0291C9.97084 21.0573 9.9707 21.0856 9.9707 21.114C9.9707 21.3314 9.97844 21.5447 9.99398 21.754H14.3248C14.2858 21.5515 14.2663 21.3382 14.2663 21.114C14.2663 21.0855 14.2667 21.0572 14.2673 21.0291H9.97112Z" fill="#454B45"/>
<path d="M4.68696 21.0291V21.754H0.578125V21.0291H4.68696Z" fill="#454B45"/>
<path d="M10.0098 20.2913H14.3686C14.424 20.0801 14.5021 19.879 14.6028 19.688C14.6265 19.6465 14.6512 19.606 14.6767 19.5663H10.1147C10.0686 19.8023 10.0337 20.0439 10.0098 20.2913Z" fill="#454B45"/>
<path d="M4.68696 19.5663V20.2913H0.578125V19.5663H4.68696Z" fill="#454B45"/>
<path d="M9.58686 18.8285C9.41518 18.6637 9.17639 18.5374 8.87051 18.4497C8.53431 18.3621 8.055 18.3183 7.43243 18.3183H4.68696V18.8285H0.578125V18.1035H9.80432V18.8285H9.58686Z" fill="#454B45"/>
<path d="M10.3008 18.8285H15.3902C15.4495 18.7877 15.5108 18.7489 15.5742 18.7123C15.9851 18.4747 16.4582 18.3558 16.9936 18.3558C17.529 18.3558 17.996 18.4747 18.3944 18.7123C18.4578 18.7489 18.519 18.7877 18.5779 18.8285H23.6556C23.6016 18.6615 23.5412 18.4977 23.4744 18.3371C23.4428 18.2582 23.4099 18.1804 23.3757 18.1035H10.5775C10.5423 18.1804 10.5083 18.2582 10.4755 18.3371C10.4111 18.4977 10.3528 18.6615 10.3008 18.8285Z" fill="#454B45"/>
<path d="M10.9727 17.3659H22.9914C22.8366 17.1111 22.6652 16.8693 22.477 16.6409H11.4925C11.3033 16.8693 11.13 17.1111 10.9727 17.3659Z" fill="#454B45"/>
<path d="M12.2148 15.9031H21.7588C21.4461 15.6302 21.1066 15.3885 20.7402 15.178H13.2376C12.8727 15.3885 12.5318 15.6302 12.2148 15.9031Z" fill="#454B45"/>
<path d="M9.80562 15.178V15.903H0.504934C0.484265 15.7774 0.459284 15.6631 0.430007 15.5601C0.393088 15.417 0.346098 15.2896 0.289062 15.178H9.80562Z" fill="#454B45"/>
<path d="M28.3224 15.178C28.3048 15.1864 28.2872 15.195 28.2697 15.2036C27.8617 15.4062 27.4867 15.6393 27.1445 15.903H36.3306C36.333 15.8949 36.3355 15.8869 36.338 15.8791C36.4251 15.6039 36.5621 15.3912 36.7489 15.2411V15.178H28.3224Z" fill="#454B45"/>
<path d="M40.1946 15.178C39.8297 15.3885 39.4888 15.6302 39.1719 15.903H48.7159C48.4032 15.6302 48.0636 15.3885 47.6973 15.178H40.1946Z" fill="#454B45"/>
<path d="M68.9902 15.178H74.8251C75.0446 15.2963 75.2473 15.43 75.4334 15.5788C75.5609 15.6818 75.6786 15.79 75.788 15.903H68.9902V15.178Z" fill="#454B45"/>
<path d="M57.2852 15.178H61.9811C61.9237 15.2838 61.8724 15.4049 61.8271 15.5413C61.792 15.6472 61.7623 15.7677 61.7382 15.903H57.485C57.4669 15.7774 57.445 15.6631 57.4194 15.5601C57.3825 15.417 57.3377 15.2896 57.2852 15.178Z" fill="#454B45"/>
<path d="M51.7129 15.178H56.3517C56.2991 15.2896 56.2544 15.417 56.2175 15.5601C56.1918 15.6631 56.1699 15.7774 56.1519 15.903H51.9127C51.8946 15.7774 51.8728 15.6631 51.8472 15.5601C51.8102 15.417 51.7655 15.2896 51.7129 15.178Z" fill="#454B45"/>
<path d="M49.434 16.6409H38.4496C38.2602 16.8693 38.087 17.1111 37.9297 17.3659H49.9484C49.7937 17.1111 49.6221 16.8693 49.434 16.6409Z" fill="#454B45"/>
<path d="M51.9782 17.3659V17.0049C51.9782 16.878 51.9763 16.7566 51.9727 16.6409H56.0927C56.089 16.7566 56.0871 16.878 56.0871 17.0049V17.3659H51.9782Z" fill="#454B45"/>
<path d="M50.3327 18.1035H37.5346C37.4994 18.1804 37.4653 18.2582 37.4326 18.337C37.3681 18.4977 37.3099 18.6615 37.2578 18.8285H42.3473C42.4066 18.7877 42.4679 18.7489 42.5312 18.7122C42.9421 18.4747 43.4153 18.3558 43.9507 18.3558C44.4861 18.3558 44.953 18.4747 45.3514 18.7122C45.4148 18.7489 45.476 18.7877 45.5349 18.8285H50.6126C50.5587 18.6615 50.4983 18.4977 50.4314 18.337C50.3998 18.2582 50.3669 18.1804 50.3327 18.1035Z" fill="#454B45"/>
<path d="M51.9766 18.8285V18.1035H56.0854V18.8285H51.9766Z" fill="#454B45"/>
<path d="M50.8062 19.5663H46.2344C46.2588 19.6059 46.2822 19.6465 46.3048 19.688C46.411 19.8789 46.4934 20.0801 46.5519 20.2913H50.915C50.8902 20.0439 50.8539 19.8022 50.8062 19.5663Z" fill="#454B45"/>
<path d="M51.9766 20.2913V19.5663H56.0854V20.2913H51.9766Z" fill="#454B45"/>
<path d="M50.9545 21.0291H46.6583C46.659 21.0572 46.6593 21.0855 46.6593 21.114C46.6593 21.3382 46.6388 21.5515 46.5977 21.754H50.9308C50.9469 21.5447 50.9549 21.3314 50.9549 21.114C50.9549 21.0856 50.9548 21.0573 50.9545 21.0291Z" fill="#454B45"/>
<path d="M51.9766 21.754V21.0291H56.0854V21.754H51.9766Z" fill="#454B45"/>
<path d="M50.839 22.4918H46.3322C46.3234 22.508 46.3144 22.524 46.3053 22.54C46.1638 22.8005 45.9853 23.0261 45.7695 23.2168H50.6702C50.7388 22.9813 50.7951 22.7398 50.839 22.4918Z" fill="#454B45"/>
<path d="M51.9766 23.2168V22.4918H56.0854V23.2168H51.9766Z" fill="#454B45"/>
<path d="M50.4071 23.9545H37.4609C37.5685 24.2065 37.6888 24.4481 37.8215 24.6795H50.0558C50.186 24.4481 50.3031 24.2065 50.4071 23.9545Z" fill="#454B45"/>
<path d="M51.9766 24.6795V23.9545H56.0854V24.6795H51.9766Z" fill="#454B45"/>
<path d="M49.5678 25.4172H38.3125C38.4895 25.6464 38.6817 25.8631 38.8891 26.0674C38.9152 26.0926 38.9415 26.1175 38.968 26.1422H48.9159C48.9418 26.1175 48.9676 26.0926 48.9931 26.0674C49.2006 25.8631 49.3921 25.6464 49.5678 25.4172Z" fill="#454B45"/>
<path d="M51.9336 26.1422C51.9569 25.9303 51.9707 25.6887 51.9751 25.4172H56.087C56.0914 25.6887 56.1053 25.9303 56.1285 26.1422H51.9336Z" fill="#454B45"/>
<path d="M47.9769 26.88H39.916C40.288 27.1192 40.6868 27.3237 41.1122 27.4934C41.9714 27.8312 42.9176 28 43.9511 28C44.9721 28 45.9121 27.8312 46.7712 27.4934C47.203 27.3237 47.6049 27.1192 47.9769 26.88Z" fill="#454B45"/>
<path d="M35.2913 26.1422V25.4172H26.1777C26.3978 25.6792 26.6406 25.9208 26.9064 26.1422H35.2913Z" fill="#454B45"/>
<path d="M28.0156 26.88H35.2925V27.8312C35.0186 27.7436 34.7446 27.6998 34.4707 27.6998C34.2839 27.6998 34.0162 27.7248 33.6676 27.7749C33.3315 27.8249 32.9392 27.8499 32.491 27.8499C30.8848 27.8499 29.5028 27.581 28.3448 27.0431C28.2325 26.991 28.1229 26.9366 28.0156 26.88Z" fill="#454B45"/>
<path d="M21.9588 26.1423C21.9848 26.1176 22.0105 26.0926 22.0361 26.0674C22.2435 25.8632 22.4351 25.6465 22.6107 25.4173H11.3555C11.5324 25.6465 11.7247 25.8632 11.9321 26.0674C11.9582 26.0926 11.9844 26.1176 12.0109 26.1423H21.9588Z" fill="#454B45"/>
<path d="M12.959 26.88H21.0198C20.6478 27.1192 20.2459 27.3237 19.8142 27.4934C18.9551 27.8312 18.0151 28 16.9941 28C15.9606 28 15.0143 27.8312 14.1552 27.4934C13.7298 27.3237 13.331 27.1192 12.959 26.88Z" fill="#454B45"/>
<path d="M4.73825 26.1422C4.71053 25.9307 4.69408 25.689 4.68885 25.4172H0.576662C0.572268 25.6887 0.558438 25.9303 0.535156 26.1422H4.73825Z" fill="#454B45"/>
<path d="M0.380352 26.88H4.92909C5.03052 27.1192 5.15576 27.2987 5.30476 27.4184V27.5873H0.0566406V27.4184C0.190082 27.2939 0.297991 27.1144 0.380352 26.88Z" fill="#454B45"/>
<path d="M0.578125 24.6795H4.68696V23.9545H0.578125V24.6795Z" fill="#454B45"/>
<path d="M0.578125 23.2168H4.68696V22.4918H0.578125V23.2168Z" fill="#454B45"/>
<path d="M10.084 22.4918C10.1263 22.7397 10.1806 22.9813 10.2468 23.2168H15.155C14.9364 23.0261 14.7524 22.8004 14.6031 22.5399C14.5945 22.524 14.586 22.5079 14.5776 22.4918H10.084Z" fill="#454B45"/>
<path d="M19.3733 22.4918C19.3645 22.508 19.3555 22.524 19.3464 22.54C19.205 22.8005 19.0263 23.0261 18.8105 23.2168H23.7112C23.7799 22.9813 23.8362 22.7398 23.8801 22.4918H19.3733Z" fill="#454B45"/>
<path d="M24.8574 22.4918C24.9003 22.7415 24.955 22.9831 25.0212 23.2168H30.0097C29.7831 23.0414 29.5951 22.8346 29.446 22.5963C29.4246 22.562 29.4039 22.5271 29.3842 22.4918H24.8574Z" fill="#454B45"/>
<path d="M29.1101 21.754H24.7673C24.7492 21.5219 24.7402 21.2835 24.7402 21.039C24.7402 21.0356 24.7402 21.0323 24.7402 21.0291H29.0358C29.0364 21.2862 29.0611 21.5279 29.1101 21.754Z" fill="#454B45"/>
<path d="M36.6575 21.754H31.9414C32.0735 21.5926 32.1757 21.3668 32.248 21.0765C32.252 21.061 32.2559 21.0452 32.2597 21.0291H36.3263C36.3302 21.0452 36.3341 21.061 36.3381 21.0765C36.4104 21.3668 36.5168 21.5926 36.6575 21.754Z" fill="#454B45"/>
<path d="M37.041 22.4918C37.0833 22.7398 37.1376 22.9813 37.2038 23.2168H42.1121C41.8934 23.0261 41.7095 22.8005 41.5602 22.54C41.5515 22.524 41.543 22.508 41.5347 22.4918H37.041Z" fill="#454B45"/>
<path d="M41.2838 21.754H36.9529C36.9374 21.5447 36.9297 21.3314 36.9297 21.114C36.9297 21.0856 36.9298 21.0573 36.9301 21.0291H41.2263C41.2256 21.0572 41.2253 21.0855 41.2253 21.114C41.2253 21.3382 41.2448 21.5515 41.2838 21.754Z" fill="#454B45"/>
<path d="M41.3276 20.2913C41.383 20.0801 41.4611 19.879 41.5617 19.688C41.5855 19.6465 41.6102 19.606 41.6357 19.5663H37.0737C37.0276 19.8023 36.9926 20.0439 36.9688 20.2913H41.3276Z" fill="#454B45"/>
<path d="M36.227 20.2913C36.214 20.0929 36.2075 19.873 36.2075 19.6317V19.5663H32.3788V19.6317C32.3788 19.873 32.3723 20.0929 32.3594 20.2913H36.227Z" fill="#454B45"/>
<path d="M29.1094 20.2913C29.1653 20.0321 29.253 19.7905 29.3724 19.5663H24.8782C24.8315 19.8015 24.7966 20.0432 24.7734 20.2913H29.1094Z" fill="#454B45"/>
<path d="M23.9579 20.2913C23.9331 20.0439 23.8968 19.8023 23.8491 19.5663H19.2773C19.3017 19.606 19.3251 19.6465 19.3476 19.688C19.4539 19.879 19.5363 20.0801 19.5948 20.2913H23.9579Z" fill="#454B45"/>
<path d="M19.7012 21.0291C19.7019 21.0572 19.7023 21.0855 19.7023 21.114C19.7023 21.3382 19.6817 21.5515 19.6406 21.754H23.9738C23.9899 21.5447 23.9979 21.3314 23.9979 21.114C23.9979 21.0856 23.9978 21.0573 23.9975 21.0291H19.7012Z" fill="#454B45"/>
<path d="M25.0703 18.8285H29.9962C30.1461 18.7066 30.3114 18.5991 30.4918 18.506C30.965 18.2808 31.5191 18.1682 32.1541 18.1682C32.2293 18.1682 32.304 18.169 32.3782 18.1705V18.8285H36.2069V18.1035H25.3595C25.2481 18.3371 25.1517 18.5788 25.0703 18.8285Z" fill="#454B45"/>
<path d="M25.7793 17.3658H36.207V17.1737C36.207 16.9789 36.2118 16.8013 36.2214 16.6408H26.3438C26.1388 16.8669 25.9506 17.1085 25.7793 17.3658Z" fill="#454B45"/>
<path d="M35.2924 23.9545H25.2812C25.3887 24.207 25.512 24.4487 25.6514 24.6795H35.2924V23.9545Z" fill="#454B45"/>
<path d="M23.0968 24.6795C23.2271 24.4481 23.3442 24.2065 23.4482 23.9545H10.502C10.6096 24.2065 10.7299 24.4481 10.8626 24.6795H23.0968Z" fill="#454B45"/>
<path d="M51.7788 26.88H56.2861C56.3684 27.1144 56.4764 27.2939 56.6098 27.4184V27.5873H51.4551V27.4184C51.5885 27.2939 51.6964 27.1144 51.7788 26.88Z" fill="#454B45"/>
<path d="M57.3297 26.88C57.2429 27.1144 57.1232 27.2939 56.9707 27.4184V27.5873H62.9659C64.0864 27.5873 65.0452 27.4058 65.8421 27.0431C65.9601 26.9921 66.0741 26.9377 66.1841 26.88H57.3297Z" fill="#454B45"/>
<path d="M70.2598 26.88C71.1231 27.4516 72.2804 27.7373 73.7332 27.7373C74.0697 27.7373 74.3742 27.7185 74.6487 27.681C74.9226 27.6435 75.1281 27.6247 75.2647 27.6247C75.4765 27.6247 75.7071 27.6686 75.9559 27.7561V26.88H70.2598Z" fill="#454B45"/>
<path d="M75.9557 26.1422H69.4357C69.2547 25.9195 69.1076 25.6778 68.9941 25.4172H75.9557V26.1422Z" fill="#454B45"/>
<path d="M77.2654 26.88C77.1832 27.1144 77.0752 27.2939 76.9414 27.4184V27.5873H82.078V27.4184C81.9442 27.2939 81.8362 27.1144 81.754 26.88H77.2654Z" fill="#454B45"/>
<path d="M81.6109 26.1422H77.4219C77.4456 25.9303 77.4588 25.6887 77.4637 25.4172H81.5753C81.5788 25.6887 81.5907 25.9303 81.6109 26.1422Z" fill="#454B45"/>
<path d="M83.8283 26.88C83.751 27.1144 83.6409 27.2939 83.498 27.4184V27.5873H88.6528V27.4184C88.5099 27.2939 88.3957 27.1144 88.3114 26.88H83.8283Z" fill="#454B45"/>
<path d="M88.153 26.1423H83.9766C84.0003 25.9304 84.0142 25.6887 84.0184 25.4173H88.1119C88.1161 25.6887 88.13 25.9304 88.153 26.1423Z" fill="#454B45"/>
<path d="M89.2446 26.88C89.1484 27.1164 89.0209 27.2958 88.8613 27.4184V27.5873H93.3625V27.4559C93.2559 27.2667 93.1974 27.0747 93.1883 26.88H89.2446Z" fill="#454B45"/>
<path d="M93.3936 26.1422H89.4199C89.4464 25.9316 89.4638 25.69 89.4715 25.4172H94.0346L93.7727 25.6734C93.6138 25.8329 93.4877 25.9892 93.3936 26.1422Z" fill="#454B45"/>
<path d="M99.2307 26.88C99.2182 27.0745 99.1603 27.2664 99.0586 27.4559V27.5873H103.503V27.4184C103.354 27.2958 103.228 27.1164 103.127 26.88H99.2307Z" fill="#454B45"/>
<path d="M102.945 26.1422H99.0553C98.9591 25.9735 98.8232 25.8046 98.6483 25.6358L98.4316 25.4172H102.893C102.901 25.69 102.919 25.9316 102.945 26.1422Z" fill="#454B45"/>
<path d="M102.887 24.6795V23.9545H96.9824L97.7001 24.6795H102.887Z" fill="#454B45"/>
<path d="M94.7886 24.6795L95.5293 23.9545H89.4785V24.6795H94.7886Z" fill="#454B45"/>
<path d="M88.1096 24.6795V23.9545H84.0195V24.6795H88.1096Z" fill="#454B45"/>
<path d="M81.5737 24.6795V23.9545H77.4648V24.6795H81.5737Z" fill="#454B45"/>
<path d="M75.9556 24.6795V23.9545H75.472C75.4323 23.9828 75.3912 24.0092 75.3494 24.0336C75.2978 24.0642 75.2449 24.0916 75.1898 24.116C75.1229 24.1449 75.0449 24.1701 74.9557 24.1915C74.9459 24.1939 74.9355 24.1962 74.9257 24.1985C74.9083 24.2024 74.8902 24.2062 74.8721 24.2098C74.7599 24.2473 74.6359 24.2661 74.4986 24.2661C74.2122 24.2661 73.9886 24.1974 73.8262 24.0597C73.7872 24.0261 73.7524 23.9911 73.7224 23.9545H68.709C68.7094 24.2077 68.7305 24.4494 68.7722 24.6795H75.9556Z" fill="#454B45"/>
<path d="M68.1263 24.6795C68.2052 24.4503 68.2645 24.2086 68.3038 23.9545H63.5571C63.3079 24.0747 62.9923 24.1349 62.6102 24.1349H61.6576V23.9545H57.5488V24.6795H68.1263Z" fill="#454B45"/>
<path d="M57.5475 25.4172C57.5424 25.6887 57.5266 25.9303 57.5 26.1422H67.2031C67.3931 25.9538 67.5618 25.7474 67.7092 25.5233C67.7326 25.4883 67.7555 25.4529 67.7776 25.4172H57.5475Z" fill="#454B45"/>
<path d="M57.5488 23.2168H61.6576V22.4918H57.5488V23.2168Z" fill="#454B45"/>
<path d="M57.5488 21.754H61.6576V21.0291H57.5488V21.754Z" fill="#454B45"/>
<path d="M57.5488 20.2913H67.4817C67.2936 20.0358 67.0742 19.7942 66.8234 19.5663H57.5488V20.2913Z" fill="#454B45"/>
<path d="M57.5488 18.8285H65.8161C65.3624 18.562 64.8421 18.3203 64.2551 18.1035H57.5488V18.8285Z" fill="#454B45"/>
<path d="M57.5505 17.3659H61.831L61.6593 17.3163V17.0049C61.6593 16.8776 61.6615 16.7562 61.666 16.6409H57.5449C57.5487 16.7566 57.5505 16.878 57.5505 17.0049V17.3659Z" fill="#454B45"/>
<path d="M68.9902 16.6409V17.3659H76.6367C76.5621 17.1096 76.4625 16.8679 76.3364 16.6409H68.9902Z" fill="#454B45"/>
<path d="M78.0732 16.6409C77.9505 16.8683 77.8467 17.11 77.7617 17.3659H87.8141C87.7284 17.11 87.6246 16.8683 87.5019 16.6409H78.0732Z" fill="#454B45"/>
<path d="M89.4727 16.6409C89.4768 16.7566 89.4782 16.878 89.4782 17.0049V17.3659H93.4749V17.0049C93.4749 16.878 93.477 16.7566 93.4805 16.6409H89.4727Z" fill="#454B45"/>
<path d="M93.5399 15.9031H89.4129C89.3948 15.7774 89.3724 15.6631 89.3474 15.5602C89.3104 15.4171 89.2651 15.2897 89.2129 15.178H93.7398C93.6869 15.2897 93.6423 15.4171 93.6054 15.5602C93.5796 15.6631 93.558 15.7774 93.5399 15.9031Z" fill="#454B45"/>
<path d="M98.9043 16.6409C98.9085 16.7566 98.9099 16.878 98.9099 17.0049V17.3659H102.888V17.0049C102.888 16.878 102.89 16.7566 102.894 16.6409H98.9043Z" fill="#454B45"/>
<path d="M102.952 15.903H98.8441C98.826 15.7774 98.8044 15.6631 98.7786 15.5601C98.7417 15.417 98.6957 15.2896 98.6406 15.178H103.156C103.101 15.2896 103.055 15.417 103.018 15.5601C102.993 15.6631 102.97 15.7774 102.952 15.903Z" fill="#454B45"/>
<path d="M86.2355 15.178H79.3472C79.0567 15.3888 78.7975 15.6305 78.5703 15.903H87.0138C86.7881 15.6305 86.5289 15.3888 86.2355 15.178Z" fill="#454B45"/>
<path d="M102.889 18.1035H98.9102V18.8285H102.889V18.1035Z" fill="#454B45"/>
<path d="M102.889 19.5663H98.9102V20.2913H102.889V19.5663Z" fill="#454B45"/>
<path d="M102.889 21.0291H98.91V21.1058L98.8327 21.0291H89.4785V21.754H102.889V21.0291Z" fill="#454B45"/>
<path d="M102.889 22.4918H89.4785V23.2168H102.889V22.4918Z" fill="#454B45"/>
<path d="M88.1096 23.2168V22.4918H84.0195V23.2168H88.1096Z" fill="#454B45"/>
<path d="M81.5737 23.2168V22.4918H77.4648V23.2168H81.5737Z" fill="#454B45"/>
<path d="M73.6685 23.2168C73.6915 23.1716 73.7194 23.1274 73.7514 23.0842C73.8761 22.9465 74.0754 22.7652 74.3492 22.54L74.414 22.4918H69.0023C68.9026 22.7277 68.8282 22.9694 68.7793 23.2168H73.6685Z" fill="#454B45"/>
<path d="M68.3621 23.2168C68.3623 23.1977 68.3624 23.1785 68.3624 23.1592C68.3624 22.9301 68.35 22.7076 68.3251 22.4918H64.1719C64.2014 22.613 64.2163 22.7417 64.2163 22.8777C64.2163 22.9995 64.2036 23.1125 64.1783 23.2168H68.3621Z" fill="#454B45"/>
<path d="M63.7122 21.754H68.1853C68.1168 21.5018 68.0286 21.2601 67.9207 21.0291H62.0684L62.181 21.0578C62.877 21.2417 63.3874 21.4739 63.7122 21.754Z" fill="#454B45"/>
<path d="M70.0802 21.0291C69.8259 21.2552 69.6057 21.4968 69.4199 21.754H75.3373C75.5547 21.5494 75.7484 21.3361 75.9178 21.114C75.9394 21.0858 75.9603 21.0575 75.9812 21.0291H70.0802Z" fill="#454B45"/>
<path d="M77.4648 21.0291V21.754H81.5737V21.0291H77.4648Z" fill="#454B45"/>
<path d="M81.5737 20.2913H77.4648V19.5663H81.58C81.5758 19.6296 81.5737 19.6952 81.5737 19.7631V20.2913Z" fill="#454B45"/>
<path d="M84.0195 21.0291V21.754H88.1096V21.0291H84.0195Z" fill="#454B45"/>
<path d="M88.11 20.2913H84.0199V19.763C84.0199 19.6951 84.0179 19.6296 84.0137 19.5663H88.11V20.2913Z" fill="#454B45"/>
<path d="M89.4785 20.2913H93.4752V19.5663H89.4785V20.2913Z" fill="#454B45"/>
<path d="M89.4785 18.8285H93.4752V18.1035H89.4785V18.8285Z" fill="#454B45"/>
<path d="M88.0016 18.1035H77.573C77.5298 18.3356 77.4998 18.5772 77.4824 18.8285H81.7697C81.8003 18.7733 81.8345 18.722 81.8721 18.6748C82.0839 18.4246 82.3884 18.2995 82.787 18.2995C83.1855 18.2995 83.4907 18.4246 83.7025 18.6748C83.7422 18.722 83.7785 18.7733 83.8105 18.8285H88.0915C88.0741 18.5772 88.0441 18.3356 88.0016 18.1035Z" fill="#454B45"/>
<path d="M76.7878 18.8285C76.7927 18.7407 76.7955 18.6518 76.7955 18.5622C76.7955 18.4053 76.7885 18.2523 76.7739 18.1035H71.5098C71.5927 18.1413 71.6672 18.1879 71.7341 18.2432C71.9376 18.4022 72.0491 18.5974 72.0679 18.8285H76.7878Z" fill="#454B45"/>
<path d="M71.8327 19.5663C71.8257 19.5757 71.8181 19.5849 71.8104 19.5941C71.6641 19.7733 71.4063 20.0057 71.0391 20.2913H76.4189C76.4767 20.1676 76.5282 20.0414 76.5728 19.9131C76.6133 19.7993 76.6481 19.6837 76.6774 19.5663H71.8327Z" fill="#454B45"/>
<path d="M70.1086 18.1035H68.9902V18.7498H69.1396L69.4198 18.4684C69.5194 18.3933 69.6252 18.3307 69.7372 18.2808C69.8501 18.2145 69.9741 18.1555 70.1086 18.1035Z" fill="#454B45"/>
<path d="M94.9791 19.5663L94.1562 20.2913H98.084L97.3496 19.5663H94.9791Z" fill="#454B45"/>
<path d="M96.6031 18.8285H95.8164L96.1829 18.506H96.2763L96.6031 18.8285Z" fill="#454B45"/>
<path d="M0.572266 16.6408H9.80487V17.3658H0.578677V17.0049C0.578677 16.8779 0.576549 16.7565 0.572266 16.6408Z" fill="#454B45"/>
<path d="M106.073 0C105.841 0 105.627 0.0394681 105.434 0.118404C105.238 0.194305 105.067 0.303601 104.922 0.446293C104.777 0.585949 104.665 0.751408 104.587 0.942676C104.508 1.13395 104.469 1.34343 104.469 1.57113C104.469 1.79883 104.508 2.00831 104.587 2.19958C104.665 2.39085 104.777 2.55783 104.922 2.70052C105.067 2.84018 105.238 2.94948 105.434 3.02842C105.627 3.10431 105.841 3.14226 106.073 3.14226C106.303 3.14226 106.517 3.10431 106.713 3.02842C106.909 2.94948 107.08 2.84018 107.225 2.70052C107.37 2.55783 107.482 2.39085 107.56 2.19958C107.639 2.00831 107.678 1.79883 107.678 1.57113C107.678 1.34343 107.639 1.13395 107.56 0.942676C107.482 0.751408 107.37 0.585949 107.225 0.446293C107.08 0.303601 106.909 0.194305 106.713 0.118404C106.517 0.0394681 106.303 0 106.073 0ZM105.475 2.55935C105.303 2.46523 105.17 2.33317 105.076 2.16315C104.982 1.99314 104.936 1.79579 104.936 1.57113C104.936 1.34343 104.982 1.14609 105.076 0.979111C105.17 0.809095 105.303 0.677029 105.475 0.582913C105.644 0.488797 105.844 0.441738 106.073 0.441738C106.3 0.441738 106.5 0.488797 106.672 0.582913C106.841 0.677029 106.974 0.809095 107.071 0.979111C107.165 1.14609 107.211 1.34343 107.211 1.57113C107.211 1.79579 107.165 1.99314 107.071 2.16315C106.974 2.33317 106.841 2.46523 106.672 2.55935C106.5 2.65347 106.3 2.70052 106.073 2.70052C105.844 2.70052 105.644 2.65347 105.475 2.55935ZM105.598 1.307H105.63C105.65 1.28271 105.68 1.26297 105.72 1.2478C105.747 1.23869 105.78 1.23413 105.82 1.23413C105.874 1.23413 105.924 1.2478 105.97 1.27512C106.011 1.30245 106.045 1.33888 106.069 1.38442C106.093 1.42996 106.105 1.48309 106.105 1.54381C106.105 1.64096 106.08 1.7199 106.028 1.78062C105.974 1.84134 105.903 1.8717 105.815 1.8717C105.77 1.8717 105.731 1.86259 105.697 1.84437C105.683 1.83527 105.669 1.82616 105.657 1.81705C105.641 1.80491 105.631 1.79428 105.625 1.78517H105.593V2.40451C105.621 2.41666 105.658 2.42577 105.706 2.43184C105.752 2.43791 105.8 2.44095 105.851 2.44095C106.039 2.44095 106.205 2.40451 106.35 2.33165C106.492 2.25575 106.604 2.15101 106.685 2.01743C106.767 1.8808 106.808 1.72445 106.808 1.54836C106.808 1.37531 106.77 1.22199 106.694 1.08841C106.619 0.954821 106.513 0.851599 106.377 0.778736C106.241 0.702835 106.087 0.664885 105.915 0.664885C105.873 0.664885 105.837 0.666403 105.806 0.669439C105.776 0.672475 105.749 0.673993 105.724 0.673993C105.679 0.673993 105.637 0.669439 105.598 0.660331V1.307Z" fill="#454B45"/>
<path fill-rule="evenodd" clip-rule="evenodd" d="M10.475 10.9445C10.1388 10.1064 9.9707 9.18076 9.9707 8.16751C9.9707 7.15433 10.1388 6.22867 10.475 5.39059C10.8236 4.55251 11.3092 3.82701 11.9317 3.21408C12.5667 2.60115 13.3076 2.12583 14.1542 1.78809C15.0133 1.45036 15.9596 1.28149 16.9931 1.28149C18.0141 1.28149 18.9541 1.45036 19.8133 1.78809C20.6724 2.12583 21.4132 2.60115 22.0358 3.21408C22.6583 3.82701 23.1376 4.55251 23.4738 5.39059C23.8224 6.22867 23.9968 7.15433 23.9968 8.16751C23.9968 9.18076 23.8224 10.1064 23.4738 10.9445C23.1376 11.7825 22.6583 12.508 22.0358 13.121C21.4132 13.7339 20.6724 14.2092 19.8133 14.547C18.9541 14.8847 18.0141 15.0535 16.9931 15.0535C15.9596 15.0535 15.0133 14.8847 14.1542 14.547C13.3076 14.2092 12.5667 13.7339 11.9317 13.121C11.3092 12.508 10.8236 11.7825 10.475 10.9445ZM19.7012 8.16751C19.7012 7.62963 19.5829 7.15433 19.3463 6.74153C19.1222 6.32875 18.8047 6.00352 18.3938 5.76585C17.9954 5.52819 17.5285 5.40936 16.9931 5.40936C16.4577 5.40936 15.9846 5.52819 15.5737 5.76585C15.1628 6.00352 14.8391 6.32875 14.6024 6.74153C14.3784 7.15433 14.2663 7.62963 14.2663 8.16751C14.2663 8.69286 14.3784 9.16823 14.6024 9.59348C14.8391 10.0063 15.1628 10.3315 15.5737 10.5692C15.9846 10.8069 16.4577 10.9257 16.9931 10.9257C17.5285 10.9257 17.9954 10.8069 18.3938 10.5692C18.8047 10.3315 19.1222 10.0063 19.3463 9.59348C19.5829 9.16823 19.7012 8.69286 19.7012 8.16751Z" fill="#454B45"/>
<path d="M7.43326 10.9633H4.68781V4.05845C4.68781 3.42051 4.74384 2.93267 4.8559 2.59493C4.96796 2.2572 5.11737 2.01328 5.30414 1.86317V1.69431H0.0560296V1.86317C0.230344 2.02579 0.36108 2.28221 0.448237 2.63246C0.535394 2.9702 0.578973 3.44552 0.578973 4.05845V12.2767C0.578973 12.8896 0.529169 13.3711 0.429561 13.7214C0.342403 14.0592 0.199217 14.3093 0 14.4719V14.6408H8.18034C8.47918 14.6408 8.77176 14.6533 9.05813 14.6783C9.34451 14.7034 9.59353 14.7471 9.80521 14.8096V10.3816H9.65576C9.48149 10.5817 9.21999 10.7318 8.87133 10.8319C8.5352 10.9194 8.05582 10.9633 7.43326 10.9633Z" fill="#454B45"/>
<path d="M32.2482 8.20507C32.3354 8.54282 32.3789 9.02442 32.3789 9.64987V11.1111C32.3047 11.1126 32.23 11.1134 32.1548 11.1134C31.5198 11.1134 30.9657 11.0008 30.4926 10.7756C30.0319 10.538 29.6708 10.2065 29.4093 9.78119C29.1604 9.34341 29.0358 8.83675 29.0358 8.26135C29.0358 7.64843 29.1728 7.12308 29.4467 6.68529C29.7206 6.24748 30.1253 5.916 30.6607 5.69085C31.2085 5.45318 31.8746 5.33435 32.6591 5.33435C32.9828 5.33435 33.2692 5.35311 33.5182 5.39064C33.7796 5.42816 34.0163 5.48445 34.2279 5.55951C34.3898 5.60954 34.5454 5.67834 34.6948 5.7659C34.8567 5.84095 34.9999 5.93477 35.1244 6.04734H35.2925V1.45041C35.0186 1.53796 34.7446 1.58175 34.4707 1.58175C34.284 1.58175 34.0162 1.55673 33.6676 1.50669C33.3314 1.45666 32.9392 1.43164 32.491 1.43164C30.8848 1.43164 29.5028 1.70058 28.3448 2.23845C27.1868 2.77633 26.2966 3.55186 25.6741 4.56506C25.0515 5.57827 24.7402 6.80412 24.7402 8.24259C24.7402 9.58106 25.0515 10.7506 25.6741 11.7513C26.2966 12.752 27.1619 13.5275 28.2701 14.0779C29.3906 14.6283 30.6918 14.9035 32.1735 14.9035C32.9828 14.9035 33.7797 14.8472 34.5641 14.7346C35.3485 14.622 36.0769 14.4469 36.7492 14.2093V14.0404C36.5625 13.8903 36.4255 13.6777 36.3383 13.4024C36.2512 13.1273 36.2076 12.6957 36.2076 12.1078V9.64987C36.2076 9.02442 36.2512 8.54282 36.3383 8.20507C36.4255 7.85486 36.5625 7.59845 36.7492 7.43584V7.26693H31.856V7.43584C32.0303 7.59845 32.161 7.85486 32.2482 8.20507Z" fill="#454B45"/>
<path fill-rule="evenodd" clip-rule="evenodd" d="M37.4339 10.9445C37.0978 10.1064 36.9297 9.18076 36.9297 8.16751C36.9297 7.15433 37.0978 6.22867 37.4339 5.39059C37.7825 4.55251 38.2682 3.82701 38.8907 3.21408C39.5257 2.60115 40.2665 2.12583 41.1132 1.78809C41.9723 1.45036 42.9186 1.28149 43.9521 1.28149C44.973 1.28149 45.9131 1.45036 46.7723 1.78809C47.6313 2.12583 48.3722 2.60115 48.9948 3.21408C49.6172 3.82701 50.0966 4.55251 50.4328 5.39059C50.7814 6.22867 50.9558 7.15433 50.9558 8.16751C50.9558 9.18076 50.7814 10.1064 50.4328 10.9445C50.0966 11.7825 49.6172 12.508 48.9948 13.121C48.3722 13.7339 47.6313 14.2092 46.7723 14.547C45.9131 14.8847 44.973 15.0535 43.9521 15.0535C42.9186 15.0535 41.9723 14.8847 41.1132 14.547C40.2665 14.2092 39.5257 13.7339 38.8907 13.121C38.2682 12.508 37.7825 11.7825 37.4339 10.9445ZM46.6601 8.16751C46.6601 7.62963 46.5419 7.15433 46.3053 6.74153C46.0812 6.32875 45.7637 6.00352 45.3528 5.76585C44.9544 5.52819 44.4875 5.40936 43.9521 5.40936C43.4167 5.40936 42.9435 5.52819 42.5327 5.76585C42.1218 6.00352 41.798 6.32875 41.5614 6.74153C41.3373 7.15433 41.2253 7.62963 41.2253 8.16751C41.2253 8.69286 41.3373 9.16823 41.5614 9.59348C41.798 10.0063 42.1218 10.3315 42.5327 10.5692C42.9435 10.8069 43.4167 10.9257 43.9521 10.9257C44.4875 10.9257 44.9544 10.8069 45.3528 10.5692C45.7637 10.3315 46.0812 10.0063 46.3053 9.59348C46.5419 9.16823 46.6601 8.69286 46.6601 8.16751Z" fill="#454B45"/>
<path d="M51.8473 2.63249C51.9345 2.97023 51.978 3.44555 51.978 4.05848V12.2767C51.978 12.8896 51.9345 13.3712 51.8473 13.7214C51.7601 14.0592 51.6294 14.3094 51.4551 14.472V14.6408H56.6098V14.472C56.4355 14.3094 56.3048 14.0592 56.2176 13.7214C56.1304 13.3712 56.0869 12.8896 56.0869 12.2767V4.05848C56.0869 3.44555 56.1304 2.97023 56.2176 2.63249C56.3048 2.28224 56.4355 2.02582 56.6098 1.8632V1.69434H51.4551V1.8632C51.6294 2.02582 51.7601 2.28224 51.8473 2.63249Z" fill="#454B45"/>
<path fill-rule="evenodd" clip-rule="evenodd" d="M61.8266 13.7402C61.9387 14.0779 62.0881 14.3218 62.2748 14.4719V14.6408H57.0267V14.4719C57.2011 14.3093 57.3318 14.0592 57.4189 13.7214C57.5061 13.3711 57.5497 12.8896 57.5497 12.2767V4.05845C57.5497 3.44552 57.4999 2.9702 57.4003 2.63246C57.3131 2.28221 57.1699 2.02579 56.9707 1.86317V1.69431H62.9659C64.0865 1.69431 65.0452 1.87568 65.8421 2.23844C66.6514 2.58868 67.274 3.09528 67.7097 3.75824C68.1455 4.40869 68.3634 5.19673 68.3634 6.12238C68.3634 7.0105 68.1766 7.79856 67.8031 8.48652C67.4296 9.17448 66.8568 9.77494 66.0849 10.2878C65.3129 10.7881 64.3231 11.2071 63.1153 11.5449L61.6585 11.9652V12.2767C61.6585 12.9146 61.7145 13.4024 61.8266 13.7402ZM62.1815 8.22381L61.6585 8.35709V5.14671H62.611C63.1339 5.14671 63.5324 5.25928 63.8063 5.48443C64.0802 5.69709 64.2172 6.00355 64.2172 6.40383C64.2172 6.85414 64.0554 7.22316 63.7316 7.51086C63.4079 7.79856 62.8912 8.03621 62.1815 8.22381Z" fill="#454B45"/>
<path d="M75.8063 5.57821H75.9554V1.52539C75.7067 1.61295 75.4761 1.65673 75.2642 1.65673C75.1277 1.65673 74.9221 1.63797 74.6483 1.60044C74.3745 1.56292 74.0693 1.54416 73.7327 1.54416C72.1392 1.54416 70.9003 1.88814 70.0161 2.57613C69.1447 3.25159 68.709 4.17098 68.709 5.33429C68.709 5.9347 68.8459 6.50385 69.1199 7.04175C69.3938 7.5671 69.7925 8.03617 70.315 8.44896L70.8195 8.82423C71.3052 9.18697 71.6347 9.47467 71.8089 9.68733C71.9838 9.89999 72.0709 10.1313 72.0709 10.3815C72.0709 10.6442 71.9587 10.8631 71.7344 11.0383C71.5226 11.2134 71.2306 11.3009 70.8564 11.3009C70.6453 11.3009 70.4398 11.2759 70.2405 11.2259C70.0538 11.1633 69.8858 11.0883 69.736 11.0007C69.6241 10.9507 69.5183 10.8881 69.4186 10.8131L69.1385 10.5317H68.9891V14.4907C69.2381 14.5782 69.6055 14.647 70.0907 14.697C70.5889 14.7596 71.0745 14.7908 71.5476 14.7908C73.229 14.7908 74.5236 14.4281 75.4329 13.7026C76.3414 12.9646 76.7957 11.9702 76.7957 10.7193C76.7957 10.244 76.7212 9.79366 76.5721 9.36834C76.4223 8.94302 76.2042 8.54276 75.9178 8.16749C75.6314 7.79222 75.2768 7.44201 74.8538 7.11679L74.3494 6.74151C74.0755 6.51636 73.8763 6.33498 73.7515 6.19739C73.6394 6.04728 73.5836 5.88467 73.5836 5.70955C73.5836 5.52191 73.6644 5.3593 73.8261 5.22171C73.9884 5.08411 74.2121 5.01532 74.4985 5.01532C74.6357 5.01532 74.7605 5.03408 74.872 5.0716C74.9967 5.09662 75.1026 5.12789 75.1897 5.16542C75.3019 5.21545 75.4078 5.278 75.5074 5.35305C75.6196 5.41559 75.7192 5.49065 75.8063 5.57821Z" fill="#454B45"/>
<path d="M77.464 4.05848C77.464 3.44555 77.4208 2.97023 77.333 2.63249C77.2459 2.28224 77.1156 2.02582 76.9414 1.8632V1.69434H82.0773V1.8632C81.9031 2.02582 81.7721 2.28224 81.685 2.63249C81.6105 2.97023 81.5729 3.44555 81.5729 4.05848V9.5185C81.5729 9.99387 81.6725 10.3566 81.8718 10.6068C82.0836 10.857 82.3888 10.9821 82.7866 10.9821C83.1852 10.9821 83.4904 10.857 83.7022 10.6068C83.914 10.3566 84.0192 9.99387 84.0192 9.5185V4.05848C84.0192 3.44555 83.976 2.97023 83.8889 2.63249C83.8144 2.28224 83.6834 2.02582 83.4967 1.8632V1.69434H88.6514V1.8632C88.4647 2.02582 88.3274 2.28224 88.2403 2.63249C88.1532 2.97023 88.11 3.44555 88.11 4.05848V9.91253C88.11 11.0008 87.8982 11.9264 87.4745 12.6895C87.0641 13.4525 86.46 14.0404 85.6629 14.4532C84.8784 14.8535 83.9196 15.0536 82.7866 15.0536C81.6662 15.0536 80.7075 14.8535 79.9104 14.4532C79.1265 14.0404 78.5224 13.4525 78.0987 12.6895C77.6758 11.9264 77.464 11.0008 77.464 9.91253V4.05848Z" fill="#454B45"/>
<path d="M89.3282 2.65125C89.4278 3.014 89.4773 3.54563 89.4773 4.24611V12.2767C89.4773 12.8896 89.4341 13.3712 89.347 13.7214C89.2599 14.0592 89.1289 14.3094 88.9547 14.472V14.6408H93.9973V14.472C93.8231 14.3094 93.6921 14.0592 93.605 13.7214C93.5179 13.3712 93.474 12.8896 93.474 12.2767V8.38967L96.1823 10.7756H96.2757L98.9095 8.17589V12.2767C98.9095 12.8896 98.8656 13.3712 98.7785 13.7214C98.6914 14.0592 98.5542 14.3094 98.3674 14.472V14.6408H103.429V14.472C103.242 14.3094 103.105 14.0592 103.018 13.7214C102.931 13.3712 102.887 12.8896 102.887 12.2767V4.24611C102.887 3.54563 102.937 3.014 103.037 2.65125C103.149 2.2885 103.304 2.02582 103.503 1.8632V1.69434H99.0586V1.82568C99.2203 2.12589 99.2704 2.43235 99.2077 2.74507C99.1457 3.04527 98.959 3.34548 98.6475 3.64569L96.2666 6.05039L93.7729 3.60816C93.4621 3.29545 93.2754 2.99524 93.2127 2.70754C93.1507 2.40733 93.2001 2.11338 93.3625 1.82568V1.69434H88.8613V1.8632C89.0731 2.02582 89.2285 2.2885 89.3282 2.65125Z" fill="#454B45"/>
</g>
<defs>
<clipPath id="clip0_462_1118">
<rect width="108" height="28" fill="white"/>
</clipPath>
</defs>
</svg>
