<svg width="156" height="28" viewBox="0 0 156 28" fill="none" xmlns="http://www.w3.org/2000/svg">
<g clip-path="url(#clip0_462_1099)">
<path d="M8.625 0L15.8543 6.18021C16.2835 6.54711 16.5308 7.08554 16.5308 7.65261V12.3103L9.30161 6.13014C8.87236 5.76323 8.625 5.2248 8.625 4.6577V0Z" fill="#002101"/>
<path d="M8.625 28L15.8543 21.8198C16.2835 21.4529 16.5308 20.9145 16.5308 20.3474V15.6897L9.30161 21.8699C8.87236 22.2368 8.625 22.7752 8.625 23.3423V28Z" fill="#002101"/>
<path d="M0 6.51724L7.13095 12.5794C7.47667 12.8733 7.91452 13.0345 8.36685 13.0345H14.1176L7.00426 6.97378C6.6583 6.67899 6.21984 6.51724 5.76672 6.51724H0Z" fill="#002101"/>
<path d="M0 21.4828L7.08709 15.4242C7.43343 15.1281 7.87289 14.9655 8.32704 14.9655H14.1348L7.00384 21.0276C6.65811 21.3215 6.22031 21.4828 5.76792 21.4828H0Z" fill="#002101"/>
<path d="M26.3531 0L19.1238 6.18021C18.6946 6.54711 18.4473 7.08554 18.4473 7.65261V12.3103L25.6765 6.13014C26.1057 5.76323 26.3531 5.2248 26.3531 4.6577V0Z" fill="#002101"/>
<path d="M26.3531 28L19.1238 21.8198C18.6946 21.4529 18.4473 20.9145 18.4473 20.3474V15.6897L25.6765 21.8699C26.1057 22.2368 26.3531 22.7752 26.3531 23.3423V28Z" fill="#002101"/>
<path d="M34.977 6.51721L27.8461 12.5793C27.5004 12.8733 27.0625 13.0345 26.6102 13.0345H20.8594L27.9728 6.97375C28.3188 6.67896 28.7572 6.51721 29.2103 6.51721H34.977Z" fill="#002101"/>
<path d="M34.9785 21.4827L27.8915 15.4241C27.5451 15.128 27.1056 14.9655 26.6515 14.9655H20.8438L27.9747 21.0275C28.3204 21.3215 28.7582 21.4827 29.2106 21.4827H34.9785Z" fill="#002101"/>
<path d="M92.8828 7.46802C92.4203 7.46802 92.0328 7.31136 91.7194 6.99796C91.406 6.68459 91.25 6.29661 91.25 5.83401C91.25 5.37141 91.406 4.98343 91.7194 4.67005C92.0328 4.35669 92.4203 4.2 92.8828 4.2C93.3305 4.2 93.711 4.35669 94.0237 4.67005C94.3371 4.98343 94.4938 5.37141 94.4938 5.83401C94.4938 6.29661 94.3371 6.68459 94.0237 6.99796C93.711 7.31136 93.3305 7.46802 92.8828 7.46802Z" fill="#454B45"/>
<path d="M94.1365 9.10205V21.4355H91.5859V9.10205H94.1365Z" fill="#454B45"/>
<path fill-rule="evenodd" clip-rule="evenodd" d="M101.02 9.48249C100.274 9.8705 99.6841 10.348 99.2517 10.915V9.10197H96.7012V27.2999H99.2517V19.6447C99.7141 20.2117 100.311 20.6893 101.042 21.0773C101.772 21.4503 102.608 21.6369 103.548 21.6369C104.621 21.6369 105.599 21.3683 106.479 20.831C107.374 20.2789 108.074 19.5179 108.582 18.5479C109.089 17.563 109.342 16.4513 109.342 15.2128C109.342 13.9742 109.089 12.8774 108.582 11.9223C108.074 10.9673 107.374 10.2286 106.479 9.70635C105.599 9.1691 104.621 8.90051 103.548 8.90051C102.608 8.90051 101.765 9.09455 101.02 9.48249ZM106.21 13.0191C106.568 13.631 106.747 14.3621 106.747 15.2128C106.747 16.0633 106.568 16.8095 106.21 17.4511C105.867 18.0928 105.404 18.5852 104.823 18.9284C104.256 19.2567 103.644 19.4209 102.988 19.4209C102.347 19.4209 101.735 19.2567 101.154 18.9284C100.586 18.6001 100.124 18.1226 99.7666 17.4959C99.4231 16.8542 99.2517 16.1081 99.2517 15.2575C99.2517 14.4069 99.4231 13.6683 99.7666 13.0415C100.124 12.4148 100.586 11.9373 101.154 11.609C101.735 11.2807 102.347 11.1165 102.988 11.1165C103.644 11.1165 104.256 11.2807 104.823 11.609C105.404 11.9223 105.867 12.3924 106.21 13.0191Z" fill="#454B45"/>
<path d="M115.556 21.6369C114.586 21.6369 113.714 21.4652 112.938 21.122C112.178 20.7639 111.574 20.2864 111.126 19.6895C110.679 19.0777 110.44 18.3987 110.41 17.6525H113.05C113.095 18.1748 113.341 18.615 113.789 18.9732C114.251 19.3164 114.826 19.488 115.511 19.488C116.228 19.488 116.78 19.3538 117.167 19.0851C117.57 18.8016 117.772 18.4435 117.772 18.0107C117.772 17.5481 117.548 17.2049 117.1 16.981C116.668 16.7572 115.974 16.511 115.02 16.2424C114.095 15.9887 113.341 15.7425 112.759 15.5038C112.178 15.265 111.671 14.8994 111.238 14.4069C110.821 13.9145 110.612 13.2654 110.612 12.4595C110.612 11.8029 110.805 11.206 111.194 10.6689C111.581 10.1167 112.133 9.68395 112.849 9.37056C113.58 9.05724 114.415 8.90051 115.355 8.90051C116.757 8.90051 117.883 9.25863 118.733 9.97494C119.599 10.6763 120.061 11.6388 120.121 12.8624H117.57C117.525 12.3103 117.301 11.8701 116.899 11.5418C116.496 11.2135 115.951 11.0494 115.266 11.0494C114.594 11.0494 114.079 11.1762 113.722 11.4299C113.364 11.6836 113.185 12.0193 113.185 12.4371C113.185 12.7654 113.304 13.0415 113.543 13.2654C113.781 13.4892 114.072 13.6683 114.415 13.8025C114.759 13.922 115.266 14.0786 115.937 14.2726C116.831 14.5114 117.562 14.7576 118.129 15.0113C118.711 15.2501 119.211 15.6082 119.628 16.0857C120.046 16.5632 120.262 17.1974 120.277 17.9883C120.277 18.6897 120.084 19.3164 119.695 19.8685C119.308 20.4207 118.756 20.8534 118.039 21.1668C117.339 21.4801 116.511 21.6369 115.556 21.6369Z" fill="#454B45"/>
<path d="M153.517 9.50489C152.756 9.10197 151.891 8.90051 150.922 8.90051C150.011 8.90051 149.162 9.12437 148.371 9.57202C147.581 10.0048 146.998 10.5942 146.626 11.3404C146.208 10.5494 145.611 9.94512 144.835 9.52729C144.06 9.10946 143.18 8.90051 142.195 8.90051C141.465 8.90051 140.779 9.04226 140.137 9.32583C139.496 9.60933 138.966 10.0048 138.549 10.5121V9.10197H135.998V21.4354H138.549V14.5413C138.549 13.4369 138.825 12.5939 139.376 12.0119C139.944 11.415 140.704 11.1165 141.659 11.1165C142.613 11.1165 143.366 11.415 143.918 12.0119C144.47 12.5939 144.746 13.4369 144.746 14.5413V21.4354H147.275V14.5413C147.275 13.4369 147.55 12.5939 148.102 12.0119C148.669 11.415 149.43 11.1165 150.384 11.1165C151.339 11.1165 152.093 11.415 152.645 12.0119C153.196 12.5939 153.472 13.4369 153.472 14.5413V21.4354H156V14.1607C156 13.0415 155.776 12.0865 155.329 11.2956C154.896 10.5047 154.293 9.90781 153.517 9.50489Z" fill="#454B45"/>
<path d="M133.415 21.4355V9.10204H130.865V15.9739C130.865 17.0781 130.581 17.9287 130.014 18.5256C129.462 19.1076 128.71 19.3985 127.755 19.3985C126.8 19.3985 126.047 19.1076 125.495 18.5256C124.943 17.9287 124.667 17.0781 124.667 15.9739V9.10204H122.139V16.3544C122.139 17.4735 122.355 18.4286 122.788 19.2195C123.235 20.0103 123.839 20.6072 124.6 21.0102C125.376 21.4131 126.248 21.6145 127.217 21.6145C127.948 21.6145 128.635 21.4728 129.276 21.1892C129.932 20.8908 130.462 20.4879 130.865 19.9805V21.4355H133.415Z" fill="#454B45"/>
<path fill-rule="evenodd" clip-rule="evenodd" d="M80.2941 20.8534C81.2336 21.3757 82.285 21.6369 83.4484 21.6369C84.6271 21.6369 85.7009 21.3757 86.6705 20.8534C87.6548 20.3163 88.4306 19.5626 88.9972 18.5926C89.5639 17.6227 89.8472 16.511 89.8472 15.2575C89.8472 14.004 89.5716 12.8923 89.0196 11.9223C88.4677 10.9524 87.7142 10.2062 86.7601 9.68395C85.8052 9.16168 84.7391 8.90051 83.5603 8.90051C82.3823 8.90051 81.3154 9.16168 80.3606 9.68395C79.4064 10.2062 78.653 10.9524 78.101 11.9223C77.5491 12.8923 77.2734 14.004 77.2734 15.2575C77.2734 16.5259 77.5421 17.6451 78.0786 18.615C78.6159 19.5701 79.3539 20.3163 80.2941 20.8534ZM85.2833 18.9508C84.7167 19.2642 84.1046 19.4209 83.4484 19.4209C82.4193 19.4209 81.5617 19.0628 80.8754 18.3465C80.2046 17.6152 79.8688 16.5856 79.8688 15.2575C79.8688 14.3621 80.0325 13.6086 80.3606 12.9968C80.6893 12.37 81.1294 11.8999 81.6806 11.5866C82.248 11.2732 82.8594 11.1165 83.5155 11.1165C84.1717 11.1165 84.7831 11.2732 85.3505 11.5866C85.9171 11.8999 86.3718 12.37 86.7153 12.9968C87.0581 13.6086 87.2295 14.3621 87.2295 15.2575C87.2295 16.1529 87.0504 16.9139 86.6929 17.5406C86.3347 18.1674 85.8646 18.6374 85.2833 18.9508Z" fill="#454B45"/>
<path fill-rule="evenodd" clip-rule="evenodd" d="M66.8614 20.8819C66.8441 20.8725 66.8268 20.863 66.8096 20.8534C65.8699 20.3163 65.1315 19.5701 64.5945 18.615C64.0575 17.6451 63.7891 16.5259 63.7891 15.2575C63.7891 14.004 64.065 12.8923 64.6169 11.9223C65.1688 10.9524 65.9221 10.2062 66.8767 9.68395C67.8313 9.16168 68.8978 8.90051 70.0762 8.90051C71.2543 8.90051 72.3211 9.16168 73.276 9.68395C74.2302 10.2062 74.9836 10.9524 75.5355 11.9223C76.0875 12.8923 76.3631 14.004 76.3631 15.2575C76.3631 16.511 76.0798 17.6227 75.5131 18.5926C74.9465 19.5626 74.1707 20.3163 73.1864 20.8534C72.3525 21.3026 71.4417 21.5586 70.4533 21.6215C71.6642 22.1757 73.5061 22.6232 74.5401 22.8745C74.9829 22.9821 75.2774 23.0536 75.3117 23.0822L75.3131 23.0826V25.6361H66.0206V23.0826H71.3753C70.0133 22.7748 68.1631 21.7645 66.8614 20.8819ZM69.9643 19.4209C70.6205 19.4209 71.2319 19.2642 71.7992 18.9508C72.3805 18.6374 72.8506 18.1674 73.2088 17.5406C73.5663 16.9139 73.7454 16.1529 73.7454 15.2575C73.7454 14.3621 73.574 13.6086 73.2312 12.9968C72.8877 12.37 72.433 11.8999 71.8664 11.5866C71.299 11.2732 70.6876 11.1165 70.0314 11.1165C69.3751 11.1165 68.7636 11.2732 68.1967 11.5866C67.6448 11.8999 67.2048 12.37 66.8767 12.9968C66.5485 13.6086 66.3845 14.3621 66.3845 15.2575C66.3845 16.5856 66.72 17.6152 67.3913 18.3465C68.0775 19.0628 68.9351 19.4209 69.9643 19.4209Z" fill="#454B45"/>
<path fill-rule="evenodd" clip-rule="evenodd" d="M53.3232 20.8534C54.2629 21.3757 55.3145 21.6369 56.478 21.6369C57.6563 21.6369 58.7302 21.3757 59.6998 20.8534C60.6842 20.3163 61.4599 19.5626 62.0267 18.5926C62.5935 17.6227 62.8769 16.511 62.8769 15.2575C62.8769 14.004 62.6009 12.8923 62.049 11.9223C61.4972 10.9524 60.7439 10.2062 59.7893 9.68395C58.8347 9.16168 57.7681 8.90051 56.5898 8.90051C55.4114 8.90051 54.345 9.16168 53.3903 9.68395C52.4357 10.2062 51.6825 10.9524 51.1306 11.9223C50.5787 12.8923 50.3027 14.004 50.3027 15.2575C50.3027 16.5259 50.5712 17.6451 51.1082 18.615C51.6452 19.5701 52.3835 20.3163 53.3232 20.8534ZM58.3126 18.9508C57.7458 19.2642 57.1342 19.4209 56.478 19.4209C55.4487 19.4209 54.5911 19.0628 53.9049 18.3465C53.2337 17.6152 52.8981 16.5856 52.8981 15.2575C52.8981 14.3621 53.0622 13.6086 53.3903 12.9968C53.7185 12.37 54.1585 11.8999 54.7104 11.5866C55.2772 11.2732 55.8887 11.1165 56.545 11.1165C57.2014 11.1165 57.8129 11.2732 58.3797 11.5866C58.9465 11.8999 59.4015 12.37 59.7445 12.9968C60.0876 13.6086 60.2591 14.3621 60.2591 15.2575C60.2591 16.1529 60.0802 16.9139 59.7221 17.5406C59.3642 18.1674 58.8943 18.6374 58.3126 18.9508Z" fill="#454B45"/>
<path d="M44.5233 19.3762H49.7811V21.4355H41.9727V5.87878H44.5233V19.3762Z" fill="#454B45"/>
</g>
<defs>
<clipPath id="clip0_462_1099">
<rect width="156" height="28" fill="white"/>
</clipPath>
</defs>
</svg>
