<svg width="118" height="28" viewBox="0 0 118 28" fill="none" xmlns="http://www.w3.org/2000/svg">
<g clip-path="url(#clip0_462_1236)">
<path d="M56.4872 0C55.829 2.8886 55.5692 4.0289 51.6426 4.38553C55.5692 4.0289 55.3094 5.1692 54.6513 8.05784C55.3055 5.18636 55.5692 4.0289 59.4342 3.67787C55.5692 4.0289 55.8329 2.87144 56.4872 0Z" fill="#002101"/>
<path d="M58.1831 7.66351C57.0789 8.35819 55.7384 8.52332 54.4415 8.67557C53.0209 8.84231 51.6147 9.01514 50.2246 9.19357C50.5928 7.57888 50.7642 6.9246 52.9649 6.72473C50.7411 6.92669 50.8928 6.26074 51.2693 4.6086C50.8906 6.27061 50.7411 6.9267 48.4819 7.13186C50.7178 6.92882 50.5945 7.56929 50.2246 9.19357C46.0748 9.72634 42.0685 10.3094 38.252 10.9304C42.6739 10.3931 48.8198 9.86956 54.0946 9.4203C55.8068 9.27442 58.1038 9.0941 58.5917 10.7363C58.7461 11.2558 58.7488 11.8961 58.6555 12.6608H56.3216L54.3949 21.6939H59.5223L61.4489 12.6608H58.8472C59.2453 11.4537 59.7427 10.5119 60.5579 9.7857C61.5957 8.86135 63.0627 8.66787 64.4509 8.56805C92.6648 6.5393 114.878 8.02177 115.244 12.1577C115.348 13.3353 113.67 14.6098 110.568 15.8977V15.9024L110.557 15.9066V15.8977C111.707 15.4131 114.021 14.2121 114.163 12.6608H109.251L107.309 17.1292C107.308 17.1372 107.302 17.1452 107.292 17.1533H107.279L107.285 17.1292C107.276 16.6313 107.262 16.1335 107.245 15.6357C107.236 15.1379 107.226 14.644 107.215 14.1543C107.206 13.6564 107.193 13.1586 107.175 12.6608H100.59L98.6632 21.6939H103.173L104.234 16.7197L104.237 16.7076H104.249C104.251 16.7076 104.253 16.7079 104.254 16.7083C104.257 16.7094 104.259 16.7116 104.259 16.7149C104.259 16.7158 104.259 16.7169 104.259 16.718L104.258 16.7197C104.288 17.5467 104.314 18.3737 104.335 19.2008C104.356 20.0278 104.381 20.8589 104.409 21.6939H107.559L109.839 16.6836L109.841 16.6715H109.854C109.858 16.6715 109.861 16.6729 109.863 16.6757C109.863 16.6762 109.863 16.6768 109.863 16.6775V16.6785C109.863 16.6799 109.863 16.6816 109.863 16.6836L108.794 21.6939H113.552L115.252 13.7201C116.982 12.6714 117.867 11.6576 117.764 10.7159C117.271 6.19887 94.2115 4.93289 64.9439 7.58315C64.8888 7.58819 64.833 7.5933 64.7769 7.59848L64.7693 7.59918C63.3907 7.7263 61.7351 7.8789 61.0334 6.71973C60.3595 5.60659 60.7895 3.71928 61.4074 1.00745C60.6496 4.33353 60.1766 6.40942 58.1831 7.66351Z" fill="#002101"/>
<path fill-rule="evenodd" clip-rule="evenodd" d="M38.8153 12.8294C37.9352 12.4761 36.762 12.2994 35.296 12.2994C34.5958 12.2994 33.944 12.3436 33.3403 12.4319C32.7448 12.5202 32.1944 12.6487 31.689 12.8174C31.1835 12.986 30.7247 13.1867 30.3126 13.4196C29.9105 13.6443 29.5468 13.9013 29.2216 14.1903C28.8981 14.4714 28.6148 14.7765 28.3716 15.1057C28.1383 15.4269 27.9429 15.7642 27.7851 16.1174C27.6374 16.4627 27.5241 16.82 27.4453 17.1894C27.3494 17.639 27.3105 18.0726 27.3285 18.4902C27.3483 18.8997 27.4226 19.2851 27.5514 19.6464C27.6902 19.9996 27.8853 20.3209 28.1367 20.6099C28.3963 20.899 28.7138 21.1479 29.0893 21.3567C29.4666 21.5574 29.9027 21.7139 30.3976 21.8264C30.9008 21.9388 31.4654 21.995 32.0914 21.995C32.3797 21.995 32.6294 21.983 32.8404 21.9589C33.058 21.9428 33.2822 21.9147 33.5132 21.8745C33.746 21.4008 33.9797 20.9231 34.2142 20.4413C34.4587 19.9515 34.6983 19.4657 34.9328 18.984C34.9996 18.8466 35.0664 18.7096 35.1332 18.5729C35.1952 18.4459 35.2572 18.319 35.3191 18.1925C35.4242 17.9778 35.5291 17.7638 35.6338 17.5507L34.7502 21.6939H39.9888L40.8724 17.5507H35.6338L41.2333 16.3222C41.2642 15.5594 41.0885 14.8769 40.7063 14.2747C40.3257 13.6644 39.6954 13.1827 38.8153 12.8294ZM35.6338 17.5507C35.4991 17.7193 35.306 17.8518 35.0548 17.9482C34.8054 18.0365 34.4707 18.0807 34.0506 18.0807C33.7788 18.0807 33.55 18.0525 33.3643 17.9963C33.1786 17.9401 33.0343 17.8639 32.9313 17.7675C32.8283 17.6712 32.7599 17.5667 32.7262 17.4544C32.6943 17.3339 32.692 17.2094 32.7194 17.081C32.7571 16.9043 32.8375 16.7397 32.9606 16.5871C33.0937 16.4266 33.2826 16.2941 33.5272 16.1897C33.7802 16.0853 34.1001 16.0332 34.4872 16.0332C34.899 16.0332 35.2148 16.0974 35.4345 16.2258C35.6542 16.3543 35.7813 16.5309 35.8157 16.7558C35.8501 16.9806 35.7895 17.2456 35.6338 17.5507Z" fill="#002101"/>
<path d="M50.0843 12.3237C49.8095 12.3075 49.523 12.2994 49.225 12.2994C48.4673 12.2994 47.7593 12.3556 47.1011 12.4681C46.4529 12.5724 45.8552 12.729 45.3083 12.9378C44.763 13.1385 44.2701 13.3834 43.8295 13.6725C43.399 13.9535 43.0175 14.2747 42.6851 14.636C42.3609 14.9973 42.0876 15.3908 41.865 15.8163C41.6507 16.2419 41.493 16.6915 41.392 17.1653C41.3824 17.2098 41.3735 17.2542 41.3652 17.2986C47.2293 17.1788 48.6371 15.7551 50.0843 12.3237Z" fill="#002101"/>
<path d="M41.3641 17.2987C41.3047 17.6145 41.2745 17.9276 41.2734 18.2372C41.2805 18.5906 41.3321 18.9278 41.4283 19.249C41.5328 19.5702 41.6819 19.8752 41.8755 20.1643C42.0792 20.4454 42.3333 20.7023 42.6377 20.9352C42.9505 21.168 43.3237 21.3688 43.7572 21.5374C44.1925 21.698 44.6889 21.8224 45.2467 21.9107C45.5889 21.9692 45.9561 22.0099 46.3482 22.0329C47.5406 18.6038 47.218 17.2099 41.3641 17.2987Z" fill="#002101"/>
<path d="M46.3906 22.0353C46.632 22.0486 46.8828 22.0552 47.1429 22.0552C48.123 22.0552 49.0026 21.9669 49.7817 21.7903C50.5671 21.6216 51.2601 21.3848 51.8606 21.0796C52.4628 20.7665 52.9764 20.4052 53.4014 19.9957C53.8281 19.5781 54.1703 19.1325 54.4278 18.6588C54.6871 18.177 54.8715 17.6792 54.9811 17.1653C54.9889 17.1287 54.9963 17.0923 55.0033 17.056C49.2337 17.1746 47.8308 18.6181 46.3906 22.0353Z" fill="#002101"/>
<path d="M55.0044 17.0561C49.2526 17.1426 48.9437 15.7321 50.1271 12.3263C51.2305 12.3948 52.1455 12.5947 52.8717 12.9258C53.7876 13.3433 54.4188 13.9174 54.7654 14.6481C55.0985 15.3505 55.1782 16.1533 55.0044 17.0561Z" fill="#002101"/>
<path fill-rule="evenodd" clip-rule="evenodd" d="M81.5263 16.2675L86.53 16.0453C86.7752 15.4751 86.8272 14.9612 86.686 14.5036C86.5448 14.0459 86.2336 13.6524 85.7518 13.3232C85.2784 12.994 84.6568 12.7411 83.887 12.5644C83.1263 12.3878 82.2385 12.2995 81.2257 12.2995C80.5092 12.2995 79.8118 12.3437 79.134 12.432C78.4646 12.5203 77.836 12.6488 77.2481 12.8174C76.6686 12.986 76.1453 13.1988 75.679 13.4557C75.2217 13.7047 74.8466 13.9978 74.5523 14.3349C74.2594 14.6642 74.0698 15.0335 73.982 15.443C73.8998 15.8284 73.9244 16.1777 74.0551 16.4909C74.1878 16.7959 74.4652 17.061 74.8867 17.2858C75.3081 17.5106 75.9086 17.6872 76.6883 17.8157C77.2045 17.8953 77.8163 17.9486 78.5236 17.9756L73.4082 18.3095C73.2101 18.968 73.2003 19.534 73.3794 20.0077C73.5669 20.4815 73.916 20.8709 74.4273 21.176C74.9408 21.4731 75.594 21.6939 76.3863 21.8385C77.1792 21.983 78.0783 22.0552 79.0834 22.0552C79.9895 22.0552 80.8478 21.987 81.6597 21.8505C82.478 21.722 83.2106 21.5293 83.8589 21.2724C84.5163 21.0074 85.0508 20.6822 85.4631 20.2968C85.8846 19.9034 86.1494 19.4537 86.2568 18.9479C86.3566 18.4822 86.3348 18.0807 86.1929 17.7435C86.0524 17.3981 85.7581 17.1172 85.31 16.9004C84.864 16.6755 84.2361 16.5109 83.4262 16.4065C82.8875 16.3371 82.254 16.2907 81.5263 16.2675ZM81.3851 16.2633C81.0613 16.2544 80.7185 16.25 80.3582 16.25H80.0499C79.8272 16.25 79.6488 16.2379 79.5133 16.2138C79.3868 16.1897 79.2969 16.1496 79.2428 16.0934C79.1909 16.0292 79.1747 15.9489 79.1951 15.8525C79.2126 15.7723 79.2534 15.696 79.318 15.6236C79.391 15.5514 79.4781 15.4912 79.5793 15.443C79.6903 15.3868 79.8139 15.3467 79.9508 15.3226C80.0892 15.2904 80.2409 15.2744 80.406 15.2744C80.6694 15.2744 80.8962 15.3105 81.0873 15.3828C81.2875 15.447 81.4209 15.5555 81.487 15.708C81.5544 15.8503 81.52 16.0354 81.3851 16.2633ZM78.747 17.9831C78.6395 18.2139 78.6163 18.407 78.6788 18.5625C78.7519 18.723 78.891 18.8435 79.096 18.9238C79.3018 19.0041 79.5399 19.0442 79.8118 19.0442C79.9768 19.0442 80.1271 19.0322 80.2641 19.0081C80.4095 18.984 80.5408 18.9479 80.6581 18.8997C80.7754 18.8515 80.871 18.7913 80.944 18.719C81.0185 18.6388 81.0662 18.5504 81.0866 18.454C81.128 18.2613 81.0515 18.1369 80.8576 18.0807C80.6722 18.0245 80.3856 17.9964 79.9986 17.9964H79.6896C79.3594 17.9964 79.0455 17.992 78.747 17.9831Z" fill="#002101"/>
<path d="M93.1209 12.6609H87.9935L86.7784 18.3578C86.6745 18.8476 86.6906 19.2932 86.8269 19.6947C86.966 20.0881 87.197 20.4333 87.5208 20.7305C87.8545 21.0195 88.2548 21.2644 88.7233 21.4651C89.1988 21.6659 89.7193 21.8144 90.2833 21.9108C90.8557 22.0071 91.4429 22.0553 92.0442 22.0553C92.802 22.0553 93.5557 21.979 94.3044 21.8265C95.0616 21.6739 95.7612 21.445 96.4031 21.14C97.0465 20.8268 97.586 20.4414 98.0214 19.9837C98.466 19.518 98.7547 18.976 98.8868 18.3578L100.102 12.6609H94.9745L93.9596 17.4183C93.9104 17.6512 93.7776 17.8278 93.5627 17.9483C93.3478 18.0687 93.1202 18.1289 92.8814 18.1289C92.7662 18.1289 92.6545 18.1128 92.5457 18.0808C92.4459 18.0486 92.356 18.0045 92.2774 17.9483C92.2092 17.884 92.1551 17.8077 92.1165 17.7194C92.0856 17.6311 92.0835 17.5267 92.1088 17.4063L93.1209 12.6609Z" fill="#002101"/>
<path fill-rule="evenodd" clip-rule="evenodd" d="M69.7669 12.6609C70.5326 12.6609 71.1781 12.7653 71.7014 12.974C72.2352 13.1748 72.6496 13.4517 72.9453 13.8051C73.2501 14.1503 73.451 14.5437 73.5458 14.9854C73.6414 15.427 73.6386 15.8847 73.5374 16.3584C73.4292 16.8642 73.2277 17.3461 72.9327 17.8037C72.6475 18.2534 72.2731 18.6548 71.811 19.0081C71.3565 19.3614 70.8227 19.6425 70.2102 19.8512C69.599 20.052 68.9186 20.1524 68.1691 20.1524H65.5128L65.4979 20.1644H65.4855L65.4829 20.1764L65.1593 21.694H60.0195L61.9461 12.6609H69.7669ZM67.2069 17.5388C67.454 17.5388 67.6685 17.4986 67.8503 17.4183C68.0421 17.33 68.1929 17.2216 68.3027 17.0931C68.4142 16.9566 68.4845 16.8201 68.5136 16.6836C68.5444 16.5391 68.5315 16.4066 68.4748 16.2862C68.4199 16.1577 68.3185 16.0533 68.1709 15.973C68.0233 15.8927 67.8219 15.8526 67.5665 15.8526H66.4299C66.4216 15.8526 66.4125 15.8566 66.4026 15.8646L66.4 15.8767L66.0481 17.5267C66.0563 17.5267 66.0596 17.5307 66.0578 17.5388H67.2069Z" fill="#002101"/>
<path fill-rule="evenodd" clip-rule="evenodd" d="M8.27601 18.153L8.28114 18.1289L9.44737 12.6608H4.32L2.66898 20.4018C0.841206 21.4822 -0.0977434 22.5269 0.00805589 23.4951C0.540466 28.3679 27.3329 29.4574 59.8505 25.9286C66.0117 25.2599 71.9364 24.4735 77.4895 23.6047C74.5465 23.8671 71.4111 24.1326 68.1973 24.4047L68.1935 24.4049L68.1876 24.4055L68.1836 24.4058L68.1794 24.4061L68.1708 24.4069C65.3477 24.6459 62.4642 24.89 59.5969 25.1417C28.4711 27.8743 2.92066 26.4916 2.52833 22.0534C2.42485 20.8824 4.0828 19.6158 7.15157 18.3353C4.96493 19.2942 4.03179 20.5485 3.76984 21.6939H12.364L13.1192 18.153H8.27601ZM6.99852 18.3825C6.94893 18.4021 6.89964 18.4216 6.85068 18.4412C7.02985 18.3711 7.21233 18.3009 7.39783 18.2308C7.42691 18.2188 7.45619 18.2069 7.48562 18.1951C7.40211 18.2265 7.31944 18.2579 7.23761 18.2894C7.19463 18.3059 7.15185 18.3224 7.10929 18.339C7.0722 18.3535 7.03526 18.368 6.99852 18.3825Z" fill="#002101"/>
<path d="M22.305 12.3237C22.0302 12.3075 21.7438 12.2994 21.4458 12.2994C20.688 12.2994 19.98 12.3556 19.3218 12.4681C18.6736 12.5724 18.076 12.729 17.529 12.9378C16.9837 13.1385 16.4908 13.3834 16.0503 13.6725C15.6197 13.9535 15.2382 14.2747 14.9058 14.636C14.5816 14.9973 14.3083 15.3908 14.0857 15.8163C13.8714 16.2419 13.7137 16.6915 13.6127 17.1653C13.6078 17.1882 13.6031 17.2111 13.5984 17.234C13.5942 17.2556 13.5899 17.2771 13.5859 17.2986C19.4501 17.1788 20.8578 15.7551 22.305 12.3237Z" fill="#002101"/>
<path d="M13.5848 17.2987C13.5255 17.6145 13.4952 17.9275 13.4941 18.2372C13.5012 18.5906 13.5528 18.9278 13.649 19.2489C13.7535 19.5702 13.9026 19.8752 14.0962 20.1643C14.2999 20.4454 14.554 20.7023 14.8584 20.9352C15.1712 21.168 15.5444 21.3687 15.9779 21.5374C16.4132 21.6979 16.9097 21.8224 17.4674 21.9107C17.8096 21.9691 18.1768 22.0099 18.5689 22.0328C19.7613 18.6038 19.4387 17.2098 13.5848 17.2987Z" fill="#002101"/>
<path d="M18.6133 22.0353C18.8547 22.0486 19.1054 22.0552 19.3655 22.0552C20.3457 22.0552 21.2253 21.9669 22.0043 21.7903C22.7898 21.6216 23.4827 21.3848 24.0833 21.0796C24.6854 20.7665 25.199 20.4052 25.6241 19.9957C26.0508 19.5781 26.393 19.1325 26.6505 18.6588C26.9097 18.177 27.0942 17.6792 27.2038 17.1653C27.2116 17.1287 27.219 17.0923 27.2259 17.056C21.4564 17.1746 20.0534 18.6181 18.6133 22.0353Z" fill="#002101"/>
<path d="M27.225 17.0561C21.4732 17.1426 21.1644 15.7321 22.3478 12.3263C23.4513 12.3948 24.3661 12.5947 25.0924 12.9258C26.0083 13.3433 26.6394 13.9174 26.9861 14.6481C27.3193 15.3505 27.3988 16.1533 27.225 17.0561Z" fill="#002101"/>
<path d="M115.631 21.694C116.088 21.694 116.459 21.3244 116.459 20.8685C116.459 20.4127 116.088 20.0431 115.631 20.0431C115.173 20.0431 114.803 20.4127 114.803 20.8685C114.803 21.3244 115.173 21.694 115.631 21.694Z" fill="#002101"/>
</g>
<defs>
<clipPath id="clip0_462_1236">
<rect width="118" height="28" fill="white"/>
</clipPath>
</defs>
</svg>
