<svg width="109" height="28" viewBox="0 0 109 28" fill="none" xmlns="http://www.w3.org/2000/svg">
<path d="M32.4102 8.81126H35.0473V19.425H32.4102V8.81126ZM36.0933 15.4175C36.0933 12.7925 37.7107 11.2263 40.2072 11.2263C42.7036 11.2263 44.321 12.7925 44.321 15.4175C44.321 18.0425 42.7388 19.6175 40.2072 19.6175C37.6756 19.6175 36.0933 18.0863 36.0933 15.4175ZM41.6752 15.4175C41.6752 13.9738 41.1038 13.125 40.2072 13.125C39.3106 13.125 38.748 14 38.748 15.4175C38.748 16.835 39.3018 17.6925 40.2072 17.6925C41.1126 17.6925 41.6752 16.8875 41.6752 15.4263V15.4175ZM45.3144 19.9413H47.846C47.9665 20.2077 48.1701 20.4283 48.4267 20.5702C48.6833 20.712 48.9791 20.7677 49.27 20.7288C50.2721 20.7288 50.7995 20.1863 50.7995 19.3988V17.9288H50.7468C50.5367 18.3793 50.1957 18.7568 49.768 19.0126C49.3402 19.2684 48.8452 19.3907 48.347 19.3638C46.4219 19.3638 45.1473 17.9025 45.1473 15.3913C45.1473 12.88 46.3604 11.2963 48.3822 11.2963C48.8961 11.2762 49.4038 11.413 49.8374 11.6882C50.271 11.9634 50.6098 12.364 50.8083 12.8363V11.375H53.4454V19.3375C53.4454 21.2538 51.7489 22.4438 49.2436 22.4438C46.9142 22.4438 45.4638 21.4025 45.3144 19.95V19.9413ZM50.8083 15.4088C50.8083 14.1313 50.2194 13.3263 49.2876 13.3263C48.3558 13.3263 47.7844 14.1225 47.7844 15.4088C47.7844 16.695 48.347 17.4213 49.2876 17.4213C50.2281 17.4213 50.8083 16.7125 50.8083 15.4175V15.4088ZM54.4387 15.4088C54.4387 12.7838 56.0561 11.2175 58.5526 11.2175C61.049 11.2175 62.6752 12.7838 62.6752 15.4088C62.6752 18.0338 61.093 19.6088 58.5526 19.6088C56.0122 19.6088 54.4387 18.0863 54.4387 15.4175V15.4088ZM60.0206 15.4088C60.0206 13.965 59.4492 13.1163 58.5526 13.1163C57.656 13.1163 57.1373 14 57.1373 15.4263C57.1373 16.8525 57.6911 17.7013 58.5877 17.7013C59.4844 17.7013 60.0206 16.8875 60.0206 15.4263V15.4088ZM63.6773 9.46751C63.6704 9.20247 63.7427 8.94137 63.8851 8.71729C64.0275 8.4932 64.2334 8.31624 64.4769 8.20883C64.7204 8.10141 64.9904 8.06838 65.2528 8.11393C65.5152 8.15948 65.7581 8.28155 65.9507 8.46466C66.1434 8.64778 66.277 8.88371 66.3347 9.14253C66.3925 9.40136 66.3717 9.67138 66.2751 9.91848C66.1784 10.1655 66.0103 10.3785 65.7919 10.5303C65.5737 10.6821 65.3149 10.766 65.0486 10.7713C64.8721 10.7833 64.695 10.7589 64.5284 10.6996C64.3618 10.6403 64.2093 10.5473 64.0805 10.4265C63.9518 10.3058 63.8495 10.1597 63.7801 9.99767C63.7107 9.83571 63.6757 9.66115 63.6773 9.48501V9.46751ZM63.6773 11.3925H66.3144V19.425H63.6773V11.3925ZM75.8871 15.4088C75.8871 18.0338 74.718 19.53 72.7138 19.53C72.1999 19.5628 71.6882 19.4378 71.248 19.1718C70.8078 18.9057 70.4603 18.5115 70.2525 18.0425H70.1998V21.9975H67.5627V11.375H70.1998V12.81H70.2525C70.4506 12.3332 70.7915 11.9288 71.2288 11.6517C71.666 11.3746 72.1784 11.2382 72.6962 11.2613C74.718 11.2963 75.9223 12.8013 75.9223 15.4263L75.8871 15.4088ZM73.25 15.4088C73.25 14.1313 72.661 13.3175 71.7381 13.3175C70.8151 13.3175 70.2261 14.14 70.2173 15.4088C70.2085 16.6775 70.8151 17.4913 71.7381 17.4913C72.661 17.4913 73.25 16.695 73.25 15.4263V15.4088ZM80.4141 11.2088C82.6029 11.2088 83.9302 12.2413 83.9918 13.895H81.592C81.592 13.3263 81.1173 12.9675 80.3877 12.9675C79.6581 12.9675 79.3329 13.2475 79.3329 13.6588C79.3329 14.07 79.623 14.2013 80.2119 14.3238L81.8997 14.665C83.5083 15.0063 84.194 15.6538 84.194 16.87C84.194 18.5325 82.6732 19.6 80.4317 19.6C78.1902 19.6 76.7222 18.5325 76.6079 16.8963H79.1483C79.2274 17.4913 79.7021 17.8413 80.4756 17.8413C81.2492 17.8413 81.6008 17.5875 81.6008 17.1675C81.6008 16.7475 81.3547 16.66 80.7218 16.5288L79.201 16.205C77.6276 15.8813 76.8013 15.05 76.8013 13.825C76.8189 12.25 78.2341 11.2263 80.4141 11.2263V11.2088ZM92.9931 19.4075H90.4527V17.9113H90.3999C90.2602 18.4136 89.9525 18.8533 89.527 19.1573C89.1016 19.4613 88.5847 19.6114 88.0617 19.5825C87.661 19.6052 87.2602 19.542 86.8862 19.3972C86.5121 19.2524 86.1737 19.0294 85.8937 18.7432C85.6138 18.4571 85.3987 18.1143 85.2632 17.7384C85.1277 17.3624 85.0748 16.9618 85.1081 16.5638V11.375H87.7452V15.96C87.7452 16.9138 88.2375 17.4213 89.055 17.4213C89.2466 17.4216 89.4365 17.3813 89.6114 17.3028C89.7855 17.2243 89.9419 17.1095 90.0685 16.9662C90.1942 16.8228 90.2892 16.6541 90.3445 16.4716C90.3999 16.289 90.4166 16.0967 90.3911 15.9075V11.375H93.0282L92.9931 19.4075ZM94.2677 11.375H96.8169V12.9238H96.8696C97.0094 12.4281 97.3109 11.9925 97.7258 11.6854C98.1407 11.3782 98.647 11.2167 99.1639 11.2263C99.6904 11.1843 100.213 11.3411 100.628 11.6653C101.043 11.9896 101.321 12.4576 101.405 12.9763H101.458C101.617 12.452 101.948 11.9956 102.397 11.6788C102.845 11.362 103.388 11.2027 103.937 11.2263C104.296 11.2143 104.653 11.2775 104.985 11.4119C105.318 11.5462 105.618 11.7488 105.866 12.0062C106.115 12.2637 106.307 12.5704 106.429 12.9063C106.55 13.2423 106.6 13.6 106.574 13.9563V19.425H103.937V14.6563C103.937 13.7813 103.541 13.3788 102.803 13.3788C102.639 13.3774 102.475 13.4111 102.325 13.4778C102.175 13.5445 102.04 13.6425 101.931 13.7652C101.822 13.888 101.74 14.0326 101.692 14.1893C101.644 14.3461 101.63 14.5113 101.652 14.6738V19.425H99.1463V14.6213C99.1463 13.8163 98.7507 13.3788 98.0299 13.3788C97.8638 13.3788 97.6985 13.414 97.5473 13.482C97.3953 13.5501 97.259 13.6494 97.1491 13.7734C97.0384 13.8974 96.9557 14.0433 96.9056 14.2016C96.8564 14.3598 96.8406 14.5267 96.8608 14.6913V19.425H94.2237L94.2677 11.375Z" fill="white"/>
<path d="M25.0345 9.29253C24.5872 8.27434 23.9952 7.32547 23.2765 6.47503C22.2142 5.18033 20.8884 4.12424 19.3865 3.3763C17.8846 2.62837 16.2405 2.20553 14.5626 2.13561C12.8847 2.06568 11.211 2.35027 9.65148 2.97064C8.09205 3.59101 6.68225 4.5331 5.51493 5.73489C4.34759 6.93668 3.44917 8.37093 2.87881 9.94327C2.30845 11.5156 2.07907 13.1903 2.20577 14.8572C2.33249 16.5241 2.81239 18.1454 3.61393 19.6144C4.41547 21.0834 5.52046 22.3668 6.85616 23.38C7.71322 24.0432 8.66024 24.5823 9.66906 24.9813C11.0834 25.5583 12.5972 25.8554 14.1258 25.8563C17.2809 25.8494 20.3046 24.5974 22.5341 22.3749C24.7635 20.1524 26.0168 17.1408 26.0191 14C26.0213 12.38 25.6862 10.7771 25.0345 9.29253ZM14.117 4.54127C15.4897 4.54113 16.8457 4.83977 18.0902 5.41627C17.7867 5.54679 17.4677 5.63796 17.1408 5.68753C16.0654 5.84248 15.0692 6.33946 14.3009 7.1043C13.5325 7.86913 13.0332 8.8608 12.8775 9.93128C12.8092 10.5316 12.5349 11.0901 12.1009 11.5126C11.6669 11.935 11.0999 12.1954 10.4953 12.25C9.41994 12.405 8.42371 12.902 7.65535 13.6668C6.887 14.4317 6.38772 15.4233 6.23205 16.4938C6.17934 17.0646 5.93466 17.6011 5.53761 18.0163C4.85254 16.5754 4.54479 14.9854 4.643 13.3943C4.7412 11.8032 5.24217 10.2626 6.09929 8.91602C6.9564 7.56947 8.14181 6.4606 9.5452 5.69264C10.9486 4.92468 12.5243 4.52259 14.1258 4.52377L14.117 4.54127ZM6.84737 20.125C6.95286 20.0288 7.05834 19.9413 7.16382 19.8363C7.94585 19.0816 8.44783 18.0853 8.58786 17.01C8.64462 16.4056 8.91573 15.841 9.35261 15.4175C9.77305 14.982 10.3389 14.7143 10.9437 14.665C12.0191 14.5101 13.0153 14.0131 13.7836 13.2482C14.552 12.4834 15.0513 11.4918 15.207 10.4213C15.245 9.78909 15.5175 9.19348 15.9717 8.75003C16.4025 8.3229 16.9737 8.06499 17.5803 8.02377C18.5683 7.88847 19.4897 7.45127 20.2174 6.77253C21.0461 7.45684 21.7481 8.28006 22.292 9.20503C22.2586 9.24992 22.2202 9.29104 22.1777 9.32753C21.7581 9.76695 21.193 10.0405 20.5866 10.0975C19.5101 10.2498 18.5124 10.7459 17.7435 11.5112C16.9747 12.2765 16.4763 13.2697 16.3233 14.3413C16.2614 14.9436 15.9921 15.5062 15.5612 15.9335C15.1302 16.361 14.5641 16.6269 13.9587 16.6863C12.8802 16.84 11.8803 17.3361 11.1074 18.1005C10.3347 18.8651 9.83018 19.8574 9.66906 20.93C9.62177 21.3576 9.47418 21.7683 9.23833 22.1288C8.33644 21.5957 7.5287 20.9188 6.84737 20.125ZM14.117 23.5025C13.225 23.5035 12.3373 23.3798 11.4799 23.135C11.7732 22.5908 11.9639 21.9976 12.0424 21.385C12.1041 20.784 12.3721 20.2225 12.8012 19.7953C13.2304 19.3682 13.7944 19.1014 14.3983 19.04C15.4752 18.8868 16.4735 18.3906 17.2436 17.6256C18.0136 16.8607 18.5142 15.868 18.6703 14.7963C18.732 14.1952 19 13.6338 19.4291 13.2066C19.8583 12.7794 20.4223 12.5126 21.0262 12.4513C21.8366 12.3464 22.6091 12.046 23.2765 11.5763C23.6471 12.9744 23.6909 14.4385 23.4048 15.8562C23.1187 17.2738 22.51 18.6075 21.6257 19.7547C20.7414 20.9019 19.6049 21.8322 18.3033 22.4743C17.0017 23.1164 15.5696 23.4532 14.117 23.4588V23.5025Z" fill="white"/>
</svg>
