<svg width="118" height="28" viewBox="0 0 118 28" fill="none" xmlns="http://www.w3.org/2000/svg">
<g clip-path="url(#clip0_759_9108)">
<path d="M56.4852 0C55.827 2.8886 55.5673 4.0289 51.6406 4.38553C55.5673 4.0289 55.3075 5.1692 54.6493 8.05784C55.3035 5.18636 55.5673 4.0289 59.4322 3.67787C55.5673 4.0289 55.831 2.87144 56.4852 0Z" fill="white"/>
<path d="M58.1812 7.66351C57.077 8.35819 55.7364 8.52332 54.4395 8.67557C53.019 8.84231 51.6127 9.01514 50.2226 9.19357C50.5908 7.57888 50.7623 6.9246 52.9629 6.72473C50.7392 6.92669 50.8909 6.26074 51.2673 4.6086C50.8886 6.27061 50.7392 6.9267 48.48 7.13186C50.7159 6.92882 50.5925 7.56929 50.2226 9.19357C46.0728 9.72634 42.0665 10.3094 38.25 10.9304C42.6719 10.3931 48.8179 9.86956 54.0926 9.4203C55.8049 9.27442 58.1018 9.0941 58.5898 10.7363C58.7441 11.2558 58.7468 11.8961 58.6535 12.6608H56.3196L54.393 21.6939H59.5203L61.447 12.6608H58.8452C59.2434 11.4537 59.7408 10.5119 60.5559 9.7857C61.5937 8.86135 63.0608 8.66787 64.449 8.56805C92.6629 6.5393 114.876 8.02177 115.242 12.1577C115.346 13.3353 113.668 14.6098 110.566 15.8977V15.9024L110.555 15.9066V15.8977C111.705 15.4131 114.019 14.2121 114.161 12.6608H109.249L107.308 17.1292C107.306 17.1372 107.3 17.1452 107.29 17.1533H107.277L107.283 17.1292C107.274 16.6313 107.26 16.1335 107.243 15.6357C107.234 15.1379 107.224 14.644 107.213 14.1543C107.204 13.6564 107.191 13.1586 107.173 12.6608H100.588L98.6612 21.6939H103.171L104.232 16.7197L104.235 16.7076H104.247C104.249 16.7076 104.251 16.7079 104.252 16.7083C104.255 16.7094 104.257 16.7116 104.257 16.7149C104.257 16.7158 104.257 16.7169 104.257 16.718L104.256 16.7197C104.286 17.5467 104.312 18.3737 104.333 19.2008C104.354 20.0278 104.379 20.8589 104.407 21.6939H107.557L109.837 16.6836L109.839 16.6715H109.852C109.856 16.6715 109.859 16.6729 109.861 16.6757C109.861 16.6762 109.861 16.6768 109.861 16.6775V16.6785C109.861 16.6799 109.861 16.6816 109.861 16.6836L108.792 21.6939H113.55L115.25 13.7201C116.98 12.6714 117.865 11.6576 117.762 10.7159C117.269 6.19887 94.2095 4.93289 64.942 7.58315C64.8868 7.58819 64.831 7.5933 64.7749 7.59848L64.7673 7.59918C63.3887 7.7263 61.7331 7.8789 61.0314 6.71973C60.3576 5.60659 60.7876 3.71928 61.4055 1.00745C60.6476 4.33353 60.1747 6.40942 58.1812 7.66351Z" fill="white"/>
<path fill-rule="evenodd" clip-rule="evenodd" d="M38.8153 12.8294C37.9352 12.4761 36.762 12.2994 35.296 12.2994C34.5958 12.2994 33.944 12.3436 33.3403 12.4319C32.7448 12.5202 32.1944 12.6487 31.689 12.8174C31.1835 12.986 30.7247 13.1867 30.3126 13.4196C29.9105 13.6443 29.5468 13.9013 29.2216 14.1903C28.8981 14.4714 28.6148 14.7765 28.3716 15.1057C28.1383 15.4269 27.9429 15.7642 27.7851 16.1174C27.6374 16.4627 27.5241 16.82 27.4453 17.1894C27.3494 17.639 27.3105 18.0726 27.3285 18.4902C27.3483 18.8997 27.4226 19.2851 27.5514 19.6464C27.6902 19.9996 27.8853 20.3209 28.1367 20.6099C28.3963 20.899 28.7138 21.1479 29.0893 21.3567C29.4666 21.5574 29.9027 21.7139 30.3976 21.8264C30.9008 21.9388 31.4654 21.995 32.0914 21.995C32.3797 21.995 32.6294 21.983 32.8404 21.9589C33.058 21.9428 33.2822 21.9147 33.5132 21.8745C33.746 21.4008 33.9797 20.9231 34.2142 20.4413C34.4587 19.9515 34.6983 19.4657 34.9328 18.984C34.9996 18.8466 35.0664 18.7096 35.1332 18.5729C35.1952 18.4459 35.2572 18.319 35.3191 18.1925C35.4242 17.9778 35.5291 17.7638 35.6338 17.5507L34.7502 21.6939H39.9888L40.8724 17.5507H35.6338L41.2333 16.3222C41.2642 15.5594 41.0885 14.8769 40.7063 14.2747C40.3257 13.6644 39.6954 13.1827 38.8153 12.8294ZM35.6338 17.5507C35.4991 17.7193 35.306 17.8518 35.0548 17.9482C34.8054 18.0365 34.4707 18.0807 34.0506 18.0807C33.7788 18.0807 33.55 18.0525 33.3643 17.9963C33.1786 17.9401 33.0343 17.8639 32.9313 17.7675C32.8283 17.6712 32.7599 17.5667 32.7262 17.4544C32.6943 17.3339 32.692 17.2094 32.7194 17.081C32.7571 16.9043 32.8375 16.7397 32.9606 16.5871C33.0937 16.4266 33.2826 16.2941 33.5272 16.1897C33.7802 16.0853 34.1001 16.0332 34.4872 16.0332C34.899 16.0332 35.2148 16.0974 35.4345 16.2258C35.6542 16.3543 35.7813 16.5309 35.8157 16.7558C35.8501 16.9806 35.7895 17.2456 35.6338 17.5507Z" fill="white"/>
<path d="M50.0863 12.3237C49.8114 12.3075 49.525 12.2994 49.227 12.2994C48.4692 12.2994 47.7612 12.3556 47.103 12.4681C46.4548 12.5724 45.8572 12.729 45.3102 12.9378C44.765 13.1385 44.272 13.3834 43.8315 13.6725C43.4009 13.9535 43.0195 14.2747 42.687 14.636C42.3629 14.9973 42.0895 15.3908 41.8669 15.8163C41.6526 16.2419 41.4949 16.6915 41.3939 17.1653C41.3844 17.2098 41.3755 17.2542 41.3672 17.2986C47.2313 17.1788 48.6391 15.7551 50.0863 12.3237Z" fill="white"/>
<path d="M41.3641 17.2987C41.3047 17.6145 41.2745 17.9276 41.2734 18.2372C41.2805 18.5906 41.3321 18.9278 41.4283 19.249C41.5328 19.5702 41.6819 19.8752 41.8755 20.1643C42.0792 20.4454 42.3333 20.7023 42.6377 20.9352C42.9505 21.168 43.3237 21.3688 43.7572 21.5374C44.1925 21.698 44.6889 21.8224 45.2467 21.9107C45.5889 21.9692 45.9561 22.0099 46.3482 22.0329C47.5406 18.6038 47.218 17.2099 41.3641 17.2987Z" fill="white"/>
<path d="M46.3906 22.0353C46.632 22.0486 46.8828 22.0552 47.1429 22.0552C48.123 22.0552 49.0026 21.9669 49.7817 21.7903C50.5671 21.6216 51.2601 21.3848 51.8606 21.0796C52.4628 20.7665 52.9764 20.4052 53.4014 19.9957C53.8281 19.5781 54.1703 19.1325 54.4278 18.6588C54.6871 18.177 54.8715 17.6792 54.9811 17.1653C54.9889 17.1287 54.9963 17.0923 55.0033 17.056C49.2337 17.1746 47.8308 18.6181 46.3906 22.0353Z" fill="white"/>
<path d="M55.0044 17.0561C49.2526 17.1426 48.9437 15.7321 50.1271 12.3263C51.2305 12.3948 52.1455 12.5947 52.8717 12.9258C53.7876 13.3433 54.4188 13.9174 54.7654 14.6481C55.0985 15.3505 55.1782 16.1533 55.0044 17.0561Z" fill="white"/>
<path fill-rule="evenodd" clip-rule="evenodd" d="M81.5243 16.2675L86.5281 16.0452C86.7732 15.4751 86.8252 14.9612 86.684 14.5035C86.5428 14.0459 86.2317 13.6524 85.7499 13.3232C85.2764 12.994 84.6548 12.7411 83.885 12.5644C83.1244 12.3878 82.2365 12.2994 81.2237 12.2994C80.5073 12.2994 79.8098 12.3436 79.132 12.4319C78.4627 12.5202 77.834 12.6487 77.2461 12.8174C76.6667 12.986 76.1434 13.1987 75.677 13.4557C75.2198 13.7046 74.8447 13.9977 74.5504 14.3349C74.2575 14.6641 74.0679 15.0335 73.9801 15.443C73.8979 15.8283 73.9225 16.1776 74.0531 16.4908C74.1859 16.7959 74.4633 17.0609 74.8847 17.2857C75.3061 17.5105 75.9067 17.6872 76.6863 17.8156C77.2026 17.8952 77.8144 17.9485 78.5217 17.9755L73.4062 18.3095C73.2081 18.9679 73.1983 19.5339 73.3774 20.0077C73.5649 20.4815 73.914 20.8709 74.4254 21.176C74.9388 21.4731 75.592 21.6939 76.3843 21.8384C77.1773 21.983 78.0763 22.0552 79.0815 22.0552C79.9875 22.0552 80.8458 21.9869 81.6578 21.8504C82.4761 21.722 83.2086 21.5293 83.8569 21.2723C84.5144 21.0074 85.0489 20.6821 85.4612 20.2968C85.8826 19.9033 86.1474 19.4536 86.2549 18.9478C86.3546 18.4821 86.3328 18.0807 86.1909 17.7434C86.0505 17.3981 85.7562 17.1171 85.3081 16.9003C84.862 16.6755 84.2341 16.5108 83.4243 16.4065C82.8855 16.337 82.252 16.2907 81.5243 16.2675ZM81.3832 16.2633C81.0594 16.2544 80.7166 16.25 80.3563 16.25H80.0479C79.8253 16.25 79.6469 16.2378 79.5113 16.2138C79.3849 16.1897 79.295 16.1496 79.2409 16.0934C79.1889 16.0291 79.1728 15.9488 79.1931 15.8525C79.2107 15.7722 79.2514 15.6959 79.316 15.6236C79.3891 15.5514 79.4762 15.4912 79.5773 15.443C79.6883 15.3868 79.8119 15.3466 79.9489 15.3225C80.0873 15.2904 80.239 15.2744 80.404 15.2744C80.6674 15.2744 80.8943 15.3105 81.0853 15.3827C81.2855 15.447 81.419 15.5554 81.485 15.7079C81.5524 15.8503 81.518 16.0353 81.3832 16.2633ZM78.745 17.9831C78.6375 18.2138 78.6144 18.4069 78.6769 18.5624C78.7499 18.723 78.889 18.8435 79.0941 18.9237C79.2999 19.004 79.538 19.0441 79.8098 19.0441C79.9749 19.0441 80.1252 19.0321 80.2622 19.008C80.4075 18.9839 80.5389 18.9478 80.6562 18.8997C80.7735 18.8514 80.869 18.7912 80.9421 18.719C81.0165 18.6387 81.0643 18.5504 81.0846 18.454C81.1261 18.2613 81.0495 18.1368 80.8557 18.0807C80.6702 18.0245 80.3837 17.9963 79.9967 17.9963H79.6876C79.3575 17.9963 79.0435 17.9919 78.745 17.9831Z" fill="white"/>
<path d="M93.1209 12.6609H87.9935L86.7784 18.3578C86.6745 18.8476 86.6906 19.2932 86.8269 19.6947C86.966 20.0881 87.197 20.4333 87.5208 20.7305C87.8545 21.0195 88.2548 21.2644 88.7233 21.4651C89.1988 21.6659 89.7193 21.8144 90.2833 21.9108C90.8557 22.0071 91.4429 22.0553 92.0442 22.0553C92.802 22.0553 93.5557 21.979 94.3044 21.8265C95.0616 21.6739 95.7612 21.445 96.4031 21.14C97.0465 20.8268 97.586 20.4414 98.0214 19.9837C98.466 19.518 98.7547 18.976 98.8868 18.3578L100.102 12.6609H94.9745L93.9596 17.4183C93.9104 17.6512 93.7776 17.8278 93.5627 17.9483C93.3478 18.0687 93.1202 18.1289 92.8814 18.1289C92.7662 18.1289 92.6545 18.1128 92.5457 18.0808C92.4459 18.0486 92.356 18.0045 92.2774 17.9483C92.2092 17.884 92.1551 17.8077 92.1165 17.7194C92.0856 17.6311 92.0835 17.5267 92.1088 17.4063L93.1209 12.6609Z" fill="white"/>
<path fill-rule="evenodd" clip-rule="evenodd" d="M69.7669 12.6609C70.5326 12.6609 71.1781 12.7653 71.7014 12.974C72.2352 13.1748 72.6496 13.4517 72.9453 13.8051C73.2501 14.1503 73.451 14.5437 73.5458 14.9854C73.6414 15.427 73.6386 15.8847 73.5374 16.3584C73.4292 16.8642 73.2277 17.3461 72.9327 17.8037C72.6475 18.2534 72.2731 18.6548 71.811 19.0081C71.3565 19.3614 70.8227 19.6425 70.2102 19.8512C69.599 20.052 68.9186 20.1524 68.1691 20.1524H65.5128L65.4979 20.1644H65.4855L65.4829 20.1764L65.1593 21.694H60.0195L61.9461 12.6609H69.7669ZM67.2069 17.5388C67.454 17.5388 67.6685 17.4986 67.8503 17.4183C68.0421 17.33 68.1929 17.2216 68.3027 17.0931C68.4142 16.9566 68.4845 16.8201 68.5136 16.6836C68.5444 16.5391 68.5315 16.4066 68.4748 16.2862C68.4199 16.1577 68.3185 16.0533 68.1709 15.973C68.0233 15.8927 67.8219 15.8526 67.5665 15.8526H66.4299C66.4216 15.8526 66.4125 15.8566 66.4026 15.8646L66.4 15.8767L66.0481 17.5267C66.0563 17.5267 66.0596 17.5307 66.0578 17.5388H67.2069Z" fill="white"/>
<path fill-rule="evenodd" clip-rule="evenodd" d="M8.27601 18.153L8.28114 18.1289L9.44737 12.6608H4.32L2.66898 20.4018C0.841206 21.4822 -0.0977434 22.5269 0.00805589 23.4951C0.540466 28.3679 27.3329 29.4574 59.8505 25.9286C66.0117 25.2599 71.9364 24.4735 77.4895 23.6047C74.5465 23.8671 71.4111 24.1326 68.1973 24.4047L68.1935 24.4049L68.1876 24.4055L68.1836 24.4058L68.1794 24.4061L68.1708 24.4069C65.3477 24.6459 62.4642 24.89 59.5969 25.1417C28.4711 27.8743 2.92066 26.4916 2.52833 22.0534C2.42485 20.8824 4.0828 19.6158 7.15157 18.3353C4.96493 19.2942 4.03179 20.5485 3.76984 21.6939H12.364L13.1192 18.153H8.27601ZM6.99852 18.3825C6.94893 18.4021 6.89964 18.4216 6.85068 18.4412C7.02985 18.3711 7.21233 18.3009 7.39783 18.2308C7.42691 18.2188 7.45619 18.2069 7.48562 18.1951C7.40211 18.2265 7.31944 18.2579 7.23761 18.2894C7.19463 18.3059 7.15185 18.3224 7.10929 18.339C7.0722 18.3535 7.03526 18.368 6.99852 18.3825Z" fill="white"/>
<path d="M22.305 12.3237C22.0302 12.3075 21.7438 12.2994 21.4458 12.2994C20.688 12.2994 19.98 12.3556 19.3218 12.4681C18.6736 12.5724 18.076 12.729 17.529 12.9378C16.9837 13.1385 16.4908 13.3834 16.0503 13.6725C15.6197 13.9535 15.2382 14.2747 14.9058 14.636C14.5816 14.9973 14.3083 15.3908 14.0857 15.8163C13.8714 16.2419 13.7137 16.6915 13.6127 17.1653C13.6078 17.1882 13.6031 17.2111 13.5984 17.234C13.5942 17.2556 13.5899 17.2771 13.5859 17.2986C19.4501 17.1788 20.8578 15.7551 22.305 12.3237Z" fill="white"/>
<path d="M13.5829 17.2987C13.5235 17.6145 13.4932 17.9275 13.4922 18.2372C13.4992 18.5906 13.5508 18.9278 13.6471 19.2489C13.7515 19.5702 13.9006 19.8752 14.0943 20.1643C14.298 20.4454 14.552 20.7023 14.8565 20.9352C15.1693 21.168 15.5424 21.3687 15.9759 21.5374C16.4112 21.6979 16.9077 21.8224 17.4654 21.9107C17.8076 21.9691 18.1748 22.0099 18.567 22.0328C19.7594 18.6038 19.4367 17.2098 13.5829 17.2987Z" fill="white"/>
<path d="M18.6133 22.0353C18.8547 22.0486 19.1054 22.0552 19.3655 22.0552C20.3457 22.0552 21.2253 21.9669 22.0043 21.7903C22.7898 21.6216 23.4827 21.3848 24.0833 21.0796C24.6854 20.7665 25.199 20.4052 25.6241 19.9957C26.0508 19.5781 26.393 19.1325 26.6505 18.6588C26.9097 18.177 27.0942 17.6792 27.2038 17.1653C27.2116 17.1287 27.219 17.0923 27.2259 17.056C21.4564 17.1746 20.0534 18.6181 18.6133 22.0353Z" fill="white"/>
<path d="M27.227 17.0561C21.4752 17.1426 21.1663 15.7321 22.3498 12.3263C23.4532 12.3948 24.3681 12.5947 25.0944 12.9258C26.0102 13.3433 26.6414 13.9174 26.988 14.6481C27.3212 15.3505 27.4008 16.1533 27.227 17.0561Z" fill="white"/>
<path d="M115.633 21.694C116.09 21.694 116.461 21.3244 116.461 20.8685C116.461 20.4127 116.09 20.0431 115.633 20.0431C115.175 20.0431 114.805 20.4127 114.805 20.8685C114.805 21.3244 115.175 21.694 115.633 21.694Z" fill="white"/>
</g>
<defs>
<clipPath id="clip0_759_9108">
<rect width="118" height="28" fill="white"/>
</clipPath>
</defs>
</svg>
