<svg width="125" height="28" viewBox="0 0 125 28" fill="none" xmlns="http://www.w3.org/2000/svg">
<g clip-path="url(#clip0_759_9158)">
<path d="M36.0654 14.5614C36.0902 14.0831 36.0902 13.6038 36.0654 13.1255H8.80316C8.79741 13.2447 8.79238 13.3646 8.78951 13.4845H3.0783L3.07543 13.664H0V14.023H3.07471L3.07902 14.2025H8.78951C8.79238 14.3231 8.79669 14.4423 8.80388 14.5614H16.6307C16.601 14.3233 16.5862 14.0835 16.5862 13.8435H28.0805C28.0805 14.0869 28.0661 14.3267 28.0359 14.5614H36.0654ZM36.0086 12.4076H27.9001C27.8371 12.1633 27.7579 11.9235 27.6631 11.6896H17.0057C16.9116 11.9223 16.8319 12.1613 16.7687 12.4076H8.85919C8.87212 12.2877 8.88649 12.1678 8.9023 12.0486H3.19109L3.21552 11.8734H0V11.5145H3.27227L3.30532 11.3307H9.01652C9.03807 11.2108 9.0625 11.0909 9.08836 10.9717H35.7809C35.8815 11.4419 35.9583 11.9208 36.0086 12.4076ZM35.6063 10.2537H26.8204C26.6132 9.99527 26.3841 9.75507 26.1358 9.53579H18.5323C18.2845 9.75549 18.0546 9.99528 17.8477 10.2537H9.26293C9.29526 10.1338 9.32974 10.0139 9.36566 9.89477H3.65445L3.71767 9.69303H0V9.33333H3.83764L3.89368 9.1761H9.60488C9.64799 9.05549 9.69396 8.93631 9.74138 8.81713H35.1272C35.3125 9.28379 35.4727 9.7641 35.6063 10.2537ZM34.8182 8.0999H10.0503C10.1063 7.97928 10.1638 7.8601 10.2234 7.74092H4.51293L4.61422 7.54277H0V7.18379H4.80891L4.90014 7.02297H10.6113C10.681 6.90236 10.7529 6.78246 10.8261 6.664H34.0424C34.3283 7.12492 34.5884 7.60451 34.8182 8.0999ZM8.85919 15.2794H36.0093C35.9583 15.7662 35.8815 16.2457 35.7809 16.7153H27.3125C27.4454 16.4855 27.5632 16.2457 27.6638 15.9973H17.0043C17.1049 16.2457 17.222 16.4855 17.3549 16.7153H9.08764C9.06207 16.596 9.03813 16.4763 9.0158 16.3563H3.30532C3.29361 16.2932 3.28236 16.23 3.27155 16.1668H0V15.8078H3.2148C3.20655 15.7514 3.19865 15.6949 3.19109 15.6384H8.9023C8.88635 15.5189 8.87198 15.3992 8.85919 15.2794ZM9.26221 17.4332H35.6056C35.4727 17.9236 35.3125 18.4025 35.1272 18.8691H25.1185C25.4825 18.6672 25.8236 18.4265 26.1358 18.1512H18.5323C18.8445 18.4265 19.1856 18.6672 19.5496 18.8691H9.74138C9.69422 18.7501 9.64872 18.6304 9.60488 18.5102H3.89368L3.8319 18.3371H0V17.9782H3.71264C3.69305 17.9163 3.67389 17.8543 3.65517 17.7922H9.36566C9.32974 17.673 9.29526 17.5538 9.26221 17.4332ZM10.0503 19.5871H34.8182C34.5886 20.0808 34.3295 20.5603 34.0424 21.023H10.8261C10.7525 20.9044 10.6806 20.7848 10.6106 20.664H4.90014C4.86422 20.6023 4.82902 20.5405 4.79454 20.4781H0V20.1191H4.60129L4.51293 19.9468H10.2241C10.1644 19.828 10.1065 19.7083 10.0503 19.5878V19.5871ZM12.1552 22.8178C12.2608 22.9399 12.3693 23.0591 12.4799 23.1768H32.3886C32.8126 22.7253 33.2055 22.2455 33.5647 21.7409H11.3039C11.3901 21.8623 11.4777 21.9822 11.5682 22.0999H5.85704L5.99928 22.283H0V22.6419H6.2931C6.34267 22.7015 6.39296 22.7597 6.44396 22.8178H12.1552ZM14.5381 24.9717C14.7126 25.0959 14.8901 25.2158 15.0697 25.3307H29.7988C30.46 24.9063 31.0835 24.4259 31.6624 23.8948H13.2069C13.3398 24.0168 13.4756 24.1367 13.6135 24.2537H7.9023C7.97988 24.3198 8.05819 24.3844 8.13721 24.4476H0V24.8066H8.60057C8.67529 24.8626 8.75144 24.9178 8.82759 24.9717H14.5388H14.5381ZM19.579 27.1858C20.5 27.3818 21.4547 27.4845 22.4339 27.4845C24.6279 27.4845 26.7004 26.9676 28.5366 26.0486H16.3312C16.5869 26.1764 16.8463 26.2963 17.1099 26.4076H11.3987C11.5007 26.4507 11.6034 26.493 11.7062 26.5339H0V26.8929H12.7335C13.9957 27.2777 15.3355 27.4845 16.7234 27.4845C17.7026 27.4845 18.658 27.3818 19.579 27.1858ZM11.3039 5.94605H33.5647C33.2056 5.44142 32.8127 4.96169 32.3886 4.51015H12.4799C12.3693 4.6279 12.2608 4.74708 12.1545 4.86913H6.44396L6.31753 5.01703H0V5.376H6.02155C5.96623 5.44564 5.91164 5.516 5.85776 5.58708H11.5682C11.4777 5.70554 11.3901 5.82544 11.3039 5.94605ZM13.2062 3.7922H31.6616C31.083 3.2611 30.4598 2.7807 29.7988 2.35631H15.0697C14.8901 2.4719 14.7126 2.59179 14.5381 2.71528H8.82759C8.74856 2.772 8.66954 2.82872 8.59195 2.88687H0V3.24585H8.12931C8.05316 3.30759 7.97773 3.37005 7.90302 3.43323H13.6135C13.4756 3.55026 13.3398 3.67015 13.2062 3.7922ZM16.3319 1.63836H28.5374C26.6429 0.690979 24.553 0.199267 22.4346 0.202462C21.4547 0.202462 20.5 0.305846 19.579 0.501846C18.6403 0.3024 17.6831 0.202055 16.7234 0.202462C15.1904 0.202462 13.717 0.455179 12.3412 0.92041H0V1.27938H17.1099C16.8469 1.39083 16.5874 1.51055 16.3319 1.63836ZM79.9195 0C80.3915 0 80.7622 0.117744 81.0316 0.353231C81.3125 0.577949 81.4526 0.891692 81.4526 1.29662C81.4526 1.70082 81.3125 2.02031 81.0316 2.25579C80.7622 2.48051 80.3915 2.59323 79.9195 2.59323C79.4483 2.59323 79.0718 2.48051 78.7909 2.25579C78.5215 2.02031 78.3865 1.70082 78.3865 1.29662C78.3865 0.89241 78.5215 0.578667 78.7909 0.353231C79.0718 0.117744 79.4483 0 79.9195 0ZM81.2335 4.15836V11.4822C81.2335 11.9538 81.3125 12.2741 81.4698 12.4421C81.6379 12.6108 81.9188 12.6948 82.3118 12.6948V13.048C81.9975 13.0326 81.6831 13.0214 81.3685 13.0143C80.9364 12.9917 80.5038 12.9804 80.0711 12.9805C79.6336 12.9805 79.1896 12.992 78.7407 13.0143C78.4036 13.0217 78.0667 13.0329 77.7299 13.048V12.6948C78.1228 12.6948 78.398 12.6108 78.5553 12.4421C78.7234 12.2741 78.8082 11.9538 78.8082 11.4822V6.17867C78.8082 5.67395 78.7292 5.30277 78.5718 5.068C78.426 4.82103 78.1451 4.69754 77.7299 4.69754V4.34359C78.0891 4.37733 78.4375 4.39385 78.7744 4.39385C79.2457 4.39385 79.6839 4.37733 80.0883 4.34359C80.5036 4.29908 80.8858 4.23733 81.2335 4.15836Z" fill="white"/>
<path fill-rule="evenodd" clip-rule="evenodd" d="M85.9731 5.70332V4.1583C85.6254 4.23727 85.2432 4.29902 84.8279 4.34353C84.412 4.37727 83.9738 4.39379 83.5133 4.39379C83.1764 4.39379 82.8287 4.37727 82.4688 4.34353V4.69748C82.8732 4.69748 83.1541 4.82097 83.3114 5.06794C83.4687 5.30343 83.5471 5.67389 83.5471 6.17861V14.5973C83.5471 15.046 83.4687 15.349 83.3114 15.5062C83.1656 15.6634 82.907 15.7417 82.5363 15.7417V16.0956L83.4292 16.0454C83.8391 16.034 84.2491 16.0282 84.6591 16.0281C85.2317 16.0281 85.7712 16.0339 86.2762 16.0447C86.7927 16.0676 87.1972 16.0841 87.4896 16.0949V15.7417C87.0176 15.7417 86.6469 15.6519 86.3775 15.4725C86.1081 15.3045 85.9731 14.9562 85.9731 14.4286V12.7414C86.121 12.8649 86.2949 12.9668 86.4953 13.0479C86.8545 13.2059 87.2532 13.2841 87.6914 13.2841C88.287 13.2841 88.82 13.1772 89.292 12.9639C89.7718 12.753 90.1937 12.4297 90.5219 12.0213C90.8696 11.5948 91.134 11.0729 91.3136 10.4554C91.5047 9.83799 91.6002 9.12004 91.6002 8.30015C91.6002 7.36897 91.4652 6.5943 91.1958 5.97686C90.9264 5.34794 90.5664 4.88271 90.1175 4.57973C89.6687 4.26544 89.1323 4.1004 88.5844 4.10804C87.9328 4.10804 87.3603 4.27604 86.866 4.61276C86.4774 4.87481 86.18 5.23809 85.9731 5.70404V5.70332ZM85.9731 6.28199V12.3853C86.0665 12.4958 86.1792 12.5877 86.31 12.661C86.5233 12.773 86.7647 12.829 87.0348 12.829C87.5399 12.829 87.9386 12.661 88.231 12.3242C88.5226 11.976 88.7302 11.4936 88.8538 10.8761C88.9889 10.2479 89.0564 9.50127 89.0564 8.63686C89.0564 7.67194 88.9946 6.91379 88.871 6.36384C88.7475 5.81389 88.5787 5.42117 88.3653 5.18568C88.1519 4.94948 87.894 4.83173 87.5902 4.83173C87.1864 4.83173 86.8157 4.98968 86.4788 5.30343C86.2252 5.54753 86.0564 5.8742 85.9731 6.28199Z" fill="white"/>
<path d="M95.4726 4.10807C95.9446 4.10807 96.3541 4.16982 96.7025 4.2933C97.0617 4.4053 97.3203 4.51802 97.4776 4.63002C97.8591 4.88848 98.0955 4.71976 98.1853 4.12459H98.5387C98.5164 4.43905 98.4992 4.82674 98.4884 5.28623C98.4769 5.73566 98.4712 6.33587 98.4712 7.08828H98.1177C98.0601 6.66731 97.9526 6.2547 97.7973 5.85915C97.6543 5.47527 97.4169 5.13355 97.107 4.86551C96.8146 4.60705 96.4331 4.47782 95.9611 4.47782C95.6357 4.47782 95.3605 4.57402 95.1357 4.765C94.9108 4.94448 94.7988 5.20797 94.7988 5.55618C94.7988 5.89289 94.9001 6.19012 95.1019 6.44859C95.3045 6.69556 95.5624 6.93679 95.8771 7.17228C96.2025 7.397 96.5394 7.63823 96.8878 7.89597C97.2585 8.17669 97.5955 8.45741 97.8986 8.73812C98.1893 8.99204 98.4342 9.29388 98.6228 9.63054C98.8031 9.95577 98.8929 10.3427 98.8929 10.7922C98.8929 11.2969 98.7463 11.7399 98.4547 12.1218C98.1623 12.4923 97.7751 12.7787 97.2923 12.9805C96.8203 13.1829 96.2923 13.2842 95.709 13.2842C95.4026 13.2877 95.0969 13.2537 94.7988 13.1829C94.5652 13.1248 94.3391 13.04 94.1249 12.9302C93.9791 12.8627 93.8383 12.801 93.7039 12.745C93.5893 12.682 93.4711 12.6259 93.3498 12.577C93.2377 12.5433 93.1364 12.582 93.0466 12.6947C92.9683 12.8067 92.9065 12.964 92.8613 13.1657H92.5078C92.5301 12.8067 92.5473 12.3688 92.5581 11.8526C92.5696 11.3364 92.5753 10.6515 92.5753 9.79925H92.9288C92.9963 10.4052 93.1199 10.9437 93.2995 11.4146C93.4791 11.8756 93.7205 12.2403 94.0236 12.5095C94.3383 12.768 94.7312 12.8972 95.2032 12.8972C95.3943 12.8972 95.5797 12.8577 95.7592 12.7787C95.9388 12.6998 96.0847 12.5705 96.1975 12.391C96.321 12.2116 96.3828 11.9818 96.3828 11.7018C96.3828 11.2072 96.2197 10.7972 95.8936 10.472C95.5796 10.1467 95.1752 9.79279 94.681 9.41156C94.3218 9.11936 93.9791 8.83361 93.6536 8.55289C93.3519 8.27696 93.0909 7.95956 92.8785 7.61023C92.6733 7.25162 92.5686 6.84439 92.5753 6.43136C92.5753 5.92664 92.7097 5.50018 92.9791 5.15197C93.2541 4.80013 93.6218 4.53187 94.0409 4.3773C94.4964 4.19657 94.9825 4.10517 95.4726 4.10807ZM116.386 4.2933C116.093 4.16982 115.712 4.10807 115.24 4.10807C114.712 4.10271 114.19 4.2301 113.724 4.47853C113.264 4.71402 112.899 5.11248 112.628 5.67392V4.15905C112.281 4.2373 111.899 4.29905 111.483 4.34356C111.079 4.3773 110.641 4.39382 110.169 4.39382C109.833 4.39382 109.484 4.3773 109.125 4.34356V4.69751C109.54 4.69751 109.821 4.821 109.967 5.06797C110.124 5.30346 110.202 5.67392 110.202 6.17864V11.4821C110.202 11.9538 110.118 12.274 109.95 12.442C109.793 12.6107 109.518 12.6947 109.125 12.6947V13.048C109.462 13.0329 109.799 13.0217 110.136 13.0142C110.573 12.9921 111.011 12.9808 111.45 12.9805C111.843 12.9805 112.225 12.992 112.595 13.0142C112.977 13.0257 113.258 13.0372 113.437 13.048V12.6947C113.146 12.6947 112.937 12.6107 112.814 12.442C112.69 12.274 112.628 11.9538 112.628 11.4821V6.80182C112.628 6.43135 112.702 6.10038 112.848 5.80818C113.005 5.5052 113.207 5.26971 113.454 5.10171C113.691 4.93645 113.974 4.84821 114.263 4.849C114.521 4.849 114.712 4.91074 114.835 5.03423C114.97 5.14623 115.06 5.3092 115.106 5.52243C115.15 5.72418 115.172 5.96541 115.172 6.24612V11.4821C115.172 11.9538 115.111 12.274 114.987 12.442C114.875 12.6107 114.667 12.6947 114.364 12.6947V13.048C114.566 13.0372 114.863 13.0257 115.257 13.0142C116.054 12.9688 116.853 12.9688 117.649 13.0142C118.065 13.0257 118.373 13.0372 118.575 13.048V12.6947C118.216 12.6947 117.963 12.6107 117.817 12.442C117.672 12.274 117.598 11.9538 117.598 11.4821V6.87648L117.598 6.82407L117.595 6.65392C117.621 6.37249 117.696 6.09784 117.817 5.84264C117.975 5.53894 118.177 5.29771 118.424 5.11823C118.671 4.93874 118.941 4.849 119.233 4.849C119.524 4.849 119.738 4.91074 119.873 5.03423C120.019 5.14623 120.114 5.3092 120.159 5.52243C120.215 5.72418 120.243 5.96541 120.243 6.24612V11.4821C120.243 11.9538 120.182 12.274 120.058 12.442C119.946 12.6107 119.738 12.6947 119.435 12.6947V13.048C119.637 13.0372 119.935 13.0257 120.327 13.0142C120.726 12.9916 121.125 12.9804 121.524 12.9805C121.94 12.9805 122.361 12.992 122.787 13.0142C123.214 13.0257 123.534 13.0372 123.748 13.048V12.6947C123.355 12.6947 123.074 12.6107 122.905 12.442C122.748 12.274 122.669 11.9538 122.669 11.4821V6.9533C122.669 6.39187 122.63 5.94315 122.552 5.60643C122.473 5.25823 122.344 4.97823 122.164 4.765C121.984 4.56253 121.748 4.40602 121.456 4.2933C121.164 4.16982 120.782 4.10807 120.311 4.10807C119.738 4.10807 119.199 4.22582 118.694 4.4613C118.21 4.69248 117.817 5.1333 117.516 5.78376C117.506 5.72433 117.494 5.6652 117.481 5.60643C117.402 5.25823 117.273 4.97823 117.093 4.765C116.914 4.56253 116.677 4.40602 116.386 4.2933ZM107.803 11.2129V4.15833C107.455 4.2373 107.073 4.29905 106.657 4.34356C106.253 4.3773 105.815 4.39382 105.343 4.39382C105.006 4.39382 104.659 4.3773 104.299 4.34356V4.69751C104.715 4.69751 104.996 4.821 105.141 5.06797C105.299 5.30346 105.377 5.67392 105.377 6.17864V10.5897C105.377 10.9602 105.299 11.2969 105.141 11.5999C105.008 11.8773 104.805 12.1153 104.552 12.2905C104.316 12.4591 104.032 12.5476 103.743 12.5433C103.463 12.5433 103.249 12.4865 103.103 12.3745C102.951 12.2421 102.845 12.0656 102.799 11.8698C102.752 11.6258 102.729 11.3775 102.732 11.1289V4.15833C102.384 4.2373 102.002 4.29905 101.587 4.34356C101.182 4.3773 100.744 4.39382 100.273 4.39382C99.936 4.39382 99.5875 4.3773 99.2284 4.34356V4.69751C99.6436 4.69751 99.9245 4.821 100.07 5.06797C100.228 5.30346 100.306 5.67392 100.306 6.17864V10.4382C100.306 10.9882 100.345 11.4376 100.424 11.7851C100.503 12.1333 100.638 12.414 100.828 12.6273C100.997 12.8182 101.227 12.9755 101.519 13.0989C101.811 13.2217 102.193 13.2842 102.665 13.2842C103.249 13.2842 103.776 13.1657 104.248 12.9302C104.731 12.6833 105.108 12.279 105.377 11.7183V13.2332C105.753 13.1406 106.137 13.0787 106.523 13.048C106.927 13.0142 107.365 12.9977 107.837 12.9977C108.185 12.9977 108.533 13.0142 108.881 13.048V12.6947C108.477 12.6947 108.196 12.577 108.039 12.3408C107.881 12.0938 107.803 11.7183 107.803 11.2136V11.2129Z" fill="white"/>
<path fill-rule="evenodd" clip-rule="evenodd" d="M75.2149 4.56256C74.5971 4.25959 73.878 4.1081 73.0583 4.1081C72.2609 4.1081 71.5475 4.25959 70.9189 4.56256C70.3011 4.86554 69.8126 5.35374 69.4534 6.02718C69.105 6.70061 68.9304 7.59302 68.9304 8.70441C68.9304 9.81579 69.105 10.7075 69.4527 11.3816C69.8119 12.0436 70.3004 12.526 70.9182 12.829C71.5475 13.132 72.2609 13.2842 73.0583 13.2842C73.878 13.2842 74.5971 13.132 75.2149 12.829C75.832 12.526 76.3155 12.0436 76.6632 11.3816C77.0116 10.7082 77.1854 9.81579 77.1854 8.70441C77.1854 7.59302 77.0116 6.70133 76.6632 6.02718C76.3155 5.35374 75.832 4.86554 75.2149 4.56256ZM71.9297 5.45497C72.2328 4.78154 72.6093 4.44482 73.0583 4.44482C73.5188 4.44482 73.8952 4.78154 74.1869 5.45497C74.49 6.11692 74.6416 7.20031 74.6416 8.70441C74.6416 10.2085 74.49 11.2919 74.1869 11.9538C73.8952 12.6158 73.5188 12.9475 73.0583 12.9475C72.6093 12.9475 72.2328 12.6158 71.9297 11.9538C71.6265 11.2919 71.4749 10.2085 71.4749 8.70441C71.4749 7.20031 71.6258 6.11692 71.9297 5.45497ZM63.4369 16.2134C62.74 16.2134 62.1172 16.1517 61.5669 16.0282C61.0281 15.9162 60.6014 15.7367 60.2867 15.4897C59.9836 15.2535 59.832 14.9621 59.832 14.6138C59.832 14.2656 59.9886 13.9519 60.3033 13.6712C60.6179 13.4019 61.0841 13.1887 61.702 13.0315L61.8528 13.3007C61.6599 13.4455 61.4994 13.6289 61.3816 13.8392C61.2918 14.0416 61.2465 14.2491 61.2465 14.4624C61.2465 14.934 61.4599 15.293 61.8873 15.5393C62.3255 15.7977 62.9146 15.927 63.656 15.927C64.161 15.927 64.6107 15.8595 65.0037 15.7252C65.4081 15.5903 65.7221 15.3878 65.9469 15.1193C66.1833 14.8493 66.3011 14.5184 66.3011 14.1256C66.3011 13.7889 66.1775 13.5025 65.9304 13.267C65.6833 13.0423 65.189 12.9303 64.4476 12.9303H63.4031C62.9433 12.9303 62.5382 12.88 62.1905 12.7788C61.8528 12.6783 61.5892 12.5203 61.3981 12.3071C61.2077 12.0831 61.1122 11.8024 61.1122 11.4656C61.1122 10.9939 61.2975 10.579 61.6682 10.2193C61.9584 9.93785 62.3593 9.67005 62.8708 9.41661C62.5345 9.37483 62.2042 9.29411 61.8866 9.1761C61.3816 8.98513 60.9828 8.69292 60.6912 8.3002C60.3988 7.90749 60.253 7.40277 60.253 6.78533C60.253 6.1679 60.3988 5.66246 60.6912 5.26974C60.9828 4.86554 61.3816 4.57333 61.8873 4.39384C62.3923 4.20359 62.9649 4.1081 63.605 4.1081C64.2458 4.1081 64.8183 4.20359 65.3234 4.39456C65.6567 4.51231 65.9426 4.67959 66.1833 4.89497C66.3262 4.68892 66.5001 4.50513 66.7048 4.34359C67.087 4.0521 67.4972 3.90564 67.9347 3.90564C68.2939 3.90564 68.564 4.00687 68.7436 4.20933C68.9347 4.39959 69.0303 4.65231 69.0303 4.96677C69.0303 5.30349 68.9397 5.55549 68.7601 5.7242C68.5805 5.88215 68.3787 5.96041 68.1538 5.96041C67.9561 5.95779 67.7655 5.88617 67.615 5.75795C67.457 5.62297 67.3679 5.42123 67.3456 5.152C67.3262 4.91077 67.3938 4.6121 67.5482 4.25456C67.2206 4.39384 66.9678 4.55251 66.7896 4.73128C66.6553 4.8607 66.538 5.00665 66.4405 5.16564C66.4678 5.19938 66.4943 5.23456 66.5195 5.26974C66.8119 5.66246 66.9577 6.16718 66.9577 6.78461C66.9577 7.40205 66.8119 7.90749 66.5195 8.3002C66.2278 8.69292 65.8291 8.98513 65.3234 9.1761C64.8183 9.36636 64.2458 9.46185 63.605 9.46185C63.5092 9.46195 63.4133 9.45979 63.3176 9.45538C63.166 9.55805 63.0202 9.66718 62.8808 9.78205C62.7943 9.84973 62.7248 9.93675 62.678 10.0361C62.6312 10.1355 62.6084 10.2445 62.6114 10.3543C62.6114 10.7132 62.8363 10.8927 63.2853 10.8927H65.1215C65.7393 10.8927 66.2896 10.9659 66.7724 11.1117C67.2666 11.2582 67.6538 11.4994 67.9347 11.8361C68.2271 12.1613 68.3729 12.5878 68.3729 13.1155C68.3729 13.6654 68.1933 14.1759 67.8341 14.6476C67.4857 15.1193 66.9469 15.4948 66.2163 15.7755C65.4864 16.0677 64.5597 16.2134 63.4369 16.2134ZM63.605 9.15887C63.9089 9.15887 64.1438 8.99087 64.3126 8.65415C64.4814 8.30595 64.5655 7.68277 64.5655 6.78533C64.5655 5.88718 64.4814 5.26974 64.3126 4.93302C64.1445 4.58482 63.9089 4.41108 63.6057 4.41108C63.3133 4.41108 63.0777 4.58482 62.8981 4.93302C62.7293 5.26974 62.6452 5.88718 62.6452 6.78533C62.6452 7.68277 62.7293 8.30595 62.8981 8.65415C63.0777 8.99087 63.3133 9.15887 63.605 9.15887ZM57.651 4.56256C57.0331 4.25959 56.3147 4.1081 55.4951 4.1081C54.6976 4.1081 53.9843 4.25959 53.3557 4.56256C52.7379 4.86554 52.2494 5.35374 51.8902 6.02718C51.5418 6.70061 51.3672 7.59302 51.3672 8.70441C51.3672 9.81579 51.5418 10.7075 51.8895 11.3816C52.2487 12.0436 52.7372 12.526 53.355 12.829C53.9843 13.132 54.6976 13.2842 55.4951 13.2842C56.3147 13.2842 57.0339 13.132 57.651 12.829C58.2688 12.526 58.7515 12.0436 59.0999 11.3816C59.4484 10.7082 59.6222 9.81579 59.6222 8.70441C59.6222 7.59302 59.4484 6.70133 59.0999 6.02718C58.7522 5.35374 58.2688 4.86554 57.651 4.56256ZM54.3658 5.45497C54.6696 4.78154 55.0454 4.44482 55.4951 4.44482C55.9548 4.44482 56.3313 4.78154 56.6229 5.45497C56.9268 6.11692 57.0784 7.20031 57.0784 8.70441C57.0784 10.2085 56.9268 11.2919 56.6237 11.9538C56.3313 12.6158 55.9556 12.9475 55.4951 12.9475C55.0454 12.9475 54.6689 12.6158 54.3658 11.9538C54.0626 11.2919 53.911 10.2085 53.911 8.70441C53.911 7.20031 54.0626 6.11692 54.3658 5.45497Z" fill="white"/>
<path d="M46.8295 1.12793V1.46537C46.448 1.47613 46.1556 1.52065 45.9538 1.59962C45.8614 1.63089 45.7778 1.68395 45.7103 1.75431C45.6428 1.82467 45.5932 1.91026 45.5658 2.00383C45.499 2.19408 45.4652 2.49778 45.4652 2.91275V11.4657C45.4652 11.8132 45.4875 12.0716 45.5328 12.2403C45.5888 12.4083 45.6901 12.5203 45.8359 12.5771C45.9933 12.6331 46.2239 12.6611 46.5263 12.6611H47.3525C47.7332 12.6611 48.0931 12.5713 48.43 12.3918C48.7677 12.2123 49.0701 11.9596 49.3395 11.6337C49.6237 11.2717 49.8511 10.8686 50.0141 10.4383C50.1937 9.9788 50.328 9.46762 50.4178 8.90619H50.8058C50.772 9.28813 50.7555 9.78208 50.7555 10.388C50.7555 10.6465 50.7605 11.022 50.772 11.5159C50.7835 12.0099 50.8165 12.5211 50.8726 13.048C50.2273 13.0243 49.5815 13.013 48.9358 13.0143C48.2174 13.0035 47.5766 12.9978 47.0148 12.9978H45.9372C45.499 12.9978 45.027 13.0035 44.522 13.0143C44.0163 13.0143 43.5055 13.02 42.989 13.0315C42.4717 13.0315 41.9832 13.0373 41.5234 13.048V12.7113C41.8826 12.6891 42.152 12.6438 42.3316 12.5771C42.5112 12.5096 42.629 12.3746 42.6858 12.1729C42.7526 11.9704 42.7864 11.6674 42.7864 11.2632V2.91275C42.7864 2.49706 42.7526 2.1948 42.6858 2.00383C42.6637 1.91043 42.618 1.82425 42.5531 1.7535C42.4882 1.68274 42.4063 1.62977 42.3151 1.59962C42.1355 1.52065 41.8711 1.47613 41.5234 1.46465V1.12793C42.4103 1.16077 43.2976 1.17752 44.1851 1.17819C44.6793 1.17819 45.1621 1.17316 45.6334 1.16167C46.1168 1.15019 46.5155 1.13942 46.8295 1.12793Z" fill="white"/>
<path fill-rule="evenodd" clip-rule="evenodd" d="M122.036 26.9611C122.013 26.8405 122.029 26.6832 122.085 26.4894L124.458 17.8977C124.078 18.0534 123.685 18.1748 123.284 18.2603C122.872 18.3414 122.4 18.3852 121.867 18.3938L121.782 18.648C122.178 18.648 122.424 18.7126 122.521 18.8418C122.618 18.971 122.63 19.1721 122.557 19.4463L121.996 21.5636C121.96 21.4614 121.899 21.37 121.819 21.2979C121.682 21.1687 121.492 21.1041 121.25 21.1041C120.766 21.1041 120.317 21.2132 119.906 21.4307C119.492 21.6568 119.119 21.9515 118.804 22.3023C118.472 22.6578 118.191 23.0568 117.968 23.4884C117.748 23.9083 117.574 24.3504 117.447 24.8072C117.333 25.2007 117.271 25.6079 117.266 26.0177C117.266 26.4047 117.327 26.7234 117.447 26.9733C117.569 27.2152 117.734 27.3969 117.944 27.5175C118.154 27.6309 118.388 27.6869 118.646 27.6869C119.041 27.6869 119.397 27.5706 119.712 27.3366C120.026 27.0946 120.321 26.7234 120.596 26.223C120.711 26.0191 120.827 25.7901 120.942 25.536L120.862 25.8361C120.789 26.0725 120.74 26.3157 120.717 26.5619C120.701 26.7716 120.717 26.9496 120.766 27.0946C120.862 27.4895 121.161 27.6877 121.661 27.6877C121.847 27.6877 122.036 27.651 122.23 27.5785C122.424 27.506 122.605 27.3811 122.775 27.203C122.953 27.0257 123.094 26.7723 123.199 26.4406L123.49 25.5575H123.26L123.066 26.1017C122.921 26.5138 122.784 26.7917 122.654 26.9367C122.533 27.0745 122.408 27.1427 122.279 27.1427C122.141 27.1427 122.061 27.0824 122.036 26.9611ZM121.391 23.8452C121.299 24.1403 121.2 24.421 121.093 24.6859C120.891 25.2028 120.677 25.6465 120.45 26.0177C120.233 26.3803 120.019 26.6624 119.809 26.8649C119.599 27.058 119.413 27.1549 119.252 27.1549C119.098 27.1549 118.985 27.0824 118.913 26.9374C118.848 26.7838 118.816 26.554 118.816 26.2474C118.816 25.8117 118.864 25.368 118.961 24.9164C119.058 24.4569 119.191 24.0168 119.36 23.5975C119.517 23.204 119.711 22.8269 119.942 22.4718C120.16 22.1329 120.39 21.8665 120.632 21.6727C120.882 21.4788 121.128 21.3826 121.371 21.3826C121.532 21.3826 121.661 21.4393 121.758 21.5521C121.826 21.6253 121.878 21.7316 121.914 21.8723L121.391 23.8452Z" fill="white"/>
<path d="M113.974 27.5176H112.484L113.937 22.3024C114.01 22.0605 114.034 21.891 114.01 21.7941C113.986 21.6972 113.913 21.6491 113.792 21.6491C113.639 21.6491 113.497 21.7259 113.368 21.8788C113.239 22.0317 113.106 22.3024 112.969 22.6901L112.762 23.258H112.533L112.847 22.3505C112.961 22.0274 113.101 21.7783 113.271 21.6002C113.441 21.415 113.627 21.2858 113.828 21.2133C114.03 21.1408 114.236 21.1041 114.446 21.1041C114.704 21.1041 114.894 21.1566 115.015 21.2621C115.144 21.3669 115.225 21.504 115.257 21.6735C115.298 21.8561 115.306 22.0445 115.281 22.2299C115.265 22.4237 115.233 22.6133 115.184 22.7985L114.989 23.5574L115.039 23.4281C115.265 22.8552 115.483 22.3993 115.693 22.0605C115.911 21.7137 116.141 21.4674 116.383 21.3224C116.62 21.1783 116.893 21.1028 117.17 21.1041C117.461 21.1041 117.683 21.1889 117.836 21.3583C117.998 21.5277 118.078 21.7374 118.078 21.9879C118.078 22.189 118.03 22.3792 117.933 22.5566C117.839 22.723 117.706 22.8641 117.545 22.9679C117.392 23.0649 117.215 23.113 117.013 23.113C116.811 23.113 116.65 23.0606 116.528 22.9557C116.415 22.8509 116.359 22.6973 116.359 22.4962C116.359 22.3182 116.4 22.1574 116.48 22.0116C116.558 21.8697 116.665 21.7461 116.795 21.6491C116.924 21.5442 117.066 21.4717 117.219 21.4308C117.202 21.4142 117.181 21.4019 117.158 21.3949C117.131 21.3864 117.102 21.3822 117.073 21.3827C116.896 21.3827 116.714 21.4473 116.528 21.5766C116.343 21.6972 116.149 21.8953 115.947 22.1696C115.745 22.4438 115.54 22.8064 115.33 23.258C115.093 23.792 114.883 24.3373 114.7 24.892C114.609 25.1606 114.517 25.4492 114.425 25.7586L113.974 27.5176Z" fill="white"/>
<path fill-rule="evenodd" clip-rule="evenodd" d="M109.451 25.648L109.4 25.8361C109.323 26.1093 109.271 26.3887 109.243 26.671C109.218 26.9295 109.258 27.147 109.363 27.3244C109.525 27.5663 109.799 27.6877 110.187 27.6877C110.373 27.6877 110.558 27.651 110.744 27.5785C110.937 27.506 111.119 27.3811 111.289 27.203C111.458 27.0178 111.6 26.7593 111.712 26.4291L112.016 25.546H111.785L111.603 26.0902C111.458 26.5095 111.317 26.7881 111.18 26.9252C111.043 27.0616 110.909 27.1305 110.78 27.1305C110.675 27.1305 110.607 27.0982 110.574 27.0336C110.549 26.9514 110.541 26.8649 110.55 26.7794C110.566 26.6769 110.59 26.5758 110.623 26.4772L112.185 21.1041C111.942 21.1621 111.695 21.2027 111.446 21.2254C111.196 21.2498 110.926 21.2656 110.635 21.2735L110.46 21.9211C110.452 21.7567 110.404 21.5966 110.32 21.4551C110.257 21.3449 110.165 21.2539 110.054 21.192C109.943 21.1301 109.817 21.0997 109.69 21.1041C109.335 21.1041 108.98 21.2132 108.625 21.4307C108.247 21.6681 107.908 21.962 107.62 22.3023C107.294 22.6734 107.01 23.0791 106.772 23.5121C106.534 23.9463 106.343 24.4048 106.203 24.8798C106.071 25.3071 106.002 25.7514 105.998 26.1986C105.998 26.6509 106.103 27.0135 106.312 27.2878C106.522 27.5541 106.845 27.6869 107.281 27.6869C107.587 27.6869 107.882 27.5986 108.165 27.4213C108.455 27.2432 108.73 26.9489 108.988 26.5382C109.148 26.2905 109.302 25.994 109.451 25.648ZM108.407 26.8764C108.221 27.0458 108.056 27.1305 107.911 27.1305C107.789 27.1305 107.697 27.0702 107.632 26.9489C107.575 26.8197 107.547 26.6064 107.547 26.3078C107.547 25.8799 107.595 25.4405 107.692 24.9889C107.789 24.5366 107.919 24.1015 108.08 23.6822C108.25 23.2622 108.435 22.8874 108.637 22.5565C108.839 22.2262 109.041 21.9634 109.243 21.7696C109.452 21.5758 109.65 21.4795 109.836 21.4795C110.029 21.4795 110.166 21.5765 110.248 21.7696C110.328 21.9448 110.349 22.1796 110.31 22.4732L109.952 23.7957L109.993 23.5853C109.864 24.1015 109.71 24.5775 109.533 25.0133C109.378 25.4029 109.192 25.7792 108.976 26.1383C108.782 26.4528 108.592 26.699 108.407 26.8764ZM104.37 26.4894C104.313 26.6832 104.297 26.8405 104.322 26.9611C104.345 27.0824 104.426 27.1427 104.564 27.1427C104.693 27.1427 104.818 27.0745 104.939 26.9374C105.068 26.7917 105.205 26.5138 105.35 26.1017L105.544 25.5575H105.774L105.484 26.4406C105.379 26.7715 105.238 27.0257 105.06 27.203C104.909 27.3679 104.723 27.4963 104.515 27.5785C104.333 27.649 104.141 27.6859 103.946 27.6877C103.446 27.6877 103.147 27.4895 103.05 27.0946C102.999 26.922 102.983 26.7409 103.002 26.5619C103.018 26.3523 103.066 26.1096 103.147 25.8361L103.227 25.536C103.111 25.7901 102.995 26.0191 102.881 26.223C102.606 26.7234 102.312 27.0946 101.997 27.3359C101.69 27.5674 101.315 27.6911 100.931 27.6877C100.673 27.6877 100.439 27.6302 100.229 27.5182C100.013 27.3903 99.8397 27.2005 99.7325 26.9733C99.6111 26.7234 99.5508 26.4047 99.5508 26.0177C99.5508 25.6465 99.6111 25.2423 99.7325 24.8072C99.8532 24.3636 100.027 23.9242 100.253 23.4884C100.476 23.057 100.757 22.658 101.088 22.3023C101.419 21.939 101.786 21.649 102.19 21.4307C102.604 21.2124 103.066 21.1001 103.534 21.1041C103.776 21.1041 103.966 21.1687 104.103 21.2979C104.182 21.3676 104.242 21.4559 104.281 21.5635L104.842 19.4463C104.915 19.1721 104.903 18.9703 104.806 18.8411C104.709 18.7119 104.462 18.6472 104.067 18.6472L104.152 18.3938C104.627 18.3911 105.101 18.3464 105.569 18.2603C105.97 18.1748 106.363 18.0534 106.743 17.8977L104.37 26.4894ZM103.377 24.6859C103.485 24.4203 103.585 24.1403 103.675 23.8452L104.199 21.8723C104.174 21.7545 104.12 21.6446 104.043 21.5521C103.995 21.4964 103.936 21.4523 103.869 21.423C103.802 21.3936 103.729 21.3798 103.656 21.3826C103.414 21.3826 103.167 21.4796 102.917 21.6727C102.674 21.8665 102.444 22.1329 102.227 22.4718C101.996 22.8265 101.801 23.2034 101.646 23.5968C101.474 24.0239 101.34 24.4655 101.246 24.9164C101.151 25.3537 101.102 25.7999 101.1 26.2474C101.1 26.554 101.133 26.7838 101.197 26.9367C101.27 27.0824 101.383 27.1549 101.536 27.1549C101.698 27.1549 101.883 27.058 102.093 26.8642C102.304 26.6631 102.517 26.3803 102.735 26.017C102.987 25.5925 103.202 25.1472 103.377 24.6859Z" fill="white"/>
<path d="M92.8828 27.5176H94.372L94.5121 26.9705L94.5049 27.01C94.6587 26.4449 94.8318 25.9007 95.0258 25.3759C95.2142 24.8751 95.4241 24.3826 95.6551 23.8998C95.8735 23.4475 96.0911 23.0526 96.3095 22.7138C96.5272 22.3749 96.737 22.1128 96.9388 21.9269C97.1407 21.733 97.3261 21.6368 97.4956 21.6368C97.6328 21.6368 97.7176 21.6849 97.7499 21.7819C97.7834 21.8918 97.7876 22.0086 97.7621 22.1207C97.738 22.2519 97.7056 22.3814 97.6651 22.5084L96.5638 25.8361C96.4503 26.175 96.3857 26.465 96.3699 26.707C96.3534 26.9489 96.3979 27.1471 96.5028 27.3C96.584 27.4214 96.6967 27.514 96.8419 27.5786C96.9956 27.6504 97.1773 27.6877 97.3871 27.6877C97.5804 27.6877 97.7743 27.6511 97.9683 27.5786C98.1702 27.514 98.3555 27.3926 98.525 27.2153C98.7025 27.038 98.8483 26.7795 98.9611 26.4406L99.2636 25.5576H99.0337L98.8397 26.1018C98.6867 26.5218 98.5416 26.7996 98.4044 26.9367C98.275 27.0746 98.1501 27.1428 98.0286 27.1428C97.8993 27.1428 97.8189 27.0904 97.7865 26.9848C97.7542 26.8728 97.7743 26.707 97.8469 26.4895L99.0337 22.9313C99.1386 22.6168 99.191 22.3225 99.191 22.0482C99.1989 21.7661 99.1228 21.5399 98.9611 21.3705C98.8074 21.1932 98.5329 21.1048 98.1378 21.1048C97.839 21.1048 97.5524 21.1695 97.2779 21.298C97.0035 21.4272 96.737 21.6526 96.4791 21.9757C96.2205 22.2902 95.9539 22.7181 95.6795 23.258C95.4974 23.6222 95.3304 23.9936 95.1788 24.3715L95.5825 22.7985C95.6314 22.6046 95.6673 22.4108 95.6917 22.2177C95.7161 22.0166 95.7075 21.8343 95.6673 21.6727C95.6288 21.5059 95.5297 21.3594 95.3893 21.2614C95.2521 21.1565 95.0502 21.1041 94.7837 21.1041C94.4604 21.1041 94.1659 21.1932 93.8993 21.3705C93.6335 21.5478 93.4151 21.8745 93.2456 22.3505L92.9309 23.258H93.1608L93.367 22.6894C93.5121 22.2945 93.645 22.0238 93.7664 21.8788C93.8957 21.7259 94.0365 21.649 94.1903 21.649C94.3031 21.649 94.372 21.6814 94.3965 21.746C94.4281 21.8106 94.4367 21.891 94.4202 21.9879C94.4021 22.0941 94.3778 22.1991 94.3476 22.3024L92.8828 27.5176Z" fill="white"/>
<path fill-rule="evenodd" clip-rule="evenodd" d="M89.7975 25.8361L89.8486 25.648C89.7192 25.957 89.5645 26.2548 89.3859 26.5383C89.1273 26.9489 88.8529 27.244 88.5619 27.4213C88.2796 27.5987 87.985 27.687 87.6783 27.687C87.2422 27.687 86.9197 27.5542 86.7099 27.2878C86.4994 27.0135 86.3945 26.651 86.3945 26.1987C86.3945 25.7794 86.4635 25.34 86.6007 24.8798C86.7408 24.4049 86.9315 23.9463 87.1697 23.5121C87.4069 23.079 87.6912 22.6733 88.0174 22.3024C88.3057 21.9621 88.6447 21.6681 89.0224 21.4308C89.3773 21.2132 89.7329 21.1041 90.0878 21.1041C90.3622 21.1041 90.572 21.2211 90.7178 21.4559C90.7954 21.5758 90.8421 21.7309 90.8572 21.9211L91.0325 21.2735C91.3227 21.2656 91.5935 21.2499 91.8435 21.2254C92.1021 21.201 92.3478 21.1608 92.582 21.1041L91.0202 26.478C90.9874 26.5764 90.9631 26.6776 90.9477 26.7802C90.9385 26.8657 90.9468 26.9522 90.9721 27.0344C91.0044 27.099 91.0727 27.1313 91.1776 27.1313C91.3069 27.1313 91.4398 27.0631 91.577 26.926C91.7142 26.7888 91.8557 26.5095 92.0009 26.091L92.1826 25.5461H92.4125L92.11 26.4291C91.9973 26.7601 91.8557 27.0179 91.6862 27.2045C91.5354 27.369 91.3492 27.4971 91.1417 27.5793C90.9643 27.6503 90.7752 27.6873 90.5842 27.6884C90.197 27.6884 89.9225 27.5671 89.7609 27.3251C89.656 27.1478 89.6158 26.9303 89.6402 26.6718C89.6684 26.3895 89.7211 26.1094 89.7975 25.8361ZM88.3076 27.1306C88.4534 27.1306 88.6187 27.0459 88.8047 26.8764C88.9901 26.6991 89.1797 26.4528 89.3737 26.1384C89.5669 25.8239 89.753 25.4491 89.9304 25.0133C90.1079 24.5775 90.2616 24.1015 90.3909 23.5846L90.35 23.7957L90.7077 22.474C90.7458 22.1796 90.725 21.9448 90.6452 21.7704C90.5641 21.5765 90.4269 21.4796 90.2329 21.4796C90.0475 21.4796 89.85 21.5765 89.6402 21.7696C89.4384 21.9635 89.2365 22.2255 89.0346 22.5565C88.8327 22.8868 88.6467 23.2623 88.4771 23.6815C88.3145 24.1065 88.185 24.5433 88.0899 24.9882C87.995 25.4217 87.9464 25.8641 87.9448 26.3078C87.9448 26.6065 87.9728 26.8204 88.0296 26.9489C88.0942 27.0703 88.1869 27.1306 88.3076 27.1306Z" fill="white"/>
<path d="M87.2324 21.5154L87.269 21.2735H85.8265L86.3969 19.2891C86.1582 19.3478 85.9154 19.3884 85.6706 19.4104C85.4206 19.4341 85.1498 19.4506 84.8596 19.4585L84.3387 21.2735H83.2367L83.1764 21.5154H84.2698L83.0305 25.836C82.9257 26.1907 82.8897 26.5095 82.9221 26.7916C82.9623 27.0659 83.0751 27.2841 83.2611 27.445C83.4544 27.6065 83.7331 27.6876 84.0966 27.6876C84.5083 27.6876 84.8631 27.5785 85.162 27.3602C85.4608 27.1427 85.695 26.7837 85.8646 26.2833L86.1067 25.5575H85.8761L85.695 26.0536C85.5492 26.4571 85.3883 26.7392 85.2101 26.9008C85.0406 27.0623 84.871 27.1427 84.7015 27.1427C84.6349 27.1449 84.5686 27.1318 84.5079 27.1044C84.4471 27.0771 84.3934 27.0361 84.3509 26.9848C84.2698 26.8807 84.2619 26.7155 84.3265 26.4894L85.7568 21.5154H87.2324ZM83.2223 18.8655C83.1419 19.0751 83.0327 19.3824 82.8955 19.7852C82.7662 20.18 82.6376 20.697 82.5083 21.3338H82.2662C82.2899 21.2211 82.3064 21.104 82.3143 20.9834C82.3298 20.8752 82.3379 20.7661 82.3387 20.6568C82.3387 20.3416 82.2741 20.068 82.1448 19.834C82.0206 19.5885 81.8212 19.3891 81.5758 19.2647C81.3258 19.1196 81.0025 19.0471 80.6074 19.0471C80.1792 19.0471 79.8157 19.1598 79.5176 19.386C79.2188 19.6035 79.0693 19.9546 79.0693 20.4385C79.0693 20.7372 79.1376 21.02 79.2748 21.2857C79.4206 21.5441 79.6024 21.7983 79.82 22.0481C80.0463 22.2901 80.2841 22.5364 80.5341 22.7862C80.7848 23.0281 81.019 23.2787 81.2367 23.5365C81.4544 23.7949 81.6325 24.0692 81.7698 24.3592C81.9149 24.6421 81.9874 24.9522 81.9874 25.2911C81.9874 25.719 81.8825 26.0859 81.6728 26.3925C81.4681 26.6936 81.1992 26.9457 80.8854 27.1305C80.5564 27.3185 80.2016 27.4571 79.8323 27.5419C79.4767 27.6368 79.1105 27.6858 78.7425 27.6876C78.379 27.6876 78.0765 27.6589 77.8344 27.6029C77.6275 27.564 77.4275 27.4945 77.241 27.3969C77.0825 27.31 76.9249 27.2215 76.7683 27.1312C76.697 27.0714 76.6148 27.0261 76.5262 26.9977C76.4698 26.9693 76.4082 26.9527 76.3452 26.9489C76.2396 26.9489 76.1512 27.0013 76.0787 27.1068C75.9834 27.2644 75.9024 27.4302 75.8366 27.6022H75.5938C75.7937 27.1101 75.9598 26.6049 76.0909 26.0902C76.1871 25.719 76.2963 25.2552 76.4177 24.6981H76.6598C76.626 24.8584 76.5978 25.0198 76.5751 25.182C76.5507 25.3435 76.5427 25.5051 76.5506 25.6666C76.5751 26.2309 76.7482 26.6667 77.0715 26.9733C77.4027 27.2798 77.8869 27.4328 78.5241 27.4328C79.065 27.4328 79.4731 27.32 79.7475 27.0946C80.0219 26.8606 80.1591 26.5217 80.1591 26.078C80.1591 25.7391 80.0945 25.4318 79.9652 25.1583C79.8431 24.8738 79.68 24.6087 79.481 24.3714C79.2757 24.1259 79.0618 23.8879 78.8394 23.6578C78.6167 23.4276 78.4024 23.1894 78.1972 22.9434C77.999 22.6991 77.8322 22.4309 77.7008 22.1451C77.5686 21.8395 77.5027 21.5094 77.5075 21.1766C77.5075 20.7738 77.5923 20.4227 77.7619 20.124C77.9326 19.8327 78.1636 19.5811 78.4393 19.386C78.7221 19.1842 79.0375 19.0327 79.3718 18.938C79.697 18.8354 80.0358 18.7824 80.3768 18.7808C80.8129 18.7808 81.1721 18.8332 81.4544 18.9387C81.7374 19.0428 81.9795 19.1685 82.1814 19.3135L82.4113 19.4585C82.4838 19.4908 82.5406 19.5066 82.5808 19.5066C82.6936 19.5066 82.8272 19.2934 82.9802 18.8655H83.2223Z" fill="white"/>
<path fill-rule="evenodd" clip-rule="evenodd" d="M71.5365 26.9611C71.512 26.8405 71.5286 26.6832 71.5853 26.4894L73.9582 17.8977C73.5783 18.0534 73.1852 18.1748 72.7836 18.2603C72.372 18.3414 71.9 18.3852 71.3669 18.3938L71.2821 18.648C71.6773 18.648 71.9244 18.7126 72.0207 18.8418C72.1176 18.971 72.1299 19.1721 72.0573 19.4463L71.4955 21.5636C71.4602 21.4614 71.3994 21.37 71.3188 21.2979C71.1816 21.1687 70.9919 21.1041 70.7498 21.1041C70.2649 21.1041 69.8174 21.2132 69.4057 21.4307C68.9916 21.6568 68.619 21.9515 68.3037 22.3023C67.9724 22.6578 67.6913 23.0568 67.4682 23.4884C67.2483 23.9083 67.0737 24.3504 66.9474 24.8072C66.8324 25.2007 66.7713 25.6079 66.7656 26.0177C66.7656 26.4047 66.8267 26.7234 66.9474 26.9733C67.0688 27.2152 67.234 27.3969 67.4438 27.5175C67.6536 27.6309 67.8878 27.6869 68.1464 27.6869C68.5415 27.6869 68.8971 27.5706 69.2118 27.3366C69.5264 27.0946 69.8209 26.7234 70.0954 26.223C70.2103 26.0191 70.326 25.7901 70.4416 25.536L70.3626 25.8361C70.2891 26.0724 70.2403 26.3156 70.2168 26.5619C70.1975 26.7409 70.2138 26.922 70.2649 27.0946C70.3619 27.4895 70.66 27.6877 71.1615 27.6877C71.3468 27.6877 71.5365 27.651 71.7304 27.5785C71.9244 27.506 72.1054 27.3811 72.275 27.203C72.4531 27.0257 72.5939 26.7723 72.6988 26.4406L72.9898 25.5575H72.7599L72.5659 26.1017C72.4208 26.5138 72.2836 26.7917 72.1543 26.9367C72.0329 27.0745 71.9079 27.1427 71.7786 27.1427C71.6421 27.1427 71.5609 27.0824 71.5365 26.9611ZM70.8899 23.8452C70.7994 24.1403 70.7003 24.421 70.5918 24.6859C70.3906 25.2028 70.1765 25.6465 69.9503 26.0177C69.7326 26.3803 69.5185 26.6624 69.3087 26.8649C69.099 27.058 68.9136 27.1549 68.7513 27.1549C68.5982 27.1549 68.4855 27.0824 68.4129 26.9374C68.3482 26.7838 68.3159 26.554 68.3159 26.2474C68.3159 25.8117 68.364 25.368 68.461 24.9164C68.558 24.4569 68.6909 24.0168 68.8605 23.5975C69.0167 23.2039 69.2116 22.8268 69.4424 22.4718C69.66 22.1329 69.8899 21.8665 70.132 21.6727C70.382 21.4788 70.6284 21.3826 70.8705 21.3826C71.0322 21.3826 71.1615 21.4393 71.2584 21.5521C71.326 21.6253 71.3777 21.7316 71.4136 21.8723L70.8899 23.8452Z" fill="white"/>
<path d="M61.5869 27.5176H60.0977L61.5632 22.3024C61.5955 22.1897 61.6192 22.0848 61.635 21.9879C61.653 21.9068 61.6447 21.8221 61.6113 21.746C61.5869 21.6814 61.5179 21.649 61.4051 21.649C61.2521 21.649 61.1106 21.7259 60.9813 21.8788C60.8606 22.0238 60.727 22.2945 60.5819 22.6901L60.3764 23.258H60.1465L60.4612 22.3505C60.6307 21.8745 60.8491 21.5478 61.1149 21.3705C61.3807 21.1932 61.6752 21.1048 61.9985 21.1048C62.265 21.1048 62.4669 21.1565 62.6041 21.2614C62.7448 21.3592 62.8442 21.5058 62.8829 21.6727C62.9231 21.8343 62.931 22.0159 62.9073 22.2177C62.8826 22.4133 62.8461 22.6072 62.7981 22.7985L62.3944 24.3722C62.5653 23.9494 62.732 23.5789 62.8951 23.258C63.1695 22.7181 63.4353 22.2902 63.6939 21.9757C63.9525 21.6526 64.2183 21.4272 64.4928 21.298C64.7679 21.1687 65.0538 21.1041 65.3527 21.1041C65.7478 21.1041 66.0229 21.1932 66.176 21.3705C66.3376 21.5399 66.4145 21.7654 66.4058 22.0482C66.4058 22.3225 66.3541 22.6168 66.2485 22.9313L65.0625 26.4895C64.9892 26.707 64.9691 26.8728 65.0014 26.9848C65.0337 27.0904 65.1149 27.1428 65.2442 27.1428C65.3649 27.1428 65.4899 27.0746 65.6192 26.9375C65.7564 26.7996 65.9015 26.521 66.0553 26.1018L66.2492 25.5576H66.4791L66.176 26.4406C66.0632 26.7795 65.9173 27.038 65.7406 27.216C65.5885 27.3821 65.3967 27.5068 65.1831 27.5786C64.9976 27.6497 64.8007 27.6867 64.602 27.6877C64.3922 27.6877 64.2104 27.6511 64.0574 27.5786C63.9116 27.514 63.7988 27.4206 63.7183 27.3C63.6135 27.1471 63.5689 26.9489 63.5847 26.707C63.6013 26.465 63.6659 26.175 63.7787 25.8361L64.8807 22.5084C64.9209 22.3792 64.9533 22.25 64.9777 22.1207C65.0031 22.0086 64.9989 21.8919 64.9655 21.7819C64.9331 21.6849 64.8484 21.6368 64.7112 21.6368C64.5416 21.6368 64.3556 21.7338 64.1544 21.9269C63.9525 22.1128 63.7421 22.3749 63.5244 22.7138C63.2828 23.0956 63.0644 23.4917 62.8706 23.8998C62.653 24.3521 62.4425 24.8432 62.2406 25.3759C62.0467 25.9 61.8742 26.4449 61.7205 27.01L61.7277 26.9705L61.5869 27.5176Z" fill="white"/>
<path fill-rule="evenodd" clip-rule="evenodd" d="M57.0627 25.648L57.0124 25.8361C56.9361 26.1095 56.8832 26.3888 56.8543 26.6711C56.8299 26.9296 56.8701 27.1471 56.975 27.3244C57.1367 27.5664 57.4111 27.6877 57.799 27.6877C58.0061 27.6863 58.2106 27.6425 58.4001 27.5592C58.5896 27.4758 58.7601 27.3547 58.901 27.2031C59.0706 27.0179 59.2114 26.7594 59.3249 26.4292L59.6266 25.5461H59.3967L59.2157 26.0903C59.0699 26.5096 58.9283 26.7881 58.7918 26.9253C58.6546 27.0617 58.521 27.1306 58.3924 27.1306C58.2868 27.1306 58.2186 27.0983 58.1862 27.0337C58.161 26.9515 58.1527 26.865 58.1618 26.7795C58.1783 26.6747 58.202 26.5742 58.2351 26.4773L59.7969 21.1041C59.5539 21.1622 59.3071 21.2027 59.0584 21.2255C58.8077 21.2499 58.5375 21.2657 58.2466 21.2736L58.0713 21.9212C58.0638 21.7568 58.016 21.5967 57.9319 21.4552C57.8689 21.345 57.777 21.2541 57.6661 21.1923C57.5552 21.1304 57.4295 21.0999 57.3026 21.1041C56.947 21.1041 56.5914 21.2133 56.2365 21.4308C55.8816 21.6491 55.5469 21.9391 55.2315 22.3024C54.9054 22.6733 54.6211 23.079 54.3838 23.5121C54.1457 23.9464 53.9549 24.4049 53.8148 24.8798C53.6827 25.3072 53.6135 25.7515 53.6094 26.1987C53.6094 26.651 53.7143 27.0136 53.924 27.2878C54.1338 27.5542 54.4571 27.687 54.8924 27.687C55.1992 27.687 55.4944 27.5987 55.776 27.4214C56.067 27.2433 56.3421 26.949 56.6 26.5383C56.7602 26.2906 56.914 25.9941 57.0627 25.648ZM56.0189 26.8765C55.8335 27.0459 55.6676 27.1306 55.5225 27.1306C55.401 27.1306 55.3084 27.0703 55.2437 26.949C55.1877 26.8197 55.1589 26.6065 55.1589 26.3078C55.1589 25.8799 55.2078 25.4406 55.3048 24.989C55.401 24.5367 55.5304 24.1016 55.692 23.6823C55.8615 23.2623 56.0469 22.8875 56.2487 22.5566C56.4506 22.2263 56.6525 21.9635 56.8543 21.7697C57.0641 21.5758 57.2617 21.4796 57.4477 21.4796C57.6417 21.4796 57.7782 21.5766 57.8594 21.7697C57.9398 21.9449 57.9599 22.1796 57.9219 22.4733L57.5641 23.7957L57.6051 23.5854C57.4758 24.1016 57.3227 24.5776 57.1453 25.0134C56.9671 25.4485 56.7818 25.8239 56.5878 26.1384C56.3939 26.4529 56.2042 26.6991 56.0189 26.8765Z" fill="white"/>
<path d="M50.3681 27.5176H48.8789L50.3315 22.3024C50.4041 22.0605 50.4285 21.891 50.4041 21.7941C50.3803 21.6972 50.3078 21.6491 50.1864 21.6491C50.0334 21.6491 49.8918 21.7259 49.7625 21.8788C49.6332 22.0317 49.5003 22.3024 49.3631 22.6901L49.1569 23.258H48.927L49.2417 22.3505C49.3552 22.0274 49.496 21.7783 49.6655 21.6002C49.8351 21.415 50.0211 21.2858 50.223 21.2133C50.4242 21.1408 50.6303 21.1041 50.8408 21.1041C51.0987 21.1041 51.2884 21.1566 51.4091 21.2621C51.5375 21.3651 51.6238 21.5114 51.6519 21.6735C51.6921 21.8429 51.7 22.0281 51.6756 22.2299C51.6598 22.4237 51.6275 22.6133 51.5786 22.7985L51.3847 23.5574L51.404 23.505L51.4335 23.4281C51.6598 22.8552 51.8775 22.3993 52.0872 22.0605C52.3056 21.7137 52.5355 21.4674 52.7776 21.3224C53.0148 21.1783 53.2874 21.1028 53.565 21.1041C53.8552 21.1041 54.0772 21.1889 54.2309 21.3583C54.3918 21.5277 54.473 21.7374 54.473 21.9879C54.473 22.189 54.4242 22.3792 54.3272 22.5566C54.2332 22.7229 54.1004 22.8641 53.94 22.9679C53.7799 23.0665 53.5949 23.1169 53.4069 23.113C53.2058 23.113 53.0441 23.0606 52.9227 22.9557C52.8099 22.8509 52.7532 22.6973 52.7532 22.4962C52.7532 22.3182 52.7934 22.1574 52.8746 22.0116C52.9551 21.8666 53.0599 21.746 53.1893 21.6491C53.3186 21.5442 53.4594 21.4717 53.6131 21.4308C53.5961 21.4143 53.5754 21.402 53.5528 21.3949C53.5367 21.3895 53.5201 21.3859 53.5032 21.3841C53.4912 21.383 53.4793 21.3825 53.4673 21.3827C53.2905 21.3827 53.1081 21.4473 52.9227 21.5766C52.7374 21.6972 52.5434 21.8953 52.3416 22.1696C52.1404 22.4438 51.9342 22.8064 51.7237 23.258C51.487 23.7919 51.277 24.3373 51.0944 24.892C51.0032 25.1598 50.9112 25.4492 50.8193 25.7586L50.3681 27.5176Z" fill="white"/>
<path fill-rule="evenodd" clip-rule="evenodd" d="M48.1052 19.3983C47.7014 19.1075 47.0556 18.9625 46.1677 18.9625C45.8932 18.9625 45.6188 18.9668 45.3437 18.9747C45.0779 18.9826 44.7711 18.9869 44.4241 18.9869H43.8185C43.6001 18.9783 43.3947 18.9747 43.2007 18.9747C43.0393 18.9676 42.8779 18.9595 42.7165 18.9503L42.6562 19.1923C42.9708 19.1923 43.1849 19.2325 43.2977 19.3136C43.4191 19.3854 43.4751 19.4988 43.4672 19.6525C43.4509 19.8484 43.4185 20.0427 43.3702 20.2333L41.7718 26.2353C41.7 26.5254 41.6188 26.7437 41.5297 26.8887C41.4493 27.0274 41.3199 27.1311 41.1669 27.1794C41.0132 27.2275 40.7991 27.2599 40.5247 27.2757L40.4766 27.5176C40.6131 27.5104 40.779 27.5061 40.9723 27.5061C41.1662 27.4975 41.3724 27.4939 41.5901 27.4939C42.1994 27.4754 42.8093 27.4795 43.4184 27.5061C43.7496 27.5133 44.0527 27.5183 44.3271 27.5183C44.8516 27.5183 45.348 27.4652 45.8164 27.3604C46.2481 27.2625 46.661 27.0952 47.0391 26.865C47.3773 26.6636 47.6634 26.3858 47.8746 26.0537C48.0843 25.7306 48.1892 25.3523 48.1892 24.9165C48.1892 24.424 47.9881 24.0004 47.5843 23.6457C47.1892 23.2903 46.5628 23.0807 45.7072 23.0161C46.241 22.9395 46.7596 22.7803 47.2445 22.5444C47.6971 22.3103 48.052 22.0239 48.3106 21.685C48.5709 21.3632 48.712 20.9615 48.71 20.5478C48.71 20.0639 48.5096 19.6805 48.1052 19.3983ZM44.2402 23.174L43.4306 26.2353C43.3825 26.4364 43.3501 26.6144 43.3343 26.7673C43.3257 26.921 43.3659 27.038 43.455 27.1191C43.5441 27.1995 43.7093 27.2398 43.9514 27.2398C44.5247 27.2398 44.9931 27.1306 45.3559 26.9131C45.7113 26.7042 45.9945 26.3918 46.1677 26.0178C46.3451 25.6301 46.4335 25.1943 46.4335 24.7111C46.4335 24.4118 46.381 24.1497 46.2761 23.9243C46.1838 23.6952 46.0177 23.5035 45.8041 23.3793C45.5865 23.2422 45.2955 23.174 44.932 23.174H44.2402ZM44.2948 22.968H44.848C45.3077 22.968 45.6993 22.8509 46.0218 22.6169C46.353 22.3749 46.6037 22.0605 46.7733 21.6735C46.9498 21.2901 47.0405 20.8729 47.0391 20.4508C47.0391 20.0473 46.9586 19.7372 46.797 19.5189C46.6439 19.3014 46.3731 19.1923 45.9852 19.1923C45.7036 19.1923 45.5017 19.249 45.3803 19.3617C45.2596 19.4665 45.1547 19.6963 45.0656 20.0509L44.2948 22.968Z" fill="white"/>
</g>
<defs>
<clipPath id="clip0_759_9158">
<rect width="125" height="28" fill="white"/>
</clipPath>
</defs>
</svg>
