<svg width="108" height="28" viewBox="0 0 108 28" fill="none" xmlns="http://www.w3.org/2000/svg">
<g clip-path="url(#clip0_759_9175)">
<path d="M9.96917 21.0291C9.96889 21.0573 9.96875 21.0856 9.96875 21.114C9.96875 21.3314 9.97648 21.5447 9.99202 21.754H14.3228C14.2839 21.5515 14.2644 21.3382 14.2644 21.114C14.2644 21.0855 14.2647 21.0572 14.2653 21.0291H9.96917Z" fill="white"/>
<path d="M4.68696 21.0291V21.754H0.578125V21.0291H4.68696Z" fill="white"/>
<path d="M10.0078 20.2913H14.3667C14.4221 20.0801 14.5001 19.879 14.6008 19.688C14.6246 19.6465 14.6492 19.606 14.6747 19.5663H10.1127C10.0667 19.8023 10.0317 20.0439 10.0078 20.2913Z" fill="white"/>
<path d="M4.68696 19.5663V20.2913H0.578125V19.5663H4.68696Z" fill="white"/>
<path d="M9.58686 18.8285C9.41518 18.6637 9.17639 18.5374 8.87051 18.4497C8.53431 18.3621 8.055 18.3183 7.43243 18.3183H4.68696V18.8285H0.578125V18.1035H9.80432V18.8285H9.58686Z" fill="white"/>
<path d="M10.3008 18.8285H15.3902C15.4495 18.7877 15.5108 18.7489 15.5742 18.7123C15.9851 18.4747 16.4582 18.3558 16.9936 18.3558C17.529 18.3558 17.996 18.4747 18.3944 18.7123C18.4578 18.7489 18.519 18.7877 18.5779 18.8285H23.6556C23.6016 18.6615 23.5412 18.4977 23.4744 18.3371C23.4428 18.2582 23.4099 18.1804 23.3757 18.1035H10.5775C10.5423 18.1804 10.5083 18.2582 10.4755 18.3371C10.4111 18.4977 10.3528 18.6615 10.3008 18.8285Z" fill="white"/>
<path d="M10.9727 17.3659H22.9914C22.8366 17.1111 22.6652 16.8693 22.477 16.6409H11.4925C11.3033 16.8693 11.13 17.1111 10.9727 17.3659Z" fill="white"/>
<path d="M12.2148 15.9031H21.7588C21.4461 15.6302 21.1066 15.3885 20.7402 15.178H13.2376C12.8727 15.3885 12.5318 15.6302 12.2148 15.9031Z" fill="white"/>
<path d="M9.80562 15.178V15.903H0.504934C0.484265 15.7774 0.459284 15.6631 0.430007 15.5601C0.393088 15.417 0.346098 15.2896 0.289062 15.178H9.80562Z" fill="white"/>
<path d="M28.3224 15.178C28.3048 15.1864 28.2872 15.195 28.2697 15.2036C27.8617 15.4062 27.4867 15.6393 27.1445 15.903H36.3306C36.333 15.8949 36.3355 15.8869 36.338 15.8791C36.4251 15.6039 36.5621 15.3912 36.7489 15.2411V15.178H28.3224Z" fill="white"/>
<path d="M40.1946 15.178C39.8297 15.3885 39.4888 15.6302 39.1719 15.903H48.7159C48.4032 15.6302 48.0636 15.3885 47.6973 15.178H40.1946Z" fill="white"/>
<path d="M68.9922 15.178H74.827C75.0465 15.2963 75.2493 15.43 75.4353 15.5788C75.5628 15.6818 75.6806 15.79 75.79 15.903H68.9922V15.178Z" fill="white"/>
<path d="M57.2852 15.178H61.9811C61.9237 15.2838 61.8724 15.4049 61.8271 15.5413C61.792 15.6472 61.7623 15.7677 61.7382 15.903H57.485C57.4669 15.7774 57.445 15.6631 57.4194 15.5601C57.3825 15.417 57.3377 15.2896 57.2852 15.178Z" fill="white"/>
<path d="M51.7109 15.178H56.3498C56.2972 15.2896 56.2524 15.417 56.2155 15.5601C56.1899 15.6631 56.168 15.7774 56.1499 15.903H51.9108C51.8927 15.7774 51.8708 15.6631 51.8452 15.5601C51.8083 15.417 51.7635 15.2896 51.7109 15.178Z" fill="white"/>
<path d="M49.434 16.6409H38.4496C38.2602 16.8693 38.087 17.1111 37.9297 17.3659H49.9484C49.7937 17.1111 49.6221 16.8693 49.434 16.6409Z" fill="white"/>
<path d="M51.9782 17.3659V17.0049C51.9782 16.878 51.9763 16.7566 51.9727 16.6409H56.0927C56.089 16.7566 56.0871 16.878 56.0871 17.0049V17.3659H51.9782Z" fill="white"/>
<path d="M50.3327 18.1035H37.5346C37.4994 18.1804 37.4653 18.2582 37.4326 18.337C37.3681 18.4977 37.3099 18.6615 37.2578 18.8285H42.3473C42.4066 18.7877 42.4679 18.7489 42.5312 18.7122C42.9421 18.4747 43.4153 18.3558 43.9507 18.3558C44.4861 18.3558 44.953 18.4747 45.3514 18.7122C45.4148 18.7489 45.476 18.7877 45.5349 18.8285H50.6126C50.5587 18.6615 50.4983 18.4977 50.4314 18.337C50.3998 18.2582 50.3669 18.1804 50.3327 18.1035Z" fill="white"/>
<path d="M51.9766 18.8285V18.1035H56.0854V18.8285H51.9766Z" fill="white"/>
<path d="M50.8062 19.5663H46.2344C46.2588 19.6059 46.2822 19.6465 46.3048 19.688C46.411 19.8789 46.4934 20.0801 46.5519 20.2913H50.915C50.8902 20.0439 50.8539 19.8022 50.8062 19.5663Z" fill="white"/>
<path d="M51.9766 20.2913V19.5663H56.0854V20.2913H51.9766Z" fill="white"/>
<path d="M50.9545 21.0291H46.6583C46.659 21.0572 46.6593 21.0855 46.6593 21.114C46.6593 21.3382 46.6388 21.5515 46.5977 21.754H50.9308C50.9469 21.5447 50.9549 21.3314 50.9549 21.114C50.9549 21.0856 50.9548 21.0573 50.9545 21.0291Z" fill="white"/>
<path d="M51.9766 21.754V21.0291H56.0854V21.754H51.9766Z" fill="white"/>
<path d="M50.839 22.4918H46.3322C46.3234 22.508 46.3144 22.524 46.3053 22.54C46.1638 22.8005 45.9853 23.0261 45.7695 23.2168H50.6702C50.7388 22.9813 50.7951 22.7398 50.839 22.4918Z" fill="white"/>
<path d="M51.9766 23.2168V22.4918H56.0854V23.2168H51.9766Z" fill="white"/>
<path d="M50.4071 23.9545H37.4609C37.5685 24.2065 37.6888 24.4481 37.8215 24.6795H50.0558C50.186 24.4481 50.3031 24.2065 50.4071 23.9545Z" fill="white"/>
<path d="M51.9766 24.6795V23.9545H56.0854V24.6795H51.9766Z" fill="white"/>
<path d="M49.5678 25.4172H38.3125C38.4895 25.6464 38.6817 25.8631 38.8891 26.0674C38.9152 26.0926 38.9415 26.1175 38.968 26.1422H48.9159C48.9418 26.1175 48.9676 26.0926 48.9931 26.0674C49.2006 25.8631 49.3921 25.6464 49.5678 25.4172Z" fill="white"/>
<path d="M51.9336 26.1422C51.9569 25.9303 51.9707 25.6887 51.9751 25.4172H56.087C56.0914 25.6887 56.1053 25.9303 56.1285 26.1422H51.9336Z" fill="white"/>
<path d="M47.9749 26.88H39.9141C40.2861 27.1192 40.6848 27.3237 41.1103 27.4934C41.9694 27.8312 42.9157 28 43.9492 28C44.9701 28 45.9102 27.8312 46.7693 27.4934C47.2011 27.3237 47.6029 27.1192 47.9749 26.88Z" fill="white"/>
<path d="M35.2933 26.1422V25.4172H26.1797C26.3997 25.6792 26.6426 25.9208 26.9083 26.1422H35.2933Z" fill="white"/>
<path d="M28.0156 26.88H35.2925V27.8312C35.0186 27.7436 34.7446 27.6998 34.4707 27.6998C34.2839 27.6998 34.0162 27.7248 33.6676 27.7749C33.3315 27.8249 32.9392 27.8499 32.491 27.8499C30.8848 27.8499 29.5028 27.581 28.3448 27.0431C28.2325 26.991 28.1229 26.9366 28.0156 26.88Z" fill="white"/>
<path d="M21.9588 26.1423C21.9848 26.1176 22.0105 26.0926 22.0361 26.0674C22.2435 25.8632 22.4351 25.6465 22.6107 25.4173H11.3555C11.5324 25.6465 11.7247 25.8632 11.9321 26.0674C11.9582 26.0926 11.9844 26.1176 12.0109 26.1423H21.9588Z" fill="white"/>
<path d="M12.9609 26.88H21.0217C20.6498 27.1192 20.2479 27.3237 19.8162 27.4934C18.957 27.8312 18.017 28 16.996 28C15.9626 28 15.0163 27.8312 14.1572 27.4934C13.7317 27.3237 13.3329 27.1192 12.9609 26.88Z" fill="white"/>
<path d="M4.73825 26.1422C4.71053 25.9307 4.69408 25.689 4.68885 25.4172H0.576662C0.572268 25.6887 0.558438 25.9303 0.535156 26.1422H4.73825Z" fill="white"/>
<path d="M0.378399 26.88H4.92713C5.02857 27.1192 5.15381 27.2987 5.30281 27.4184V27.5873H0.0546875V27.4184C0.188129 27.2939 0.296038 27.1144 0.378399 26.88Z" fill="white"/>
<path d="M0.578125 24.6795H4.68696V23.9545H0.578125V24.6795Z" fill="white"/>
<path d="M0.578125 23.2168H4.68696V22.4918H0.578125V23.2168Z" fill="white"/>
<path d="M10.082 22.4918C10.1243 22.7398 10.1786 22.9813 10.2448 23.2168H15.1531C14.9344 23.0261 14.7504 22.8005 14.6012 22.54C14.5925 22.524 14.584 22.508 14.5757 22.4918H10.082Z" fill="white"/>
<path d="M19.3753 22.4918C19.3664 22.508 19.3574 22.524 19.3483 22.54C19.2069 22.8005 19.0283 23.0261 18.8125 23.2168H23.7132C23.7818 22.9813 23.8381 22.7398 23.882 22.4918H19.3753Z" fill="white"/>
<path d="M24.8555 22.4918C24.8984 22.7415 24.953 22.9832 25.0193 23.2168H30.0077C29.7811 23.0415 29.5932 22.8347 29.4441 22.5963C29.4226 22.562 29.402 22.5272 29.3822 22.4918H24.8555Z" fill="white"/>
<path d="M29.112 21.754H24.7692C24.7512 21.5219 24.7422 21.2835 24.7422 21.039C24.7422 21.0356 24.7422 21.0323 24.7422 21.0291H29.0378C29.0384 21.2862 29.0631 21.5279 29.112 21.754Z" fill="white"/>
<path d="M36.6575 21.754H31.9414C32.0735 21.5926 32.1757 21.3668 32.248 21.0765C32.252 21.061 32.2559 21.0452 32.2597 21.0291H36.3263C36.3302 21.0452 36.3341 21.061 36.3381 21.0765C36.4104 21.3668 36.5168 21.5926 36.6575 21.754Z" fill="white"/>
<path d="M37.0391 22.4918C37.0814 22.7398 37.1356 22.9813 37.2018 23.2168H42.1101C41.8915 23.0261 41.7075 22.8005 41.5582 22.54C41.5496 22.524 41.5411 22.508 41.5327 22.4918H37.0391Z" fill="white"/>
<path d="M41.2838 21.754H36.9529C36.9374 21.5447 36.9297 21.3314 36.9297 21.114C36.9297 21.0856 36.9298 21.0573 36.9301 21.0291H41.2263C41.2256 21.0572 41.2253 21.0855 41.2253 21.114C41.2253 21.3382 41.2448 21.5515 41.2838 21.754Z" fill="white"/>
<path d="M41.3276 20.2913C41.383 20.0801 41.4611 19.879 41.5617 19.688C41.5855 19.6465 41.6102 19.606 41.6357 19.5663H37.0737C37.0276 19.8023 36.9926 20.0439 36.9688 20.2913H41.3276Z" fill="white"/>
<path d="M36.227 20.2913C36.214 20.0929 36.2075 19.873 36.2075 19.6317V19.5663H32.3788V19.6317C32.3788 19.873 32.3723 20.0929 32.3594 20.2913H36.227Z" fill="white"/>
<path d="M29.1094 20.2913C29.1653 20.0321 29.253 19.7905 29.3724 19.5663H24.8782C24.8315 19.8015 24.7966 20.0432 24.7734 20.2913H29.1094Z" fill="white"/>
<path d="M23.9579 20.2913C23.9331 20.0439 23.8968 19.8023 23.8491 19.5663H19.2773C19.3017 19.606 19.3251 19.6465 19.3476 19.688C19.4539 19.879 19.5363 20.0801 19.5948 20.2913H23.9579Z" fill="white"/>
<path d="M19.7012 21.0291C19.7019 21.0572 19.7023 21.0855 19.7023 21.114C19.7023 21.3382 19.6817 21.5515 19.6406 21.754H23.9738C23.9899 21.5447 23.9979 21.3314 23.9979 21.114C23.9979 21.0856 23.9978 21.0573 23.9975 21.0291H19.7012Z" fill="white"/>
<path d="M25.0703 18.8285H29.9962C30.1461 18.7066 30.3114 18.5991 30.4918 18.506C30.965 18.2808 31.5191 18.1682 32.1541 18.1682C32.2293 18.1682 32.304 18.169 32.3782 18.1705V18.8285H36.2069V18.1035H25.3595C25.2481 18.3371 25.1517 18.5788 25.0703 18.8285Z" fill="white"/>
<path d="M25.7773 17.3659H36.2051V17.1738C36.2051 16.979 36.2099 16.8013 36.2194 16.6409H26.3419C26.1368 16.8669 25.9486 17.1085 25.7773 17.3659Z" fill="white"/>
<path d="M35.2924 23.9545H25.2812C25.3887 24.207 25.512 24.4487 25.6514 24.6795H35.2924V23.9545Z" fill="white"/>
<path d="M23.0949 24.6795C23.2251 24.4481 23.3422 24.2065 23.4462 23.9545H10.5C10.6077 24.2065 10.7279 24.4481 10.8607 24.6795H23.0949Z" fill="white"/>
<path d="M51.7768 26.88H56.2841C56.3665 27.1144 56.4744 27.2939 56.6079 27.4184V27.5873H51.4531V27.4184C51.5866 27.2939 51.6945 27.1144 51.7768 26.88Z" fill="white"/>
<path d="M57.3277 26.88C57.2409 27.1144 57.1213 27.2939 56.9688 27.4184V27.5873H62.9639C64.0845 27.5873 65.0433 27.4058 65.8402 27.0431C65.9581 26.9921 66.0721 26.9377 66.1821 26.88H57.3277Z" fill="white"/>
<path d="M70.2617 26.88C71.125 27.4516 72.2824 27.7373 73.7351 27.7373C74.0717 27.7373 74.3762 27.7185 74.6507 27.681C74.9245 27.6435 75.1301 27.6247 75.2666 27.6247C75.4785 27.6247 75.7091 27.6686 75.9578 27.7561V26.88H70.2617Z" fill="white"/>
<path d="M75.9537 26.1422H69.4337C69.2528 25.9195 69.1056 25.6778 68.9922 25.4172H75.9537V26.1422Z" fill="white"/>
<path d="M77.2654 26.88C77.1832 27.1144 77.0752 27.2939 76.9414 27.4184V27.5873H82.078V27.4184C81.9442 27.2939 81.8362 27.1144 81.754 26.88H77.2654Z" fill="white"/>
<path d="M81.6109 26.1422H77.4219C77.4456 25.9303 77.4588 25.6887 77.4637 25.4172H81.5753C81.5788 25.6887 81.5907 25.9303 81.6109 26.1422Z" fill="white"/>
<path d="M83.8303 26.88C83.7529 27.1144 83.6428 27.2939 83.5 27.4184V27.5873H88.6547V27.4184C88.5119 27.2939 88.3976 27.1144 88.3133 26.88H83.8303Z" fill="white"/>
<path d="M88.153 26.1423H83.9766C84.0003 25.9304 84.0142 25.6887 84.0184 25.4173H88.1119C88.1161 25.6887 88.13 25.9304 88.153 26.1423Z" fill="white"/>
<path d="M89.2426 26.88C89.1464 27.1164 89.0189 27.2958 88.8594 27.4184V27.5873H93.3605V27.4559C93.2539 27.2667 93.1954 27.0747 93.1863 26.88H89.2426Z" fill="white"/>
<path d="M93.3956 26.1422H89.4219C89.4484 25.9316 89.4658 25.69 89.4734 25.4172H94.0366L93.7746 25.6734C93.6158 25.8329 93.4896 25.9892 93.3956 26.1422Z" fill="white"/>
<path d="M99.2307 26.88C99.2182 27.0745 99.1603 27.2664 99.0586 27.4559V27.5873H103.503V27.4184C103.354 27.2958 103.228 27.1164 103.127 26.88H99.2307Z" fill="white"/>
<path d="M102.943 26.1422H99.0533C98.9571 25.9735 98.8213 25.8046 98.6464 25.6358L98.4297 25.4172H102.891C102.899 25.69 102.917 25.9316 102.943 26.1422Z" fill="white"/>
<path d="M102.889 24.6795V23.9545H96.9844L97.7021 24.6795H102.889Z" fill="white"/>
<path d="M94.7867 24.6795L95.5273 23.9545H89.4766V24.6795H94.7867Z" fill="white"/>
<path d="M88.1096 24.6795V23.9545H84.0195V24.6795H88.1096Z" fill="white"/>
<path d="M81.5737 24.6795V23.9545H77.4648V24.6795H81.5737Z" fill="white"/>
<path d="M75.9575 24.6795V23.9545H75.474C75.4343 23.9828 75.3931 24.0092 75.3513 24.0336C75.2998 24.0642 75.2468 24.0916 75.1918 24.116C75.1249 24.1449 75.0468 24.1701 74.9577 24.1915C74.9479 24.1939 74.9374 24.1962 74.9277 24.1985C74.9103 24.2024 74.8922 24.2062 74.874 24.2098C74.7619 24.2473 74.6378 24.2661 74.5006 24.2661C74.2142 24.2661 73.9905 24.1974 73.8282 24.0597C73.7892 24.0261 73.7543 23.9911 73.7244 23.9545H68.7109C68.7114 24.2077 68.7325 24.4494 68.7742 24.6795H75.9575Z" fill="white"/>
<path d="M68.1243 24.6795C68.2033 24.4503 68.2625 24.2086 68.3019 23.9545H63.5552C63.306 24.0747 62.9904 24.1349 62.6082 24.1349H61.6557V23.9545H57.5469V24.6795H68.1243Z" fill="white"/>
<path d="M57.5475 25.4172C57.5424 25.6887 57.5266 25.9303 57.5 26.1422H67.2031C67.3931 25.9538 67.5618 25.7474 67.7092 25.5233C67.7326 25.4883 67.7555 25.4529 67.7776 25.4172H57.5475Z" fill="white"/>
<path d="M57.5469 23.2168H61.6557V22.4918H57.5469V23.2168Z" fill="white"/>
<path d="M57.5469 21.754H61.6557V21.0291H57.5469V21.754Z" fill="white"/>
<path d="M57.5469 20.2913H67.4797C67.2917 20.0358 67.0722 19.7942 66.8214 19.5663H57.5469V20.2913Z" fill="white"/>
<path d="M57.5469 18.8285H65.8142C65.3604 18.562 64.8402 18.3203 64.2532 18.1035H57.5469V18.8285Z" fill="white"/>
<path d="M57.5524 17.3659H61.8329L61.6613 17.3163V17.0049C61.6613 16.8776 61.6635 16.7562 61.6679 16.6409H57.5469C57.5506 16.7566 57.5524 16.878 57.5524 17.0049V17.3659Z" fill="white"/>
<path d="M68.9922 16.6409V17.3659H76.6387C76.5641 17.1096 76.4645 16.8679 76.3383 16.6409H68.9922Z" fill="white"/>
<path d="M78.0732 16.6409C77.9505 16.8683 77.8467 17.11 77.7617 17.3659H87.8141C87.7284 17.11 87.6246 16.8683 87.5019 16.6409H78.0732Z" fill="white"/>
<path d="M89.4727 16.6409C89.4768 16.7566 89.4782 16.878 89.4782 17.0049V17.3659H93.4749V17.0049C93.4749 16.878 93.477 16.7566 93.4805 16.6409H89.4727Z" fill="white"/>
<path d="M93.5379 15.903H89.4109C89.3928 15.7774 89.3705 15.6631 89.3454 15.5601C89.3085 15.417 89.2632 15.2896 89.2109 15.178H93.7379C93.6849 15.2896 93.6403 15.417 93.6034 15.5601C93.5776 15.6631 93.556 15.7774 93.5379 15.903Z" fill="white"/>
<path d="M98.9062 16.6409C98.9104 16.7566 98.9118 16.878 98.9118 17.0049V17.3659H102.89V17.0049C102.89 16.878 102.892 16.7566 102.896 16.6409H98.9062Z" fill="white"/>
<path d="M102.952 15.903H98.8441C98.826 15.7774 98.8044 15.6631 98.7786 15.5601C98.7417 15.417 98.6957 15.2896 98.6406 15.178H103.156C103.101 15.2896 103.055 15.417 103.018 15.5601C102.993 15.6631 102.97 15.7774 102.952 15.903Z" fill="white"/>
<path d="M86.2355 15.178H79.3472C79.0567 15.3888 78.7975 15.6305 78.5703 15.903H87.0138C86.7881 15.6305 86.5289 15.3888 86.2355 15.178Z" fill="white"/>
<path d="M102.889 18.1035H98.9102V18.8285H102.889V18.1035Z" fill="white"/>
<path d="M102.889 19.5663H98.9102V20.2913H102.889V19.5663Z" fill="white"/>
<path d="M102.887 21.0291H98.9081V21.1058L98.8307 21.0291H89.4766V21.754H102.887V21.0291Z" fill="white"/>
<path d="M102.887 22.4918H89.4766V23.2168H102.887V22.4918Z" fill="white"/>
<path d="M88.1096 23.2168V22.4918H84.0195V23.2168H88.1096Z" fill="white"/>
<path d="M81.5737 23.2168V22.4918H77.4648V23.2168H81.5737Z" fill="white"/>
<path d="M73.6704 23.2168C73.6934 23.1716 73.7213 23.1274 73.7534 23.0842C73.8781 22.9465 74.0774 22.7652 74.3512 22.54L74.416 22.4918H69.0042C68.9045 22.7277 68.8302 22.9694 68.7812 23.2168H73.6704Z" fill="white"/>
<path d="M68.3621 23.2168C68.3623 23.1977 68.3624 23.1785 68.3624 23.1592C68.3624 22.9301 68.35 22.7076 68.3251 22.4918H64.1719C64.2014 22.613 64.2163 22.7417 64.2163 22.8777C64.2163 22.9995 64.2036 23.1125 64.1783 23.2168H68.3621Z" fill="white"/>
<path d="M63.7141 21.754H68.1872C68.1188 21.5018 68.0306 21.2601 67.9227 21.0291H62.0703L62.183 21.0578C62.8789 21.2417 63.3893 21.4739 63.7141 21.754Z" fill="white"/>
<path d="M70.0821 21.0291C69.8278 21.2552 69.6076 21.4968 69.4219 21.754H75.3393C75.5567 21.5494 75.7504 21.3361 75.9197 21.114C75.9413 21.0858 75.9622 21.0575 75.9831 21.0291H70.0821Z" fill="white"/>
<path d="M77.4648 21.0291V21.754H81.5737V21.0291H77.4648Z" fill="white"/>
<path d="M81.5737 20.2913H77.4648V19.5663H81.58C81.5758 19.6296 81.5737 19.6952 81.5737 19.7631V20.2913Z" fill="white"/>
<path d="M84.0195 21.0291V21.754H88.1096V21.0291H84.0195Z" fill="white"/>
<path d="M88.1081 20.2913H84.018V19.7631C84.018 19.6952 84.0159 19.6296 84.0117 19.5663H88.1081V20.2913Z" fill="white"/>
<path d="M89.4766 20.2913H93.4733V19.5663H89.4766V20.2913Z" fill="white"/>
<path d="M89.4766 18.8285H93.4733V18.1035H89.4766V18.8285Z" fill="white"/>
<path d="M88.0036 18.1035H77.575C77.5318 18.3356 77.5018 18.5772 77.4844 18.8285H81.7716C81.8023 18.7733 81.8364 18.722 81.874 18.6748C82.0859 18.4246 82.3904 18.2995 82.7889 18.2995C83.1875 18.2995 83.4927 18.4246 83.7045 18.6748C83.7442 18.722 83.7804 18.7733 83.8125 18.8285H88.0935C88.076 18.5772 88.0461 18.3356 88.0036 18.1035Z" fill="white"/>
<path d="M76.7859 18.8285C76.7908 18.7407 76.7935 18.6518 76.7935 18.5622C76.7935 18.4053 76.7866 18.2523 76.7719 18.1035H71.5078C71.5907 18.1413 71.6653 18.1879 71.7322 18.2432C71.9356 18.4022 72.0471 18.5974 72.0659 18.8285H76.7859Z" fill="white"/>
<path d="M71.8327 19.5663C71.8257 19.5757 71.8181 19.5849 71.8104 19.5941C71.6641 19.7733 71.4063 20.0057 71.0391 20.2913H76.4189C76.4767 20.1676 76.5282 20.0414 76.5728 19.9131C76.6133 19.7993 76.6481 19.6837 76.6774 19.5663H71.8327Z" fill="white"/>
<path d="M70.1106 18.1035H68.9922V18.7498H69.1416L69.4217 18.4684C69.5213 18.3933 69.6272 18.3307 69.7392 18.2808C69.8521 18.2145 69.9761 18.1555 70.1106 18.1035Z" fill="white"/>
<path d="M94.9791 19.5663L94.1562 20.2913H98.084L97.3496 19.5663H94.9791Z" fill="white"/>
<path d="M96.6031 18.8285H95.8164L96.1829 18.506H96.2763L96.6031 18.8285Z" fill="white"/>
<path d="M0.574219 16.6409H9.80683V17.3659H0.58063V17.0049C0.58063 16.878 0.578502 16.7566 0.574219 16.6409Z" fill="white"/>
<path d="M106.073 0C105.841 0 105.627 0.0394681 105.434 0.118404C105.238 0.194305 105.067 0.303601 104.922 0.446293C104.777 0.585949 104.665 0.751408 104.587 0.942676C104.508 1.13395 104.469 1.34343 104.469 1.57113C104.469 1.79883 104.508 2.00831 104.587 2.19958C104.665 2.39085 104.777 2.55783 104.922 2.70052C105.067 2.84018 105.238 2.94948 105.434 3.02842C105.627 3.10431 105.841 3.14226 106.073 3.14226C106.303 3.14226 106.517 3.10431 106.713 3.02842C106.909 2.94948 107.08 2.84018 107.225 2.70052C107.37 2.55783 107.482 2.39085 107.56 2.19958C107.639 2.00831 107.678 1.79883 107.678 1.57113C107.678 1.34343 107.639 1.13395 107.56 0.942676C107.482 0.751408 107.37 0.585949 107.225 0.446293C107.08 0.303601 106.909 0.194305 106.713 0.118404C106.517 0.0394681 106.303 0 106.073 0ZM105.475 2.55935C105.303 2.46523 105.17 2.33317 105.076 2.16315C104.982 1.99314 104.936 1.79579 104.936 1.57113C104.936 1.34343 104.982 1.14609 105.076 0.979111C105.17 0.809095 105.303 0.677029 105.475 0.582913C105.644 0.488797 105.844 0.441738 106.073 0.441738C106.3 0.441738 106.5 0.488797 106.672 0.582913C106.841 0.677029 106.974 0.809095 107.071 0.979111C107.165 1.14609 107.211 1.34343 107.211 1.57113C107.211 1.79579 107.165 1.99314 107.071 2.16315C106.974 2.33317 106.841 2.46523 106.672 2.55935C106.5 2.65347 106.3 2.70052 106.073 2.70052C105.844 2.70052 105.644 2.65347 105.475 2.55935ZM105.598 1.307H105.63C105.65 1.28271 105.68 1.26297 105.72 1.2478C105.747 1.23869 105.78 1.23413 105.82 1.23413C105.874 1.23413 105.924 1.2478 105.97 1.27512C106.011 1.30245 106.045 1.33888 106.069 1.38442C106.093 1.42996 106.105 1.48309 106.105 1.54381C106.105 1.64096 106.08 1.7199 106.028 1.78062C105.974 1.84134 105.903 1.8717 105.815 1.8717C105.77 1.8717 105.731 1.86259 105.697 1.84437C105.683 1.83527 105.669 1.82616 105.657 1.81705C105.641 1.80491 105.631 1.79428 105.625 1.78517H105.593V2.40451C105.621 2.41666 105.658 2.42577 105.706 2.43184C105.752 2.43791 105.8 2.44095 105.851 2.44095C106.039 2.44095 106.205 2.40451 106.35 2.33165C106.492 2.25575 106.604 2.15101 106.685 2.01743C106.767 1.8808 106.808 1.72445 106.808 1.54836C106.808 1.37531 106.77 1.22199 106.694 1.08841C106.619 0.954821 106.513 0.851599 106.377 0.778736C106.241 0.702835 106.087 0.664885 105.915 0.664885C105.873 0.664885 105.837 0.666403 105.806 0.669439C105.776 0.672475 105.749 0.673993 105.724 0.673993C105.679 0.673993 105.637 0.669439 105.598 0.660331V1.307Z" fill="white"/>
<path fill-rule="evenodd" clip-rule="evenodd" d="M10.473 10.9445C10.1368 10.1064 9.96875 9.18076 9.96875 8.16751C9.96875 7.15433 10.1368 6.22867 10.473 5.39059C10.8216 4.55251 11.3073 3.82701 11.9298 3.21408C12.5648 2.60115 13.3056 2.12583 14.1523 1.78809C15.0114 1.45036 15.9577 1.28149 16.9911 1.28149C18.0121 1.28149 18.9522 1.45036 19.8113 1.78809C20.6704 2.12583 21.4112 2.60115 22.0338 3.21408C22.6563 3.82701 23.1357 4.55251 23.4719 5.39059C23.8205 6.22867 23.9948 7.15433 23.9948 8.16751C23.9948 9.18076 23.8205 10.1064 23.4719 10.9445C23.1357 11.7825 22.6563 12.508 22.0338 13.121C21.4112 13.7339 20.6704 14.2092 19.8113 14.547C18.9522 14.8847 18.0121 15.0535 16.9911 15.0535C15.9577 15.0535 15.0114 14.8847 14.1523 14.547C13.3056 14.2092 12.5648 13.7339 11.9298 13.121C11.3073 12.508 10.8216 11.7825 10.473 10.9445ZM19.6992 8.16751C19.6992 7.62963 19.581 7.15433 19.3443 6.74153C19.1203 6.32875 18.8027 6.00352 18.3918 5.76585C17.9934 5.52819 17.5265 5.40936 16.9911 5.40936C16.4557 5.40936 15.9826 5.52819 15.5717 5.76585C15.1608 6.00352 14.8371 6.32875 14.6005 6.74153C14.3764 7.15433 14.2644 7.62963 14.2644 8.16751C14.2644 8.69286 14.3764 9.16823 14.6005 9.59348C14.8371 10.0063 15.1608 10.3315 15.5717 10.5692C15.9826 10.8069 16.4557 10.9257 16.9911 10.9257C17.5265 10.9257 17.9934 10.8069 18.3918 10.5692C18.8027 10.3315 19.1203 10.0063 19.3443 9.59348C19.581 9.16823 19.6992 8.69286 19.6992 8.16751Z" fill="white"/>
<path d="M7.43326 10.9633H4.68781V4.05845C4.68781 3.42051 4.74384 2.93267 4.8559 2.59493C4.96796 2.2572 5.11737 2.01328 5.30414 1.86317V1.69431H0.0560296V1.86317C0.230344 2.02579 0.36108 2.28221 0.448237 2.63246C0.535394 2.9702 0.578973 3.44552 0.578973 4.05845V12.2767C0.578973 12.8896 0.529169 13.3711 0.429561 13.7214C0.342403 14.0592 0.199217 14.3093 0 14.4719V14.6408H8.18034C8.47918 14.6408 8.77176 14.6533 9.05813 14.6783C9.34451 14.7034 9.59353 14.7471 9.80521 14.8096V10.3816H9.65576C9.48149 10.5817 9.21999 10.7318 8.87133 10.8319C8.5352 10.9194 8.05582 10.9633 7.43326 10.9633Z" fill="white"/>
<path d="M32.2501 8.20507C32.3373 8.54282 32.3809 9.02442 32.3809 9.64987V11.1111C32.3066 11.1126 32.232 11.1134 32.1568 11.1134C31.5217 11.1134 30.9677 11.0008 30.4945 10.7756C30.0338 10.538 29.6728 10.2065 29.4113 9.78119C29.1623 9.34341 29.0378 8.83675 29.0378 8.26135C29.0378 7.64843 29.1747 7.12308 29.4487 6.68529C29.7226 6.24748 30.1272 5.916 30.6626 5.69085C31.2105 5.45318 31.8766 5.33435 32.661 5.33435C32.9847 5.33435 33.2711 5.35311 33.5201 5.39064C33.7816 5.42816 34.0182 5.48445 34.2299 5.55951C34.3917 5.60954 34.5473 5.67834 34.6968 5.7659C34.8587 5.84095 35.0018 5.93477 35.1264 6.04734H35.2944V1.45041C35.0205 1.53796 34.7465 1.58175 34.4726 1.58175C34.2859 1.58175 34.0182 1.55673 33.6695 1.50669C33.3333 1.45666 32.9412 1.43164 32.493 1.43164C30.8868 1.43164 29.5047 1.70058 28.3467 2.23845C27.1888 2.77633 26.2986 3.55186 25.676 4.56506C25.0534 5.57827 24.7422 6.80412 24.7422 8.24259C24.7422 9.58106 25.0534 10.7506 25.676 11.7513C26.2986 12.752 27.1639 13.5275 28.272 14.0779C29.3926 14.6283 30.6938 14.9035 32.1754 14.9035C32.9847 14.9035 33.7816 14.8472 34.566 14.7346C35.3504 14.622 36.0788 14.4469 36.7512 14.2093V14.0404C36.5644 13.8903 36.4274 13.6777 36.3403 13.4024C36.2532 13.1273 36.2096 12.6957 36.2096 12.1078V9.64987C36.2096 9.02442 36.2532 8.54282 36.3403 8.20507C36.4274 7.85486 36.5644 7.59845 36.7512 7.43584V7.26693H31.8579V7.43584C32.0323 7.59845 32.163 7.85486 32.2501 8.20507Z" fill="white"/>
<path fill-rule="evenodd" clip-rule="evenodd" d="M37.4339 10.9445C37.0978 10.1064 36.9297 9.18076 36.9297 8.16751C36.9297 7.15433 37.0978 6.22867 37.4339 5.39059C37.7825 4.55251 38.2682 3.82701 38.8907 3.21408C39.5257 2.60115 40.2665 2.12583 41.1132 1.78809C41.9723 1.45036 42.9186 1.28149 43.9521 1.28149C44.973 1.28149 45.9131 1.45036 46.7723 1.78809C47.6313 2.12583 48.3722 2.60115 48.9948 3.21408C49.6172 3.82701 50.0966 4.55251 50.4328 5.39059C50.7814 6.22867 50.9558 7.15433 50.9558 8.16751C50.9558 9.18076 50.7814 10.1064 50.4328 10.9445C50.0966 11.7825 49.6172 12.508 48.9948 13.121C48.3722 13.7339 47.6313 14.2092 46.7723 14.547C45.9131 14.8847 44.973 15.0535 43.9521 15.0535C42.9186 15.0535 41.9723 14.8847 41.1132 14.547C40.2665 14.2092 39.5257 13.7339 38.8907 13.121C38.2682 12.508 37.7825 11.7825 37.4339 10.9445ZM46.6601 8.16751C46.6601 7.62963 46.5419 7.15433 46.3053 6.74153C46.0812 6.32875 45.7637 6.00352 45.3528 5.76585C44.9544 5.52819 44.4875 5.40936 43.9521 5.40936C43.4167 5.40936 42.9435 5.52819 42.5327 5.76585C42.1218 6.00352 41.798 6.32875 41.5614 6.74153C41.3373 7.15433 41.2253 7.62963 41.2253 8.16751C41.2253 8.69286 41.3373 9.16823 41.5614 9.59348C41.798 10.0063 42.1218 10.3315 42.5327 10.5692C42.9435 10.8069 43.4167 10.9257 43.9521 10.9257C44.4875 10.9257 44.9544 10.8069 45.3528 10.5692C45.7637 10.3315 46.0812 10.0063 46.3053 9.59348C46.5419 9.16823 46.6601 8.69286 46.6601 8.16751Z" fill="white"/>
<path d="M51.8453 2.63249C51.9325 2.97023 51.9761 3.44555 51.9761 4.05848V12.2767C51.9761 12.8896 51.9325 13.3712 51.8453 13.7214C51.7582 14.0592 51.6275 14.3094 51.4531 14.472V14.6408H56.6079V14.472C56.4335 14.3094 56.3028 14.0592 56.2156 13.7214C56.1285 13.3712 56.0849 12.8896 56.0849 12.2767V4.05848C56.0849 3.44555 56.1285 2.97023 56.2156 2.63249C56.3028 2.28224 56.4335 2.02582 56.6079 1.8632V1.69434H51.4531V1.8632C51.6275 2.02582 51.7582 2.28224 51.8453 2.63249Z" fill="white"/>
<path fill-rule="evenodd" clip-rule="evenodd" d="M61.8285 13.7402C61.9407 14.0779 62.09 14.3218 62.2768 14.472V14.6408H57.0287V14.472C57.203 14.3094 57.3337 14.0592 57.4209 13.7214C57.5081 13.3712 57.5517 12.8896 57.5517 12.2767V4.05848C57.5517 3.44555 57.5019 2.97023 57.4022 2.63249C57.315 2.28224 57.1719 2.02582 56.9727 1.8632V1.69434H62.9678C64.0885 1.69434 65.0472 1.87571 65.8441 2.23847C66.6534 2.58871 67.2759 3.09531 67.7117 3.75827C68.1475 4.40872 68.3653 5.19676 68.3653 6.12241C68.3653 7.01053 68.1786 7.79859 67.8051 8.48655C67.4315 9.17451 66.8588 9.77497 66.0868 10.2878C65.3149 10.7882 64.325 11.2072 63.1172 11.5449L61.6605 11.9653V12.2767C61.6605 12.9146 61.7165 13.4024 61.8285 13.7402ZM62.1834 8.22384L61.6605 8.35712V5.14674H62.613C63.1359 5.14674 63.5344 5.25931 63.8083 5.48446C64.0822 5.69712 64.2192 6.00358 64.2192 6.40386C64.2192 6.85417 64.0573 7.22319 63.7336 7.51089C63.4099 7.79859 62.8931 8.03624 62.1834 8.22384Z" fill="white"/>
<path d="M75.8083 5.57821H75.9574V1.52539C75.7086 1.61295 75.478 1.65673 75.2662 1.65673C75.1296 1.65673 74.9241 1.63797 74.6502 1.60044C74.3764 1.56292 74.0712 1.54416 73.7347 1.54416C72.1412 1.54416 70.9023 1.88814 70.0181 2.57613C69.1467 3.25159 68.7109 4.17098 68.7109 5.33429C68.7109 5.9347 68.8479 6.50385 69.1218 7.04175C69.3957 7.5671 69.7944 8.03617 70.317 8.44896L70.8215 8.82423C71.3071 9.18697 71.6367 9.47467 71.8109 9.68733C71.9858 9.89999 72.0729 10.1313 72.0729 10.3815C72.0729 10.6442 71.9607 10.8631 71.7363 11.0383C71.5245 11.2134 71.2326 11.3009 70.8584 11.3009C70.6473 11.3009 70.4417 11.2759 70.2424 11.2259C70.0557 11.1633 69.8878 11.0883 69.738 11.0007C69.6261 10.9507 69.5202 10.8881 69.4206 10.8131L69.1405 10.5317H68.991V14.4907C69.2401 14.5782 69.6074 14.647 70.0926 14.697C70.5908 14.7596 71.0765 14.7908 71.5496 14.7908C73.2309 14.7908 74.5255 14.4281 75.4348 13.7026C76.3434 12.9646 76.7977 11.9702 76.7977 10.7193C76.7977 10.244 76.7231 9.79366 76.574 9.36834C76.4242 8.94302 76.2061 8.54276 75.9198 8.16749C75.6334 7.79222 75.2787 7.44201 74.8558 7.11679L74.3513 6.74151C74.0775 6.51636 73.8782 6.33498 73.7535 6.19739C73.6413 6.04728 73.5856 5.88467 73.5856 5.70955C73.5856 5.52191 73.6664 5.3593 73.828 5.22171C73.9904 5.08411 74.2141 5.01532 74.5004 5.01532C74.6377 5.01532 74.7624 5.03408 74.8739 5.0716C74.9986 5.09662 75.1045 5.12789 75.1916 5.16542C75.3038 5.21545 75.4097 5.278 75.5094 5.35305C75.6215 5.41559 75.7212 5.49065 75.8083 5.57821Z" fill="white"/>
<path d="M77.464 4.05848C77.464 3.44555 77.4208 2.97023 77.333 2.63249C77.2459 2.28224 77.1156 2.02582 76.9414 1.8632V1.69434H82.0773V1.8632C81.9031 2.02582 81.7721 2.28224 81.685 2.63249C81.6105 2.97023 81.5729 3.44555 81.5729 4.05848V9.5185C81.5729 9.99387 81.6725 10.3566 81.8718 10.6068C82.0836 10.857 82.3888 10.9821 82.7866 10.9821C83.1852 10.9821 83.4904 10.857 83.7022 10.6068C83.914 10.3566 84.0192 9.99387 84.0192 9.5185V4.05848C84.0192 3.44555 83.976 2.97023 83.8889 2.63249C83.8144 2.28224 83.6834 2.02582 83.4967 1.8632V1.69434H88.6514V1.8632C88.4647 2.02582 88.3274 2.28224 88.2403 2.63249C88.1532 2.97023 88.11 3.44555 88.11 4.05848V9.91253C88.11 11.0008 87.8982 11.9264 87.4745 12.6895C87.0641 13.4525 86.46 14.0404 85.6629 14.4532C84.8784 14.8535 83.9196 15.0536 82.7866 15.0536C81.6662 15.0536 80.7075 14.8535 79.9104 14.4532C79.1265 14.0404 78.5224 13.4525 78.0987 12.6895C77.6758 11.9264 77.464 11.0008 77.464 9.91253V4.05848Z" fill="white"/>
<path d="M89.3262 2.65125C89.4259 3.014 89.4753 3.54563 89.4753 4.24611V12.2767C89.4753 12.8896 89.4321 13.3712 89.345 13.7214C89.2579 14.0592 89.1269 14.3094 88.9527 14.472V14.6408H93.9953V14.472C93.8211 14.3094 93.6901 14.0592 93.603 13.7214C93.5159 13.3712 93.472 12.8896 93.472 12.2767V8.38967L96.1804 10.7756H96.2737L98.9076 8.17589V12.2767C98.9076 12.8896 98.8637 13.3712 98.7766 13.7214C98.6895 14.0592 98.5522 14.3094 98.3655 14.472V14.6408H103.427V14.472C103.24 14.3094 103.104 14.0592 103.016 13.7214C102.929 13.3712 102.885 12.8896 102.885 12.2767V4.24611C102.885 3.54563 102.935 3.014 103.035 2.65125C103.147 2.2885 103.302 2.02582 103.501 1.8632V1.69434H99.0567V1.82568C99.2183 2.12589 99.2685 2.43235 99.2058 2.74507C99.1438 3.04527 98.957 3.34548 98.6456 3.64569L96.2647 6.05039L93.7709 3.60816C93.4602 3.29545 93.2734 2.99524 93.2107 2.70754C93.1487 2.40733 93.1982 2.11338 93.3605 1.82568V1.69434H88.8594V1.8632C89.0712 2.02582 89.2266 2.2885 89.3262 2.65125Z" fill="white"/>
</g>
<defs>
<clipPath id="clip0_759_9175">
<rect width="108" height="28" fill="white"/>
</clipPath>
</defs>
</svg>
