<svg width="131" height="28" viewBox="0 0 131 28" fill="none" xmlns="http://www.w3.org/2000/svg">
<path d="M20.9753 12.4797C20.6207 12.8355 20.3491 13.2651 20.1799 13.7375C20.0108 14.2101 19.9482 14.714 19.9965 15.2134L19.9797 15.1966C20.0295 15.7845 19.9499 16.376 19.7468 16.9302C19.5436 17.4842 19.2218 17.9873 18.8036 18.4045C18.3853 18.8217 17.8809 19.1428 17.3253 19.3453C16.7699 19.548 16.1768 19.6273 15.5874 19.5777L15.6043 19.5945C14.8993 19.529 14.1913 19.682 13.5766 20.0327C12.962 20.3833 12.4708 20.9145 12.1699 21.5538C11.8691 22.1931 11.7732 22.9094 11.8954 23.6051C12.0177 24.3007 12.352 24.9418 12.8529 25.4409C13.3538 25.9401 13.9968 26.273 14.6943 26.3943C15.3919 26.5156 16.1099 26.4193 16.7505 26.1186C17.3912 25.8179 17.9233 25.3275 18.2743 24.7142C18.6252 24.1008 18.778 23.3944 18.7118 22.6913L18.7296 22.7081C18.6798 22.1202 18.7592 21.5286 18.9624 20.9745C19.1655 20.4205 19.4875 19.9173 19.9057 19.5001C20.3239 19.083 20.8284 18.7618 21.3838 18.5593C21.9394 18.3567 22.5324 18.2773 23.1218 18.327L23.104 18.3102C23.6799 18.3618 24.2595 18.2676 24.7893 18.0363C25.3189 17.8051 25.7815 17.4441 26.1341 16.9871C26.4866 16.53 26.718 15.9915 26.8063 15.4216C26.8947 14.8516 26.8374 14.2687 26.6398 13.7266C26.4422 13.1846 26.1106 12.7011 25.6758 12.321C25.2409 11.9408 24.7169 11.6763 24.1523 11.552C23.5877 11.4277 23.0007 11.4475 22.4459 11.6096C21.891 11.7718 21.3862 12.071 20.9781 12.4797H20.9753Z" fill="white"/>
<path d="M14.0749 17.3936L14.0572 17.3768C14.5581 17.4271 15.0639 17.3658 15.5382 17.1972C16.0124 17.0287 16.4432 16.7572 16.7994 16.4022C17.1554 16.0473 17.4281 15.6178 17.5973 15.1448C17.7667 14.6719 17.8286 14.1674 17.7785 13.6677L17.7963 13.6845C17.7465 13.0966 17.826 12.5051 18.0291 11.951C18.2322 11.3969 18.5542 10.8938 18.9724 10.4766C19.3906 10.0595 19.8951 9.73831 20.4505 9.53578C21.0061 9.33312 21.5991 9.25385 22.1885 9.30347L22.1707 9.28667C22.8758 9.35275 23.584 9.20021 24.199 8.84997C24.814 8.49972 25.3057 7.96878 25.607 7.32957C25.9083 6.69036 26.0046 5.974 25.8827 5.27819C25.7609 4.58238 25.4268 3.94102 24.926 3.44155C24.4253 2.9421 23.7823 2.60886 23.0847 2.48732C22.3872 2.36577 21.669 2.46182 21.0281 2.76238C20.3873 3.06292 19.855 3.55334 19.5039 4.16673C19.1527 4.78012 18.9998 5.48663 19.066 6.18987L19.0492 6.17214C19.0991 6.76004 19.0197 7.35171 18.8167 7.90585C18.6136 8.45999 18.2916 8.96324 17.8735 9.38047C17.4552 9.79758 16.9507 10.1187 16.3951 10.3213C15.8395 10.5238 15.2464 10.603 14.657 10.5532L14.6738 10.5709C14.1729 10.5206 13.667 10.582 13.1928 10.7505C12.7185 10.919 12.2877 11.1906 11.9316 11.5455C11.5755 11.9005 11.3029 12.33 11.1335 12.8029C10.9643 13.2758 10.9024 13.7803 10.9525 14.28L10.9356 14.2632C10.9852 14.851 10.9056 15.4426 10.7024 15.9966C10.4992 16.5505 10.1773 17.0537 9.75915 17.4708C9.34094 17.8879 8.83655 18.209 8.28115 18.4117C7.72575 18.6143 7.1327 18.6937 6.54338 18.6443L6.56022 18.6611C5.85518 18.595 5.14687 18.7475 4.53191 19.0978C3.91696 19.4481 3.42529 19.9789 3.12398 20.6182C2.82266 21.2574 2.72636 21.9738 2.84821 22.6696C2.97007 23.3654 3.30416 24.0067 3.80489 24.5062C4.30563 25.0057 4.94863 25.3389 5.64622 25.4604C6.3438 25.5819 7.06199 25.4859 7.70283 25.1854C8.34366 24.8848 8.87596 24.3944 9.2271 23.7811C9.57827 23.1676 9.73117 22.4611 9.66492 21.7579L9.6827 21.7747C9.63292 21.1868 9.71246 20.5952 9.9156 20.0411C10.1186 19.4871 10.4406 18.9839 10.8588 18.5667C11.2771 18.1496 11.7815 17.8284 12.3369 17.6259C12.8925 17.4233 13.4855 17.344 14.0749 17.3936Z" fill="white"/>
<path d="M7.80433 15.5205C8.15899 15.1647 8.43051 14.7351 8.59954 14.2626C8.76857 13.7901 8.83092 13.2861 8.78216 12.7867L8.79992 12.8035C8.75014 12.2155 8.82964 11.6237 9.03289 11.0695C9.23614 10.5153 9.55824 10.012 9.97669 9.59482C10.3951 9.17764 10.8998 8.85658 11.4555 8.65409C12.0112 8.4516 12.6045 8.37254 13.194 8.42246L13.1763 8.40566C13.8811 8.47152 14.5891 8.31893 15.2038 7.96871C15.8184 7.61849 16.3098 7.08768 16.611 6.44867C16.9121 5.80966 17.0083 5.09356 16.8865 4.39801C16.7646 3.70246 16.4306 3.06133 15.9301 2.56206C15.4296 2.06278 14.7867 1.72965 14.0894 1.60812C13.3921 1.48657 12.6742 1.58253 12.0336 1.8829C11.3929 2.18326 10.8608 2.67342 10.5097 3.28653C10.1585 3.89964 10.0055 4.60585 10.0716 5.30886L10.0547 5.29206C10.1045 5.87992 10.025 6.47153 9.82183 7.02559C9.61868 7.57966 9.29682 8.08283 8.87859 8.49999C8.46037 8.91715 7.95591 9.23825 7.40043 9.44082C6.84496 9.64344 6.25184 9.72278 5.66248 9.67312L5.67933 9.68992C5.10346 9.6384 4.52387 9.73276 3.99427 9.96414C3.46468 10.1955 3.0022 10.5565 2.64971 11.0137C2.29722 11.4707 2.06611 12.0093 1.9778 12.5792C1.8895 13.1491 1.94685 13.7321 2.14454 14.274C2.34222 14.816 2.67387 15.2993 3.10872 15.6794C3.54358 16.0595 4.06758 16.324 4.63217 16.4483C5.19675 16.5725 5.78366 16.5526 6.33851 16.3905C6.89335 16.2283 7.39817 15.9291 7.8062 15.5205H7.80433Z" fill="white"/>
<path d="M36.7891 6.2113H39.5681V19.7008H36.7891V6.2113Z" fill="white"/>
<path d="M41.1408 15.0817C41.1369 14.1123 41.4216 13.1635 41.9587 12.3556C42.4958 11.5477 43.2612 10.917 44.158 10.5434C45.0548 10.1697 46.0425 10.0699 46.9962 10.2567C47.9499 10.4434 48.8265 10.9082 49.5151 11.5923C50.2037 12.2764 50.6733 13.149 50.8643 14.0995C51.0554 15.05 50.9593 16.0357 50.5883 16.9317C50.2173 17.8276 49.588 18.5937 48.7802 19.1326C47.9723 19.6716 47.0224 19.9593 46.0504 19.9593C45.4054 19.9667 44.7652 19.8456 44.1675 19.6033C43.5698 19.361 43.0265 19.0024 42.5694 18.5483C42.1122 18.0941 41.7505 17.5536 41.5052 16.9585C41.2599 16.3633 41.136 15.7252 41.1408 15.0817ZM48.1811 15.0817C48.1695 14.6639 48.0346 14.2587 47.7935 13.9168C47.5523 13.575 47.2154 13.3116 46.825 13.1598C46.4346 13.0078 46.008 12.9741 45.5984 13.0627C45.1888 13.1514 44.8146 13.3584 44.5223 13.6581C44.2302 13.9577 44.033 14.3366 43.9556 14.7475C43.8781 15.1582 43.9237 15.5827 44.0868 15.9678C44.2499 16.3529 44.5231 16.6814 44.8723 16.9124C45.2216 17.1434 45.6314 17.2666 46.0504 17.2666C46.3374 17.2743 46.6229 17.2225 46.8889 17.1146C47.1549 17.0067 47.3955 16.8451 47.5957 16.6398C47.7958 16.4345 47.9513 16.19 48.0519 15.9219C48.1527 15.6537 48.1967 15.3677 48.1811 15.0817Z" fill="white"/>
<path d="M62.0398 10.4618V19.2351C62.0398 22.3394 59.6125 23.6517 57.1488 23.6517C56.2814 23.7164 55.4128 23.5416 54.6383 23.1465C53.8639 22.7514 53.2135 22.1511 52.7584 21.4117L55.1295 20.0443C55.3208 20.4298 55.6256 20.7478 56.0029 20.9558C56.3804 21.1638 56.8125 21.2519 57.2414 21.2082C57.5156 21.2461 57.7948 21.222 58.0584 21.1377C58.3219 21.0534 58.5631 20.9111 58.7641 20.7214C58.9651 20.5315 59.1207 20.2991 59.2195 20.0412C59.3183 19.7833 59.3576 19.5065 59.3346 19.2314V18.3867C59.0092 18.7839 58.595 19.0994 58.1252 19.308C57.6554 19.5166 57.1432 19.6125 56.6295 19.5879C55.4073 19.5495 54.248 19.0382 53.3971 18.1622C52.5461 17.2862 52.0703 16.1143 52.0703 14.8947C52.0703 13.675 52.5461 12.5031 53.3971 11.6272C54.248 10.7511 55.4073 10.2398 56.6295 10.2014C57.1432 10.1768 57.6554 10.2727 58.1252 10.4813C58.595 10.6899 59.0092 11.0055 59.3346 11.4026V10.4599L62.0398 10.4618ZM59.3356 14.8961C59.3543 14.4494 59.2384 14.0072 59.0031 13.6267C58.7678 13.2461 58.4236 12.9446 58.015 12.7608C57.6064 12.5769 57.152 12.5193 56.7102 12.5953C56.2685 12.6713 55.8597 12.8774 55.5363 13.1871C55.213 13.4968 54.99 13.8959 54.896 14.3331C54.802 14.7702 54.8413 15.2255 55.009 15.6402C55.1766 16.0549 55.4648 16.4101 55.8365 16.6601C56.2081 16.91 56.6463 17.0433 57.0945 17.0427C57.3866 17.0631 57.6795 17.0222 57.9547 16.9227C58.2299 16.8232 58.4812 16.6672 58.6923 16.4651C58.9034 16.2628 59.0697 16.0188 59.1805 15.7485C59.2913 15.4783 59.3442 15.1879 59.3356 14.8961Z" fill="white"/>
<path d="M63.6095 15.0817C63.6057 14.1123 63.8902 13.1635 64.4274 12.3556C64.9645 11.5477 65.7299 10.917 66.6267 10.5434C67.5235 10.1697 68.5112 10.0699 69.4649 10.2567C70.4186 10.4434 71.2953 10.9082 71.9839 11.5923C72.6725 12.2764 73.142 13.149 73.3331 14.0995C73.5241 15.05 73.428 16.0357 73.057 16.9317C72.686 17.8276 72.0568 18.5937 71.249 19.1326C70.4411 19.6716 69.4911 19.9593 68.5192 19.9593C67.8741 19.9667 67.2339 19.8456 66.6363 19.6033C66.0385 19.361 65.4952 19.0024 65.0382 18.5483C64.581 18.0941 64.2192 17.5536 63.974 16.9585C63.7286 16.3633 63.6047 15.7252 63.6095 15.0817ZM70.6498 15.0817C70.6382 14.6639 70.5034 14.2587 70.2622 13.9168C70.021 13.575 69.6842 13.3116 69.2938 13.1598C68.9033 13.0078 68.4766 12.9741 68.0672 13.0627C67.6576 13.1514 67.2833 13.3584 66.9911 13.6581C66.699 13.9577 66.5017 14.3366 66.4242 14.7475C66.3467 15.1582 66.3924 15.5827 66.5555 15.9678C66.7186 16.3529 66.9918 16.6814 67.341 16.9124C67.6903 17.1434 68.1001 17.2666 68.5192 17.2666C68.8062 17.2743 69.0917 17.2225 69.3576 17.1146C69.6236 17.0067 69.8643 16.8451 70.0644 16.6398C70.2646 16.4345 70.42 16.19 70.5207 15.9219C70.6215 15.6537 70.6654 15.3677 70.6498 15.0817Z" fill="white"/>
<path d="M74.7266 7.98559C74.7266 7.65664 74.8243 7.33507 75.0076 7.06157C75.1908 6.78806 75.4513 6.57487 75.7559 6.449C76.0606 6.32311 76.3959 6.29017 76.7194 6.35435C77.0427 6.41852 77.3399 6.57693 77.5731 6.80953C77.8063 7.04213 77.9651 7.33848 78.0294 7.66112C78.0937 7.98374 78.0607 8.31815 77.9346 8.62207C77.8083 8.92598 77.5946 9.18573 77.3204 9.36851C77.0462 9.55126 76.7238 9.64879 76.394 9.64879C75.9532 9.6444 75.5316 9.46782 75.2198 9.15681C74.9081 8.84584 74.731 8.42534 74.7266 7.98559ZM75.0073 10.4617H77.7873V19.7017H75.0035L75.0073 10.4617Z" fill="white"/>
<path d="M89.7866 15.0817C89.8187 15.6924 89.7295 16.3033 89.524 16.8795C89.3187 17.4556 89.0011 17.9856 88.5895 18.4389C88.1781 18.8921 87.6808 19.2598 87.1264 19.5208C86.5719 19.7817 85.9712 19.9307 85.3588 19.9593C84.8438 19.9873 84.3291 19.9007 83.8517 19.7057C83.3744 19.5106 82.9467 19.2121 82.5994 18.8318V23.3967H79.8203V10.4617H82.5994V11.3297C82.9468 10.9496 83.3747 10.6513 83.8519 10.4565C84.3292 10.2617 84.8439 10.1751 85.3588 10.2031C85.9713 10.2316 86.5721 10.3806 87.1267 10.6415C87.6813 10.9025 88.1787 11.2702 88.5902 11.7236C89.0017 12.1771 89.3193 12.7072 89.5246 13.2835C89.7299 13.8598 89.819 14.4709 89.7866 15.0817ZM87.0075 15.0817C86.9967 14.6493 86.8582 14.2296 86.6094 13.8752C86.3606 13.521 86.0126 13.2477 85.6089 13.0898C85.2052 12.9317 84.7637 12.896 84.3397 12.9871C83.9158 13.0781 83.5282 13.2918 83.2254 13.6015C82.9226 13.9113 82.7181 14.3031 82.6376 14.7282C82.557 15.1533 82.6039 15.5925 82.7724 15.9911C82.9408 16.3897 83.2235 16.7298 83.5849 16.9691C83.9463 17.2082 84.3702 17.3358 84.8039 17.3357C85.1017 17.3489 85.3989 17.2992 85.676 17.1898C85.9531 17.0805 86.2039 16.9139 86.412 16.7011C86.6201 16.4882 86.7806 16.234 86.8833 15.9549C86.9859 15.6758 87.0283 15.3782 87.0075 15.0817Z" fill="white"/>
<path d="M98.363 16.9288C98.363 19.054 96.5112 19.9593 94.5107 19.9593C93.7022 20.0323 92.8907 19.8619 92.1806 19.4698C91.4705 19.0778 90.8946 18.4823 90.5273 17.7604L92.9349 16.3931C93.0323 16.7267 93.2416 17.0171 93.5276 17.2154C93.8136 17.4138 94.1598 17.5084 94.5069 17.4832C95.1732 17.4832 95.5072 17.2797 95.5072 16.9111C95.5072 15.8937 90.9493 16.4304 90.9493 13.2337C90.9493 11.2187 92.6542 10.2032 94.5809 10.2032C95.3051 10.1803 96.0219 10.3517 96.6572 10.6994C97.2926 11.0471 97.8231 11.5584 98.1927 12.18L95.8216 13.4549C95.7177 13.2129 95.5446 13.0067 95.3238 12.8622C95.103 12.7176 94.8447 12.6411 94.5809 12.642C94.099 12.642 93.8023 12.8287 93.8023 13.1591C93.8061 14.2128 98.363 13.51 98.363 16.9288Z" fill="white"/>
<path d="M108.514 10.4618V19.7018H105.735V18.8329C105.414 19.2163 105.007 19.5184 104.547 19.7144C104.086 19.9104 103.587 19.9947 103.087 19.9603C101.216 19.9603 99.625 18.6303 99.625 16.1337V10.4618H102.404V15.7277C102.381 15.9477 102.406 16.1702 102.478 16.3796C102.549 16.589 102.666 16.7804 102.82 16.9402C102.973 17.1001 103.159 17.2247 103.366 17.3055C103.572 17.3862 103.794 17.4211 104.015 17.4077C105.034 17.4077 105.738 16.8169 105.738 15.5046V10.4646L108.514 10.4618Z" fill="white"/>
<path d="M124.449 14.028V19.7008H121.67V14.2679C121.67 13.3439 121.226 12.7531 120.337 12.7531C119.41 12.7531 118.891 13.3999 118.891 14.49V19.7008H116.113V14.2679C116.113 13.3439 115.668 12.7531 114.779 12.7531C113.852 12.7531 113.334 13.3999 113.334 14.49V19.7008H110.555V10.4608H113.334V11.3102C113.622 10.9334 114 10.6345 114.433 10.441C114.867 10.2475 115.343 10.1654 115.816 10.2023C116.292 10.1791 116.765 10.2792 117.191 10.4928C117.616 10.7064 117.978 11.0263 118.243 11.4212C118.55 11.008 118.958 10.6795 119.428 10.4663C119.898 10.2532 120.414 10.1624 120.929 10.2023C123.056 10.2032 124.449 11.718 124.449 14.028Z" fill="white"/>
<path d="M126.801 10.4048C127.939 10.4048 128.863 9.48378 128.863 8.34773C128.863 7.21164 127.939 6.29066 126.801 6.29066C125.662 6.29066 124.738 7.21164 124.738 8.34773C124.738 9.48378 125.662 10.4048 126.801 10.4048Z" fill="white"/>
</svg>
