<svg width="200" height="28" viewBox="0 0 200 28" fill="none" xmlns="http://www.w3.org/2000/svg">
<g clip-path="url(#clip0_759_9055)">
<path d="M24.7255 0C32.0893 2.18938e-07 38.0588 5.95461 38.0588 13.3V28C34.9583 28 32.4448 25.4928 32.4448 22.4V13.3C32.4448 9.04743 28.9887 5.6 24.7255 5.6H21.0755C19.2144 5.60003 17.4292 6.33737 16.1132 7.65009L6.60047 17.1398C6.07409 17.6648 5.77814 18.3769 5.7781 19.1194V19.6C5.7781 21.1464 7.03483 22.4 8.58515 22.4H21.2167C21.2167 25.3961 18.858 27.8424 15.8919 27.9925L15.6027 28H8.58515C3.9343 28 0.164062 24.2392 0.164062 19.6V19.1194C0.164106 16.8917 1.05127 14.7549 2.63048 13.1797L12.1439 3.69072C14.5128 1.32779 17.7254 3.06318e-05 21.0755 0H24.7255Z" fill="white"/>
<path d="M26.1291 8.40002C28.067 8.40002 29.6379 9.96704 29.6379 11.9V28C26.5374 28 24.0239 25.4928 24.0239 22.4V14H21.6774L17.091 18.5749C16.433 19.2313 15.5405 19.6 14.6099 19.6H8.92038C8.62648 19.6 8.47932 19.2456 8.68711 19.0383L18.3249 9.42538C18.9828 8.76906 19.8751 8.40002 20.8056 8.40002H26.1291Z" fill="white"/>
<path d="M192.854 21.0332V12.0114C192.854 11.7514 192.62 11.5174 192.36 11.5174H192.021C191.812 11.5174 191.63 11.6474 191.551 11.8294L188.398 19.2652C187.955 20.3572 186.886 21.0332 185.713 21.0332C184.54 21.0332 183.497 20.3572 183.054 19.2652L179.875 11.8294C179.822 11.6474 179.64 11.5174 179.431 11.5174H179.092C178.832 11.5174 178.598 11.7514 178.598 12.0114V21.0332H175.652V12.0114C175.652 10.1134 177.19 8.55347 179.092 8.55347H179.431C180.813 8.55347 182.064 9.38542 182.611 10.6854L185.713 18.0173L188.814 10.6854C189.362 9.38542 190.613 8.55347 192.021 8.55347H192.36C194.262 8.55347 195.8 10.1134 195.8 12.0114V21.0332H192.854Z" fill="white"/>
<path d="M162.211 21.0332C159.213 21.0332 156.789 18.6152 156.789 15.6253V8.55347H159.734V15.6253C159.734 16.9773 160.855 18.0952 162.211 18.0952H168.466C169.821 18.0952 170.942 16.9773 170.942 15.6253V8.55347H173.887V15.6253C173.887 18.6152 171.463 21.0332 168.466 21.0332H162.211Z" fill="white"/>
<path d="M151.363 18.0953C151.857 18.0953 152.275 17.6793 152.275 17.1853C152.275 16.6913 151.883 16.3013 151.414 16.2754H144.455C142.318 16.2754 140.598 14.5594 140.598 12.4274C140.598 10.2955 142.318 8.55351 144.455 8.55351H155.246V11.5175H144.455C143.96 11.5175 143.543 11.9335 143.543 12.4274C143.543 12.9214 143.96 13.3374 144.455 13.3374H151.466C153.551 13.3894 155.246 15.0793 155.246 17.1853C155.246 19.3173 153.499 21.0333 151.363 21.0333H140.598V18.0953H151.363Z" fill="white"/>
<path d="M124.059 21.0332V12.0114C124.059 10.1134 125.597 8.55347 127.499 8.55347H135.084C137.534 8.55347 139.515 10.5554 139.515 12.9994C139.515 15.4433 137.534 17.4453 135.084 17.4453H127.004V21.0332H124.059ZM127.004 12.0114V14.4813H135.084C135.892 14.4813 136.569 13.8054 136.569 12.9994C136.569 12.1934 135.892 11.5174 135.084 11.5174H127.499C127.239 11.5174 127.004 11.7514 127.004 12.0114Z" fill="white"/>
<path d="M119.098 8.55351H122.043V21.0333H119.098V8.55351Z" fill="white"/>
<path d="M111.296 18.0952C113.12 18.0952 114.606 16.6133 114.606 14.7933C114.606 12.9994 113.12 11.5174 111.296 11.5174H106.709C104.884 11.5174 103.398 12.9994 103.398 14.7933C103.398 16.6133 104.884 18.0952 106.709 18.0952H111.296ZM111.296 8.55347C114.763 8.55347 117.551 11.3614 117.551 14.7933C117.551 18.2513 114.763 21.0332 111.296 21.0332H106.709C103.242 21.0332 100.453 18.2513 100.453 14.7933C100.453 11.3614 103.242 8.55347 106.709 8.55347H111.296Z" fill="white"/>
<path d="M88.9898 21.0332C85.5231 21.0332 82.7344 18.2513 82.7344 14.7933C82.7344 11.3614 85.5231 8.55347 88.9898 8.55347H98.034V11.5174H88.9898C87.1653 11.5174 85.6796 12.9994 85.6796 14.7933C85.6796 16.6133 87.1653 18.0952 88.9898 18.0952H95.6361C96.1316 18.0952 96.5484 17.6792 96.5484 17.1852C96.5484 16.6912 96.1316 16.2753 95.6361 16.2753H88.4944V13.3373H95.6361C97.7737 13.3373 99.5196 15.0533 99.5196 17.1852C99.5196 19.3172 97.7737 21.0332 95.6361 21.0332H88.9898Z" fill="white"/>
<path d="M75.5067 18.0953C77.3313 18.0953 78.8169 16.6133 78.8169 14.7934C78.8169 12.9994 77.3313 11.5175 75.5067 11.5175H70.9194C69.0951 11.5175 67.6094 12.9994 67.6094 14.7934C67.6094 16.6133 69.0951 18.0953 70.9194 18.0953H75.5067ZM75.5067 8.55351C78.9734 8.55351 81.7622 11.3614 81.7622 14.7934C81.7622 18.2513 78.9734 21.0333 75.5067 21.0333H70.9194C67.453 21.0333 64.6641 18.2513 64.6641 14.7934C64.6641 11.3614 67.453 8.55351 70.9194 8.55351H75.5067Z" fill="white"/>
<path d="M52.6016 17.6013C52.6016 17.8613 52.8361 18.0953 53.0968 18.0953H64.1221V21.0332H53.0968C51.1941 21.0332 49.6562 19.4993 49.6562 17.6013V8.47546H52.6016V17.6013Z" fill="white"/>
<path d="M199.388 8.47541C199.388 9.30862 198.711 9.98405 197.876 9.98405C197.04 9.98405 196.363 9.30862 196.363 8.47541C196.363 7.64227 197.04 6.9668 197.876 6.9668C198.711 6.9668 199.388 7.64227 199.388 8.47541Z" fill="white"/>
</g>
<defs>
<clipPath id="clip0_759_9055">
<rect width="200" height="28" fill="white"/>
</clipPath>
</defs>
</svg>
