<svg width="92" height="28" viewBox="0 0 92 28" fill="none" xmlns="http://www.w3.org/2000/svg">
<path d="M16.1914 7.97296H17.5853V17.717H21.7672V19.117H16.1914V7.97296ZM26.1093 7.97296C26.9364 7.97296 27.7449 8.21929 28.4326 8.6808C29.1203 9.14231 29.6563 9.79821 29.9728 10.5657C30.2893 11.3332 30.3721 12.1776 30.2107 12.9923C30.0494 13.807 29.6511 14.5554 29.0662 15.1428C28.4814 15.7302 27.7363 16.1302 26.9251 16.2922C26.114 16.4543 25.2731 16.3711 24.509 16.0533C23.7448 15.7353 23.0918 15.197 22.6322 14.5063C22.1727 13.8156 21.9275 13.0036 21.9275 12.173C21.9275 11.6214 22.0356 11.0752 22.2458 10.5657C22.4559 10.0561 22.764 9.59311 23.1523 9.20314C23.5406 8.8131 24.0016 8.5037 24.509 8.29265C25.0163 8.0816 25.5601 7.97296 26.1093 7.97296ZM26.1093 14.973C26.6607 14.973 27.1997 14.8087 27.6582 14.5011C28.1166 14.1934 28.474 13.7561 28.6849 13.2444C28.896 12.7328 28.9512 12.1699 28.8436 11.6267C28.736 11.0835 28.4705 10.5847 28.0806 10.1931C27.6907 9.8015 27.194 9.5348 26.6532 9.42679C26.1124 9.31871 25.5518 9.37415 25.0424 9.58611C24.533 9.798 24.0976 10.1569 23.7912 10.6173C23.4849 11.0778 23.3214 11.6192 23.3214 12.173C23.3251 12.9131 23.6204 13.6217 24.1429 14.1438C24.6653 14.6659 25.3723 14.959 26.1093 14.959V14.973ZM23.3214 17.731H28.8972V19.131H23.3214V17.731ZM41.1638 19.131H39.7699V18.13C38.8709 18.7619 37.8005 19.1016 36.7032 19.103C35.7675 19.1093 34.8453 18.879 34.0216 18.4333C33.1977 17.9875 32.4989 17.3408 31.9894 16.5526C31.4799 15.7644 31.176 14.86 31.1059 13.9229C31.0357 12.9858 31.2015 12.046 31.588 11.1902C31.9744 10.3343 32.5691 9.58982 33.3173 9.02548C34.0655 8.46107 34.943 8.09483 35.8691 7.96057C36.7952 7.82624 37.7401 7.92823 38.6166 8.25702C39.4932 8.58581 40.2733 9.13083 40.885 9.84196L39.8605 10.759C39.3952 10.2365 38.8072 9.8393 38.1499 9.60361C37.4926 9.36785 36.7871 9.30107 36.0976 9.40936C35.408 9.51765 34.7564 9.79758 34.2022 10.2235C33.6479 10.6495 33.2086 11.208 32.9244 11.8482C32.6401 12.4884 32.5199 13.1898 32.5747 13.8886C32.6294 14.5874 32.8574 15.2613 33.238 15.8489C33.6185 16.4364 34.1394 16.9191 34.7532 17.2527C35.3669 17.5863 36.0541 17.7604 36.752 17.759C37.3312 17.7601 37.9038 17.6357 38.4307 17.394C38.9576 17.1524 39.4263 16.7993 39.8047 16.359H36.0411V14.959H41.1778L41.1638 19.131ZM46.2935 8.00096C47.1206 8.00096 47.9291 8.24729 48.6168 8.7088C49.3045 9.17031 49.8405 9.82621 50.157 10.5937C50.4735 11.3612 50.5563 12.2056 50.395 13.0203C50.2336 13.835 49.8354 14.5834 49.2505 15.1708C48.6657 15.7582 47.9205 16.1582 47.1093 16.3202C46.2982 16.4823 45.4574 16.3991 44.6932 16.0813C43.9291 15.7633 43.276 15.225 42.8165 14.5343C42.357 13.8436 42.1117 13.0316 42.1117 12.201C42.108 11.6459 42.214 11.0956 42.4233 10.5819C42.6327 10.0681 42.9414 9.60116 43.3315 9.20804C43.7217 8.81485 44.1856 8.50328 44.6964 8.29125C45.2072 8.07929 45.7548 7.97107 46.3075 7.97296L46.2935 8.00096ZM46.2935 15.001C46.8449 15.001 47.3839 14.8367 47.8424 14.5291C48.3009 14.2214 48.6582 13.7841 48.8692 13.2724C49.0802 12.7608 49.1354 12.1979 49.0278 11.6547C48.9203 11.1115 48.6547 10.6127 48.2648 10.2211C47.875 9.8295 47.3782 9.5628 46.8374 9.45479C46.2966 9.34671 45.7361 9.40215 45.2267 9.61411C44.7173 9.826 44.2818 10.1849 43.9755 10.6453C43.6692 11.1058 43.5056 11.6472 43.5056 12.201C43.5167 12.9387 43.8171 13.6423 44.3418 14.1587C44.8664 14.6751 45.5729 14.9627 46.3075 14.959L46.2935 15.001ZM43.5056 17.759H49.0814V19.159H43.5056V17.759ZM51.9599 7.97296H53.3538V19.103H51.9599V7.97296ZM55.2844 7.97296H56.6784C56.7502 7.96533 56.8226 7.96533 56.8944 7.97296C57.4782 7.90933 58.0688 7.96995 58.6277 8.15076C59.1866 8.33164 59.7014 8.62865 60.1384 9.02254C60.5755 9.41643 60.925 9.89838 61.1643 10.437C61.4036 10.9755 61.5273 11.5587 61.5273 12.1485C61.5273 12.7382 61.4036 13.3214 61.1643 13.86C60.925 14.3985 60.5755 14.8805 60.1384 15.2744C59.7014 15.6683 59.1866 15.9653 58.6277 16.1462C58.0688 16.327 57.4782 16.3876 56.8944 16.324H56.6784V19.124H55.2844V7.97296ZM56.6784 9.37296V14.91H56.8944C57.2882 14.9626 57.6885 14.9302 58.0688 14.8148C58.449 14.6994 58.8002 14.5037 59.099 14.241C59.3979 13.9782 59.6373 13.6543 59.8014 13.291C59.9654 12.9277 60.0503 12.5334 60.0503 12.1345C60.0503 11.7355 59.9654 11.3412 59.8014 10.9779C59.6373 10.6146 59.3979 10.2907 59.099 10.0279C58.8002 9.7651 58.449 9.56952 58.0688 9.45409C57.6885 9.33873 57.2882 9.30632 56.8944 9.35896C56.8185 9.36687 56.7437 9.38332 56.6714 9.40796L56.6784 9.37296ZM66.7217 8.77796L65.6902 9.59696C65.5123 9.4102 65.2849 9.27832 65.0349 9.21686C64.7849 9.1554 64.5226 9.16688 64.2789 9.24997C64.0351 9.33299 63.8201 9.48419 63.659 9.68579C63.4978 9.88739 63.3973 10.131 63.3693 10.388V10.5C63.3693 11.116 63.7944 11.529 64.6238 11.585C67.816 11.781 69.2796 13.286 69.2796 15.274V15.4C69.1971 16.1868 68.8914 16.9332 68.3988 17.5506C67.9062 18.168 67.2474 18.6302 66.5008 18.8825C65.7541 19.1346 64.9511 19.1661 64.1871 18.9731C63.4232 18.7802 62.7304 18.3709 62.1914 17.794L63.2578 16.968C63.506 17.2351 63.8091 17.4449 64.1461 17.5827C64.483 17.7205 64.8458 17.783 65.2093 17.766C65.8806 17.8015 66.5396 17.5752 67.0487 17.1343C67.5578 16.6934 67.8776 16.072 67.9414 15.4V15.302C67.9414 13.433 66.1153 13.09 64.5332 12.936C63.0696 12.796 62.0172 11.879 62.0172 10.556V10.5C62.0687 9.81116 62.3817 9.16856 62.8914 8.70488C63.4011 8.24113 64.0687 7.99165 64.7563 8.00796C65.1206 7.99718 65.4831 8.06319 65.8205 8.20186C66.1579 8.34053 66.4625 8.54871 66.7147 8.81296L66.7217 8.77796ZM74.7369 17.682C76.4723 17.682 77.8454 15.799 77.8454 13.482V7.88196H79.2393V13.482C79.2393 16.562 77.232 19.047 74.7647 19.047C72.2975 19.047 70.2902 16.562 70.2902 13.482V7.88196H71.6841V13.482C71.6284 15.834 73.0014 17.717 74.7299 17.717L74.7369 17.682ZM89.9378 19.082H88.5438V12.152L85.3308 16.352L82.1178 12.152V19.103H80.7238V7.97296L85.3238 14.056L89.9238 7.97296L89.9378 19.082Z" fill="white"/>
<path d="M9.49709 6.29994C9.49709 5.29 9.09766 4.32141 8.38661 3.60728C7.67556 2.89314 6.71115 2.49194 5.70558 2.49194C4.7 2.49194 3.73562 2.89314 3.02457 3.60728C2.31352 4.32141 1.91406 5.29 1.91406 6.29994V17.8149L5.03649 20.0619V25.5359H6.37467V20.0619L9.49709 17.8149V6.29994ZM8.15891 12.7399L6.37467 14.5319V12.8519L8.15891 11.0599V12.7399ZM3.28012 11.0599L5.06437 12.8519V14.5319L3.28012 12.7399V11.0599ZM8.15891 9.15594L5.70558 11.6199L3.25224 9.09994V7.41994L5.70558 9.88394L8.15891 7.41994V9.15594ZM5.70558 3.83594C6.24514 3.83834 6.76904 4.01831 7.19702 4.34829C7.62503 4.67827 7.93351 5.14006 8.07527 5.66294L5.70558 8.03594L3.33588 5.66294C3.47245 5.13486 3.77871 4.66681 4.20718 4.33141C4.63565 3.99601 5.16235 3.812 5.70558 3.80794V3.83594ZM3.25224 17.1359V14.6159L5.03649 16.4079V18.4099L3.25224 17.1359ZM6.37467 18.4169V16.4079L8.15891 14.6159V17.1289L6.37467 18.4169Z" fill="white"/>
</svg>
