<svg width="127" height="28" viewBox="0 0 127 28" fill="none" xmlns="http://www.w3.org/2000/svg">
<path d="M37.2001 18.687C37.2001 19.2982 37.0744 19.7679 36.8231 20.096C36.5783 20.4241 36.1692 20.5882 35.5958 20.5882C35.0546 20.5882 34.6713 20.4241 34.4457 20.096C34.2267 19.7679 34.1172 19.2982 34.1172 18.687V8.48617C34.1172 7.87495 34.2267 7.40528 34.4457 7.07715C34.6713 6.74902 35.0546 6.58496 35.5958 6.58496C36.1692 6.58496 36.5783 6.74902 36.8231 7.07715C37.0744 7.40528 37.2001 7.87495 37.2001 8.48617V18.687Z" fill="white"/>
<path d="M38.1367 15.7243C38.1367 15.0423 38.2462 14.399 38.4654 13.7942C38.6908 13.1829 39.0258 12.649 39.4704 12.1921C39.9214 11.7353 40.4819 11.3718 41.152 11.1016C41.8285 10.8313 42.6209 10.6963 43.5294 10.6963C44.3991 10.6963 45.1691 10.8217 45.8391 11.0726C46.5092 11.3236 47.0729 11.6742 47.5303 12.1246C47.9877 12.5685 48.3356 13.0993 48.5741 13.7169C48.8124 14.3281 48.9316 14.9973 48.9316 15.7243C48.9316 16.3999 48.8188 17.04 48.5934 17.6448C48.3679 18.2431 48.0296 18.7707 47.5786 19.2276C47.1277 19.6779 46.5639 20.0382 45.8874 20.3084C45.2109 20.5722 44.4249 20.7041 43.5294 20.7041C42.6467 20.7041 41.8671 20.5786 41.1906 20.3277C40.5205 20.0704 39.9569 19.7197 39.4994 19.2757C39.0484 18.8254 38.7069 18.2979 38.475 17.6931C38.2495 17.0819 38.1367 16.4256 38.1367 15.7243ZM41.3549 15.7243C41.3549 16.149 41.3935 16.5543 41.4709 16.9403C41.5482 17.3199 41.6706 17.6545 41.8381 17.944C42.012 18.2335 42.2376 18.4651 42.5146 18.6388C42.7917 18.8061 43.1299 18.8897 43.5294 18.8897C43.8966 18.8897 44.2155 18.8126 44.4861 18.6581C44.7632 18.5038 44.9886 18.2882 45.1626 18.0115C45.343 17.7349 45.4783 17.4035 45.5684 17.0175C45.6587 16.625 45.7038 16.194 45.7038 15.7243C45.7038 15.2997 45.6619 14.8975 45.5782 14.518C45.5008 14.132 45.3752 13.7942 45.2012 13.5046C45.0273 13.2087 44.8018 12.9771 44.5247 12.8098C44.2542 12.6361 43.9223 12.5492 43.5294 12.5492C43.1363 12.5492 42.8013 12.6328 42.5242 12.8002C42.2472 12.9674 42.0218 13.1958 41.8478 13.4853C41.6738 13.7749 41.5482 14.1126 41.4709 14.4987C41.3935 14.8847 41.3549 15.2932 41.3549 15.7243Z" fill="white"/>
<path d="M56.8633 18.7257C56.6893 19.0474 56.4767 19.3208 56.2255 19.546C55.9807 19.7712 55.7068 19.9578 55.4041 20.1058C55.1077 20.2473 54.7888 20.3534 54.4473 20.4242C54.1122 20.4886 53.7676 20.5208 53.4132 20.5208C52.8204 20.5208 52.2793 20.4146 51.7896 20.2022C51.3 19.9899 50.878 19.6843 50.5236 19.2855C50.1757 18.8801 49.9051 18.3847 49.7118 17.7992C49.5185 17.2137 49.4219 16.5446 49.4219 15.7919C49.4219 15.0842 49.5121 14.4215 49.6925 13.8038C49.8729 13.1862 50.1338 12.649 50.4753 12.1922C50.8232 11.7354 51.2485 11.3751 51.751 11.1113C52.2535 10.8475 52.827 10.7156 53.4712 10.7156C54.2057 10.7156 54.8564 10.8571 55.4234 11.1402C55.9968 11.4233 56.4897 11.8866 56.902 12.5299V12.279C56.902 11.8158 57.0276 11.4684 57.2789 11.2367C57.5366 10.9987 57.891 10.8796 58.342 10.8796C58.6126 10.8796 58.8412 10.9247 59.0281 11.0148C59.2149 11.0984 59.3631 11.2271 59.4726 11.4008C59.5822 11.5681 59.6595 11.7772 59.7046 12.0281C59.7561 12.2725 59.7819 12.5525 59.7819 12.8677V19.3337C59.7819 20.1186 59.6821 20.8199 59.4823 21.4375C59.289 22.0552 58.9862 22.5764 58.5739 23.001C58.1615 23.4256 57.6333 23.7473 56.9889 23.9661C56.3447 24.1912 55.578 24.3038 54.6889 24.3038C54.064 24.3038 53.5099 24.2749 53.0266 24.2169C52.5499 24.1655 52.1375 24.0851 51.7896 23.9757C51.4418 23.8534 51.1776 23.7184 50.9972 23.5704C50.8232 23.4224 50.7362 23.2294 50.7362 22.9914C50.7362 22.8562 50.7555 22.7276 50.7942 22.6053C50.8329 22.4831 50.8909 22.3737 50.9681 22.2772C51.0519 22.1871 51.1582 22.1131 51.2871 22.0552C51.4224 22.0038 51.5866 21.978 51.78 21.978C51.9861 21.978 52.1923 21.9908 52.3985 22.0166C52.6111 22.0423 52.8302 22.0681 53.0556 22.0938C53.2875 22.126 53.5292 22.1549 53.7804 22.1807C54.0382 22.2064 54.3152 22.2193 54.6116 22.2193C54.9659 22.2193 55.2816 22.1839 55.5587 22.1131C55.8357 22.0423 56.0708 21.9169 56.2641 21.7367C56.4574 21.5566 56.6056 21.3153 56.7087 21.0129C56.8118 20.7169 56.8633 20.3374 56.8633 19.8741V18.7257ZM56.8633 15.7244C56.8633 15.2546 56.8279 14.8268 56.757 14.4408C56.6926 14.0547 56.5798 13.7266 56.4188 13.4564C56.2577 13.1797 56.0419 12.9674 55.7713 12.8194C55.5006 12.665 55.1624 12.5879 54.7565 12.5879C54.3571 12.5879 54.0253 12.6682 53.7612 12.8291C53.5034 12.9899 53.2973 13.2119 53.1426 13.495C52.988 13.7781 52.8785 14.1094 52.814 14.4891C52.756 14.8686 52.7271 15.274 52.7271 15.705C52.7271 16.6894 52.901 17.4293 53.249 17.9247C53.5968 18.4201 54.1026 18.6678 54.7662 18.6678C55.0754 18.6614 55.3557 18.6034 55.6069 18.4941C55.8647 18.3783 56.087 18.2014 56.2738 17.9633C56.4606 17.7252 56.6056 17.4228 56.7087 17.0561C56.8118 16.6894 56.8633 16.2455 56.8633 15.7244Z" fill="white"/>
<path d="M60.6719 15.7243C60.6719 15.0423 60.7814 14.399 61.0004 13.7942C61.226 13.1829 61.561 12.649 62.0055 12.1921C62.4566 11.7353 63.017 11.3718 63.6871 11.1016C64.3636 10.8313 65.156 10.6963 66.0645 10.6963C66.9342 10.6963 67.7041 10.8217 68.3742 11.0726C69.0442 11.3236 69.608 11.6742 70.0654 12.1246C70.5229 12.5685 70.8708 13.0993 71.1091 13.7169C71.3475 14.3281 71.4667 14.9973 71.4667 15.7243C71.4667 16.3999 71.354 17.04 71.1285 17.6448C70.903 18.2431 70.5648 18.7707 70.1137 19.2276C69.6627 19.6779 69.099 20.0382 68.4225 20.3084C67.746 20.5722 66.96 20.7041 66.0645 20.7041C65.1818 20.7041 64.4022 20.5786 63.7257 20.3277C63.0557 20.0704 62.4919 19.7197 62.0345 19.2757C61.5836 18.8254 61.2421 18.2979 61.0101 17.6931C60.7846 17.0819 60.6719 16.4256 60.6719 15.7243ZM63.89 15.7243C63.89 16.149 63.9287 16.5543 64.006 16.9403C64.0833 17.3199 64.2057 17.6545 64.3733 17.944C64.5472 18.2335 64.7727 18.4651 65.0497 18.6388C65.3268 18.8061 65.665 18.8897 66.0645 18.8897C66.4317 18.8897 66.7506 18.8126 67.0212 18.6581C67.2982 18.5038 67.5238 18.2882 67.6977 18.0115C67.8781 17.7349 68.0134 17.4035 68.1036 17.0175C68.1938 16.625 68.2389 16.194 68.2389 15.7243C68.2389 15.2997 68.197 14.8975 68.1133 14.518C68.036 14.132 67.9103 13.7942 67.7364 13.5046C67.5624 13.2087 67.3369 12.9771 67.0599 12.8098C66.7893 12.6361 66.4575 12.5492 66.0645 12.5492C65.6715 12.5492 65.3364 12.6328 65.0594 12.8002C64.7824 12.9674 64.5568 13.1958 64.3829 13.4853C64.209 13.7749 64.0833 14.1126 64.006 14.4987C63.9287 14.8847 63.89 15.2932 63.89 15.7243Z" fill="white"/>
<path d="M75.6092 7.44395C75.6092 7.65628 75.5609 7.84607 75.4642 8.01335C75.3676 8.17419 75.242 8.30927 75.0874 8.41872C74.9327 8.52808 74.7523 8.61167 74.5461 8.66956C74.3465 8.72103 74.1403 8.74681 73.9276 8.74681C73.7021 8.74681 73.4863 8.71782 73.2802 8.65993C73.0804 8.60203 72.9033 8.51845 72.7487 8.409C72.594 8.29321 72.4716 8.15489 72.3813 7.99405C72.2912 7.8332 72.2461 7.64984 72.2461 7.44395C72.2461 7.25737 72.288 7.08688 72.3717 6.93247C72.4619 6.77162 72.5811 6.6333 72.7293 6.51748C72.8775 6.40168 73.0547 6.3116 73.2609 6.24727C73.467 6.18292 73.6925 6.15076 73.9373 6.15076C74.1499 6.15076 74.3561 6.17971 74.5558 6.23761C74.762 6.29552 74.9424 6.37915 75.097 6.48854C75.2516 6.59791 75.3741 6.73302 75.4642 6.89386C75.5609 7.05471 75.6092 7.23807 75.6092 7.44395ZM75.4642 18.6871C75.4642 19.2983 75.3386 19.7679 75.0874 20.096C74.8425 20.4242 74.4334 20.5883 73.86 20.5883C73.3188 20.5883 72.9354 20.4242 72.71 20.096C72.4909 19.7679 72.3813 19.2983 72.3813 18.6871V12.7808C72.3813 12.1696 72.4909 11.6999 72.71 11.3718C72.9354 11.0437 73.3188 10.8796 73.86 10.8796C74.4334 10.8796 74.8425 11.0437 75.0874 11.3718C75.3386 11.6999 75.4642 12.1696 75.4642 12.7808V18.6871Z" fill="white"/>
<path d="M79.9089 15.705C79.9089 16.1361 79.9411 16.5382 80.0056 16.9114C80.0764 17.2845 80.1924 17.6126 80.3534 17.8958C80.521 18.1724 80.7401 18.3911 81.0106 18.552C81.2876 18.7129 81.6291 18.7932 82.035 18.7932C82.4087 18.7932 82.7212 18.7161 82.9727 18.5617C83.23 18.4008 83.4362 18.182 83.5912 17.9054C83.7454 17.6223 83.8551 17.291 83.9194 16.9114C83.9903 16.5318 84.0258 16.12 84.0258 15.6761C84.0258 15.3222 84.0002 14.9619 83.9483 14.5952C83.8972 14.222 83.8007 13.8843 83.6588 13.5819C83.517 13.2795 83.3207 13.0318 83.0692 12.8387C82.8177 12.6458 82.4894 12.5492 82.0834 12.5492C81.6775 12.5492 81.3327 12.6136 81.0493 12.7423C80.7722 12.8709 80.5467 13.0672 80.3728 13.3309C80.2052 13.5947 80.0861 13.9261 80.0152 14.3249C79.9443 14.7174 79.9089 15.1775 79.9089 15.705ZM79.8993 12.7808C80.0604 12.4399 80.2665 12.1407 80.5178 11.8833C80.769 11.626 81.0461 11.4105 81.3489 11.2367C81.6517 11.063 81.9674 10.9343 82.296 10.8507C82.6313 10.7606 82.9628 10.7156 83.291 10.7156C83.884 10.7156 84.4192 10.8475 84.8958 11.1113C85.3725 11.3751 85.7782 11.7354 86.1131 12.1922C86.4545 12.6426 86.7159 13.1765 86.8965 13.7942C87.0763 14.4054 87.167 15.0617 87.167 15.7629C87.167 16.4899 87.0697 17.1558 86.8767 17.7606C86.6903 18.3654 86.4223 18.8866 86.0743 19.324C85.7329 19.7551 85.3205 20.0929 84.8373 20.3374C84.3606 20.5819 83.8295 20.7041 83.2432 20.7041C82.5216 20.7041 81.8772 20.5368 81.3102 20.2022C80.7433 19.8677 80.273 19.398 79.8993 18.7932V22.2676C79.8993 22.8787 79.7736 23.3484 79.5223 23.6765C79.2775 24.0046 78.8684 24.1688 78.295 24.1688C77.7538 24.1688 77.3704 24.0046 77.145 23.6765C76.9259 23.3484 76.8164 22.8787 76.8164 22.2676V12.7808C76.8164 12.1696 76.9259 11.6999 77.145 11.3718C77.3704 11.0438 77.7538 10.8796 78.295 10.8796C78.8684 10.8796 79.2775 11.0438 79.5223 11.3718C79.7736 11.6999 79.8993 12.1696 79.8993 12.7808Z" fill="white"/>
<path d="M90.5693 13.4661C90.5693 13.7169 90.679 13.9132 90.8975 14.0547C91.1169 14.1899 91.4195 14.3024 91.8063 14.3925C92.1733 14.4761 92.5502 14.5566 92.9369 14.6337C93.3237 14.711 93.7006 14.8011 94.0676 14.904C94.4346 15.0005 94.7793 15.1163 95.1017 15.2514C95.4233 15.3865 95.707 15.557 95.952 15.7629C96.1969 15.9623 96.3899 16.2069 96.5317 16.4963C96.6736 16.7795 96.7445 17.1205 96.7445 17.5193C96.7445 18.0212 96.6414 18.4683 96.4352 18.8608C96.229 19.2468 95.9363 19.5749 95.5561 19.8452C95.1825 20.1154 94.7347 20.3245 94.2127 20.4725C93.6907 20.6205 93.1143 20.6976 92.4825 20.7041C91.8838 20.7041 91.3066 20.6655 90.7524 20.5883C90.199 20.5175 89.7059 20.4049 89.2737 20.2505C88.849 20.0961 88.5076 19.9063 88.2495 19.6811C87.9922 19.4495 87.8635 19.1793 87.8635 18.8705C87.8635 18.6002 87.9501 18.3911 88.1241 18.2431C88.2981 18.0952 88.52 18.0212 88.7913 18.0212C88.8944 18.0212 89.0164 18.0404 89.1583 18.0791C89.3001 18.1177 89.4543 18.1659 89.6217 18.2238C89.7892 18.2817 89.9665 18.3461 90.1537 18.4169C90.3466 18.4812 90.5462 18.5391 90.7524 18.5906C91.0105 18.6614 91.2744 18.7193 91.5449 18.7643C91.822 18.8029 92.1057 18.8222 92.396 18.8222C92.5757 18.8222 92.753 18.8061 92.9271 18.774C93.1011 18.7353 93.2561 18.6807 93.3913 18.6099C93.5332 18.5327 93.6486 18.4361 93.7394 18.3204C93.8292 18.2046 93.8837 18.063 93.9035 17.8957C93.9224 17.8571 93.9389 17.8185 93.9513 17.7799C93.9645 17.7413 93.9711 17.6963 93.9711 17.6448C93.9711 17.4646 93.887 17.3038 93.7196 17.1622C93.5588 17.0207 93.3295 16.9081 93.0334 16.8245C92.537 16.7087 92.0636 16.6026 91.6125 16.506C91.1622 16.4095 90.7433 16.3066 90.3565 16.1972C89.9764 16.0879 89.6283 15.9623 89.3125 15.8208C89.0032 15.6793 88.7393 15.5055 88.52 15.2997C88.308 15.0938 88.1398 14.8461 88.0178 14.5566C87.9015 14.267 87.8438 13.9164 87.8438 13.5046C87.8438 13.0607 87.9435 12.665 88.1431 12.3176C88.3493 11.9637 88.6429 11.6678 89.023 11.4297C89.4032 11.1916 89.8634 11.0115 90.4052 10.8893C90.9462 10.7606 91.5581 10.6963 92.2409 10.6963C93.4647 10.6963 94.3958 10.8443 95.0341 11.1402C95.6782 11.4297 96.0006 11.8093 96.0006 12.279C96.0006 12.5428 95.9132 12.7455 95.7392 12.887C95.5652 13.0221 95.3557 13.0896 95.1116 13.0896C94.9821 13.0896 94.8469 13.0671 94.705 13.0221C94.5698 12.9706 94.4057 12.9159 94.2127 12.8581C94.0189 12.7937 93.7872 12.7391 93.5167 12.694C93.2528 12.6425 92.9237 12.6168 92.5312 12.6168C92.2343 12.6168 91.9638 12.6296 91.7189 12.6554C91.4806 12.6811 91.2744 12.7261 91.1004 12.7904C90.933 12.8548 90.801 12.9416 90.7046 13.0511C90.6138 13.1605 90.5693 13.2987 90.5693 13.4661Z" fill="white"/>
<path d="M100.665 17.0077C100.665 17.3101 100.703 17.5739 100.781 17.7991C100.864 18.0243 100.977 18.2141 101.119 18.3685C101.261 18.5165 101.425 18.6291 101.611 18.7063C101.805 18.7771 102.011 18.8125 102.23 18.8125C102.488 18.8125 102.736 18.7739 102.975 18.6966C103.213 18.6195 103.422 18.5004 103.603 18.3395C103.789 18.1787 103.938 17.976 104.047 17.7315C104.156 17.4871 104.212 17.2008 104.212 16.8727V12.7807C104.212 12.1695 104.321 11.6998 104.54 11.3717C104.766 11.0436 105.149 10.8795 105.69 10.8795C106.263 10.8795 106.672 11.0436 106.917 11.3717C107.169 11.6998 107.294 12.1695 107.294 12.7807V18.687C107.294 19.2982 107.169 19.7679 106.917 20.096C106.672 20.4241 106.263 20.5882 105.69 20.5882C105.149 20.5882 104.766 20.4241 104.54 20.096C104.321 19.7679 104.212 19.2982 104.212 18.687C104.076 18.983 103.899 19.2532 103.68 19.4977C103.467 19.7422 103.216 19.9545 102.926 20.1346C102.642 20.3084 102.327 20.4434 101.979 20.5399C101.638 20.6364 101.267 20.6847 100.868 20.6847C100.436 20.6847 100.021 20.6107 99.6206 20.4628C99.2281 20.3084 98.8801 20.0831 98.5774 19.7871C98.2748 19.4848 98.0331 19.1116 97.8525 18.6677C97.6719 18.2238 97.582 17.7058 97.582 17.1139V12.7807C97.582 12.1695 97.6917 11.6998 97.9102 11.3717C98.1362 11.0436 98.5189 10.8795 99.0607 10.8795C99.6338 10.8795 100.043 11.0436 100.288 11.3717C100.539 11.6998 100.665 12.1695 100.665 12.7807V17.0077Z" fill="white"/>
<path d="M108.695 12.7808C108.695 12.1696 108.805 11.6999 109.024 11.3718C109.249 11.0438 109.633 10.8796 110.174 10.8796C110.748 10.8796 111.157 11.0438 111.402 11.3718C111.653 11.6999 111.779 12.1696 111.779 12.7808C111.907 12.472 112.081 12.1922 112.301 11.9412C112.526 11.6839 112.781 11.4652 113.064 11.285C113.354 11.1049 113.666 10.9665 114.001 10.87C114.336 10.767 114.684 10.7156 115.045 10.7156C115.38 10.7156 115.708 10.7606 116.031 10.8507C116.359 10.9343 116.663 11.0727 116.94 11.2657C117.222 11.4522 117.471 11.6903 117.683 11.9799C117.896 12.2693 118.06 12.6168 118.177 13.0221C118.376 12.5911 118.611 12.2276 118.882 11.9316C119.152 11.6356 119.446 11.3975 119.761 11.2174C120.077 11.0372 120.406 10.9086 120.747 10.8314C121.095 10.7542 121.442 10.7156 121.79 10.7156C122.203 10.7156 122.596 10.7896 122.97 10.9375C123.35 11.0855 123.681 11.3107 123.965 11.6131C124.255 11.909 124.484 12.2855 124.651 12.7423C124.825 13.1926 124.912 13.7202 124.912 14.3249V18.6871C124.912 19.2983 124.786 19.768 124.535 20.0961C124.291 20.4242 123.881 20.5883 123.308 20.5883C122.767 20.5883 122.383 20.4242 122.158 20.0961C121.939 19.768 121.829 19.2983 121.829 18.6871V14.4601C121.829 14.1705 121.79 13.9132 121.714 13.688C121.636 13.4564 121.526 13.2634 121.385 13.109C121.249 12.9482 121.089 12.8291 120.901 12.7519C120.715 12.6682 120.515 12.6264 120.303 12.6264C120.038 12.6264 119.787 12.6682 119.549 12.7519C119.311 12.8355 119.101 12.9642 118.92 13.1379C118.746 13.3117 118.605 13.5336 118.495 13.8038C118.392 14.074 118.341 14.399 118.341 14.7785V18.6871C118.341 19.2983 118.215 19.768 117.964 20.0961C117.719 20.4242 117.31 20.5883 116.736 20.5883C116.195 20.5883 115.811 20.4242 115.586 20.0961C115.367 19.768 115.257 19.2983 115.257 18.6871V14.6434C115.257 13.9808 115.119 13.4789 114.842 13.1379C114.571 12.797 114.201 12.6264 113.731 12.6264C113.454 12.6264 113.196 12.6715 112.957 12.7616C112.719 12.8516 112.513 12.9835 112.339 13.1573C112.165 13.3309 112.026 13.5465 111.923 13.8038C111.827 14.0612 111.779 14.3571 111.779 14.6917V18.6871C111.779 19.2983 111.653 19.768 111.402 20.0961C111.157 20.4242 110.748 20.5883 110.174 20.5883C109.633 20.5883 109.249 20.4242 109.024 20.0961C108.805 19.768 108.695 19.2983 108.695 18.6871V12.7808Z" fill="white"/>
<path d="M14.0184 18.9412C11.2856 18.9412 9.07031 16.7289 9.07031 14C9.07031 11.2711 11.2856 9.05884 14.0184 9.05884C16.7511 9.05884 18.9664 11.2711 18.9664 14C18.9664 16.7289 16.7511 18.9412 14.0184 18.9412Z" fill="white"/>
<path d="M4.43554 15.6879C3.00164 15.9404 2.01877 17.3236 2.5692 18.6697C3.33767 20.549 4.56365 22.2234 6.15306 23.5318C8.42579 25.4026 11.2924 26.4023 14.2373 26.351C17.1822 26.2997 20.0121 25.2007 22.2182 23.2517C23.7608 21.8888 24.9275 20.1726 25.6299 18.2677C26.133 16.9032 25.1023 15.5551 23.6604 15.3528C22.2186 15.1504 20.9241 16.1985 20.2119 17.4667C19.8259 18.1541 19.3247 18.7777 18.7243 19.3082C17.4586 20.4265 15.8349 21.0569 14.1453 21.0864C12.4556 21.1158 10.8109 20.5423 9.50694 19.4689C8.88835 18.9597 8.36575 18.3539 7.95591 17.6803C7.19985 16.4377 5.86944 15.4354 4.43554 15.6879Z" fill="white"/>
<path d="M26.293 15.5437C26.3562 15.038 26.3887 14.5228 26.3887 14C26.3887 7.1777 20.8504 1.64709 14.0186 1.64709C7.18673 1.64709 1.64844 7.1777 1.64844 14C1.64844 14.671 1.702 15.3294 1.80509 15.9713C2.37328 15.1946 3.26007 14.6401 4.21793 14.4714C5.25429 14.2889 6.19618 14.5399 6.99256 15.0091C6.94551 14.6795 6.92116 14.3426 6.92116 14C6.92116 10.0857 10.0988 6.91249 14.0186 6.91249C17.9383 6.91249 21.116 10.0857 21.116 14C21.116 14.2581 21.1021 14.513 21.0752 14.7639C21.8548 14.2671 22.7875 13.9832 23.8298 14.1296C24.7927 14.2647 25.698 14.7877 26.293 15.5437Z" fill="white"/>
</svg>
