<svg width="151" height="28" viewBox="0 0 151 28" fill="none" xmlns="http://www.w3.org/2000/svg">
<g clip-path="url(#clip0_759_9068)">
<path d="M11.6479 27.9999H10.7554C8.43695 27.9999 7.04208 27.9995 5.97656 27.8011L12.1431 19.624L11.6479 27.9999Z" fill="white"/>
<path d="M21.8439 27.8259C20.7967 27.9991 19.4246 28 17.2091 28H16.154L15.6562 19.6216L21.8439 27.8259Z" fill="white"/>
<path d="M27.7342 22.1696C27.6892 22.3841 27.6362 22.5859 27.5716 22.7799C27.1485 24.0497 26.4057 25.1666 25.4379 26.0388L18.4844 18.2308L27.7342 22.1696Z" fill="white"/>
<path d="M2.43669 25.9554C1.51288 25.0958 0.802218 24.01 0.392344 22.7798C0.321367 22.5667 0.262437 22.3447 0.214844 22.1062L9.3145 18.2321L2.43669 25.9554Z" fill="white"/>
<path d="M27.9633 17.2329C27.9633 18.02 27.9611 18.7008 27.9534 19.2985L19.6953 16.1042H27.9633V17.2329Z" fill="white"/>
<path d="M8.1066 16.1042L0.00744751 19.2364C0.00049362 18.6537 0 17.9928 0 17.2328V16.1042H8.1066Z" fill="white"/>
<path d="M17.21 0C20.1198 0 21.5748 0.000387567 22.7497 0.392756C25.0254 1.15299 26.8115 2.94146 27.5707 5.22017C27.9625 6.39659 27.963 7.85351 27.963 10.7672V14.0112H19.2308L25.5289 11.3303L23.6608 10.0886L17.5501 12.4513L20.4186 8.6506L18.3557 8.08507L15.188 11.6397L14.9521 7.63637H12.8507L12.6112 11.6397L9.44596 8.08507L7.38425 8.6506L10.2491 12.4501L4.14206 10.0886L2.27398 11.3303L8.57086 14.0112H0V10.7672C0 7.85351 0.000387055 6.39659 0.392236 5.22017C1.15147 2.94146 2.93757 1.15299 5.21327 0.392756C6.38812 0.000387567 7.84312 0 10.7529 0H17.21Z" fill="white"/>
<path d="M65.2049 22.0104C65.8619 23.2442 67.1307 24.0208 68.7658 24.0208C70.4008 24.0208 71.6696 23.2442 72.3268 22.0104H74.7861C73.9731 24.4757 71.7137 26.1235 68.7658 26.1235C65.8181 26.1235 63.5585 24.4757 62.7452 22.0104H65.2049ZM101.018 8.93186C104.765 8.93186 107.39 11.5127 107.39 15.2168C107.39 19.136 104.479 21.3589 101.4 21.3589C99.4907 21.3588 97.8681 20.4983 97.009 18.969V26.09H94.7412V15.2407C94.7412 11.3933 97.3669 8.93186 101.018 8.93186ZM101.042 11.0346C98.6315 11.0346 97.009 12.7554 97.009 15.145C97.009 17.5347 98.6315 19.2555 101.042 19.2555C103.476 19.2555 105.099 17.5348 105.099 15.145C105.099 12.7553 103.476 11.0346 101.042 11.0346ZM55.2677 8.93186C58.9907 8.93186 61.6159 11.5605 61.616 15.145C61.616 18.7296 58.9907 21.3589 55.2677 21.3589C51.5446 21.3589 48.9193 18.7296 48.9193 15.145C48.9194 11.5605 51.5447 8.93186 55.2677 8.93186ZM55.2677 11.0346C52.8334 11.0346 51.2105 12.7553 51.2105 15.145C51.2105 17.5348 52.8334 19.2555 55.2677 19.2555C57.702 19.2555 59.3249 17.5348 59.3249 15.145C59.3248 12.7553 57.7019 11.0346 55.2677 11.0346ZM69.0171 8.93732H75.1839V10.9676H73.5928C74.5561 12.0492 75.1133 13.4954 75.1133 15.145C75.1133 18.7296 72.4882 21.3589 68.7651 21.3589C65.0421 21.3589 62.4168 18.7296 62.4168 15.145C62.4169 11.5605 65.0421 8.93186 68.7651 8.93186C68.8497 8.93186 68.9337 8.93459 69.0171 8.93732ZM68.7651 11.0346C66.3309 11.0346 64.708 12.7553 64.7079 15.145C64.7079 17.5348 66.3308 19.2555 68.7651 19.2555C71.1992 19.2555 72.8224 17.5348 72.8224 15.145C72.8224 12.7553 71.1992 11.0346 68.7651 11.0346ZM82.2634 8.93186C85.986 8.93186 88.6117 11.5605 88.6117 15.145C88.6117 18.7296 85.986 21.3589 82.2634 21.3589C78.5401 21.3589 75.9151 18.7296 75.9151 15.145C75.9151 11.5605 78.5401 8.93186 82.2634 8.93186ZM82.2634 11.0346C79.8292 11.0346 78.206 12.7553 78.206 15.145C78.206 17.5348 79.8292 19.2555 82.2634 19.2555C84.6976 19.2555 86.3208 17.5348 86.3208 15.145C86.3201 12.7553 84.6976 11.0346 82.2634 11.0346ZM113.121 8.93186C115.938 8.93193 117.68 10.5332 117.727 12.5644H115.483C115.412 11.6564 114.577 10.9868 113.146 10.9867C111.642 10.9867 110.783 11.7042 110.783 12.6363C110.783 13.7591 112.024 13.8785 113.479 14.0697C115.532 14.3326 118.037 14.715 118.038 17.4152C118.038 19.8049 116.105 21.3587 113.146 21.3589C110.186 21.3589 108.324 19.7813 108.253 17.6305H110.544C110.591 18.6103 111.499 19.3033 113.146 19.3033C114.863 19.3032 115.746 18.5625 115.746 17.6305C115.746 16.5074 114.505 16.3636 113.026 16.1724C110.974 15.9096 108.491 15.5274 108.491 12.8269C108.491 10.509 110.305 8.93186 113.121 8.93186ZM121.627 15.4075C121.627 17.9645 123.035 19.2555 125.183 19.2555C127.331 19.2555 128.739 17.9645 128.739 15.4075V9.24217H131.006V15.4075C131.006 19.3267 128.668 21.3582 125.183 21.3582C121.699 21.3582 119.36 19.3506 119.36 15.4075V9.24217H121.627V15.4075ZM39.4852 18.8016H48.2441V21.0479H37.0508V5.41884H39.4852V18.8016ZM92.5866 21.0479H90.3195V9.24217H92.5866V21.0479ZM145.939 8.93186C148.707 8.93186 150.808 10.6047 150.808 14.2133V21.0479H148.54V14.2133C148.54 12.0148 147.371 11.0347 145.724 11.0346C144.125 11.0346 142.931 12.0625 142.931 14.2133V21.0479H140.664V14.2133C140.664 12.0625 139.447 11.0346 137.848 11.0346C136.201 11.0346 135.032 12.0147 135.032 14.2133V21.0479H132.764V14.2133C132.764 10.6047 134.865 8.93186 137.634 8.93186C139.447 8.93193 140.974 9.74449 141.785 11.2738C142.597 9.74442 144.101 8.93186 145.939 8.93186ZM91.4415 4.2C92.3482 4.2 93.0172 4.86904 93.0172 5.77705C93.0172 6.68516 92.3482 7.3787 91.4415 7.3787C90.5348 7.37863 89.8665 6.68509 89.8665 5.77705C89.8665 4.8691 90.5348 4.20009 91.4415 4.2Z" fill="white"/>
</g>
<defs>
<clipPath id="clip0_759_9068">
<rect width="151" height="28" fill="white"/>
</clipPath>
</defs>
</svg>
