<svg width="131" height="48" viewBox="0 0 131 48" fill="none" xmlns="http://www.w3.org/2000/svg">
<path fill-rule="evenodd" clip-rule="evenodd" d="M74.9902 29.5651H75.9649L76.5899 27.339C77.008 27.8948 77.7729 28.0346 78.5385 28.0346C79.9983 28.0346 81.5979 27.1306 81.9461 25.7393C82.2936 24.278 81.3211 23.3733 79.7907 23.3733C78.9559 23.3733 78.0519 23.6516 77.4254 24.1389C77.4946 23.8606 77.4946 23.7208 77.5645 23.5125H76.5899C76.5207 23.8606 76.4508 24.2081 76.3124 24.4857L74.9902 29.5651ZM77.008 25.7393C77.2856 24.6255 78.2595 23.9298 79.4425 23.9298C80.5548 23.9298 81.1813 24.6255 80.9023 25.7393C80.6247 26.8516 79.6508 27.4781 78.4678 27.4781C77.3562 27.4781 76.729 26.8516 77.008 25.7393ZM83.3382 27.8948H84.3114L85.981 21.6345H85.0777L83.3382 27.8948ZM88.5553 24.6962C88.7636 24.2088 89.3901 23.9306 90.0857 23.9306C91.0604 23.9306 91.547 24.2096 91.3387 25.0444V25.1835H89.5984C87.8596 25.2527 86.885 25.7393 86.6766 26.6433C86.4683 27.4781 87.164 28.0346 88.4154 28.0346C89.3901 28.0346 90.0165 27.9654 90.7807 27.2698C90.7807 27.4781 90.7115 27.6864 90.7115 27.8948H91.6155C91.6155 27.6864 91.6861 27.4089 91.7546 27.0614L92.3811 24.9045C92.6586 23.7907 91.7546 23.3733 90.3633 23.3733C89.3202 23.3733 87.9288 23.6516 87.5814 24.6954L88.5553 24.6962ZM91.1289 25.9476C90.8513 26.9908 90.0165 27.4781 88.8336 27.4781C87.8589 27.4781 87.5821 27.0614 87.7198 26.6433C87.8589 25.9476 88.5546 25.8085 89.5977 25.8085C90.3633 25.7393 90.8506 25.7393 91.1282 25.7393V25.9476H91.1289ZM93.7731 27.8948H94.7478L95.3036 25.8078C95.6511 24.4165 96.834 23.9298 97.738 23.9298C98.7127 23.9298 99.1993 24.4857 98.921 25.4603L98.2946 27.8948H99.2692L99.8957 25.3911C100.312 24.069 99.4776 23.3733 98.0862 23.3733C97.1822 23.3733 96.4166 23.6516 95.6518 24.2773C95.721 23.9991 95.721 23.7208 95.7909 23.5125H94.8855C94.8163 23.8606 94.7478 24.2081 94.6771 24.4857L93.7731 27.8948ZM101.564 27.8948H102.538L103.094 25.8078C103.442 24.4165 104.625 23.9298 105.53 23.9298C106.503 23.9298 106.99 24.4857 106.713 25.4603L106.087 27.8948H107.061L107.686 25.3911C108.104 24.069 107.27 23.3733 105.878 23.3733C104.973 23.3733 104.209 23.6516 103.442 24.2773C103.513 23.9991 103.582 23.7208 103.582 23.5125H102.678C102.615 23.8384 102.546 24.1628 102.469 24.4857L101.564 27.8948ZM109.424 27.8948H110.399L111.582 23.5125H110.607L109.424 27.8948ZM110.886 22.4693H111.86L112.069 21.6345H111.094L110.886 22.4693ZM112.764 27.8948H113.739L114.295 25.8078C114.642 24.4165 115.825 23.9298 116.729 23.9298C117.635 23.9298 118.191 24.4857 117.912 25.4603L117.286 27.8948H118.26L118.887 25.3911C119.304 24.069 118.469 23.3733 117.077 23.3733C116.173 23.3733 115.408 23.6516 114.643 24.2773C114.712 23.9991 114.712 23.7208 114.782 23.5125H113.878C113.807 23.8606 113.739 24.2081 113.668 24.4857L112.764 27.8948ZM120.278 28.1737C120.069 29.2169 120.625 29.7042 122.573 29.7042C124.591 29.7042 125.773 29.0778 126.26 27.2698L127.025 24.348C127.096 23.9998 127.164 23.7907 127.304 23.5125H126.4C126.261 23.7208 126.192 23.9298 126.192 24.1389C125.704 23.5824 125.149 23.3733 124.243 23.3733C122.574 23.3733 121.182 24.2773 120.766 25.5994C120.418 26.9216 121.391 27.8256 123.061 27.8256C123.866 27.8161 124.646 27.548 125.287 27.0607H125.358L125.219 27.3382C124.94 28.3814 124.384 29.077 122.645 29.077C121.531 29.077 121.184 28.6604 121.323 28.173L120.278 28.1737ZM121.808 25.6002C122.087 24.6255 122.92 23.9306 124.173 23.9306C125.495 23.9306 125.981 24.6262 125.704 25.6002C125.425 26.5748 124.59 27.1998 123.338 27.1998C122.016 27.1991 121.529 26.5741 121.808 25.6002Z" fill="#7A808B"/>
<path fill-rule="evenodd" clip-rule="evenodd" d="M6.67764 48L46.9561 0H60.9386C69.2166 0 76.3823 5.42617 76.3823 14.6089C76.3823 23.8616 69.2173 29.7044 61.0777 29.7044H37.1477L42.9905 22.4695H61.0777C65.739 22.4695 69.2173 19.4778 69.1481 14.6082C69.0775 7.02583 61.0777 7.23417 61.0777 7.23417H50.2953L16.0687 48H6.67764ZM22.9561 22.4695L17.0434 29.7044H14.9564C6.19104 29.7044 0 24.2783 0 15.0955C0 5.84357 7.09576 0 15.3039 0H41.5999L35.6871 7.23489H15.3039C10.6433 7.23489 7.09504 10.2266 7.23417 15.0955C7.3041 22.6786 15.3039 22.4695 15.3039 22.4695H22.9561Z" fill="white"/>
<path fill-rule="evenodd" clip-rule="evenodd" d="M36.7293 36.0333H37.9116L38.5373 32.9724H39.9986L40.2076 32.2082H36.1029L35.8945 32.9724H37.4243L36.7293 36.0333ZM41.1808 34.0861C41.32 33.4597 41.7374 32.9032 42.5722 32.9032C43.4077 32.9032 43.616 33.459 43.4077 34.0861C43.2686 34.7818 42.9204 35.3376 42.0164 35.3376C41.1808 35.3376 41.0424 34.7818 41.1808 34.0861ZM39.9986 34.0861C39.7203 35.2691 40.2768 36.1731 41.8765 36.1731C43.4769 36.1731 44.3809 35.2691 44.59 34.0861C44.8682 32.9724 44.3809 32.0684 42.712 32.0684C41.1116 32.0684 40.2768 32.9724 39.9986 34.0861ZM47.0244 34.7818C46.8853 35.4775 46.9552 36.1731 48.5549 36.1731C49.3897 36.1731 50.5719 35.9648 50.781 34.851C50.9201 34.0861 50.4335 33.8764 49.7371 33.7387L49.2505 33.5995C48.8331 33.5289 48.4857 33.4604 48.5549 33.1814C48.6241 32.9731 48.8331 32.834 49.3205 32.834C49.6679 32.834 50.0161 32.9046 49.9469 33.2521H51.06C51.1292 32.4865 50.8509 32.0691 49.4596 32.0691C48.5556 32.0691 47.5817 32.4166 47.3726 33.3912C47.2335 34.0869 47.8592 34.3644 48.4857 34.4343L48.9723 34.5735C49.4589 34.6427 49.6679 34.7112 49.598 34.9901C49.598 35.1985 49.4589 35.4068 48.7632 35.4068C48.2759 35.4068 48.0675 35.2691 48.1367 34.7818H47.0244ZM56.2771 32.2082H55.164L54.7466 34.226C54.6075 34.9217 54.2593 35.3383 53.5636 35.3383C52.9379 35.3383 52.6596 35.0593 52.798 34.3637L53.2854 32.2082H52.1024L51.6158 34.4343C51.4067 35.6858 52.0332 36.1731 53.3546 36.1731C54.7459 36.1731 55.5807 35.6173 55.859 34.2952L56.2771 32.2082ZM61.0768 33.4597C61.2858 32.4166 60.3811 32.0684 59.4072 32.0684C58.0159 32.0684 56.9727 32.6948 56.6945 34.0861C56.347 35.546 57.1811 36.1731 58.3633 36.1731C59.4764 36.1731 60.5203 35.8941 60.7985 34.7119H59.6155C59.4764 35.1992 59.059 35.3383 58.6416 35.3383C57.876 35.3383 57.6677 34.7825 57.8068 34.0869C58.0152 33.3912 58.4326 32.9039 59.1981 32.9039C59.6155 32.9039 59.8938 33.043 59.8938 33.4597H61.0768ZM65.808 33.4597C66.0163 32.4166 65.1116 32.0684 64.1384 32.0684C62.7471 32.0684 61.7732 32.6948 61.425 34.0861C61.1467 35.546 61.9123 36.1731 63.0946 36.1731C64.2768 36.1731 65.2508 35.8941 65.529 34.7119H64.3468C64.2076 35.1992 63.7902 35.3383 63.3728 35.3383C62.6072 35.3383 62.4688 34.7825 62.6072 34.0869C62.7464 33.3912 63.2337 32.9039 63.9286 32.9039C64.346 32.9039 64.6942 33.043 64.6243 33.4597H65.808ZM66.0156 36.0333H69.4247L69.5639 35.2691H67.3377L67.4769 34.5028H69.5639L69.7722 33.668H67.6852L67.8251 32.9724H69.9805L70.1903 32.2082H66.8504L66.0156 36.0333ZM70.3987 36.0333H73.8078L73.9469 35.2691H71.7208L71.8606 34.5028H73.9469L74.0846 33.668H71.9983L72.2081 32.9724H74.3636L74.5719 32.2082H71.2335L70.3987 36.0333ZM74.7817 36.0333H76.8687C77.6336 36.0333 78.1894 35.8941 78.6075 35.6166C79.0796 35.2288 79.3997 34.6868 79.5115 34.0861C79.6506 33.3905 79.5115 32.8332 79.0948 32.485C78.7473 32.2767 78.26 32.2075 77.7727 32.2075H75.6172L74.7817 36.0333ZM76.5897 32.9032H77.2854C78.0509 32.9032 78.5383 33.1807 78.3991 34.0861C78.1202 35.1293 77.4937 35.2691 76.5897 35.2691H76.0339L76.5897 32.9032ZM81.8075 36.0333H82.9199L83.7554 32.2082H82.643L81.8075 36.0333ZM83.8253 36.0333H84.7985L85.425 33.2513L86.5373 36.0333H88.0678L88.9026 32.2082H87.8594L87.3029 34.9901L86.1206 32.2082H84.6587L83.8253 36.0333ZM91.0595 36.0333H93.2856C94.5371 36.0333 95.0244 35.4775 95.1635 34.9901C95.2327 34.5028 94.9552 34.0861 94.3287 34.0155C94.8845 33.9463 95.3034 33.5988 95.3719 33.1115C95.4425 32.6242 95.1635 32.2075 94.1204 32.2075H91.8236L91.0595 36.0333ZM92.4508 34.4343H93.4939C93.7729 34.4343 94.0497 34.5735 93.9813 34.9217C93.9128 35.2698 93.6338 35.3383 93.2856 35.3383H92.3109L92.4508 34.4343ZM92.7983 32.9032H93.5631C94.0505 32.9032 94.2602 32.9724 94.1896 33.3198C94.1204 33.5988 93.7729 33.738 93.2856 33.738H92.5899L92.7983 32.9032ZM100.728 32.2082H99.6158L99.1991 34.226C99.0599 34.9217 98.7118 35.3383 98.0161 35.3383C97.3896 35.3383 97.1107 35.0593 97.2505 34.3637L97.6672 32.2082H96.5548L96.0675 34.4343C95.8592 35.6858 96.4856 36.1731 97.8063 36.1731C99.1991 36.1731 100.032 35.6173 100.311 34.2952L100.728 32.2082ZM101.007 34.7818C100.868 35.4775 100.938 36.1731 102.538 36.1731C103.372 36.1731 104.485 35.9648 104.764 34.851C104.903 34.0861 104.347 33.8764 103.721 33.7387L103.233 33.5995C102.817 33.5289 102.468 33.4604 102.538 33.1814C102.538 32.9731 102.817 32.834 103.303 32.834C103.651 32.834 103.928 32.9046 103.928 33.2521H104.971C105.11 32.4865 104.832 32.0691 103.372 32.0691C102.537 32.0691 101.562 32.4166 101.354 33.3912C101.215 34.0869 101.841 34.3644 102.468 34.4343L102.955 34.5735C103.372 34.6427 103.651 34.7112 103.58 34.9901C103.58 35.1985 103.372 35.4068 102.745 35.4068C102.189 35.4068 101.98 35.2691 102.12 34.7818H101.007ZM105.18 36.0333H106.365L107.129 32.2082H106.017L105.18 36.0333ZM107.198 36.0333H108.241L108.799 33.2513L109.981 36.0333H111.442L112.277 32.2082H111.302L110.677 34.9901L109.495 32.2082H108.033L107.198 36.0333ZM112.485 36.0333H115.825L116.033 35.2691H113.738L113.946 34.5028H115.964L116.173 33.668H114.086L114.225 32.9724H116.45L116.589 32.2082H113.251L112.485 36.0333ZM116.868 34.7818C116.729 35.4775 116.798 36.1731 118.399 36.1731C119.233 36.1731 120.416 35.9648 120.625 34.851C120.764 34.0861 120.277 33.8764 119.582 33.7387L119.094 33.5995C118.678 33.5289 118.329 33.4604 118.399 33.1814C118.468 32.9731 118.678 32.834 119.164 32.834C119.511 32.834 119.859 32.9046 119.79 33.2521H120.904C120.973 32.4865 120.694 32.0691 119.303 32.0691C118.399 32.0691 117.425 32.4166 117.216 33.3912C117.077 34.0869 117.703 34.3644 118.329 34.4343L118.815 34.5735C119.233 34.6427 119.511 34.7112 119.442 34.9901C119.442 35.1985 119.303 35.4068 118.607 35.4068C118.051 35.4068 117.911 35.2691 117.982 34.7818H116.868ZM121.251 34.7818C121.041 35.4775 121.181 36.1731 122.782 36.1731C123.615 36.1731 124.729 35.9648 125.008 34.851C125.147 34.0861 124.59 33.8764 123.963 33.7387L123.407 33.5995C123.06 33.5289 122.712 33.4604 122.782 33.1814C122.782 32.9731 123.06 32.834 123.547 32.834C123.895 32.834 124.174 32.9046 124.174 33.2521H125.217C125.356 32.4865 125.078 32.0691 123.616 32.0691C122.782 32.0691 121.808 32.4166 121.599 33.3912C121.46 34.0869 122.087 34.3644 122.712 34.4343L123.199 34.5735C123.616 34.6427 123.895 34.7112 123.826 34.9901C123.826 35.1985 123.616 35.4068 122.991 35.4068C122.435 35.4068 122.225 35.2691 122.364 34.7818H121.251Z" fill="white"/>
<path fill-rule="evenodd" clip-rule="evenodd" d="M24.2075 13.3592C24.4858 12.107 24.3466 11.5504 23.7901 10.9939C22.9553 10.2983 21.1466 9.88158 18.4339 9.88158C12.3812 9.88158 10.6425 12.4552 10.2251 14.5422C9.5986 17.3248 11.0599 19.2027 16.486 19.2027C18.8513 19.2027 21.0774 18.7853 22.4687 17.8114C23.4426 17.1157 23.7209 16.3509 23.9293 15.5853H19.2687C18.9904 16.6984 18.1556 17.2549 16.7643 17.2549C15.0248 17.2549 14.6773 16.0027 14.9556 14.5414C15.303 13.0809 16.1385 11.828 17.9466 11.828C19.1987 11.828 19.6161 12.3153 19.5469 13.3584L24.2075 13.3592ZM38.7465 14.5414C39.303 11.8979 37.7726 9.88086 32.4163 9.88086C29.6337 9.88086 28.2424 10.2283 27.0601 10.8548C25.6688 11.5504 24.5557 12.8026 24.2075 14.5422C23.651 17.1857 25.1814 19.2027 30.5377 19.2027C33.3203 19.2027 35.3374 18.5763 36.6595 17.6723C37.7726 16.9766 38.4682 15.8628 38.7465 14.5414ZM34.0859 14.5414C33.7385 16.3502 32.4163 17.185 30.9551 17.185C29.4246 17.185 28.5206 16.3502 28.8681 14.5414C29.2156 12.7327 30.5377 11.8979 31.9982 11.8979C33.5294 11.8979 34.4334 12.7334 34.0859 14.5414ZM38.6074 18.9238H43.1987L43.8944 15.7237H45.2857C46.8162 15.7237 47.0252 15.8628 46.9553 16.9759V18.9238H51.5467V16.002C51.5467 15.0972 50.7811 14.7498 49.738 14.7498V14.6106C51.1293 14.4016 52.2431 13.7066 52.5206 12.5237C52.938 10.5758 51.1992 10.0892 48.2075 10.0892H40.486L38.6074 18.9238ZM44.66 11.8979H46.3289C47.4419 11.8979 48.1376 12.1762 47.9292 12.9411C47.7901 13.7758 46.9553 13.9849 45.9814 13.9849H44.2426L44.66 11.8979ZM52.2424 18.9238H56.8337L57.3903 16.0712H61.0077C63.3038 16.0712 65.2516 15.3063 65.669 13.1501C66.1556 10.8541 64.486 10.0892 61.8425 10.0892H54.0511L52.2424 18.9238ZM58.2943 11.9678H59.6856C61.007 11.9678 61.3545 12.316 61.216 13.0809C61.007 13.9157 60.3813 14.2632 58.7117 14.2632H57.8077L58.2943 11.9678ZM79.9989 14.5414C80.5547 11.8979 79.0243 9.88086 73.6688 9.88086C70.8868 9.88086 69.4249 10.2283 68.3125 10.8548C66.8513 11.5504 65.8081 12.8026 65.4592 14.5422C64.9034 17.1857 66.4339 19.2027 71.7209 19.2027C74.5721 19.2027 76.5206 18.5763 77.9119 17.6723C78.9551 16.9766 79.7214 15.8628 79.9989 14.5414ZM75.3384 14.5414C74.9202 16.3502 73.6688 17.185 72.1383 17.185C70.6771 17.185 69.7039 16.3502 70.1205 14.5414C70.468 12.7327 71.7216 11.8979 73.2521 11.8979C74.7825 11.8979 75.6858 12.7334 75.3384 14.5414ZM79.8591 18.9238H84.4505L85.0769 15.7237H86.4682C88.0679 15.7237 88.207 15.8628 88.207 16.9759V18.9238H92.7292L92.7984 16.002C92.7984 15.0972 91.9636 14.7498 90.9205 14.7498L90.9911 14.6106C92.3825 14.4016 93.4948 13.7066 93.7731 12.5237C94.1205 10.5758 92.3817 10.0892 89.4592 10.0892H81.6685L79.8591 18.9238ZM85.9124 11.8979H87.582C88.6944 11.8979 89.3208 12.1762 89.1817 12.9411C88.9733 13.7758 88.207 13.9849 87.2346 13.9849H85.4943L85.9124 11.8979Z" fill="#7A808B"/>
<path fill-rule="evenodd" clip-rule="evenodd" d="M99.0614 15.5121L101.496 12.4512L102.539 15.5121H99.0614ZM91.8965 18.9205H96.4172L97.531 17.46H103.165L103.653 18.9205H108.73L105.044 10.0859H99.339L91.8965 18.9205ZM109.983 18.9205H114.575L115.966 12.2429H119.512L120 10.0867H108.243L107.826 12.2429H111.374L109.983 18.9205ZM118.469 18.9205H128.974L129.391 17.1125H123.34L123.687 15.4429H129.253L129.67 13.5642H124.035L124.383 11.9646H130.366L130.782 10.0867H120.347L118.469 18.9205Z" fill="#7A808B"/>
</svg>
