<svg width="121" height="28" viewBox="0 0 121 28" fill="none" xmlns="http://www.w3.org/2000/svg">
<path fill-rule="evenodd" clip-rule="evenodd" d="M9.83709 0L11.2483 3.14066H4.65774V7.33682H13.2237L14.917 10.4775H4.65774V15.2043H11.8132L8.9333 18.3437H0V0H9.83709Z" fill="#7A808B"/>
<path fill-rule="evenodd" clip-rule="evenodd" d="M19.0249 4.87085L21.1759 8.61254L25.3979 4.87085H30.5514L23.6458 11.7093L27.791 18.4096H22.6071L20.6033 14.6247L8.1142 27.7238H2.92969L18.3012 11.5595L14.4491 4.87085H19.0249Z" fill="white"/>
<path fill-rule="evenodd" clip-rule="evenodd" d="M39.7382 9.7835C39.0875 7.62474 37.8809 7.59828 36.5517 7.54921C35.0656 7.47368 34.014 8.25223 33.5498 9.55756C33.3956 9.95845 32.8991 11.8913 33.4259 13.5232C34.1063 15.6581 35.2515 15.9583 36.6124 15.9835C37.6957 16.0338 39.0578 15.8828 39.7382 13.5749H43.8995C43.9305 15.4315 41.8498 17.2449 41.2282 17.6723C39.9551 18.527 39.0262 18.8311 36.3038 18.9079C31.0677 19.0564 29.2052 15.5832 28.894 13.5994C28.7081 12.3955 28.5525 10.0598 29.4841 8.32776C31.4705 4.68227 33.7351 4.63191 36.5194 4.4815C38.1901 4.40532 39.9868 4.73262 40.948 5.23487C42.8421 6.19095 43.8982 8.67895 43.8982 9.7835H39.7382ZM50.0498 10.2664C50.0182 8.97591 51.0123 7.30842 53.6804 7.40848C56.2859 7.50919 56.721 9.22897 56.721 10.2664H50.0498ZM61.2219 12.6298C61.3155 10.9952 61.3155 9.15343 59.7946 7.15735C58.7391 5.80619 56.6894 4.48085 53.4009 4.48085C51.4778 4.48085 46.9169 4.72939 45.831 10.063C45.6135 11.1205 45.6135 12.1753 45.6755 12.9803C45.7691 13.8086 45.9234 14.4109 45.9853 14.6356C46.4198 15.8156 47.4437 17.0487 48.9956 17.8769C50.1744 18.4812 51.7263 18.9085 53.3693 18.9085C56.3169 18.9085 60.2904 17.1242 61.0353 14.4864H56.7527C56.5345 15.1901 55.479 15.8156 54.2388 16.0171C52.9981 16.1914 51.5694 15.9164 50.5772 14.8118C49.9568 14.1094 49.9568 13.3573 50.0498 12.6298H61.2219ZM63.0701 0H67.4103V18.3437H63.0701V0ZM69.8389 0H74.1783V18.3437H69.8389V0ZM80.847 10.2664C80.8154 8.97591 81.8089 7.30842 84.477 7.40848C87.0831 7.50919 87.517 9.22897 87.517 10.2664H80.847ZM92.0185 12.6298C92.1121 10.9952 92.1121 9.15343 90.5911 7.15735C89.5356 5.80619 87.4866 4.48085 84.1975 4.48085C82.2744 4.48085 77.7141 4.72939 76.627 10.063C76.4101 11.1205 76.4101 12.1753 76.472 12.9803C76.5656 13.8086 76.7206 14.4109 76.7819 14.6356C77.217 15.8156 78.2396 17.0487 79.7915 17.8769C80.9703 18.4812 82.5216 18.9085 84.1652 18.9085C87.1141 18.9085 91.0876 17.1242 91.8326 14.4864H87.548C87.3298 15.1901 86.2756 15.8156 85.0335 16.0171C83.7927 16.1914 82.3667 15.9164 81.3731 14.8118C80.7528 14.1094 80.7528 13.3573 80.8464 12.6298H92.0185ZM94.3825 4.7281H98.7214V6.77647H98.7846C99.6232 5.34333 101.237 4.48925 102.92 4.4815C106.772 4.4815 109.376 5.7836 109.376 9.19798V18.3443H105.037V10.2309C105.037 9.0211 104.849 7.58472 101.896 7.58472C99.2494 7.58472 98.7214 8.76932 98.7214 9.87775V18.3437H94.3825V4.7281ZM112.709 5.00957V1.2737H117.048V5.00957H119.47V7.33682H117.048V14.9887C117.048 15.6672 117.172 16.1662 117.763 16.1662L119.408 16.1939V18.5806C118.755 18.7568 118.042 18.8834 117.328 18.9085C116.614 18.9337 115.932 18.8834 115.28 18.7323C113.979 18.4044 112.956 17.6264 112.709 16.1939V7.33682H110.567V5.00957H112.709ZM18.6922 27.8457H17.9434L18.8588 20.3765H19.6083L19.2745 23.0937C19.6651 22.7296 20.1764 22.3926 20.6857 22.3926C21.5985 22.3926 22.5527 23.2183 22.2977 25.3015C22.0478 27.3377 20.747 28 20.0272 28C19.4417 28 19.0679 27.6824 18.7665 27.2421L18.6922 27.8457ZM18.8743 26.357C19.0311 26.8096 19.474 27.3467 20.0014 27.3467C20.5198 27.3467 21.3216 26.8386 21.512 25.2828C21.6095 24.4875 21.5656 23.0459 20.5192 23.0459C19.9433 23.0459 19.463 23.4378 19.1764 23.9007L18.8743 26.357ZM28.3931 22.5463H29.1406L28.4919 27.8457H27.7424L27.8101 27.2983C27.3253 27.6527 26.8696 27.9994 26.2647 27.9994C25.5158 27.9994 24.9613 27.5855 25.1304 26.204L25.5791 22.5463H26.3286L25.9038 26.0123C25.836 26.5694 25.8315 27.3841 26.4357 27.3841C26.8967 27.3841 27.5571 26.9342 27.8986 26.5772L28.3931 22.5463ZM35.0256 23.7264C34.7809 23.2848 34.4575 23.0266 33.9023 23.0266C33.4123 23.0266 32.9204 23.2764 32.8546 23.8148C32.6958 25.1098 35.5588 24.5437 35.34 26.328C35.2128 27.3654 34.3962 28 33.3975 28C32.5428 28 31.8985 27.6256 31.5557 26.8864L32.1967 26.5107C32.4188 27.0594 32.8404 27.3654 33.4743 27.3654C34.0218 27.3654 34.5479 27.0691 34.6221 26.4629C34.7848 25.1292 31.9146 25.7631 32.1477 23.8606C32.2594 22.9504 33.076 22.3933 33.9501 22.3933C34.6893 22.3933 35.2658 22.6999 35.604 23.3151L35.0256 23.7264ZM38.859 27.8457H38.1101L38.7602 22.5463H39.509L38.859 27.8457ZM39.6743 21.2022H38.9254L39.0262 20.3765H39.7763L39.6743 21.2022ZM42.6988 27.8457H41.9493L42.5993 22.5463H43.3488L43.2804 23.0937C43.7665 22.7393 44.2216 22.3926 44.8272 22.3926C45.5747 22.3926 46.1306 22.8064 45.9601 24.188L45.5121 27.8457H44.7626L45.1874 24.381C45.2558 23.8226 45.4508 23.0079 44.6555 23.0079C44.1945 23.0079 43.5354 23.4565 43.1926 23.8148L42.6988 27.8457ZM49.5456 25.3216C49.3597 26.8386 49.9381 27.3654 50.7057 27.3654C51.2622 27.3654 51.7883 26.9142 52.1137 26.4539L52.6075 26.8096C52.237 27.4919 51.4642 28 50.5514 28C49.37 28 48.5295 27.1827 48.7735 25.1957C49.0175 23.2099 50.0575 22.3926 51.2389 22.3926C52.7657 22.3926 53.0065 24.024 52.7418 25.3216H49.5456ZM52.0317 24.6876C52.1356 24.0053 51.8903 23.0272 51.1033 23.0272C50.2577 23.0272 49.7425 23.9388 49.6418 24.6876H52.0317ZM58.8798 23.7264C58.6364 23.2848 58.313 23.0266 57.7565 23.0266C57.2659 23.0266 56.7746 23.2764 56.7094 23.8148C56.55 25.1098 59.413 24.5437 59.1935 26.328C59.0664 27.3654 58.2497 28 57.2523 28C56.3976 28 55.752 27.6256 55.4105 26.8864L56.0509 26.5107C56.2724 27.0594 56.6959 27.3654 57.3292 27.3654C57.8766 27.3654 58.404 27.0691 58.4757 26.4629C58.639 25.1292 55.7688 25.7631 56.0019 23.8606C56.1136 22.9504 56.9308 22.3933 57.8036 22.3933C58.5441 22.3933 59.1206 22.6999 59.4576 23.3151L58.8798 23.7264ZM65.4077 23.7264C65.1644 23.2848 64.8403 23.0266 64.2832 23.0266C63.7938 23.0266 63.3019 23.2764 63.2367 23.8148C63.0779 25.1098 65.941 24.5437 65.7221 26.328C65.5949 27.3654 64.7777 28 63.7803 28C62.9268 28 62.28 27.6256 61.9391 26.8864L62.5795 26.5107C62.8003 27.0594 63.2225 27.3654 63.8571 27.3654C64.4058 27.3654 64.93 27.0691 65.0043 26.4629C65.1682 25.1292 62.2961 25.7631 62.5305 23.8606C62.6415 22.9504 63.4594 22.3933 64.3322 22.3933C65.072 22.3933 65.6485 22.6999 65.9855 23.3151L65.4077 23.7264ZM76.6186 23.7264C76.3752 23.2848 76.0524 23.0266 75.4953 23.0266C75.0047 23.0266 74.5134 23.2764 74.4488 23.8148C74.2887 25.1098 77.1525 24.5437 76.9343 26.328C76.8058 27.3654 75.9898 28 74.9911 28C74.1364 28 73.4908 27.6256 73.15 26.8864L73.7904 26.5107C74.0112 27.0594 74.4359 27.3654 75.0686 27.3654C75.616 27.3654 76.1428 27.0691 76.2145 26.4629C76.3797 25.1292 73.5089 25.7631 73.7407 23.8606C73.853 22.9504 74.6696 22.3933 75.5424 22.3933C76.2822 22.3933 76.86 22.6999 77.1964 23.3151L76.6186 23.7264ZM79.8748 25.1957C80.1182 23.2099 81.1595 22.3926 82.3396 22.3926C83.5196 22.3926 84.3608 23.2099 84.1187 25.1957C83.8741 27.1827 82.8341 28 81.6527 28C80.4713 28 79.6308 27.1827 79.8748 25.1957ZM83.3692 25.1957C83.4803 24.2932 83.4144 23.0272 82.2634 23.0272C81.1111 23.0272 80.734 24.2932 80.6243 25.1957C80.5133 26.0995 80.5791 27.3654 81.7301 27.3654C82.8825 27.3654 83.2582 26.0995 83.3692 25.1957ZM89.3368 23.1809H88.3581L87.7868 27.8464H87.038L87.6106 23.1809H86.8036L86.8804 22.5469H87.6861L87.8062 21.5876C87.9159 20.6838 88.4821 20.2248 89.3749 20.2248L89.7609 20.2816L89.6828 20.9259C89.5683 20.8825 89.4471 20.8591 89.3245 20.8568C88.7584 20.8568 88.6099 21.1467 88.5557 21.5766L88.4369 22.5476H89.4156L89.3368 23.1809ZM93.1088 22.5463H94.3089L94.2321 23.1802H93.032L92.6247 26.51C92.5601 27.0284 92.5085 27.3648 93.1237 27.3648C93.3341 27.3648 93.5388 27.346 93.7266 27.2976L93.6608 27.8451C93.4097 27.9309 93.1514 27.9987 92.8932 27.9987C91.6247 27.9987 91.7977 27.144 91.9158 26.1743L92.2825 23.1796H91.4769L91.5537 22.5456H92.3606L92.5711 20.8272H93.3199L93.1088 22.5463ZM100.563 27.8457H99.8233L99.3792 23.6399H99.3605L97.855 27.8457H97.0958L96.3838 22.5463H97.1139L97.6026 26.8574H97.622L99.1674 22.5463H99.8976L100.339 26.8574H100.358L101.875 22.5463H102.613L100.563 27.8457ZM107.491 27.8457L107.498 27.1737C107.014 27.5959 106.485 27.9994 105.861 27.9994C105.045 27.9994 104.475 27.317 104.577 26.4836C104.765 24.9639 106.398 24.6392 107.608 24.3222L107.855 24.2544L107.891 23.9568C107.966 23.3513 107.595 23.0266 106.998 23.0266C106.413 23.0266 105.962 23.4113 105.6 23.86L105.12 23.4681C105.639 22.8342 106.269 22.3926 107.076 22.3926C107.796 22.3926 108.779 22.8342 108.631 24.0433L108.308 26.6747C108.269 27.0691 108.2 27.4726 108.309 27.8457H107.491ZM107.471 24.9575C106.735 25.1666 105.405 25.4565 105.286 26.4061C105.233 26.8464 105.524 27.2899 105.977 27.2899C106.571 27.2899 107.169 26.8761 107.589 26.4248L107.779 24.8703L107.471 24.9575ZM112.533 23.6889H112.551C112.927 23.055 113.382 22.4708 114.169 22.4708H114.458L114.373 23.1505C113.412 23.0169 112.773 24.0737 112.391 24.8413L112.023 27.8457H111.274L111.924 22.5463H112.673L112.533 23.6889ZM117.487 25.3216C117.3 26.8386 117.878 27.3654 118.647 27.3654C119.204 27.3654 119.73 26.9142 120.055 26.4539L120.55 26.8096C120.179 27.4919 119.405 28 118.492 28C117.313 28 116.47 27.1827 116.715 25.1957C116.959 23.2099 118 22.3926 119.18 22.3926C120.705 22.3926 120.947 24.024 120.683 25.3216H117.487ZM119.973 24.6876C120.077 24.0053 119.832 23.0272 119.044 23.0272C118.199 23.0272 117.685 23.9388 117.584 24.6876H119.973Z" fill="#7A808B"/>
</svg>
