<svg width="113" height="34" viewBox="0 0 113 34" fill="none" xmlns="http://www.w3.org/2000/svg">
<g clip-path="url(#clip0_28322_2065)">
<path fill-rule="evenodd" clip-rule="evenodd" d="M18.7421 17.2742V6.24561H3.60156L6.00512 10.4084H10.8136H14.578V16.9293V32.2596L18.7421 28.0968V21.4396H27.069V28.0968L31.2331 32.2476V16.9293V10.4084H34.9975H39.8059L42.2095 6.24561H27.069V17.2742H18.7421Z" fill="white"/>
<path fill-rule="evenodd" clip-rule="evenodd" d="M2.40355 4.16278H20.8272V15.1927H24.9914V4.16278H43.415L45.8199 0H0L2.40355 4.16278Z" fill="white"/>
<path d="M53.4946 27.5053L51.9289 30.3178C50.1227 29.4053 48.6789 28.6678 47.5977 28.1053C48.9852 26.8115 49.7571 25.9021 49.9133 25.3771C49.9383 25.2834 49.9508 25.174 49.9508 25.049C49.9508 24.4553 49.6914 23.5865 49.1727 22.4428C48.6539 21.299 48.3071 20.5146 48.1321 20.0896C47.9633 19.6584 47.8789 19.3271 47.8789 19.0959C47.8789 18.8646 47.9164 18.6646 47.9914 18.4959C48.1664 18.1084 48.5789 17.7553 49.2289 17.4365C49.8789 17.1115 50.8664 16.7053 52.1914 16.2178C52.3789 16.6553 52.5164 16.9834 52.6039 17.2021C51.7664 17.4771 51.3071 17.8209 51.2258 18.2334C51.2071 18.3209 51.1977 18.4146 51.1977 18.5146C51.1977 18.8709 51.3164 19.2928 51.5539 19.7803C53.7602 17.6178 54.9664 16.4303 55.1727 16.2178C55.7289 16.5865 56.2008 16.9396 56.5883 17.2771C56.9821 17.6084 57.4539 17.9115 58.0039 18.1865L59.8789 16.2178C60.6289 16.624 61.3821 17.0303 62.1383 17.4365C62.8946 17.8365 63.6821 18.1803 64.5008 18.4678C63.4946 19.1553 62.9633 20.3209 62.9071 21.9646L62.8039 25.4521C62.8039 25.5209 62.8039 25.5896 62.8039 25.6584C62.8039 26.6709 63.1633 27.2865 63.8821 27.5053L62.3914 30.3178C61.4852 29.9865 60.8571 29.474 60.5071 28.7803C60.1633 28.0803 59.9914 27.1146 59.9914 25.8834C59.9914 25.7959 59.9914 25.7084 59.9914 25.6209L60.0102 23.2584C60.0102 22.6896 60.1133 22.1928 60.3196 21.7678C60.5258 21.3428 60.7946 20.9146 61.1258 20.4834C59.8696 19.5646 58.9289 19.0678 58.3039 18.9928C58.0664 19.349 57.9446 19.7709 57.9383 20.2584C57.9383 20.7459 57.9258 21.3146 57.9008 21.9646L57.7977 25.4521C57.7977 25.5209 57.7977 25.5896 57.7977 25.6584C57.7977 26.7896 58.0946 27.4521 58.6883 27.6459L56.4946 30.3178C56.1571 29.8928 55.7758 29.4896 55.3508 29.1084C54.9258 28.7271 54.5258 28.3771 54.1508 28.0584C54.3383 27.8396 54.5227 27.4959 54.7039 27.0271C54.8852 26.5584 54.9789 26.0896 54.9852 25.6209L55.3133 19.8178C54.7696 19.4115 54.3477 19.2084 54.0477 19.2084C53.9727 19.2084 53.9039 19.2209 53.8414 19.2459C53.5477 19.3771 52.9508 19.8771 52.0508 20.7459L52.1727 20.9615C52.6414 21.8365 52.8758 22.5615 52.8758 23.1365C52.8758 23.2928 52.8571 23.4396 52.8196 23.5771C52.6508 24.2084 52.0571 25.1865 51.0383 26.5115C51.6258 26.9365 52.4446 27.2678 53.4946 27.5053ZM76.2383 17.999L74.6446 19.8553C73.6696 19.1803 72.7164 18.7771 71.7852 18.6459C71.7289 19.1834 71.6914 19.7959 71.6727 20.4834H75.5446V22.6959H71.7196C71.7383 23.4084 71.8102 24.2365 71.9352 25.1803L69.7789 25.9678C70.9602 27.0303 72.6039 27.5615 74.7102 27.5615C74.9477 27.5615 75.1914 27.5553 75.4414 27.5428L73.3883 30.3178C70.7321 30.0303 68.6883 29.0928 67.2571 27.5053C65.8321 25.9178 65.1196 23.5771 65.1196 20.4834L72.3946 16.2178C73.2758 16.824 74.5571 17.4178 76.2383 17.999ZM69.0571 25.199L69.7508 24.9646C69.5633 23.5959 69.4696 22.4115 69.4696 21.4115C69.4696 20.4115 69.4852 19.6115 69.5164 19.0115C69.1414 19.199 68.8352 19.4178 68.5977 19.6678C68.3664 19.9178 68.1977 20.1615 68.0914 20.399C67.9914 20.6303 67.9414 20.9615 67.9414 21.3928C67.9414 21.8178 67.9477 22.1396 67.9602 22.3584C68.0039 23.3459 68.3696 24.2928 69.0571 25.199ZM78.3852 25.9021C78.4352 25.3209 78.4602 24.7678 78.4602 24.2428C78.4602 23.7178 78.4383 23.2209 78.3946 22.7521C78.3071 21.7771 77.9789 21.0084 77.4102 20.4459C78.8727 20.3771 80.2758 20.0771 81.6196 19.5459C80.2571 18.8646 78.6258 18.524 76.7258 18.524C76.6258 18.524 76.5258 18.524 76.4258 18.524L79.5102 16.2178C82.3914 16.6615 84.5289 17.6834 85.9227 19.2834C87.3227 20.8834 88.0758 22.9896 88.1821 25.6021L82.6602 30.3178C80.8789 29.4178 78.7664 28.6709 76.3227 28.0771L78.3852 25.9021ZM82.0602 19.7896C81.8664 20.1459 81.7133 20.4896 81.6008 20.8209C81.4883 21.1459 81.4321 21.4584 81.4321 21.7584C81.4321 22.0584 81.4352 22.4396 81.4414 22.9021C81.4539 23.3584 81.4758 23.7896 81.5071 24.1959C81.5383 24.6021 81.6477 25.0803 81.8352 25.6303C81.7038 25.6178 81.5758 25.6115 81.4508 25.6115C80.8196 25.6115 80.2196 25.7396 79.6508 25.9959C81.1508 27.0896 82.3164 27.6365 83.1477 27.6365C83.4914 27.6365 83.7789 27.5396 84.0102 27.3459C84.7164 26.7521 85.0696 25.8959 85.0696 24.7771C85.0696 23.7834 84.8102 22.8521 84.2914 21.9834C83.7727 21.1084 83.0289 20.3771 82.0602 19.7896ZM98.0914 16.3959C97.5102 17.4209 97.1196 18.1209 96.9196 18.4959C97.0571 20.0646 97.1852 21.3615 97.3039 22.3865C97.4227 23.4115 97.4821 24.1053 97.4821 24.4678C97.4821 25.524 97.2789 26.349 96.8727 26.9428C96.2914 27.349 95.7008 27.849 95.1008 28.4428C94.5071 29.0365 93.9071 29.6615 93.3008 30.3178C92.2071 29.8053 90.9352 29.2021 89.4852 28.5084C88.9602 28.2959 88.6977 27.9178 88.6977 27.374C88.6977 27.2303 88.7227 27.0084 88.7727 26.7084C88.8288 26.4021 88.8946 26.0303 88.9696 25.5928C89.0508 25.149 89.1289 24.7053 89.2039 24.2615C89.8852 25.1553 90.6133 25.8678 91.3883 26.399C92.1633 26.924 92.9633 27.3459 93.7883 27.6646C93.9008 27.7084 94.0383 27.7303 94.2008 27.7303C94.3696 27.7303 94.5446 27.6209 94.7258 27.4021C94.9133 27.1834 95.0071 26.8928 95.0071 26.5303C95.0071 26.1615 94.9758 25.7021 94.9133 25.1521C94.8571 24.6021 94.7571 23.9021 94.6133 23.0521C94.4696 22.2021 94.3352 21.3459 94.2102 20.4834C94.7038 20.0896 95.2227 19.599 95.7664 19.0115C95.3414 19.0553 94.8227 19.0771 94.2102 19.0771C93.6039 19.0771 92.9977 19.0178 92.3914 18.899C91.7914 18.774 91.3102 18.7115 90.9477 18.7115C90.2289 18.7115 89.5977 18.8771 89.0539 19.2084C89.3539 18.0521 89.8039 16.9709 90.4039 15.9646C92.2352 16.2646 94.3102 16.4146 96.6289 16.4146C97.1039 16.4146 97.5914 16.4084 98.0914 16.3959ZM104.926 19.1146C104.289 18.9521 103.67 18.8709 103.07 18.8709C101.595 18.8709 100.251 19.3709 99.0383 20.3709C99.0446 20.3084 99.0227 20.1459 98.9727 19.8834C98.9289 19.6146 98.9133 19.449 98.9258 19.3865C100.57 18.0365 102.357 16.9803 104.289 16.2178C106.814 16.9678 109.135 17.999 111.254 19.3115C111.117 19.5365 110.945 19.7334 110.739 19.9021C110.532 20.0709 110.36 20.2646 110.223 20.4834C110.179 20.6021 110.157 20.7709 110.157 20.9896V21.4959L110.223 26.5209C110.242 26.9271 110.317 27.1803 110.448 27.2803L111.395 28.0584L109.745 30.3178L107.598 28.499C107.735 27.5178 107.804 26.2334 107.804 24.6459H104.298C104.06 26.8584 103.382 28.7334 102.264 30.2709C101.151 31.8084 100.148 33.0115 99.2539 33.8803C98.9914 33.6928 98.7539 33.5365 98.5414 33.4115C99.2664 32.6553 99.8071 31.7896 100.164 30.8146C100.526 29.8396 100.835 28.8115 101.092 27.7303C101.348 26.6428 101.476 25.5803 101.476 24.5428C101.476 23.499 101.248 22.5209 100.792 21.6084C102.31 20.8521 103.689 20.0209 104.926 19.1146ZM107.767 22.4428C107.754 21.699 107.748 21.2428 107.748 21.074C107.748 20.899 107.751 20.7021 107.757 20.4834C107.139 20.0459 106.489 19.6865 105.807 19.4053C105.364 19.7365 105.026 20.1178 104.795 20.549C104.564 20.974 104.426 21.6053 104.382 22.4428H107.767Z" fill="#7A808B"/>
<path d="M72.2949 11.6084V4.47401H74.8485C75.6811 4.47401 76.3139 4.67187 76.7469 5.06761C77.1837 5.45961 77.4021 5.97668 77.4021 6.61881C77.4021 7.25348 77.1837 7.76681 76.7469 8.15881C76.3139 8.55082 75.6811 8.74682 74.8485 8.74682H73.3589V11.6084H72.2949ZM76.2317 11.6084L74.2549 8.32682H75.4029L77.6149 11.6084H76.2317ZM73.3589 8.01881H74.7533C75.2611 8.01881 75.6475 7.89747 75.9125 7.65481C76.1776 7.40841 76.3101 7.09108 76.3101 6.70281C76.3101 6.30334 76.1851 5.98601 75.9349 5.75081C75.6885 5.51188 75.3264 5.39241 74.8485 5.39241H73.3589V8.01881ZM83.1475 11.754C82.5389 11.754 81.9976 11.6159 81.5235 11.3396C81.0493 11.0633 80.676 10.6508 80.4035 10.102C80.1347 9.55322 80.0003 8.86814 80.0003 8.04681C80.0003 7.21054 80.1347 6.51988 80.4035 5.97481C80.676 5.42601 81.0493 5.01722 81.5235 4.74841C81.9976 4.47962 82.5389 4.34521 83.1475 4.34521C83.7597 4.34521 84.3029 4.48147 84.7771 4.75401C85.2549 5.02654 85.6283 5.43908 85.8971 5.99161C86.1696 6.54041 86.3059 7.22547 86.3059 8.04681C86.3059 8.87561 86.1696 9.56629 85.8971 10.1188C85.6283 10.6676 85.2549 11.0783 84.7771 11.3508C84.3029 11.6196 83.7597 11.754 83.1475 11.754ZM83.1475 10.7796C83.7821 10.7796 84.2824 10.5463 84.6483 10.0796C85.0179 9.61295 85.2027 8.93161 85.2027 8.03561C85.2027 7.16201 85.0179 6.48814 84.6483 6.01401C84.2824 5.53614 83.7821 5.29721 83.1475 5.29721C82.524 5.29721 82.0275 5.53614 81.6579 6.01401C81.2883 6.49187 81.1035 7.16947 81.1035 8.04681C81.1035 8.93534 81.2883 9.61295 81.6579 10.0796C82.0275 10.5463 82.524 10.7796 83.1475 10.7796ZM91.7842 11.754C91.1756 11.754 90.6343 11.6159 90.1602 11.3396C89.686 11.0633 89.3127 10.6508 89.0402 10.102C88.7714 9.55322 88.637 8.86814 88.637 8.04681C88.637 7.21054 88.7714 6.51988 89.0402 5.97481C89.3127 5.42601 89.686 5.01722 90.1602 4.74841C90.6343 4.47962 91.1756 4.34521 91.7842 4.34521C92.3964 4.34521 92.9396 4.48147 93.4138 4.75401C93.8916 5.02654 94.265 5.43908 94.5338 5.99161C94.8063 6.54041 94.9426 7.22547 94.9426 8.04681C94.9426 8.87561 94.8063 9.56629 94.5338 10.1188C94.265 10.6676 93.8916 11.0783 93.4138 11.3508C92.9396 11.6196 92.3964 11.754 91.7842 11.754ZM91.7842 10.7796C92.4188 10.7796 92.9191 10.5463 93.285 10.0796C93.6546 9.61295 93.8394 8.93161 93.8394 8.03561C93.8394 7.16201 93.6546 6.48814 93.285 6.01401C92.9191 5.53614 92.4188 5.29721 91.7842 5.29721C91.1607 5.29721 90.6642 5.53614 90.2946 6.01401C89.925 6.49187 89.7402 7.16947 89.7402 8.04681C89.7402 8.93534 89.925 9.61295 90.2946 10.0796C90.6642 10.5463 91.1607 10.7796 91.7842 10.7796ZM96.7864 5.39241V4.47401H102.409V5.39241H99.8888L100.13 5.14601V11.6084H99.0656V5.14601L99.3008 5.39241H96.7864Z" fill="#7A808B"/>
</g>
<defs>
<clipPath id="clip0_28322_2065">
<rect width="113" height="34" fill="white"/>
</clipPath>
</defs>
</svg>
