<svg width="116" height="32" viewBox="0 0 116 32" fill="none" xmlns="http://www.w3.org/2000/svg">
<path fill-rule="evenodd" clip-rule="evenodd" d="M78.1623 8.82791H69.3758V10.6671C70.108 10.6671 70.8408 10.8511 71.0229 11.219C71.3896 11.403 71.573 11.9543 71.573 12.6902V15.2653H65.532V12.6902C65.532 11.9549 65.7153 11.403 65.8987 11.219C66.2642 10.8511 66.997 10.6671 67.7292 10.6671V8.82791H58.7593V10.6671C59.4915 10.6671 59.6743 10.6671 60.0397 10.8511C60.4065 10.8511 60.4065 11.219 60.5886 11.219C60.9553 11.771 61.1387 12.1383 61.1387 12.6902V22.4374C61.1387 22.4374 60.9553 22.9887 60.5886 23.1727L60.0397 23.724H58.7593V25.5638H67.728V23.724H66.4463C66.2629 23.3561 65.8974 23.1727 65.8974 23.1727C65.7141 22.9881 65.7141 22.6202 65.7141 22.4374C65.5307 22.2528 65.5307 21.7021 65.5307 21.7021V17.8398H71.5718V22.4374C71.5718 22.4374 71.3884 22.9887 71.3884 23.1727C71.0217 23.1727 70.8396 23.3561 70.6562 23.724H69.3745V25.5638H78.1611V23.724H76.8794C76.696 23.3561 76.5139 23.1727 76.1472 23.1727C76.1472 22.9881 75.9638 22.6202 75.9638 22.4374V12.6896C75.9638 12.1377 76.1472 11.7703 76.5139 11.2184C76.696 10.8504 77.4289 10.6665 78.1611 10.6665V8.82791H78.1623ZM79.2606 8.82791V10.6671C79.9928 10.6671 80.5411 10.6671 80.7244 10.8511C81.0911 10.8511 81.2733 11.219 81.2733 11.403C81.64 11.771 81.64 11.9549 81.64 11.9549L81.8233 12.6902V22.4374C81.8233 22.4374 81.64 22.9887 81.2733 23.1727L80.7244 23.724H79.2606V25.5638H94.8192L97.748 19.6783L95.9175 18.943C94.8192 20.7822 93.7203 21.7021 92.2564 22.4374C90.7914 23.1727 89.3276 23.3561 87.6804 23.3561C87.1303 23.3561 86.947 23.3561 86.5821 23.1727C86.3988 22.9881 86.2154 22.2528 86.2154 21.3335V17.8392H86.9476C88.0459 17.8392 88.596 18.0225 88.9615 18.2071C89.5116 18.7597 89.8764 19.495 89.8764 20.4136H91.707V12.6896H89.8764C89.8764 13.6089 89.511 14.3448 88.9615 14.8967C88.596 15.0807 88.0465 15.2647 86.9476 15.2647H86.2154V13.0576C86.2154 12.1383 86.3988 11.9543 86.3988 11.4024C86.5821 11.2184 87.3137 10.8504 88.2293 10.8504H88.7781C90.6087 10.8504 91.8903 11.4024 92.9887 12.1377C94.087 12.8736 94.8192 13.7929 95.368 14.7121L97.0164 13.7929L94.6364 8.82729L79.2606 8.82791ZM113.49 19.6783C113.123 20.4136 112.575 21.3342 111.659 22.2528C111.109 22.6208 110.744 22.9881 110.012 23.1727C109.462 23.724 108.731 23.724 107.998 23.724C107.448 23.724 107.266 23.724 106.533 23.3561C105.984 23.1727 105.618 22.9881 105.07 22.4374C104.703 21.8849 104.155 21.3342 103.971 20.4143C103.606 19.679 103.422 18.3911 103.422 17.2879C103.422 14.8974 103.606 13.0582 104.703 12.1389C105.618 10.8517 106.533 10.4837 107.448 10.4837C108.913 10.4837 110.012 10.8517 110.927 11.9549C111.659 12.8748 112.574 13.7941 113.123 15.2653L115.137 14.7134L112.941 8.82852H111.476L111.109 9.19648C110.744 9.0125 110.012 8.82852 109.279 8.46057C108.73 8.46057 107.815 8.27721 107.083 8.27721C104.337 8.27721 102.14 9.19648 100.676 10.6683C99.2112 12.3235 98.2963 14.714 98.2963 17.2885C98.2963 19.6796 99.2112 21.8861 101.042 23.7253C102.323 25.3811 104.703 26.1164 107.266 26.1164C109.462 26.1164 111.475 25.3811 112.574 24.2772C114.038 23.3573 114.772 21.8861 115.503 20.7828L113.49 19.6783ZM43.3822 2.94243C41.369 0.919894 38.8062 0 35.1452 0C30.0197 0 25.2603 1.6552 21.0504 4.7816C17.2066 8.27597 15.01 12.1383 14.0944 16.5513C13.7283 17.8392 13.5449 18.7591 13.5449 19.6777C13.5449 23.7234 15.0093 26.4819 17.206 28.8736C19.5854 30.8967 22.5142 32 26.1753 32C28.3719 32 30.2024 31.632 32.2157 31.2647C33.8629 30.7121 36.0601 29.4255 37.3412 28.5056C39.3545 26.8498 38.2561 26.2991 36.7917 27.2178C36.0595 27.7703 33.8629 29.057 32.3984 29.2409C31.1168 29.4255 29.2862 29.7923 27.273 29.7923C24.1608 29.7923 21.7814 29.057 19.7681 27.2178C17.9376 25.3786 17.2054 23.1721 17.2054 20.0457C17.2054 18.9424 17.2054 18.0225 17.3881 17.1033C18.1203 12.873 20.1336 9.56259 23.0624 6.62016C26.3574 3.67773 30.0184 2.20652 34.4111 2.20652C37.3399 2.20652 39.5366 2.94181 41.1838 4.59762C42.6482 6.06884 43.5631 8.27597 43.5631 10.6671C43.3798 14.3454 42.4648 17.2872 41.1838 18.943C39.5366 21.3342 38.2549 21.8855 38.0715 21.8855C37.5227 21.8855 37.5227 21.7021 37.5227 21.7021C37.5227 20.7822 38.2549 18.2077 38.4377 17.2879L41.1831 8.46057C41.1831 8.2772 41.1831 8.09261 40.6337 8.09261H37.156C36.7899 8.09261 36.0577 8.27659 35.8743 9.0125L35.5082 9.74842C34.2271 15.2659 30.7494 18.7603 29.8339 19.679C28.3694 21.1502 27.2717 21.7021 26.905 21.7021C26.3562 21.7021 26.3562 21.3342 26.3562 20.9668C26.3562 20.7822 26.3562 20.4143 26.5389 19.311L29.4677 12.1383C30.0172 11.219 30.0172 10.1151 30.0172 9.7478C30.0172 8.45995 29.285 7.54067 27.8206 7.54067C26.3562 7.54067 23.9762 8.09261 21.2307 10.4837C20.1324 11.9549 19.7663 12.6902 19.7663 12.6902C19.7663 13.0582 20.3151 13.0582 20.3151 13.0582C20.6812 13.0582 21.2307 12.3229 21.7795 11.9549C22.5117 11.2196 23.4267 10.1158 24.1589 10.1158C24.7078 10.1158 24.7078 10.4837 24.7078 10.6677C24.7078 10.8517 24.3416 11.403 24.1589 12.1389L21.9623 17.1045C21.5962 18.2077 20.4978 20.4143 20.4978 22.438C20.4978 24.8291 22.3284 25.3805 23.2439 25.3805C25.6233 25.3805 29.8332 23.1739 33.4949 16.7372L32.9461 18.3917C32.7627 19.4962 32.2132 21.7027 32.2132 23.3573C32.2132 23.9099 32.2132 25.3805 33.8604 25.3805C37.5215 25.3805 40.2669 22.6214 41.732 20.9674C43.5625 18.3917 45.2097 16.0012 45.393 13.7947C45.7592 12.1395 45.7592 10.8523 45.7592 9.9324C45.7622 6.80476 45.2128 4.59762 43.3822 2.94243Z" fill="#7A808B"/>
<path fill-rule="evenodd" clip-rule="evenodd" d="M43.3822 2.94243C41.369 0.919894 38.8062 0 35.1452 0C30.0197 0 25.2603 1.6552 21.0504 4.7816C17.2066 8.27597 15.01 12.1383 14.0944 16.5513C13.7283 17.8392 13.5449 18.7591 13.5449 19.6777C13.5449 23.7234 15.0093 26.4819 17.206 28.8736C19.5854 30.8967 22.5142 32 26.1753 32C28.3719 32 30.2024 31.632 32.2157 31.2647C33.8629 30.7121 36.0601 29.4255 37.3412 28.5056C39.3545 26.8498 38.2561 26.2991 36.7917 27.2178C36.0595 27.7703 33.8629 29.057 32.3984 29.2409C31.1168 29.4255 29.2862 29.7923 27.273 29.7923C24.1608 29.7923 21.7814 29.057 19.7681 27.2178C17.9376 25.3786 17.2054 23.1721 17.2054 20.0457C17.2054 18.9424 17.2054 18.0225 17.3881 17.1033C18.1203 12.873 20.1336 9.56259 23.0624 6.62016C26.3574 3.67773 30.0184 2.20652 34.4111 2.20652C37.3399 2.20652 39.5366 2.94181 41.1838 4.59762C42.6482 6.06884 43.5631 8.27597 43.5631 10.6671C43.3798 14.3454 42.4648 17.2872 41.1838 18.943C39.5366 21.3342 38.0715 21.8855 38.0715 21.8855L37.5227 21.7021C37.5227 20.7822 38.2549 18.2077 38.4377 17.2879L41.1831 8.46057C41.1831 8.2772 40.6337 8.09261 40.6337 8.09261H37.156C36.7899 8.09261 36.0577 8.27659 35.8743 9.0125L35.5082 9.74842C34.2271 15.2659 30.7494 18.7603 29.8339 19.679C28.3694 21.1502 27.2717 21.7021 26.905 21.7021C26.3562 21.7021 26.3562 20.9668 26.3562 20.9668C26.3562 20.9668 26.3562 20.4143 26.5389 19.311L29.4677 12.1383C30.0172 11.219 30.0172 10.1151 30.0172 9.7478C30.0172 8.45995 29.285 7.54067 27.8206 7.54067C26.3562 7.54067 23.9762 8.09261 21.2307 10.4837C20.1324 11.9549 19.7663 12.6902 19.7663 12.6902C19.7663 13.0582 20.3151 13.0582 20.3151 13.0582C20.6812 13.0582 21.2307 12.3229 21.7795 11.9549C22.5117 11.2196 23.4267 10.1158 24.1589 10.1158C24.7078 10.1158 24.7078 10.6677 24.7078 10.6677C24.7078 10.6677 24.3416 11.403 24.1589 12.1389L21.9623 17.1045C21.5962 18.2077 20.4978 20.4143 20.4978 22.438C20.4978 24.8291 22.3284 25.3805 23.2439 25.3805C25.6233 25.3805 29.8332 23.1739 33.4949 16.7372L32.9461 18.3917C32.7627 19.4962 32.2132 21.7027 32.2132 23.3573C32.2132 23.9099 32.2132 25.3805 33.8604 25.3805C37.5215 25.3805 40.2669 22.6214 41.732 20.9674C43.5625 18.3917 45.2097 16.0012 45.393 13.7947C45.7592 12.1395 45.7592 10.8523 45.7592 9.9324C45.7622 6.80476 45.2128 4.59762 43.3822 2.94243Z" fill="white"/>
<path fill-rule="evenodd" clip-rule="evenodd" d="M0 8.82733V10.6665C0.366106 10.6665 0.549467 10.6665 1.09832 10.8505C1.28106 10.8505 1.64779 11.2184 1.83053 11.4024C1.83053 11.7704 2.01327 11.7704 2.01327 11.9544V22.4368C2.01327 22.6202 1.83053 22.9882 1.83053 23.1721C1.64779 23.1721 1.28106 23.3555 1.09832 23.7235H0V25.5632H11.8988C12.8137 25.5632 13.5459 25.3786 14.2781 25.0107C15.0103 24.8273 15.7426 24.0908 16.108 23.7228C16.6575 22.9875 17.0236 21.8837 17.0236 20.7804C17.0236 20.0451 17.0236 19.4938 16.6575 18.9412C16.4748 18.2059 15.9253 17.838 15.3764 17.2854C15.0103 16.5501 14.0948 15.9982 12.9971 15.9982C11.8988 15.6308 10.2516 15.2629 8.6038 15.2629H6.40716V12.1365C6.40716 11.9525 6.40716 11.7685 6.77327 11.4012L6.95601 11.2172C7.13937 10.8492 7.50548 10.8492 7.87159 10.8492H8.42044C9.88486 10.8492 11.3493 11.2172 11.8988 11.9525C12.8137 12.3205 13.5459 13.4237 14.2781 14.711L15.9253 13.7917L14.0948 8.8261H0V8.82733ZM6.40716 17.8386H8.42044C9.51875 17.8386 10.6171 18.022 11.1659 18.2066C11.8988 18.7591 12.0809 19.4944 12.0809 20.4131C12.0809 21.1484 11.8981 21.7009 11.532 22.4362C11.3493 22.6196 10.7998 22.9875 10.251 23.1715C9.88486 23.3549 9.33539 23.3549 8.6038 23.3549C7.87159 23.3549 7.68884 23.3549 7.13937 23.1715C6.77327 23.1715 6.40716 22.619 6.40716 22.2516V17.8386ZM47.5925 18.022H50.8875C51.4363 18.2066 51.8024 18.3899 52.1685 18.7585C52.3513 19.3098 52.5347 19.6772 52.5347 20.4131C52.5347 21.333 52.3513 22.2522 51.6191 22.6196C51.253 23.3549 50.1547 23.7228 48.8736 23.9074C48.3247 23.9074 47.7753 23.7228 47.2264 23.7228C47.0437 23.3549 46.8603 23.3549 46.4942 23.1715C46.3109 22.9869 46.1281 22.619 46.1281 22.4362C45.762 22.2516 45.762 21.8837 45.762 21.7009C45.762 21.7009 45.762 21.333 46.1281 21.1484V20.4131C46.1281 20.0457 45.762 19.6778 45.5793 19.3098C45.3959 18.7585 44.6637 18.3899 43.9315 18.3899C43.1993 18.3899 42.6504 18.9425 42.2843 19.4944C41.9182 19.6778 41.7355 20.4131 41.7355 21.149C41.7355 22.4368 42.4677 23.7235 43.566 24.6434C44.847 25.5632 47.0437 26.1146 49.6064 26.1146C52.5353 26.1146 54.5485 25.5632 55.8302 24.2754C56.9285 23.3555 57.4774 22.2522 57.4774 20.781C57.4774 19.6778 57.2946 18.7591 56.5624 18.022C55.8302 17.1033 54.7319 16.7353 53.4508 16.5507H53.6336C54.5485 16.3674 55.2808 15.8154 56.013 15.2641C56.7458 14.7122 56.9279 13.7929 56.9279 12.873C56.9279 11.7691 56.5618 10.4819 55.2808 9.74661C54.3658 8.82671 52.5353 8.27539 50.5214 8.27539C49.4231 8.27539 48.5081 8.45876 47.7759 8.45876C47.0437 8.82671 46.3115 9.01069 45.5793 9.19467L45.3959 8.82671H43.1993L42.6498 13.7923L45.2125 14.1603C45.3953 13.6083 45.5786 12.873 46.3109 11.9531C46.8603 11.7691 47.2258 11.2178 47.7753 10.8499C48.3247 10.6659 48.8736 10.4819 49.4224 10.4819C50.7041 10.6659 51.4357 10.8499 51.8018 11.4012C52.1679 11.7691 52.3513 11.9531 52.3513 12.1365C52.3513 12.3198 52.5347 12.6884 52.5347 12.8724C52.3513 13.6077 52.3513 14.1596 52.1685 14.3436C51.6191 14.8955 51.4363 15.0789 50.8875 15.0789C50.5214 15.2629 49.9719 15.6308 49.4231 15.6308H47.5919L47.5925 18.022Z" fill="#7A808B"/>
<path fill-rule="evenodd" clip-rule="evenodd" d="M52.0232 2.80994H52.5492V6.76735H52.0232V3.56191L49.9593 6.76735H49.4395V2.80994H49.9593V5.99253L52.0232 2.80994ZM59.3231 6.76735H58.8032V2.80994H59.3231V4.46082H61.274V2.80994H61.7938V6.76735H61.274V4.90718H59.3231V6.76735ZM69.7833 6.32098H69.5629C69.4691 6.32098 69.353 6.31295 69.2178 6.29814C69.0752 6.28167 68.9348 6.24958 68.7992 6.20244C68.551 6.11539 68.3232 5.9629 68.1176 5.74435C67.9121 5.52579 67.809 5.19426 67.809 4.74913C67.809 4.3003 67.9139 3.96629 68.1238 3.74589C68.3325 3.52549 68.564 3.37546 68.8159 3.29644C68.956 3.25137 69.0894 3.22112 69.2197 3.2063C69.3499 3.19148 69.4641 3.18346 69.5623 3.18346H69.7827V2.58398H70.3025V3.18346H70.5174C70.6149 3.18346 70.7298 3.19025 70.86 3.20321C70.9903 3.21618 71.123 3.2452 71.2582 3.29088C71.5114 3.36991 71.7441 3.51931 71.9565 3.73786C72.1701 3.95642 72.2763 4.2935 72.2763 4.74975C72.2763 5.17574 72.1812 5.49678 71.988 5.7141C71.796 5.9308 71.5855 6.08453 71.3552 6.17466C71.1989 6.23534 71.0357 6.2762 70.8693 6.29629C70.715 6.31296 70.5983 6.3216 70.5186 6.3216H70.3038V6.9149H69.7839L69.7833 6.32098ZM69.7833 3.60143H69.6364C69.2326 3.60143 68.9431 3.67428 68.7684 3.81936C68.5936 3.96444 68.4788 4.12373 68.4257 4.2966C68.4015 4.37491 68.3845 4.45531 68.3751 4.53676C68.3612 4.6757 68.3604 4.81562 68.3726 4.95472C68.3788 5.02819 68.3918 5.10474 68.4146 5.18377C68.4677 5.36466 68.5819 5.5295 68.7572 5.67829C68.9326 5.82708 69.2252 5.90178 69.6364 5.90178H69.7833V3.60143ZM70.4501 5.9024C70.5211 5.9024 70.6007 5.8987 70.6878 5.89067C70.7792 5.88264 70.8698 5.86756 70.9588 5.8456C71.1508 5.79312 71.3268 5.68755 71.4848 5.52888C71.6429 5.37021 71.7225 5.1103 71.7225 4.74851C71.7225 4.39043 71.6416 4.13237 71.4811 3.97432C71.3358 3.82456 71.1538 3.71539 70.9533 3.65761C70.8631 3.63476 70.7748 3.61995 70.6878 3.61254C70.6007 3.60513 70.5211 3.60081 70.4501 3.60081H70.3032V5.90178L70.4501 5.9024ZM79.9207 6.88588C79.3249 6.88218 78.8681 6.69203 78.5495 6.31542C78.2309 5.93821 78.0723 5.42948 78.0723 4.78926C78.0723 4.03915 78.2593 3.50203 78.6316 3.1779C78.9858 2.86096 79.4454 2.68749 79.9207 2.69141C80.4152 2.69141 80.8455 2.85378 81.216 3.1779C81.5851 3.50203 81.7691 4.03915 81.7691 4.78926C81.7691 5.43319 81.6098 5.94314 81.2919 6.31851C80.9739 6.69388 80.5165 6.88094 79.9207 6.88094V6.88588ZM79.9207 6.43952C80.3695 6.43952 80.6974 6.28517 80.9048 5.97649C81.1122 5.6678 81.216 5.27144 81.216 4.78926C81.216 4.33302 81.1437 3.99099 80.9999 3.76318C80.8579 3.53536 80.6986 3.37608 80.5257 3.28533C80.4182 3.22597 80.3016 3.18487 80.1806 3.1637C80.0945 3.1491 80.0074 3.14065 79.9201 3.13839C79.8596 3.13839 79.796 3.1421 79.7281 3.1495C79.6587 3.15721 79.5904 3.17253 79.5243 3.19519C79.2978 3.2594 79.0916 3.4088 78.9057 3.64464C78.7187 3.88048 78.6248 4.26202 78.6248 4.78926C78.6248 4.8794 78.631 4.98497 78.6427 5.10598C78.6538 5.22637 78.6767 5.35046 78.71 5.47887C78.7742 5.72027 78.8971 5.94068 79.078 6.14009C79.2601 6.3395 79.5398 6.43952 79.9207 6.43952Z" fill="#7A808B"/>
</svg>
