<svg width="116" height="32" viewBox="0 0 116 32" fill="none" xmlns="http://www.w3.org/2000/svg">
<path fill-rule="evenodd" clip-rule="evenodd" d="M78.1643 8.82791H69.3777V10.6671C70.1099 10.6671 70.8428 10.8511 71.0249 11.219C71.3916 11.403 71.575 11.9543 71.575 12.6902V15.2653H65.5339V12.6902C65.5339 11.9549 65.7173 11.403 65.9006 11.219C66.2661 10.8511 66.9989 10.6671 67.7312 10.6671V8.82791H58.7613V10.6671C59.4935 10.6671 59.6762 10.6671 60.0417 10.8511C60.4084 10.8511 60.4084 11.219 60.5905 11.219C60.9573 11.771 61.1406 12.1383 61.1406 12.6902V22.4374C61.1406 22.4374 60.9573 22.9887 60.5905 23.1727L60.0417 23.724H58.7613V25.5638H67.7299V23.724H66.4482C66.2649 23.3561 65.8994 23.1727 65.8994 23.1727C65.716 22.9881 65.716 22.6202 65.716 22.4374C65.5327 22.2528 65.5327 21.7021 65.5327 21.7021V17.8398H71.5737V22.4374C71.5737 22.4374 71.3904 22.9887 71.3904 23.1727C71.0236 23.1727 70.8415 23.3561 70.6582 23.724H69.3765V25.5638H78.163V23.724H76.8813C76.698 23.3561 76.5159 23.1727 76.1491 23.1727C76.1491 22.9881 75.9658 22.6202 75.9658 22.4374V12.6896C75.9658 12.1377 76.1491 11.7703 76.5158 11.2184C76.698 10.8504 77.4308 10.6665 78.163 10.6665V8.82791H78.1643ZM79.2626 8.82791V10.6671C79.9948 10.6671 80.543 10.6671 80.7264 10.8511C81.0931 10.8511 81.2752 11.219 81.2752 11.403C81.642 11.771 81.6419 11.9549 81.6419 11.9549L81.8253 12.6902V22.4374C81.8253 22.4374 81.642 22.9887 81.2752 23.1727L80.7264 23.724H79.2626V25.5638H94.8211L97.75 19.6783L95.9195 18.943C94.8211 20.7822 93.7222 21.7021 92.2584 22.4374C90.7934 23.1727 89.3296 23.3561 87.6824 23.3561C87.1323 23.3561 86.9489 23.3561 86.5841 23.1727C86.4007 22.9881 86.2173 22.2528 86.2173 21.3335V17.8392H86.9496C88.0479 17.8392 88.598 18.0225 88.9634 18.2071C89.5135 18.7597 89.8784 19.495 89.8784 20.4136H91.7089V12.6896H89.8784C89.8784 13.6089 89.5129 14.3448 88.9634 14.8967C88.598 15.0807 88.0485 15.2647 86.9496 15.2647H86.2173V13.0576C86.2173 12.1383 86.4007 11.9543 86.4007 11.4024C86.5841 11.2184 87.3157 10.8504 88.2312 10.8504H88.7801C90.6106 10.8504 91.8923 11.4024 92.9906 12.1377C94.0889 12.8736 94.8211 13.7929 95.37 14.7121L97.0184 13.7929L94.6384 8.82729L79.2626 8.82791ZM113.492 19.6783C113.125 20.4136 112.577 21.3342 111.661 22.2528C111.111 22.6208 110.746 22.9881 110.014 23.1727C109.464 23.724 108.733 23.724 108 23.724C107.45 23.724 107.268 23.724 106.535 23.3561C105.986 23.1727 105.62 22.9881 105.071 22.4374C104.705 21.8849 104.157 21.3342 103.973 20.4143C103.608 19.679 103.424 18.3911 103.424 17.2879C103.424 14.8974 103.608 13.0582 104.705 12.1389C105.62 10.8517 106.535 10.4837 107.45 10.4837C108.915 10.4837 110.014 10.8517 110.929 11.9549C111.661 12.8748 112.576 13.7941 113.125 15.2653L115.139 14.7134L112.943 8.82852H111.478L111.111 9.19648C110.746 9.0125 110.014 8.82852 109.281 8.46057C108.732 8.46057 107.817 8.27721 107.085 8.27721C104.339 8.27721 102.142 9.19648 100.678 10.6683C99.2132 12.3235 98.2982 14.714 98.2982 17.2885C98.2982 19.6796 99.2132 21.8861 101.044 23.7253C102.325 25.3811 104.705 26.1164 107.268 26.1164C109.464 26.1164 111.477 25.3811 112.576 24.2772C114.04 23.3573 114.774 21.8861 115.505 20.7828L113.492 19.6783ZM43.3842 2.94243C41.3709 0.919894 38.8082 0 35.1471 0C30.0216 0 25.2623 1.6552 21.0524 4.7816C17.2086 8.27597 15.0119 12.1383 14.0963 16.5513C13.7302 17.8392 13.5469 18.7591 13.5469 19.6777C13.5469 23.7234 15.0113 26.4819 17.2079 28.8736C19.5873 30.8967 22.5162 32 26.1772 32C28.3739 32 30.2044 31.632 32.2177 31.2647C33.8648 30.7121 36.0621 29.4255 37.3431 28.5056C39.3564 26.8498 38.2581 26.2991 36.7937 27.2178C36.0615 27.7703 33.8648 29.057 32.4004 29.2409C31.1187 29.4255 29.2882 29.7923 27.2749 29.7923C24.1627 29.7923 21.7833 29.057 19.7701 27.2178C17.9395 25.3786 17.2073 23.1721 17.2073 20.0457C17.2073 18.9424 17.2073 18.0225 17.3901 17.1033C18.1223 12.873 20.1355 9.56259 23.0644 6.62016C26.3593 3.67773 30.0204 2.20652 34.4131 2.20652C37.3419 2.20652 39.5385 2.94181 41.1857 4.59762C42.6501 6.06884 43.5651 8.27597 43.5651 10.6671C43.3817 14.3454 42.4668 17.2872 41.1857 18.943C39.5385 21.3342 38.2569 21.8855 38.0735 21.8855C37.5246 21.8855 37.5246 21.7021 37.5246 21.7021C37.5246 20.7822 38.2569 18.2077 38.4396 17.2879L41.1851 8.46057C41.1851 8.2772 41.1851 8.09261 40.6356 8.09261H37.1579C36.7918 8.09261 36.0596 8.27659 35.8762 9.0125L35.5101 9.74842C34.2291 15.2659 30.7514 18.7603 29.8358 19.679C28.3714 21.1502 27.2737 21.7021 26.907 21.7021C26.3581 21.7021 26.3581 21.3342 26.3581 20.9668C26.3581 20.7822 26.3581 20.4143 26.5409 19.311L29.4697 12.1383C30.0192 11.219 30.0192 10.1151 30.0192 9.7478C30.0192 8.45995 29.287 7.54067 27.8225 7.54067C26.3581 7.54067 23.9781 8.09261 21.2326 10.4837C20.1343 11.9549 19.7682 12.6902 19.7682 12.6902C19.7682 13.0582 20.3171 13.0582 20.3171 13.0582C20.6832 13.0582 21.2326 12.3229 21.7815 11.9549C22.5137 11.2196 23.4286 10.1158 24.1609 10.1158C24.7097 10.1158 24.7097 10.4837 24.7097 10.6677C24.7097 10.8517 24.3436 11.403 24.1609 12.1389L21.9642 17.1045C21.5981 18.2077 20.4998 20.4143 20.4998 22.438C20.4998 24.8291 22.3303 25.3805 23.2459 25.3805C25.6253 25.3805 29.8352 23.1739 33.4969 16.7372L32.948 18.3917C32.7647 19.4962 32.2152 21.7027 32.2152 23.3573C32.2152 23.9099 32.2152 25.3805 33.8624 25.3805C37.5234 25.3805 40.2689 22.6214 41.7339 20.9674C43.5645 18.3917 45.2116 16.0012 45.395 13.7947C45.7611 12.1395 45.7611 10.8523 45.7611 9.9324C45.7642 6.80476 45.2147 4.59762 43.3842 2.94243Z" fill="#828282"/>
<path fill-rule="evenodd" clip-rule="evenodd" d="M43.3842 2.94243C41.3709 0.919894 38.8082 0 35.1471 0C30.0216 0 25.2623 1.6552 21.0524 4.7816C17.2086 8.27597 15.0119 12.1383 14.0963 16.5513C13.7302 17.8392 13.5469 18.7591 13.5469 19.6777C13.5469 23.7234 15.0113 26.4819 17.2079 28.8736C19.5873 30.8967 22.5162 32 26.1772 32C28.3739 32 30.2044 31.632 32.2177 31.2647C33.8648 30.7121 36.0621 29.4255 37.3431 28.5056C39.3564 26.8498 38.2581 26.2991 36.7937 27.2178C36.0615 27.7703 33.8648 29.057 32.4004 29.2409C31.1187 29.4255 29.2882 29.7923 27.2749 29.7923C24.1627 29.7923 21.7833 29.057 19.7701 27.2178C17.9395 25.3786 17.2073 23.1721 17.2073 20.0457C17.2073 18.9424 17.2073 18.0225 17.3901 17.1033C18.1223 12.873 20.1355 9.56259 23.0644 6.62016C26.3593 3.67773 30.0204 2.20652 34.4131 2.20652C37.3419 2.20652 39.5385 2.94181 41.1857 4.59762C42.6501 6.06884 43.5651 8.27597 43.5651 10.6671C43.3817 14.3454 42.4668 17.2872 41.1857 18.943C39.5385 21.3342 38.0735 21.8855 38.0735 21.8855L37.5246 21.7021C37.5246 20.7822 38.2569 18.2077 38.4396 17.2879L41.1851 8.46057C41.1851 8.2772 40.6356 8.09261 40.6356 8.09261H37.1579C36.7918 8.09261 36.0596 8.27659 35.8762 9.0125L35.5101 9.74842C34.2291 15.2659 30.7514 18.7603 29.8358 19.679C28.3714 21.1502 27.2737 21.7021 26.907 21.7021C26.3581 21.7021 26.3581 20.9668 26.3581 20.9668C26.3581 20.9668 26.3581 20.4143 26.5409 19.311L29.4697 12.1383C30.0192 11.219 30.0192 10.1151 30.0192 9.7478C30.0192 8.45995 29.287 7.54067 27.8225 7.54067C26.3581 7.54067 23.9781 8.09261 21.2326 10.4837C20.1343 11.9549 19.7682 12.6902 19.7682 12.6902C19.7682 13.0582 20.3171 13.0582 20.3171 13.0582C20.6832 13.0582 21.2326 12.3229 21.7815 11.9549C22.5137 11.2196 23.4286 10.1158 24.1609 10.1158C24.7097 10.1158 24.7097 10.6677 24.7097 10.6677C24.7097 10.6677 24.3436 11.403 24.1609 12.1389L21.9642 17.1045C21.5981 18.2077 20.4998 20.4143 20.4998 22.438C20.4998 24.8291 22.3303 25.3805 23.2459 25.3805C25.6253 25.3805 29.8352 23.1739 33.4969 16.7372L32.948 18.3917C32.7647 19.4962 32.2152 21.7027 32.2152 23.3573C32.2152 23.9099 32.2152 25.3805 33.8624 25.3805C37.5234 25.3805 40.2689 22.6214 41.7339 20.9674C43.5645 18.3917 45.2116 16.0012 45.395 13.7947C45.7611 12.1395 45.7611 10.8523 45.7611 9.9324C45.7642 6.80476 45.2147 4.59762 43.3842 2.94243Z" fill="#000704"/>
<path fill-rule="evenodd" clip-rule="evenodd" d="M0 8.82733V10.6665C0.366106 10.6665 0.549467 10.6665 1.09832 10.8505C1.28106 10.8505 1.64779 11.2184 1.83053 11.4024C1.83053 11.7704 2.01327 11.7704 2.01327 11.9544V22.4368C2.01327 22.6202 1.83053 22.9882 1.83053 23.1721C1.64779 23.1721 1.28106 23.3555 1.09832 23.7235H0V25.5632H11.8988C12.8137 25.5632 13.5459 25.3786 14.2781 25.0107C15.0103 24.8273 15.7426 24.0908 16.108 23.7228C16.6575 22.9875 17.0236 21.8837 17.0236 20.7804C17.0236 20.0451 17.0236 19.4938 16.6575 18.9412C16.4748 18.2059 15.9253 17.838 15.3764 17.2854C15.0103 16.5501 14.0948 15.9982 12.9971 15.9982C11.8988 15.6308 10.2516 15.2629 8.6038 15.2629H6.40716V12.1365C6.40716 11.9525 6.40716 11.7685 6.77327 11.4012L6.95601 11.2172C7.13937 10.8492 7.50548 10.8492 7.87159 10.8492H8.42044C9.88486 10.8492 11.3493 11.2172 11.8988 11.9525C12.8137 12.3205 13.5459 13.4237 14.2781 14.711L15.9253 13.7917L14.0948 8.8261H0V8.82733ZM6.40716 17.8386H8.42044C9.51875 17.8386 10.6171 18.022 11.1659 18.2066C11.8988 18.7591 12.0809 19.4944 12.0809 20.4131C12.0809 21.1484 11.8981 21.7009 11.532 22.4362C11.3493 22.6196 10.7998 22.9875 10.251 23.1715C9.88486 23.3549 9.33539 23.3549 8.6038 23.3549C7.87159 23.3549 7.68884 23.3549 7.13937 23.1715C6.77327 23.1715 6.40716 22.619 6.40716 22.2516V17.8386ZM47.5925 18.022H50.8875C51.4363 18.2066 51.8024 18.3899 52.1685 18.7585C52.3513 19.3098 52.5347 19.6772 52.5347 20.4131C52.5347 21.333 52.3513 22.2522 51.6191 22.6196C51.253 23.3549 50.1547 23.7228 48.8736 23.9074C48.3247 23.9074 47.7753 23.7228 47.2264 23.7228C47.0437 23.3549 46.8603 23.3549 46.4942 23.1715C46.3109 22.9869 46.1281 22.619 46.1281 22.4362C45.762 22.2516 45.762 21.8837 45.762 21.7009C45.762 21.7009 45.762 21.333 46.1281 21.1484V20.4131C46.1281 20.0457 45.762 19.6778 45.5793 19.3098C45.3959 18.7585 44.6637 18.3899 43.9315 18.3899C43.1993 18.3899 42.6504 18.9425 42.2843 19.4944C41.9182 19.6778 41.7355 20.4131 41.7355 21.149C41.7355 22.4368 42.4677 23.7235 43.566 24.6434C44.847 25.5632 47.0437 26.1146 49.6064 26.1146C52.5353 26.1146 54.5485 25.5632 55.8302 24.2754C56.9285 23.3555 57.4774 22.2522 57.4774 20.781C57.4774 19.6778 57.2946 18.7591 56.5624 18.022C55.8302 17.1033 54.7319 16.7353 53.4508 16.5507H53.6336C54.5485 16.3674 55.2808 15.8154 56.013 15.2641C56.7458 14.7122 56.9279 13.7929 56.9279 12.873C56.9279 11.7691 56.5618 10.4819 55.2808 9.74661C54.3658 8.82671 52.5353 8.27539 50.5214 8.27539C49.4231 8.27539 48.5081 8.45876 47.7759 8.45876C47.0437 8.82671 46.3115 9.01069 45.5793 9.19467L45.3959 8.82671H43.1993L42.6498 13.7923L45.2125 14.1603C45.3953 13.6083 45.5786 12.873 46.3109 11.9531C46.8603 11.7691 47.2258 11.2178 47.7753 10.8499C48.3247 10.6659 48.8736 10.4819 49.4224 10.4819C50.7041 10.6659 51.4357 10.8499 51.8018 11.4012C52.1679 11.7691 52.3513 11.9531 52.3513 12.1365C52.3513 12.3198 52.5347 12.6884 52.5347 12.8724C52.3513 13.6077 52.3513 14.1596 52.1685 14.3436C51.6191 14.8955 51.4363 15.0789 50.8875 15.0789C50.5214 15.2629 49.9719 15.6308 49.4231 15.6308H47.5919L47.5925 18.022Z" fill="#828282"/>
<path fill-rule="evenodd" clip-rule="evenodd" d="M52.0251 2.80994H52.5511V6.76735H52.0251V3.56191L49.9612 6.76735H49.4414V2.80994H49.9612V5.99253L52.0251 2.80994ZM59.325 6.76735H58.8052V2.80994H59.325V4.46082H61.2759V2.80994H61.7958V6.76735H61.2759V4.90718H59.325V6.76735ZM69.7853 6.32098H69.5649C69.471 6.32098 69.355 6.31295 69.2198 6.29814C69.0772 6.28167 68.9368 6.24958 68.8012 6.20244C68.553 6.11539 68.3252 5.9629 68.1196 5.74435C67.914 5.52579 67.8109 5.19426 67.8109 4.74913C67.8109 4.3003 67.9159 3.96629 68.1258 3.74589C68.3344 3.52549 68.566 3.37546 68.8179 3.29644C68.958 3.25137 69.0914 3.22112 69.2216 3.2063C69.3519 3.19148 69.4661 3.18346 69.5643 3.18346H69.7847V2.58398H70.3045V3.18346H70.5193C70.6169 3.18346 70.7317 3.19025 70.862 3.20321C70.9923 3.21618 71.125 3.2452 71.2602 3.29088C71.5133 3.36991 71.7461 3.51931 71.9585 3.73786C72.1721 3.95642 72.2783 4.2935 72.2783 4.74975C72.2783 5.17574 72.1832 5.49678 71.9899 5.7141C71.7979 5.9308 71.5874 6.08453 71.3571 6.17466C71.2009 6.23534 71.0377 6.2762 70.8713 6.29629C70.7169 6.31296 70.6002 6.3216 70.5206 6.3216H70.3057V6.9149H69.7859L69.7853 6.32098ZM69.7853 3.60143H69.6383C69.2346 3.60143 68.945 3.67428 68.7703 3.81936C68.5956 3.96444 68.4808 4.12373 68.4277 4.2966C68.4034 4.37491 68.3865 4.45531 68.377 4.53676C68.3632 4.6757 68.3624 4.81562 68.3746 4.95472C68.3807 5.02819 68.3937 5.10474 68.4166 5.18377C68.4697 5.36466 68.5839 5.5295 68.7592 5.67829C68.9345 5.82708 69.2272 5.90178 69.6383 5.90178H69.7853V3.60143ZM70.4521 5.9024C70.5231 5.9024 70.6027 5.8987 70.6897 5.89067C70.7811 5.88264 70.8717 5.86756 70.9608 5.8456C71.1528 5.79312 71.3287 5.68755 71.4868 5.52888C71.6448 5.37021 71.7245 5.1103 71.7245 4.74851C71.7245 4.39043 71.6436 4.13237 71.4831 3.97432C71.3377 3.82456 71.1558 3.71539 70.9552 3.65761C70.8651 3.63476 70.7768 3.61995 70.6897 3.61254C70.6027 3.60513 70.5231 3.60081 70.4521 3.60081H70.3051V5.90178L70.4521 5.9024ZM79.9227 6.88588C79.3269 6.88218 78.87 6.69203 78.5514 6.31542C78.2329 5.93821 78.0742 5.42948 78.0742 4.78926C78.0742 4.03915 78.2613 3.50203 78.6336 3.1779C78.9877 2.86096 79.4474 2.68749 79.9227 2.69141C80.4172 2.69141 80.8475 2.85378 81.2179 3.1779C81.5871 3.50203 81.7711 4.03915 81.7711 4.78926C81.7711 5.43319 81.6118 5.94314 81.2938 6.31851C80.9759 6.69388 80.5184 6.88094 79.9227 6.88094V6.88588ZM79.9227 6.43952C80.3715 6.43952 80.6993 6.28517 80.9068 5.97649C81.1142 5.6678 81.2179 5.27144 81.2179 4.78926C81.2179 4.33302 81.1457 3.99099 81.0018 3.76318C80.8598 3.53536 80.7005 3.37608 80.5277 3.28533C80.4202 3.22597 80.3035 3.18487 80.1826 3.1637C80.0964 3.1491 80.0094 3.14065 79.922 3.13839C79.8615 3.13839 79.7979 3.1421 79.73 3.1495C79.6607 3.15721 79.5923 3.17253 79.5263 3.19519C79.2997 3.2594 79.0935 3.4088 78.9077 3.64464C78.7206 3.88048 78.6268 4.26202 78.6268 4.78926C78.6268 4.8794 78.6329 4.98497 78.6447 5.10598C78.6558 5.22637 78.6786 5.35046 78.712 5.47887C78.7762 5.72027 78.899 5.94068 79.0799 6.14009C79.2621 6.3395 79.5417 6.43952 79.9227 6.43952Z" fill="#828282"/>
</svg>
