<svg width="137" height="20" viewBox="0 0 137 20" fill="none" xmlns="http://www.w3.org/2000/svg">
<g clip-path="url(#clip0_28401_373)">
<path d="M22.1808 0.321678H18.024C18.024 0.321678 17.3893 0.321678 17.072 1.2419L11.9949 13.9029L10.1862 9.17486L10.1227 9.11139L8.82173 5.74782V5.71609C8.18709 4.19296 7.58419 3.05061 6.94955 2.35251C6.31492 1.55922 5.52162 0.988046 4.63313 0.607264C3.61771 0.163019 2.60229 -0.0908359 1.55514 0.0360914C1.14263 0.0360914 0.698383 0.0995551 0.190674 0.194751C-0.0949126 0.321678 0.0320147 0.670728 0.0320147 0.670728L0.761847 3.49486C0.920506 3.93911 1.17436 4.06603 1.20609 4.06603C1.49168 4.1295 1.84073 4.22469 2.06285 4.35162C2.47537 4.51028 2.79268 4.85933 3.07827 5.27184C3.36386 5.71609 3.74464 6.50938 4.28408 7.65173L4.34754 7.77866H4.28408L5.42643 10.5076L9.07559 18.8531C9.13905 19.0117 9.36117 19.2973 9.74195 19.2973H13.994C14.5017 19.2973 14.6921 18.8531 14.7239 18.7896L22.4347 0.892851C22.6885 0.321678 22.1808 0.321678 22.1808 0.321678ZM31.4783 0.194751C28.5272 0.194751 26.1473 1.05151 24.3386 2.79676C22.5933 4.54201 21.6731 6.85843 21.6731 9.74603C21.6731 12.6019 22.5933 14.9183 24.3386 16.6636C26.1473 18.4088 28.5272 19.2656 31.4783 19.2656C34.4928 19.2656 36.8727 18.4088 38.6179 16.6636C40.4266 14.9183 41.2834 12.6654 41.2834 9.74603C41.2834 6.85843 40.4266 4.51028 38.6179 2.79676C36.8409 1.05151 34.4928 0.194751 31.4783 0.194751ZM34.9053 13.8394C34.0803 14.8231 32.9379 15.3626 31.4783 15.3626C29.9551 15.3626 28.8762 14.8549 28.0512 13.8394C27.1945 12.8557 26.7819 11.523 26.7819 9.77776C26.7819 8.03251 27.2579 6.63631 28.0512 5.65262C28.8762 4.66894 30.0186 4.19296 31.4783 4.19296C32.9379 4.19296 34.0803 4.66894 34.9053 5.65262C35.7621 6.63631 36.1746 7.96905 36.1746 9.77776C36.2063 11.523 35.7303 12.8557 34.9053 13.8394ZM66.9862 2.79676C65.1775 1.05151 62.861 0.194751 59.8465 0.194751C56.8955 0.194751 54.5156 1.05151 52.7069 2.79676C50.9616 4.54201 50.0414 6.85843 50.0414 9.74603C50.0414 12.6019 50.9616 14.9183 52.7069 16.6636C54.5156 18.4088 56.8955 19.2656 59.8465 19.2656C62.861 19.2656 65.2409 18.4088 66.9862 16.6636C68.7949 14.9183 69.6516 12.6654 69.6516 9.74603C69.6516 6.89017 68.7949 4.54201 66.9862 2.79676ZM63.2735 13.8394C62.4485 14.8231 61.3062 15.3626 59.8465 15.3626C58.3234 15.3626 57.2445 14.8549 56.4195 13.8394C55.5627 12.8557 55.1502 11.523 55.1502 9.77776C55.1502 8.03251 55.6262 6.63631 56.4195 5.65262C57.2445 4.66894 58.3869 4.19296 59.8465 4.19296C61.3062 4.19296 62.4485 4.66894 63.2735 5.65262C64.1303 6.63631 64.5428 7.96905 64.5428 9.77776C64.5428 11.523 64.0668 12.8557 63.2735 13.8394ZM49.2481 15.902V15.8385C49.026 15.7116 48.8038 15.4895 48.6134 15.3308C48.3279 14.9818 48.1692 14.601 48.0423 14.0933C47.9153 13.649 47.8836 12.7923 47.8836 11.6499V0.70246C47.8836 0.480337 47.6932 0.289946 47.4711 0.289946H43.695C43.4729 0.289946 43.2825 0.480337 43.2825 0.70246L43.4412 7.90558V9.11139L43.3777 11.6182C43.3777 13.3317 43.5364 14.6327 43.8219 15.5212C44.1075 16.4414 44.6152 17.2665 45.3133 18.028C46.1066 18.8213 46.9634 19.456 47.9153 19.7416C48.2644 19.8685 48.5817 19.9637 49.0577 20.0271C49.2164 20.0906 49.5654 20.0906 49.5654 19.6146V16.4414C49.5971 16.4097 49.5337 16.1241 49.2481 15.902Z" fill="#000704"/>
<path d="M91.0685 0.258275C93.734 0.258275 95.6379 2.00353 95.6379 4.47861C95.6379 6.98542 93.7023 8.7624 91.0685 8.7624H87.6415V0.258275H91.0685ZM91.0685 6.8585C92.433 6.8585 93.5119 5.84308 93.5119 4.47861C93.5119 3.1776 92.4647 2.16218 91.0685 2.16218H89.7675V6.8585H91.0685ZM98.938 8.7624H96.8437V0.258275H98.938V8.7624ZM109.092 8.7624H107.506L107.41 7.74699C106.808 8.50855 105.919 8.9528 104.713 8.9528C102.048 8.9528 100.207 7.04889 100.207 4.63727C100.207 2.00353 102.143 0.131348 104.745 0.131348C106.808 0.131348 108.616 1.30543 108.965 3.33626H106.744C106.363 2.35258 105.507 2.06699 104.745 2.06699C103.285 2.06699 102.302 3.08241 102.302 4.5738C102.302 5.90654 103.254 6.98542 104.777 6.98542C105.76 6.98542 106.522 6.50944 106.934 5.68442L104.491 5.65269V4.00263H109.029V8.7624H109.092ZM112.9 8.7624H110.806V0.258275H112.9V8.7624ZM118.643 2.16218V8.7624H116.549V2.16218H113.852V0.258275H121.372V2.13045H118.643V2.16218ZM123.213 7.30274L122.642 8.7624H120.389L124.006 0.226543H126.005L129.591 8.7624H127.37L126.799 7.30274H123.213ZM125.022 2.66989L123.911 5.49403H126.1L125.022 2.66989ZM136.826 8.7624H130.511V0.258275H132.637V6.89023H136.826V8.7624ZM89.6723 17.8694L89.1646 19.2339H87.0703L90.4339 11.3009H92.3061L95.6379 19.2022H93.5753L93.0359 17.8377H89.6723V17.8694ZM91.3541 13.5856L90.3387 16.1877H92.3695L91.3541 13.5856ZM103.856 19.2339H102.397L102.302 18.282C101.73 18.9801 100.905 19.3926 99.8265 19.3926C97.3514 19.3926 95.6379 17.6473 95.6379 15.3944C95.6379 12.951 97.4466 11.2058 99.8582 11.2058C101.762 11.2058 103.444 12.2846 103.793 14.1568H101.73C101.381 13.2366 100.588 12.9827 99.89 12.9827C98.5572 12.9827 97.637 13.9347 97.637 15.3309C97.637 16.5684 98.5255 17.5839 99.9217 17.5839C100.842 17.5839 101.54 17.1396 101.921 16.378L99.6679 16.3463V14.7915H103.888V19.2339H103.856ZM107.347 14.5059H110.837V16.1559H107.347V17.5204H111.345V19.2339H105.411V11.3644H111.345V13.0779H107.347V14.5059ZM119.691 19.2339H118.168L114.423 14.9184V19.2339H112.456V11.3644H113.947L117.755 15.8069V11.3644H119.722V19.2339H119.691ZM126.989 15.9655H128.988C128.734 17.9964 127.179 19.3926 125.053 19.3926C122.673 19.3926 120.896 17.679 120.896 15.2992C120.896 12.9193 122.705 11.2058 125.053 11.2058C127.211 11.2058 128.766 12.602 128.988 14.6328H126.989C126.767 13.6491 126.069 13.0462 125.022 13.0462C123.752 13.0462 122.832 13.9982 122.832 15.2992C122.832 16.6002 123.721 17.5521 125.022 17.5521C126.1 17.5521 126.767 16.9492 126.989 15.9655ZM133.875 16.854V19.2339H131.907V16.854L128.798 11.3644H130.955L132.891 14.7915L134.827 11.3644H136.984L133.875 16.854Z" fill="#828282"/>
<path d="M78.5664 0.00561523L78.9155 0.00561523V19.0447H78.5664V0.00561523Z" fill="#828282"/>
<path d="M68.7962 0.733321V2.06606H68.3519V0.733321H67.8125V0.352539H69.3356V0.733321H68.7962ZM71.4299 2.06606H70.9857V1.2093L70.6049 1.8122H70.351L69.9703 1.2093V2.06606H69.526V0.352539L69.8433 0.352539L70.4462 1.27276L71.0491 0.352539H71.3665V2.06606H71.4299Z" fill="#828282"/>
</g>
<defs>
<clipPath id="clip0_28401_373">
<rect width="136.986" height="20" fill="white"/>
</clipPath>
</defs>
</svg>
