<svg width="110" height="48" viewBox="0 0 110 48" fill="none" xmlns="http://www.w3.org/2000/svg">
<path fill-rule="evenodd" clip-rule="evenodd" d="M54.5417 45.5412C30.486 48.9921 9.5678 42.1941 7.85954 30.3063C6.15128 18.4524 24.2803 6.04109 48.336 2.55452C69.2542 -0.443535 87.7667 4.26279 93.3794 13.327C87.9756 3.07745 67.4059 -2.36133 44.0826 0.985751C17.9702 4.75069 -1.72821 18.1034 0.12014 30.8287C1.93286 43.5189 24.5943 50.7704 50.7067 47.0049C61.3403 45.5062 70.8924 42.3686 78.3529 38.3591C71.7638 41.6718 63.5709 44.2152 54.5417 45.5412ZM91.1482 32.6414C90.2769 32.6414 89.7189 32.014 89.7189 31.2121C89.7189 30.0624 90.6953 29.1554 91.7756 29.1554C92.6469 29.1554 93.2405 29.7828 93.2405 30.5847C93.2399 31.7 92.2297 32.6414 91.1482 32.6414Z" fill="#000704"/>
<path fill-rule="evenodd" clip-rule="evenodd" d="M35.8547 32.9566H32.891L33.135 31.4579C32.7165 32.0509 31.3917 33.2362 29.7185 33.2362C27.7312 33.2362 26.7548 32.2598 26.7548 30.656C26.7548 30.3777 26.7898 30.0643 26.8593 29.7503L28.0796 22.8116H31.0433L29.9624 28.8089C29.893 29.1229 29.893 29.4006 29.893 29.6452C29.893 30.7611 30.3459 31.4579 31.2872 31.4579C32.5076 31.4579 33.2745 30.656 33.6579 28.6344L34.6687 22.8116H37.6324L35.8547 32.9566ZM44.9889 25.3924H44.3966C44.4316 24.416 43.5947 23.6135 42.6877 23.6135C41.6425 23.6135 40.84 24.2414 40.84 25.0433C40.84 25.8102 41.7813 26.1236 42.7578 26.5083C43.9081 26.9255 45.0934 27.5529 45.0934 29.1923C45.0934 31.4235 43.2451 33.2362 40.317 33.2362C39.3757 33.2362 37.9814 32.9566 37.3884 32.3987L38.0859 30.377H38.6088C38.8183 31.4229 39.6202 32.1541 40.8055 32.1541C42.0259 32.1541 42.7227 31.2828 42.7227 30.6904C42.7227 30.0631 42.1304 29.714 41.3635 29.4C40.1431 28.8421 38.5744 28.3198 38.5744 26.507C38.5744 24.3453 40.4221 22.532 42.8628 22.532C44.1176 22.532 45.2335 22.881 45.8265 23.5084L44.9889 25.3924ZM49.5564 21.2078C48.7195 21.2078 48.1271 20.5798 48.1271 19.7785C48.1271 18.6976 49.1379 17.7912 50.1493 17.7912C50.9857 17.7912 51.5786 18.3836 51.5786 19.1861C51.578 20.2664 50.6022 21.2078 49.5564 21.2078ZM48.9634 32.9566H45.9998L47.7775 22.8116H50.7411L48.9634 32.9566ZM61.3053 26.786L60.1894 32.9566H57.2257L58.2716 27.2051C58.3072 26.7866 58.341 26.3676 58.341 26.0197C58.341 25.0077 57.9576 24.3465 56.9824 24.3465C55.692 24.3465 54.8901 25.6707 54.6455 27.2051L53.5997 32.9566H50.636L52.4488 22.8116H55.4118L55.1334 24.3803C55.4818 23.8224 56.8767 22.5326 58.7251 22.5326C60.7111 22.5326 61.4435 23.509 61.4435 25.2172C61.4441 25.6707 61.3747 26.193 61.3053 26.786ZM69.3593 25.3211C69.3593 25.7752 69.2542 26.2975 69.1847 26.786H65.9772C66.2912 25.1128 67.023 23.509 68.2784 23.509C69.0797 23.509 69.3593 24.3109 69.3593 25.3211ZM72.1484 26.0892C72.1484 23.858 71.2058 22.5326 68.4523 22.5326C64.8613 22.5326 62.4906 25.3211 62.4906 28.9822C62.4906 31.5274 63.8861 33.2706 66.9536 33.2706C68.2083 33.2706 69.0797 32.9566 70.265 32.3293L70.9619 31.1089L70.7529 30.9C70.0561 31.4235 68.9402 31.8764 67.9988 31.8764C66.5339 31.8764 65.6281 31.1089 65.6281 29.3312C65.6281 28.9127 65.6976 28.4599 65.767 27.9714H71.9727C72.0777 27.2745 72.1484 26.6471 72.1484 26.0892ZM80.0267 25.3924H79.4349C79.4349 24.416 78.633 23.6135 77.726 23.6135C76.6802 23.6135 75.8777 24.2414 75.8777 25.0433C75.8777 25.8102 76.8203 26.1236 77.7955 26.5083C78.9114 26.9255 80.1317 27.5529 80.1317 29.1923C80.1317 31.4235 78.2834 33.2362 75.3554 33.2362C74.379 33.2362 73.0203 32.9566 72.4268 32.3987L73.0898 30.377H73.6477C73.8567 31.4229 74.6586 32.1541 75.8083 32.1541C77.0642 32.1541 77.7611 31.2828 77.7611 30.6904C77.7611 30.0631 77.1337 29.714 76.4012 29.4C75.1809 28.8421 73.5777 28.3198 73.5777 26.507C73.5777 24.3453 75.4248 22.532 77.9 22.532C79.1547 22.532 80.2706 22.881 80.8636 23.5084L80.0267 25.3924ZM88.4635 25.3924H87.8717C87.9062 24.416 87.1043 23.6135 86.1629 23.6135C85.1521 23.6135 84.3145 24.2414 84.3145 25.0433C84.3145 25.8102 85.2559 26.1236 86.2323 26.5083C87.3832 26.9255 88.5686 27.5529 88.5686 29.1923C88.5686 31.4235 86.7202 33.2362 83.7922 33.2362C82.8508 33.2362 81.456 32.9566 80.8636 32.3987L81.5604 30.377H82.0827C82.2929 31.4229 83.0948 32.1541 84.2801 32.1541C85.5349 32.1541 86.1979 31.2828 86.1979 30.6904C86.1979 30.0631 85.6049 29.714 84.8381 29.4C83.6177 28.8421 82.0489 28.3198 82.0489 26.507C82.0489 24.3453 83.8973 22.532 86.3374 22.532C87.5922 22.532 88.7081 22.881 89.3355 23.5084L88.4635 25.3924ZM98.2252 21.2078C97.3538 21.2078 96.7959 20.5798 96.7959 19.7785C96.7959 18.6976 97.7723 17.7912 98.7831 17.7912C99.6545 17.7912 100.212 18.3836 100.212 19.1861C100.212 20.2664 99.236 21.2078 98.2252 21.2078ZM97.5978 32.9566H94.6692L96.4463 22.8116H99.4099L97.5978 32.9566ZM106.732 25.3211C106.732 25.7752 106.663 26.2975 106.593 26.786H103.386C103.7 25.1128 104.396 23.509 105.687 23.509C106.488 23.509 106.732 24.3109 106.732 25.3211ZM109.556 26.0892C109.556 23.858 108.614 22.5326 105.861 22.5326C102.27 22.5326 99.899 25.3211 99.899 28.9822C99.899 31.5274 101.259 33.2706 104.362 33.2706C105.582 33.2706 106.488 32.9566 107.673 32.3293L108.37 31.1089L108.161 30.9C107.465 31.4235 106.349 31.8764 105.407 31.8764C103.942 31.8764 103.037 31.1089 103.037 29.3312C103.037 28.9127 103.071 28.4599 103.175 27.9714H109.346C109.486 27.2745 109.556 26.6471 109.556 26.0892ZM22.537 22.5326C21.1077 22.5326 19.9574 23.2644 19.3294 24.2765L20.6198 16.8499H17.6562L14.832 32.9566H17.7951L17.8995 32.5038C18.4225 32.9566 19.1549 33.2362 20.0613 33.2362C23.8612 33.2362 25.9529 29.5401 25.9529 26.3331C25.9886 23.9969 24.6988 22.5326 22.537 22.5326ZM19.8179 32.2598C18.7721 32.2598 18.4581 31.3184 18.4581 30.1337C18.4581 27.5535 19.3294 23.9281 21.4217 23.9281C22.4676 23.9281 22.8166 24.7994 22.851 25.9509C22.851 28.4599 21.7001 32.2598 19.8179 32.2598Z" fill="#828282"/>
</svg>
