<svg width="146" height="38" viewBox="0 0 146 38" fill="none" xmlns="http://www.w3.org/2000/svg">
<path d="M24.387 21.3663C24.4738 19.8077 25.2381 18.4331 26.3896 17.4582C27.5207 16.5008 29.042 15.9173 30.7017 15.9163C32.3613 15.9173 33.8827 16.5008 35.0138 17.4582C36.1652 18.4331 36.9296 19.8077 37.0174 21.3663C37.1051 22.9691 36.4616 24.4595 35.3308 25.5626C34.179 26.6852 32.5379 27.3906 30.7027 27.3906C28.8665 27.3906 27.2243 26.6852 26.0715 25.5626C24.9418 24.4595 24.2982 22.9691 24.387 21.3663Z" fill="#828282"/>
<path d="M14.3281 24.5207C14.3387 25.129 14.5346 26.3149 14.826 27.2432C15.4394 29.2034 16.4806 31.0183 17.9305 32.6179C19.4178 34.2601 21.2469 35.581 23.3621 36.5167C25.5857 37.5021 27.9954 38.005 30.4937 38C32.993 37.9957 35.4015 37.4846 37.625 36.4932C39.7384 35.5471 41.5675 34.223 43.0537 32.5766C44.5015 30.9707 45.5406 29.1529 46.1551 27.1916C46.4621 26.215 46.6578 25.2068 46.7386 24.1862C46.8155 23.1907 46.7833 22.1899 46.6426 21.2014C46.3669 19.2628 45.6955 17.443 44.6639 15.7841C43.7165 14.2609 42.5 12.9265 41.0519 11.8028L41.054 11.8007L26.4428 0.580421C26.4306 0.569879 26.4183 0.559484 26.4058 0.549227C25.4442 -0.185008 23.833 -0.182896 22.7796 0.554512C21.7117 1.30117 21.5919 2.53327 22.539 3.31299L22.5358 3.3151L28.6305 8.27257L10.0522 8.29214H10.0266C8.49176 8.2932 7.01694 9.30241 6.72346 10.5747C6.42495 11.8721 7.46827 12.9471 9.06392 12.9532L9.0618 12.9596L18.4778 12.9411L1.67424 25.8376C1.65362 25.854 1.63088 25.8696 1.61026 25.886C0.026773 27.0996 -0.486425 29.1188 0.511151 30.3964C1.52538 31.6956 3.67865 31.6967 5.2809 30.4017L14.451 22.8983C14.451 22.8983 14.3178 23.9115 14.3281 24.5207ZM37.8916 27.9116C36.0027 29.8388 33.3587 30.9294 30.4947 30.9344C27.6297 30.9397 24.9847 29.8573 23.0945 27.9351C22.1712 26.9975 21.4928 25.9222 21.0734 24.7729C20.6628 23.6438 20.5045 22.4384 20.6097 21.2416C20.7103 20.0739 21.0555 18.9405 21.6228 17.9149C22.1754 16.9131 22.9345 16.0083 23.8713 15.2421C25.7075 13.7446 28.0448 12.9347 30.4926 12.9315C32.9404 12.9286 35.2767 13.7321 37.114 15.2233C38.0497 15.9856 38.8088 16.8872 39.3603 17.8872C39.928 18.9116 40.2739 20.0439 40.3756 21.2107C40.4803 22.4078 40.3217 23.6134 39.9108 24.7428C39.4925 25.8934 38.8148 26.9706 37.8916 27.9116Z" fill="#000704"/>
<path d="M124.501 21.3428C124.644 19.7678 125.861 18.7691 127.719 18.7691C129.579 18.7691 130.796 19.7678 130.94 21.3428H124.501ZM130.748 25.2281C130.271 26.3962 129.151 27.0874 127.625 27.0874C125.717 27.0874 124.431 25.8955 124.383 24.0127H135.351V23.459C135.351 18.7443 132.585 16.0939 127.625 16.0939C122.809 16.0939 119.9 18.7691 119.9 22.9643C119.9 27.1833 122.856 29.853 127.625 29.853C130.485 29.853 132.707 28.8739 134.077 27.1471L130.748 25.2281ZM75.8228 21.3499C75.9684 19.7749 77.1831 18.7773 79.0431 18.7773C80.9011 18.7773 82.1189 19.7749 82.2614 21.3499H75.8228ZM82.0702 25.2366C81.594 26.4044 80.4725 27.0956 78.9471 27.0956C77.0395 27.0956 75.7516 25.9026 75.704 24.0198H86.6713V23.4672C86.6713 18.7525 83.9046 16.1013 78.9471 16.1013C74.129 16.1013 71.2227 18.7773 71.2227 22.9715C71.2227 27.1915 74.1766 29.8614 78.9471 29.8614C81.8069 29.8614 84.0284 28.8824 85.399 27.1553L82.0702 25.2366ZM66.2817 13.2445H70.2394V29.4297H66.2817V13.2445ZM87.6546 17.5431H91.633V18.5076C93.0449 17.0051 94.7336 16.246 96.6402 16.246C98.8389 16.246 100.503 17.0051 101.362 18.298C102.078 19.3669 102.125 20.6559 102.125 22.3517V29.4297H98.1406V23.2092C98.1406 20.6313 97.6222 19.4383 95.3573 19.4383C93.0666 19.4383 91.633 20.8016 91.633 23.0902V29.4297H87.6546V17.5431ZM114.936 23.1626C114.936 25.3791 113.456 26.8322 111.169 26.8322C108.878 26.8322 107.399 25.4275 107.399 23.1883C107.399 20.9174 108.855 19.5126 111.169 19.5126C113.456 19.5126 114.936 20.9401 114.936 23.1626ZM114.936 18.0833C113.933 17.0051 112.478 16.4131 110.453 16.4131C106.092 16.4131 103.108 19.1068 103.108 23.1399C103.108 27.0934 106.068 29.8593 110.38 29.8593C112.361 29.8593 113.815 29.3604 114.936 28.2378V29.4297H118.918V12.2168L114.936 13.2445V18.0833ZM57.2406 19.5126C59.553 19.5126 61.0072 20.9174 61.0072 23.1883C61.0072 25.4275 59.5292 26.8322 57.2406 26.8322C54.9519 26.8322 53.4729 25.3791 53.4729 23.1626C53.4729 20.9401 54.9519 19.5126 57.2406 19.5126ZM53.4729 13.2445L49.4902 12.2168V29.4297H53.4729V28.2378C54.5934 29.3604 56.0476 29.8593 58.0266 29.8593C62.3416 29.8593 65.2984 27.0934 65.2984 23.1399C65.2984 19.1068 62.3189 16.4131 57.9552 16.4131C55.9278 16.4131 54.4747 17.0051 53.4729 18.0833V13.2445ZM136.334 29.4297V17.5431H140.315V18.2773C141.507 16.8427 142.769 16.128 144.201 16.128C144.488 16.128 144.844 16.1746 145.322 16.2222V19.6096C144.94 19.5602 144.512 19.5602 144.058 19.5602C141.745 19.5602 140.315 21.0866 140.315 23.684V29.4297H136.334Z" fill="#828282"/>
</svg>
