<svg width="121" height="28" viewBox="0 0 121 28" fill="none" xmlns="http://www.w3.org/2000/svg">
<path fill-rule="evenodd" clip-rule="evenodd" d="M9.83709 0L11.2483 3.14066H4.65774V7.33682H13.2237L14.917 10.4775H4.65774V15.2043H11.8132L8.9333 18.3437H0V0H9.83709Z" fill="#828282"/>
<path fill-rule="evenodd" clip-rule="evenodd" d="M19.0249 4.87085L21.1759 8.61254L25.3979 4.87085H30.5514L23.6458 11.7093L27.791 18.4096H22.6071L20.6033 14.6247L8.1142 27.7238H2.92969L18.3012 11.5595L14.4491 4.87085H19.0249Z" fill="#000704"/>
<path fill-rule="evenodd" clip-rule="evenodd" d="M39.7402 9.7835C39.0894 7.62474 37.8829 7.59828 36.5537 7.54921C35.0676 7.47368 34.016 8.25223 33.5518 9.55756C33.3975 9.95845 32.9011 11.8913 33.4278 13.5232C34.1083 15.6581 35.2535 15.9583 36.6143 15.9835C37.6976 16.0338 39.0597 15.8828 39.7402 13.5749H43.9015C43.9324 15.4315 41.8518 17.2449 41.2301 17.6723C39.9571 18.527 39.0281 18.8311 36.3058 18.9079C31.0696 19.0564 29.2072 15.5832 28.896 13.5994C28.7101 12.3955 28.5545 10.0598 29.486 8.32776C31.4724 4.68227 33.7371 4.63191 36.5214 4.4815C38.1921 4.40532 39.9887 4.73262 40.9499 5.23487C42.844 6.19095 43.9002 8.67895 43.9002 9.7835H39.7402ZM50.0517 10.2664C50.0201 8.97591 51.0143 7.30842 53.6824 7.40848C56.2879 7.50919 56.723 9.22897 56.723 10.2664H50.0517ZM61.2239 12.6298C61.3175 10.9952 61.3175 9.15343 59.7965 7.15735C58.741 5.80619 56.6914 4.48085 53.4029 4.48085C51.4797 4.48085 46.9188 4.72939 45.833 10.063C45.6154 11.1205 45.6154 12.1753 45.6774 12.9803C45.771 13.8086 45.9253 14.4109 45.9873 14.6356C46.4217 15.8156 47.4456 17.0487 48.9975 17.8769C50.1763 18.4812 51.7283 18.9085 53.3712 18.9085C56.3189 18.9085 60.2923 17.1242 61.0373 14.4864H56.7546C56.5364 15.1901 55.4809 15.8156 54.2408 16.0171C53 16.1914 51.5714 15.9164 50.5792 14.8118C49.9588 14.1094 49.9588 13.3573 50.0517 12.6298H61.2239ZM63.0721 0H67.4122V18.3437H63.0721V0ZM69.8408 0H74.1803V18.3437H69.8408V0ZM80.849 10.2664C80.8173 8.97591 81.8109 7.30842 84.479 7.40848C87.0851 7.50919 87.5189 9.22897 87.5189 10.2664H80.849ZM92.0204 12.6298C92.114 10.9952 92.114 9.15343 90.5931 7.15735C89.5376 5.80619 87.4886 4.48085 84.1994 4.48085C82.2763 4.48085 77.716 4.72939 76.6289 10.063C76.412 11.1205 76.412 12.1753 76.474 12.9803C76.5676 13.8086 76.7225 14.4109 76.7839 14.6356C77.219 15.8156 78.2415 17.0487 79.7935 17.8769C80.9723 18.4812 82.5236 18.9085 84.1672 18.9085C87.1161 18.9085 91.0895 17.1242 91.8345 14.4864H87.5499C87.3317 15.1901 86.2775 15.8156 85.0354 16.0171C83.7947 16.1914 82.3686 15.9164 81.3751 14.8118C80.7547 14.1094 80.7547 13.3573 80.8483 12.6298H92.0204ZM94.3845 4.7281H98.7233V6.77647H98.7866C99.6252 5.34333 101.239 4.48925 102.922 4.4815C106.774 4.4815 109.378 5.7836 109.378 9.19798V18.3443H105.039V10.2309C105.039 9.0211 104.851 7.58472 101.898 7.58472C99.2514 7.58472 98.7233 8.76932 98.7233 9.87775V18.3437H94.3845V4.7281ZM112.711 5.00957V1.2737H117.05V5.00957H119.472V7.33682H117.05V14.9887C117.05 15.6672 117.174 16.1662 117.765 16.1662L119.41 16.1939V18.5806C118.757 18.7568 118.044 18.8834 117.33 18.9085C116.616 18.9337 115.934 18.8834 115.282 18.7323C113.981 18.4044 112.958 17.6264 112.711 16.1939V7.33682H110.569V5.00957H112.711ZM18.6942 27.8457H17.9453L18.8607 20.3765H19.6102L19.2765 23.0937C19.667 22.7296 20.1783 22.3926 20.6877 22.3926C21.6005 22.3926 22.5546 23.2183 22.2996 25.3015C22.0498 27.3377 20.749 28 20.0292 28C19.4437 28 19.0699 27.6824 18.7684 27.2421L18.6942 27.8457ZM18.8762 26.357C19.0331 26.8096 19.4759 27.3467 20.0034 27.3467C20.5218 27.3467 21.3235 26.8386 21.514 25.2828C21.6115 24.4875 21.5676 23.0459 20.5211 23.0459C19.9453 23.0459 19.465 23.4378 19.1783 23.9007L18.8762 26.357ZM28.395 22.5463H29.1426L28.4938 27.8457H27.7443L27.8121 27.2983C27.3273 27.6527 26.8715 27.9994 26.2666 27.9994C25.5178 27.9994 24.9632 27.5855 25.1324 26.204L25.581 22.5463H26.3305L25.9057 26.0123C25.838 26.5694 25.8334 27.3841 26.4377 27.3841C26.8986 27.3841 27.559 26.9342 27.9005 26.5772L28.395 22.5463ZM35.0276 23.7264C34.7829 23.2848 34.4595 23.0266 33.9043 23.0266C33.4143 23.0266 32.9224 23.2764 32.8565 23.8148C32.6977 25.1098 35.5608 24.5437 35.3419 26.328C35.2148 27.3654 34.3981 28 33.3994 28C32.5447 28 31.9004 27.6256 31.5577 26.8864L32.1987 26.5107C32.4208 27.0594 32.8423 27.3654 33.4763 27.3654C34.0237 27.3654 34.5498 27.0691 34.6241 26.4629C34.7868 25.1292 31.9166 25.7631 32.1496 23.8606C32.2613 22.9504 33.078 22.3933 33.952 22.3933C34.6912 22.3933 35.2677 22.6999 35.606 23.3151L35.0276 23.7264ZM38.8609 27.8457H38.1121L38.7621 22.5463H39.511L38.8609 27.8457ZM39.6763 21.2022H38.9274L39.0281 20.3765H39.7783L39.6763 21.2022ZM42.7007 27.8457H41.9512L42.6013 22.5463H43.3508L43.2824 23.0937C43.7685 22.7393 44.2236 22.3926 44.8291 22.3926C45.5767 22.3926 46.1325 22.8064 45.9621 24.188L45.5141 27.8457H44.7646L45.1894 24.381C45.2578 23.8226 45.4528 23.0079 44.6574 23.0079C44.1965 23.0079 43.5374 23.4565 43.1946 23.8148L42.7007 27.8457ZM49.5476 25.3216C49.3616 26.8386 49.9401 27.3654 50.7076 27.3654C51.2641 27.3654 51.7902 26.9142 52.1156 26.4539L52.6095 26.8096C52.2389 27.4919 51.4662 28 50.5533 28C49.372 28 48.5314 27.1827 48.7755 25.1957C49.0195 23.2099 50.0595 22.3926 51.2409 22.3926C52.7676 22.3926 53.0084 24.024 52.7437 25.3216H49.5476ZM52.0336 24.6876C52.1376 24.0053 51.8922 23.0272 51.1053 23.0272C50.2596 23.0272 49.7445 23.9388 49.6437 24.6876H52.0336ZM58.8818 23.7264C58.6384 23.2848 58.3149 23.0266 57.7585 23.0266C57.2678 23.0266 56.7766 23.2764 56.7114 23.8148C56.5519 25.1098 59.415 24.5437 59.1955 26.328C59.0683 27.3654 58.2517 28 57.2543 28C56.3996 28 55.754 27.6256 55.4125 26.8864L56.0529 26.5107C56.2743 27.0594 56.6978 27.3654 57.3311 27.3654C57.8785 27.3654 58.406 27.0691 58.4776 26.4629C58.641 25.1292 55.7708 25.7631 56.0038 23.8606C56.1155 22.9504 56.9328 22.3933 57.8056 22.3933C58.5461 22.3933 59.1225 22.6999 59.4595 23.3151L58.8818 23.7264ZM65.4097 23.7264C65.1663 23.2848 64.8422 23.0266 64.2851 23.0266C63.7958 23.0266 63.3039 23.2764 63.2387 23.8148C63.0798 25.1098 65.9429 24.5437 65.7241 26.328C65.5969 27.3654 64.7796 28 63.7822 28C62.9288 28 62.2819 27.6256 61.9411 26.8864L62.5815 26.5107C62.8023 27.0594 63.2245 27.3654 63.859 27.3654C64.4078 27.3654 64.932 27.0691 65.0062 26.4629C65.1702 25.1292 62.2981 25.7631 62.5324 23.8606C62.6434 22.9504 63.4614 22.3933 64.3342 22.3933C65.074 22.3933 65.6505 22.6999 65.9875 23.3151L65.4097 23.7264ZM76.6205 23.7264C76.3772 23.2848 76.0544 23.0266 75.4972 23.0266C75.0066 23.0266 74.5153 23.2764 74.4508 23.8148C74.2907 25.1098 77.1544 24.5437 76.9362 26.328C76.8077 27.3654 75.9918 28 74.9931 28C74.1383 28 73.4928 27.6256 73.1519 26.8864L73.7923 26.5107C74.0131 27.0594 74.4379 27.3654 75.0705 27.3654C75.618 27.3654 76.1447 27.0691 76.2164 26.4629C76.3817 25.1292 73.5109 25.7631 73.7426 23.8606C73.8549 22.9504 74.6716 22.3933 75.5444 22.3933C76.2842 22.3933 76.862 22.6999 77.1983 23.3151L76.6205 23.7264ZM79.8768 25.1957C80.1201 23.2099 81.1614 22.3926 82.3415 22.3926C83.5216 22.3926 84.3628 23.2099 84.1207 25.1957C83.876 27.1827 82.836 28 81.6546 28C80.4732 28 79.6327 27.1827 79.8768 25.1957ZM83.3712 25.1957C83.4822 24.2932 83.4164 23.0272 82.2653 23.0272C81.113 23.0272 80.736 24.2932 80.6262 25.1957C80.5152 26.0995 80.5811 27.3654 81.7321 27.3654C82.8844 27.3654 83.2601 26.0995 83.3712 25.1957ZM89.3388 23.1809H88.3601L87.7888 27.8464H87.0399L87.6125 23.1809H86.8056L86.8824 22.5469H87.6881L87.8081 21.5876C87.9179 20.6838 88.484 20.2248 89.3769 20.2248L89.7629 20.2816L89.6848 20.9259C89.5702 20.8825 89.449 20.8591 89.3265 20.8568C88.7603 20.8568 88.6119 21.1467 88.5576 21.5766L88.4389 22.5476H89.4175L89.3388 23.1809ZM93.1108 22.5463H94.3109L94.2341 23.1802H93.034L92.6266 26.51C92.5621 27.0284 92.5104 27.3648 93.1256 27.3648C93.3361 27.3648 93.5407 27.346 93.7286 27.2976L93.6628 27.8451C93.4116 27.9309 93.1534 27.9987 92.8952 27.9987C91.6266 27.9987 91.7997 27.144 91.9178 26.1743L92.2845 23.1796H91.4788L91.5556 22.5456H92.3626L92.573 20.8272H93.3219L93.1108 22.5463ZM100.565 27.8457H99.8253L99.3811 23.6399H99.3624L97.857 27.8457H97.0978L96.3857 22.5463H97.1159L97.6046 26.8574H97.6239L99.1694 22.5463H99.8995L100.341 26.8574H100.36L101.877 22.5463H102.615L100.565 27.8457ZM107.493 27.8457L107.5 27.1737C107.016 27.5959 106.487 27.9994 105.863 27.9994C105.047 27.9994 104.477 27.317 104.579 26.4836C104.767 24.9639 106.4 24.6392 107.61 24.3222L107.857 24.2544L107.893 23.9568C107.968 23.3513 107.597 23.0266 107 23.0266C106.415 23.0266 105.964 23.4113 105.602 23.86L105.121 23.4681C105.641 22.8342 106.271 22.3926 107.078 22.3926C107.798 22.3926 108.781 22.8342 108.633 24.0433L108.31 26.6747C108.271 27.0691 108.201 27.4726 108.311 27.8457H107.493ZM107.473 24.9575C106.737 25.1666 105.407 25.4565 105.288 26.4061C105.235 26.8464 105.526 27.2899 105.979 27.2899C106.573 27.2899 107.17 26.8761 107.591 26.4248L107.781 24.8703L107.473 24.9575ZM112.534 23.6889H112.553C112.929 23.055 113.384 22.4708 114.171 22.4708H114.46L114.375 23.1505C113.414 23.0169 112.775 24.0737 112.393 24.8413L112.025 27.8457H111.276L111.926 22.5463H112.675L112.534 23.6889ZM117.489 25.3216C117.302 26.8386 117.88 27.3654 118.649 27.3654C119.206 27.3654 119.732 26.9142 120.057 26.4539L120.552 26.8096C120.181 27.4919 119.407 28 118.494 28C117.315 28 116.472 27.1827 116.717 25.1957C116.96 23.2099 118.002 22.3926 119.182 22.3926C120.707 22.3926 120.949 24.024 120.685 25.3216H117.489ZM119.975 24.6876C120.079 24.0053 119.834 23.0272 119.046 23.0272C118.201 23.0272 117.687 23.9388 117.586 24.6876H119.975Z" fill="#828282"/>
</svg>
