<svg width="121" height="40" viewBox="0 0 121 40" fill="none" xmlns="http://www.w3.org/2000/svg">
<path fill-rule="evenodd" clip-rule="evenodd" d="M11.1506 12.0703C4.9764 12.0703 0 17.0467 0 23.0363C0 29.0258 4.9764 34.0022 11.1506 34.0022C17.3248 34.0022 22.3005 29.0258 22.3005 23.0363C22.3005 17.0467 17.3248 12.0703 11.1506 12.0703ZM11.1506 32.8038C6.54278 32.8038 2.76481 28.3813 2.76481 22.9449C2.76481 17.4153 6.54342 12.9921 11.1506 12.9921C15.7577 12.9921 19.5363 17.4153 19.5363 22.9449C19.5363 28.3813 15.7584 32.8038 11.1506 32.8038Z" fill="#000704"/>
<path fill-rule="evenodd" clip-rule="evenodd" d="M7.46484 31.6985C9.67643 26.0775 16.1272 30.3168 16.9564 33.4502C18.7074 38.7952 21.9328 39.809 25.4342 36.4909C22.2088 42.6651 16.3112 39.4397 14.9288 36.3076C13.0858 30.9626 11.1508 28.1972 7.46484 31.6985Z" fill="#000704"/>
<path fill-rule="evenodd" clip-rule="evenodd" d="M40.5459 8.20115V18.7065C40.5459 19.4437 40.6385 19.813 40.8225 19.9969C41.0071 20.1809 41.4677 20.2729 42.0209 20.2729V20.6421C41.4677 20.8268 40.9151 21.0101 40.3619 21.2867C39.7167 21.4713 39.0721 21.7479 38.3343 22.0239H38.1503V19.7197C37.4131 20.6415 36.6759 21.2861 36.0307 21.6553C35.2935 22.0233 34.5563 22.2079 33.6345 22.2079C32.7127 22.2079 31.8835 21.9313 31.2383 21.562C30.5931 21.1941 30.0405 20.5482 29.6719 19.9037C29.4873 19.4431 29.3953 19.0738 29.3033 18.5213C29.2113 18.0607 29.2113 17.3235 29.2113 16.3097V10.0435C29.2113 9.49092 29.1187 9.21367 28.8427 9.02969C28.6587 8.9377 28.1975 8.84571 27.4609 8.75308V8.20051H31.6075V15.9411C31.6075 17.876 31.7915 19.1665 32.2521 19.8117C32.7127 20.4562 33.5418 20.7328 34.7403 20.7328C35.3848 20.7328 36.03 20.5482 36.6753 20.1803C37.2278 19.7197 37.781 19.1665 38.1496 18.3373V10.5967C38.1496 9.85952 38.057 9.3063 37.873 9.12232C37.6884 8.84571 37.2278 8.75373 36.5826 8.75373H36.4906V8.20115H40.5459ZM45.0617 21.1027V17.3241H45.7062C45.9828 18.7985 46.4434 19.8123 46.9966 20.4569C47.5492 21.1027 48.1944 21.4707 49.1162 21.4707C49.9454 21.4707 50.5906 21.1941 51.1432 20.6415C51.6038 20.1803 51.8804 19.5357 51.8804 18.7059C51.8804 18.0613 51.6958 17.5081 51.3272 17.1395C50.9586 16.6789 50.2214 16.1257 49.1156 15.5725C47.4566 14.7433 46.3508 14.0981 45.8902 13.5455C45.4296 12.9929 45.2456 12.2557 45.2456 11.5185C45.2456 10.4127 45.7062 9.49156 46.5354 8.84636C47.2726 8.20115 48.3784 7.83255 49.7608 7.83255C50.406 7.83255 51.0506 7.92454 51.6958 8.10916C52.341 8.29313 52.9862 8.47776 53.6308 8.84636V12.1637H52.9862C52.8016 11.0579 52.4336 10.1368 51.7884 9.39958C51.1432 8.75437 50.406 8.38577 49.4842 8.38577C48.8396 8.38577 48.2864 8.57039 47.8252 8.93834C47.3646 9.30694 47.18 9.85952 47.18 10.4127C47.18 11.2419 47.8252 12.0711 49.1156 12.7163C49.2076 12.8083 49.3002 12.8083 49.3922 12.9003C49.4842 12.9929 49.7608 13.0849 50.1294 13.2689C52.8936 14.7433 54.184 16.2177 54.184 17.7841C54.184 19.0738 53.7234 20.1803 52.7096 20.9175C51.7878 21.7466 50.498 22.1146 48.931 22.1146C48.1938 22.1146 47.6412 22.0226 46.9034 21.9313C46.2594 21.7473 45.7062 21.4707 45.0617 21.1027ZM58.3312 1.56638C58.3312 1.10579 58.5152 0.73655 58.7918 0.460584C59.1604 0.091986 59.529 0 59.9896 0C60.4502 0 60.8194 0.091986 61.1874 0.460584C61.464 0.737194 61.6486 1.10579 61.6486 1.56638C61.6486 2.02697 61.464 2.39556 61.1874 2.76416C60.8194 3.04077 60.4502 3.22475 59.9896 3.22475C59.529 3.22475 59.1604 3.04013 58.8838 2.76416C58.5152 2.39556 58.3312 2.02697 58.3312 1.56638ZM61.464 7.83255V19.4431C61.464 20.1803 61.5572 20.7328 61.7406 20.9175C62.0172 21.1021 62.4778 21.1941 63.2156 21.1941V21.8386H57.2254V21.1941C57.8706 21.1941 58.3312 21.0095 58.6078 20.8261C58.7924 20.5482 58.8844 19.9037 58.8844 18.8905V11.8871C58.8844 11.2426 58.7924 10.7813 58.6078 10.5047C58.4232 10.2281 58.0552 9.95215 57.41 9.67554V9.30694C58.0552 9.12297 58.6998 8.93834 59.253 8.66238C59.8982 8.47776 60.4508 8.10981 61.096 7.8332H61.464V7.83255ZM65.8878 21.1941C66.717 21.1021 67.1782 21.0095 67.3615 20.8261C67.5462 20.6415 67.6381 20.1803 67.6381 19.2591V11.8871C67.6381 11.2426 67.5462 10.7813 67.2702 10.5047C67.0856 10.2281 66.7176 9.95215 66.1644 9.67554V9.30694C66.809 9.12297 67.4548 8.93834 68.0074 8.66238C68.5991 8.40373 69.1828 8.12722 69.7577 7.8332H70.0356V10.3214C70.8648 9.39957 71.6014 8.75436 72.2472 8.38641C72.8918 8.01781 73.721 7.83384 74.5502 7.83384C76.1172 7.83384 77.2223 8.29443 77.9602 9.30823C78.606 10.322 78.974 11.8884 78.974 14.1V20.0902C78.974 20.4582 79.066 20.8274 79.2506 20.9194C79.4352 21.104 79.8952 21.196 80.7243 21.196L80.8176 21.8406H75.012V21.196C75.7492 21.196 76.2105 21.104 76.3938 20.9194C76.4871 20.8274 76.5784 20.5501 76.5784 20.0902V13.3615C76.5784 11.9798 76.3938 10.8733 75.8412 10.2281C75.38 9.49092 74.6441 9.21431 73.6296 9.21431C72.8004 9.21431 72.1546 9.39893 71.602 9.76753C70.9575 10.1361 70.4962 10.6893 70.0363 11.4259V19.4431C70.0363 20.2723 70.1283 20.7328 70.4042 20.9175C70.5889 21.1021 71.0488 21.1941 71.786 21.1941V21.8386H65.8884L65.8878 21.1941ZM91.4124 11.7025C91.7816 11.7025 92.0583 11.7025 92.2429 11.5179C92.4262 11.3333 92.5195 11.1493 92.5195 10.7807C92.5195 10.1355 92.2429 9.58226 91.6903 9.21367C91.1364 8.75308 90.3999 8.47647 89.4781 8.47647C89.3861 8.47647 89.2015 8.47647 89.1101 8.5691V7.8319H89.9393C91.5063 7.8319 92.8881 8.29249 93.9939 9.12168C95.1923 10.0435 95.7455 10.9647 95.7455 11.9785C95.7455 12.1625 95.7455 12.3471 95.6522 12.4391C95.5603 12.5311 95.4689 12.531 95.1923 12.531H89.1101V11.7019L91.4124 11.7025ZM89.1095 22.2079V19.9963C89.5707 20.1803 90.1233 20.1803 90.7678 20.1803C91.8736 20.1803 92.7954 19.9037 93.7166 19.3511C94.5458 18.7979 95.1917 17.9687 95.5596 16.9549L96.2042 17.1395C95.6516 18.7059 94.8224 19.9963 93.7166 20.8261C92.5195 21.7473 91.1358 22.2079 89.5707 22.2079H89.1095ZM89.1095 8.56975C88.3723 8.66173 87.6344 8.93834 87.0819 9.39893C86.4373 9.95151 85.9761 10.7813 85.7001 11.7032H89.1101V12.5323H85.5155C85.4235 13.1769 85.4235 13.6381 85.3321 14.0067V14.8366C85.3321 16.4029 85.7921 17.6927 86.8992 18.7065C87.5437 19.3517 88.2809 19.7203 89.1107 19.9969V22.2085C87.3591 22.1152 85.9773 21.4713 84.8715 20.2723C83.5811 18.9831 82.9366 17.3241 82.9366 15.3891C82.9366 13.0849 83.5811 11.2426 84.8715 9.85952C85.8854 8.66173 87.3591 8.01653 89.1107 7.83255V8.56975H89.1095ZM98.785 21.1027V17.3241H99.4296C99.7988 18.7985 100.167 19.8123 100.72 20.4569C101.273 21.1027 102.01 21.4707 102.84 21.4707C103.669 21.4707 104.407 21.1941 104.867 20.6415C105.42 20.1803 105.696 19.5357 105.696 18.7059C105.696 18.0613 105.512 17.5081 105.144 17.1395C104.683 16.6789 103.945 16.1257 102.932 15.5725C101.181 14.7433 100.167 14.0981 99.7055 13.5455C99.2345 12.9745 98.9744 12.2587 98.969 11.5185C98.969 10.4127 99.4289 9.49156 100.259 8.84636C101.089 8.20115 102.194 7.83255 103.485 7.83255C104.221 7.83255 104.867 7.92454 105.511 8.10916C106.157 8.29313 106.802 8.47776 107.354 8.84636V12.1637H106.71C106.616 11.0579 106.248 10.1368 105.604 9.39958C104.958 8.75437 104.221 8.38577 103.3 8.38577C102.562 8.38577 102.009 8.57039 101.548 8.93834C101.18 9.30694 100.903 9.85952 100.903 10.4127C100.903 11.2419 101.548 12.0711 102.931 12.7163C103.023 12.8083 103.114 12.8083 103.114 12.9003C103.299 12.9929 103.576 13.0849 103.943 13.2689C106.616 14.7433 107.999 16.2177 107.999 17.7841C107.999 19.0738 107.538 20.1803 106.524 20.9175C105.51 21.7466 104.22 22.1146 102.654 22.1146C102.008 22.1146 101.364 22.0226 100.718 21.9313C100.043 21.7335 99.3938 21.4553 98.785 21.1027ZM111.133 21.1027V17.3241H111.779C112.056 18.7985 112.516 19.8123 113.07 20.4569C113.622 21.1027 114.267 21.4707 115.188 21.4707C116.018 21.4707 116.663 21.1941 117.216 20.6415C117.677 20.1803 117.953 19.5357 117.953 18.7059C117.953 18.0613 117.768 17.5081 117.4 17.1395C117.031 16.6789 116.294 16.1257 115.188 15.5725C113.53 14.7433 112.424 14.0981 111.963 13.5455C111.503 12.9929 111.318 12.2557 111.318 11.5185C111.318 10.4127 111.779 9.49156 112.608 8.84636C113.438 8.20115 114.451 7.83255 115.834 7.83255C116.478 7.83255 117.124 7.92454 117.769 8.10916C118.413 8.29313 119.059 8.47776 119.704 8.84636V12.1637H119.059C118.967 11.0579 118.507 10.1368 117.861 9.39958C117.216 8.75437 116.479 8.38577 115.558 8.38577C114.912 8.38577 114.359 8.57039 113.899 8.93834C113.438 9.30694 113.254 9.85952 113.254 10.4127C113.254 11.2419 113.899 12.0711 115.189 12.7163C115.282 12.8083 115.373 12.8083 115.465 12.9003L116.202 13.2689C118.968 14.7433 120.35 16.2177 120.35 17.7841C120.35 19.0738 119.797 20.1803 118.783 20.9175C117.86 21.7466 116.571 22.1146 115.005 22.1146C114.359 22.1146 113.714 22.0226 112.977 21.9313C112.332 21.7473 111.779 21.4707 111.133 21.1027Z" fill="#828282"/>
<path fill-rule="evenodd" clip-rule="evenodd" d="M33.4514 27.1847V33.5435C33.4514 34.0048 33.5434 34.2807 33.6354 34.3727C33.82 34.466 34.0959 34.5574 34.5572 34.5574V34.742C34.0966 34.834 33.728 35.0186 33.2668 35.1099C32.8062 35.2945 32.3449 35.3865 31.885 35.5712H31.7004V34.1894C31.1478 34.742 30.5946 35.1106 30.134 35.3865C29.5698 35.5754 28.978 35.6689 28.383 35.6631C27.7378 35.6631 27.1846 35.5712 26.632 35.2952C26.1714 35.0186 25.7102 34.7426 25.5262 34.2814C25.3416 34.0048 25.2496 33.7288 25.2496 33.4522C25.1576 33.1756 25.1576 32.715 25.1576 32.1618V28.2905C25.1576 28.0139 25.0656 27.8306 24.881 27.738C24.789 27.646 24.4204 27.5546 23.8672 27.5546V27.1854H26.908V31.8858C26.908 33.083 27.0926 33.8208 27.3685 34.19C27.7371 34.65 28.2904 34.8346 29.1196 34.8346C29.6728 34.8346 30.1334 34.65 30.5939 34.4666C31.0491 34.1957 31.4293 33.8151 31.6997 33.3596V28.6604C31.6997 28.1992 31.6077 27.9232 31.4231 27.738C31.3305 27.646 30.9625 27.5546 30.5013 27.5546H30.4093V27.1854L33.4514 27.1847ZM42.5743 29.397C42.851 29.397 43.0349 29.3037 43.2196 29.2124C43.3115 29.1204 43.4035 28.9357 43.4035 28.7511C43.4035 28.3832 43.2196 28.0139 42.7583 27.83C42.3897 27.5533 41.8365 27.3687 41.1919 27.3687C41.1 27.3687 41.0073 27.3687 40.9153 27.4607V27.0008H41.5599C42.6657 27.0008 43.6795 27.2774 44.5087 27.7373C45.3379 28.2899 45.7985 28.8444 45.7985 29.489C45.7985 29.5809 45.7985 29.6736 45.7058 29.7656C45.6138 29.8576 45.5218 29.8576 45.3372 29.8576H40.914V29.3976L42.5743 29.397ZM40.9153 35.6631V34.3727C41.2839 34.466 41.6525 34.466 42.1131 34.466C42.9429 34.466 43.6801 34.2814 44.3247 34.0048C44.8773 33.6355 45.3385 33.0823 45.7065 32.5297L46.0757 32.6224C45.7071 33.5435 45.1539 34.3727 44.2327 34.9253C43.4029 35.4779 42.3897 35.6625 41.2839 35.6625L40.9153 35.6631ZM40.9153 27.4607C40.3628 27.4607 39.9015 27.646 39.4409 27.9226C38.9804 28.2905 38.6111 28.7518 38.4271 29.3976H40.9153V29.8576H38.3351C38.2432 30.2268 38.2432 30.5034 38.1512 30.6867V31.2406C38.1512 32.1618 38.5198 32.991 39.257 33.5435C39.7176 33.9115 40.2701 34.1894 40.9153 34.3727V35.6631C39.7176 35.6631 38.6118 35.2019 37.7826 34.5574C36.8608 33.7282 36.4002 32.7144 36.4002 31.6086C36.4002 30.1335 36.8608 29.0277 37.7826 28.1985C38.6808 27.4897 39.774 27.072 40.916 27.0014V27.4613L40.9153 27.4607ZM53.9089 29.397C54.1855 29.397 54.3695 29.3037 54.4615 29.2124C54.6455 29.1204 54.6455 28.9357 54.6455 28.7511C54.6455 28.3832 54.4615 28.0139 54.0929 27.83C53.6323 27.5533 53.1711 27.3687 52.5259 27.3687C52.4339 27.3687 52.2492 27.3687 52.1579 27.4607V27.0008H52.8025C54.0002 27.0008 54.9214 27.2774 55.8432 27.7373C56.6724 28.2899 57.1337 28.8444 57.1337 29.489C57.1337 29.5809 57.041 29.6736 57.041 29.7656C56.949 29.8576 56.857 29.8576 56.6724 29.8576H52.1573V29.3976L53.9089 29.397ZM52.1585 35.6631V34.3727C52.5265 34.466 52.9877 34.466 53.3563 34.466C54.1173 34.4651 54.87 34.3081 55.5679 34.0048C56.1629 33.6587 56.6435 33.1459 56.9503 32.5297L57.4109 32.6224C57.0423 33.5435 56.3971 34.3727 55.5679 34.9253C54.6461 35.4779 53.6329 35.6625 52.5265 35.6625L52.1585 35.6631ZM52.1585 27.4613C51.6973 27.4613 51.1447 27.646 50.7761 27.9226C50.2236 28.2905 49.947 28.7518 49.6703 29.3976H52.1585V29.8576H49.5784C49.5784 30.2268 49.4857 30.5034 49.4857 30.6867V31.2406C49.4857 32.1618 49.8543 32.991 50.5915 33.5435C51.0521 33.9115 51.6053 34.1894 52.1585 34.3727V35.6631C50.9601 35.6631 49.947 35.2019 49.1171 34.5574C48.1953 33.7282 47.7347 32.7144 47.7347 31.6086C47.7347 30.1335 48.1953 29.0277 49.1171 28.1985C49.9463 27.554 50.9601 27.0928 52.1585 27.0014V27.4613ZM59.1613 35.1099C59.7138 35.0179 60.1751 34.9253 60.2671 34.8333C60.3597 34.7413 60.4517 34.4654 60.4517 33.9109V29.397C60.4517 29.0277 60.3597 28.7511 60.1751 28.5678C60.0831 28.3832 59.8065 28.2899 59.3459 28.1066V27.9219C59.8065 27.7373 60.2671 27.6453 60.7283 27.4607C61.1882 27.3687 61.5575 27.1841 62.0174 27.0008H62.202V28.4745C62.6852 27.9869 63.2455 27.5825 63.8604 27.2774C64.3216 27.0928 64.8742 27.0008 65.5201 27.0008C66.6259 27.0008 67.455 27.2774 68.0076 27.9219C68.4689 28.4745 68.7448 29.489 68.7448 30.7787V34.3721C68.7448 34.6487 68.8368 34.8333 68.9282 34.9247C69.0214 35.0179 69.3894 35.0179 70.0352 35.1093V35.4772H65.796V35.1093C66.3486 35.0173 66.7172 35.0173 66.8086 34.9247C66.9018 34.8327 66.9932 34.6481 66.9932 34.3721V30.4095C66.9932 29.4883 66.8086 28.8438 66.4406 28.4745C66.0726 28.0133 65.5194 27.83 64.7822 27.83C64.2297 27.83 63.7684 27.9219 63.3072 28.1066C62.9392 28.3832 62.478 28.6591 62.2014 29.1204V34.0041C62.2014 34.4654 62.2934 34.8333 62.478 34.9253C62.5713 35.0186 62.9392 35.1099 63.4005 35.1099V35.4779H59.1613V35.1099ZM71.9709 35.0186V32.7144H72.4308C72.6154 33.6355 72.892 34.2814 73.3533 34.6493C73.7212 35.0186 74.2744 35.2019 74.9203 35.2019C75.4729 35.2019 75.9341 35.1099 76.394 34.742C76.7633 34.4654 76.9466 34.0048 76.9466 33.5435C76.9466 33.1756 76.7633 32.899 76.4867 32.6224C76.2101 32.3458 75.7495 32.0698 74.9197 31.6999C73.6292 31.1473 72.892 30.7787 72.5234 30.4095C72.2468 30.0415 72.0622 29.6729 72.0622 29.2124C72.0622 28.5678 72.3388 28.0139 72.9847 27.554C73.6292 27.1847 74.3664 27.0014 75.3796 27.0014C75.8408 27.0014 76.3021 27.0014 76.8546 27.0934C77.3159 27.278 77.7758 27.37 78.2364 27.646V29.581H77.7752C77.5918 28.9364 77.3152 28.3838 76.854 27.9226C76.3927 27.5546 75.8402 27.37 75.1956 27.37C74.643 27.37 74.2732 27.462 73.9972 27.6466C73.6292 27.9232 73.4446 28.1992 73.4446 28.5691C73.4446 29.029 73.9972 29.4902 74.9197 29.9508C75.0116 29.9508 75.0116 30.0428 75.103 30.0428C75.1963 30.0428 75.3796 30.1348 75.6556 30.3194C77.6832 31.1486 78.6056 32.0711 78.6056 33.0836C78.6056 33.8208 78.2364 34.4666 77.4985 34.9266C76.854 35.3878 75.9328 35.6638 74.7344 35.6638C74.2731 35.6638 73.8132 35.5718 73.2606 35.4792C72.8 35.3865 72.3388 35.2019 71.9709 35.0186ZM83.8573 34.0041C83.8573 34.4654 83.9506 34.8333 84.042 34.9253C84.2266 35.0186 84.5945 35.1099 85.0558 35.1099V35.4779H80.8166V35.1099C81.3691 35.1099 81.6458 35.0179 81.8304 34.8333C82.0137 34.6487 82.107 34.2807 82.107 33.7275V24.6972C82.107 24.3292 82.0137 23.96 81.8304 23.868C81.7371 23.6834 81.4611 23.5 80.9999 23.4068V23.1302C81.4611 23.0382 81.9224 22.8535 82.383 22.7622C82.8429 22.5776 83.2121 22.393 83.6734 22.2096H83.8567L83.8573 34.0041ZM92.3357 33.8195V31.0553C91.5985 31.24 90.954 31.4233 90.4928 31.6999V31.1473C91.0453 30.964 91.6912 30.7794 92.4277 30.5028V28.6598C92.4277 28.2905 92.2444 28.0139 92.0598 27.8306C91.8752 27.646 91.5072 27.554 91.046 27.554H90.4934V27.0928C90.8614 27.0008 91.4146 27.0008 91.8752 27.0008C92.7043 27.0008 93.2569 27.0928 93.6268 27.4607C93.9948 27.8299 94.1794 28.5678 94.1794 29.6729V34.2801C94.1794 34.4647 94.2714 34.5567 94.2714 34.6481C94.3646 34.7413 94.548 34.7413 94.6406 34.7413C94.8239 34.7413 95.0086 34.7413 95.1006 34.5567C95.1938 34.4647 95.1938 34.3721 95.2852 34.0955H95.6531C95.6531 34.5567 95.4698 34.9247 95.1006 35.2013C94.824 35.4779 94.364 35.5705 93.9034 35.5705C93.4428 35.5705 93.0742 35.4772 92.7976 35.2939C92.4284 35.0173 92.3364 34.7413 92.245 34.3714C91.6925 34.7407 91.138 35.1086 90.5854 35.2939C90.5854 35.3859 90.4934 35.3859 90.4934 35.3859V34.6487C90.678 34.5567 90.9546 34.5567 91.2306 34.4654C91.5066 34.3727 91.8745 34.1894 92.3357 33.8195ZM90.4928 31.6999C90.0315 31.8845 89.6636 32.0691 89.387 32.1611C88.8344 32.5291 88.5578 32.8983 88.5578 33.2669C88.5578 33.6355 88.7424 34.0041 89.019 34.2807C89.387 34.4654 89.8482 34.6487 90.3081 34.6487H90.4928V35.3859C90.0542 35.566 89.5851 35.6599 89.111 35.6625C88.4651 35.6625 88.0052 35.4779 87.544 35.2013C87.176 34.9247 86.9914 34.4647 86.9914 34.0041C86.9914 33.2669 87.3593 32.7137 88.0972 32.2525C88.5584 31.8845 89.3876 31.5159 90.4934 31.1467V31.6999H90.4928ZM90.4928 27.0928V27.554C90.1248 27.646 89.8482 27.7373 89.5716 27.8306C89.2023 28.0139 89.019 28.2905 89.019 28.5678C89.019 29.1204 88.9257 29.5803 88.7424 29.7649C88.5578 30.0415 88.2812 30.1329 87.8199 30.1329C87.5433 30.1329 87.3587 30.0409 87.1754 29.9495C87.0821 29.8563 86.9907 29.6729 86.9907 29.397C86.9907 28.9357 87.5433 28.3832 88.5578 27.83C89.2023 27.4614 89.8482 27.2774 90.4928 27.0928ZM97.0362 35.1099C97.6807 35.0179 98.0487 34.9253 98.142 34.8333C98.3253 34.7413 98.3253 34.4654 98.3253 33.9109V29.397C98.3295 29.1101 98.2667 28.8262 98.142 28.5678C97.9574 28.3832 97.6807 28.2899 97.2195 28.1066V27.9219C97.7721 27.7373 98.2333 27.6453 98.6013 27.4607C99.0625 27.3687 99.5237 27.1841 99.8917 27.0008H100.168L100.076 28.4745C100.559 27.9869 101.12 27.5825 101.735 27.2774C102.196 27.0928 102.748 27.0008 103.393 27.0008C104.499 27.0008 105.328 27.2774 105.882 27.9219C106.342 28.4745 106.618 29.489 106.618 30.7787V34.3721C106.618 34.6487 106.712 34.8333 106.803 34.9247C106.988 35.0179 107.356 35.0179 107.909 35.1093L108.002 35.4772H103.67V35.1093C104.223 35.0173 104.593 35.0173 104.684 34.9247C104.869 34.8327 104.869 34.6481 104.869 34.3721V30.4095C104.869 29.4883 104.684 28.8438 104.408 28.4745C104.04 28.0133 103.486 27.83 102.657 27.83C102.105 27.83 101.643 27.9219 101.182 28.1066C100.814 28.3832 100.445 28.6591 100.076 29.1204V34.0041C100.076 34.4654 100.168 34.8333 100.353 34.9253C100.538 35.0186 100.814 35.1099 101.367 35.1099V35.4779H97.0362V35.1099ZM117.401 33.8195V30.7787C117.401 29.6729 117.216 28.8438 116.755 28.2899C116.295 27.7373 115.558 27.4607 114.636 27.4607H114.544V27.0008H114.728C115.096 27.0008 115.465 27.0928 115.925 27.0928C116.387 27.1847 116.848 27.2774 117.4 27.4607V24.6965C117.4 24.2353 117.307 23.9593 117.124 23.7754C116.939 23.5907 116.663 23.4988 116.201 23.4061V23.1295C116.663 23.0375 117.215 22.9462 117.676 22.7616C118.136 22.5769 118.598 22.3923 119.058 22.209H119.243V33.9109C119.243 34.0955 119.335 34.2801 119.426 34.3721C119.519 34.4654 119.795 34.5567 120.255 34.6487V34.8333C119.703 35.0179 119.243 35.1099 118.782 35.2945C118.412 35.3865 117.952 35.4779 117.676 35.5712H117.399V34.3727C116.938 34.742 116.477 35.1099 115.924 35.3865C115.463 35.4785 115.003 35.6631 114.542 35.6631V34.6493C114.727 34.6493 114.91 34.7426 115.095 34.7426C115.556 34.7426 115.924 34.6493 116.385 34.466C116.755 34.3727 117.124 34.0961 117.401 33.8195ZM114.544 27.4607C113.714 27.4607 112.977 27.8306 112.424 28.4752C111.871 29.121 111.595 30.0422 111.595 31.1473C111.595 32.1611 111.963 32.9903 112.609 33.6349C113.161 34.2807 113.806 34.5573 114.544 34.6487V35.6625H114.176C112.885 35.6625 111.871 35.2945 110.95 34.4654C110.12 33.6349 109.752 32.6224 109.752 31.332C109.752 30.0415 110.12 28.9357 111.042 28.1985C111.963 27.4614 113.07 27.0921 114.544 27.0008V27.4607Z" fill="#000704"/>
<path fill-rule="evenodd" clip-rule="evenodd" d="M22.1161 20.7361C22.5767 20.5515 23.0379 20.3682 23.4059 20.0916C25.2489 19.0771 26.0787 17.6034 26.0787 15.4838C26.0787 14.194 25.6181 13.0876 24.6043 12.1664C23.5905 11.3372 22.2081 10.7846 20.5497 10.5074C21.8395 10.1388 22.7613 9.49422 23.4059 8.84901C24.0511 8.01918 24.4197 7.19 24.4197 6.17683C24.4197 4.33384 23.6825 3.04343 22.1155 2.21424C21.1017 1.66102 19.5353 1.29243 17.6003 1.10845V1.93763C18.3375 2.12225 19.0747 2.49085 19.6273 2.85945C20.6411 3.68864 21.1943 4.79443 21.1943 6.26882C21.1943 7.74321 20.6417 8.84901 19.5353 9.5862C19.0747 9.9548 18.3375 10.2314 17.6003 10.416V11.4292C19.0747 11.5218 20.1805 11.8898 20.9177 12.443C21.9315 13.1802 22.4841 14.378 22.4841 16.129C22.4841 17.3268 22.1155 18.2479 21.5622 18.9858L22.1161 20.7361ZM17.6009 21.5653V20.8288C18.2461 20.8288 18.7987 20.6442 19.3519 20.5509L19.4446 21.3813C18.8914 21.4733 18.2461 21.4733 17.6009 21.5653ZM17.6009 1.10781C16.7711 1.01518 15.8499 0.923828 14.8361 0.923828C14.4675 0.923828 13.4544 1.01582 11.98 1.01582H8.10938V1.75301H8.29335C9.21517 1.75301 9.86038 1.845 10.1363 2.02962C10.413 2.30623 10.5969 2.85881 10.5969 3.78063V18.6165C10.5969 19.6303 10.4123 20.2749 10.1363 20.4595C9.86038 20.6441 9.21453 20.8288 8.29335 20.8288H8.10938V21.4733C8.84657 21.4733 9.86038 21.5653 11.1508 21.5653H17.6009V20.8288C17.3243 20.9208 17.0484 20.9208 16.6791 20.9208C15.6653 20.9208 14.9281 20.7361 14.5595 20.4595C14.1909 20.1829 14.0069 19.6303 14.0069 18.9851V11.3366H15.8499C16.4945 11.3366 17.0477 11.3366 17.6009 11.4286V10.4154C16.7711 10.5994 15.8499 10.692 14.7448 10.692H14.0076V1.66102H15.0214C15.9426 1.66102 16.8644 1.75365 17.6016 1.93763V1.10781H17.6009Z" fill="#828282"/>
</svg>
